<svg version="1.0" xmlns="http://www.w3.org/2000/svg" width="1564" height="1567" viewBox="0 0 15640 15670">
  <path d="M5645 15410l-280-259-330-1-330-1-197-178-197-178-98-28c-195-55-669-221-1362-478l-255-94-105 107c-134 135-191 170-282 170-56 0-77-6-137-35-85-43-171-130-233-237-119-203-760-1574-1049-2244l-18-41-69 32c-110 53-163 68-253 72-74 4-91 1-130-19-92-47-116-126-106-348 21-437 101-1311 167-1815 11-82 22-175 25-205l6-55-151-48c-167-54-224-87-248-145-45-108 58-283 329-559l169-172-73-93c-131-167-204-310-234-458-44-220 14-665 185-1408l49-212 70-78c103-114 353-355 467-450 370-309 634-452 967-523l106-23 36-151c20-82 40-166 45-185 6-19 17-64 26-100 40-162 100-317 147-383 25-34 44-42 173-73 55-13 109-26 120-29 19-6 20-1 20 107 1 143 24 217 89 286 66 71 158 91 305 66 208-35 367-117 521-272 104-105 168-198 244-357 59-121 74-154 141-300 40-87 89-184 129-255 14-25 33-58 42-75 35-62 157-216 230-290 107-107 251-219 364-283 19-11 49-28 67-38 17-10 34-16 37-13s-14 45-39 93c-100 200-102 379-7 596 8 19 36 80 62 135 55 116 66 145 75 199 13 77 6 214-15 293-23 86-32 114-68 205-6 14-14 54-18 87-7 61 7 115 41 164 12 17 13 11 14-50 2-160 52-254 192-359 76-57 110-126 144-294 7-36 14-67 14-69 1-2 7 1 14 7s14 30 16 53c1 24 4 46 6 50 8 13 16 103 17 193 1 100-13 200-44 316-12 41-24 95-29 120-9 53-12 150-3 150 3 0 45-13 93-30 48-16 116-32 152-36 63-6 65-7 84-47 11-23 56-80 101-127 118-124 138-169 137-304-1-75-25-260-48-366-10-43-83-534-83-555-1-42 20-181 31-215 15-44 70-150 112-215 74-113 117-211 133-302 9-50 8-53-12-53-36 0-165 39-218 66-86 44-187 164-262 312-47 93-48 84-31-273 18-369 96-588 314-875 29-39 278-345 306-376 11-14 45-55 105-132 23-28 46-50 50-47 5 3-5 35-22 71-30 64-40 96-59 183-8 40-7 47 13 69 20 20 30 23 69 20 101-10 258-113 337-221 21-28 71-119 112-202 141-284 210-386 370-545 116-115 218-195 337-261 50-28 66-19 31 19-65 70-188 274-188 312 0 9-5 21-12 28-9 9-7 12 13 12 33 0 96-35 141-78 21-20 41-32 45-28 8 8 12 2-87 132-42 55-88 121-104 148l-29 49 39-29c165-121 388-335 521-500 104-128 128-160 181-245 58-93 132-238 132-262 1-13 24-47 32-47s29 196 33 315c9 233-50 446-177 636-62 94-160 219-242 308-58 63-290 337-340 401-272 352-382 550-415 750-25 153 16 202 126 149 71-34 115-98 204-294 5-11 34-85 64-165s60-154 65-165 18-41 30-67c24-57 40-62 40-12 0 59 21 123 51 155 25 26 33 29 66 24 113-19 233-109 359-270 21-27 41-52 44-55 24-22 238-325 252-356 12-26 38-40 38-21 0 8-16 58-36 113-126 350-153 475-113 515 10 10 33 19 49 19 32 0 35 6 21 42-5 13-19 55-31 93-11 39-25 79-29 90-5 11-24 56-42 100-182 441-442 764-875 1089-143 107-195 172-235 296-18 54-22 99-26 263-6 221-11 209 70 185 49-15 132-94 170-161 28-51 72-173 83-232 12-64 25-37 23 48-2 106-16 203-41 297-11 41-23 87-25 103-3 15-9 30-14 33s-9 13-9 22c0 28-71 162-145 272-118 176-145 265-95 315 34 33 98 36 162 6 25-12 132-87 237-167 203-153 278-200 378-233 74-25 83-26 83-6 0 8-4 15-8 15-13 0-140 152-188 224-45 69-106 192-134 269-9 26-20 50-23 54-4 3-7 15-7 25s-4 26-9 36c-8 16-15 40-43 147-6 22-18 61-28 87l-19 47 32 5c18 3 92 12 164 21l133 15 37-41c21-23 43-47 48-53 21-23 62-83 89-129 133-231 176-423 174-772-1-279 19-391 98-550 73-146 234-293 412-375 30-15 55-33 58-45 34-122 150-308 256-412 103-103 176-153 383-263 127-68 204-121 286-198 225-211 403-497 505-812 8-25 19-54 23-65 14-33 29-88 35-127 6-33 21-56 31-47 2 2 7 56 12 119 13 187 7 410-15 565-22 152-20 191 10 201 20 6 96-39 105-63 5-12 33-19 33-8 0 3-17 31-39 63-53 80-81 135-121 238-16 44-14 138 4 175 41 82-64 235-235 346-288 185-338 222-424 308-90 90-157 187-190 276-9 24-21 53-25 64-15 35-31 155-29 216 1 33 10 76 19 97 24 53 57 67 159 66 86-1 136-16 199-60 21-16 22-15 22 6 0 83-62 162-194 247-75 48-77 50-50 56 41 8 159-10 246-37 170-54 308-148 386-262 34-49 106-199 162-334 28-69 62-149 76-178 13-29 24-56 24-61 0-12 91-188 122-236 105-164 317-312 561-392 53-18 74-10 39 16-88 63-181 146-229 204-39 46-89 150-112 232-12 44-27 97-33 118-14 46-6 55 29 32 41-27 63-54 90-113 13-28 29-52 34-52 12 0 11 168-1 250-18 116-39 177-115 335-29 61-58 123-64 138-16 39-24 155-14 199l8 37 95-48c141-71 291-163 420-259 109-82 356-317 410-391 14-19 34-46 45-60 39-49 175-273 175-287 0-4 24-62 50-119 5-11 19-51 30-90 12-38 25-81 30-95 4-14 13-45 20-70s16-54 20-65 18-51 30-90c12-38 27-83 35-100 7-16 29-68 48-115 74-178 206-399 359-602 175-233 301-323 733-523 177-82 246-118 311-160 74-48 84-52 84-32 0 6-21 25-48 42-72 44-226 173-327 272-226 220-368 417-455 628-25 63-36 125-32 193 3 43 41 82 81 82 36 0 111-31 130-54 13-16 41-22 41-9 0 11-96 186-130 237-19 27-78 102-133 165-114 134-147 192-154 271-10 108 38 148 165 137l65-7-6 48c-10 81-107 332-137 352-4 3-13 16-20 30-23 43-124 162-216 252-96 94-174 158-415 340-201 152-326 257-421 354-70 72-161 185-127 158 8-7 138-75 289-151 294-150 357-185 490-271 322-209 787-652 1042-990 31-42 61-81 66-87 4-5 29-45 56-87 26-43 53-78 58-78 11 0 5 60-12 115-5 17-16 59-25 95-33 132-93 308-145 427-12 27-25 57-30 68-34 83-116 242-181 355-92 161-150 248-281 423-179 240-491 515-878 775-130 87-396 252-407 252-3 0-19 10-36 22-18 13-33 21-35 19-4-7-132 9-195 25-127 31-336 116-384 156-9 7 14 30 85 85 123 96 197 160 346 298l118 110 22-26c11-14 35-42 51-64 168-217 258-284 410-300 54-5 202 12 210 25 3 5-19 23-50 40-119 68-226 239-282 450-18 70-19 231-1 290 25 81 87 91 155 25 40-38 57-44 49-17-2 9-7 44-11 77-10 84-76 218-168 337l-28 36 30 164c91 494 99 725 35 917-39 118-121 256-225 381-28 33-49 66-47 71 2 6 85 96 183 200l180 188 66-69c37-38 113-130 169-205 116-152 195-231 325-324 165-116 280-161 458-179 43-5 80-5 83 0 8 12-5 28-22 28-68 0-279 175-334 278-11 20-24 44-30 52-32 52-60 144-60 200 0 46-1 48-32 53-135 21-220 75-303 191-55 78-76 129-78 192-3 88 44 114 143 79 58-20 60-20 54 18-17 98-135 339-217 442-4 6-31 40-58 78-28 37-67 84-87 104l-37 36 42-23c23-12 64-40 92-61 55-42 71-47 71-25 0 20-122 143-190 193-40 29-218 135-247 147 0 1 5 57 13 126 7 69 25 251 39 405 13 154 27 310 31 346l6 66 51-8c29-4 72-10 97-13 100-12 167-29 244-65 45-21 87-45 95-54 18-22 31-22 31 1 0 18-58 108-109 168-56 67-66 81-103 141-58 96-50 160 25 200 24 13 57 17 132 17 102 0 132-3 220-24 28-6 61-14 74-16 14-3 28-7 33-10 4-3 16-7 25-9 46-8 283-93 390-139 250-106 493-310 849-711 277-313 348-389 470-507 125-120 239-213 374-303 270-179 401-236 920-395 74-23 149-50 167-60 20-12 35-15 39-9 3 6 4 12 2 14-15 15-434 295-442 295-7 0-193 117-251 158-170 122-443 393-495 492-7 14-16 27-20 30-14 10-55 95-91 190-19 50-19 198 1 211 14 9 172 5 188-5 4-2 59-14 122-25 63-12 126-23 140-26s41-8 60-11 43-8 53-11c11-3 17 1 17 11 0 9-6 16-13 16-38 0-288 186-577 430-286 242-611 489-781 595-280 174-488 275-776 379-40 14-103 37-140 50-155 56-387 129-458 145-76 17-6 11 167-14 162-24 249-38 308-50 14-3 50-10 80-16 134-26 380-98 540-159 30-12 75-28 100-37 122-42 546-253 820-408 216-121 223-125 229-120 9 10-235 252-394 391-88 77-255 212-305 247-14 10-43 31-65 47-104 78-349 235-470 302-233 130-590 283-729 313-10 3-42 11-70 19s-69 17-91 22c-22 4-42 8-45 9-12 4-98 17-135 20-22 3-132 7-245 10s-295 7-405 10-220 7-245 10c-150 15-320 53-440 97-106 39-125 47-185 76l-60 30-74 158c-40 88-76 165-79 173-11 27 211-1 433-55 96-24 255-36 255-20 0 6-23 22-51 36-28 13-80 49-117 78-89 72-155 114-222 142-30 13-64 30-75 38l-20 14 20-7c51-19 160-31 435-50 47-3 101-7 120-10 19-2 67-7 105-10 79-6 187-24 285-46 25-6 53-12 63-14 9-2 17 2 17 9 0 17-222 127-315 157-38 12-70 21-70 20s-13 3-30 9c-16 7-37 13-46 15-8 2-44 10-80 18-35 9-109 25-164 37-242 53-275 70-481 254-114 101-210 169-303 213-76 36-190 73-227 73-12 0-41 16-65 35-61 49-136 75-213 75-57 0-69-4-122-39-33-22-103-84-156-138s-102-97-110-94c-7 2-184 67-393 143-209 77-474 174-590 215-115 41-235 83-265 94s-146 49-258 83l-203 63-196 177-195 176h-656l-280 260c-155 143-282 260-284 260s-129-117-283-260z" fill="#270004"/>
  <g fill="#5a0009">
    <path d="M5734 15011l-189-199-354-1-354-1-96-87c-120-108-119-108-103-99 9 6 12-303 12-1528v-1536h6288l-33 78c-216 510-798 1674-1161 2319-104 185-114 186-274 35l-105-99-115 34c-63 19-306 94-540 168-615 194-856 266-1184 354-82 22-158 49-170 59-11 10-92 82-179 160l-157 142h-705l-188 200c-104 110-192 200-197 200-4 0-93-90-196-199zM2166 14048c-137-218-811-1527-1045-2033-74-159-166-368-192-432l-9-23h2230v1265c0 696-4 1265-8 1265-5 0-73-21-153-46-79-25-225-70-324-100l-179-54-41 44c-22 24-70 72-107 105-56 50-74 61-103 61-32 0-39-5-69-52zM7958 10913l-3308-3-2-2619-3-2618 170-14c189-16 588-19 707-6 77 9 80 10 238 113 88 57 164 104 170 104 5 0 81-47 169-105l160-104 153-12c174-13 446-7 698 16 270 25 751 84 815 100 168 43 379 181 569 373l79 80 106-91c183-159 388-303 509-359 166-76 337-78 652-8 203 44 332 100 513 220 204 135 494 384 671 575l85 93 65 293c123 557 172 907 148 1069-30 212-183 433-353 513-38 17-69 35-69 39s65 76 144 160c232 248 376 411 382 436 10 37-18 56-161 109-121 46-130 51-128 74 1 14 11 117 22 230 29 282 56 619 80 979 12 168 23 320 25 338 3 17 4 31 3 30-1-2-1490-4-3309-5zM596 10873c2-21 9-117 14-213 18-283 59-796 85-1058 14-134 25-254 25-266 0-20-15-29-130-71-139-51-166-70-156-108 5-23 178-220 409-466 64-69 114-128 111-132-2-4-34-21-71-38-104-49-206-159-272-292-65-132-81-197-81-326 0-202 71-623 195-1149l26-112 93-98c268-284 634-572 874-687 185-88 493-152 695-145 169 7 254 39 450 171 134 91 311 231 297 235-7 3-10 746-10 2398v2394H592l4-37z"/>
  </g>
  <g fill="#8f5258">
    <path d="M5734 15011l-189-199-354-1-354-1-93-86-94-86v-291c0-307 0-308 39-207 14 34 93 224 111 265 5 11 19 43 31 70 11 28 32 74 45 103l24 52h322l323 1 125 100c69 55 149 117 179 137 29 20 60 41 67 47 9 7 19 7 28 0 25-18 235-178 304-232l67-53h641l16-37c9-21 30-69 46-108l31-70 58-18c32-9 67-21 78-27 11-5 41-14 67-20 26-5 68-18 95-29 26-10 116-37 198-60 83-23 164-46 180-52 26-8 206-60 365-105 30-9 66-19 80-23 14-5 59-18 100-31 41-12 100-31 130-40 30-10 116-37 190-60 183-57 398-128 555-185 72-25 166-59 210-74 44-16 87-32 96-35 12-5 33 13 79 66 35 40 68 76 74 80 17 10 30-1 69-63 43-68 83-137 154-269 127-236 222-419 353-680 162-323 400-820 400-834 0-2 17-42 39-88 45-99 68-150 106-240l28-68h185l-33 78c-216 510-798 1674-1161 2319-104 185-114 186-274 35l-105-99-115 34c-63 19-306 94-540 168-615 194-856 266-1184 354-82 22-158 49-170 59-11 10-92 82-179 160l-157 142h-705l-188 200c-104 110-192 200-197 200-4 0-93-90-196-199zM2166 14048c-191-302-957-1816-1182-2338l-63-145 86-3c47-2 90 1 94 5s26 53 49 108 51 119 61 143c10 23 28 63 40 90 36 82 128 279 232 497 65 138 297 599 377 750 26 50 72 137 102 195 67 127 110 204 207 373 64 110 68 110 155 1 33-41 63-74 68-74s33 9 61 21c128 52 141 56 470 165l227 76v89c0 49-4 89-8 89-5 0-73-21-153-46-79-25-225-70-324-100l-179-54-41 44c-22 24-70 72-107 105-56 50-74 61-103 61-32 0-39-5-69-52z"/>
    <path d="M9225 13600c-242-38-400-255-422-577l-6-93h253v38c1 99 52 220 113 265 104 78 268 56 334-44 24-36 29-55 31-124 3-67 0-89-16-122-37-72-79-102-289-203-163-79-211-107-247-145-193-198-181-652 23-856 76-76 148-109 249-116 284-20 468 180 496 540l5 68-127-3-127-3-7-54c-15-124-72-199-170-221-141-32-238 66-226 230 7 95 46 134 208 204 210 92 271 126 329 181 66 63 112 146 136 246 19 83 19 291 0 384-31 144-127 291-230 350-84 48-211 70-310 55zM4932 12613l3-948 275-3c157-1 304 2 343 8 152 23 240 107 284 271 25 95 23 303-5 386-22 70-72 154-107 181l-23 18 46 35c59 43 106 113 133 197 30 92 38 324 15 431-34 160-121 283-239 337l-62 29-333 3-332 3 2-948zm630 599c67-41 91-103 90-236-1-100-18-165-55-204-44-47-66-52-242-52h-165v522l168-4c152-3 170-5 204-26zm-35-802c54-32 76-90 77-195 1-116-22-173-83-204-35-18-58-21-186-21h-145v440h153c133 0 156-2 184-20zM5960 13556c0-2 95-408 211-903 115-494 215-919 220-945l11-48h128c71 0 131 4 134 9 7 10 436 1863 436 1880 0 8-37 11-132 9l-132-3-32-150c-17-82-37-176-44-207l-11-58h-220c-120 0-219 2-219 4s-20 95-45 207-45 205-45 206c0 2-58 3-130 3-71 0-130-2-130-4zm718-743c-3-10-36-166-74-346-43-207-72-321-76-310-6 15-148 656-148 669 0 2 68 4 151 4 139 0 151-1 147-17zM7210 12610v-950h260v1900h-260v-950zM7692 12613l3-948h690l58 29c143 70 221 250 220 506-1 209-49 351-145 434l-37 32 28 17c63 37 110 143 130 293 6 43 15 167 21 274 10 181 15 229 34 288l7 22h-130c-72 0-131-3-131-7 0-5-4-34-10-66-5-32-14-142-20-245-12-207-29-299-64-353-40-60-73-69-245-69h-151v740h-260l2-947zm614-109c61-29 91-91 101-210 7-87-11-192-41-237-39-58-71-67-253-67h-163v530h161c128 0 168-3 195-16zM599 10905c-10-10 55-900 96-1303 14-134 25-254 25-266 0-20-15-29-130-71-139-51-166-70-156-108 5-23 178-220 409-466 64-69 114-128 111-132-2-4-34-21-71-38-104-49-206-159-272-292-65-132-81-197-81-326 0-202 71-623 195-1149l26-112 93-98c268-284 634-572 874-687 108-52 285-101 474-133 125-21 318-16 393 11 121 42 304 155 475 292l85 68 2 120 3 120-26-30c-97-112-199-199-354-303-143-95-226-132-318-141-78-8-260 7-338 28-21 5-77 20-124 31-117 29-159 46-275 108-199 108-468 323-710 570-105 107-110 114-123 174-8 35-17 79-22 98-40 171-99 468-130 650-27 156-43 377-33 451 19 146 135 326 245 382 72 36 98 35 152-10 25-21 66-54 91-73 26-19 85-65 133-103 48-37 114-88 147-113s98-75 145-111c91-71 275-207 354-263 26-19 61-44 76-55 28-20 223-158 227-160 1 0-1-28-5-62l-7-60-69 33c-38 18-83 36-102 40-30 5-34 3-40-21-11-46 4-176 30-246 35-95 53-127 107-190 46-54 47-57 26-63-58-15-144-2-222 33-11 5-49 23-85 40-78 36-171 113-240 200-60 75-80 119-80 176 0 37 7 50 44 92l45 50-92 61c-87 57-127 79-127 70 0-2-13-42-29-88-16-47-34-113-41-147l-13-62 36-48c44-61 362-373 442-435 219-169 446-308 482-294 59 23 142 480 146 808l2 133-85 58c-47 32-96 65-110 75-14 9-63 46-110 82s-95 72-107 80c-45 32-335 274-478 401-269 238-716 698-838 861-42 56-37 72 31 96 31 12 77 26 101 32l44 11-7 52c-27 213-79 704-96 907-18 221-50 691-50 748 0 21-4 22-83 22-46 0-86-2-88-5zM8084 10878c33-188 82-699 81-863v-130l-50-75c-123-185-353-410-555-541-323-211-733-326-1048-293l-62 7 19 31c10 17 28 47 38 66 30 54 84 151 106 190 10 19 36 64 57 100 20 36 54 96 74 133s45 82 55 100 33 59 51 92c59 107 101 182 179 320 28 50 51 97 51 106 0 43-101 250-201 412-51 84-90 146-108 176-8 13-29 6-81-27-2-1 3-17 12-35 50-96 115-284 148-425 11-48 26-108 32-133 16-68 5-96-71-166-174-161-413-308-593-363-106-32-262-52-353-45-276 22-576 175-842 429-45 43-53 56-53 86 0 44 32 199 61 295 28 93 109 307 120 320 17 18 9 42-18 56-16 7-31 15-34 17-6 3-189-281-189-293 0-3-10-22-23-43-23-37-117-248-117-263 0-6 57-109 190-344 9-16 32-57 50-90s41-73 50-90c9-16 32-57 50-90s41-73 50-90c9-16 32-57 50-90 50-91 81-147 101-182 10-18 34-61 54-97l35-64-86-7c-47-4-131-4-187-1-130 9-388 69-458 107-18 9-19 1-19-276 0-157 1-285 3-285 1 0 27 9 57 21 30 11 66 24 80 28 25 8 238 88 315 118 22 8 57 21 78 29 38 15 90 34 155 58 123 47 124 47 138 35 8-6 14-16 14-21s29-70 66-144c75-155 54-146 209-86 79 30 101 34 180 34 69 0 103-5 145-22 65-26 142-51 146-48 1 2 35 69 74 151 40 81 76 147 81 147s26-7 47-16c20-9 55-22 77-29s65-23 95-35c72-28 129-49 160-60 14-5 50-18 80-30s66-25 80-30 48-17 75-28c28-11 102-38 165-61s132-49 153-57c20-7 55-21 77-29s58-22 80-30 58-23 80-32c38-15 56-15 318 6 325 27 337 28 467 36 87 5 102 9 117 28 18 22 64 88 145 205 24 34 60 86 80 115 43 60 101 144 188 272 34 50 95 140 137 200 143 208 220 336 213 353-5 14-14 9-47-28-23-25-55-63-72-86s-80-99-139-170-147-176-195-233c-104-125-138-157-286-275-232-185-389-258-596-278-172-17-356 8-483 64l-48 22 83 21c139 34 310 131 322 181 4 15 6 28 4 29-2 2-33 19-70 39-80 44-206 86-259 86-22 0-39 3-39 8 0 4 44 35 98 70 334 218 938 719 1036 861 31 45 29 57-14 65-17 3-43 8-59 11-27 6-28 8-34 86-4 44-11 96-16 117-5 20-15 64-22 97-11 53-77 321-99 400-5 17-14 48-20 70s-20 66-32 98l-20 57h-140l6-32z"/>
    <path d="M11081 10843c-1-75-4-126-27-438-25-355-82-926-114-1155-9-66-5-79 30-80 17-1 139-42 158-53 22-15 13-34-65-129-288-350-739-781-1223-1168-170-136-182-145-352-261-92-62-118-84-118-102 0-12 5-87 10-167 25-356 76-639 130-728l20-32 52 26c64 32 199 114 251 152 20 15 56 40 80 57 124 87 378 322 511 474 67 76 69 92 27 231-40 131-49 153-64 147-6-2-49-29-93-58-129-85-121-79-104-86 8-3 30-21 48-39 29-29 32-38 32-89 0-82-29-134-136-241-80-81-104-98-196-143-114-55-216-79-281-67l-38 7 48 53c96 104 143 230 143 380 0 78-2 86-19 86-15 0-97-30-177-66-14-6-24 27-24 78 0 34 5 39 71 85 40 26 86 58 103 69 62 42 636 474 704 529 20 17 47 37 59 45s65 49 118 90c183 143 175 138 208 129 112-32 225-159 282-315 20-55 25-87 25-164 0-129-34-398-70-565-5-22-14-67-20-100s-20-98-30-145-24-112-30-145c-7-33-16-71-21-85-4-14-13-51-18-83-12-68-46-112-194-253-363-345-685-559-917-608-355-76-492-76-633-2-65 35-251 160-322 216-93 74-191 186-310 353-21 31-43 53-48 50s-41-48-80-100c-40-52-89-117-111-145-70-92-230-242-311-292-122-77-171-93-356-116-90-11-249-31-354-45-431-55-736-72-947-51l-106 11-109 99-109 99-27 366c-16 201-30 393-32 426-3 33-16 207-30 387s-25 334-25 343-9 15-25 15c-24 0-25-3-26-67-1-38-3-81-5-98-3-38-33-420-39-505-2-36-11-150-19-255-8-104-18-230-21-280-4-49-10-135-15-190s-9-109-10-121c0-14-38-56-111-122l-111-101-101-7c-154-12-392-8-587 10-96 9-187 19-203 22l-27 6v-149l163-14c180-15 589-19 709-6 77 9 80 10 238 113 88 57 164 104 170 104 5 0 81-47 169-105l160-104 153-12c174-13 446-7 698 16 270 25 751 84 815 100 168 43 379 181 569 373l79 80 106-91c183-159 388-303 509-359 166-76 337-78 652-8 203 44 332 100 513 220 204 135 494 384 671 575l85 93 65 293c123 557 172 907 148 1069-30 212-183 433-353 513-38 17-69 35-69 39s65 76 144 160c232 248 376 411 382 436 10 37-18 56-161 109-121 46-130 51-128 74 1 14 11 117 22 230 36 354 101 1190 101 1300v39h-177l-2-67zM1250 10705c0-63 2-115 5-115 14 0 1179-170 1181-173 2-1-263-39-589-83l-592-79v-230l873-3 872-2v160l-597 2-598 3 575 83c316 46 585 86 598 89 20 5 22 11 22 67v61l-572 84c-315 45-586 87-603 91-16 5 241 9 573 9l602 1v150H1250v-115zM5418 10557c-54-87-104-238-88-268 30-54 171-129 245-129h34l-37 69c-36 68-36 69-26 132 7 35 26 95 44 132 18 38 30 69 29 71-2 1-35 8-74 15-38 7-77 15-85 17-9 2-25-12-42-39zM6295 10579c-68-16-69-16-52-42 19-29 62-151 71-200 6-33 2-48-29-104-20-36-33-68-30-71 10-11 127 19 177 45 27 14 61 41 77 60l29 35-18 56c-25 80-50 140-79 190-24 39-29 42-66 41-22-1-58-5-80-10zM2420 9861v-79l68-6c101-10 170-35 214-76 34-33 38-42 38-85 0-41-5-52-38-85-67-68-213-78-315-23-41 23-65 50-143 160-58 81-110 143-133 158-182 121-598 113-787-15-73-49-106-95-112-160-16-168 163-287 460-307l98-6v160l-64 6c-119 11-196 62-196 131 0 72 70 115 187 116 122 0 142-14 248-175 98-151 154-196 282-230 137-37 381-37 524 0 141 36 251 116 280 202 19 59 7 147-27 196-76 108-247 173-506 191l-78 6v-79zM1250 9141v-81h593c325 0 625-5 666-10 105-14 177-49 197-96 30-72-5-135-96-171-41-16-100-18-702-21l-658-3v-171l658 5c687 5 739 8 874 53 176 57 258 141 258 264 0 140-108 232-332 282-89 20-125 22-775 25l-683 4v-80z"/>
  </g>
  <g fill="#fefefe">
    <path d="M5734 15011l-189-199-355-1-355-2-93-87-93-87 3-286 3-287 84 202c47 110 102 238 122 284l38 82h632l182 138c100 75 189 143 198 149 15 11 44-8 214-137l196-150h637l37-87c54-128 55-129 137-153 40-12 134-41 208-65s261-80 415-123c388-111 506-146 690-204 307-97 722-236 941-317l82-30 67 80c43 51 73 79 83 77 68-13 855-1564 1112-2190l24-58h184l-33 78c-216 510-798 1674-1161 2319-104 185-114 186-274 35l-105-99-115 34c-63 19-306 94-540 168-615 194-856 266-1184 354-82 22-158 49-170 59-11 10-92 82-179 160l-157 142h-705l-188 200c-104 110-192 200-197 200-4 0-93-90-196-199zM2166 14048c-137-218-811-1527-1045-2033-74-160-167-368-192-433l-9-23 91 3 90 3 78 180c226 522 668 1414 929 1873 86 151 114 192 132 192 11 0 77-70 117-123 16-21 34-35 43-33 8 3 107 38 220 80s278 99 367 128l163 53v88c0 48-4 87-8 87-5 0-73-21-153-46-79-25-225-70-324-100l-179-54-41 44c-22 24-70 72-107 105-56 50-74 61-103 61-32 0-39-5-69-52zM603 10893c-12-31 45-820 92-1291 14-134 25-254 25-266 0-20-15-29-130-71-139-51-166-70-156-108 5-23 178-220 409-466 64-69 114-128 111-132-2-4-34-21-71-38-104-49-206-159-272-292-65-132-81-197-81-326 0-202 71-623 195-1149l26-112 93-98c268-284 634-572 874-687 108-52 285-101 474-133 125-21 318-16 393 11 121 42 304 155 475 292l85 68 3 118 3 118-61-70c-60-70-218-195-360-286-156-100-263-132-405-120-121 10-395 71-483 109-227 95-522 316-818 611l-130 130-42 190c-103 468-151 752-159 950-5 121-4 135 20 203 35 101 97 201 157 255 54 49 154 94 174 79 407-318 969-740 1144-859 86-59 86-59 76-135l-6-46-74 34c-40 19-87 37-103 40-29 6-30 5-36-40-11-69 19-216 61-303 19-41 56-94 84-123 28-28 50-53 50-56 0-13-153-2-201 15-157 55-258 118-347 217-131 145-147 259-47 338l27 22-107 68c-58 38-108 67-110 64-12-12-66-195-73-247l-9-62 40-47c120-140 354-361 507-478 97-74 242-168 324-210 62-32 76-36 89-25 47 39 111 373 137 721 17 225 24 200-82 271-367 246-755 575-1189 1009-266 266-403 417-466 511-34 51-26 59 93 95l96 28-6 30c-8 40-62 521-81 721-24 258-43 514-56 753l-13 222h-78c-64 0-80-3-85-17zM8102 10773c34-253 58-516 65-698l6-180-39-60c-136-208-340-414-552-555-159-106-391-210-577-260-144-38-240-50-383-49-199 2-218-73 146 578l315 565-17 52c-37 116-280 544-310 544-22 0-66-25-62-35 83-193 136-352 175-522 36-156 36-156-109-277-284-238-577-366-838-366-262 0-587 149-862 395-108 96-109 99-75 242 35 149 93 334 139 441 20 46 36 87 36 91s-15 15-34 23l-34 17-81-130c-100-159-170-289-211-392l-30-79 315-566 315-567-27-6c-16-4-83-7-150-8-149-1-309 24-456 74-58 19-108 35-111 35-4 0-6-126-6-281 0-264 1-281 18-274 124 48 793 295 799 295 4-1 39-65 77-144 37-79 71-149 75-155 5-8 46 2 137 34 168 58 208 59 364 5 63-21 115-38 117-36 1 1 34 68 73 149 38 81 74 147 79 147s281-101 612-225l604-226 235 20c129 11 319 26 422 33l188 12 38 55c21 31 60 88 87 126 27 39 64 91 82 118 18 26 48 68 66 95 144 205 445 652 482 715 17 30 24 52 18 58-5 5-112-117-276-314-207-251-288-342-364-407-234-200-397-294-593-342-35-8-114-13-215-13-173 1-276 20-372 68l-45 23 86 21c98 25 189 67 261 121 40 30 50 44 50 67 0 28-7 33-85 72-57 29-115 48-177 60-51 10-93 20-93 23s28 23 63 44c216 135 765 575 968 776 139 138 148 164 56 175l-54 7-7 73c-14 152-100 517-183 778l-24 77h-136l19-137z"/>
    <path d="M11086 10868c-3-24-8-101-11-173-14-307-68-924-115-1312-11-89-20-171-20-181 0-15 18-24 89-46 100-30 119-45 103-80-31-68-357-424-603-657-382-364-700-627-1044-866l-100-69 1-145c2-276 73-706 130-787l16-23 76 41c256 138 594 416 816 672l58 67-7 53c-7 53-57 221-74 247-7 11-14 10-37-7-16-11-62-41-101-66-40-25-73-49-73-53 0-5 16-20 35-36 46-37 63-92 46-149-58-193-362-408-576-408-41 0-75 3-75 7s18 25 39 48c63 64 108 147 130 245 21 85 27 182 15 214-9 24-27 20-122-24-47-22-86-39-87-38-1 2-5 30-8 63l-5 60 116 80c140 96 684 504 1035 777 77 60 89 66 115 59 118-34 225-152 288-317 25-67 26-74 21-229-4-120-14-212-41-365-30-174-102-526-147-718-12-50-22-62-163-200-389-379-682-574-968-642-354-84-484-77-668 36-127 78-270 184-346 257-68 64-105 108-226 274l-46 62-43-57c-271-363-443-515-649-576-30-9-147-28-260-42-687-86-921-103-1159-86l-153 11-41 35c-23 20-74 66-114 103l-72 68-58 768c-53 707-59 767-75 767-10 0-18-1-19-2 0-2-26-347-58-768l-59-765-108-102-109-102-75-8c-118-13-479-7-650 11-221 23-200 28-200-53v-68l163-14c180-15 589-19 709-6 77 9 80 10 238 113 88 57 164 104 170 104 5 0 81-47 169-105l160-104 153-12c174-13 446-7 698 16 270 25 751 84 815 100 168 43 379 181 569 373l79 80 106-91c183-159 388-303 509-359 166-76 337-78 652-8 203 44 332 100 513 220 204 135 494 384 671 575l85 93 65 293c123 557 172 907 148 1069-30 212-183 433-353 513-38 17-69 35-69 39s65 76 144 160c232 248 376 411 382 436 10 37-18 56-161 109-121 46-130 51-128 74 1 14 11 117 22 230 36 354 101 1190 101 1300v39h-169l-5-42zM5432 10578c-21-28-71-137-91-202-19-62-20-71-6-92 20-31 72-69 126-93 48-21 139-38 139-26 0 5-16 36-35 71-33 58-34 65-25 112 9 52 54 169 71 187 21 22 5 32-68 43-96 15-98 15-111 0zM6310 10578c-85-14-83-10-46-85 66-134 70-181 21-264-19-33-35-62-35-65 0-10 52-3 109 15 71 22 159 83 167 116s-18 117-66 214c-46 90-41 88-150 69z"/>
  </g>
</svg>
