<svg version="1.1" id="Layer_1" xmlns="http://www.w3.org/2000/svg" x="0" y="0" viewBox="0 0 6576.7 2139.6" xml:space="preserve">
  <style>
    .st0{fill:#fffb96}.st1{fill:#ff71ce}.st2{fill:#fff;stroke:#0b1e21;stroke-width:10;stroke-miterlimit:10}
  </style>
  <path class="st0" d="M5245.1 1277.2L6319.1 0 5142.8 1213.5l755.7-900.3-874.3 887.2 497.1-655.9-682.1 800.5c-47.8 54.8-69.5 130.9-51.8 207.1 29.3 126 155.2 204.4 281.2 175.1 59.4-13.8 104.8-49 141.4-94.6l800.8-930.2-609.4 575.8L6187.6 321l-942.5 956.2z"/>
  <path class="st1" d="M5245.1 1314.2L6319.1 37 5142.8 1250.5l755.7-900.3-874.3 887.2 497.1-655.9-682.1 800.5c-47.8 54.8-69.5 130.9-51.8 207.1 29.3 126 155.2 204.4 281.2 175.1 59.4-13.8 104.8-49 141.4-94.6l800.8-930.2-609.4 575.8L6187.6 358l-942.5 956.2z"/>
  <path class="st0" d="M686 1543.4c0 44.8-7.5 87.3-22.5 127.6s-36.1 75.7-63.2 106.2-59.4 54.6-96.8 72.6-78.5 27-123.2 27c-27.9 0-53.9-3.9-78.1-11.5-24.2-7.7-46.9-20-68.2-36.9v33H74v-913h161l-.3 308c18.3-14.7 40.2-26.4 65.5-35.2 25.3-8.8 51.9-13.2 79.8-13.2 38.9 0 76.7 8.6 113.4 25.9s69.3 40.9 98 71 51.5 65.5 68.8 106.1c17.2 40.6 25.8 84.8 25.8 132.4zm-161 0c0-29.3-4.4-56.1-13.2-80.3-8.8-24.2-21-44.9-36.8-62.1-15.8-17.2-34.4-30.4-56-39.6-21.6-9.2-45.6-13.8-71.9-13.8-16.8 0-36.3 3.5-58.2 10.5-22 7-40.3 16-54.9 27v305.8c34.4 31.5 73.2 47.3 116.4 47.3 24.9 0 48.1-4.8 69.7-14.3s40.1-22.9 55.5-40.1 27.5-37.8 36.2-61.6c8.8-24 13.2-50.2 13.2-78.8zM1440.6 1543.4c0 47.7-8.8 91.9-26.4 132.6-17.6 40.7-41.8 75.9-72.5 105.6-30.8 29.7-66.8 53.2-108.2 70.4-41.4 17.2-85.5 25.8-132.4 25.8-46.9 0-90.8-8.6-131.9-25.8-41-17.2-76.9-40.9-107.7-71s-54.9-65.5-72.5-106.2-26.4-84.5-26.4-131.5c0-46.2 9-89.6 26.9-130.3 17.9-40.7 42.3-76.3 73.1-106.7 30.8-30.4 66.7-54.3 107.7-71.5 41-17.2 84.6-25.9 130.8-25.9 46.9 0 91 8.6 132.4 25.9s77.5 40.7 108.2 70.4c30.8 29.7 54.9 65.1 72.5 106.2 17.6 41.1 26.4 85.1 26.4 132zm-158 0c0-27.1-4.8-52.4-14.3-75.9s-22.5-44-38.9-61.6c-16.5-17.6-35.7-31.3-57.6-41.3s-45.3-14.9-70.2-14.9c-24.9 0-48.3 5-70.2 14.9s-41.1 23.7-57.6 41.3c-16.5 17.6-29.5 38.1-39 61.6s-14.3 48.8-14.3 75.9c0 27.1 4.8 52.4 14.3 75.9s22.5 44 39 61.6 35.7 31.3 57.6 41.3 45.3 14.8 70.2 14.8c24.9 0 48.3-4.9 70.2-14.8s41.1-23.7 57.6-41.3c16.5-17.6 29.4-38.1 38.9-61.6s14.3-48.7 14.3-75.9zM2196.3 1543.4c0 47.7-8.8 91.9-26.4 132.6-17.6 40.7-41.8 75.9-72.5 105.6-30.8 29.7-66.8 53.2-108.2 70.4-41.4 17.2-85.5 25.8-132.4 25.8-46.9 0-90.8-8.6-131.9-25.8-41-17.2-76.9-40.9-107.7-71s-54.9-65.5-72.5-106.2-26.4-84.5-26.4-131.5c0-46.2 9-89.6 26.9-130.3 17.9-40.7 42.3-76.3 73.1-106.7 30.8-30.4 66.7-54.3 107.7-71.5 41-17.2 84.6-25.9 130.8-25.9 46.9 0 91 8.6 132.4 25.9s77.5 40.7 108.2 70.4c30.8 29.7 54.9 65.1 72.5 106.2 17.6 41.1 26.4 85.1 26.4 132zm-158 0c0-27.1-4.8-52.4-14.3-75.9s-22.5-44-38.9-61.6c-16.5-17.6-35.7-31.3-57.6-41.3s-45.3-14.9-70.2-14.9c-24.9 0-48.3 5-70.2 14.9s-41.1 23.7-57.6 41.3c-16.5 17.6-29.5 38.1-39 61.6s-14.3 48.8-14.3 75.9c0 27.1 4.8 52.4 14.3 75.9s22.5 44 39 61.6 35.7 31.3 57.6 41.3 45.3 14.8 70.2 14.8c24.9 0 48.3-4.9 70.2-14.8s41.1-23.7 57.6-41.3c16.5-17.6 29.4-38.1 38.9-61.6s14.3-48.7 14.3-75.9zM2564.7 1858c-12.5 5.9-26.6 10.6-42.4 14.3-15.8 3.7-32.1 5.5-49 5.5-23.5 0-46.1-3.1-67.8-9.3-21.7-6.3-40.6-16.3-56.8-30.3s-29-32.1-38.6-54.5c-9.6-22.4-14.3-49.3-14.3-80.9V948.3h162v727.1c0 26.4 5.3 44.6 15.9 54.5s23.3 14.8 38 14.8c18.3 0 35.9-5.5 52.8-16.5V1858zM2806.4 1114.4h-165v-165h165v165zm-2 746.9h-161v-636.9h161v636.9zM3527.4 1861.3h-158v-379.5c0-22.7-3.5-42.7-10.4-59.9-7-17.2-16.3-31.5-28-42.9s-25-19.8-40-25.3-30.5-8.3-46.6-8.3c-24.1 0-47.9 4.2-71.3 12.7s-44.6 21.8-63.6 40.2v463.1h-160v-635.8h160l-.7 47.3c9.5-9.5 21.2-18.3 35.2-26.4s28.4-14.9 43.4-20.4 30.4-9.7 46.2-12.6 31-4.4 45.6-4.4c32.2 0 63.2 5.1 92.8 15.4s56 26 79.1 47.3 41.6 48.8 55.5 82.5c13.9 33.7 20.9 73.7 20.9 119.9v387.1zM4607.4 1543.4c0 44.8-7.5 87.3-22.5 127.6s-36.1 75.7-63.2 106.2-59.4 54.6-96.8 72.6-78.5 27-123.2 27c-27.9 0-53.9-3.9-78.1-11.5-24.2-7.7-46.9-20-68.2-36.9v33h-160v-913h161l-.3 308c18.3-14.7 40.2-26.4 65.5-35.2 25.3-8.8 51.9-13.2 79.8-13.2 38.9 0 76.7 8.6 113.4 25.9s69.3 40.9 98 71 51.5 65.5 68.8 106.1c17.2 40.6 25.8 84.8 25.8 132.4zm-161 0c0-29.3-4.4-56.1-13.2-80.3-8.8-24.2-21-44.9-36.8-62.1-15.8-17.2-34.4-30.4-56-39.6-21.6-9.2-45.6-13.8-71.9-13.8-16.8 0-36.3 3.5-58.2 10.5-22 7-40.3 16-54.9 27v305.8c34.4 31.5 73.2 47.3 116.4 47.3 24.9 0 48.1-4.8 69.7-14.3s40.1-22.9 55.5-40.1 27.5-37.8 36.2-61.6c8.8-24 13.2-50.2 13.2-78.8zM5362 1543.4c0 47.7-8.8 91.9-26.4 132.6-17.6 40.7-41.8 75.9-72.5 105.6-30.8 29.7-66.8 53.2-108.2 70.4-41.4 17.2-85.5 25.8-132.4 25.8-46.9 0-90.8-8.6-131.9-25.8-41-17.2-76.9-40.9-107.7-71s-54.9-65.5-72.5-106.2-26.4-84.5-26.4-131.5c0-46.2 9-89.6 26.9-130.3 17.9-40.7 42.3-76.3 73.1-106.7 30.8-30.4 66.7-54.3 107.7-71.5 41-17.2 84.6-25.9 130.8-25.9 46.9 0 91 8.6 132.4 25.9s77.5 40.7 108.2 70.4c30.8 29.7 54.9 65.1 72.5 106.2 17.6 41.1 26.4 85.1 26.4 132zm-158 0c0-27.1-4.8-52.4-14.3-75.9s-22.5-44-38.9-61.6c-16.5-17.6-35.7-31.3-57.6-41.3s-45.3-14.9-70.2-14.9c-24.9 0-48.3 5-70.2 14.9s-41.1 23.7-57.6 41.3c-16.5 17.6-29.5 38.1-39 61.6s-14.3 48.8-14.3 75.9c0 27.1 4.8 52.4 14.3 75.9s22.5 44 39 61.6 35.7 31.3 57.6 41.3 45.3 14.8 70.2 14.8c24.9 0 48.3-4.9 70.2-14.8s41.1-23.7 57.6-41.3c16.5-17.6 29.4-38.1 38.9-61.6s14.3-48.7 14.3-75.9zM6039.2 1224.4l-286 755.7c-21.3 56.5-49.1 97.2-83.6 122.1-34.5 24.9-75.5 37.4-123.2 37.4-7.3 0-15.4-.6-24.2-1.6-8.8-1.1-17.2-2.8-25.3-5l-52.8-147.4c12.5 5.9 25.3 10.4 38.5 13.8 13.2 3.3 25.7 5 37.4 5 24.9 0 47.7-5.7 68.2-17 20.5-11.4 36.3-32.5 47.3-63.2l22-63.8-245.3-635.8h172.7l146.3 409.2 137.5-409.2h170.5zM6576.7 1683.1c0 31.5-7.4 59.6-22 84.2s-33.8 45.1-57.3 61.6-50 29-79.3 37.4c-29.4 8.4-58.4 12.6-87 12.6-48.5 0-93.1-9-133.9-26.9-40.8-18-76.6-46.8-107.4-86.4l95.7-96.8c19.1 24.2 41.1 43.1 66 56.7s51.7 20.3 80.3 20.3c24.9 0 45.7-4.6 62.2-13.8 16.5-9.2 24.8-22.9 24.8-41.3 0-19.1-11.7-35-35.2-47.8-23.5-12.8-56.5-25.5-99-38-24.9-7.3-49.1-16.7-72.6-28s-44.4-25.3-62.7-41.8c-18.3-16.5-33-35.4-44-56.6s-16.5-45.8-16.5-73.7c0-30.8 7.2-58.5 21.5-83 14.3-24.6 33.1-45.1 56.2-61.6s49.4-29.1 78.8-37.9 59.2-13.2 89.3-13.2c97 0 176.4 36.7 238.1 110l-94.7 95.7c-18.4-22.7-39.3-40.7-62.8-53.9-23.5-13.2-49.2-19.8-77.1-19.8-9.5 0-19.6 1.3-30.3 3.9-10.7 2.6-20.6 6.2-29.7 11-9.2 4.8-16.7 11-22.6 18.7-5.9 7.7-8.8 16.3-8.8 25.8 0 16.9 11.2 31.5 33.5 44 22.4 12.5 54.4 24.9 96.3 37.4 27.1 8.1 52.8 18.3 77 30.8 24.2 12.5 45.5 27 63.8 43.5 18.3 16.5 32.8 35.2 43.5 56.1 10.6 20.8 15.9 44.4 15.9 70.8z"/>
  <g>
    <path class="st1" d="M612 1471.4c0 44.8-7.5 87.3-22.5 127.6s-36.1 75.7-63.2 106.2-59.4 54.6-96.8 72.6-78.5 27-123.2 27c-27.9 0-53.9-3.9-78.1-11.5-24.2-7.7-46.9-20-68.2-36.9v33H0v-913h161l-.3 308c18.3-14.7 40.2-26.4 65.5-35.2 25.3-8.8 51.9-13.2 79.8-13.2 38.9 0 76.7 8.6 113.4 25.9s69.3 40.9 98 71 51.5 65.5 68.8 106.1c17.2 40.6 25.8 84.8 25.8 132.4zm-161 0c0-29.3-4.4-56.1-13.2-80.3-8.8-24.2-21-44.9-36.8-62.1-15.8-17.2-34.4-30.4-56-39.6-21.6-9.2-45.6-13.8-71.9-13.8-16.8 0-36.3 3.5-58.2 10.5-22 7-40.3 16-54.9 27v305.8c34.4 31.5 73.2 47.3 116.4 47.3 24.9 0 48.1-4.8 69.7-14.3s40.1-22.9 55.5-40.1 27.5-37.8 36.2-61.6c8.8-24 13.2-50.2 13.2-78.8zM1366.6 1471.4c0 47.7-8.8 91.9-26.4 132.6-17.6 40.7-41.8 75.9-72.5 105.6-30.8 29.7-66.8 53.2-108.2 70.4-41.4 17.2-85.5 25.8-132.4 25.8-46.9 0-90.8-8.6-131.9-25.8-41-17.2-76.9-40.9-107.7-71s-54.9-65.5-72.5-106.2-26.4-84.5-26.4-131.5c0-46.2 9-89.6 26.9-130.3 17.9-40.7 42.3-76.3 73.1-106.7 30.8-30.4 66.7-54.3 107.7-71.5 41-17.2 84.6-25.9 130.8-25.9 46.9 0 91 8.6 132.4 25.9s77.5 40.7 108.2 70.4c30.8 29.7 54.9 65.1 72.5 106.2 17.6 41.1 26.4 85.1 26.4 132zm-158 0c0-27.1-4.8-52.4-14.3-75.9s-22.5-44-38.9-61.6c-16.5-17.6-35.7-31.3-57.6-41.3s-45.3-14.9-70.2-14.9c-24.9 0-48.3 5-70.2 14.9s-41.1 23.7-57.6 41.3c-16.5 17.6-29.5 38.1-39 61.6s-14.3 48.8-14.3 75.9c0 27.1 4.8 52.4 14.3 75.9s22.5 44 39 61.6 35.7 31.3 57.6 41.3 45.3 14.8 70.2 14.8c24.9 0 48.3-4.9 70.2-14.8s41.1-23.7 57.6-41.3c16.5-17.6 29.4-38.1 38.9-61.6s14.3-48.7 14.3-75.9zM2122.3 1471.4c0 47.7-8.8 91.9-26.4 132.6-17.6 40.7-41.8 75.9-72.5 105.6-30.8 29.7-66.8 53.2-108.2 70.4-41.4 17.2-85.5 25.8-132.4 25.8-46.9 0-90.8-8.6-131.9-25.8-41-17.2-76.9-40.9-107.7-71s-54.9-65.5-72.5-106.2-26.4-84.5-26.4-131.5c0-46.2 9-89.6 26.9-130.3 17.9-40.7 42.3-76.3 73.1-106.7 30.8-30.4 66.7-54.3 107.7-71.5 41-17.2 84.6-25.9 130.8-25.9 46.9 0 91 8.6 132.4 25.9s77.5 40.7 108.2 70.4c30.8 29.7 54.9 65.1 72.5 106.2 17.6 41.1 26.4 85.1 26.4 132zm-158 0c0-27.1-4.8-52.4-14.3-75.9s-22.5-44-38.9-61.6c-16.5-17.6-35.7-31.3-57.6-41.3s-45.3-14.9-70.2-14.9c-24.9 0-48.3 5-70.2 14.9s-41.1 23.7-57.6 41.3c-16.5 17.6-29.5 38.1-39 61.6s-14.3 48.8-14.3 75.9c0 27.1 4.8 52.4 14.3 75.9s22.5 44 39 61.6 35.7 31.3 57.6 41.3 45.3 14.8 70.2 14.8c24.9 0 48.3-4.9 70.2-14.8s41.1-23.7 57.6-41.3c16.5-17.6 29.4-38.1 38.9-61.6s14.3-48.7 14.3-75.9zM2490.7 1786c-12.5 5.9-26.6 10.6-42.4 14.3-15.8 3.7-32.1 5.5-49 5.5-23.5 0-46.1-3.1-67.8-9.3-21.7-6.3-40.6-16.3-56.8-30.3s-29-32.1-38.6-54.5c-9.6-22.4-14.3-49.3-14.3-80.9V876.3h162v727.1c0 26.4 5.3 44.6 15.9 54.5s23.3 14.8 38 14.8c18.3 0 35.9-5.5 52.8-16.5V1786zM2732.4 1042.4h-165v-165h165v165zm-2 746.9h-161v-636.9h161v636.9zM3453.4 1789.3h-158v-379.5c0-22.7-3.5-42.7-10.4-59.9-7-17.2-16.3-31.5-28-42.9s-25-19.8-40-25.3-30.5-8.3-46.6-8.3c-24.1 0-47.9 4.2-71.3 12.7s-44.6 21.8-63.6 40.2v463.1h-160v-635.8h160l-.7 47.3c9.5-9.5 21.2-18.3 35.2-26.4s28.4-14.9 43.4-20.4 30.4-9.7 46.2-12.6 31-4.4 45.6-4.4c32.2 0 63.2 5.1 92.8 15.4s56 26 79.1 47.3 41.6 48.8 55.5 82.5c13.9 33.7 20.9 73.7 20.9 119.9v387.1zM4533.5 1471.4c0 44.8-7.5 87.3-22.5 127.6s-36.1 75.7-63.2 106.2-59.4 54.6-96.8 72.6-78.5 27-123.2 27c-27.9 0-53.9-3.9-78.1-11.5-24.2-7.7-46.9-20-68.2-36.9v33h-160v-913h161l-.3 308c18.3-14.7 40.2-26.4 65.5-35.2 25.3-8.8 51.9-13.2 79.8-13.2 38.9 0 76.7 8.6 113.4 25.9s69.3 40.9 98 71 51.5 65.5 68.8 106.1c17.1 40.6 25.8 84.8 25.8 132.4zm-161 0c0-29.3-4.4-56.1-13.2-80.3-8.8-24.2-21-44.9-36.8-62.1-15.8-17.2-34.4-30.4-56-39.6-21.6-9.2-45.6-13.8-71.9-13.8-16.8 0-36.3 3.5-58.2 10.5-22 7-40.3 16-54.9 27v305.8c34.4 31.5 73.2 47.3 116.4 47.3 24.9 0 48.1-4.8 69.7-14.3s40.1-22.9 55.5-40.1 27.5-37.8 36.2-61.6c8.7-24 13.2-50.2 13.2-78.8zM5288 1471.4c0 47.7-8.8 91.9-26.4 132.6-17.6 40.7-41.8 75.9-72.5 105.6-30.8 29.7-66.8 53.2-108.2 70.4-41.4 17.2-85.5 25.8-132.4 25.8-46.9 0-90.8-8.6-131.9-25.8-41-17.2-76.9-40.9-107.7-71s-54.9-65.5-72.5-106.2-26.4-84.5-26.4-131.5c0-46.2 9-89.6 26.9-130.3 17.9-40.7 42.3-76.3 73.1-106.7 30.8-30.4 66.7-54.3 107.7-71.5 41-17.2 84.6-25.9 130.8-25.9 46.9 0 91 8.6 132.4 25.9s77.5 40.7 108.2 70.4c30.8 29.7 54.9 65.1 72.5 106.2 17.7 41.1 26.4 85.1 26.4 132zm-158 0c0-27.1-4.8-52.4-14.3-75.9s-22.5-44-38.9-61.6c-16.5-17.6-35.7-31.3-57.6-41.3s-45.3-14.9-70.2-14.9c-24.9 0-48.3 5-70.2 14.9s-41.1 23.7-57.6 41.3c-16.5 17.6-29.5 38.1-39 61.6s-14.3 48.8-14.3 75.9c0 27.1 4.8 52.4 14.3 75.9s22.5 44 39 61.6 35.7 31.3 57.6 41.3 45.3 14.8 70.2 14.8c24.9 0 48.3-4.9 70.2-14.8s41.1-23.7 57.6-41.3c16.5-17.6 29.4-38.1 38.9-61.6s14.3-48.7 14.3-75.9zM5965.2 1152.4l-286 755.7c-21.3 56.5-49.1 97.2-83.6 122.1-34.5 24.9-75.5 37.4-123.2 37.4-7.3 0-15.4-.6-24.2-1.6-8.8-1.1-17.2-2.8-25.3-5l-52.8-147.4c12.5 5.9 25.3 10.4 38.5 13.8 13.2 3.3 25.7 5 37.4 5 24.9 0 47.7-5.7 68.2-17 20.5-11.4 36.3-32.5 47.3-63.3l22-63.8-245.3-635.8h172.7l146.3 409.2 137.5-409.2h170.5zM6502.7 1611.1c0 31.5-7.4 59.6-22 84.2s-33.8 45.1-57.3 61.6-50 29-79.3 37.4c-29.4 8.4-58.4 12.6-87 12.6-48.5 0-93.1-9-133.9-26.9-40.8-18-76.6-46.8-107.4-86.4l95.7-96.8c19.1 24.2 41.1 43.1 66 56.7s51.7 20.3 80.3 20.3c24.9 0 45.7-4.6 62.2-13.8 16.5-9.2 24.8-22.9 24.8-41.3 0-19.1-11.7-35-35.2-47.8-23.5-12.8-56.5-25.5-99-38-24.9-7.3-49.1-16.7-72.6-28s-44.4-25.3-62.7-41.8c-18.3-16.5-33-35.4-44-56.6s-16.5-45.8-16.5-73.7c0-30.8 7.2-58.5 21.5-83 14.3-24.6 33.1-45.1 56.2-61.6s49.4-29.1 78.8-37.9 59.2-13.2 89.3-13.2c97 0 176.4 36.7 238.1 110l-94.7 95.7c-18.4-22.7-39.3-40.7-62.8-53.9-23.5-13.2-49.2-19.8-77.1-19.8-9.5 0-19.6 1.3-30.3 3.9-10.7 2.6-20.6 6.2-29.7 11-9.2 4.8-16.7 11-22.6 18.7-5.9 7.7-8.8 16.3-8.8 25.8 0 16.9 11.2 31.5 33.5 44 22.4 12.5 54.4 24.9 96.3 37.4 27.1 8.1 52.8 18.3 77 30.8 24.2 12.5 45.5 27 63.8 43.5 18.3 16.5 32.8 35.2 43.5 56.1 10.6 20.8 15.9 44.4 15.9 70.8z"/>
  </g>
  <g>
    <path class="st2" d="M643.7 1517c0 44.8-7.5 87.3-22.5 127.6s-36.1 75.7-63.2 106.2-59.4 54.6-96.8 72.6-78.5 27-123.2 27c-27.9 0-53.9-3.9-78.1-11.5-24.2-7.7-46.9-20-68.2-36.9v33h-160V922h161l-.3 308c18.3-14.7 40.2-26.4 65.5-35.2 25.3-8.8 51.9-13.2 79.8-13.2 38.9 0 76.7 8.6 113.4 25.9s69.3 40.9 98 71 51.5 65.5 68.8 106.1c17.2 40.5 25.8 84.7 25.8 132.4zm-161 0c0-29.3-4.4-56.1-13.2-80.3-8.8-24.2-21-44.9-36.8-62.1-15.8-17.2-34.4-30.4-56-39.6-21.6-9.2-45.6-13.8-71.9-13.8-16.8 0-36.3 3.5-58.2 10.5-22 7-40.3 16-54.9 27v305.8c34.4 31.5 73.2 47.3 116.4 47.3 24.9 0 48.1-4.8 69.7-14.3s40.1-22.9 55.5-40.1 27.5-37.8 36.2-61.6c8.8-24 13.2-50.2 13.2-78.8zM1398.3 1517c0 47.7-8.8 91.9-26.4 132.6-17.6 40.7-41.8 75.9-72.5 105.6-30.8 29.7-66.8 53.2-108.2 70.4-41.4 17.2-85.5 25.8-132.4 25.8-46.9 0-90.8-8.6-131.9-25.8-41-17.2-76.9-40.9-107.7-71s-54.9-65.5-72.5-106.2-26.4-84.5-26.4-131.5c0-46.2 9-89.6 26.9-130.3 17.9-40.7 42.3-76.3 73.1-106.7 30.8-30.4 66.7-54.3 107.7-71.5 41-17.2 84.6-25.9 130.8-25.9 46.9 0 91 8.6 132.4 25.9s77.5 40.7 108.2 70.4c30.8 29.7 54.9 65.1 72.5 106.2 17.6 41.1 26.4 85.1 26.4 132zm-158 0c0-27.1-4.8-52.4-14.3-75.9s-22.5-44-38.9-61.6c-16.5-17.6-35.7-31.3-57.6-41.3s-45.3-14.9-70.2-14.9c-24.9 0-48.3 5-70.2 14.9s-41.1 23.7-57.6 41.3c-16.5 17.6-29.5 38.1-39 61.6s-14.3 48.8-14.3 75.9c0 27.1 4.8 52.4 14.3 75.9s22.5 44 39 61.6 35.7 31.3 57.6 41.3 45.3 14.8 70.2 14.8c24.9 0 48.3-4.9 70.2-14.8s41.1-23.7 57.6-41.3c16.5-17.6 29.4-38.1 38.9-61.6s14.3-48.8 14.3-75.9zM2154 1517c0 47.7-8.8 91.9-26.4 132.6-17.6 40.7-41.8 75.9-72.5 105.6-30.8 29.7-66.8 53.2-108.2 70.4-41.4 17.2-85.5 25.8-132.4 25.8-46.9 0-90.8-8.6-131.9-25.8-41-17.2-76.9-40.9-107.7-71s-54.9-65.5-72.5-106.2-26.4-84.5-26.4-131.5c0-46.2 9-89.6 26.9-130.3 17.9-40.7 42.3-76.3 73.1-106.7 30.8-30.4 66.7-54.3 107.7-71.5 41-17.2 84.6-25.9 130.8-25.9 46.9 0 91 8.6 132.4 25.9s77.5 40.7 108.2 70.4c30.8 29.7 54.9 65.1 72.5 106.2 17.6 41.1 26.4 85.1 26.4 132zm-158 0c0-27.1-4.8-52.4-14.3-75.9s-22.5-44-38.9-61.6c-16.5-17.6-35.7-31.3-57.6-41.3s-45.3-14.9-70.2-14.9c-24.9 0-48.3 5-70.2 14.9s-41.1 23.7-57.6 41.3c-16.5 17.6-29.5 38.1-39 61.6s-14.3 48.8-14.3 75.9c0 27.1 4.8 52.4 14.3 75.9s22.5 44 39 61.6 35.7 31.3 57.6 41.3 45.3 14.8 70.2 14.8c24.9 0 48.3-4.9 70.2-14.8s41.1-23.7 57.6-41.3c16.5-17.6 29.4-38.1 38.9-61.6s14.3-48.8 14.3-75.9zM2522.4 1831.6c-12.5 5.9-26.6 10.6-42.4 14.3-15.8 3.7-32.1 5.5-49 5.5-23.5 0-46.1-3.1-67.8-9.3-21.7-6.3-40.6-16.3-56.8-30.3s-29-32.1-38.6-54.5c-9.6-22.4-14.3-49.3-14.3-80.9V921.9h162V1649c0 26.4 5.3 44.6 15.9 54.5s23.3 14.8 38 14.8c18.3 0 35.9-5.5 52.8-16.5v129.8zM2764.1 1088h-165V923h165v165zm-2 746.9h-161V1198h161v636.9zM3485.1 1834.9h-158v-379.5c0-22.7-3.5-42.7-10.4-59.9-7-17.2-16.3-31.5-28-42.9s-25-19.8-40-25.3-30.5-8.3-46.6-8.3c-24.1 0-47.9 4.2-71.3 12.7s-44.6 21.8-63.6 40.2V1835h-160v-635.8h160l-.7 47.3c9.5-9.5 21.2-18.3 35.2-26.4s28.4-14.9 43.4-20.4 30.4-9.7 46.2-12.6 31-4.4 45.6-4.4c32.2 0 63.2 5.1 92.8 15.4s56 26 79.1 47.3 41.6 48.8 55.5 82.5c13.9 33.7 20.9 73.7 20.9 119.9v387.1zM4565.2 1517c0 44.8-7.5 87.3-22.5 127.6s-36.1 75.7-63.2 106.2-59.4 54.6-96.8 72.6-78.5 27-123.2 27c-27.9 0-53.9-3.9-78.1-11.5-24.2-7.7-46.9-20-68.2-36.9v33h-160V922h161l-.3 308c18.3-14.7 40.2-26.4 65.5-35.2 25.3-8.8 51.9-13.2 79.8-13.2 38.9 0 76.7 8.6 113.4 25.9s69.3 40.9 98 71 51.5 65.5 68.8 106.1c17.1 40.5 25.8 84.7 25.8 132.4zm-161 0c0-29.3-4.4-56.1-13.2-80.3-8.8-24.2-21-44.9-36.8-62.1-15.8-17.2-34.4-30.4-56-39.6-21.6-9.2-45.6-13.8-71.9-13.8-16.8 0-36.3 3.5-58.2 10.5-22 7-40.3 16-54.9 27v305.8c34.4 31.5 73.2 47.3 116.4 47.3 24.9 0 48.1-4.8 69.7-14.3s40.1-22.9 55.5-40.1 27.5-37.8 36.2-61.6c8.8-24 13.2-50.2 13.2-78.8zM5319.8 1517c0 47.7-8.8 91.9-26.4 132.6-17.6 40.7-41.8 75.9-72.5 105.6-30.8 29.7-66.8 53.2-108.2 70.4-41.4 17.2-85.5 25.8-132.4 25.8-46.9 0-90.8-8.6-131.9-25.8-41-17.2-76.9-40.9-107.7-71s-54.9-65.5-72.5-106.2-26.4-84.5-26.4-131.5c0-46.2 9-89.6 26.9-130.3 17.9-40.7 42.3-76.3 73.1-106.7 30.8-30.4 66.7-54.3 107.7-71.5 41-17.2 84.6-25.9 130.8-25.9 46.9 0 91 8.6 132.4 25.9s77.5 40.7 108.2 70.4c30.8 29.7 54.9 65.1 72.5 106.2 17.6 41.1 26.4 85.1 26.4 132zm-158 0c0-27.1-4.8-52.4-14.3-75.9s-22.5-44-38.9-61.6c-16.5-17.6-35.7-31.3-57.6-41.3s-45.3-14.9-70.2-14.9c-24.9 0-48.3 5-70.2 14.9s-41.1 23.7-57.6 41.3c-16.5 17.6-29.5 38.1-39 61.6s-14.3 48.8-14.3 75.9c0 27.1 4.8 52.4 14.3 75.9s22.5 44 39 61.6 35.7 31.3 57.6 41.3 45.3 14.8 70.2 14.8c24.9 0 48.3-4.9 70.2-14.8s41.1-23.7 57.6-41.3c16.5-17.6 29.4-38.1 38.9-61.6s14.3-48.8 14.3-75.9zM5997 1198l-286 755.7c-21.3 56.5-49.1 97.2-83.6 122.1-34.5 24.9-75.5 37.4-123.2 37.4-7.3 0-15.4-.6-24.2-1.6-8.8-1.1-17.2-2.8-25.3-5l-52.8-147.4c12.5 5.9 25.3 10.4 38.5 13.8 13.2 3.3 25.7 5 37.4 5 24.9 0 47.7-5.7 68.2-17 20.5-11.4 36.3-32.5 47.3-63.3l22-63.8L5370 1198h172.7l146.3 409.2 137.5-409.2H5997zM6534.4 1656.7c0 31.5-7.4 59.6-22 84.2s-33.8 45.1-57.3 61.6-50 29-79.3 37.4c-29.4 8.4-58.4 12.6-87 12.6-48.5 0-93.1-9-133.9-26.9-40.8-18-76.6-46.8-107.4-86.4l95.7-96.8c19.1 24.2 41.1 43.1 66 56.7s51.7 20.3 80.3 20.3c24.9 0 45.7-4.6 62.2-13.8 16.5-9.2 24.8-22.9 24.8-41.3 0-19.1-11.7-35-35.2-47.8-23.5-12.8-56.5-25.5-99-38-24.9-7.3-49.1-16.7-72.6-28s-44.4-25.3-62.7-41.8c-18.3-16.5-33-35.4-44-56.6s-16.5-45.8-16.5-73.7c0-30.8 7.2-58.5 21.5-83 14.3-24.6 33.1-45.1 56.2-61.6s49.4-29.1 78.8-37.9 59.2-13.2 89.3-13.2c97 0 176.4 36.7 238.1 110l-94.7 95.7c-18.4-22.7-39.3-40.7-62.8-53.9-23.5-13.2-49.2-19.8-77.1-19.8-9.5 0-19.6 1.3-30.3 3.9-10.7 2.6-20.6 6.2-29.7 11-9.2 4.8-16.7 11-22.6 18.7-5.9 7.7-8.8 16.3-8.8 25.8 0 16.9 11.2 31.5 33.5 44 22.4 12.5 54.4 24.9 96.3 37.4 27.1 8.1 52.8 18.3 77 30.8 24.2 12.5 45.5 27 63.8 43.5 18.3 16.5 32.8 35.2 43.5 56.1 10.6 20.8 15.9 44.4 15.9 70.8z"/>
  </g>
</svg>
