<svg version="1.1" id="Layer_1" xmlns="http://www.w3.org/2000/svg" xmlns:xlink="http://www.w3.org/1999/xlink" x="0" y="0" viewBox="0 0 2808 710" xml:space="preserve">
  <style>
    .st1{fill:#cf0000}.st3,.st4{clip-path:url(#SVGID_4_)}.st4{fill:none;stroke:#cf0000;stroke-width:4.5775;stroke-miterlimit:10}.st8{fill:#cf0000}.st8,.st9{stroke:#3f3f3f;stroke-width:6;stroke-miterlimit:10}
  </style>
  <path d="M2723.3 24H84.7c-30.3 0-55 24.8-55 55v553.3c0 30.3 24.8 55 55 55h2638.7c30.3 0 55-24.8 55-55V79.1c0-30.3-24.8-55.1-55.1-55.1z" style="animation:oDBhETZT_draw_0 2900ms linear 0ms infinite,oDBhETZT_fade 2900ms linear 0ms infinite" stroke-dasharray="6730 6732" stroke-dashoffset="6731" fill="none" stroke="#3f3f3f" stroke-width="40" stroke-miterlimit="10"/>
  <path d="M869.4 198.8H824c-1.4-10.6-6.6-19.4-15.5-26.6-9-7.2-19.3-10.8-31.1-10.8-19.7 0-34.7 7.6-44.8 22.7-8.8 13-13.2 29.8-13.2 50.5 0 19.9 4.4 36.3 13.2 49 10.4 15 25.3 22.4 44.8 22.4 14 0 25.2-4.5 33.8-13.5 8-8.4 12.9-19.8 14.7-34.4h45.4c-2.4 26.5-12.1 47.7-29.2 63.5s-38.6 23.8-64.7 23.8c-32.1 0-57.8-10.8-77.1-32.3-18.5-20.5-27.8-46.7-27.8-78.6 0-32.7 9.3-59.4 27.8-80.1 19.1-21.7 44.8-32.6 77.1-32.6 24.3 0 44.9 6.7 61.6 20 17.5 14.1 27.6 33 30.4 57z" style="animation:oDBhETZT_draw_1 2900ms linear 0ms infinite,oDBhETZT_fade 2900ms linear 0ms infinite" stroke-dasharray="1061 1063" stroke-dashoffset="1062"/>
  <path d="M914 234.6c0-32.7 9.3-59.4 27.8-80.1 19.1-21.7 44.9-32.6 77.1-32.6s58 10.9 77.1 32.6c18.5 20.7 27.8 47.4 27.8 80.1 0 31.9-9.3 58.1-27.8 78.6-19.3 21.5-45.1 32.3-77.1 32.3-32.1 0-57.8-10.8-77.1-32.3-18.6-20.5-27.8-46.7-27.8-78.6zm46.9 0c0 19.9 4.4 36.3 13.2 49 10.4 15 25.3 22.4 44.9 22.4 19.5 0 34.5-7.5 44.8-22.4 8.8-12.8 13.2-29.1 13.2-49 0-20.7-4.4-37.6-13.2-50.5-10.2-15.1-25.1-22.7-44.8-22.7-19.7 0-34.7 7.6-44.9 22.7-8.8 13-13.2 29.8-13.2 50.5z" style="animation:oDBhETZT_draw_2 2900ms linear 0ms infinite,oDBhETZT_fade 2900ms linear 0ms infinite" stroke-dasharray="1109 1111" stroke-dashoffset="1110"/>
  <path d="M1175.9 340.5V127h46.8l89.5 143.2V127h44v213.5h-47.1l-89.2-142.9v142.9h-44z" style="animation:oDBhETZT_draw_3 2900ms linear 0ms infinite,oDBhETZT_fade 2900ms linear 0ms infinite" stroke-dasharray="1233 1235" stroke-dashoffset="1234"/>
  <path d="M1464.7 340.5v-174h-64V127h174.9v39.5h-64v174h-46.9z" style="animation:oDBhETZT_draw_4 2900ms linear 0ms infinite,oDBhETZT_fade 2900ms linear 0ms infinite" stroke-dasharray="777 779" stroke-dashoffset="778"/>
  <path d="M1620.2 340.5V127h159.7v39.5h-112.7v45.7h103.5v36.5h-103.5V301h115.1v39.5h-162.1z" style="animation:oDBhETZT_draw_5 2900ms linear 0ms infinite,oDBhETZT_fade 2900ms linear 0ms infinite" stroke-dasharray="1184 1186" stroke-dashoffset="1185"/>
  <path d="M1834 340.5V127h46.8l89.5 143.2V127h44v213.5h-47.1L1878 197.6v142.9h-44z" style="animation:oDBhETZT_draw_6 2900ms linear 0ms infinite,oDBhETZT_fade 2900ms linear 0ms infinite" stroke-dasharray="1233 1235" stroke-dashoffset="1234"/>
  <path d="M2075.6 340.5V127h92.1c28.9 0 51.9 8.8 69.1 26.3 18.5 18.5 27.8 45 27.8 79.2 0 32.3-8 58-23.9 77.1-17.1 20.5-41.5 30.8-73 30.8h-92.1zm46.9-174V301h41.9c15.1 0 27.4-4.8 36.8-14.4 11-11.2 16.4-27.7 16.4-49.6 0-22.9-4.4-40.1-13.2-51.4-10-12.8-26.1-19.1-48.4-19.1h-33.5z" style="animation:oDBhETZT_draw_7 2900ms linear 0ms infinite,oDBhETZT_fade 2900ms linear 0ms infinite" stroke-dasharray="1137 1139" stroke-dashoffset="1138"/>
  <path d="M2317.2 340.5V127h159.7v39.5h-112.7v45.7h103.5v36.5h-103.5V301h115.1v39.5h-162.1z" style="animation:oDBhETZT_draw_8 2900ms linear 0ms infinite,oDBhETZT_fade 2900ms linear 0ms infinite" stroke-dasharray="1184 1186" stroke-dashoffset="1185"/>
  <path d="M2531 340.5V127h115.1c18.7 0 34 5.8 45.7 17.3 11.2 11.2 16.7 25 16.7 41.6 0 26.5-11.3 44.4-33.8 53.5v.6c18.7 4.8 29.1 21.4 31.1 49.9.6 8.6 1.2 17.1 1.8 25.7 1.2 11.6 3.6 19.8 7.2 24.8h-46.9c-2.2-5.4-3.9-13.5-5.1-24.2-.8-9-1.6-17.9-2.4-26.9-1.6-11.6-5-19.8-10.3-24.8-5.3-5-13.7-7.5-25.3-7.5h-46.9v83.4H2531zm46.9-177v60.1h51.4c21.5 0 32.3-10.2 32.3-30.5 0-19.7-10.8-29.6-32.3-29.6h-51.4z" style="animation:oDBhETZT_draw_9 2900ms linear 0ms infinite,oDBhETZT_fade 2900ms linear 0ms infinite" stroke-dasharray="1203 1205" stroke-dashoffset="1204"/>
  <g>
    <path class="st1" d="M669.3 609.5l81-213.5h48.1l79.8 213.5h-48.7L813.4 562h-79.8l-16.7 47.5h-47.6zm104.4-160.9L745.9 527h55.3l-26.9-78.3h-.6z" style="animation:oDBhETZT_draw_10 2900ms linear 0ms infinite,oDBhETZT_fade 2900ms linear 0ms infinite" stroke-dasharray="1003 1005" stroke-dashoffset="1004"/>
    <path class="st1" d="M881 609.5V396h96.3c24.9 0 43.9 7.1 56.8 21.2 11.4 12.2 17 27.9 17 47.2 0 19.3-5.7 35.1-17 47.2-13 14.2-31.9 21.2-56.8 21.2H928v76.5h-47zm47-177v64h36.5c12.8 0 22.3-1.9 28.7-5.7 8.4-5.2 12.6-13.9 12.6-26.3s-4.2-21.1-12.6-26.3c-6.4-3.8-15.9-5.7-28.7-5.7H928z" style="animation:oDBhETZT_draw_11 2900ms linear 0ms infinite,oDBhETZT_fade 2900ms linear 0ms infinite" stroke-dasharray="968 970" stroke-dashoffset="969"/>
    <path class="st1" d="M1064.6 609.5V396h96.3c24.9 0 43.8 7.1 56.8 21.2 11.4 12.2 17 27.9 17 47.2 0 19.3-5.7 35.1-17 47.2-13 14.2-31.9 21.2-56.8 21.2h-49.3v76.5h-47zm47-177v64h36.5c12.8 0 22.3-1.9 28.7-5.7 8.4-5.2 12.6-13.9 12.6-26.3s-4.2-21.1-12.6-26.3c-6.4-3.8-16-5.7-28.7-5.7h-36.5z" style="animation:oDBhETZT_draw_12 2900ms linear 0ms infinite,oDBhETZT_fade 2900ms linear 0ms infinite" stroke-dasharray="968 970" stroke-dashoffset="969"/>
    <path class="st1" d="M1248.2 609.5V396h115.1c18.7 0 34 5.8 45.7 17.3 11.2 11.2 16.7 25 16.7 41.6 0 26.5-11.3 44.4-33.8 53.5v.6c18.7 4.8 29.1 21.4 31.1 49.9.6 8.6 1.2 17.1 1.8 25.7 1.2 11.6 3.6 19.8 7.2 24.8h-46.9c-2.2-5.4-3.9-13.5-5.1-24.2-.8-9-1.6-17.9-2.4-26.9-1.6-11.6-5-19.8-10.3-24.8-5.3-5-13.7-7.5-25.3-7.5h-46.9v83.4h-46.9zm46.9-177v60.1h51.4c21.5 0 32.3-10.2 32.3-30.5 0-19.7-10.8-29.6-32.3-29.6h-51.4z" style="animation:oDBhETZT_draw_13 2900ms linear 0ms infinite,oDBhETZT_fade 2900ms linear 0ms infinite" stroke-dasharray="1203 1205" stroke-dashoffset="1204"/>
    <path class="st1" d="M1439 503.6c0-32.7 9.3-59.4 27.8-80.1 19.1-21.7 44.8-32.6 77.1-32.6s58 10.9 77.1 32.6c18.5 20.7 27.8 47.4 27.8 80.1 0 31.9-9.3 58.1-27.8 78.6-19.3 21.5-45.1 32.3-77.1 32.3-32.1 0-57.8-10.8-77.1-32.3-18.6-20.5-27.8-46.7-27.8-78.6zm46.9 0c0 19.9 4.4 36.3 13.2 49 10.4 15 25.3 22.4 44.8 22.4 19.5 0 34.5-7.5 44.9-22.4 8.8-12.8 13.2-29.1 13.2-49 0-20.7-4.4-37.6-13.2-50.5-10.2-15.1-25.1-22.7-44.9-22.7-19.7 0-34.7 7.6-44.8 22.7-8.8 13-13.2 29.8-13.2 50.5z" style="animation:oDBhETZT_draw_14 2900ms linear 0ms infinite,oDBhETZT_fade 2900ms linear 0ms infinite" stroke-dasharray="1109 1111" stroke-dashoffset="1110"/>
    <path class="st1" d="M1642.3 609.5l81-213.5h48.1l79.8 213.5h-48.7l-16.1-47.5h-79.8l-16.7 47.5h-47.6zm104.3-160.9l-27.8 78.3h55.3l-26.9-78.3h-.6z" style="animation:oDBhETZT_draw_15 2900ms linear 0ms infinite,oDBhETZT_fade 2900ms linear 0ms infinite" stroke-dasharray="1003 1005" stroke-dashoffset="1004"/>
    <path class="st1" d="M2041.7 467.8h-45.4c-1.4-10.6-6.6-19.4-15.5-26.6-9-7.2-19.3-10.8-31.1-10.8-19.7 0-34.7 7.6-44.8 22.7-8.8 13-13.2 29.8-13.2 50.5 0 19.9 4.4 36.3 13.2 49 10.4 15 25.3 22.4 44.8 22.4 14 0 25.2-4.5 33.8-13.5 8-8.4 12.9-19.8 14.7-34.4h45.4c-2.4 26.5-12.1 47.7-29.2 63.5-17 15.8-38.6 23.8-64.7 23.8-32.1 0-57.8-10.8-77.1-32.3-18.5-20.5-27.8-46.7-27.8-78.6 0-32.7 9.3-59.4 27.8-80.1 19.1-21.7 44.8-32.6 77.1-32.6 24.3 0 44.9 6.7 61.6 20 17.5 14.1 27.6 33 30.4 57z" style="animation:oDBhETZT_draw_16 2900ms linear 0ms infinite,oDBhETZT_fade 2900ms linear 0ms infinite" stroke-dasharray="1061 1063" stroke-dashoffset="1062"/>
    <path class="st1" d="M2059.7 609.5V396h46.9v81.9h86.4V396h46.9v213.5H2193v-92.1h-86.4v92.1h-46.9z" style="animation:oDBhETZT_draw_17 2900ms linear 0ms infinite,oDBhETZT_fade 2900ms linear 0ms infinite" stroke-dasharray="1136 1138" stroke-dashoffset="1137"/>
    <path class="st1" d="M2265.4 609.5V396h46.9v213.5h-46.9z" style="animation:oDBhETZT_draw_18 2900ms linear 0ms infinite,oDBhETZT_fade 2900ms linear 0ms infinite" stroke-dasharray="521 523" stroke-dashoffset="522"/>
    <path class="st1" d="M2337.7 609.5V396h46.8l89.5 143.2V396h44v213.5h-47.1l-89.2-142.9v142.9h-44z" style="animation:oDBhETZT_draw_19 2900ms linear 0ms infinite,oDBhETZT_fade 2900ms linear 0ms infinite" stroke-dasharray="1233 1235" stroke-dashoffset="1234"/>
    <path class="st1" d="M2702.5 609.5l-4.8-24.2c-15.2 19.5-34.7 29.3-58.6 29.3-32.1 0-57.8-10.8-77.1-32.3-18.5-20.5-27.8-46.7-27.8-78.6 0-32.7 9.3-59.4 27.8-80.1 19.1-21.7 44.8-32.6 77.1-32.6 22.9 0 42.8 6.5 59.5 19.4 17.9 14 28.1 32.6 30.5 55.9h-44.8c-2.6-11.6-7.9-20.4-16-26.6-8.1-6.2-17.8-9.3-29.2-9.3-19.7 0-34.7 7.6-44.8 22.7-8.8 13-13.2 29.8-13.2 50.5 0 19.9 4.4 36.3 13.2 49 10.4 15 25.3 22.4 44.8 22.4 31.1 0 48-15.3 50.8-46h-47.2v-35h89.7v115.4h-29.9z" style="animation:oDBhETZT_draw_20 2900ms linear 0ms infinite,oDBhETZT_fade 2900ms linear 0ms infinite" stroke-dasharray="1279 1281" stroke-dashoffset="1280"/>
  </g>
  <g>
    <defs>
      <path id="SVGID_1_" d="M61.2 63.3h585v585h-585z" style="animation:oDBhETZT_draw_21 2900ms linear 0ms infinite,oDBhETZT_fade 2900ms linear 0ms infinite" stroke-dasharray="2340 2342" stroke-dashoffset="2341"/>
    </defs>
    <clipPath id="SVGID_2_">
      <use xlink:href="#SVGID_1_" overflow="visible"/>
    </clipPath>
    <g clip-path="url(#SVGID_2_)">
      <defs>
        <path id="SVGID_3_" d="M61.2 63.3h585v585h-585z" style="animation:oDBhETZT_draw_22 2900ms linear 0ms infinite,oDBhETZT_fade 2900ms linear 0ms infinite" stroke-dasharray="2340 2342" stroke-dashoffset="2341"/>
      </defs>
      <clipPath id="SVGID_4_">
        <use xlink:href="#SVGID_3_" overflow="visible"/>
      </clipPath>
      <path class="st3" d="M308.4 506.2c0-25 20.3-45.3 45.3-45.3 25 0 45.3 20.3 45.3 45.3s-20.3 45.3-45.3 45.3c-25 0-45.3-20.3-45.3-45.3" style="animation:oDBhETZT_draw_23 2900ms linear 0ms infinite,oDBhETZT_fade 2900ms linear 0ms infinite" stroke-dasharray="285 287" stroke-dashoffset="286"/>
      <path class="st4" d="M308.4 506.2a45.3 45.3 0 1190.6 0 45.3 45.3 0 11-90.6 0" style="animation:oDBhETZT_draw_24 2900ms linear 0ms infinite,oDBhETZT_fade 2900ms linear 0ms infinite" stroke-dasharray="285 287" stroke-dashoffset="286"/>
      <path d="M531.6 118.6c15.8 0 30.7 6.2 41.9 17.4s17.4 26.1 17.4 41.9v355.7c0 15.8-6.2 30.7-17.4 41.9s-26.1 17.4-41.9 17.4H175.8c-15.8 0-30.7-6.2-41.9-17.4s-17.4-26.1-17.4-41.9V177.9c0-15.8 6.2-30.7 17.4-41.9s26.1-17.4 41.9-17.4h355.8m0-36.6H175.8C122.9 82 80 124.9 80 177.9v355.7c0 52.9 42.9 95.9 95.9 95.9h355.7c52.9 0 95.9-42.9 95.9-95.9V177.9c-.1-53-43-95.9-95.9-95.9" style="animation:oDBhETZT_draw_25 2900ms linear 0ms infinite,oDBhETZT_fade 2900ms linear 0ms infinite" stroke-dasharray="3821 3823" stroke-dashoffset="3822" clip-path="url(#SVGID_4_)" fill="#cf0000"/>
      <path d="M188.1 74.7h331.2c63.8 0 115.4 51.7 115.4 115.4v331.2c0 63.8-51.7 115.4-115.4 115.4H188.1c-63.8 0-115.4-51.7-115.4-115.4V190.1c-.1-63.7 51.6-115.4 115.4-115.4z" style="animation:oDBhETZT_draw_26 2900ms linear 0ms infinite,oDBhETZT_fade 2900ms linear 0ms infinite" stroke-dasharray="2051 2053" stroke-dashoffset="2052" clip-path="url(#SVGID_4_)" fill="none" stroke="#000" stroke-width="22.8873" stroke-miterlimit="10"/>
      <path d="M156.1 127.6h395.1c16.9 0 30.6 13.7 30.6 30.6v395.1c0 16.9-13.7 30.6-30.6 30.6H156.1c-16.9 0-30.6-13.7-30.6-30.6V158.2c.1-16.9 13.8-30.6 30.6-30.6z" style="animation:oDBhETZT_draw_27 2900ms linear 0ms infinite,oDBhETZT_fade 2900ms linear 0ms infinite" stroke-dasharray="1773 1775" stroke-dashoffset="1774" clip-path="url(#SVGID_4_)" fill="none" stroke="#000" stroke-width="18.3099" stroke-miterlimit="10"/>
      <path class="st3" d="M396.4 148.6v110.7l-22.5 177.6h-41L311 259.3V148.6z" style="animation:oDBhETZT_draw_28 2900ms linear 0ms infinite,oDBhETZT_fade 2900ms linear 0ms infinite" stroke-dasharray="706 708" stroke-dashoffset="707"/>
      <path class="st4" d="M396.4 148.6v110.7l-22.5 177.6h-41L311 259.3V148.6z" style="animation:oDBhETZT_draw_29 2900ms linear 0ms infinite,oDBhETZT_fade 2900ms linear 0ms infinite" stroke-dasharray="706 708" stroke-dashoffset="707"/>
    </g>
  </g>
  <g>
    <path class="st8" d="M856.4 188.8H811c-1.4-10.6-6.6-19.4-15.5-26.6-9-7.2-19.3-10.8-31.1-10.8-19.7 0-34.7 7.6-44.8 22.7-8.8 13-13.2 29.8-13.2 50.5 0 19.9 4.4 36.3 13.2 49 10.4 15 25.3 22.4 44.8 22.4 14 0 25.2-4.5 33.8-13.5 8-8.4 12.9-19.8 14.7-34.4h45.4c-2.4 26.5-12.1 47.7-29.2 63.5s-38.6 23.8-64.7 23.8c-32.1 0-57.8-10.8-77.1-32.3-18.5-20.5-27.8-46.7-27.8-78.6 0-32.7 9.3-59.4 27.8-80.1 19.1-21.7 44.8-32.6 77.1-32.6 24.3 0 44.9 6.7 61.6 20 17.5 14.1 27.6 33 30.4 57z" style="animation:oDBhETZT_draw_30 2900ms linear 0ms infinite,oDBhETZT_fade 2900ms linear 0ms infinite" stroke-dasharray="1061 1063" stroke-dashoffset="1062"/>
    <path class="st8" d="M901 224.6c0-32.7 9.3-59.4 27.8-80.1 19.1-21.7 44.9-32.6 77.1-32.6s58 10.9 77.1 32.6c18.5 20.7 27.8 47.4 27.8 80.1 0 31.9-9.3 58.1-27.8 78.6-19.3 21.5-45.1 32.3-77.1 32.3-32.1 0-57.8-10.8-77.1-32.3-18.6-20.5-27.8-46.7-27.8-78.6zm46.9 0c0 19.9 4.4 36.3 13.2 49 10.4 15 25.3 22.4 44.9 22.4 19.5 0 34.5-7.5 44.8-22.4 8.8-12.8 13.2-29.1 13.2-49 0-20.7-4.4-37.6-13.2-50.5-10.2-15.1-25.1-22.7-44.8-22.7-19.7 0-34.7 7.6-44.9 22.7-8.8 13-13.2 29.8-13.2 50.5z" style="animation:oDBhETZT_draw_31 2900ms linear 0ms infinite,oDBhETZT_fade 2900ms linear 0ms infinite" stroke-dasharray="1109 1111" stroke-dashoffset="1110"/>
    <path class="st8" d="M1162.9 330.5V117h46.8l89.5 143.2V117h44v213.5h-47.1l-89.2-142.9v142.9h-44z" style="animation:oDBhETZT_draw_32 2900ms linear 0ms infinite,oDBhETZT_fade 2900ms linear 0ms infinite" stroke-dasharray="1233 1235" stroke-dashoffset="1234"/>
    <path class="st8" d="M1451.7 330.5v-174h-64V117h174.9v39.5h-64v174h-46.9z" style="animation:oDBhETZT_draw_33 2900ms linear 0ms infinite,oDBhETZT_fade 2900ms linear 0ms infinite" stroke-dasharray="777 779" stroke-dashoffset="778"/>
    <path class="st8" d="M1607.2 330.5V117h159.7v39.5h-112.7v45.7h103.5v36.5h-103.5V291h115.1v39.5h-162.1z" style="animation:oDBhETZT_draw_34 2900ms linear 0ms infinite,oDBhETZT_fade 2900ms linear 0ms infinite" stroke-dasharray="1184 1186" stroke-dashoffset="1185"/>
    <path class="st8" d="M1821 330.5V117h46.8l89.5 143.2V117h44v213.5h-47.1L1865 187.6v142.9h-44z" style="animation:oDBhETZT_draw_35 2900ms linear 0ms infinite,oDBhETZT_fade 2900ms linear 0ms infinite" stroke-dasharray="1233 1235" stroke-dashoffset="1234"/>
    <path class="st8" d="M2062.6 330.5V117h92.1c28.9 0 51.9 8.8 69.1 26.3 18.5 18.5 27.8 45 27.8 79.2 0 32.3-8 58-23.9 77.1-17.1 20.5-41.5 30.8-73 30.8h-92.1zm46.9-174V291h41.9c15.1 0 27.4-4.8 36.8-14.4 11-11.2 16.4-27.7 16.4-49.6 0-22.9-4.4-40.1-13.2-51.4-10-12.8-26.1-19.1-48.4-19.1h-33.5z" style="animation:oDBhETZT_draw_36 2900ms linear 0ms infinite,oDBhETZT_fade 2900ms linear 0ms infinite" stroke-dasharray="1137 1139" stroke-dashoffset="1138"/>
    <path class="st8" d="M2304.2 330.5V117h159.7v39.5h-112.7v45.7h103.5v36.5h-103.5V291h115.1v39.5h-162.1z" style="animation:oDBhETZT_draw_37 2900ms linear 0ms infinite,oDBhETZT_fade 2900ms linear 0ms infinite" stroke-dasharray="1184 1186" stroke-dashoffset="1185"/>
    <path class="st8" d="M2518 330.5V117h115.1c18.7 0 34 5.8 45.7 17.3 11.2 11.2 16.7 25 16.7 41.6 0 26.5-11.3 44.4-33.8 53.5v.6c18.7 4.8 29.1 21.4 31.1 49.9.6 8.6 1.2 17.1 1.8 25.7 1.2 11.6 3.6 19.8 7.2 24.8h-46.9c-2.2-5.4-3.9-13.5-5.1-24.2-.8-9-1.6-17.9-2.4-26.9-1.6-11.6-5-19.8-10.3-24.8-5.3-5-13.7-7.5-25.3-7.5h-46.9v83.4H2518zm46.9-177v60.1h51.4c21.5 0 32.3-10.2 32.3-30.5 0-19.7-10.8-29.6-32.3-29.6h-51.4z" style="animation:oDBhETZT_draw_38 2900ms linear 0ms infinite,oDBhETZT_fade 2900ms linear 0ms infinite" stroke-dasharray="1203 1205" stroke-dashoffset="1204"/>
  </g>
  <g>
    <path class="st9" d="M658.3 599.5l81-213.5h48.1l79.8 213.5h-48.7L802.4 552h-79.8l-16.7 47.5h-47.6zm104.4-160.9L734.9 517h55.3l-26.9-78.3h-.6z" style="animation:oDBhETZT_draw_39 2900ms linear 0ms infinite,oDBhETZT_fade 2900ms linear 0ms infinite" stroke-dasharray="1003 1005" stroke-dashoffset="1004"/>
    <path class="st9" d="M870 599.5V386h96.3c24.9 0 43.9 7.1 56.8 21.2 11.4 12.2 17 27.9 17 47.2 0 19.3-5.7 35.1-17 47.2-13 14.2-31.9 21.2-56.8 21.2H917v76.5h-47zm47-177v64h36.5c12.8 0 22.3-1.9 28.7-5.7 8.4-5.2 12.6-13.9 12.6-26.3s-4.2-21.1-12.6-26.3c-6.4-3.8-15.9-5.7-28.7-5.7H917z" style="animation:oDBhETZT_draw_40 2900ms linear 0ms infinite,oDBhETZT_fade 2900ms linear 0ms infinite" stroke-dasharray="968 970" stroke-dashoffset="969"/>
    <path class="st9" d="M1053.6 599.5V386h96.3c24.9 0 43.8 7.1 56.8 21.2 11.4 12.2 17 27.9 17 47.2 0 19.3-5.7 35.1-17 47.2-13 14.2-31.9 21.2-56.8 21.2h-49.3v76.5h-47zm47-177v64h36.5c12.8 0 22.3-1.9 28.7-5.7 8.4-5.2 12.6-13.9 12.6-26.3s-4.2-21.1-12.6-26.3c-6.4-3.8-16-5.7-28.7-5.7h-36.5z" style="animation:oDBhETZT_draw_41 2900ms linear 0ms infinite,oDBhETZT_fade 2900ms linear 0ms infinite" stroke-dasharray="968 970" stroke-dashoffset="969"/>
    <path class="st9" d="M1237.2 599.5V386h115.1c18.7 0 34 5.8 45.7 17.3 11.2 11.2 16.7 25 16.7 41.6 0 26.5-11.3 44.4-33.8 53.5v.6c18.7 4.8 29.1 21.4 31.1 49.9.6 8.6 1.2 17.1 1.8 25.7 1.2 11.6 3.6 19.8 7.2 24.8h-46.9c-2.2-5.4-3.9-13.5-5.1-24.2-.8-9-1.6-17.9-2.4-26.9-1.6-11.6-5-19.8-10.3-24.8-5.3-5-13.7-7.5-25.3-7.5h-46.9v83.4h-46.9zm46.9-177v60.1h51.4c21.5 0 32.3-10.2 32.3-30.5 0-19.7-10.8-29.6-32.3-29.6h-51.4z" style="animation:oDBhETZT_draw_42 2900ms linear 0ms infinite,oDBhETZT_fade 2900ms linear 0ms infinite" stroke-dasharray="1203 1205" stroke-dashoffset="1204"/>
    <path class="st9" d="M1428 493.6c0-32.7 9.3-59.4 27.8-80.1 19.1-21.7 44.8-32.6 77.1-32.6s58 10.9 77.1 32.6c18.5 20.7 27.8 47.4 27.8 80.1 0 31.9-9.3 58.1-27.8 78.6-19.3 21.5-45.1 32.3-77.1 32.3-32.1 0-57.8-10.8-77.1-32.3-18.6-20.5-27.8-46.7-27.8-78.6zm46.9 0c0 19.9 4.4 36.3 13.2 49 10.4 15 25.3 22.4 44.8 22.4 19.5 0 34.5-7.5 44.9-22.4 8.8-12.8 13.2-29.1 13.2-49 0-20.7-4.4-37.6-13.2-50.5-10.2-15.1-25.1-22.7-44.9-22.7-19.7 0-34.7 7.6-44.8 22.7-8.8 13-13.2 29.8-13.2 50.5z" style="animation:oDBhETZT_draw_43 2900ms linear 0ms infinite,oDBhETZT_fade 2900ms linear 0ms infinite" stroke-dasharray="1109 1111" stroke-dashoffset="1110"/>
    <path class="st9" d="M1631.3 599.5l81-213.5h48.1l79.8 213.5h-48.7l-16.1-47.5h-79.8l-16.7 47.5h-47.6zm104.3-160.9l-27.8 78.3h55.3l-26.9-78.3h-.6z" style="animation:oDBhETZT_draw_44 2900ms linear 0ms infinite,oDBhETZT_fade 2900ms linear 0ms infinite" stroke-dasharray="1003 1005" stroke-dashoffset="1004"/>
    <path class="st9" d="M2030.7 457.8h-45.4c-1.4-10.6-6.6-19.4-15.5-26.6-9-7.2-19.3-10.8-31.1-10.8-19.7 0-34.7 7.6-44.8 22.7-8.8 13-13.2 29.8-13.2 50.5 0 19.9 4.4 36.3 13.2 49 10.4 15 25.3 22.4 44.8 22.4 14 0 25.2-4.5 33.8-13.5 8-8.4 12.9-19.8 14.7-34.4h45.4c-2.4 26.5-12.1 47.7-29.2 63.5-17 15.8-38.6 23.8-64.7 23.8-32.1 0-57.8-10.8-77.1-32.3-18.5-20.5-27.8-46.7-27.8-78.6 0-32.7 9.3-59.4 27.8-80.1 19.1-21.7 44.8-32.6 77.1-32.6 24.3 0 44.9 6.7 61.6 20 17.5 14.1 27.6 33 30.4 57z" style="animation:oDBhETZT_draw_45 2900ms linear 0ms infinite,oDBhETZT_fade 2900ms linear 0ms infinite" stroke-dasharray="1061 1063" stroke-dashoffset="1062"/>
    <path class="st9" d="M2048.7 599.5V386h46.9v81.9h86.4V386h46.9v213.5H2182v-92.1h-86.4v92.1h-46.9z" style="animation:oDBhETZT_draw_46 2900ms linear 0ms infinite,oDBhETZT_fade 2900ms linear 0ms infinite" stroke-dasharray="1136 1138" stroke-dashoffset="1137"/>
    <path class="st9" d="M2254.4 599.5V386h46.9v213.5h-46.9z" style="animation:oDBhETZT_draw_47 2900ms linear 0ms infinite,oDBhETZT_fade 2900ms linear 0ms infinite" stroke-dasharray="521 523" stroke-dashoffset="522"/>
    <path class="st9" d="M2326.7 599.5V386h46.8l89.5 143.2V386h44v213.5h-47.1l-89.2-142.9v142.9h-44z" style="animation:oDBhETZT_draw_48 2900ms linear 0ms infinite,oDBhETZT_fade 2900ms linear 0ms infinite" stroke-dasharray="1233 1235" stroke-dashoffset="1234"/>
    <path class="st9" d="M2691.5 599.5l-4.8-24.2c-15.2 19.5-34.7 29.3-58.6 29.3-32.1 0-57.8-10.8-77.1-32.3-18.5-20.5-27.8-46.7-27.8-78.6 0-32.7 9.3-59.4 27.8-80.1 19.1-21.7 44.8-32.6 77.1-32.6 22.9 0 42.8 6.5 59.5 19.4 17.9 14 28.1 32.6 30.5 55.9h-44.8c-2.6-11.6-7.9-20.4-16-26.6-8.1-6.2-17.8-9.3-29.2-9.3-19.7 0-34.7 7.6-44.8 22.7-8.8 13-13.2 29.8-13.2 50.5 0 19.9 4.4 36.3 13.2 49 10.4 15 25.3 22.4 44.8 22.4 31.1 0 48-15.3 50.8-46h-47.2v-35h89.7v115.4h-29.9z" style="animation:oDBhETZT_draw_49 2900ms linear 0ms infinite,oDBhETZT_fade 2900ms linear 0ms infinite" stroke-dasharray="1279 1281" stroke-dashoffset="1280"/>
  </g>
  <path d="M2743 12.3H65c-30.3 0-55 24.8-55 55v576.9c0 30.3 24.8 55 55 55h2678c30.3 0 55-24.8 55-55V67.3c0-30.3-24.8-55-55-55z" style="animation:oDBhETZT_draw_50 2900ms linear 0ms infinite,oDBhETZT_fade 2900ms linear 0ms infinite" stroke-dasharray="6856 6858" stroke-dashoffset="6857" fill="none" stroke="#000" stroke-width="20" stroke-miterlimit="10"/>
  <style data-made-with="vivus-instant">
    @keyframes oDBhETZT_draw{to{stroke-dashoffset:0}}@keyframes oDBhETZT_fade{0%,86.20689655172414%{stroke-opacity:1}to{stroke-opacity:0}}@keyframes oDBhETZT_draw_0{17.24137931034483%{stroke-dashoffset:6731}40.229885057471265%,to{stroke-dashoffset:0}}@keyframes oDBhETZT_draw_1{17.47126436781609%{stroke-dashoffset:1062}40.459770114942536%,to{stroke-dashoffset:0}}@keyframes oDBhETZT_draw_2{17.70114942528736%{stroke-dashoffset:1110}40.689655172413794%,to{stroke-dashoffset:0}}@keyframes oDBhETZT_draw_3{17.93103448275862%{stroke-dashoffset:1234}40.91954022988506%,to{stroke-dashoffset:0}}@keyframes oDBhETZT_draw_4{18.160919540229884%{stroke-dashoffset:778}41.14942528735633%,to{stroke-dashoffset:0}}@keyframes oDBhETZT_draw_5{18.390804597701152%{stroke-dashoffset:1185}41.37931034482759%,to{stroke-dashoffset:0}}@keyframes oDBhETZT_draw_6{18.620689655172416%{stroke-dashoffset:1234}41.60919540229885%,to{stroke-dashoffset:0}}@keyframes oDBhETZT_draw_7{18.850574712643677%{stroke-dashoffset:1138}41.83908045977012%,to{stroke-dashoffset:0}}@keyframes oDBhETZT_draw_8{19.080459770114942%{stroke-dashoffset:1185}42.06896551724138%,to{stroke-dashoffset:0}}@keyframes oDBhETZT_draw_9{19.310344827586206%{stroke-dashoffset:1204}42.298850574712645%,to{stroke-dashoffset:0}}@keyframes oDBhETZT_draw_10{19.54022988505747%{stroke-dashoffset:1004}42.52873563218391%,to{stroke-dashoffset:0}}@keyframes oDBhETZT_draw_11{19.77011494252874%{stroke-dashoffset:969}42.758620689655174%,to{stroke-dashoffset:0}}@keyframes oDBhETZT_draw_12{20%{stroke-dashoffset:969}42.98850574712644%,to{stroke-dashoffset:0}}@keyframes oDBhETZT_draw_13{20.229885057471265%{stroke-dashoffset:1204}43.2183908045977%,to{stroke-dashoffset:0}}@keyframes oDBhETZT_draw_14{20.45977011494253%{stroke-dashoffset:1110}43.44827586206896%,to{stroke-dashoffset:0}}@keyframes oDBhETZT_draw_15{20.689655172413794%{stroke-dashoffset:1004}43.67816091954023%,to{stroke-dashoffset:0}}@keyframes oDBhETZT_draw_16{20.919540229885055%{stroke-dashoffset:1062}43.9080459770115%,to{stroke-dashoffset:0}}@keyframes oDBhETZT_draw_17{21.149425287356323%{stroke-dashoffset:1137}44.13793103448276%,to{stroke-dashoffset:0}}@keyframes oDBhETZT_draw_18{21.379310344827587%{stroke-dashoffset:522}44.367816091954026%,to{stroke-dashoffset:0}}@keyframes oDBhETZT_draw_19{21.60919540229885%{stroke-dashoffset:1234}44.5977011494253%,to{stroke-dashoffset:0}}@keyframes oDBhETZT_draw_20{21.839080459770113%{stroke-dashoffset:1280}44.827586206896555%,to{stroke-dashoffset:0}}@keyframes oDBhETZT_draw_21{22.06896551724138%{stroke-dashoffset:2341}45.05747126436782%,to{stroke-dashoffset:0}}@keyframes oDBhETZT_draw_22{22.29885057471264%{stroke-dashoffset:2341}45.287356321839084%,to{stroke-dashoffset:0}}@keyframes oDBhETZT_draw_23{22.528735632183906%{stroke-dashoffset:286}45.51724137931035%,to{stroke-dashoffset:0}}@keyframes oDBhETZT_draw_24{22.758620689655174%{stroke-dashoffset:286}45.74712643678161%,to{stroke-dashoffset:0}}@keyframes oDBhETZT_draw_25{22.988505747126435%{stroke-dashoffset:3822}45.97701149425288%,to{stroke-dashoffset:0}}@keyframes oDBhETZT_draw_26{23.2183908045977%{stroke-dashoffset:2052}46.206896551724135%,to{stroke-dashoffset:0}}@keyframes oDBhETZT_draw_27{23.448275862068964%{stroke-dashoffset:1774}46.43678160919541%,to{stroke-dashoffset:0}}@keyframes oDBhETZT_draw_28{23.67816091954023%{stroke-dashoffset:707}46.66666666666667%,to{stroke-dashoffset:0}}@keyframes oDBhETZT_draw_29{23.90804597701149%{stroke-dashoffset:707}46.89655172413793%,to{stroke-dashoffset:0}}@keyframes oDBhETZT_draw_30{24.137931034482758%{stroke-dashoffset:1062}47.1264367816092%,to{stroke-dashoffset:0}}@keyframes oDBhETZT_draw_31{24.367816091954023%{stroke-dashoffset:1110}47.356321839080465%,to{stroke-dashoffset:0}}@keyframes oDBhETZT_draw_32{24.597701149425287%{stroke-dashoffset:1234}47.58620689655172%,to{stroke-dashoffset:0}}@keyframes oDBhETZT_draw_33{24.82758620689655%{stroke-dashoffset:778}47.816091954022994%,to{stroke-dashoffset:0}}@keyframes oDBhETZT_draw_34{25.057471264367813%{stroke-dashoffset:1185}48.04597701149426%,to{stroke-dashoffset:0}}@keyframes oDBhETZT_draw_35{25.287356321839077%{stroke-dashoffset:1234}48.275862068965516%,to{stroke-dashoffset:0}}@keyframes oDBhETZT_draw_36{25.517241379310345%{stroke-dashoffset:1138}48.50574712643678%,to{stroke-dashoffset:0}}@keyframes oDBhETZT_draw_37{25.74712643678161%{stroke-dashoffset:1185}48.73563218390805%,to{stroke-dashoffset:0}}@keyframes oDBhETZT_draw_38{25.97701149425287%{stroke-dashoffset:1204}48.96551724137931%,to{stroke-dashoffset:0}}@keyframes oDBhETZT_draw_39{26.20689655172414%{stroke-dashoffset:1004}49.195402298850574%,to{stroke-dashoffset:0}}@keyframes oDBhETZT_draw_40{26.436781609195403%{stroke-dashoffset:969}49.425287356321846%,to{stroke-dashoffset:0}}@keyframes oDBhETZT_draw_41{26.666666666666668%{stroke-dashoffset:969}49.6551724137931%,to{stroke-dashoffset:0}}@keyframes oDBhETZT_draw_42{26.89655172413793%{stroke-dashoffset:1204}49.885057471264375%,to{stroke-dashoffset:0}}@keyframes oDBhETZT_draw_43{27.126436781609193%{stroke-dashoffset:1110}50.11494252873564%,to{stroke-dashoffset:0}}@keyframes oDBhETZT_draw_44{27.356321839080454%{stroke-dashoffset:1004}50.3448275862069%,to{stroke-dashoffset:0}}@keyframes oDBhETZT_draw_45{27.586206896551722%{stroke-dashoffset:1062}50.57471264367817%,to{stroke-dashoffset:0}}@keyframes oDBhETZT_draw_46{27.816091954022987%{stroke-dashoffset:1137}50.80459770114943%,to{stroke-dashoffset:0}}@keyframes oDBhETZT_draw_47{28.04597701149425%{stroke-dashoffset:522}51.03448275862069%,to{stroke-dashoffset:0}}@keyframes oDBhETZT_draw_48{28.27586206896552%{stroke-dashoffset:1234}51.26436781609196%,to{stroke-dashoffset:0}}@keyframes oDBhETZT_draw_49{28.50574712643678%{stroke-dashoffset:1280}51.49425287356323%,to{stroke-dashoffset:0}}@keyframes oDBhETZT_draw_50{28.735632183908045%{stroke-dashoffset:6857}51.724137931034484%,to{stroke-dashoffset:0}}
  </style>
</svg>
