<svg version="1.1" id="Layer_1" xmlns="http://www.w3.org/2000/svg" x="0" y="0" viewBox="0 0 866.5 550.3" xml:space="preserve">
  <style>
    .st0{stroke:#000;stroke-miterlimit:10}.st1{fill:#142533}.st2{fill:#25435c}.st3{fill:#2c506e}.st5{display:inline;fill:#323f4f}.st10,.st8{fill:#223e54;stroke:#000;stroke-miterlimit:10}.st10{fill:#ffdc4b}.st12{font-family:&apos;PaybAck&apos;}
  </style>
  <g id="layer101">
    <path class="st0" d="M506.4 421.9c-19.2 0-36.4-.2-44.9-.6-28.8-1.4-62.4-5-89.9-9.6-16.8-2.8-36-7-41.4-8.6 5-.3 20.9-.4 47.7-.4 38.6-.1 54.2-.3 69.2-1.2 59.7-3.5 108.5-9.8 153.6-19.7 9.4-2 17.3-3.8 17.8-4 .2-.1.3-.2.4-.4.2-.9-1.5-3.1-1.9-3.5-1.2-1.6-2.8-4-3.4-5.3-.3-.7-1.3-2.6-2.2-2.6h-.1l-.2.1c-.3.1-6.4 1.8-13.8 3.7-38.7 10.3-86.4 16-134.1 16-4.7 0-9.5-.1-14.2-.2-5.4-.1-8.5-.2-10.8-.2-4.6 0-5.4.3-6.3 1.4-1.6 2.1-9.6 5.4-16 6.8-3.7.7-8.4 1.1-13.6 1.1-4.4 0-8.9-.3-13.1-.9l-6.7-1-3.5 2c-5.6 3.3-13.4 5.3-20.9 5.3-3.3 0-6.4-.4-9-1.2-5.3-1.6-11-4.8-13.7-7.8l-2.4-2.6-5.3 2.8c-6.4 3.4-14.4 5.3-22.3 5.3-5.1 0-10-.8-14.5-2.2-7.3-2.4-16.3-8.8-19.9-14.5l-3.3-5.1-1.7 2.7c-1.3 2.1-6.1 3.7-10.7 3.7-7.9 0-20.5-5.5-22.9-10-1.3-2.5-1.6-2.5-9-2.9-16.3-.8-22.9-5.7-22.9-17v-5.6l-3.5 2.2c-6.8 4.1-16.4 6.4-26.9 6.4-3.9 0-7.9-.3-11.9-.9-15-2.4-30.1-10.2-36-18.6-2.9-4-3.2-5-3.2-10.4 0-5.1.3-6.3 2.8-9.6 1.4-2.1 5.1-5.4 8.1-7.5l6.1-4.2-3.4-1.8c-1.3-.7-6.4-3.6-11.7-6.8l-1.8-1.1c-1.6-.9-3-1.8-4.3-2.5-7.3-4.3-9.8-5.8-12-5.8-1.1 0-2.1.4-3.5.9-.5.2-1.1.4-1.8.6-8.4 2.8-17.3 4.1-28.8 4.1-16.7 0-30.1-3.1-38.7-9-4.8-3.2-7.8-8.5-6.7-11.6 2.7-7.6 13.9-13.6 29-15.9 1.5-.2 3.1-.5 4.4-.7 1.3-.2 2.4-.4 2.8-.4.5-.1.9-.3 1-.7.3-.9-.7-2.2-5.3-7-22-22.8-35.2-44.8-41.6-69.2-2.5-9.7-3.4-26.3-2.4-27.8.3 0 .5.1.5.2 0 2.1 31.4 28.8 47.6 41.2l10.4 8 2.6-4c1.2-1.9 3.8-4.9 5.7-6.7l4-3.8-8.7-3c-19.4-6.8-32.8-15.9-38.8-26.5-3-5.2-3.1-14.6-.1-20 2.9-5.2 10-12.1 16.6-16.2l6.1-3.7-4-3.5c-5.2-4.6-7.6-9.6-7.6-15.8 0-8.9 5.8-16.2 16.3-20.6 4.2-1.8 5-2.7 5.2-3.3.1-.3.1-.6-.1-.8-.2-.4-.6-3.3-.9-8.8-1.1-15.5 5.6-27.4 20.9-37.6 11.5-7.8 23.9-12 39.2-13.2 2.6-.2 5.4-.3 8.2-.3 8.6 0 17.1 1 23.7 2.8l6.4 1.7 5.4-3.6c9.5-6.4 21.8-9.9 34.4-9.9 6.9 0 13.7 1 20.1 3.1 9.9 3.2 19.6 9.8 25.1 17.4l2.8 3.8 5.9-.6c3.5-.3 18-.5 38.7-.5 26.9 0 60.8.3 70.7.9 15 .9 45.4 3.5 58.3 5.2l7.5 1 4.5-2.3c6.3-3.2 10.2-4 20.9-4h1.4c11.8 0 19.8 1.2 37.1 5.7l11 2.8 4.6-2.9c9.2-5.7 19.4-8 36.3-8 1.6 0 3.3 0 5 .1 16.5.4 26.5 2.2 42.7 7.5 17.4 5.8 30.1 14.7 32.4 22.8l.8 2.8 7.6.4c4.2.3 10.5 1.1 14 1.9 5.6 1.1 7.8 2 11.5 4.5 5.3 3.7 6.6 7.1 4.4 11.8-.3.6-1.4 2.6-.9 3.4.1.2.3.3.6.3.4 0 2.2-.4 6.4-1.3 11.8-2.7 27.6-4.4 41.2-4.4 6.8 0 12.6.4 17 1.2 13.3 2.4 23.6 7.3 28.2 13.5 1.8 2.4 2.2 4 2.1 8.5 0 6.3-1.6 9.2-7.6 14.6-3 2.5-3.8 3.9-3.8 6.4 0 4.6-3.6 12.8-7.9 18-2.8 3.5-3.5 4.5-3.2 5.3.2.5.7.7 1.3.9 20.2 4.8 34.4 10.5 47.7 19 25.1 16.1 33.6 38.2 22.2 57.5l-2.1 3.5 4.5 7.2c5.8 9.2 11.9 21.8 14.8 30.6l2.5 7.4 6.4 2.8c10.3 4.6 15.8 10.1 16.6 16.4.7 4.8-1.1 9-5.2 12.6l-3.7 3.3 4.3 3.8c7 6.2 8.7 13.1 4.8 19.9-3.9 7.2-20.3 15.9-33.1 17.7-3.4.4-3.7.8-3.7 4.2 0 11.8-10.9 23.9-28.5 31.7-12.4 5.5-26.4 8.5-44 9.7-6.4.4-8.8 1-17.1 4-32.8 12.1-72.6 20.7-115.4 24.8-12.1 1.2-45.2 3.4-65.5 4.4-7.4.4-22.2.6-40 .6z"/>
    <path class="st0" d="M204.1 1.5c6.9 0 13.6 1 20 3.1 9.8 3.1 19.4 9.7 24.9 17.2l2.6 3.5.3.5.6-.1 5.6-.5c3.5-.3 18-.5 38.7-.5 26.9 0 60.8.3 70.7.9 15 .9 45.4 3.5 58.2 5.2l7.3.9h.3l.3-.1 4.4-2.2c6.2-3.2 10-3.9 20.7-3.9h1.4c11.8 0 19.7 1.2 37 5.7l10.8 2.7.4.1.4-.2 4.4-2.7c9.1-5.7 19.2-7.9 36-7.9 1.6 0 3.3 0 5 .1 16.5.4 26.4 2.2 42.5 7.5 17.3 5.7 29.8 14.5 32.1 22.4l.7 2.4.2.7h.7l7.2.4c4.2.3 10.4 1.1 14 1.9 5.5 1.1 7.7 1.9 11.3 4.5 5.1 3.6 6.3 6.7 4.3 11.1-.7 1.3-1.4 3-.9 3.9.2.4.6.6 1 .6s1.9-.3 6.5-1.3c11.7-2.7 27.5-4.4 41.1-4.4 6.7 0 12.6.4 16.9 1.2 13.2 2.3 23.3 7.2 27.9 13.3 1.7 2.3 2.1 3.8 2 8.2 0 6.1-1.5 9-7.4 14.2-3.1 2.6-4 4.1-4 6.8 0 4.5-3.6 12.6-7.8 17.7-2.7 3.4-3.7 4.6-3.3 5.8.3.9 1.2 1.1 1.6 1.2 20.1 4.8 34.3 10.5 47.5 19 24.8 16 33.3 37.8 22.1 56.8l-1.9 3.2-.3.5.3.5 4.3 7c5.8 9.1 11.8 21.7 14.7 30.5l2.4 7.2.1.4.4.2 6.2 2.7c10.1 4.5 15.6 9.9 16.3 16 .7 4.6-1 8.6-5.1 12.2l-3.3 2.9-.8.8.9.7 3.9 3.4c6.8 6 8.4 12.7 4.7 19.3-3.8 7-20 15.7-32.7 17.4-3.7.5-4.2 1-4.2 4.7 0 11.6-10.8 23.6-28.2 31.2-12.4 5.4-26.3 8.5-43.9 9.6-6.5.4-8.9 1-17.3 4-32.7 12.1-72.6 20.7-115.2 24.7-12.1 1.2-45.1 3.4-65.5 4.4-7 .4-21.8.6-39.5.6-18.9 0-36.6-.2-44.9-.6-28.7-1.4-62.3-5-89.9-9.6-14.2-2.4-30.5-5.8-38.3-7.8 7.1-.2 21.9-.3 44.4-.3 38.7-.1 54.2-.3 69.3-1.2 59.7-3.5 108.5-9.8 153.6-19.7 9.3-2 17.3-3.8 17.8-4 .3-.1.5-.4.6-.8.2-1-.9-2.7-1.9-3.9-1.2-1.6-2.7-3.9-3.4-5.2-.2-.6-1.3-2.9-2.7-2.9-.1 0-.3 0-.4.1-.5.2-6.6 1.8-13.8 3.7-38.7 10.3-86.3 15.9-134 15.9-4.7 0-9.5-.1-14.2-.2-5.4-.1-8.5-.2-10.8-.2-4.7 0-5.6.3-6.7 1.6-1.4 1.8-8.9 5.2-15.7 6.6-3.7.7-8.4 1.1-13.5 1.1-4.4 0-8.9-.3-13-.9l-6.5-.9-.3-.1-.3.2-3.3 1.9c-5.5 3.3-13.2 5.2-20.7 5.2-3.3 0-6.3-.4-8.8-1.2-5.3-1.6-10.8-4.7-13.5-7.6l-2.1-2.3-.5-.6-.7.4-5 2.6c-6.4 3.4-14.2 5.2-22.1 5.2-5.1 0-9.9-.7-14.3-2.2-7.2-2.3-16.1-8.7-19.7-14.3l-2.9-4.4-.8-1.3-.8 1.3-1.3 2c-1.1 1.7-5.4 3.5-10.3 3.5-7.7 0-20.1-5.4-22.4-9.8-1.5-2.7-2.1-2.7-9.4-3.1h-.1c-15.9-.8-22.3-5.6-22.3-16.5v-6.5l-1.5 1-2.7 1.7c-6.8 4.1-16.2 6.4-26.7 6.4-3.9 0-7.9-.3-11.8-.9-14.8-2.4-29.8-10.1-35.6-18.4-2.8-3.9-3.1-4.8-3.1-10.1 0-5.2.4-6.2 2.7-9.3 1.4-2 5-5.3 7.9-7.4l5.4-3.7 1.4-.9-1.5-.8-2.7-1.4c-1.3-.7-6.4-3.6-11.7-6.7l-1.9-1.1c-1.6-.9-3-1.8-4.3-2.5-7.6-4.5-9.9-5.8-12.2-5.8-1.2 0-2.2.4-3.7.9-.5.2-1.1.4-1.8.6-8.3 2.8-17.2 4-28.7 4-16.6 0-29.9-3.1-38.4-8.9-4.5-3-7.5-8.2-6.5-11 2.7-7.4 13.6-13.3 28.6-15.6 1.5-.2 3.1-.5 4.4-.7 1.3-.2 2.3-.4 2.8-.4.9-.2 1.2-.7 1.4-1.1.4-1.2-.5-2.4-5.4-7.5-21.9-22.7-35.1-44.6-41.5-69-2.2-8.6-3.2-23.4-2.6-26.9.8 1.3 4 4.7 17 15.8 10.4 9 22.1 18.6 30.5 25.1l10 7.6.9.7.6-.9 2.3-3.5c1.2-1.8 3.8-4.8 5.7-6.6l3.4-3.2 1.2-1.1-1.6-.5-7.9-2.7c-19.3-6.6-32.6-15.7-38.6-26.2-3-5.1-3-14.2-.1-19.5 2.8-5.1 9.9-12 16.4-16l5.5-3.3 1.2-.7-1-.9-3.5-3c-5.1-4.5-7.5-9.4-7.5-15.4 0-8.7 5.7-15.9 16-20.2 4.2-1.8 5.2-2.7 5.5-3.6.1-.4.1-.8-.1-1.1-.2-.5-.5-3.1-.9-8.6-.9-15.4 5.8-27.2 20.9-37.3C98.6 16.2 111 12 126.1 10.7c2.6-.2 5.4-.3 8.1-.3 8.6 0 17 1 23.6 2.8l6.2 1.7.4.1.4-.3 5.2-3.5c9.5-6.2 21.6-9.7 34.1-9.7m0-1c-12.5 0-24.8 3.4-34.6 9.9l-5.2 3.5-6.2-1.7c-6.8-1.8-15.4-2.8-23.9-2.8-2.8 0-5.5.1-8.2.3C110.8 11 98.1 15.3 86.6 23 71.1 33.4 64.4 45.5 65.3 61.2c.3 4.4.7 8.5 1 9 .4.7-1.1 1.7-4.9 3.3C50.7 78 44.8 85.6 44.8 94.6c0 6.3 2.5 11.5 7.8 16.1l3.5 3-5.5 3.3c-6.8 4.2-13.9 11.1-16.8 16.3-3.1 5.6-3 15.1.1 20.5 6.1 10.6 19.8 20 39.1 26.7l7.9 2.7-3.4 3.2c-1.9 1.8-4.5 4.8-5.8 6.8l-2.3 3.5-10-7.6C41.3 175.4 12 150.2 12 148.5c0-.3-.5-.6-1.1-.6-1.8 0-.4 19 2 28.5 6.4 24.4 19.8 46.7 41.7 69.4 5.2 5.4 6 6.6 4.6 6.8-.9.1-4.2.7-7.2 1.1-15.4 2.3-26.6 8.5-29.4 16.2-1.2 3.3 2 8.9 6.9 12.2 8.8 6 22.2 9 39 9 11.7 0 20.6-1.3 29-4.1 2.5-.8 3.8-1.5 5.2-1.5 2.4 0 5.3 1.9 16 8.2 6 3.5 12.1 7 13.6 7.8l2.7 1.4-5.4 3.7c-3 2.1-6.7 5.5-8.2 7.6-2.5 3.4-2.9 4.6-2.9 9.9 0 5.4.3 6.5 3.3 10.6 6 8.6 21.1 16.4 36.3 18.8 4.1.6 8.1.9 12 .9 10.5 0 20.2-2.3 27.2-6.5l2.7-1.7v4.7c0 11.5 6.9 16.7 23.3 17.5 7.3.4 7.4.4 8.6 2.6 2.5 4.7 15.2 10.3 23.3 10.3 4.8 0 9.7-1.7 11.1-4l1.3-2 2.9 4.4c3.7 5.7 12.7 12.3 20.2 14.7 4.6 1.5 9.6 2.3 14.6 2.3 7.9 0 15.9-1.8 22.6-5.3l5-2.6 2.1 2.3c2.8 3.1 8.5 6.3 13.9 7.9 2.7.8 5.9 1.2 9.1 1.2 7.3 0 15.4-1.9 21.2-5.3l3.3-1.9 6.5.9c4.3.6 8.8.9 13.1.9 5.1 0 9.8-.4 13.7-1.1 6.6-1.4 14.6-4.8 16.3-7 .7-.9 1.2-1.2 5.9-1.2 2.4 0 5.8.1 10.8.2 4.7.1 9.5.2 14.2.2 47.3 0 95.5-5.7 134.3-16 7.3-1.9 13.5-3.5 13.9-3.7h.1c.3 0 1.2 1 1.7 2.4.7 1.4 2.3 3.8 3.5 5.4 1.3 1.6 2 3 1.7 3.1-.4.1-8.3 1.9-17.7 4-45.5 10-93.8 16.1-153.5 19.7-15.1.9-30.8 1.1-69.2 1.2-32.7 0-49.7.2-49.5.7.5 1 24.2 6.2 43.2 9.4 27.5 4.6 61.2 8.2 90 9.6 9 .4 27.3.6 44.9.6 16.3 0 32-.2 39.6-.6 20-1 53-3.2 65.5-4.4 43-4.1 82.6-12.6 115.5-24.8 8.3-3 10.6-3.5 17-4 17.6-1.1 31.7-4.2 44.2-9.7C806 371 817 358.7 817 346.7c0-3.1.1-3.3 3.3-3.7 13-1.8 29.5-10.6 33.5-17.9 4-7 2.3-14.1-4.9-20.5l-3.9-3.4 3.3-2.9c4.3-3.8 6.1-8.1 5.4-13.1-.8-6.6-6.5-12.1-16.9-16.8l-6.2-2.7-2.4-7.2c-2.9-8.9-9-21.6-14.8-30.7l-4.3-7 1.9-3.2c11.5-19.6 2.9-41.9-22.4-58.2-13.2-8.5-27.6-14.3-47.8-19.1-1.6-.4-1.3-1 2.2-5.4 4.4-5.4 8-13.7 8-18.3 0-2.3.7-3.5 3.6-6 6.1-5.4 7.8-8.5 7.8-14.9.1-4.6-.3-6.3-2.2-8.8-4.7-6.4-14.9-11.3-28.5-13.7-4.6-.8-10.5-1.2-17.1-1.2-13.2 0-28.9 1.6-41.3 4.4-3.1.7-5.9 1.3-6.3 1.3-.4 0-.1-1.3.8-3 2.3-4.9 1-8.5-4.6-12.4-3.8-2.6-6-3.5-11.7-4.6-3.8-.8-10.1-1.6-14.1-1.9l-7.2-.4-.7-2.4c-2.3-8.2-15-17.2-32.7-23.1-16.3-5.4-26.2-7.2-42.8-7.6-1.8 0-3.4-.1-5.1-.1-16.9 0-27.3 2.3-36.5 8l-4.4 2.7-10.8-2.7c-17.2-4.5-25.3-5.8-37.2-5.8h-1.4c-10.8 0-14.9.8-21.1 4l-4.4 2.2-7.3-.9c-12.5-1.6-42.6-4.2-58.3-5.2-9.7-.6-43.2-.9-70.7-.9-18.8 0-34.9.1-38.8.5l-5.6.5-2.6-3.5c-5.6-7.6-15.3-14.3-25.4-17.5C217.9 1.5 211 .5 204.1.5z"/>
  </g>
  <g id="layer102">
    <path class="st1" d="M455.2 415.4c-.2-.1-4.2-.4-9-.5-4.7-.2-10.1-.5-11.9-.7s-6.9-.5-11.3-.7c-8.9-.5-10.1-.5-20-1.6-3.8-.4-8.6-.9-10.5-1s-9.8-1.1-17.5-2.1-14.8-1.8-15.7-1.8c-1 0-2-.3-2.4-.6-.3-.4 5.3-.5 15.8-.1 21.2.7 54.6.7 72.3-.1 7.7-.3 14.9-.5 16-.5s6.3-.3 11.5-.7c5.2-.3 12.2-.8 15.5-.9s7.1-.5 8.5-.7 4.8-.5 7.5-.7c6.6-.4 30.6-2.9 32.5-3.3.8-.2 3.3-.5 5.5-.7s6.9-.8 10.5-1.4c3.6-.5 7.9-1.1 9.7-1.3 3.1-.3 22.6-3.5 42.7-7.2 5.4-.9 11.7-2.3 14-3.1 2.3-.7 5.5-1.5 7.1-1.7 4.2-.7 16.7-3.7 18-4.3.5-.3 2.4-.7 4-1 7.3-1.2 45.5-13.9 56.7-19 19-8.5 36-19.8 45.5-30.3 3.4-3.7 12.3-15.8 12.3-16.7 0-.4 1.7-3.1 3.7-6l3.8-5.2.2-11.7c.3-11.9-.8-22-3.1-28.5-.3-1.1-.8-3-1.1-4.2-.2-1.2-.8-3.1-1.3-4.4-.5-1.1-1.5-3.9-2.2-6-.6-2.1-1.6-4-2.1-4.2-.5-.3-.9-1.1-.9-2s-.4-1.8-1-2c-.5-.2-1-1-1-1.7s-1.1-3.1-2.6-5.2c-1.4-2.1-3.1-4.7-3.8-5.8-4-6.2-9.5-13.5-14.5-19-3.1-3.5-6.4-7.2-7.4-8.4-1-1.1-3.1-3.1-4.5-4.4-1.5-1.3-3.4-3.1-4.1-4.2-.8-1-2.7-2.6-4.2-3.7-1.6-1-2.9-2-2.9-2.3s-.7-1.1-1.5-1.7c-.9-.7-5-4-9.1-7.5-13.9-11.4-34.4-24.8-57.1-37.4-2.9-1.6-5.6-2.9-6-2.9-.5 0-2.1-.9-3.7-2s-3.5-2-4.1-2-2.2-.7-3.5-1.7c-1.3-.9-2.7-1.7-3.2-1.7-.4 0-3.1-1.2-6-2.7s-5.8-2.7-6.4-2.7c-.6 0-1.7-.5-2.4-1-1.3-1.1-21.7-9.3-30.1-12.1-3.2-1.1-8.1-2.7-11-3.8-9.3-3.1-26.3-8.4-28.9-8.8-2.7-.5-6.4-1.5-9.4-2.5-2.5-.9-11.9-3-18.5-4.3-3-.5-6-1.3-6.5-1.5-.6-.3-6.3-1.5-12.6-2.7-6.3-1.2-13.5-2.6-16-3.1s-5.5-.9-6.8-.9-3.1-.3-4-.6c-1.9-.7-19.7-3.2-25.3-3.6-2-.1-4-.5-4.5-.7-.6-.2-3.7-.5-7-.7s-6.7-.5-7.5-.7-3.4-.5-5.9-.7-10.9-.8-18.7-1.3c-16.1-1.2-39.5-1.6-49.8-.9-3.8.3-9.5.7-12.5.9-3 .2-8 .7-11 1.1s-7.5 1-10 1.3c-13 1.6-15.5 1.9-18.9 2.6-2 .5-5 1.2-6.8 1.7-1.7.5-4.6 1.1-6.5 1.3-2.9.4-15.5 4.2-24.3 7.4-1.6.6-5 2.2-7.4 3.7-2.4 1.4-4.7 2.5-5.1 2.5-.9 0-11.3 8.5-12.4 10-.3.5-1.5 1.9-2.6 3s-2.2 2.5-2.6 3c-.3.5-1 1.7-1.5 2.5-4 6.6-4.9 8.3-5.4 10.5-2.7 12.5-2.8 14.1-1 24.8.7 4.1 3.7 12.7 4.7 13.4.4.3.8 1.2.8 1.9s.6 2.2 1.4 3.3c.7 1.2 2.2 3.7 3.1 5.5 1.9 3.5 11.2 16 14.5 19.4 1.1 1.1 2.8 3.1 3.9 4.4 1.1 1.3 2.7 2.7 3.5 3.2.9.5 1.6 1.3 1.6 1.7s1.5 1.9 3.3 3.2c1.7 1.4 4.6 3.6 6.2 5 7.5 6.1 30.2 20.6 36.2 23 1.5.6 3.7 1.8 4.7 2.6 1.1.7 2.3 1.4 2.9 1.4.5 0 2.4.9 4.2 1.9 3.2 1.8 19.4 8.8 23.8 10.2 1.2.4 4.9 1.7 8.2 3 3.3 1.2 7.6 2.7 9.5 3.3s5.5 1.7 8 2.6c6.9 2.4 29.1 8.4 30.9 8.4.9 0 2.1.3 2.6.6.6.3 3.7 1.1 7 1.7s6.7 1.3 7.5 1.6c1.9.7 22.3 4.2 35.3 6.2 5.3.8 9.7 1.7 9.7 2s-.6.4-1.2.3c-.7-.1-4.2-.4-7.8-.6-3.6-.2-7.6-.5-9-.7-1.4-.1-5.9-.7-10-1.3-9.4-1.1-21-3.1-23.2-3.8-1-.3-2.7-.6-3.8-.6s-2.8-.3-3.8-.6c-.9-.3-7.3-1.9-14.2-3.4-6.9-1.5-13.2-2.9-14.1-3.3-.8-.3-5.1-1.6-9.5-2.7-8.1-2.3-30.7-9.7-37.9-12.5-2.2-.9-4.7-1.8-5.5-2.1-.8-.2-2.8-1.1-4.5-1.9-1.6-.7-4.3-1.8-5.8-2.3s-4.5-1.9-6.5-3-4.5-2.3-5.4-2.5c-1-.2-1.8-.7-1.8-1.1 0-.3-.5-.7-1.1-.7s-2.5-.9-4.2-1.9c-1.8-1.1-7.3-4.4-12.3-7.3-5-2.9-12.9-8.4-17.5-12-4.6-3.6-8.9-6.8-9.6-7.1-.7-.3-1.3-.9-1.3-1.4s-.7-1.1-1.5-1.3-1.5-.7-1.5-1.3c0-.5-1.1-1.6-2.5-2.5s-2.5-1.8-2.5-2.1-2.2-2.9-4.8-5.8c-7-7.5-12.5-15.1-16.2-22-1.8-3.3-3.6-6.6-4-7.4-.7-1.1-3.1-8.2-4.7-13.7-.3-.9-.6-6.8-.8-13.1-.3-9 0-12.5 1.4-16.7 2.5-7.4 6.6-15.7 9-18.5 1.2-1.3 2.4-2.7 2.8-3.3 1.5-2.3 12.6-10.7 18-13.8 8.6-4.9 26.4-12.3 29.6-12.3.4 0 2.7-.6 4.9-1.3 2.3-.7 4.9-1.3 5.8-1.3s2-.2 2.3-.5c1.1-.7 19.9-3.9 26.7-4.6 1.9-.1 5.1-.5 7-.8 4.8-.6 5.5-.7 13.5-1.1 9.7-.6 49.7-.6 63-.1 18.5.8 16.5.7 44 3 4.4.4 9.4.8 11 .9 1.7.1 4.1.4 5.5.7 1.4.2 4.1.5 6 .7 1.9.1 6.9.7 11 1.3 4.1.6 9 1.2 10.8 1.3 1.8.1 3.7.5 4.2.7.6.3 3.1.7 5.8 1 9.9 1.3 14.8 2 16.7 2.7 1.1.3 4.7 1.1 8 1.6 10.8 1.7 17.2 3.1 20.1 4.1 1.6.5 4.5 1.2 6.4 1.4 1.9.3 4 .7 4.5.9.6.3 4.6 1.3 9 2.3s9.8 2.4 12.1 3.1c2.2.7 4.5 1.3 5.1 1.3s2.4.4 4 .9c1.5.5 4.8 1.5 7.3 2.3 10.9 3.3 13.8 4.2 19.1 6 3.2 1 10.1 3.5 15.5 5.5 5.5 2 11.7 4.3 13.9 5.1 2.2.7 5.8 2.2 8 3.2s4.3 1.8 4.8 1.8 2.3.7 4 1.5c1.8.8 3.9 1.8 4.8 2.1.9.4 4.4 1.9 7.7 3.5 3.4 1.5 6.3 2.8 6.6 2.8.5 0 4.8 2.1 25.5 12.5 1.3.7 3.1 1.7 4 2.2s3.7 2.1 6.1 3.5c20.9 12.1 33.9 21 51.3 34.9 6.9 5.6 26.4 24.4 29.4 28.5.7.9 1.7 2.1 2.3 2.7.5.5 4.4 5.8 8.6 11.7 4.1 5.9 8 11.3 8.5 11.9.5.7.9 1.5.9 1.9s.6 1.7 1.4 2.8c1.8 2.7 6.1 13.3 8.4 20.6 1.3 4.2 1.7 8.2 1.5 15.1-.2 9.9-.4 11.3-2.3 17.1-.6 2-1.3 4.2-1.4 4.7-1.4 6.4-15.8 30.1-23.1 37.8-7.7 8.2-15.2 15.7-16.9 16.9-1.2.8-2.8 2-3.7 2.7-1.3 1-22.2 14.4-27 17.3-.9.5-2.1.9-2.7.9-.7 0-1.2.3-1.2.7 0 .4-.8.9-1.7 1.2-1 .3-6.7 2.7-12.8 5.5-13 5.9-34.7 13.5-50.6 17.7-6.3 1.7-12.8 3.5-14.4 4-7.6 2.3-61.1 11.2-73.5 12.1-1.9.1-5.1.5-7 .7-3.6.5-4.5.5-11.5 1.1-7.9.7-13.2 1-23.5 1.4-5.8.2-11.2.6-12 .8-1.6 1.4-71.6 1.8-72.3 1.4z"/>
    <path class="st1" d="M348.9 399.2c-5.1-1.6-10.7-4.9-13.4-7.8l-2.1-2.3-5 2.6c-10.9 5.8-25.4 7-37.2 3.1-7.5-2.4-16.5-9-20.2-14.7l-2.9-4.4-1.3 2c-1.4 2.2-6.3 4-11.1 4-8.1 0-20.8-5.6-23.3-10.3-1.2-2.2-1.3-2.2-8.6-2.6-16.4-.8-23.3-6-23.3-17.5v-4.7l-2.7 1.7c-9.6 5.8-24.2 7.9-39.2 5.6-15.2-2.4-30.3-10.2-36.3-18.8-3-4.2-3.3-5.2-3.3-10.6 0-5.3.4-6.5 2.8-9.9 1.6-2.1 5.6-5.7 8.9-8l5.9-4 2.7 1.7c5 3.1 28.7 14.7 44.2 21.6 71.7 31.5 147.1 50.6 226.1 57 9 .7 19.6 1.6 23.4 1.9 4.7.3 5.9.5 3.8.7-2 .1-3.7.7-4.3 1.5-1.6 2.1-9.8 5.4-16.2 6.8-7.1 1.4-17.6 1.5-26.8.3l-6.5-.9-3.3 1.9c-5.8 3.4-11.1 4.8-19.2 5.1-5.9.2-8.4 0-11.6-1zM735.5 389c1.4-.8 5.1-2.6 8.3-4 15.6-7 39.3-21.4 49-29.9 5.6-5 10.7-9.6 10.7-9.9 0-.1 1.8-2.2 4-4.5 10.8-11.6 21.4-30.2 23.7-41.7 1.4-6.8.4-28.8-1.3-30.7-.3-.3-.1-1 .4-1.5.7-.9 1.8-.7 7 1.7 10.4 4.7 16.1 10.3 16.9 16.8.7 5-1.1 9.3-5.4 13.1l-3.3 2.9 3.9 3.4c7.2 6.4 8.9 13.5 4.9 20.5-4 7.4-20.5 16.1-33.5 17.9-3.2.4-3.3.5-3.3 3.7 0 12.1-11 24.3-28.8 32.1-12.5 5.5-26.6 8.6-44.2 9.7-4.1.3-8.4.7-9.5 1.1-1.5.6-1.4.4.5-.7zM618.7 377.2c.1-.3-.7-1.7-1.9-3.2-1.1-1.5-2.6-3.8-3.3-5.2-.9-1.9-1.6-2.5-2.9-2.2-3.7.9 2.8-1.9 10.9-4.6 4.7-1.6 10.1-3.5 12-4.3s4.2-1.7 5-1.9c1.7-.5 16.8-7.6 21.5-10 10-5.2 18.9-10.8 24.5-15.5 1.9-1.6 4.7-3.9 6.1-5 6.5-5.3 15.8-16.6 19.8-24.2 11.3-21.5 10-39.6-4.6-62.6-3.1-4.9-4.1-6.5-7.2-10.7-3.6-5-9.6-12.3-12.6-15.1-1.2-1.1-2.6-2.7-3.3-3.6-.7-.9-3.3-3.5-5.7-5.7s-5.4-5-6.7-6.2c-1.3-1.3-4-3.7-6.1-5.4s-5-4-6.3-5.2c-10.5-8.6-24.2-18.1-34.8-24.1-3.2-1.8-7.1-4.1-8.7-5-5.2-3.1-32.7-16.7-34.9-17.3-.9-.2-5.6-2.1-10.5-4.1-14.9-6.1-32.3-12.1-45.2-15.5-1.3-.3-3.5-.9-5-1.3-1.6-.5-3.7-1-4.8-1.3s-3.3-.9-5-1.3c-3.3-.9-21-4.8-27-5.9-2.2-.5-6.2-1.3-9-1.8-5.3-1.1-26.7-4.2-32.5-4.8-1.9-.1-4.3-.5-5.3-.7s-3.2-.5-5-.7c-3-.3-4.8-.4-13.7-1.3-3.3-.3-6-.5-18.2-1.3-18.5-1.3-51.3-1.4-63.3-.3-22.9 2.1-35.8 4.6-49.2 9.3-11.6 4-16.8 6.9-21.8 11.9-6.9 6.9-9.3 12.3-9.3 20.6.1 7 .5 9 4 17.2 7.8 18.7 36 46.1 65.9 64.2 16.3 9.8 26.7 14.8 42.4 20.4 3.3 1.1 8.1 2.9 10.8 4 5.2 2 16.3 5.4 29.9 8.8 18.8 4.9 41 7.2 58.5 6.2 32.6-1.9 46.6-8.8 48.9-23.8 1.6-9.8-4.8-19.4-19.2-28.7-14.6-9.4-26.5-14.3-51-21-18.6-5.1-47-6.9-60.8-3.8-8.3 1.8-15.3 5.2-17.9 8.5-1 1.4-2.2 2.4-2.6 2.2-1.4-.5-2-9-1-12.9 1.9-6.8 8.1-11 20.8-13.7 5.8-1.3 8.9-1.5 25.1-1.5 22.5 0 34.4 1.1 42.6 4 1.6.5 3.4 1 4.1 1 .6 0 2.4.4 4 .9 1.5.5 5.7 1.9 9.3 3 3.6 1.1 8.3 2.8 10.5 3.8 2.2.9 5.6 2.2 7.5 2.9 5.9 2.1 21.7 10.6 29.5 15.8 12.2 8.1 22.7 18.8 27.4 27.9 3.9 7.4 4.5 9.8 4.4 17.1 0 4.6-.5 6-2.8 9-6.8 8.8-17.2 14.9-32.5 19.1-8 2.2-23.1 3.9-35 3.9-32.4 0-85.2-10.5-117.5-23.4-2.2-.9-4.7-1.8-5.5-2.1s-2.8-1.1-4.5-1.9c-1.6-.8-3.7-1.7-4.6-2.1-16.6-6.9-34.8-16.9-52.4-28.7-24.8-16.7-38.8-30.3-51.9-50.7-2.9-4.5-6.9-15.7-8.2-23-.2-1.5-.6-3.3-.9-4.2-.7-2.1 2-12 4.3-16 6.3-10.6 22.2-22.5 39.7-29.5 18.1-7.3 35.8-11.5 61.5-14.7 22.8-2.7 68-2.2 95 1.2 3 .3 6.9.8 8.5.9 1.7.1 4.8.6 7 .9 2.2.4 9.6 1.6 16.5 2.8 6.9 1.1 13.9 2.3 15.5 2.6 1.7.3 6.2 1.2 10 1.9 3.9.7 10.2 2.1 14 3 3.9.9 9 2.1 11.5 2.7 2.5.5 5.4 1.3 6.5 1.6 2.5.7 17.3 4.7 20 5.4 1.1.3 4 1.1 6.5 1.9s6.5 1.9 9 2.7c8.5 2.5 11.5 3.5 13.5 4.3 1.1.5 4.5 1.9 7.5 3.1 11.3 4.7 26.4 11.7 30.8 14.2 1.8 1.1 3.6 1.9 4 1.9s2.4 1 4.5 2.2c2 1.1 5.1 2.9 6.9 3.8 3.6 1.9 5.8 3.2 13 7.4 6.6 3.9 38.1 25 43.3 29.1 2.2 1.7 4.7 3.6 5.5 4.2 1.5 1.1 8.9 7.4 13.5 11.6 8.1 7.2 11.1 10 13.9 13.3 1.7 2 3.9 4.4 4.8 5.4 4 4.2 11 13.3 15.8 20.6 1 1.5 2.5 3.8 3.4 5.2 4.8 7.3 11.1 22.6 12.1 29.5.3 1.9.8 4.2 1 5 1.8 5.3 1.2 23.2-1 32.7-2.5 11-9.3 21.8-18.6 29.5-5.7 4.7-25.4 17.1-31.4 19.8-1.2.5-4.9 2.2-8.1 3.8-3.3 1.5-6.6 2.9-7.4 3.1-.8.3-2.8 1.1-4.5 1.8-4.7 2-27.1 10-28.1 10-.5 0-3.4.8-6.4 1.7-5.5 1.8-9.4 2.9-14 4.2-1.4.3-4.2 1.1-6.3 1.7-4 1.1-6.8 1.4-6.5.6z"/>
    <path class="st1" d="M423.5 372.1c-6.9-.3-16.8-.9-22-1.3-5.2-.5-11.3-.9-13.5-.9-4-.1-5.9-.3-17-2-3.3-.5-12.5-1.9-20.5-3-8-1.2-17.4-2.7-21-3.5-27-5.5-51.8-11.7-67.7-16.7-4.5-1.4-8.7-2.6-9.3-2.6-.7 0-2.4-.5-3.8-1.3-1.5-.7-5.4-2.1-8.7-3.2s-10.4-3.7-15.9-5.8c-5.4-2.1-10-3.8-10.3-3.8-.2 0-1.6-.6-3.1-1.3-1.5-.7-7.9-3.5-14.2-6.3-68.3-29.7-129.6-73.8-161.2-116-11.9-15.7-17.8-28.1-20.2-42-.5-2.9.5-4.4 1.7-2.3.4.7 14.4 13 22.4 19.6 18.8 15.6 23.7 19.5 30.1 24.4 12.2 9.2 17.2 12.8 28.2 20.2 12.7 8.6 29.1 18.3 43.7 26.1 3.9 2.1 8.1 4.5 9.4 5.3 1.2.7 3.9 2 5.9 2.7 2.1.7 6.1 2.5 9 4 13.9 7 49.7 20.3 75 27.9 6.4 1.9 24.6 6.7 34.5 9.2 2.8.7 8.5 2.1 12.7 3.2 17.2 4.5 77 13.7 97.3 15.1 3.3.3 7.6.6 9.5.7 15.1 1.4 24.4 1.8 52 2.1 32.2.4 54-.2 77-2.2 11.9-1 41.4-4.9 51-6.7 3-.5 7.9-1.5 10.9-2 8.9-1.6 23.5-5.9 31.5-9.2 4.1-1.7 11.2-5.6 15.6-8.6 20.7-13.9 25.4-33.1 13.4-55.4-3.3-6.2-10.9-16.1-16.6-21.5-2.4-2.3-5-4.8-5.8-5.6-7.1-7-27.5-21-41.5-28.6-29.9-16.2-70.8-30.9-109.5-39.2-27-5.9-32.2-6.8-63-10.6-20.1-2.5-48.2-2.5-63.5.1-3.3.5-7.3 1.3-9 1.5-13.2 2.3-26.1 8.9-31 15.8-3 4.4-3.7 8.9-2.6 17.6 3.5 26.1 30.6 52.4 73.2 71.5 18.3 8.2 43.3 16 66.4 20.8 5.7 1.2 8.2 1.9 6.8 2.1-3.9.4-27.1-3.1-33.8-5.2-1.1-.3-4.9-1.4-8.5-2.4-13.6-3.7-27.7-8.8-43.5-15.9-14.5-6.5-37.6-18.8-42.8-22.8-1.1-.8-4.9-3.5-8.7-6.1-9.6-6.7-22.7-18.7-25-22.9-.6-1.1-1.4-2.5-1.9-3.2-4.6-7-7.3-17.2-7.3-26.8.2-25.3 21.9-40.2 65.2-44.8 14.5-1.5 35.6-2 52.5-1.1 16.8.9 45.9 3.1 55 4.2 15.5 1.9 52.8 9.8 68.3 14.7 3.5 1.1 6.5 1.9 6.8 1.9.8 0 15.5 5 23.9 8.1 4.4 1.6 8.8 3.3 9.8 3.6 7.1 2.6 25.2 11 35.2 16.3 49 26 81.1 57.7 91.1 90.1 3.3 10.8 3.8 25.2 1.1 34.5-3.3 11.1-12 25-21.3 33.8-14.2 13.4-37.5 26-64.4 34.8-17.4 5.7-20.6 6.6-36.5 10.2-25.4 5.6-49 8.9-75 10.3-16.2.8-49.9 1-66.5.4zM111.9 289.8l-2.9-2.2 3.3 1.9c1.7 1.1 3.2 2.1 3.2 2.2 0 .5-.8.1-3.6-1.9zM52.3 290.2c-8.1-1.3-17.2-4.6-22.3-8-4.9-3.3-8.1-8.8-6.9-12.2 2.8-7.7 14-13.9 29.4-16.2 9.9-1.5 9.4-1.1 5.2-5.3-4.7-4.7-5.4-5.5-4.9-5.5.2 0 2.1 1.7 4.2 3.8 7.8 7.8 24.4 21.5 36.2 29.7 11 7.6 14.1 10.2 11.4 9-.5-.2-3.5.5-6.7 1.6-3.3 1.1-8.8 2.4-12.4 2.9-8 1.4-25.4 1.4-33.2.2z"/>
    <path class="st1" d="M412.2 286.1c-.3-.1-3.7-.4-7.8-.6-8.6-.3-14.6-.7-20.9-1.3-2.5-.3-5.6-.5-7-.7-1.4-.1-8.8-1-16.5-2s-14.9-1.9-16-2c-9.1-1.2-13.1-1.9-14-2.4-.5-.3-1.9-.6-3.2-.6-1.3 0-3.1-.3-4.1-.6-.9-.4-6.2-1.6-11.7-2.7-5.5-1.2-11.3-2.5-13-3-1.6-.5-5.5-1.5-8.5-2.4-7.8-2.1-25.8-8.1-30.8-10.2-2.4-1-6-2.4-8.2-3.1-2.1-.7-4.4-1.8-5.1-2.3-.6-.5-1.7-.9-2.3-.9-.7 0-2.3-.7-3.6-1.7s-2.7-1.7-3.2-1.7c-.8 0-14.1-7-22.1-11.5-11.7-6.8-40.7-26.8-49.4-34.2-2.3-1.9-5.1-4.3-6.2-5.2-6.4-5.2-8.1-6.6-8.1-7 0-.2-2.5-2.6-5.5-5.4-3-2.7-5.5-5-5.5-5.2s-2-2.5-4.4-5.3c-10-11.2-17.8-23.3-22.2-34.8-3.4-8.9-3.6-10-3.6-20-.1-8.6 1.3-15.5 3.8-19.2.8-1.1 1.4-2.5 1.4-2.9 0-1.5 7.8-11.3 12.1-15.1 2.4-2.1 4.9-4.4 5.4-5 .9-.9 7.6-5.2 19.7-12.6 2-1.1 3.9-2.1 4.3-2.1.3 0 2.1-.7 3.8-1.6 2.9-1.4 10.7-4.6 27.7-11.1 3.6-1.4 7.9-2.7 9.5-2.9 2.7-.4 16-3.6 21-5 1.1-.3 5.8-1.3 10.5-2.1s9.2-1.7 10.1-2c.9-.3 3.4-.7 5.5-.9 2.2-.1 7.3-.8 11.4-1.3 9.3-1.3 11.2-1.5 17.5-2 2.8-.1 6.6-.5 8.5-.7 4.5-.6 6.4-.7 32-1.4 27.8-.7 40.4-.5 62.5.8 9.9.6 19.8 1.2 22 1.3 2.2.1 5.1.3 6.5.6 1.4.2 5 .5 8 .8 6 .3 6.7.5 12 1.1 1.9.3 4.9.6 6.5.8 1.7.1 7.5.9 13 1.7 5.5.7 10.9 1.5 12 1.5 1.1.1 3.9.6 6.1 1 2.3.5 5.4.9 7 1.1 6 .7 17 2.4 18.9 3 1.1.3 7.2 1.5 13.5 2.7 13.4 2.4 51.7 10.8 57.5 12.6 2.2.7 5.1 1.5 6.5 1.7 2.8.5 4 .9 12.2 3.3 3.1.9 6.1 1.7 6.7 1.7.5 0 2.2.4 3.8.9 1.5.5 5.3 1.7 8.3 2.7 12.7 3.8 17 5.4 15.4 5.6-.9.1-2.6-.1-3.8-.5-2.7-.9-25.3-5.4-27.2-5.4-.8 0-2.2-.3-3.2-.7-1.9-.7-34.1-7-43.7-8.4-3.3-.5-13.6-2.3-23-4-9.3-1.7-18.3-3.1-20-3.3-1.6-.2-5.7-.8-9-1.3-7.3-1.3-33.7-5-38.5-5.4-1.9-.1-8.7-.9-15-1.7-10.2-1.2-44.2-4-49.5-4-1.1 0-10.1-.4-20-.8-18.9-.9-52.2-.5-69.5.7-5.2.4-12 .9-15 1-3 .2-10.7.9-17 1.7-6.3.7-13 1.5-14.9 1.7-1.9.1-4.2.6-5.3 1-1 .3-2.3.5-2.8.3s-1.2 0-1.5.4c-.4.3-1.3.5-2.1.3-.7-.2-1.6-.1-1.9.3-.4.4-1.7.7-3.1.7-1.3 0-3.2.3-4.2.6-.9.3-3.7.9-6.2 1.4-6.3 1.1-30.1 9-35.5 11.8-2.5 1.3-4.7 2.3-5 2.3s-1.4.5-2.4 1.1c-1.1.7-3.9 2.3-6.2 3.5-8.8 4.9-15 9.8-22.7 17.7-3.1 3.3-8.3 11.2-10.2 15.8-2.6 6-3.5 18.7-1.9 25.7 1.2 5.3 4.5 14.7 5.9 16.7.4.7 1.1 2.3 1.5 3.3.4 1.1 1.2 2.9 2 4 .7 1.1 2.1 3.5 3 5.4 2.4 4.5 16.2 22.4 18.6 24.2 1 .7 1.9 1.7 1.9 2.1 0 .3.9 1.2 2 1.9s2 1.6 2 2.1c0 .4 1.1 1.5 2.5 2.3 1.3.9 2.5 1.8 2.5 2.1s.8 1.1 1.8 1.7c.9.7 2.7 2.1 3.9 3.1 6.2 5.3 8.7 7.1 20.4 14.9 12.8 8.6 22.8 14.7 25.7 15.7 1 .3 2.2.9 2.7 1.3 1.7 1.3 13.3 7.1 14.3 7.1.5 0 1.7.6 2.7 1.3 2 1.5 16.8 8 25.5 11.3 11.8 4.4 34.9 12 43 14.1 4.7 1.2 9.9 2.6 11.6 3.1 5.9 1.7 21.2 5 23.2 5 1.2 0 2.3.3 2.6.6.3.3 2.6.7 5.2 1 2.6.2 5.2.7 5.8 1 1.2.7 22.9 3.9 28.7 4.3 2 .1 4 .5 4.5.7.6.2 3.7.5 6.9.8 3.3.2 7.6.5 9.5.7 1.9.1 5.1.4 7 .5 1.9.2 8 .7 13.5 1.1 6 .5 22.1.9 40.2.9 16.6.1 29.9.2 29.6.4-.2.2-1.4.4-2.6.5-1.2 0-5.1.3-8.7.5s-8.5.5-11 .7c-5.9.7-66.9 1.2-67.3.9z"/>
    <path class="st1" d="M438 280.4c-32.3-2.4-54.7-5.2-84-10.6-5.3-.9-24.9-5.4-28.2-6.4-1.7-.5-3.6-.9-4.2-.9s-1.9-.3-2.9-.6c-.9-.3-2.8-.9-4.2-1.3-11.4-3.1-28.1-8.6-36.5-11.8-3.3-1.3-6.7-2.5-7.5-2.8s-2.9-1.2-4.6-2.1c-1.7-.9-3.4-1.5-3.9-1.5-1.4 0-22-10.4-32.1-16.2-9.8-5.7-21.5-13.8-30.6-21.4-4.4-3.7-13.7-12.7-15.1-14.7-.4-.5-2.1-2.5-3.8-4.4-2.8-3.1-5.1-6.4-10.3-14.1-4.5-6.6-11.1-20.6-14-29.8-5.5-17-4.6-36 2.1-46.2 1.1-1.7 2.3-3.6 2.7-4.3 3.1-5.8 19.2-17.5 31.3-22.8 7.7-3.3 23.5-8.4 30.8-10 2.8-.6 5.9-1.4 7-1.7 1.1-.4 4.5-1.1 7.5-1.7 3-.5 6.9-1.3 8.5-1.6 17.3-3.5 49.2-7.4 69.9-8.4 10.6-.5 57.1-.5 67.1-.1 3.9.2 11.3.7 16.5 1.1 5.2.3 12.2.8 15.5 1.1 5.5.3 8.6.6 15.5 1.3 1.4.1 4.7.4 7.5.7 8.1.7 38.2 4.6 59 7.7 8.7 1.3 48.2 8 55 9.4 1.7.3 5.7 1.1 9 1.7s7.5 1.4 9.3 1.7c8.2 1.5 10.4 2 13.8 2.5 2 .3 4.8.9 6.2 1.3 1.5.3 4.7 1 7.2 1.5s5.4 1.1 6.5 1.4 3.8.9 6 1.2c4 .7 8.9 1.5 13.3 2.4 3.3.7 2.7.1-1.8-1.9-2.3-1-4.6-1.6-5.2-1.3-.6.3-.8.2-.5-.3.6-.6-1.9-1.8-11.8-5.6-9-3.4-42.6-13.9-44.5-13.9-.6 0-1.8-.3-2.8-.6-.9-.3-2.8-.9-4.2-1.2-1.4-.4-3.6-1-5-1.4-1.4-.3-5-1.3-8-2s-9.1-2.2-13.5-3.3c-4.4-1.1-10.7-2.5-14-3.1-3.3-.7-8.5-1.7-11.5-2.3-7.1-1.5-15-3-32.5-6-6-1.1-15-2.4-20-3.1-4.9-.7-10.3-1.6-11.8-2l-2.9-.8 3.4-1.9c6.6-3.8 11.2-4.7 23.3-4.6 12.5 0 20.1 1.2 37.7 5.8l10.8 2.7 4.4-2.7c10.1-6.3 21.6-8.4 41.6-8 16.6.4 26.5 2.1 42.8 7.6C615 36 627.7 45 630 53.2l.7 2.4 7.2.4c4 .3 10.3 1.1 14.1 1.9 5.7 1.1 7.9 2 11.7 4.6 5.6 3.9 6.9 7.5 4.6 12.4-.9 1.7-1.2 3-.8 3s3.2-.6 6.3-1.3c18.5-4.3 44.7-5.7 58.4-3.2 13.6 2.4 23.8 7.4 28.5 13.7 1.9 2.5 2.3 4.2 2.2 8.8 0 6.4-1.7 9.6-7.8 14.9-2.9 2.5-3.6 3.8-3.6 6 0 4.6-3.6 13-8 18.3-3.5 4.4-3.8 5-2.2 5.4 20.2 4.8 34.6 10.6 47.8 19.1 25.3 16.3 33.9 38.6 22.3 58.3-1.5 2.5-1.7 3.6-.8 4.6.6.8.9 1.5.7 1.6s-2.7-2.8-5.6-6.6c-2.9-3.8-6.4-8-7.7-9.5s-2.7-3.1-3.1-3.7c-.4-.5-1.5-1.7-2.5-2.7-2.1-2.1-12.7-12.7-15.8-15.9-1.3-1.4-3.8-3.5-5.5-4.9s-4.2-3.3-5.6-4.6c-11.9-10.3-34.3-25.6-48.6-33.2-2-1.1-5-2.7-6.5-3.7-1.6-.9-4.9-2.7-7.4-4s-6-3.1-7.8-4.1c-1.7-.9-4.8-2.5-6.8-3.3-2-.9-7.8-3.5-12.8-5.8s-9.4-4.2-9.6-4.2c-.3 0-3.1-1.1-6.2-2.5-7.6-3.3-9.2-4-12.8-5.3-1.6-.5-5.1-1.9-7.7-2.8-9.8-3.8-34.3-12.2-35.5-12.2-.6 0-3.1-.7-5.5-1.4-4.4-1.5-7.1-2.3-14.3-4.3-6.5-1.8-7.8-2.1-11.7-3.3-2-.6-4.3-1.1-5.1-1.1-.9 0-1.8-.3-2.1-.6-.3-.3-1.6-.7-2.8-.9-1.3-.2-11.1-2.3-21.8-4.8s-21-4.8-22.7-5.1c-1.8-.3-4.8-.9-6.5-1.2-3.7-.7-26.1-4.4-32.3-5.4-6.3-1-24.4-3.4-30.5-4.1-3-.3-6.8-.8-8.5-1-1.6-.2-3.9-.4-5-.5s-3.1-.4-4.5-.6c-1.4-.3-4.7-.6-7.5-.8-2.7-.2-6.6-.5-8.5-.7s-5.4-.5-7.8-.7c-2.3-.2-6.3-.5-9-.7-2.6-.2-7.2-.5-10.2-.7s-7.7-.5-10.5-.7c-12-.7-51.7-.9-60.5-.3-5.2.4-11.5.9-14 1-16.2 1-41.6 5-54.5 8.4-3 .8-20.7 6.6-23 7.6-13.8 5.5-29.1 16.6-34.8 25.2-5.8 8.8-7.7 16.2-7.2 28.8.2 6.1.6 11.8.8 12.7 5.1 18.6 10.7 29.9 22.3 45.2 11.7 15.5 23.5 26 43 38.5 11 7 30 16.9 40 20.9 3.1 1.2 6.8 2.7 8.3 3.3 2.4 1 7 2.7 17.6 6.4 2.2.8 7.2 2.4 11 3.5 3.9 1.1 8.2 2.5 9.7 3 1.4.5 3.1.9 3.8.9.7 0 2.7.5 4.6 1 9.4 2.7 14.1 3.9 28.9 6.7 2.8.5 7.3 1.3 10 1.9 15.2 3 53.1 7.8 61.1 7.8 4.5 0 9.4.7 9.4 1.4 0 .9-4.5.9-15.5 0zM50.3 240.9c-2.2-2.3-4.2-5-3.1-4.2 1.4 1 5.5 5.7 5 5.7-.3 0-1.1-.7-1.9-1.5z"/>
  </g>
  <g id="layer103">
    <path class="st2" d="M462 415.4c-33.5-1.3-58.6-3.3-84.1-6.4-20-2.4-24.4-3.5-12.4-2.9 102.5 4.1 214.4-7.4 291.9-29.9 47.1-13.7 72.4-26.3 91.5-45.3 5.9-5.9 13.6-16.2 13.6-18.2 0-.3 1.7-2.9 3.8-5.8l3.7-5.2-.1-15.7c-.1-16.6-1-22-6-35.6-18-48.8-81.6-100.9-163.6-133.9-23.7-9.6-53.2-19.2-72.5-23.6-4.3-1-8.5-2.1-9.4-2.3-2.9-1.1-31.4-6.8-44.9-9-50-8.4-104.6-11.9-137.7-8.8-50.8 4.7-80.9 13.3-98.4 27.9-7.2 6.1-10 9.6-13.8 17.1-9.4 19-4.8 40.9 13.9 65.9 18 24 47.2 44.4 88.2 61.5 34.4 14.3 74.4 24.8 120.1 31.3 4.2.7 7.7 1.3 7.7 1.6 0 .7-11.6-.3-25.5-2-16.8-2.1-47.7-8.1-60-11.7-1.6-.5-6.6-1.9-11-3.1-11.4-3.1-36.4-11.7-47.5-16.3-53.3-22.2-91-55.7-102.1-90.9-1.8-5.4-2.2-9.2-2.3-18.6-.1-15.4 2.3-22.7 11-34.2 15-19.6 44.2-31.3 93.4-37.6 11.7-1.4 14.9-1.5 48.5-1.5 43.9 0 68.1 1.5 108 6.7 91.7 11.9 176.8 39.4 242 78 50.6 30 87.4 67.9 101.1 104 7.2 19.2 4.2 39.8-9.1 61.7-9.8 16.2-24 31.2-39.7 42.3-48.8 34-121.2 53.5-220.8 59.6-15.8.6-65 1.4-77.5.9z"/>
    <path class="st2" d="M734 389.9c.6-.3 4.8-2.4 9.5-4.6 27.9-12.8 47.1-26.1 64.7-44.9 2.7-2.9 11.4-14.5 12.8-17.2 4.7-8.8 8.5-16.7 9.6-20.3 1.5-4.7 1.8-23.4.5-31.7l-.8-5.6 4.3 1.6c5.9 2.2 14.2 7.8 16.9 11.3 4.7 6.2 3.6 14.3-2.7 19.8l-3.3 2.9 3.9 3.4c7.2 6.4 8.9 13.5 4.9 20.5-4 7.4-20.5 16.1-33.5 17.9-3.2.4-3.3.5-3.3 3.7 0 12.1-11 24.3-28.8 32.1-12.5 5.5-26.6 8.6-44.2 9.7-4.1.3-8.4.7-9.5 1.1-1.1.6-1.5.6-1 .3zM752 276.6c-1.4-14.2-7.1-31.3-13.9-41.9-10.1-15.7-18.7-26.2-31.3-38.5C679 169 635 140.4 590.5 120.5c-5.2-2.3-10.7-4.7-12.2-5.4-1.5-.8-3-1.3-3.3-1.3s-2.2-.7-4.3-1.6c-4.7-1.9-35.3-10.8-51.7-15C481.9 87.8 439.8 81 405.8 79c-19.5-1.2-54.6-.5-69.7 1.3-26 3.1-44.5 7.8-63 16-15.9 7-27.2 15.2-34.2 24.9-8.6 12-8.3 24.1 1.2 42.9 4.9 9.7 6 11.4 7.3 11.4.9 0 5.5-10.1 6.7-14.4.3-1.5.6-7.8.5-14-.1-12.3.9-16.5 5.4-22.1 8.2-10.3 24.6-18 47-21.8 28.6-4.8 61.5-5.6 103.5-2.3 33.8 2.6 68.5 8.1 100 15.9 13.7 3.3 42.7 12.4 51.5 16.2 2.2.8 4.9 1.9 6 2.3 2.4.8 3.4 1.2 16 6.8 38.3 17 70.6 38.5 95.7 63.9 12.9 13.1 17.5 18.7 26.1 31.8 2.8 4.3 8.4 15.7 10.3 21.1 2.9 8.3 2.6 22.5-.9 32.3-1.4 4.1-3.2 8.5-4 9.7s-2.5 3.9-3.7 5.9c-7.2 11.9-26.4 28-45.5 38.2-15.1 8.1-24.3 12-44.3 18.8-1.9.7-3.6 1.2-4.9 1.7-.5.5-.2 1.5.3 2.5.1.2.2.3.3.5.5.9 1.1 1.7 1.4 2.2.7 1.1 1.4 2.3 2.2 3.4l.3.3c1.2 1.5 2.6 2.5 4.6 2.6 2.4-.6 6.6-1.7 13.3-3.4 55.2-15.6 93.5-35.1 107-54.8 6.4-9.5 11.1-29.3 9.8-42.2z"/>
    <path class="st2" d="M419.5 371.9c-1.9-.1-10.9-.7-20-1.3-9.1-.5-20.5-1.6-25.5-2.3-24.9-3.5-30-4.3-41.7-6.4-27-4.9-65.5-14.7-84.8-21.6-1.9-.7-8-2.9-13.5-4.8-74.5-26.6-142.3-68.5-184.7-114-19.7-21.2-35-48.1-33.6-59.1l.3-2.5 8 7c37.5 32.7 68.8 56.1 98 73 16.1 9.2 30.5 17.1 34.1 18.6 3.1 1.2 24.8 10.7 29.9 13.1 7.5 3.5 40.4 14.7 58.2 19.8 30.6 8.7 49 13.1 74.8 17.5 45.6 7.8 76.1 10.9 118.3 12 59.8 1.5 121.8-3.8 160.3-13.9 47.4-12.4 65.3-38 48.7-69.6-20.6-39.2-87.6-76.2-173.3-95.7-26.4-6-64.9-11.7-86.5-12.6-19.6-.9-44.6 1.7-58.7 6-19.2 6-26.3 13.9-24.9 28.1 3.7 40.3 58.8 77.9 139 94.9 12.3 2.6 9.9 3.3-4.5 1.2-21.6-3.1-48.2-11.2-72.6-22-18.1-8.1-28.4-13.7-42.7-22.8-31.9-20.6-43.6-36.4-43.6-58.9 0-25.9 20.8-40.2 65.5-45.3 26.1-2.9 88.7-.1 121 5.5 49.2 8.5 94.5 23.4 132.5 43.7 12.9 6.9 34.5 21.2 44.3 29.3 30.8 25.6 46.9 52.4 47.1 78.4 0 10.6-1.3 16.7-5.6 25.8-15.7 33.2-61.1 57.9-131.6 71.4-32.1 6.2-50.7 7.7-95.7 8-18.1-.3-34.6-.4-36.5-.5z"/>
    <path class="st2" d="M627.4 229.9C614 214.5 586.5 194 561 180.3c-10.2-5.5-35.6-17.5-37-17.5-.2 0-3.8-1.3-7.8-2.9-48.8-19.3-121-30.2-160.7-24.2-16.4 2.5-29.6 8.4-35.1 15.8-.1.3-.3.7-.3 1-.3 1.6.4 3 1 4.5.7.8 1.4 2 2.4 4 4.5 9.5 11.8 17.8 22.5 25.6l4.5 3.3.1-3.8c0-7.8 5.7-14.7 15.5-18.7 16.8-6.9 50.7-6.3 86 1.5 29.9 6.7 56.7 18.1 79.1 33.6 20.6 14.4 33.2 28.2 39 42.7l2.2 5.7 8.8.2c5.6 0 12.1-.4 17.7-1.1l8.7-1.2v3.3c.1 1.8.7 4.5 1.4 5.8l1.3 2.4-13.6.1c-7.5 0-16 .4-19 .9-4.9.8-5.5 1-7 3.5-2.5 4.2-5.7 6.8-12.4 9.9-23.5 11.1-65 17.8-118.3 19l-19.1.5-1.2 2.1c-1.4 2.7-1.4 9.5 0 12.3.8 1.5 1.7 2 3.7 2.1 1.5.1 8.1.3 14.7.6 27.6 1 55.3.4 83-1.7 50.4-4.4 85.4-13.1 103.7-25.9 6.7-4.7 9.5-7.8 12.5-13.6 5.6-11.4 1.9-26.8-9.9-40.2zM353 304c-17-2.4-34.5-5.4-47.5-8.2-10.3-2.2-10.5-2.3-10.8-4.4-.2-1.2-.4-2.1-.5-2.1s-2.5.4-5.4.9c-5.2.9-5.2.9-16.5-2.1-11.2-2.9-13.9-3.8-25-7.2-3.1-.9-6.9-2.1-8.3-2.4-3.3-.8-4.7-3.5-4.3-7.8l.3-3.4-8.8-.5c-30.3-1.4-48.2-9.4-41.2-18.4 1.4-1.9 9.8-6.1 12.1-6.1.7 0 2.5.7 4.1 1.5 4 2.3 24.6 11.8 31.8 14.7 34.1 13.9 82.4 25.7 125 30.7 17.1 2 15.9 1.5 15.2 5.7-.5 3.3-2.9 7.4-5.9 9.8-1.2 1-2.4.9-14.3-.7z"/>
    <path class="st2" d="M413 285.9c-69.6-3.1-127.6-15.3-172.8-36.4-44.6-20.8-91.4-56.3-113-85.7-7.8-10.6-10.9-16.1-14.2-24.6-11.4-30.2 1.9-55.5 39.6-75 11.1-5.8 39.1-16.9 44.4-17.7 1.7-.2 7.1-1.4 12-2.7 36.3-9 75.7-13.2 125-13.1 63.4 0 130 7.9 199.7 23.6 30.4 6.8 82.5 21.4 78.4 21.9-1 .1-2.8-.1-4-.5-4.6-1.5-58-11.9-90.6-17.4C454.8 47.5 411.1 42.6 360 40.7c-50.1-1.9-104.8 1.7-140.5 9.1-10.4 2.2-31.1 8.8-40.5 13.1-29.6 13.3-46.7 31.9-48.2 52.6-1.5 20.1 12.5 48.1 35.8 71.3 29.3 29.3 83.6 58.5 138.9 74.7 52.6 15.5 116.9 23.4 177.9 22 10.7-.3 19.2-.3 18.9-.1-.3.2-7 .8-14.9 1.3-17.8 1.5-57 1.9-74.4 1.2z"/>
    <path class="st2" d="M370 272.5c-22-3.8-45.3-9.1-62.5-14.2-9.2-2.8-23-7.6-23-8 0-.3 1.6-1.3 3.6-2.3l3.6-1.8 3.2 1.2c7.5 3 32.9 11.5 41.4 13.9 10.7 2.9 39.9 9.4 48.5 10.6 5.9.9 6.5 1.2 4.5 2.5-1.6 1-2.3 1-19.3-1.9zM391.6 263c-12.6-3.1-42.7-14.6-60-22.8-3.8-1.8-4.1-2.1-2.6-2.7 3.1-1.1 22.1-.1 25.3 1.3 4 1.9 9 3.7 25.9 9.4 15.1 5.2 15.2 5.2 16.8 8.2 1.6 3.1 2.1 8.2.8 8-.5-.1-3.2-.7-6.2-1.4zM507.6 253.9c-1.1-.5-.9-1.1 1.2-2.9 3.9-3.4 6.7-9.9 6.7-15.3 0-6.4-2.9-12.1-8.9-17.9-20-19-66.4-34.4-103.6-34.4-17.8 0-28.7 2.8-36 9.2l-3.4 3-.8-1.9c-.4-1-.7-4-.7-6.6.1-5.1 2.9-10 7.6-12.9 4.4-2.7 14.8-5.4 24.3-6.3 10.8-.9 31.3-.4 42.3 1.1 27.4 3.8 61.4 17.2 82.8 32.6 8.9 6.4 14.4 11.7 19.9 19.1 5.7 7.7 8.5 14.8 8.5 21.9 0 6.7-1.3 9.6-4.9 10.5-3.5 1-33.2 1.6-35 .8z"/>
    <path class="st2" d="M483.8 244.8l-5-3.5 4.2-2.5c5-2.9 7.5-7 7.5-12.2 0-3.9-3-12.5-5.5-15.7-2.9-3.8-.8-2.9 4 1.8 9.7 9.2 13.5 19.4 10.2 27.1-1.7 3.7-6.8 8.6-9.1 8.6-.7 0-3.5-1.6-6.3-3.6z"/>
    <path class="st2" d="M804.1 215.2c-24-31.5-61.1-60.1-107.9-83.6-9.3-4.7-29.1-13.7-37.2-17-1.1-.5-5.1-2.1-9-3.6-3.8-1.6-13.1-5-20.5-7.5-7.4-2.6-14.2-5.1-15-5.6s-3.9-1.5-6.9-2.3c-3-.7-7.3-2-9.6-2.7s-6.6-1.9-9.6-2.7c-3-.7-6.7-1.8-8.4-2.3-1.6-.5-6.8-1.8-11.5-3-4.7-1.1-11.9-2.9-16-4-41.2-10.4-103.4-19.6-162-23.9-12.4-.9-24.4-1.1-48.5-1.1-28 0-33.8.2-46.5 1.5-26.3 2.7-42 5.8-59.4 11.6-27.8 9.2-44.2 21.5-50.8 38-2.6 6.5-3.6 23-1.8 31.7 3.9 19 15.9 41.1 31.8 58.2 1.3 1.4 2.2 2.9 1.9 3.4-.7 1.1-12.7 5.8-14.8 5.8-3.7-.1-26.5-24.8-32.7-35.6-.8-1.3-1.8-2.9-2.3-3.6-4.7-7.1-11.2-24.2-13.4-35.4-2.5-13.2-1.6-22.7 3.1-32.6 7.6-15.9 22.9-26.8 50.1-35.5 13.6-4.4 12.8-4.2 25-7 22.7-5.2 50.6-9 79.3-10.8 22.6-1.5 73.2-.9 97 1 38.1 3.1 72 7.4 112.5 14.2 24.4 4.2 81.3 14.9 84.3 15.9 1 .3 3.4.7 5.4 1s6.5 1.1 9.8 1.8c3.4.7 6.4 1.2 6.7 1 .4-.3-9.7-5.1-12.7-6-.8-.3-3.3-1.3-5.5-2.1-4-1.7-37.9-13.1-39-13.1-.3 0-4.9-1.3-10.2-2.7-31.1-8.9-77.6-18.5-118.6-24.4l-7.9-1.1 2.3-1.6c1.3-.9 4.8-2.5 7.8-3.5 5.1-1.7 6.6-1.8 16.6-1.7 12.5 0 20.1 1.2 37.7 5.8l10.8 2.7 4.4-2.7c10.1-6.3 21.6-8.4 41.6-8 16.6.4 26.5 2.1 42.8 7.6 17.7 5.9 30.4 14.9 32.7 23.1l.7 2.4 7.2.4c4 .3 10.3 1.1 14.1 1.9 5.7 1.1 7.9 2 11.7 4.6 5.6 3.9 6.9 7.5 4.6 12.4-.9 1.7-1.2 3-.8 3s3.2-.6 6.3-1.3c18.5-4.3 44.7-5.7 58.4-3.2 13.6 2.4 23.8 7.4 28.5 13.7 1.9 2.5 2.3 4.2 2.2 8.8 0 6.4-1.7 9.6-7.8 14.9-2.9 2.5-3.6 3.8-3.6 6 0 4.6-3.6 13-8 18.3-3.5 4.4-3.8 5-2.2 5.4 20.2 4.8 34.6 10.6 47.8 19.1 25.3 16.3 33.9 38.6 22.3 58.3-1.5 2.5-1.7 3.6-.8 4.6.6.8.9 1.5.7 1.6s-3.4-3.5-7.2-8.5zM138.5 208.8c-14.1-3.3-24.9-7.8-35-14.6-17-11.5-26-26.1-26-42.6 0-6.7 2.2-16.7 3.9-17.9.5-.3 1.8 1.3 3.1 3.7s3.1 5.4 4 6.9 2.3 3.7 3.1 5c2.1 3.5 9.4 13.3 13.3 17.8 1.9 2.2 4.2 5 5.2 6.3 3.4 4.4 23.1 23.9 30.7 30.4 8.5 7.1 8.3 7.5-2.3 5zM68.3 117.9c-2.6-.7-5.9-1.9-7.4-2.7-1.4-.7-2.9-1.3-3.3-1.1-.3.1-2.1-1.1-4-2.7-14-12.3-10.2-30 8.3-37.8 3.8-1.6 5.3-2.7 4.9-3.3-.3-.5-.7-4.6-1-9-.9-15.8 5.8-27.9 21.3-38.2 11.4-7.6 24-11.9 39-13.3 10.7-1 23.5 0 32.5 2.4l6.2 1.7 5.2-3.5C180 3.8 191.3.6 204.5.6c15.7.1 29.4 4.8 39.4 13.7 3.7 3.3 8.6 9.2 8.6 10.3 0 .3-7.2 1.1-16 1.7-77.9 5.4-130.1 21.8-151.2 47.3-8 9.7-11.8 23.7-9.9 36.6.6 4 1.1 7.6 1.1 8.1 0 1.2-2.6 1-8.2-.4z"/>
  </g>
  <g id="layer104">
    <path class="st3" d="M447.5 414.7c-24-1.1-47.1-2.9-69.6-5.7-22.4-2.7-24.1-3.3-6.9-2.7 23.1.8 72.4.4 95-.8 65.8-3.4 135.2-13.7 185-27.5 44.7-12.3 70.7-23.9 90.3-40.2 12-10 14-12.4 26.8-33.6 2.5-4.1 2.5-4.3 2-20.4-.2-9-.9-17.9-1.6-20-.6-2-1.6-5.4-2.2-7.4-2.6-8.8-10.5-24.3-17.5-34.2-16.4-23.3-38.1-43.5-69.3-64.3-19.1-12.9-29.6-18.9-46.5-27.1-57.9-28.1-116.8-44.7-192-54.3-26.4-3.3-61.9-5.7-82-5.4-31.2.5-70.6 6.4-92.7 13.9-11.8 4-15.7 5.8-22.5 10.4-17.6 12.2-25.7 26.7-25 44.7.4 9.2 2.1 14.6 7.9 26.2 16.2 32.1 48.5 57.5 100.8 79.4 8.6 3.6 33.2 12.2 40.5 14.2 2.2.6 6.9 1.9 10.5 2.9 11 3 28 6.8 42.1 9.3 7.4 1.3 14.8 2.7 16.5 3.1s3.8.7 4.7.7c3 0 11.7 1.5 11.7 1.9 0 1-20.4-1.1-40-4.2-32.1-5-70.5-15.6-101.3-27.9-54.1-21.6-93.5-56.2-104.8-91.9-1.8-5.4-2.2-9.2-2.3-18.6-.1-15.5 2.3-22.7 11.1-34.3C222 93.3 230.1 87 241 81.5c19.8-10 45-15.9 80-19 10.8-.9 18.4-1 45-.7 18.2.3 37.4.9 44.5 1.4 6.9.5 16.8 1.3 22 1.7C485.1 69.1 553.9 83 602 99.2c67.6 22.7 121.9 52.3 159.6 86.6 28 25.6 48.1 56.5 50.8 77.9.9 6.7-.2 21-1.8 24.4-.5 1.1-1.3 3.4-1.6 5.1-1.4 5.8-8.7 19.2-16 29.1-10.4 14.2-19.3 22.9-32.7 32.2-48.6 33.9-122 53.7-220.8 59.7-23.8 1.4-66.7 1.7-92 .5z"/>
    <path class="st3" d="M734 389.9c.6-.3 4.8-2.4 9.5-4.6 27.9-12.8 47.1-26.1 64.7-44.9 2.7-2.9 11.4-14.5 12.8-17.2 4.7-8.8 8.5-16.7 9.6-20.3 1.5-4.7 1.8-23.4.5-31.7l-.8-5.6 4.3 1.6c5.9 2.2 14.2 7.8 16.9 11.3 4.7 6.2 3.6 14.3-2.7 19.8l-3.3 2.9 3.9 3.4c7.2 6.4 8.9 13.5 4.9 20.5-4 7.4-20.5 16.1-33.5 17.9-3.2.4-3.3.5-3.3 3.7 0 12.1-11 24.3-28.8 32.1-12.5 5.5-26.6 8.6-44.2 9.7-4.1.3-8.4.7-9.5 1.1-1.1.6-1.5.6-1 .3zM459.8 385.9c2-.1 5.4-.1 7.5 0 2 .1.3.3-3.8.3s-5.8-.2-3.7-.3zM752 276.6c-1.4-14.2-7.1-31.3-13.9-41.9-10.1-15.7-18.7-26.2-31.3-38.5C679 169 635 140.4 590.5 120.5c-5.2-2.3-10.7-4.7-12.2-5.4-1.5-.8-3-1.3-3.3-1.3s-2.2-.7-4.3-1.6c-4.7-1.9-35.3-10.8-51.7-15C481.9 87.8 439.8 81 405.8 79c-19.5-1.2-54.6-.5-69.7 1.3-26 3.1-44.5 7.8-63 16-15.9 7-27.2 15.2-34.2 24.9-8.6 12-8.3 24.1 1.2 42.9 4.9 9.7 6 11.4 7.3 11.4.9 0 5.5-10.1 6.7-14.4.3-1.5.6-7.8.5-14-.1-12.3.9-16.5 5.4-22.1 8.2-10.3 24.6-18 47-21.8 28.6-4.8 61.5-5.6 103.5-2.3 33.8 2.6 68.5 8.1 100 15.9 13.7 3.3 42.7 12.4 51.5 16.2 2.2.8 4.9 1.9 6 2.3 2.4.8 3.4 1.2 16 6.8 38.3 17 70.6 38.5 95.7 63.9 12.9 13.1 17.5 18.7 26.1 31.8 2.8 4.3 8.4 15.7 10.3 21.1 2.9 8.3 2.6 22.5-.9 32.3-1.4 4.1-3.2 8.5-4 9.7s-2.5 3.9-3.7 5.9c-7.2 11.9-26.4 28-45.5 38.2-15.1 8.1-24.3 12-44.3 18.8-2.6.9-4.7 1.6-6.2 2.2 0 .2 0 .4.1.6.7.1 1.3.8 1.9 2.2.7 1.4 2.2 3.7 3.3 5.2 1.2 1.5 2 2.9 1.9 3.2-.4.8 2.8 0 16.3-3.6 55.2-15.6 93.5-35.1 107-54.8 6.6-9.5 11.3-29.3 10-42.2z"/>
    <path class="st3" d="M627.4 229.9C614 214.5 586.5 194 561 180.3c-10.2-5.5-35.6-17.5-37-17.5-.2 0-3.8-1.3-7.8-2.9-48.8-19.3-121-30.2-160.7-24.2-14.1 2.1-25.8 6.8-32.3 12.7 0 .1-.1.1-.1.2-4 3.5-1.9 7.5.1 11.3 1 1.9 1.8 3.8 2.6 5.8 4.5 7.6 11.1 14.5 20 21l4.5 3.3.1-3.8c0-7.8 5.7-14.7 15.5-18.7 16.8-6.9 50.7-6.3 86 1.5 29.9 6.7 56.7 18.1 79.1 33.6 20.6 14.4 33.2 28.2 39 42.7l2.2 5.7 8.8.2c5.6 0 12.1-.4 17.7-1.1l8.7-1.2v3.3c.1 1.8.7 4.5 1.4 5.8l1.3 2.4-13.6.1c-7.5 0-16 .4-19 .9-4.9.8-5.5 1-7 3.5-2.5 4.2-5.7 6.8-12.4 9.9-23.5 11.1-65 17.8-118.3 19l-19.1.5-1.2 2.1c-1.4 2.7-1.4 9.5 0 12.3.8 1.5 1.7 2 3.7 2.1 1.5.1 8.1.3 14.7.6 27.6 1 55.3.4 83-1.7 50.4-4.4 85.4-13.1 103.7-25.9 6.7-4.7 9.5-7.8 12.5-13.6 5.8-11.5 2.1-26.9-9.7-40.3zM353 304c-17-2.4-34.5-5.4-47.5-8.2-10.3-2.2-10.5-2.3-10.8-4.4-.2-1.2-.4-2.1-.5-2.1s-2.5.4-5.4.9c-5.2.9-5.2.9-16.5-2.1-11.2-2.9-13.9-3.8-25-7.2-3.1-.9-6.9-2.1-8.3-2.4-3.3-.8-4.7-3.5-4.3-7.8l.3-3.4-8.8-.5c-30.3-1.4-48.2-9.4-41.2-18.4 1.4-1.9 9.8-6.1 12.1-6.1.7 0 2.5.7 4.1 1.5 4 2.3 24.6 11.8 31.8 14.7 34.1 13.9 82.4 25.7 125 30.7 17.1 2 15.9 1.5 15.2 5.7-.5 3.3-2.9 7.4-5.9 9.8-1.2 1-2.4.9-14.3-.7z"/>
    <path class="st3" d="M413 285.9c-69.6-3.1-127.6-15.3-172.8-36.4-44.6-20.8-91.4-56.3-113-85.7-7.8-10.6-10.9-16.1-14.2-24.6-11.4-30.2 1.9-55.5 39.6-75 11.1-5.8 39.1-16.9 44.4-17.7 1.7-.2 7.1-1.4 12-2.7 36.3-9 75.7-13.2 125-13.1 63.4 0 130 7.9 199.7 23.6 30.4 6.8 82.5 21.4 78.4 21.9-1 .1-2.8-.1-4-.5-1.1-.4-8.8-2.1-17.1-3.7-82.4-16.4-140.9-25.3-192-29.2-66.6-5-134.2-2.4-179.5 7-10.4 2.2-31.1 8.8-40.5 13.1-29.6 13.3-46.7 31.9-48.2 52.6-1.5 20.1 12.5 48.1 35.8 71.3 29.3 29.3 83.6 58.5 138.9 74.7 52.6 15.5 116.9 23.4 177.9 22 10.7-.3 19.2-.3 18.9-.1-.3.2-7 .8-14.9 1.3-18.1 1.4-57.3 1.9-74.4 1.2z"/>
    <path class="st3" d="M370 272.5c-22-3.8-45.3-9.1-62.5-14.2-9.2-2.8-23-7.6-23-8 0-.3 1.6-1.3 3.6-2.3l3.6-1.8 3.2 1.2c7.5 3 32.9 11.5 41.4 13.9 10.7 2.9 39.9 9.4 48.5 10.6 5.9.9 6.5 1.2 4.5 2.5-1.6 1-2.3 1-19.3-1.9zM391.6 263c-12.6-3.1-42.7-14.6-60-22.8-3.8-1.8-4.1-2.1-2.6-2.7 3.1-1.1 22.1-.1 25.3 1.3 4 1.9 9 3.7 25.9 9.4 15.1 5.2 15.2 5.2 16.8 8.2 1.6 3.1 2.1 8.2.8 8-.5-.1-3.2-.7-6.2-1.4zM507.6 253.9c-1.1-.5-.9-1.1 1.2-2.9 3.9-3.4 6.7-9.9 6.7-15.3 0-6.4-2.9-12.1-8.9-17.9-20-19-66.4-34.4-103.6-34.4-17.8 0-28.7 2.8-36 9.2l-3.4 3-.8-1.9c-.4-1-.7-4-.7-6.6.1-5.1 2.9-10 7.6-12.9 4.4-2.7 14.8-5.4 24.3-6.3 10.8-.9 31.3-.4 42.3 1.1 27.4 3.8 61.4 17.2 82.8 32.6 8.9 6.4 14.4 11.7 19.9 19.1 5.7 7.7 8.5 14.8 8.5 21.9 0 6.7-1.3 9.6-4.9 10.5-3.5 1-33.2 1.6-35 .8z"/>
    <path class="st3" d="M483.8 244.8l-5-3.5 4.2-2.5c5-2.9 7.5-7 7.5-12.2 0-3.9-3-12.5-5.5-15.7-2.9-3.8-.8-2.9 4 1.8 9.7 9.2 13.5 19.4 10.2 27.1-1.7 3.7-6.8 8.6-9.1 8.6-.7 0-3.5-1.6-6.3-3.6z"/>
    <path class="st3" d="M804.1 215.2c-24-31.5-61.1-60.1-107.9-83.6-9.3-4.7-29.1-13.7-37.2-17-1.1-.5-5.1-2.1-9-3.6-3.8-1.6-13.1-5-20.5-7.5-7.4-2.6-14.2-5.1-15-5.6s-3.9-1.5-6.9-2.3c-3-.7-7.3-2-9.6-2.7s-6.6-1.9-9.6-2.7c-3-.7-6.7-1.8-8.4-2.3-1.6-.5-6.8-1.8-11.5-3-4.7-1.1-11.9-2.9-16-4-41.2-10.4-103.4-19.6-162-23.9-12.4-.9-24.4-1.1-48.5-1.1-28 0-33.8.2-46.5 1.5-26.3 2.7-42 5.8-59.4 11.6-27.8 9.2-44.2 21.5-50.8 38-2.6 6.5-3.6 23-1.8 31.7 3.9 19 15.9 41.1 31.8 58.2 1.3 1.4 2.2 2.9 1.9 3.4-.7 1.1-12.7 5.8-14.8 5.8-3.7-.1-26.5-24.8-32.7-35.6-.8-1.3-1.8-2.9-2.3-3.6-4.7-7.1-11.2-24.2-13.4-35.4-2.5-13.2-1.6-22.7 3.1-32.6 7.6-15.9 22.9-26.8 50.1-35.5 13.6-4.4 12.8-4.2 25-7 22.7-5.2 50.6-9 79.3-10.8 22.6-1.5 73.2-.9 97 1 38.1 3.1 72 7.4 112.5 14.2 24.4 4.2 81.3 14.9 84.3 15.9 1 .3 3.4.7 5.4 1s6.5 1.1 9.8 1.8c3.4.7 6.4 1.2 6.7 1 .4-.3-9.7-5.1-12.7-6-.8-.3-3.3-1.3-5.5-2.1-4-1.7-37.9-13.1-39-13.1-.3 0-4.9-1.3-10.2-2.7-31.1-8.9-77.6-18.5-118.6-24.4l-7.9-1.1 2.3-1.6c1.3-.9 4.8-2.5 7.8-3.5 5.1-1.7 6.6-1.8 16.6-1.7 12.5 0 20.1 1.2 37.7 5.8l10.8 2.7 4.4-2.7c10.1-6.3 21.6-8.4 41.6-8 16.6.4 26.5 2.1 42.8 7.6 17.7 5.9 30.4 14.9 32.7 23.1l.7 2.4 7.2.4c4 .3 10.3 1.1 14.1 1.9 5.7 1.1 7.9 2 11.7 4.6 5.6 3.9 6.9 7.5 4.6 12.4-.9 1.7-1.2 3-.8 3s3.2-.6 6.3-1.3c18.5-4.3 44.7-5.7 58.4-3.2 13.6 2.4 23.8 7.4 28.5 13.7 1.9 2.5 2.3 4.2 2.2 8.8 0 6.4-1.7 9.6-7.8 14.9-2.9 2.5-3.6 3.8-3.6 6 0 4.6-3.6 13-8 18.3-3.5 4.4-3.8 5-2.2 5.4 20.2 4.8 34.6 10.6 47.8 19.1 25.3 16.3 33.9 38.6 22.3 58.3-1.5 2.5-1.7 3.6-.8 4.6.6.8.9 1.5.7 1.6s-3.4-3.5-7.2-8.5zM138.5 208.8c-14.1-3.3-24.9-7.8-35-14.6-17-11.5-26-26.1-26-42.6 0-6.7 2.2-16.7 3.9-17.9.5-.3 1.8 1.3 3.1 3.7s3.1 5.4 4 6.9 2.3 3.7 3.1 5c2.1 3.5 9.4 13.3 13.3 17.8 1.9 2.2 4.2 5 5.2 6.3 3.4 4.4 23.1 23.9 30.7 30.4 8.5 7.1 8.3 7.5-2.3 5zM68.3 117.9c-2.6-.7-5.9-1.9-7.4-2.7-1.4-.7-2.9-1.3-3.3-1.1-.3.1-2.1-1.1-4-2.7-14-12.3-10.2-30 8.3-37.8 3.8-1.6 5.3-2.7 4.9-3.3-.3-.5-.7-4.6-1-9-.9-15.8 5.8-27.9 21.3-38.2 11.4-7.6 24-11.9 39-13.3 10.7-1 23.5 0 32.5 2.4l6.2 1.7 5.2-3.5C180 3.8 191.3.6 204.5.6c15.7.1 29.4 4.8 39.4 13.7 3.7 3.3 8.6 9.2 8.6 10.3 0 .3-7.2 1.1-16 1.7-77.9 5.4-130.1 21.8-151.2 47.3-8 9.7-11.8 23.7-9.9 36.6.6 4 1.1 7.6 1.1 8.1 0 1.2-2.6 1-8.2-.4zM279.8 23.6c.9-.1 2.5-.1 3.5 0 .9.2.1.3-1.8.3s-2.7-.1-1.7-.3zM332.3 23.6c1.2-.1 3-.1 4 0 .9.2-.1.3-2.3.3-2.2-.1-3-.2-1.7-.3z"/>
  </g>
  <g id="layer106">
    <linearGradient id="SVGID_1_" gradientUnits="userSpaceOnUse" x1="290.5437" y1="25.9009" x2="691.3404" y2="426.6976">
      <stop offset="1.5e-7" stop-color="#ffdc4b"/>
      <stop offset="1" stop-color="#ffcc0c"/>
    </linearGradient>
    <path d="M447.5 414.7c-24-1.1-47.1-2.9-69.6-5.7-22.4-2.7-24.1-3.3-6.9-2.7 23.1.8 72.4.4 95-.8 65.8-3.4 135.2-13.7 185-27.5 44.7-12.3 70.7-23.9 90.3-40.2 12-10 14-12.4 26.8-33.6 2.5-4.1 2.5-4.3 2-20.4-.2-9-.9-17.9-1.6-20-.6-2-1.6-5.4-2.2-7.4-2.6-8.8-10.5-24.3-17.5-34.2-16.4-23.3-38.1-43.5-69.3-64.3-19.1-12.9-29.6-18.9-46.5-27.1-57.9-28.1-116.8-44.7-192-54.3-26.4-3.3-61.9-5.7-82-5.4-31.2.5-70.6 6.4-92.7 13.9-11.8 4-15.7 5.8-22.5 10.4-17.6 12.2-25.7 26.7-25 44.7.4 9.2 2.1 14.6 7.9 26.2 16.2 32.1 48.5 57.5 100.8 79.4 8.6 3.6 33.2 12.2 40.5 14.2 2.2.6 6.9 1.9 10.5 2.9 11 3 28 6.8 42.1 9.3 7.4 1.3 14.8 2.7 16.5 3.1s3.8.7 4.7.7c3 0 11.7 1.5 11.7 1.9 0 1-20.4-1.1-40-4.2-32.1-5-70.5-15.6-101.3-27.9-54.1-21.6-93.5-56.2-104.8-91.9-1.8-5.4-2.2-9.2-2.3-18.6-.1-15.5 2.3-22.7 11.1-34.3C222 93.3 230.1 87 241 81.5c19.8-10 45-15.9 80-19 10.8-.9 18.4-1 45-.7 18.2.3 37.4.9 44.5 1.4 6.9.5 16.8 1.3 22 1.7C485.1 69.1 553.9 83 602 99.2c67.6 22.7 121.9 52.3 159.6 86.6 28 25.6 48.1 56.5 50.8 77.9.9 6.7-.2 21-1.8 24.4-.5 1.1-1.3 3.4-1.6 5.1-1.4 5.8-8.7 19.2-16 29.1-10.4 14.2-19.3 22.9-32.7 32.2-48.6 33.9-122 53.7-220.8 59.7-23.8 1.4-66.7 1.7-92 .5z" fill="url(#SVGID_1_)" stroke="#000" stroke-miterlimit="10"/>
  </g>
  <path d="M413 285.9c-69.6-3.1-127.6-15.3-172.8-36.4-44.6-20.8-91.4-56.3-113-85.7-7.8-10.6-10.9-16.1-14.2-24.6-11.4-30.2 1.9-55.5 39.6-75 11.1-5.8 39.1-16.9 44.4-17.7 1.7-.2 7.1-1.4 12-2.7 36.3-9 75.7-13.2 125-13.1 63.4 0 130 7.9 199.7 23.6 30.4 6.8 82.5 21.4 78.4 21.9-1 .1-2.8-.1-4-.5-1.1-.4-8.8-2.1-17.1-3.7-82.4-16.4-140.9-25.3-192-29.2-66.6-5-134.2-2.4-179.5 7-10.4 2.2-31.1 8.8-40.5 13.1-29.6 13.3-46.7 31.9-48.2 52.6-1.5 20.1 12.5 48.1 35.8 71.3 29.3 29.3 83.6 58.5 138.9 74.7 52.6 15.5 116.9 23.4 177.9 22 10.7-.3 19.2-.3 18.9-.1-.3.2-7 .8-14.9 1.3-18.1 1.4-57.3 1.9-74.4 1.2z" fill="#323f4f" stroke="#000" stroke-miterlimit="10" id="layer107"/>
  <g id="layer108">
    <path class="st8" d="M459.8 385.9c2-.1 5.4-.1 7.5 0 2 .1.3.3-3.8.3s-5.8-.2-3.7-.3zM609.1 75c-.4-.2-.7-.3-1.1-.4-.8-.3-1.6-.5-2.3-.7-.1 0-.2-.1-.3-.2-1.6-.5-3.6-1.1-5.4-1.6-8.7-2.7-14.9-4.5-17-5-1.5-.4-3.3-.9-5.6-1.5-1.7-.4-3.4-.9-5.1-1.3-7.2-1.7-14.4-3.1-21.5-4.8-7.4-1.7-14.6-3.9-21.9-5.9-.6-.2-1.2-.3-1.8-.5-5.9-1.1-11.8-2.1-17.8-3.1-6.6-1.1-12.9-2.6-19.4-4.3-2.4-.4-5.8-1-9.1-1.6-4.9-.9-11.5-2-14.5-2.4-3-.4-7.5-1.1-10-1.4-2.5-.4-5.4-.8-6.5-.9-3.6-.6-6.9-1-11-1.4-2.2-.2-4.8-.5-5.8-.7s-3.2-.6-5-.7c-1.8-.2-4.1-.4-5.2-.6-1.1-.2-4-.4-6.5-.7s-5.4-.6-6.5-.7c-9.1-1-16-1.5-36.5-2.7-5.3-.3-35.9-1.3-41-1.3-4.6 0-34 1-39.5 1.3-3.1.1-13.1.9-17.5 1.3-1.4.1-5.3.5-8.8 1-3.5.4-7.8.9-9.5 1.1-4.1.4-5.7.6-8.7 1.1-1.4.2-5.3.7-8.8 1.2-1.2.1-2.4.3-3.4.5-4.8 2.2-10.4 2.4-15.5 3.5-5.4 1.1-10.7 2.3-16 3.8-5.6 1.5-11.3 2.8-16.8 4.7-4.9 1.7-9.8 4.2-14.9 5.1-5 1.7-11.2 4.3-14.5 6.1-1.9 1.1-4.7 2.5-6.2 3.1-3.5 1.4-20.8 13.2-24.3 16.4-.2.3-.4.6-.6.8-.2.3-.8 1-1.7 1.6-3.9 2.9-11.3 13.2-13.3 18.6-4.4 12.4-4.5 23-.1 35.2.6 1.5 1.3 3.6 1.6 4.7.4 1.2 1.3 3 2.1 4.2.8 1.2 1.4 2.4 1.4 2.9 0 1.6 9.5 15.5 15 21.8 1.6 1.9 3.3 4.1 3.9 4.8.5.8 2.8 3.1 5 5 1.3 1.2 2.7 2.5 3.8 3.7 1.5 1.4 3 2.9 4.4 4.4.4.4.9.8 1.3 1.3.4.3.7.6 1 .9 2.2 1.9 4.5 3.7 6.3 5.9v.1c1.6 1.3 3.9 3.2 7.1 5.9 2.6 2.3 3.2 2.7 14.5 11.2 11.3 8.3 26.6 18.2 38.1 24.6 2 1.1 4.4 2.5 5.3 3 2.8 1.8 9.9 5.4 10.4 5.4.3 0 5 2.1 10.4 4.6 5.5 2.5 10.5 4.7 11.3 5 .8.2 3.3 1.2 5.5 2.1 4.1 1.7 17.6 6.2 25.5 8.6 2.5.8 5.3 1.6 6.2 1.9 1 .3 2.3.6 2.9.6.6 0 2.5.4 4.2.9 1.8.5 6.4 1.6 10.2 2.4 3.9.9 7.5 1.7 8 2 .6.2 3.7.8 7 1.3 3.3.4 6.5 1 7 1.3.6.2 3.7.8 7 1.3 3.3.4 7.1.9 8.5 1.1 1.4.2 3.2.5 4 .6.8 0 2.6.3 4 .5s4.1.5 6 .7c1.9.2 4.4.5 5.5.7 1.1.2 4 .4 6.5.7 2.5.3 5.6.6 7 .7 9.5 1 18 1.6 32.5 2.1 6.6.2 12.2.6 12.5.7.9.6 46.3-.5 59.5-1.6 1.7-.1 4.3-.2 5.9-.3 1.6-.1 2.7-.2 2.4-.4s-12.9-.6-27.9-.7c-15.1-.2-29.2-.5-31.4-.6-2.2-.1-6.7-.4-10-.7-9.1-.6-12.6-.8-17-1.3-2.2-.2-5.5-.5-7.3-.7-1.8-.1-3.6-.4-4-.6-.4-.1-3.4-.4-6.6-.7-3.3-.2-6.4-.5-6.8-.7-.5-.2-1.9-.6-3.1-.7-8.5-.9-13.1-1.6-17.4-2.5-2.6-.5-6.8-1.3-9.3-1.8-2.5-.4-5.4-1-6.5-1.3-1.1-.3-5.8-1.3-10.5-2.3s-9.9-2.2-11.7-2.7c-1.7-.5-3.6-.9-4.2-.9-.6 0-1.9-.3-2.9-.6-.9-.3-3.3-1.1-5.2-1.6-14.5-4.3-27.2-8.4-34.5-11.2-2.7-1.1-5.9-2.3-7-2.7-3.3-1.2-5.7-2.2-10.7-4.5-2.6-1.2-5-2.2-5.3-2.2-.2 0-1.1-.3-2.2-.9h-.1c-4.3-1.6-8.4-3.5-12.4-5.6-1-.5-2-1.1-3-1.6-.4-.1-.8-.3-1.1-.6-.8-.4-1.7-.9-2.5-1.4-.7-.1-1.6-.6-2.4-1-.9-.6-2.9-1.8-4.3-2.5-.5-.2-1.1-.5-1.7-.8-.2 0-.3-.1-.4-.2-1.2-.6-2.5-1.4-3.4-1.9-1.6-.9-5.2-3-8-4.7-9.7-5.7-26.8-17.4-32.5-22.4-1.1-1-3.2-2.7-4.7-3.9-3.3-2.6-12.1-11-12.7-12.2-.8-.8-1.5-1.7-2.2-2.5l-.1-.1c-3.3-3-9-10.3-14-17.9-1.1-1.7-2.4-3.6-2.9-4.2-.5-.6-.8-1.3-.9-1.8-1-1.5-1.9-3.1-2.7-4.8-1.3-2.3-2.9-6-4.3-10-.5-1.3-1.3-3.4-1.9-4.7s-1.3-3.7-1.7-5.4c-.3-1.7-.8-3.8-1-4.7-1.3-5.4-.4-19 1.4-22 0-.2.1-.4.1-.5.2-.7.5-1.4.8-2.1.1-.2.2-.4.3-.5.1-.9.8-2.4 1.7-3.6 3.9-5.9 7.6-10.6 9.3-12.3.1-.2.3-.3.4-.5.4-.5 1-.9 1.4-1.5 0-.1.1-.1.1-.2.3-2.1 21.8-16.7 28.8-19.8 1.4-1.1 3.3-1.8 4.9-2.5 3-1.3 6.1-2.6 9.2-3.7 4.4-1.7 8.7-3.2 13.1-4.3h.2c1.6-.4 3.3-.8 4.9-1.1 3.6-1.2 8.1-2.3 11.4-2.9.1 0 .3 0 .5-.1l6.6-1.2c.3-.1.7-.1.9-.2 2.2-.4 5.8-.9 8-1.3s5.8-.9 8.1-1.3c2.2-.4 6-.8 8.5-1.1 2.4-.2 5.5-.6 6.9-.7 8.9-1 17.2-1.6 34-2.7 17.5-1.1 74.5-.6 95 .8 7.4.4 15.6 1.1 18 1.3 1.4.1 4.8.4 7.5.6 5.8.5 9.6.9 20.2 2.1 1.6.2 4.4.5 6.3.7 1.9.2 4.4.6 5.5.7 1.1.1 3.7.4 5.7.6 2 .2 6.7.9 10.5 1.4 1.9.3 4.1.6 6.1.9 5.1.4 10.2.8 15.3 1.8l9 1.8c4.4.7 10 1.6 15.5 2.5 6.3 1 12.2 2 15.8 2.6 14.5.9 28.8 4.8 43.1 7 14 2.2 28.5 4.9 42 9.4.6.2 1.3.3 1.6.1.7-.4.3-.5 0-.7z"/>
  </g>
  <g id="layer101_1_">
    <path d="M482 227.5c0-5.2-3.9-9.2-7.1-12.8-5.3-5.9-11.5-10.6-18.2-14.7h-.1l-4 3.4c-5.7 4.8-15.6 13.2-17.3 14.8l-1.4 1.2 19.4 8.9 22.6 10.2c3.3-3.1 6.2-5.8 6.1-11z" fill="#ffcc0c" stroke="#000" stroke-miterlimit="10"/>
    <path class="st10" d="M457.9 246.9c-3.5-1.8-31.5-15.5-34.6-17l-2.4-1.1-6 5.9-6.2 6c15.2 5.2 33.3 7 49.2 6.2zM395 216.9c-11-5.9-21.4-11.4-23.7-12.6-.4 11.1 9 19.5 18.6 25.4.3.2.5.3.8.5 2.5 1.5 4.9 2.8 7.2 4l.5-.3c.3-.3 3.2-2.4 6.2-5l5.3-4-14.9-8zM413.9 188.9c-11.1-.6-25.7-1.5-35.3 5.3l20 9.1 26 11.4 13.6-10.3c5.1-3.9 9-6.9 10.4-7.9-10.9-4.7-22.9-7-34.7-7.6z"/>
  </g>
  <g>
    <text transform="translate(.00008798 526.1963)">
      <tspan x="0" y="0" class="st12" font-size="126.78" fill="#ffdc4b">QUARAN</tspan><tspan x="470.2" y="0" class="st3 st12" font-size="126.7765">FIENDS</tspan>
    </text>
  </g>
  <path fill="none" d="M414.5 489l37.5.5"/>
</svg>
