<svg version="1.1" id="Layer_1" xmlns="http://www.w3.org/2000/svg" x="0" y="0" viewBox="0 0 2869.9 634" xml:space="preserve">
  <style>
    .st0{fill:#01cdfe;stroke:#01cdfe;stroke-width:15;stroke-linejoin:round;stroke-miterlimit:10}.st1{fill:#05ffa1}.st4,.st5,.st6,.st7{fill:#ff71ce;stroke:#000;stroke-width:10;stroke-miterlimit:10}.st5,.st6,.st7{fill:#fffb96;stroke-width:2}.st6,.st7{fill:#444;stroke-width:5}.st7{fill:none;stroke:#01cdfe;stroke-width:15;stroke-linejoin:round}
  </style>
  <path class="st0" d="M7.5 7.5h913v10H7.5zM960 8h731v10H960zM1736 8h1104v10H1736z"/>
  <path class="st1" d="M148.8 56.4L106.3 257h-1.5l42.5-200.7h1.5zm10 0L116.1 257H113l42.7-200.7h3.1zm11.7 0L127.8 257H123l42.7-200.7h4.8zm13.1 0L141 257h-6.5l42.7-200.7h6.4zm15 0L156 257h-8.2l42.7-200.7h8.1zm16.7 0L172.6 257h-9.8l42.7-200.7h9.8zm18.3 0L191 257h-11.5l42.7-200.7h11.4zm20 0L211 257h-13.2l42.7-200.7h13.1zm21.7 0L232.6 257h-14.8l42.7-200.7h14.8zm23.4 0L256 257h-16.5l42.7-200.7h16.5z"/>
  <path class="st1" d="M257.5 242.4h271l-3 14.7h-271l3-14.7zm51.3-161.9h86l-25.5 119.7h65.2L460 80.5h86l-32.3 152.3H276.5l32.3-152.3zM297 56.4h271.2L565 71H293.8l3.2-14.6z"/>
  <path class="st1" d="M508.6 242.4h250.8l-3 14.7H505.6l3-14.7zM560 80.5h86L621 198h131l-7.3 34.8h-217L560 80.5zm-11.9-24.1h251L796 71H545l3.1-14.6z"/>
  <path class="st1" d="M689.6 242.4h259.5l-3 14.7H686.6l3-14.7zm39.5-186h259.7L985.6 71H726l3.1-14.6zm74.2 59h-69.8l7.5-34.8h225.7l-7.5 34.8h-69.8l-24.8 117.5h-86l24.7-117.5z"/>
  <path class="st1" d="M929.3 242.4h119.8l-3 14.7H926.3l3-14.7zm51.3-161.9h86l-32.3 152.3h-86l32.3-152.3zm-11.8-24.1h120l-3.2 14.7h-120l3.2-14.7z"/>
  <path class="st1" d="M1029.3 242.4h336.8l-3 14.7h-336.8l3-14.7zm262.8-136h-22.5l-26.8 126.5h-86l26.8-126.5h-22.5l-26.8 126.5h-86l32.3-152.3h303l-32.3 152.3h-86l26.8-126.5zm-223.3-50h337l-3.2 14.7h-337l3.2-14.7z"/>
  <path class="st1" d="M1346.3 242.4h271l-3 14.7h-271l3-14.7zm51.3-161.9h237.2l-32.3 152.3h-86l12.7-59.7H1464l-12.7 59.7h-86l32.3-152.3zm-11.8-24.1H1657l-3.2 14.7h-271.2l3.2-14.7zm85 84.1h65.2l5.8-27.3h-65.2l-5.8 27.3z"/>
  <path class="st1" d="M1597.5 242.4H1857l-3 14.7h-259.5l3-14.7zm39.5-186h259.7l-3.2 14.7h-259.7l3.2-14.7zm74.1 59h-69.8l7.5-34.8h225.7l-7.5 34.8h-69.8l-24.8 117.5h-86l24.7-117.5z"/>
  <path class="st1" d="M1837.1 242.4H2093l-3 14.7h-255.8l2.9-14.7zm51.4-161.9h222l-7.5 34.8h-136l-5 23.7h131.5l-7.3 34.8h-131.5l-5.2 24.2h136l-7.3 34.8h-222l32.3-152.3zm-11.9-24.1h256l-3.2 14.7h-256l3.2-14.7z"/>
  <g>
    <path d="M138.8 64.5l-42.5 202h-1.5l42.5-202h1.5zm10 0l-42.7 202H103l42.7-202h3.1zm11.7 0l-42.7 202H113l42.7-202h4.8zm13.1 0l-42.7 202h-6.5l42.7-202h6.5zm15 0l-42.7 202h-8.2l42.7-202h8.2zm16.7 0l-42.7 202h-9.8l42.7-202h9.8zm18.3 0l-42.7 202h-11.5l42.7-202h11.5zm20 0l-42.7 202h-13.2l42.7-202h13.2zm21.7 0l-42.7 202h-14.8l42.7-202h14.8zm23.4 0l-42.7 202h-16.5l42.7-202h16.5z"/>
    <path d="M247.5 251.7h271l-3 14.8h-271l3-14.8zm51.3-162.9h86l-25.5 120.5h65.2L450 88.8h86l-32.3 153.4H266.5l32.3-153.4zM287 64.5h271.2L555 79.2H283.8l3.2-14.7z"/>
    <path d="M498.6 251.7h250.8l-3 14.8H495.6l3-14.8zM550 88.8h86l-25 118.3h131l-7.3 35.1h-217L550 88.8zm-11.9-24.3h251L786 79.2H535l3.1-14.7z"/>
    <path d="M679.6 251.7h259.5l-3 14.8H676.6l3-14.8zm39.5-187.2h259.7l-3.2 14.8H716l3.1-14.8zm74.2 59.4h-69.8l7.5-35.1h225.7l-7.5 35.1h-69.8l-24.8 118.3h-86l24.7-118.3z"/>
    <path d="M919.3 251.7h119.8l-3 14.8H916.3l3-14.8zm51.3-162.9h86l-32.3 153.4h-86l32.3-153.4zm-11.8-24.3h120l-3.2 14.8h-120l3.2-14.8z"/>
    <path d="M1019.3 251.7h336.8l-3 14.8h-336.8l3-14.8zm262.8-136.9h-22.5l-26.8 127.4h-86l26.8-127.4h-22.5l-26.8 127.4h-86l32.3-153.4h303l-32.3 153.4h-86l26.8-127.4zm-223.3-50.3h337l-3.2 14.8h-337l3.2-14.8z"/>
    <path d="M1336.3 251.7h271l-3 14.8h-271l3-14.8zm51.3-162.9h237.2l-32.3 153.4h-86l12.7-60.1H1454l-12.7 60.1h-86l32.3-153.4zm-11.8-24.3H1647l-3.2 14.8h-271.2l3.2-14.8zm85 84.7h65.2l5.8-27.5h-65.2l-5.8 27.5z"/>
    <path d="M1587.5 251.7H1847l-3 14.8h-259.5l3-14.8zM1627 64.5h259.7l-3.2 14.8h-259.7l3.2-14.8zm74.1 59.4h-69.8l7.5-35.1h225.7l-7.5 35.1h-69.8l-24.8 118.3h-86l24.7-118.3z"/>
    <path d="M1827.1 251.7H2083l-3 14.8h-255.8l2.9-14.8zm51.4-162.9h222l-7.5 35.1h-136l-5 23.8h131.5l-7.3 35.1h-131.5l-5.2 24.3h136l-7.3 35.1h-222l32.3-153.4zm-11.9-24.3h256l-3.2 14.8h-256l3.2-14.8z"/>
  </g>
  <g>
    <path d="M2128.9 59.4h616.9l-93.5 439.8h-616.9l93.5-439.8zm513.9 256l43.1-203.1h-519.8l-22.3 104.5h188.5l6.9-32.9H2482l-12.8 59.9H2138l-42.7 202.4h519.8l15-71.6h-331.3l12.8-59.2h331.2z" stroke="#05ffa1" stroke-width="6" stroke-miterlimit="10"/>
  </g>
  <g>
    <path d="M2158.9 70.4h616.9l-93.5 439.8h-616.9l93.5-439.8zm513.9 256l43.1-203.1h-519.8l-22.3 104.5h188.5l6.9-32.9H2512l-12.8 59.9H2168l-42.7 202.4h519.8l15-71.6h-331.3l12.8-59.2h331.2z" fill="#ff71ce" stroke="#000" stroke-width="12" stroke-miterlimit="10"/>
  </g>
  <g>
    <path class="st4" d="M280.5 281.7v117.2c0 2-.3 20.7-9 39.7-12.3 26.9-35.6 41.7-65.5 41.7s-53.2-14.8-65.5-41.7c-8.7-19-9-37.8-9-39.7V281.7h149zm-29.7 116.9v-84.2h-89.6v84.5s.3 13.4 6.4 26c7.4 15.4 20 22.7 38.4 22.7 18.7 0 31.2-7.3 38.4-22.7 6.1-12.6 6.4-26 6.4-26.3zM470.2 477.5H440l-89.1-139.3v139.3h-30V281.7h30.2L440.5 421V281.7h29.7v195.8zM540.8 281.7c43.5 0 104.7 10.9 104.7 97.9 0 83.6-60.2 97.9-104.7 97.9h-30V281.7h30zm74.5 97.9c0-78.3-74.5-66-74.5-66v132s74.5 11.2 74.5-66zM710.3 314.4v48.9h74.5v32.4h-74.5v48.9h89.6v32.7H680.3V281.7h119.6v32.7h-89.6zM924.8 477.5l-46.6-81.7H861v81.7h-30V363.4h28.4L831 314.5v-32.7h59.6s59.9 0 59.9 57.1c0 34.7-22 48.4-39.4 53.7l48.6 85h-34.9zm-30.2-114.4c7.9-.8 26.1-5 26.1-24.3 0-24.3-30-24.3-30-24.3h-24.1l28 48.6zM1146.5 366.2v112.2h-26.1l-1.5-18.5c-14.6 14.8-29.7 20.4-50.9 20.4-48.1 0-85.8-36.6-85.8-100.7 0-58.2 40.2-100.7 89.6-100.7 24.8 0 47.1 10.9 63.2 28.8l-21 22.9c-10.8-11.7-25.9-19-42.2-19-33 0-59.6 25.2-59.6 68 0 47.8 26.6 68 59.6 68 17.9 0 33.8-8.4 44.8-22.1v-28.2h-30v-31h59.9zM1279.4 477.5l-46.6-81.7h-17.2v81.7h-30V363.4h28.4l-28.4-48.9v-32.7h59.6s59.9 0 59.9 57.1c0 34.7-22 48.4-39.4 53.7l48.6 85h-34.9zm-30.2-114.4c7.9-.8 26.1-5 26.1-24.3 0-24.3-30-24.3-30-24.3h-24.1l28 48.6zM1336.4 351.6c0-40 30-72.7 66.6-72.7s66.6 32.7 66.6 72.7-30 72.7-66.6 72.7-66.6-32.7-66.6-72.7zm125 125.9h-118.3V445h118.3v32.5zm-95.3-125.9c0 22.4 16.4 40.3 36.9 40.3s36.9-17.9 36.9-40.3-16.4-40.3-36.9-40.3-36.9 17.9-36.9 40.3zM1654.4 281.7v117.2c0 2-.3 20.7-9 39.7-12.3 26.9-35.6 41.7-65.5 41.7s-53.2-14.8-65.5-41.7c-8.7-19-9-37.8-9-39.7V281.7h149zm-29.7 116.9v-84.2h-89.6v84.5s.3 13.4 6.4 26c7.4 15.4 20 22.7 38.4 22.7 18.7 0 31.2-7.3 38.4-22.7 6.1-12.6 6.4-26 6.4-26.3zM1844.1 477.5h-30.2l-89.1-139.3v139.3h-30V281.7h30.2l89.3 139.3V281.7h29.7v195.8zM1914.7 281.7c43.5 0 104.7 10.9 104.7 97.9 0 83.6-60.2 97.9-104.7 97.9h-30V281.7h30zm74.5 97.9c0-78.3-74.5-66-74.5-66v132s74.5 11.2 74.5-66z"/>
  </g>
  <g>
    <path class="st5" d="M301 305.6v117.2c0 2-.3 20.7-9 39.7-12.3 26.9-35.6 41.7-65.5 41.7s-53.2-14.8-65.5-41.7c-8.7-19-9-37.8-9-39.7V305.6h149zm-29.7 116.9v-84.2h-89.6v84.5s.3 13.4 6.4 26c7.4 15.4 20 22.7 38.4 22.7 18.7 0 31.2-7.3 38.4-22.7 6.1-12.6 6.4-26 6.4-26.3zM490.7 501.4h-30.2l-89.1-139.3v139.3h-30V305.6h30.2L461 444.9V305.6h29.7v195.8zM561.3 305.6c43.5 0 104.7 10.9 104.7 97.9 0 83.6-60.2 97.9-104.7 97.9h-30V305.6h30zm74.5 97.9c0-78.3-74.5-66-74.5-66v132s74.5 11.2 74.5-66zM730.8 338.3v48.9h74.5v32.4h-74.5v48.9h89.6v32.7H700.8V305.6h119.6v32.7h-89.6zM945.3 501.4l-46.6-81.7h-17.2v81.7h-30V387.3H880l-28.4-48.9v-32.7h59.6s59.9 0 59.9 57.1c0 34.7-22 48.4-39.4 53.7l48.6 85h-35zM915.1 387c7.9-.8 26.1-5 26.1-24.3 0-24.3-30-24.3-30-24.3h-24.1l28 48.6zM1167 390.1v112.2h-26.1l-1.5-18.5c-14.6 14.8-29.7 20.4-50.9 20.4-48.1 0-85.8-36.6-85.8-100.7 0-58.2 40.2-100.7 89.6-100.7 24.8 0 47.1 10.9 63.2 28.8l-21 22.9c-10.8-11.7-25.9-19-42.2-19-33 0-59.6 25.2-59.6 68 0 47.8 26.6 68 59.6 68 17.9 0 33.8-8.4 44.8-22.1v-28.2h-30v-31h59.9zM1299.9 501.4l-46.6-81.7h-17.2v81.7h-30V387.3h28.4l-28.4-48.9v-32.7h59.6s59.9 0 59.9 57.1c0 34.7-22 48.4-39.4 53.7l48.6 85h-34.9zM1269.7 387c7.9-.8 26.1-5 26.1-24.3 0-24.3-30-24.3-30-24.3h-24.1l28 48.6zM1356.9 375.5c0-40 30-72.7 66.6-72.7s66.6 32.7 66.6 72.7-30 72.7-66.6 72.7-66.6-32.7-66.6-72.7zm125 125.9h-118.3V469h118.3v32.4zm-95.3-125.9c0 22.4 16.4 40.3 36.9 40.3s36.9-17.9 36.9-40.3-16.4-40.3-36.9-40.3-36.9 17.9-36.9 40.3zM1674.9 305.6v117.2c0 2-.3 20.7-9 39.7-12.3 26.9-35.6 41.7-65.5 41.7s-53.2-14.8-65.5-41.7c-8.7-19-9-37.8-9-39.7V305.6h149zm-29.7 116.9v-84.2h-89.6v84.5s.3 13.4 6.4 26c7.4 15.4 20 22.7 38.4 22.7 18.7 0 31.2-7.3 38.4-22.7 6.1-12.6 6.4-26 6.4-26.3zM1864.6 501.4h-30.2l-89.1-139.3v139.3h-30V305.6h30.2l89.3 139.3V305.6h29.7v195.8zM1935.2 305.6c43.5 0 104.7 10.9 104.7 97.9 0 83.6-60.2 97.9-104.7 97.9h-30V305.6h30zm74.5 97.9c0-78.3-74.5-66-74.5-66v132s74.5 11.2 74.5-66z"/>
  </g>
  <g>
    <path class="st6" d="M292.5 293.7v117.2c0 2-.3 20.7-9 39.7-12.3 26.9-35.6 41.7-65.5 41.7s-53.2-14.8-65.5-41.7c-8.7-19-9-37.8-9-39.7V293.7h149zm-29.7 116.9v-84.2h-89.6v84.5s.3 13.4 6.4 26c7.4 15.4 20 22.7 38.4 22.7 18.7 0 31.2-7.3 38.4-22.7 6.1-12.6 6.4-26 6.4-26.3zM482.2 489.5H452l-89.1-139.3v139.3h-30V293.7h30.2L452.5 433V293.7h29.7v195.8zM552.8 293.7c43.5 0 104.7 10.9 104.7 97.9 0 83.6-60.2 97.9-104.7 97.9h-30V293.7h30zm74.5 97.9c0-78.3-74.5-66-74.5-66v132s74.5 11.2 74.5-66zM722.3 326.4v48.9h74.5v32.4h-74.5v48.9h89.6v32.7H692.3V293.7h119.6v32.7h-89.6zM936.8 489.5l-46.6-81.7H873v81.7h-30V375.4h28.4L843 326.5v-32.7h59.6s59.9 0 59.9 57.1c0 34.7-22 48.4-39.4 53.7l48.6 85h-34.9zm-30.2-114.4c7.9-.8 26.1-5 26.1-24.3 0-24.3-30-24.3-30-24.3h-24.1l28 48.6zM1158.5 378.2v112.2h-26.1l-1.5-18.5c-14.6 14.8-29.7 20.4-50.9 20.4-48.1 0-85.8-36.6-85.8-100.7 0-58.2 40.2-100.7 89.6-100.7 24.8 0 47.1 10.9 63.2 28.8l-21 22.9c-10.8-11.7-25.9-19-42.2-19-33 0-59.6 25.2-59.6 68 0 47.8 26.6 68 59.6 68 17.9 0 33.8-8.4 44.8-22.1v-28.2h-30v-31h59.9zM1291.4 489.5l-46.6-81.7h-17.2v81.7h-30V375.4h28.4l-28.4-48.9v-32.7h59.6s59.9 0 59.9 57.1c0 34.7-22 48.4-39.4 53.7l48.6 85h-34.9zm-30.2-114.4c7.9-.8 26.1-5 26.1-24.3 0-24.3-30-24.3-30-24.3h-24.1l28 48.6zM1348.4 363.6c0-40 30-72.7 66.6-72.7s66.6 32.7 66.6 72.7-30 72.7-66.6 72.7-66.6-32.7-66.6-72.7zm125 125.9h-118.3V457h118.3v32.5zm-95.3-125.9c0 22.4 16.4 40.3 36.9 40.3s36.9-17.9 36.9-40.3-16.4-40.3-36.9-40.3-36.9 17.9-36.9 40.3zM1666.4 293.7v117.2c0 2-.3 20.7-9 39.7-12.3 26.9-35.6 41.7-65.5 41.7s-53.2-14.8-65.5-41.7c-8.7-19-9-37.8-9-39.7V293.7h149zm-29.7 116.9v-84.2h-89.6v84.5s.3 13.4 6.4 26c7.4 15.4 20 22.7 38.4 22.7 18.7 0 31.2-7.3 38.4-22.7 6.1-12.6 6.4-26 6.4-26.3zM1856.1 489.5h-30.2l-89.1-139.3v139.3h-30V293.7h30.2l89.3 139.3V293.7h29.7v195.8zM1926.7 293.7c43.5 0 104.7 10.9 104.7 97.9 0 83.6-60.2 97.9-104.7 97.9h-30V293.7h30zm74.5 97.9c0-78.3-74.5-66-74.5-66v132s74.5 11.2 74.5-66z"/>
  </g>
  <path class="st7" d="M2845 11c-61.6 499.4-102.8 559-297 559h-527"/>
  <path d="M2862.5 30c-61.6 499.4-102.8 559-297 559h-527" fill="none" stroke="#ff71ce" stroke-width="15" stroke-linejoin="round" stroke-miterlimit="10"/>
</svg>
