<svg xmlns="http://www.w3.org/2000/svg" viewBox="0 0 4973 1817">
  <style>
    .st3{fill:#05ffa1}.st4,.st5{stroke:#000;stroke-miterlimit:10}.st4{stroke-width:10;fill:#01cdfe}.st5{fill:#454545}.st6{fill:#fffb96}.st7{fill:#ff71ce;stroke:#000;stroke-width:10;stroke-miterlimit:10}.st8{fill:#b967ff}
  </style>
  <g id="Layer_1">
    <path d="M4731.5 1700h-4507c-94.9 0-172.5-77.6-172.5-172.5v-297c0-94.9 77.6-172.5 172.5-172.5h4507c94.9 0 172.5 77.6 172.5 172.5v297c0 94.9-77.6 172.5-172.5 172.5z" opacity=".5" fill="#020202" stroke="#ff71ce" stroke-width="10" stroke-miterlimit="10"/>
    <path class="st3" d="M496.8 512.8v272.3c0 4.6-.6 48.1-22.8 92.3-31.2 62.4-90.3 96.8-166.4 96.8s-135.2-34.5-166.4-96.8c-22.1-44.2-22.7-87.7-22.7-92.3V512.8h378.3zm-75.4 271.7V588.9H193.9v196.3s.6 31.2 16.2 60.4c18.9 35.7 50.7 52.6 97.5 52.6 47.4 0 79.3-16.9 97.5-52.6 15.7-29.2 16.3-60.4 16.3-61.1zM978.5 967.8h-76.7L675.6 644.1v323.7h-76v-455h76.7l226.8 323.7V512.8h75.4v455zM1157.9 512.8c110.5 0 265.8 25.3 265.8 227.5 0 194.3-152.7 227.5-265.8 227.5h-76v-455h76zM1347 740.3c0-182-189.1-153.4-189.1-153.4v306.8s189.1 26 189.1-153.4zM1588.1 588.9v113.7h189.1V778h-189.1v113.7h227.5v76h-303.5v-455h303.5v76h-227.5zM2132.8 967.8L2014.5 778H1971v189.8h-76V702.6h72.1L1895 588.9v-76h151.4s152.1 0 152.1 132.6c0 80.6-55.9 112.4-100.1 124.8l123.5 197.6h-89.1zM2056.1 702c20.1-1.9 66.3-11.7 66.3-56.5 0-56.5-76-56.5-76-56.5h-61.1l70.8 113zM2695.7 709.1v260.6h-66.3l-3.9-42.9c-37 34.5-75.4 47.5-129.3 47.5-122.2 0-217.7-85.1-217.7-234 0-135.2 102-234 227.5-234 63 0 119.6 25.3 160.5 66.9l-53.3 53.3c-27.3-27.3-65.6-44.2-107.2-44.2-83.8 0-151.4 58.5-151.4 157.9 0 111.1 67.6 157.9 151.4 157.9 45.5 0 85.8-19.5 113.7-51.3v-65.6h-76v-72.1h152zM3033.1 967.8L2914.8 778h-43.5v189.8h-76V702.6h72.1l-72.1-113.7v-76h151.4s152.1 0 152.1 132.6c0 80.6-55.9 112.4-100.1 124.8l123.5 197.6h-89.1zM2956.4 702c20.1-1.9 66.3-11.7 66.3-56.5 0-56.5-76-56.5-76-56.5h-61.1l70.8 113zM3178 675.3c0-92.9 76-169 169-169s169 76 169 169c0 92.9-76 169-169 169s-169-76-169-169zm317.2 292.5h-300.3v-75.4h300.3v75.4zm-241.8-292.5c0 52 41.6 93.6 93.6 93.6 52 0 93.6-41.6 93.6-93.6s-41.6-93.6-93.6-93.6c-52 0-93.6 41.6-93.6 93.6zM3607 822.2V512.8h76v309.4c3.9 52.6 46.2 76 94.2 76 47.5 0 94.9-25.3 94.9-76V512.8h76v309.4c0 96.8-74.1 152.1-170.9 152.1-93.5 0-170.2-58.5-170.2-152.1zM4429.9 967.8h-76.7L4127 644.1v323.7h-76v-455h76.7l226.8 323.7V512.8h75.4v455zM4609.3 512.8c110.5 0 265.8 25.3 265.8 227.5 0 194.3-152.7 227.5-265.8 227.5h-76v-455h76zm189.2 227.5c0-182-189.1-153.4-189.1-153.4v306.8c-.1 0 189.1 26 189.1-153.4z"/>
    <g>
      <path class="st4" d="M474.8 546.8v272.3c0 4.6-.6 48.1-22.8 92.3-31.2 62.4-90.3 96.8-166.4 96.8s-135.2-34.5-166.4-96.8c-22.1-44.2-22.7-87.7-22.7-92.3V546.8h378.3zm-75.4 271.7V622.9H171.9v196.3s.6 31.2 16.2 60.4c18.9 35.8 50.7 52.6 97.5 52.6 47.4 0 79.3-16.9 97.5-52.6 15.7-29.2 16.3-60.4 16.3-61.1zM956.5 1001.8h-76.7L653.6 678.1v323.7h-76v-455h76.7l226.8 323.7V546.8h75.4v455zM1135.9 546.8c110.5 0 265.8 25.3 265.8 227.5 0 194.3-152.7 227.5-265.8 227.5h-76v-455h76zM1325 774.3c0-182-189.1-153.4-189.1-153.4v306.8s189.1 26 189.1-153.4zM1566.1 622.9v113.7h189.1V812h-189.1v113.7h227.5v76h-303.5v-455h303.5v76h-227.5zM2110.8 1001.8L1992.5 812H1949v189.8h-76V736.6h72.1L1873 622.9v-76h151.4s152.1 0 152.1 132.6c0 80.6-55.9 112.4-100.1 124.8l123.5 197.6h-89.1zM2034.1 736c20.1-1.9 66.3-11.7 66.3-56.5 0-56.5-76-56.5-76-56.5h-61.1l70.8 113zM2673.7 743.1v260.6h-66.3l-3.9-42.9c-37 34.5-75.4 47.5-129.3 47.5-122.2 0-217.7-85.2-217.7-234 0-135.2 102-234 227.5-234 63 0 119.6 25.3 160.5 66.9l-53.3 53.3c-27.3-27.3-65.6-44.2-107.2-44.2-83.8 0-151.4 58.5-151.4 157.9 0 111.1 67.6 157.9 151.4 157.9 45.5 0 85.8-19.5 113.7-51.3v-65.6h-76v-72.1h152zM3011.1 1001.8L2892.8 812h-43.5v189.8h-76V736.6h72.1l-72.1-113.7v-76h151.4s152.1 0 152.1 132.6c0 80.6-55.9 112.4-100.1 124.8l123.5 197.6h-89.1zM2934.4 736c20.1-1.9 66.3-11.7 66.3-56.5 0-56.5-76-56.5-76-56.5h-61.1l70.8 113zM3156 709.3c0-92.9 76-169 169-169s169 76 169 169c0 92.9-76 169-169 169s-169-76-169-169zm317.2 292.5h-300.3v-75.4h300.3v75.4zm-241.8-292.5c0 52 41.6 93.6 93.6 93.6 52 0 93.6-41.6 93.6-93.6s-41.6-93.6-93.6-93.6c-52 0-93.6 41.6-93.6 93.6zM3585 856.2V546.8h76v309.4c3.9 52.6 46.2 76 94.2 76 47.5 0 94.9-25.3 94.9-76V546.8h76v309.4c0 96.8-74.1 152.1-170.9 152.1-93.5 0-170.2-58.5-170.2-152.1zM4407.9 1001.8h-76.7L4105 678.1v323.7h-76v-455h76.7l226.8 323.7V546.8h75.4v455zM4587.3 546.8c110.5 0 265.8 25.3 265.8 227.5 0 194.3-152.7 227.5-265.8 227.5h-76v-455h76zm189.2 227.5c0-182-189.1-153.4-189.1-153.4v306.8c-.1 0 189.1 26 189.1-153.4z"/>
    </g>
    <g>
      <path class="st5" d="M496.8 528.8v272.3c0 4.6-.6 48.1-22.8 92.3-31.2 62.4-90.3 96.8-166.4 96.8s-135.2-34.5-166.4-96.8c-22.1-44.2-22.7-87.7-22.7-92.3V528.8h378.3zm-75.4 271.7V604.9H193.9v196.3s.6 31.2 16.2 60.4c18.9 35.8 50.7 52.6 97.5 52.6 47.4 0 79.3-16.9 97.5-52.6 15.7-29.2 16.3-60.4 16.3-61.1zM978.5 983.8h-76.7L675.6 660.1v323.7h-76v-455h76.7l226.8 323.7V528.8h75.4v455zM1157.9 528.8c110.5 0 265.8 25.3 265.8 227.5 0 194.3-152.7 227.5-265.8 227.5h-76v-455h76zM1347 756.3c0-182-189.1-153.4-189.1-153.4v306.8s189.1 26 189.1-153.4zM1588.1 604.9v113.7h189.1V794h-189.1v113.7h227.5v76h-303.5v-455h303.5v76h-227.5zM2132.8 983.8L2014.5 794H1971v189.8h-76V718.6h72.1L1895 604.9v-76h151.4s152.1 0 152.1 132.6c0 80.6-55.9 112.4-100.1 124.8l123.5 197.6h-89.1zM2056.1 718c20.1-1.9 66.3-11.7 66.3-56.5 0-56.5-76-56.5-76-56.5h-61.1l70.8 113zM2695.7 725.1v260.6h-66.3l-3.9-42.9c-37 34.5-75.4 47.5-129.3 47.5-122.2 0-217.7-85.2-217.7-234 0-135.2 102-234 227.5-234 63 0 119.6 25.3 160.5 66.9l-53.3 53.3c-27.3-27.3-65.6-44.2-107.2-44.2-83.8 0-151.4 58.5-151.4 157.9 0 111.1 67.6 157.9 151.4 157.9 45.5 0 85.8-19.5 113.7-51.3v-65.6h-76v-72.1h152zM3033.1 983.8L2914.8 794h-43.5v189.8h-76V718.6h72.1l-72.1-113.7v-76h151.4s152.1 0 152.1 132.6c0 80.6-55.9 112.4-100.1 124.8l123.5 197.6h-89.1zM2956.4 718c20.1-1.9 66.3-11.7 66.3-56.5 0-56.5-76-56.5-76-56.5h-61.1l70.8 113zM3178 691.3c0-92.9 76-169 169-169s169 76 169 169c0 92.9-76 169-169 169s-169-76-169-169zm317.2 292.5h-300.3v-75.4h300.3v75.4zm-241.8-292.5c0 52 41.6 93.6 93.6 93.6 52 0 93.6-41.6 93.6-93.6s-41.6-93.6-93.6-93.6c-52 0-93.6 41.6-93.6 93.6zM3607 838.2V528.8h76v309.4c3.9 52.6 46.2 76 94.2 76 47.5 0 94.9-25.3 94.9-76V528.8h76v309.4c0 96.8-74.1 152.1-170.9 152.1-93.5 0-170.2-58.5-170.2-152.1zM4429.9 983.8h-76.7L4127 660.1v323.7h-76v-455h76.7l226.8 323.7V528.8h75.4v455zM4609.3 528.8c110.5 0 265.8 25.3 265.8 227.5 0 194.3-152.7 227.5-265.8 227.5h-76v-455h76zm189.2 227.5c0-182-189.1-153.4-189.1-153.4v306.8c-.1 0 189.1 26 189.1-153.4z"/>
    </g>
    <g>
      <path d="M622.4 1205c-58.4 78.3-117 135.4-175.8 171.1l-34.3-33.1c50-29.9 100.4-75.9 151.2-138H140.1v-45.7h482.2v45.7zm-219.5 50.9c2.3 108.4-10.3 186.4-37.8 234.1-27.5 47.7-73.5 89.3-138 124.8l-34.9-36.6c37.7-18.4 70.5-41.9 98.4-70.6 27.9-28.7 45.8-60.5 53.6-95.5 7.8-35 11.5-87 11.1-156.2h47.6zM969.2 1229.6c-53.3 163.7-132.1 290.9-236.4 381.7l-36-33.7c100.8-82.4 177-204.6 228.5-366.5l43.9 18.5zM829.5 1304l-43.4 24c-33.6-67.6-62.6-119.6-87-156.2l41.6-20.8c33.2 49.3 62.8 100.3 88.8 153zM1437.7 1209.9c-13.1 85.4-37.2 158.9-72.4 220.6 27.7 21.9 49.7 40.5 65.9 56l-32.5 36c-18-17.2-37.7-34.7-59.2-52.4-50 66.8-115 122.5-195.1 167l-33.7-35.4c82.2-46.9 145.8-100.3 190.7-160.3-33.2-25-73.5-52-121-80.9l28.1-35.4c41.4 24 80.9 49.4 118.4 76.2 23.8-39.3 41.6-87.9 53.3-145.9h-177c-32.6 62.7-69.4 115.9-110.4 159.7l-39.6-27.5c60.4-60.4 114.4-152.7 162-277.1l43.7 14.4c-7.2 25-18.7 53.4-34.3 85.3h213.1zm60 10.6l-32.2 22.3c-19.1-29.1-41.8-57.7-68-85.8l29.6-19.6c20.9 19.4 44.5 47.2 70.6 83.1zm52.2-28.1l-31.1 22.3c-20.3-29.3-43.4-58.3-69.1-87l30.2-19.9c29.5 30.2 52.8 58.4 70 84.6zM2125.3 1398.3h-484.6v-45.7h484.6v45.7zM2638.3 1221.1c-7 83.4-29.9 158.1-68.7 224-38.8 65.9-110.4 130.1-214.9 192.6l-38.4-36.6c73.2-38.1 132.9-83.2 178.9-135.4s75.3-118.7 88-199.5h-186.6c-24 49.2-60.5 100.2-109.3 152.9l-41.9-28.7c76.2-75 128.8-165.2 157.9-270.7l44.8 15.8c-4.5 21.9-14.6 50.4-30.5 85.5h220.7zm51.2-5.3l-31.3 26.4c-19.7-28.7-42.8-56.5-69.1-83.5l29.6-23.1c22.2 20.1 45.8 46.8 70.8 80.2zm58.6-31.9l-31.6 27.2c-22.1-30.3-44.1-56.7-66.2-79.4l27.8-25.8c28.5 28.6 51.9 54.5 70 78zM3297.2 1278.8c-15.6 97.5-45.7 172.8-90.2 225.9-44.5 53.1-111.6 95-201.3 125.7l-27.5-41.9c70.1-22.5 127.1-53.9 171.1-94.3s73.8-97.2 89.6-170.2h-366.5v-45.1h424.8zm-45.7-96.7h-332.8v-44.8h332.8v44.8zM3888.1 1221.7c-3.5 122.1-27 213.2-70.3 273.5-43.4 60.3-107.9 107-193.7 140.2l-27.5-39.8c71.1-28.3 127.5-66.5 169.2-114.6 41.7-48 65.5-119.2 71.3-213.6h-306.4V1415h-48v-193.4h177.5v-110.2h48.6v110.2h179.3zM4269.2 1229.6c-53.3 163.7-132.1 290.9-236.4 381.7l-36-33.7c100.8-82.4 177-204.6 228.5-366.5l43.9 18.5zm-139.7 74.4l-43.4 24c-33.6-67.6-62.6-119.6-87-156.2l41.6-20.8c33.2 49.3 62.8 100.3 88.8 153zM4784.6 1410.9l-27.5 41.3c-81.4-51.6-151.9-92-211.2-121.3v295.9h-47.5V1115h47.5v164.4c59.5 29.5 139.1 73.3 238.7 131.5zm-29.9-170.5l-31.3 28.1c-24.6-28.7-50.2-54.9-76.8-78.5l27-26.4c29.8 24.9 56.9 50.5 81.1 76.8zm53.9-40.7l-30.5 28.1c-26.8-28.1-51.8-52.7-75-73.8l28.1-27.5c25.4 21.2 51.2 45.7 77.4 73.2z"/>
    </g>
    <g>
      <path class="st6" d="M612.4 1185c-58.4 78.3-117 135.4-175.8 171.1l-34.3-33.1c50-29.9 100.4-75.9 151.2-138H130.1v-45.7h482.2v45.7zm-219.5 50.9c2.3 108.4-10.3 186.4-37.8 234.1-27.5 47.7-73.5 89.3-138 124.8l-34.9-36.6c37.7-18.4 70.5-41.9 98.4-70.6 27.9-28.7 45.8-60.5 53.6-95.5 7.8-35 11.5-87 11.1-156.2h47.6zM959.2 1209.6c-53.3 163.7-132.1 290.9-236.4 381.7l-36-33.7c100.8-82.4 177-204.6 228.5-366.5l43.9 18.5zM819.5 1284l-43.4 24c-33.6-67.6-62.6-119.6-87-156.2l41.6-20.8c33.2 49.3 62.8 100.3 88.8 153zM1427.7 1189.9c-13.1 85.4-37.2 158.9-72.4 220.6 27.7 21.9 49.7 40.5 65.9 56l-32.5 36c-18-17.2-37.7-34.7-59.2-52.4-50 66.8-115 122.5-195.1 167l-33.7-35.4c82.2-46.9 145.8-100.3 190.7-160.3-33.2-25-73.5-52-121-80.9l28.1-35.4c41.4 24 80.9 49.4 118.4 76.2 23.8-39.3 41.6-87.9 53.3-145.9h-177c-32.6 62.7-69.4 115.9-110.4 159.7l-39.6-27.5c60.4-60.4 114.4-152.7 162-277.1l43.7 14.4c-7.2 25-18.7 53.4-34.3 85.3h213.1zm60 10.6l-32.2 22.3c-19.1-29.1-41.8-57.7-68-85.8l29.6-19.6c20.9 19.4 44.5 47.2 70.6 83.1zm52.2-28.1l-31.1 22.3c-20.3-29.3-43.4-58.3-69.1-87l30.2-19.9c29.5 30.2 52.8 58.4 70 84.6zM2115.3 1378.3h-484.6v-45.7h484.6v45.7zM2628.3 1201.1c-7 83.4-29.9 158.1-68.7 224-38.8 65.9-110.4 130.1-214.9 192.6l-38.4-36.6c73.2-38.1 132.9-83.2 178.9-135.4s75.3-118.7 88-199.5h-186.6c-24 49.2-60.5 100.2-109.3 152.9l-41.9-28.7c76.2-75 128.8-165.2 157.9-270.7l44.8 15.8c-4.5 21.9-14.6 50.4-30.5 85.5h220.7zm51.2-5.3l-31.3 26.4c-19.7-28.7-42.8-56.5-69.1-83.5l29.6-23.1c22.2 20.1 45.8 46.8 70.8 80.2zm58.6-31.9l-31.6 27.2c-22.1-30.3-44.1-56.7-66.2-79.4l27.8-25.8c28.5 28.6 51.9 54.5 70 78zM3287.2 1258.8c-15.6 97.5-45.7 172.8-90.2 225.9-44.5 53.1-111.6 95-201.3 125.7l-27.5-41.9c70.1-22.5 127.1-53.9 171.1-94.3s73.8-97.2 89.6-170.2h-366.5v-45.1h424.8zm-45.7-96.7h-332.8v-44.8h332.8v44.8zM3878.1 1201.7c-3.5 122.1-27 213.2-70.3 273.5-43.4 60.3-107.9 107-193.7 140.2l-27.5-39.8c71.1-28.3 127.5-66.5 169.2-114.6 41.7-48 65.5-119.2 71.3-213.6h-306.4V1395h-48v-193.4h177.5v-110.2h48.6v110.2h179.3zM4259.2 1209.6c-53.3 163.7-132.1 290.9-236.4 381.7l-36-33.7c100.8-82.4 177-204.6 228.5-366.5l43.9 18.5zm-139.7 74.4l-43.4 24c-33.6-67.6-62.6-119.6-87-156.2l41.6-20.8c33.2 49.3 62.8 100.3 88.8 153zM4774.6 1390.9l-27.5 41.3c-81.4-51.6-151.9-92-211.2-121.3v295.9h-47.5V1095h47.5v164.4c59.5 29.5 139.1 73.3 238.7 131.5zm-29.9-170.5l-31.3 28.1c-24.6-28.7-50.2-54.9-76.8-78.5l27-26.4c29.8 24.9 56.9 50.5 81.1 76.8zm53.9-40.7l-30.5 28.1c-26.8-28.1-51.8-52.7-75-73.8l28.1-27.5c25.4 21.2 51.2 45.7 77.4 73.2z"/>
    </g>
    <g>
      <path class="st7" d="M591.4 1185c-58.4 78.3-117 135.4-175.8 171.1l-34.3-33.1c50-29.9 100.4-75.9 151.2-138H109.1v-45.7h482.2v45.7zm-219.5 50.9c2.3 108.4-10.3 186.4-37.8 234.1-27.5 47.7-73.5 89.3-138 124.8l-34.9-36.6c37.7-18.4 70.5-41.9 98.4-70.6 27.9-28.7 45.8-60.5 53.6-95.5 7.8-35 11.5-87 11.1-156.2h47.6zM938.2 1209.6c-53.3 163.7-132.1 290.9-236.4 381.7l-36-33.7c100.8-82.4 177-204.6 228.5-366.5l43.9 18.5zM798.5 1284l-43.4 24c-33.6-67.6-62.6-119.6-87-156.2l41.6-20.8c33.2 49.3 62.8 100.3 88.8 153zM1406.7 1189.9c-13.1 85.4-37.2 158.9-72.4 220.6 27.7 21.9 49.7 40.5 65.9 56l-32.5 36c-18-17.2-37.7-34.7-59.2-52.4-50 66.8-115 122.5-195.1 167l-33.7-35.4c82.2-46.9 145.8-100.3 190.7-160.3-33.2-25-73.5-52-121-80.9l28.1-35.4c41.4 24 80.9 49.4 118.4 76.2 23.8-39.3 41.6-87.9 53.3-145.9h-177c-32.6 62.7-69.4 115.9-110.4 159.7l-39.6-27.5c60.4-60.4 114.4-152.7 162-277.1l43.7 14.4c-7.2 25-18.7 53.4-34.3 85.3h213.1zm60 10.6l-32.2 22.3c-19.1-29.1-41.8-57.7-68-85.8l29.6-19.6c20.9 19.4 44.5 47.2 70.6 83.1zm52.2-28.1l-31.1 22.3c-20.3-29.3-43.4-58.3-69.1-87l30.2-19.9c29.5 30.2 52.8 58.4 70 84.6zM2094.3 1378.3h-484.6v-45.7h484.6v45.7zM2607.3 1201.1c-7 83.4-29.9 158.1-68.7 224-38.8 65.9-110.4 130.1-214.9 192.6l-38.4-36.6c73.2-38.1 132.9-83.2 178.9-135.4s75.3-118.7 88-199.5h-186.6c-24 49.2-60.5 100.2-109.3 152.9l-41.9-28.7c76.2-75 128.8-165.2 157.9-270.7l44.8 15.8c-4.5 21.9-14.6 50.4-30.5 85.5h220.7zm51.2-5.3l-31.3 26.4c-19.7-28.7-42.8-56.5-69.1-83.5l29.6-23.1c22.2 20.1 45.8 46.8 70.8 80.2zm58.6-31.9l-31.6 27.2c-22.1-30.3-44.1-56.7-66.2-79.4l27.8-25.8c28.5 28.6 51.9 54.5 70 78zM3266.2 1258.8c-15.6 97.5-45.7 172.8-90.2 225.9-44.5 53.1-111.6 95-201.3 125.7l-27.5-41.9c70.1-22.5 127.1-53.9 171.1-94.3s73.8-97.2 89.6-170.2h-366.5v-45.1h424.8zm-45.7-96.7h-332.8v-44.8h332.8v44.8zM3857.1 1201.7c-3.5 122.1-27 213.2-70.3 273.5-43.4 60.3-107.9 107-193.7 140.2l-27.5-39.8c71.1-28.3 127.5-66.5 169.2-114.6 41.7-48 65.5-119.2 71.3-213.6h-306.4V1395h-48v-193.4h177.5v-110.2h48.6v110.2h179.3zM4238.2 1209.6c-53.3 163.7-132.1 290.9-236.4 381.7l-36-33.7c100.8-82.4 177-204.6 228.5-366.5l43.9 18.5zm-139.7 74.4l-43.4 24c-33.6-67.6-62.6-119.6-87-156.2l41.6-20.8c33.2 49.3 62.8 100.3 88.8 153zM4753.6 1390.9l-27.5 41.3c-81.4-51.6-151.9-92-211.2-121.3v295.9h-47.5V1095h47.5v164.4c59.5 29.5 139.1 73.3 238.7 131.5zm-29.9-170.5l-31.3 28.1c-24.6-28.7-50.2-54.9-76.8-78.5l27-26.4c29.8 24.9 56.9 50.5 81.1 76.8zm53.9-40.7l-30.5 28.1c-26.8-28.1-51.8-52.7-75-73.8l28.1-27.5c25.4 21.2 51.2 45.7 77.4 73.2z"/>
    </g>
    <g>
      <path class="st8" d="M600.3 126.9v173.6c0 21.3-5.1 41.2-15.4 59.6s-25.2 34.5-44.7 48.2c-19.5 13.7-43.3 24.5-71.4 32.4-28.1 7.9-60.1 11.8-96.1 11.8-35.2 0-66.9-3.9-95.2-11.6-28.3-7.7-52.4-18.3-72.4-31.8-19.9-13.5-35.3-29.3-46-47.6-10.7-18.3-16.1-37.9-16.1-59V126.9h99.7v176c0 12.3 2.8 23.8 8.4 34.6 5.6 10.8 13.7 20.2 24.4 28.2s24.1 14.3 40.2 19c16.1 4.7 34.4 7 55 7 21.9 0 40.8-2.2 56.9-6.6 16.1-4.4 29.4-10.5 39.9-18.4 10.5-7.9 18.4-17.1 23.8-27.8 5.4-10.7 8-22.4 8-35.2V126.9h101zM1224.7 446.9H876.8V127.3h101.6v259.6h246.3v60zM1745 182.5h-142.1v264.4h-101V182.5h-142.1v-55.2H1745v55.2zM2102 446.9h-99.7V127.3h99.7v319.6zM2904.6 446.9h-97.8V233.3l-162.1 170-155.6-171.6v215.2h-97.8v-320h112.5l142.8 158.8 149.2-158.8h108.7v320zM3713 446.9h-109.3l-47.6-64h-249.5l-48.2 64h-109.3l243.1-320h77.8l243 320zm-196.2-115.6l-85.5-115.2-86.8 115.2h172.3zM4226.8 182.5h-142.1v264.4h-101V182.5h-142.1v-55.2h385.2v55.2zM4823.6 446.9H4484V127.3h339.6v51.2h-241.8v76.4h238.6v50h-238.6v88h241.8v54z"/>
    </g>
    <g>
      <path d="M712.6 174.3v162c0 19.9-4.8 38.4-14.4 55.6-9.6 17.2-23.5 32.2-41.7 45-18.2 12.8-40.4 22.9-66.6 30.2-26.2 7.3-56.1 11-89.7 11-32.8 0-62.4-3.6-88.8-10.8s-48.9-17.1-67.5-29.7C325.3 425 311 410.2 301 393.2s-15-35.4-15-55V174.3h93v164.2c0 11.4 2.6 22.2 7.8 32.3 5.2 10.1 12.8 18.8 22.8 26.3s22.5 13.4 37.5 17.7c15 4.4 32.1 6.5 51.3 6.5 20.4 0 38.1-2.1 53.1-6.2s27.4-9.8 37.2-17.2c9.8-7.3 17.2-16 22.2-25.9 5-9.9 7.5-20.9 7.5-32.8V174.3h94.2zM1295.2 472.9H970.6V174.7h94.8v242.2h229.8v56zM1780.6 226.2H1648v246.7h-94.2V226.2h-132.6v-51.5h359.4v51.5zM2113.6 472.9h-93V174.7h93v298.2zM2862.4 472.9h-91.2V273.6L2620 432.2l-145.2-160.1v200.8h-91.2V174.3h105l133.2 148.2L2761 174.3h101.4v298.6zM3616.6 472.9h-102l-44.4-59.7h-232.8l-45 59.7h-102l226.8-298.5h72.6l226.8 298.5zm-183-107.9l-79.8-107.5-81 107.5h160.8zM4096 226.2h-132.6v246.7h-94.2V226.2h-132.6v-51.5H4096v51.5zM4652.8 472.9H4336V174.7h316.8v47.8h-225.6v71.3h222.6v46.6h-222.6v82.1h225.6v50.4z"/>
    </g>
  </g>
</svg>
