<!--?xml version="1.0" encoding="utf-8"?-->
<!-- Generator: Adobe Illustrator 25.2.1, SVG Export Plug-In . SVG Version: 6.00 Build 0)  -->
<svg version="1.1" xmlns="http://www.w3.org/2000/svg" xmlns:xlink="http://www.w3.org/1999/xlink" x="0px" y="0px" viewBox="0 0 462.46 469.95" style="" xml:space="preserve">
<style type="text/css">
	.st0{fill:none;stroke:#FFFFFF;stroke-width:6;stroke-miterlimit:10;}
	.st1{fill:none;stroke:#FFFFFF;stroke-width:15;stroke-miterlimit:10;}
	.st2{fill:#FFFFFF;}
</style>
<g id="Layer_4">
</g>
<g id="Layer_3">
</g>
<g id="Layer_7">
</g>
<g id="Layer_5">
	<path class="st0 IbbPKRwO_0" d="M89.5,168.5c-6,53.67-12,107.33-18,161"></path>
	<path class="st0 IbbPKRwO_1" d="M63.5,240.5c94,39,188,78,282,117"></path>
	<path class="st0 IbbPKRwO_2" d="M158.5,306.5c51.33-75.33,102.67-150.67,154-226"></path>
	<path class="st0 IbbPKRwO_3" d="M235.5,52.5c44,39,88,78,132,117"></path>
	<path class="st0 IbbPKRwO_4" d="M365.5,88.5c7,22,14,44,21,66"></path>
	<path class="st0 IbbPKRwO_5" d="M398.5,258.5c-2.67,23.33-5.33,46.67-8,70"></path>
	<path class="st0 IbbPKRwO_6" d="M350.5,343.5c-71.67-63.33-143.33-126.67-215-190"></path>
	<path class="st0 IbbPKRwO_7" d="M186.5,65.5c-33.67,89-67.33,178-101,267"></path>
	<path class="st0 IbbPKRwO_8" d="M49.5,330.5c-5-21-10-42-15-63"></path>
	<path class="st0 IbbPKRwO_9" d="M167.5,366.5c7.33,4.67,14.67,9.33,22,14"></path>
	<path class="st0 IbbPKRwO_10" d="M125.5,398.5c18,1.33,36,2.67,54,4"></path>
	<path class="st0 IbbPKRwO_11" d="M281.5,400.5c20.67-5.67,41.33-11.33,62-17"></path>
	<path class="st0 IbbPKRwO_12" d="M341.5,367.5c-54.67-6.67-109.33-13.33-164-20"></path>
	<path class="st0 IbbPKRwO_13" d="M172.5,323.5c61-30.67,122-61.33,183-92"></path>
	<path class="st0 IbbPKRwO_14" d="M353.5,193.5c-69.67-21-139.33-42-209-63"></path>
	<path class="st0 IbbPKRwO_15" d="M48.5,188.5c7-9.67,14-19.33,21-29"></path>
	<path class="st0 IbbPKRwO_16" d="M137.5,80.5c11-9.67,22-19.33,33-29"></path>
	<path class="st0 IbbPKRwO_17" d="M247.5,24.5c11.67,1,23.33,2,35,3"></path>
	<path class="st1 IbbPKRwO_18" d="M402.5,77.81c0,0,99,109.69,25,259.69"></path>
	<path class="st1 IbbPKRwO_19" d="M365.01,409.99c0,0-109.69,99-259.69,25"></path>
</g>
<g id="Layer_6">
	<path class="st2 IbbPKRwO_20" d="M25,392A38,38 0,1,1 101,392A38,38 0,1,1 25,392"></path>
	<path class="st2 IbbPKRwO_21" d="M109,343.5A22.5,22.5 0,1,1 154,343.5A22.5,22.5 0,1,1 109,343.5"></path>
	<path class="st2 IbbPKRwO_22" d="M209,407.5A22.5,22.5 0,1,1 254,407.5A22.5,22.5 0,1,1 209,407.5"></path>
	<path class="st2 IbbPKRwO_23" d="M380,207.5A22.5,22.5 0,1,1 425,207.5A22.5,22.5 0,1,1 380,207.5"></path>
	<path class="st2 IbbPKRwO_24" d="M0,226.5A22.5,22.5 0,1,1 45,226.5A22.5,22.5 0,1,1 0,226.5"></path>
	<path class="st2 IbbPKRwO_25" d="M368,369.5A22.5,22.5 0,1,1 413,369.5A22.5,22.5 0,1,1 368,369.5"></path>
	<path class="st2 IbbPKRwO_26" d="M315,30A30,30 0,1,1 375,30A30,30 0,1,1 315,30"></path>
	<path class="st2 IbbPKRwO_27" d="M182,24.5A22.5,22.5 0,1,1 227,24.5A22.5,22.5 0,1,1 182,24.5"></path>
	<path class="st2 IbbPKRwO_28" d="M75,116.5A22.5,22.5 0,1,1 120,116.5A22.5,22.5 0,1,1 75,116.5"></path>
</g>
<style data-made-with="vivus-instant">.IbbPKRwO_0{stroke-dasharray:163 165;stroke-dashoffset:164;animation:IbbPKRwO_draw 107ms linear 0ms forwards;}.IbbPKRwO_1{stroke-dasharray:306 308;stroke-dashoffset:307;animation:IbbPKRwO_draw 202ms linear 107ms forwards;}.IbbPKRwO_2{stroke-dasharray:274 276;stroke-dashoffset:275;animation:IbbPKRwO_draw 181ms linear 310ms forwards;}.IbbPKRwO_3{stroke-dasharray:177 179;stroke-dashoffset:178;animation:IbbPKRwO_draw 117ms linear 491ms forwards;}.IbbPKRwO_4{stroke-dasharray:70 72;stroke-dashoffset:71;animation:IbbPKRwO_draw 46ms linear 608ms forwards;}.IbbPKRwO_5{stroke-dasharray:71 73;stroke-dashoffset:72;animation:IbbPKRwO_draw 47ms linear 655ms forwards;}.IbbPKRwO_6{stroke-dasharray:287 289;stroke-dashoffset:288;animation:IbbPKRwO_draw 189ms linear 702ms forwards;}.IbbPKRwO_7{stroke-dasharray:286 288;stroke-dashoffset:287;animation:IbbPKRwO_draw 188ms linear 892ms forwards;}.IbbPKRwO_8{stroke-dasharray:65 67;stroke-dashoffset:66;animation:IbbPKRwO_draw 43ms linear 1080ms forwards;}.IbbPKRwO_9{stroke-dasharray:27 29;stroke-dashoffset:28;animation:IbbPKRwO_draw 18ms linear 1124ms forwards;}.IbbPKRwO_10{stroke-dasharray:55 57;stroke-dashoffset:56;animation:IbbPKRwO_draw 36ms linear 1142ms forwards;}.IbbPKRwO_11{stroke-dasharray:65 67;stroke-dashoffset:66;animation:IbbPKRwO_draw 43ms linear 1179ms forwards;}.IbbPKRwO_12{stroke-dasharray:166 168;stroke-dashoffset:167;animation:IbbPKRwO_draw 109ms linear 1223ms forwards;}.IbbPKRwO_13{stroke-dasharray:205 207;stroke-dashoffset:206;animation:IbbPKRwO_draw 135ms linear 1333ms forwards;}.IbbPKRwO_14{stroke-dasharray:219 221;stroke-dashoffset:220;animation:IbbPKRwO_draw 144ms linear 1468ms forwards;}.IbbPKRwO_15{stroke-dasharray:36 38;stroke-dashoffset:37;animation:IbbPKRwO_draw 24ms linear 1613ms forwards;}.IbbPKRwO_16{stroke-dasharray:44 46;stroke-dashoffset:45;animation:IbbPKRwO_draw 29ms linear 1637ms forwards;}.IbbPKRwO_17{stroke-dasharray:36 38;stroke-dashoffset:37;animation:IbbPKRwO_draw 24ms linear 1667ms forwards;}.IbbPKRwO_18{stroke-dasharray:277 279;stroke-dashoffset:278;animation:IbbPKRwO_draw 183ms linear 1691ms forwards;}.IbbPKRwO_19{stroke-dasharray:277 279;stroke-dashoffset:278;animation:IbbPKRwO_draw 183ms linear 1874ms forwards;}.IbbPKRwO_20{stroke-dasharray:239 241;stroke-dashoffset:240;animation:IbbPKRwO_draw 157ms linear 2057ms forwards;}.IbbPKRwO_21{stroke-dasharray:142 144;stroke-dashoffset:143;animation:IbbPKRwO_draw 94ms linear 2215ms forwards;}.IbbPKRwO_22{stroke-dasharray:142 144;stroke-dashoffset:143;animation:IbbPKRwO_draw 94ms linear 2310ms forwards;}.IbbPKRwO_23{stroke-dasharray:142 144;stroke-dashoffset:143;animation:IbbPKRwO_draw 94ms linear 2404ms forwards;}.IbbPKRwO_24{stroke-dasharray:142 144;stroke-dashoffset:143;animation:IbbPKRwO_draw 94ms linear 2498ms forwards;}.IbbPKRwO_25{stroke-dasharray:142 144;stroke-dashoffset:143;animation:IbbPKRwO_draw 94ms linear 2592ms forwards;}.IbbPKRwO_26{stroke-dasharray:189 191;stroke-dashoffset:190;animation:IbbPKRwO_draw 125ms linear 2686ms forwards;}.IbbPKRwO_27{stroke-dasharray:142 144;stroke-dashoffset:143;animation:IbbPKRwO_draw 94ms linear 2811ms forwards;}.IbbPKRwO_28{stroke-dasharray:142 144;stroke-dashoffset:143;animation:IbbPKRwO_draw 94ms linear 2905ms forwards;}@keyframes IbbPKRwO_draw{100%{stroke-dashoffset:0;}}@keyframes IbbPKRwO_fade{0%{stroke-opacity:1;}94.44444444444444%{stroke-opacity:1;}100%{stroke-opacity:0;}}</style></svg>
