<svg version="1.1" id="Layer_1" xmlns="http://www.w3.org/2000/svg" x="0" y="0" viewBox="0 0 1174 1578.6" xml:space="preserve">
  <style>
    .st1{display:inline;fill:#050505}.st2{fill:#fff}
  </style>
  <g id="layer102">
    <path class="st2" d="M242.5 1540.3c-39.2-42.2-51.5-56.8-54.7-64.7-1.3-3.3-1.2-4.3 2.5-16 12.1-38.5 24.2-77.1 27.6-88.5 2.2-7.1 7.9-25.5 12.6-40.7 4.7-15.3 12.4-40.2 17.1-55.3s12.3-39.8 16.9-54.7c4.7-15 13.2-42.7 19-61.5 5.8-18.9 15.4-49.7 21.2-68.5 5.8-18.9 14.3-46.4 18.9-61.3 4.6-14.8 19.4-62.8 32.8-106.5 65.7-213.2 80.2-262.2 81.3-273 .7-6.9-.2-7.5-11.8-8.9-17.1-2-40.6-2.4-171.2-3l-134-.6-19.4-23.5c-10.7-12.9-35.5-43.2-55.3-67.2l-35.9-43.8.2-36.1.3-36.2L55 477l44.3 46.6H294c179.4 0 279.6.9 289.9 2.6 3 .5 4.2 1.1 4.2 2.3 0 5-15.8 59.5-37.5 129.6-7 22.6-16.7 54-21.6 69.9-4.9 15.9-11.8 38.2-15.4 49.5-3.5 11.3-11.2 36.1-17 55.1-5.9 19-14.4 46.7-19 61.5-7.8 25.4-14.4 46.5-39.9 129-5.7 18.7-25.8 84-44.6 145-18.8 61.1-42.9 139.6-53.7 174.5-26.9 87.3-32.7 106.8-37.9 126.9L297 1487l3.7 5.2c3.8 5.7 26.5 33 50.1 60.6l14.4 16.8h-95.6l-27.1-29.3z"/>
    <path class="st2" d="M505.9 1542.4c-13.5-15-32.9-36.5-43.2-47.8-10.2-11.3-18.6-21-18.6-21.5 0-.6 6.8-23.1 15.1-50 15.6-51 65.6-214.5 85.4-279.5 6.3-20.6 19.6-64.3 29.5-97 10-32.7 21-68.7 24.5-80s10.2-33.3 15-49c4.8-15.7 12.9-42.2 18-59 5.1-16.8 14.6-47.8 21-69 6.4-21.2 14-46.4 17-56 2.9-9.6 8.3-27.2 11.9-39 12.7-41.9 43.9-144 54.3-177.5 5.7-18.7 13.4-43.4 16.9-55 8.5-27.4 16.4-57 16.4-61.2 0-6.6-6.2-15.4-12.3-17.8-9.9-3.7-16.1-3.8-329.7-4.2l-306.5-.4-12.5-15.1c-6.9-8.3-24.1-28.8-38.3-45.7C55.6 300.9 36.4 278 27 266.9l-16.9-20.1.2-37.8.3-37.8 38.7 45.1L88 261.4l57.3.6c31.5.3 162.8 1 291.8 1.6 322.2 1.5 401.4 2.6 419 6.1 11.7 2.4 25 13.8 31.4 27.2 6.5 13.6 9 35.6 6.2 53.2-3.5 20.8-13.1 54.7-51.7 182.5-8.3 27.2-17.4 57.4-20.4 67-5.8 19-31.5 102.9-40 131-6.8 22.2-7.3 24-37.5 123.5-13.8 45.7-32.1 105.5-40.5 133-8.4 27.5-21.3 69.6-28.5 93.5-7.2 23.9-14.9 49.1-17 56-2.1 6.9-9.1 29.8-15.5 51-50.3 166.2-69.2 227.6-81.4 265.3-9.6 29.3-10.1 34-5.2 44.2 3.8 8 8.1 13.4 33.2 41.2 11.8 13.1 22.9 25.5 24.8 27.5l3.3 3.8h-86.8l-24.6-27.2z"/>
    <path class="st2" d="M766.3 1547.8c-9.7-9.7-29.1-29.7-43-44.4l-25.4-26.8 4.6-13.7c4.2-13 17.2-54.9 32-103.3 3.6-11.8 15.7-51.6 26.9-88.5 11.3-36.8 29.1-95.3 39.7-130 24.7-81.2 45.4-148.8 79.2-259 3.8-12.6 8.7-28.6 10.8-35.5 2.1-6.9 7-22.8 10.8-35.5 7.8-25.6 40-131.2 49.2-161.5 6.4-21.1 14.3-47.2 33.2-109 6.6-21.7 13.7-45.1 15.8-52 2.1-6.9 10.1-33.2 17.8-58.5 22.9-75.1 27-91 29.3-115 1.5-15.6.6-43.4-2-59-5-29.7-16.6-57.3-32.9-77.7-13.2-16.7-34.1-33.2-53.2-42.2-20.9-9.8-33.7-13-57.6-14.6-29.7-1.9-151.5-2.9-364.9-3-224.5-.1-381.6-1.2-405-3l-14-1-4.3-4.3c-9.1-8.8-77.9-87.6-80.3-91.9-.7-1.3-.4-2 1.1-2.8 5.6-3 44.5-3.2 479-2.7l432.9.5c3 0 6 .5 8.9 1.5L972 21c25.1 9.1 40 15.9 57.1 26.2 56.5 33.9 99.2 86.8 119.5 147.9 12 36.1 17 88.3 12.4 130.5-2 17.7-13.3 58.1-53 189.5-14.5 47.9-22.3 73.4-56.3 184-13.7 44.7-34.8 114-45.6 149.5-15.8 52.2-26 85.4-46.7 152.5-12.4 40.2-26.3 85.6-31 101-22.4 74.2-26.1 86.5-58.8 193.5-15.1 49.2-32.3 105.5-38.3 125-29.4 95-35.4 114.6-39.2 128-4.1 14.1-5.3 17-7.2 17-.5 0-8.9-8-18.6-17.8z"/>
  </g>
</svg>
