<?xml version="1.0" encoding="utf-8"?>
<!-- Generator: Adobe Illustrator 22.1.0, SVG Export Plug-In . SVG Version: 6.00 Build 0)  -->
<svg version="1.1" id="Layer_1" xmlns="http://www.w3.org/2000/svg" xmlns:xlink="http://www.w3.org/1999/xlink" x="0px" y="0px"
	 viewBox="0 0 1600 759" style="enable-background:new 0 0 1600 759;" xml:space="preserve">
<style type="text/css">
	.st0{fill:#0E54D7;}
	.st1{fill:#010204;}
</style>
<g>
	<g>
		<path class="st0" d="M1,760C1,507,1,254,1,1c533.3,0,1066.7,0,1600,0c0,253,0,506,0,759C1067.7,760,534.3,760,1,760z
			 M1108.1,251.6c-8.6-1.9-17-3.8-25.4-5.7c-20.5-4.5-37.1,5.8-41.8,26.1c-26.2,114.2-52.3,228.3-78.5,342.5
			c-4.7,20.7,5.7,37.4,26.8,42.2c109.1,25,218.3,50,327.5,74.9c4.3,1,9,1.4,13.3,0.9c15.7-2.1,25.1-12,29-29.3
			c14.1-62,28.4-123.9,42.5-185.9c12-52.4,24-104.8,35.8-157.2c3.5-15.4-5.1-31.1-19.7-37c-3.5-1.4-7.3-2.2-11-3.1
			c-7.2-1.8-14.4-3.4-21.7-5.1c0.8-3.9,1.6-7.2,2.2-10.4c2-12.1-4.8-21.2-17.7-24c-11.4-2.5-21.5,3.6-24.6,14.9
			c-0.8,3.2-1.6,6.3-2.5,9.9c-64.1-14.7-127.7-29.2-190.4-43.6c0-7.9,1.2-15.1-0.3-21.8c-1.7-7.7-8.5-11.4-16.2-12.9
			C1121.2,224.2,1115,229.6,1108.1,251.6z"/>
		<path class="st1" d="M1108.1,251.6c6.9-22,13.2-27.4,27.4-24.6c7.8,1.5,14.5,5.2,16.2,12.9c1.5,6.7,0.3,14,0.3,21.8
			c62.7,14.4,126.4,28.9,190.4,43.6c0.9-3.6,1.7-6.7,2.5-9.9c3-11.3,13.1-17.4,24.6-14.9c12.9,2.8,19.7,12,17.7,24
			c-0.5,3.3-1.3,6.5-2.2,10.4c7.3,1.7,14.5,3.3,21.7,5.1c3.7,0.9,7.5,1.7,11,3.1c14.6,5.9,23.1,21.6,19.7,37
			c-11.8,52.4-23.8,104.8-35.8,157.2c-14.2,62-28.4,123.9-42.5,185.9c-3.9,17.3-13.4,27.2-29,29.3c-4.3,0.6-9,0.1-13.3-0.9
			c-109.2-24.9-218.3-49.9-327.5-74.9c-21.1-4.8-31.5-21.5-26.8-42.2c26.1-114.2,52.3-228.4,78.5-342.5
			c4.7-20.3,21.2-30.6,41.8-26.1C1091,247.7,1099.4,249.6,1108.1,251.6z M1277.1,671.1c0.8-0.3,1.6-0.6,2.3-1
			c23.7-14.8,47.4-29.7,71-44.5c0.9-0.6,1.8-1.4,2.9-2.3c-1-0.4-1.6-0.7-2.2-0.9c-14.6-3.3-29.2-6.6-43.8-9.9
			c-10.8-2.4-17.8,2-20.3,12.8c-3.5,15.1-7,30.1-10.5,45.2c0,0.4,0,0.8,0,1.2C1276.7,671.5,1276.9,671.3,1277.1,671.1z
			 M1359.9,635.9c-1.6,0.8-3.3,1.5-4.8,2.5c-24.6,15.4-49.2,30.7-73.6,46.2c-9.2,5.9-18.9,7.6-29.6,5.2
			c-80-18.4-160-36.6-239.9-55.1c-12.8-3-26.8-3.4-37.2-15.2c-0.1,2.9-0.4,4.7-0.2,6.4c1,9.6,7.2,15.5,18.5,18.1
			c89.9,20.6,179.7,41.1,269.6,61.7c18.8,4.3,37.6,8.6,56.5,12.9c13.5,3.1,22.9-2.7,26.3-16c0.7-2.9,1.4-5.8,2-8.8
			c4.3-19.2,8.6-38.3,12.8-57.5c0-0.3,0.1-0.6,0.1-1C1360.2,635.5,1360.1,635.7,1359.9,635.9z M1410.3,417.7
			c0.5-1.5,0.9-2.6,1.2-3.7c4.2-18.5,8.6-37,12.6-55.5c2.6-12.1-3.7-21.7-16-24.6c-16.2-3.7-32.4-7.4-48.7-11.1
			c-2.2-0.5-4.4-0.8-6.4-1.2c-0.5,0.9-0.8,1.1-0.8,1.4c-1.1,4.5-2.2,9.1-3.2,13.6c-1.7,7.8-1.5,8.4,5.6,12.1
			c3.5,1.9,4.7,4.7,3.4,8.4c-1.3,3.5-4.3,5.1-7.6,3.9c-3.8-1.5-7.7-3.4-10.5-6.2c-5.1-5-6-11.7-4.4-18.6c1.3-5.9,2.6-11.8,4-18
			c-74.1-17-147.3-33.7-221-50.6c-1.3,5.8-2.6,11.1-3.8,16.4c-1.5,6.5-0.8,7.9,5.3,10.9c3.8,1.8,5.2,4.9,3.8,8.6
			c-1.4,3.8-4.6,4.9-8.6,3.8c-7.8-2.2-14-9.2-14.3-17.4c-0.1-4.1,0.8-8.2,1.5-12.3c0.8-4.3,1.9-8.6,2.9-13.1
			c-9.3-2.1-17.7-4-26.1-5.9c-12.7-2.8-22.4,3.3-25.3,16c-3,13-6,25.9-8.9,38.9c-1.4,6.3-2.9,12.6-4.4,19.2c3.1,0.8,5.6,1.4,8.2,2
			c20.1,4.6,40.2,9.2,60.3,13.9c5.4,1.3,7.7,5.4,5.6,9.6c-2.1,4.1-5.7,4.1-9.5,3.2c-20.6-4.7-41.2-9.5-61.8-14.2
			c-1.9-0.4-3.8-0.7-5.4-1c-0.5,0.9-0.7,1.2-0.7,1.5c-18.7,81.6-37.5,163.2-56,244.8c-2.9,12.6,3.7,22.2,16.6,25.1
			c82.4,18.9,164.8,37.7,247.2,56.5c10.4,2.4,17.7-2.2,20.1-12.5c3-13.1,6-26.3,9-39.4c4.1-18,18.4-26.9,36.3-22.9
			c13,3,26,5.9,38.9,8.9c11.1,2.5,18.2-1.9,20.7-12.9c12.2-53.2,24.4-106.4,36.5-159.6c0.4-1.6,0.5-3.2,0.8-4.9
			c-1.5-0.4-2.6-0.8-3.7-1.1c-37.8-8.7-75.6-17.3-113.4-26c-51.4-11.8-102.8-23.5-154.3-35.3c-6.2-1.4-8.9-4.5-7.9-8.8
			c1-4.3,4.6-5.6,11.1-4.1c77,17.6,154.1,35.3,231.1,52.9C1383.6,411.7,1396.9,414.7,1410.3,417.7z M1355.5,308.3
			c5.8,1.3,10.9,2.5,16.4,3.7c0.4-5.7,5-11.2,0.1-15.8c-2.2-2-7.1-3.1-9.9-2.1C1355.8,296.3,1357.7,303.1,1355.5,308.3z
			 M1121.4,254.7c5.9,1.3,10.9,2.4,16.5,3.7c0.2-5.7,5.1-11.2,0-15.8c-2.2-2-7.2-3.1-10-2.1C1121.7,242.7,1123.4,249.4,1121.4,254.7
			z"/>
		<path class="st0" d="M1410.3,417.7c-13.4-3-26.7-6-40-9.1c-77-17.6-154.1-35.3-231.1-52.9c-6.5-1.5-10.1-0.1-11.1,4.1
			c-1,4.3,1.6,7.4,7.9,8.8c51.4,11.8,102.8,23.5,154.3,35.3c37.8,8.6,75.6,17.3,113.4,26c1.1,0.3,2.2,0.6,3.7,1.1
			c-0.3,1.7-0.5,3.3-0.8,4.9c-12.2,53.2-24.3,106.4-36.5,159.6c-2.5,11-9.6,15.4-20.7,12.9c-13-3-26-5.9-38.9-8.9
			c-17.9-4.1-32.2,4.9-36.3,22.9c-3,13.1-6,26.3-9,39.4c-2.4,10.4-9.7,14.9-20.1,12.5c-82.4-18.8-164.8-37.7-247.2-56.5
			c-12.9-2.9-19.4-12.5-16.6-25.1c18.6-81.6,37.3-163.2,56-244.8c0.1-0.3,0.3-0.6,0.7-1.5c1.7,0.3,3.6,0.5,5.4,1
			c20.6,4.7,41.2,9.5,61.8,14.2c3.8,0.9,7.4,0.9,9.5-3.2c2.1-4.2-0.2-8.3-5.6-9.6c-20.1-4.7-40.2-9.3-60.3-13.9
			c-2.6-0.6-5.1-1.2-8.2-2c1.5-6.7,2.9-13,4.4-19.2c3-13,5.9-26,8.9-38.9c3-12.8,12.6-18.9,25.3-16c8.4,1.9,16.8,3.8,26.1,5.9
			c-1,4.5-2.1,8.8-2.9,13.1c-0.7,4.1-1.7,8.2-1.5,12.3c0.3,8.1,6.4,15.2,14.3,17.4c4,1.1,7.2,0,8.6-3.8c1.4-3.8,0-6.8-3.8-8.6
			c-6.1-3-6.8-4.4-5.3-10.9c1.2-5.3,2.4-10.7,3.8-16.4c73.7,16.9,146.9,33.6,221,50.6c-1.4,6.2-2.6,12.1-4,18
			c-1.6,6.9-0.7,13.5,4.4,18.6c2.8,2.8,6.7,4.8,10.5,6.2c3.3,1.3,6.3-0.4,7.6-3.9c1.3-3.6,0.1-6.5-3.4-8.4c-7-3.7-7.3-4.3-5.6-12.1
			c1-4.5,2.1-9.1,3.2-13.6c0.1-0.3,0.3-0.6,0.8-1.4c2,0.4,4.2,0.7,6.4,1.2c16.2,3.7,32.5,7.4,48.7,11.1c12.2,2.8,18.6,12.4,16,24.6
			c-4.1,18.5-8.4,37-12.6,55.5C1411.2,415.2,1410.8,416.2,1410.3,417.7z M1312.8,522.1c-7.9,0-12.9,4.2-14.5,11.1
			c-2.3,9.5-4.4,19.1-6.5,28.7c-1.9,8.6,1.9,14.7,10.5,16.8c9.7,2.3,19.4,4.5,29.2,6.6c8.1,1.7,14.2-2.1,16.1-10.1
			c2.5-10.2,4.8-20.4,7-30.6c1.3-6.2-2-12.7-8-14.3C1334.9,527,1323,524.5,1312.8,522.1z M1263.9,484c8.4,0,13.3-4.1,15-11.1
			c2.2-9.6,4.4-19.1,6.5-28.7c1.8-8.3-1.9-14.5-10.2-16.5c-9.7-2.4-19.4-4.6-29.2-6.7c-8.5-1.8-14.5,1.9-16.5,10.3
			c-2.4,9.9-4.7,19.8-6.6,29.7c-0.5,2.6-0.3,5.8,0.8,8.2c1.2,2.5,3.5,5.6,6,6.3C1241.5,478.8,1253.7,481.5,1263.9,484z
			 M1204.1,541.7c-0.1,8.3,4,13.3,10.9,14.9c9.7,2.3,19.5,4.5,29.2,6.6c8.1,1.7,14.2-2,16.2-10.1c2.4-9.7,4.6-19.4,6.7-29.2
			c1.8-8.7-2-14.7-10.6-16.8c-9.7-2.3-19.4-4.6-29.2-6.6c-2.5-0.5-5.6-0.5-7.7,0.6c-2.8,1.4-6.2,3.8-7,6.5
			C1209.1,519.5,1206.5,531.5,1204.1,541.7z M1089.7,443.9c7.2-0.1,12-3.9,13.6-10.3c2.4-9.8,4.7-19.7,6.8-29.6
			c1.8-8.6-2-14.6-10.6-16.7c-9.7-2.3-19.4-4.5-29.2-6.6c-7.7-1.6-14,2.1-15.9,9.8c-2.5,10.1-4.8,20.4-7,30.6
			c-1.5,6.9,2.2,13,9,15.1c3.3,1,6.8,1.7,10.2,2.5C1074.6,440.6,1082.7,442.4,1089.7,443.9z M1198.1,423c0.3-8.7-3.1-13.6-9.8-15.2
			c-10.3-2.6-20.7-4.9-31.1-7.1c-6.7-1.4-13.1,2.2-14.8,8.8c-2.8,10.6-5.2,21.3-7.3,32.1c-1.4,7.4,2.6,13.3,9.9,15
			c10.3,2.6,20.7,4.9,31.1,7.1c6,1.3,12.4-1.9,14-7.8C1193.3,444.4,1195.8,432.7,1198.1,423z M1373.4,461.9c0-7.5-3.5-12.4-9.6-13.9
			c-10.5-2.6-21-5.1-31.6-7.2c-7-1.4-13.1,2.5-14.9,9.4c-2.6,10.3-5,20.7-7.1,31.1c-1.5,7.2,2.4,13.5,9.5,15.3
			c10.3,2.6,20.7,5,31.1,7.2c7.1,1.5,13.2-2.6,15.2-9.7c0.6-2.1,1.1-4.2,1.5-6.3C1369.7,478.7,1371.7,469.6,1373.4,461.9z
			 M1116.4,522.5c0.1,7.3,3.9,12.2,10.3,13.8c10,2.5,20.1,4.8,30.2,6.9c7.8,1.6,14-2.2,15.9-9.9c2.5-10,4.8-20.1,6.9-30.2
			c1.6-7.4-2.3-13.8-9.7-15.7c-10.3-2.6-20.7-4.9-31.1-7.2c-6.6-1.4-12.8,2.5-14.8,8.9c-0.7,2.2-1.2,4.5-1.7,6.8
			C1120.3,505.3,1118.2,514.5,1116.4,522.5z M1092.3,482.7c0.4-8.7-3.6-13.8-10.7-15.5c-9.7-2.3-19.4-4.5-29.2-6.7
			c-7.7-1.7-14.3,2.1-16.1,9.6c-2.5,10.2-4.9,20.4-7,30.6c-1.5,7.1,2.1,13.5,8.9,15.2c10.8,2.8,21.7,5.2,32.6,7.5
			c5.8,1.2,12-2.1,13.6-7.7C1087.4,504.2,1089.9,492.4,1092.3,482.7z M1051.5,603.2c8.5,0.2,13.7-3.3,15.2-9.4
			c2.6-10.3,5-20.7,7.1-31.1c1.5-7.3-2.4-13.7-9.4-15.4c-10.3-2.6-20.7-5-31.1-7.1c-6.8-1.4-13.2,1.9-14.8,8.1
			c-3,11.2-5.5,22.6-7.7,34c-1.1,5.7,2.1,11.3,7.4,12.8C1029.9,598.3,1041.8,600.8,1051.5,603.2z M1139.1,623.3
			c8.8,0.2,13.8-3.5,15.5-10.5c2.4-10,4.7-20.1,6.8-30.2c1.5-7.1-2.4-13.6-9.4-15.3c-10.2-2.6-20.4-4.9-30.6-7
			c-7.8-1.6-14,2.3-15.9,10c-2.5,10.2-4.8,20.4-7,30.7c-1.3,6.1,1.6,12.5,7.4,14.2C1117.5,618.4,1129.4,620.9,1139.1,623.3z
			 M1229.1,630.1c-9.3-2.1-17.9-4-26.5-6.2c-1.5-0.4-2.9-2.2-3.6-3.6c-1.5-3.3-4-5.6-7.3-4.4c-2.3,0.9-4.9,3.6-5.5,5.9
			c-1.5,5.9,2.2,12.2,8.1,13.8c11.3,3,22.6,5.5,34.1,7.7c6,1.1,11.7-2.6,13.2-8.3c2.9-10.9,5.4-22,7.5-33.1c1.3-7-2.6-12.7-9.3-14.4
			c-10.3-2.6-20.7-5-31.1-7.1c-6.9-1.4-13,2.1-15,8.5c-1.1,3.3-1.9,6.7-2.4,10.2c-0.6,4.1,1.3,7,5.3,7.8c3.8,0.8,6.4-1.2,7.6-4.9
			c0.8-2.7,1.5-5.4,2.3-8.5c10.2,2.3,19.9,4.6,29.7,6.9C1233.6,610.5,1231.4,620,1229.1,630.1z"/>
		<path class="st0" d="M1360.3,636.3c-4.3,19.2-8.6,38.3-12.9,57.5c-0.7,2.9-1.3,5.8-2,8.8c-3.3,13.4-12.8,19.1-26.3,16
			c-18.8-4.3-37.6-8.6-56.5-12.9c-89.9-20.6-179.7-41.2-269.6-61.7c-11.3-2.6-17.5-8.5-18.5-18.1c-0.2-1.7,0.1-3.5,0.2-6.4
			c10.4,11.9,24.4,12.3,37.2,15.2c79.9,18.5,159.9,36.7,239.9,55.1c10.7,2.5,20.3,0.7,29.6-5.2c24.5-15.5,49.1-30.9,73.6-46.2
			c1.5-1,3.2-1.7,4.8-2.5C1360,636,1360.2,636.2,1360.3,636.3z"/>
		<path class="st0" d="M1276.4,670.5c3.5-15.1,7-30.1,10.5-45.2c2.5-10.8,9.6-15.2,20.3-12.8c14.6,3.3,29.2,6.6,43.8,9.9
			c0.6,0.1,1.2,0.5,2.2,0.9c-1.1,0.9-2,1.7-2.9,2.3c-23.7,14.9-47.3,29.7-71,44.5c-0.7,0.4-1.5,0.7-2.3,1
			C1276.9,670.9,1276.7,670.7,1276.4,670.5z"/>
		<path class="st0" d="M1355.5,308.3c2.2-5.2,0.3-12,6.6-14.2c2.8-1,7.7,0.1,9.9,2.1c4.9,4.6,0.3,10.1-0.1,15.8
			C1366.4,310.7,1361.4,309.6,1355.5,308.3z"/>
		<path class="st0" d="M1121.4,254.7c2.1-5.3,0.3-12,6.4-14.2c2.8-1,7.8,0,10,2.1c5.1,4.7,0.3,10.1,0,15.8
			C1132.3,257.1,1127.3,256,1121.4,254.7z"/>
		<path class="st0" d="M1359.9,635.9c0.2-0.2,0.3-0.3,0.5-0.5c0,0.3-0.1,0.6-0.1,1C1360.2,636.2,1360,636,1359.9,635.9z"/>
		<path class="st0" d="M1277.1,671.1c-0.2,0.2-0.4,0.4-0.6,0.6c0-0.4,0-0.8,0-1.2C1276.7,670.7,1276.9,670.9,1277.1,671.1z"/>
		<path class="st1" d="M1312.8,522.1c10.2,2.4,22.1,4.9,33.8,8.1c6,1.6,9.3,8.2,8,14.3c-2.2,10.2-4.5,20.4-7,30.6
			c-2,8-8.1,11.8-16.1,10.1c-9.7-2.1-19.5-4.2-29.2-6.6c-8.6-2.1-12.3-8.2-10.5-16.8c2.1-9.6,4.2-19.1,6.5-28.7
			C1299.9,526.3,1304.9,522.1,1312.8,522.1z M1311.4,535.5c-2.4,10.4-4.5,20-6.8,30c10.4,2.4,20,4.5,29.9,6.8
			c2.3-10.3,4.5-20,6.8-29.9C1331.1,540,1321.6,537.8,1311.4,535.5z"/>
		<path class="st1" d="M1263.9,484c-10.2-2.5-22.3-5.2-34.3-8.6c-2.4-0.7-4.8-3.7-6-6.3c-1.1-2.3-1.3-5.6-0.8-8.2
			c2-10,4.2-19.9,6.6-29.7c2-8.4,8-12.1,16.5-10.3c9.8,2.1,19.5,4.3,29.2,6.7c8.3,2.1,12,8.2,10.2,16.5c-2.1,9.6-4.3,19.2-6.5,28.7
			C1277.2,479.9,1272.3,484,1263.9,484z M1235.7,463.7c10.2,2.3,19.9,4.5,30,6.8c2.4-10.4,4.5-20.1,6.7-29.9
			c-10.4-2.4-19.9-4.5-29.9-6.8C1240.2,443.9,1238,453.5,1235.7,463.7z"/>
		<path class="st1" d="M1204.1,541.7c2.4-10.1,5-22.2,8.4-34c0.8-2.7,4.2-5.1,7-6.5c2.1-1.1,5.2-1.1,7.7-0.6
			c9.8,2,19.5,4.3,29.2,6.6c8.5,2,12.4,8.1,10.6,16.8c-2.1,9.8-4.3,19.5-6.7,29.2c-2,8.1-8.1,11.8-16.2,10.1
			c-9.8-2.1-19.5-4.3-29.2-6.6C1208,554.9,1204,550,1204.1,541.7z M1224.3,513.5c-2.4,10.4-4.5,20.1-6.8,30
			c10.4,2.4,20,4.5,29.9,6.8c2.3-10.3,4.5-19.9,6.8-29.9C1244.1,518.1,1234.5,515.9,1224.3,513.5z"/>
		<path class="st1" d="M1089.7,443.9c-7-1.6-15.1-3.4-23.2-5.2c-3.4-0.8-6.8-1.5-10.2-2.5c-6.8-2.1-10.5-8.2-9-15.1
			c2.2-10.2,4.5-20.4,7-30.6c1.9-7.7,8.2-11.4,15.9-9.8c9.7,2.1,19.5,4.3,29.2,6.6c8.6,2.1,12.5,8.1,10.6,16.7
			c-2.1,9.9-4.4,19.8-6.8,29.6C1101.7,440,1096.9,443.8,1089.7,443.9z M1067.3,393.7c-2.3,10.2-4.5,20-6.8,30
			c10.5,2.4,20.1,4.5,29.9,6.7c2.4-10.4,4.5-19.9,6.8-29.9C1087.1,398.2,1077.5,396,1067.3,393.7z"/>
		<path class="st1" d="M1198.1,423c-2.3,9.7-4.8,21.4-8,32.9c-1.6,5.9-8,9.1-14,7.8c-10.4-2.2-20.8-4.5-31.1-7.1
			c-7.3-1.8-11.3-7.6-9.9-15c2.1-10.8,4.5-21.5,7.3-32.1c1.7-6.6,8.1-10.2,14.8-8.8c10.4,2.2,20.8,4.5,31.1,7.1
			C1195,409.5,1198.4,414.4,1198.1,423z M1148.1,443.7c10.2,2.3,19.9,4.5,30,6.8c2.3-10.4,4.5-20,6.7-29.9
			c-10.3-2.4-20-4.5-29.9-6.8C1152.6,423.9,1150.4,433.4,1148.1,443.7z"/>
		<path class="st1" d="M1373.4,461.9c-1.7,7.7-3.8,16.8-5.8,25.9c-0.5,2.1-1,4.2-1.5,6.3c-2,7.1-8.1,11.2-15.2,9.7
			c-10.4-2.2-20.8-4.5-31.1-7.2c-7.1-1.8-11-8-9.5-15.3c2.1-10.4,4.5-20.8,7.1-31.1c1.7-6.9,7.9-10.8,14.9-9.4
			c10.6,2.1,21.1,4.6,31.6,7.2C1369.9,449.5,1373.4,454.4,1373.4,461.9z M1330.1,453.8c-2.3,10.1-4.5,19.8-6.8,30
			c9.5,2.2,18.5,4.3,27.5,6.2c0.8,0.2,2.7-0.9,2.9-1.6c2.2-9.1,4.2-18.2,6.3-27.6C1349.9,458.4,1340.4,456.2,1330.1,453.8z"/>
		<path class="st1" d="M1116.4,522.5c1.8-8,3.9-17.3,6-26.5c0.5-2.3,1-4.6,1.7-6.8c2-6.4,8.2-10.3,14.8-8.9
			c10.4,2.2,20.8,4.5,31.1,7.2c7.4,1.9,11.3,8.3,9.7,15.7c-2.2,10.1-4.5,20.2-6.9,30.2c-1.9,7.6-8.1,11.5-15.9,9.9
			c-10.1-2.1-20.2-4.4-30.2-6.9C1120.3,534.7,1116.5,529.8,1116.4,522.5z M1166.6,500.3c-10.2-2.3-19.8-4.5-29.9-6.8
			c-2.3,10.2-4.6,19.8-6.9,29.9c10.2,2.3,19.9,4.5,30,6.8C1162.1,520,1164.3,510.3,1166.6,500.3z"/>
		<path class="st1" d="M1092.3,482.7c-2.3,9.8-4.8,21.5-8,33c-1.6,5.7-7.8,8.9-13.6,7.7c-10.9-2.2-21.8-4.7-32.6-7.5
			c-6.8-1.7-10.4-8.1-8.9-15.2c2.1-10.3,4.5-20.5,7-30.6c1.9-7.5,8.5-11.3,16.1-9.6c9.7,2.2,19.5,4.4,29.2,6.7
			C1088.6,468.8,1092.6,473.9,1092.3,482.7z M1049.1,473.4c-2.3,10.4-4.5,20-6.8,30c10.4,2.4,20,4.5,29.9,6.8
			c2.3-10.2,4.5-19.9,6.8-29.9C1069,478,1059.4,475.8,1049.1,473.4z"/>
		<path class="st1" d="M1051.5,603.2c-9.7-2.3-21.6-4.9-33.2-8.2c-5.3-1.5-8.5-7.1-7.4-12.8c2.2-11.4,4.7-22.8,7.7-34
			c1.6-6.2,8-9.5,14.8-8.1c10.4,2.1,20.8,4.5,31.1,7.1c7,1.8,10.9,8.1,9.4,15.4c-2.1,10.4-4.5,20.8-7.1,31.1
			C1065.1,599.9,1059.9,603.4,1051.5,603.2z M1053.9,590c2.3-10.1,4.5-19.8,6.8-30c-10.3-2.3-19.9-4.5-29.9-6.8
			c-2.3,10.3-4.5,19.9-6.8,29.9C1034.2,585.4,1043.8,587.6,1053.9,590z"/>
		<path class="st1" d="M1139.1,623.3c-9.7-2.3-21.6-4.8-33.2-8.2c-5.8-1.7-8.8-8.1-7.4-14.2c2.2-10.2,4.5-20.5,7-30.7
			c1.9-7.7,8.1-11.6,15.9-10c10.3,2.1,20.5,4.5,30.6,7c7,1.8,10.9,8.3,9.4,15.3c-2.2,10.1-4.4,20.2-6.8,30.2
			C1152.9,619.7,1147.9,623.5,1139.1,623.3z M1118.4,573.2c-2.3,10.4-4.5,20-6.8,30c10.3,2.4,19.9,4.6,29.9,6.8
			c2.3-10.1,4.5-19.8,6.8-29.9C1138.3,577.8,1128.6,575.6,1118.4,573.2z"/>
		<path class="st1" d="M1229.1,630.1c2.3-10,4.5-19.6,6.9-29.9c-9.8-2.3-19.6-4.5-29.7-6.9c-0.8,3.1-1.4,5.9-2.3,8.5
			c-1.2,3.7-3.8,5.7-7.6,4.9c-4-0.8-5.9-3.7-5.3-7.8c0.5-3.4,1.3-6.9,2.4-10.2c2.1-6.4,8.2-10,15-8.5c10.4,2.2,20.8,4.5,31.1,7.1
			c6.7,1.7,10.7,7.5,9.3,14.4c-2.1,11.1-4.7,22.1-7.5,33.1c-1.5,5.8-7.2,9.5-13.2,8.3c-11.4-2.1-22.8-4.7-34.1-7.7
			c-5.9-1.5-9.5-7.9-8.1-13.8c0.6-2.4,3.2-5.1,5.5-5.9c3.3-1.2,5.8,1.1,7.3,4.4c0.7,1.5,2.2,3.3,3.6,3.6
			C1211.2,626.1,1219.8,627.9,1229.1,630.1z"/>
		<path class="st0" d="M1311.4,535.5c10.2,2.3,19.7,4.5,29.9,6.8c-2.3,9.9-4.4,19.6-6.8,29.9c-9.9-2.2-19.6-4.4-29.9-6.8
			C1306.9,555.5,1309.1,545.9,1311.4,535.5z"/>
		<path class="st0" d="M1235.7,463.7c2.3-10.2,4.6-19.9,6.9-29.9c9.9,2.3,19.5,4.4,29.9,6.8c-2.2,9.9-4.4,19.5-6.7,29.9
			C1255.6,468.3,1245.9,466,1235.7,463.7z"/>
		<path class="st0" d="M1224.3,513.5c10.2,2.3,19.8,4.5,30,6.8c-2.3,10-4.5,19.6-6.8,29.9c-9.9-2.3-19.5-4.4-29.9-6.8
			C1219.7,533.6,1221.9,524,1224.3,513.5z"/>
		<path class="st0" d="M1067.3,393.7c10.1,2.3,19.8,4.5,29.9,6.9c-2.3,9.9-4.4,19.5-6.8,29.9c-9.9-2.2-19.5-4.4-29.9-6.7
			C1062.8,413.6,1065,403.9,1067.3,393.7z"/>
		<path class="st0" d="M1148.1,443.7c2.4-10.3,4.5-19.8,6.9-29.9c9.9,2.3,19.5,4.4,29.9,6.8c-2.2,9.9-4.4,19.5-6.7,29.9
			C1168,448.2,1158.3,446,1148.1,443.7z"/>
		<path class="st0" d="M1330.1,453.8c10.3,2.4,19.8,4.5,29.9,6.9c-2.1,9.4-4.1,18.5-6.3,27.6c-0.2,0.8-2,1.8-2.9,1.6
			c-9-1.9-18-4-27.5-6.2C1325.6,473.6,1327.8,464,1330.1,453.8z"/>
		<path class="st0" d="M1166.6,500.3c-2.3,10-4.4,19.7-6.8,29.9c-10.1-2.3-19.8-4.5-30-6.8c2.3-10.1,4.5-19.7,6.9-29.9
			C1146.8,495.8,1156.4,498,1166.6,500.3z"/>
		<path class="st0" d="M1049.1,473.4c10.3,2.4,20,4.6,30,6.9c-2.3,10.1-4.5,19.7-6.8,29.9c-9.9-2.3-19.5-4.4-29.9-6.8
			C1044.5,493.4,1046.7,483.8,1049.1,473.4z"/>
		<path class="st0" d="M1053.9,590c-10.1-2.3-19.8-4.5-29.9-6.9c2.3-10,4.5-19.6,6.8-29.9c10,2.3,19.6,4.4,29.9,6.8
			C1058.4,570.1,1056.2,579.9,1053.9,590z"/>
		<path class="st0" d="M1118.4,573.2c10.2,2.3,19.9,4.6,30,6.9c-2.3,10.2-4.5,19.8-6.8,29.9c-10-2.3-19.6-4.5-29.9-6.8
			C1113.9,593.2,1116.1,583.6,1118.4,573.2z"/>
	</g>
</g>
</svg>
