<?xml version="1.0" encoding="utf-8"?>
<!-- Generator: Adobe Illustrator 22.1.0, SVG Export Plug-In . SVG Version: 6.00 Build 0)  -->
<svg version="1.1" id="Layer_1" xmlns="http://www.w3.org/2000/svg" xmlns:xlink="http://www.w3.org/1999/xlink" x="0px" y="0px"
	 viewBox="0 0 1000 710" style="enable-background:new 0 0 1000 710;" xml:space="preserve">
<style type="text/css">
	.st0{fill:#4D9398;}
	.st1{fill:#FDFDFD;}
</style>
<g>
	<g>
		<path class="st0" d="M1001,711c-333.3,0-666.7,0-1000,0C1,474.3,1,237.7,1,1c333.3,0,666.7,0,1000,0
			C1001,237.7,1001,474.3,1001,711z M810,671.5c96.3-1.6,172.4-77.2,172.5-173.3c0.1-98.1-79.3-174.4-173.8-173.8
			c-96.6,0.6-173.8,79.9-172.8,173.9C636.8,594.1,712.4,670.8,810,671.5z"/>
		<path class="st1" d="M810,671.5c-97.6-0.7-173.2-77.4-174.1-173.2c-0.9-94,76.3-173.2,172.8-173.9c94.6-0.6,174,75.7,173.8,173.8
			C982.5,594.3,906.3,669.9,810,671.5z M953.7,499.4c0.3-80.1-63.9-145.7-144.1-145.6c-79.4,0-141.8,62.6-144.5,138.6
			c-3,84.4,65.1,150,143.8,149.9C888.1,642.1,952.7,579,953.7,499.4z"/>
		<path class="st0" d="M953.7,499.4c-1,79.6-65.5,142.8-144.9,142.8C730.2,642.3,662,576.7,665,492.3c2.7-76,65.1-138.5,144.5-138.6
			C889.8,353.7,954,419.3,953.7,499.4z M802.3,434.9c-7,0-9.8,2.3-10.9,7.5c-6.8,33.7-13.9,67.4-20.8,101.1
			c-1.2,5.9,3.7,10.9,9.7,9.8c3.1-0.5,6.2-1.4,9-2.6c24-10.9,48-21.9,72-32.9c8.4-3.9,9.4-10.1,3.1-17c-6.5-7.1-12.9-14.3-19.4-21.5
			c-11.8-13.1-23.5-26.3-35.4-39.2C807.3,437.5,803.8,435.9,802.3,434.9z"/>
		<path class="st1" d="M802.3,434.9c1.5,1.1,5,2.6,7.3,5.1c12,12.9,23.7,26.1,35.4,39.2c6.5,7.2,12.9,14.4,19.4,21.5
			c6.3,6.9,5.3,13.1-3.1,17c-24,11-48,22-72,32.9c-2.8,1.3-6,2.1-9,2.6c-6,1-10.9-3.9-9.7-9.8c6.9-33.7,14-67.4,20.8-101.1
			C792.5,437.1,795.3,434.8,802.3,434.9z"/>
	</g>
</g>
</svg>
