<svg version="1.1" id="Layer_1" xmlns="http://www.w3.org/2000/svg" x="0" y="0" viewBox="0 0 1600 757" xml:space="preserve">
  <style>
    .st0{fill:#2f43b5}.st1{fill:#010103}
  </style>
  <path class="st0" d="M1 758V1h1600v757H1zm993.4-451.3c-.4 2.2-.6 4.2-1 6.1-14.8 75-29.6 149.9-44.4 224.9-1.8 9-.2 11.2 8.8 13 43 8.5 85.9 16.9 128.9 25.4 15 3 30 6 45.1 9-.2 1.2-.2 2-.4 2.8-5.7 28.7-11.4 57.5-17.1 86.2-1.7 8.6 0 11.1 8.6 12.8 73.5 14.5 147 29.1 220.5 43.7 9.1 1.8 11.7.1 13.5-9 5-25.1 10-50.3 14.9-75.4 4-20.2 8-40.5 12-60.8 1.3-6.5-.4-10.2-6.1-10.9-6.1-.8-6.2-3.6-5-8.4.9-3.5 1.9-7.6.9-10.7-1-2.8-4.7-4.6-7.5-7 7.7-5.2 15.9-10.6 24-16.1 6.5-4.4 7.1-7.5 2.7-14.1-6.2-9.3-12.4-18.6-18.6-27.8-5.1-7.5-5.6-7.8-14.8-5.9 6.7-34 13.4-67.7 20.1-101.5 1.6 0 2.7-.1 3.9 0 8.9 1.4 11-.1 12.7-8.7 5.1-25.8 10.2-51.6 15.2-77.4 2-10.2.7-12-9.8-14.1-41.2-8.1-82.3-16.2-123.5-24.4-88.8-17.6-177.7-35.2-266.5-52.7-9.7-1.9-11.5-.5-13.4 9.4-4.8 24.3-9.6 48.7-14.5 73-2.9 14.2-3 14.2 10.8 18.6z"/>
  <path class="st1" d="M994.4 306.7c-13.9-4.5-13.8-4.5-11-18.4 4.9-24.3 9.7-48.7 14.5-73 1.9-9.9 3.8-11.3 13.4-9.4 88.8 17.6 177.7 35.2 266.5 52.7 41.2 8.1 82.3 16.3 123.5 24.4 10.5 2.1 11.8 3.8 9.8 14.1-5.1 25.8-10.2 51.6-15.2 77.4-1.7 8.6-3.8 10-12.7 8.7-1.1-.2-2.3 0-3.9 0-6.7 33.8-13.3 67.5-20.1 101.5 9.2-1.9 9.8-1.7 14.8 5.9 6.2 9.3 12.4 18.5 18.6 27.8 4.4 6.6 3.8 9.7-2.7 14.1-8.1 5.5-16.3 10.9-24 16.1 2.7 2.4 6.5 4.3 7.5 7 1.1 3.1 0 7.2-.9 10.7-1.2 4.8-1.2 7.6 5 8.4 5.8.7 7.4 4.3 6.1 10.9-4 20.3-8 40.5-12 60.8-5 25.1-10 50.3-14.9 75.4-1.8 9.1-4.3 10.8-13.5 9-73.5-14.6-147-29.1-220.5-43.7-8.5-1.7-10.3-4.3-8.6-12.8 5.7-28.7 11.4-57.5 17.1-86.2.2-.8.2-1.6.4-2.8-15.1-3-30.1-6.1-45.1-9-43-8.5-85.9-16.9-128.9-25.4-9.1-1.8-10.6-4-8.8-13 14.8-75 29.6-149.9 44.4-224.9.6-2.1.9-4.1 1.2-6.3zm140.4 264.1c2.2-11.3 4.3-21.9 6.4-32.5 1.6-7.9 3.9-9.5 11.7-8.3 1.4.2 2.9.3 4.6.5.5-2.5 1-4.5 1.4-6.6 3.6-18.3 7.2-36.6 10.9-54.9 1.4-7 4.2-8.8 11.4-7.4 10.4 2.1 20.9 4.2 31.3 6.2 9.9 1.9 19.8 3.8 30.2 5.8 1.4-6.9 2.7-13.2 4-19.5 1.4-6.3 3.9-8.1 10.3-7.1 3.3.5 6.5 1.3 9.8 1.9 19.1 3.8 38.2 7.5 57.3 11.3 7.5 1.5 9.3 4.2 7.8 12-.5 2.9-1.2 5.9-1.7 8.8-1.7 8.9-3.4 17.7-5.4 27.8 4.5-3 7.8-5.6 11.5-7.4 4.3-2.2 5.8-5.6 6.7-10.2 4.9-26 10.2-51.9 15.4-77.9 2.2-11.1 4.3-22.1 6.6-33.7-118.8-23.5-237.1-46.9-356-70.5-15 76.1-29.9 151.7-45 227.9 56.8 11.2 113.5 22.4 170.8 33.8zM997.7 292c128.4 25.4 256.2 50.7 384.6 76.1 4.7-23.9 9.3-47.2 14.1-71.1-128.3-25.4-256.2-50.7-384.6-76.1-4.8 23.9-9.4 47.1-14.1 71.1zm131.9 381c1.5.5 2.4.8 3.3 1 68.5 13.6 137.1 27.2 205.6 40.8 3.8.8 4.8-.6 5.5-4.1 6.1-31.5 12.5-63 18.7-94.5 1.9-9.4 3.6-18.9 5.5-28.7-5.4-1.1-10.2-2.1-15.1-3.1-64.5-12.8-128.9-25.5-193.4-38.4-3.5-.7-5.2-.2-6 3.9-6.4 33.3-13.1 66.6-19.7 99.9-1.4 7.8-2.9 15.4-4.4 23.2zm42.3-139.3c28.6 5.6 56.7 11.2 84.7 16.7.6-1.1 1-1.5 1.1-2 3.4-17 6.7-34 10.2-50.9.6-3-.3-4.1-3.4-4.7-9.2-1.6-18.3-3.6-27.4-5.4-17.8-3.5-35.6-7-53.9-10.6-3.8 19-7.5 37.7-11.3 56.9zm191.5-32.9c-27 18.1-53.8 36-81.6 54.7 12.6 2.5 23.8 4.8 35 6.7 1.6.3 3.8-.9 5.3-2 17.5-11.6 34.9-23.3 52.3-35 1.2-.8 2.3-1.7 3.6-2.7-4.9-7.3-9.7-14.3-14.6-21.7zm-46.5-27.1c-19.2-3.8-37.8-7.4-56.9-11.2-.9 5-1.8 9.3-2.7 14.1 6.4 1.3 12.2 2.4 18.1 3.6 7.9 1.6 9.8 4.3 8.3 12.2-1.8 9-3.6 18-5.4 26.9-1.5 7.6-2.9 15.1-4.6 23.9 11.6-7.8 22.1-14.8 32.5-21.9.8-.6 1.5-1.8 1.7-2.9 3.1-14.6 6-29.3 9-44.7zm41.3 90c-10.9-3.3-13.2-2.8-18.1 3.3 5.6 1.1 11 2.1 16.8 3.2.5-2.5.9-4.4 1.3-6.5z"/>
  <path class="st0" d="M1134.8 570.8c-57.4-11.4-114-22.6-170.9-33.8 15.1-76.2 30-151.8 45.1-227.8 118.9 23.5 237.2 46.9 356 70.5-2.3 11.5-4.4 22.6-6.6 33.7-5.1 26-10.4 51.9-15.4 77.9-.9 4.6-2.4 8-6.7 10.2-3.6 1.9-6.9 4.5-11.5 7.4 2-10.1 3.7-19 5.4-27.8.6-2.9 1.2-5.9 1.7-8.8 1.4-7.8-.3-10.5-7.8-12-19.1-3.8-38.2-7.5-57.3-11.3-3.3-.6-6.5-1.4-9.8-1.9-6.4-1-8.9.8-10.3 7.1-1.4 6.3-2.6 12.6-4 19.5-10.4-2-20.3-3.9-30.2-5.8-10.5-2.1-20.9-4.2-31.3-6.2-7.1-1.4-9.9.4-11.4 7.4-3.7 18.3-7.3 36.6-10.9 54.9-.4 2.1-.9 4.2-1.4 6.6-1.7-.2-3.2-.3-4.6-.5-7.8-1.2-10.1.5-11.7 8.3-2.1 10.5-4.1 21.1-6.4 32.4zm87.9-130.7c18 .1 30-10.7 32-26.1 1.7-13.8-7.8-28-22-30.9-33.7-7-67.5-13.8-101.3-20.1-16.7-3.1-31.4 7.6-34.1 23.8-2.6 15.5 7.7 30 23.9 33.3 23.5 4.8 47 9.3 70.5 14 11.2 2.2 22.5 4.4 31 6zM997.7 292c4.7-23.9 9.3-47.2 14.1-71.1 128.3 25.4 256.2 50.7 384.6 76.1-4.7 24-9.3 47.2-14.1 71.1-128.4-25.4-256.3-50.7-384.6-76.1z"/>
  <path class="st0" d="M1129.6 673c1.5-7.8 2.9-15.4 4.4-23 6.6-33.3 13.3-66.6 19.7-99.9.8-4.2 2.5-4.6 6-3.9 64.5 12.8 128.9 25.6 193.4 38.4 4.9 1 9.7 2 15.1 3.1-1.9 9.8-3.7 19.3-5.5 28.7-6.2 31.5-12.6 63-18.7 94.5-.7 3.5-1.7 4.8-5.5 4.1-68.5-13.7-137.1-27.2-205.6-40.8-.9-.4-1.8-.7-3.3-1.2zm150.9-43.7c13.4.2 22.6-7.7 24.2-18.9 1.5-10.8-5.6-21.5-16.7-23.9-19.2-4.1-38.5-8-57.8-11.4-12.9-2.3-23.4 5.3-25.7 17.8-2.1 11.7 5.7 22.6 18.2 25.1 8.3 1.7 16.6 3.3 25 5 11.6 2.2 23.2 4.4 32.8 6.3zM1171.9 533.7c3.8-19.2 7.5-37.9 11.3-56.9 18.3 3.6 36.1 7.1 53.9 10.6 9.1 1.8 18.3 3.8 27.4 5.4 3 .5 4 1.7 3.4 4.7-3.4 17-6.8 33.9-10.2 50.9-.1.5-.4.9-1.1 2-27.9-5.5-56.1-11-84.7-16.7zM1363.4 500.8c4.9 7.3 9.6 14.4 14.6 21.7-1.3 1-2.4 1.9-3.6 2.7-17.4 11.7-34.8 23.4-52.3 35-1.6 1-3.7 2.2-5.3 2-11.2-1.9-22.4-4.2-35-6.7 27.8-18.7 54.6-36.6 81.6-54.7z"/>
  <path class="st0" d="M1316.9 473.7c-3.1 15.5-6 30.1-8.9 44.8-.2 1-.9 2.3-1.7 2.9-10.4 7.1-20.9 14.1-32.5 21.9 1.7-8.8 3.1-16.4 4.6-23.9 1.8-9 3.6-17.9 5.4-26.9 1.5-7.9-.3-10.6-8.3-12.2-5.8-1.2-11.7-2.3-18.1-3.6.9-4.8 1.7-9.1 2.7-14.1 19.1 3.6 37.6 7.3 56.8 11.1zM1358.2 563.7c-.4 2.1-.8 4-1.3 6.5-5.7-1.1-11.2-2.2-16.8-3.2 4.9-6.1 7.2-6.6 18.1-3.3z"/>
  <path class="st1" d="M1222.7 440.1c-8.5-1.7-19.8-3.8-31-6.1-23.5-4.6-47-9.2-70.5-14-16.3-3.3-26.6-17.7-23.9-33.3 2.7-16.2 17.3-26.9 34.1-23.8 33.9 6.3 67.6 13 101.3 20.1 14.2 3 23.7 17.1 22 30.9-2 15.5-14 26.3-32 26.2zm-94.9-63c-8.6-.3-14.9 4.9-16 12.1-1.2 8 3.4 14.9 11.7 16.5 32.8 6.6 65.6 13 98.4 19.4 9 1.7 16.3-2.9 18-10.9 1.7-8.2-3.3-15.5-12.4-17.4-21.5-4.4-43.1-8.6-64.6-12.9-12.1-2.3-24.2-4.7-35.1-6.8zM1280.5 629.3c-9.6-1.9-21.2-4.1-32.8-6.4-8.3-1.6-16.7-3.3-25-5-12.5-2.5-20.3-13.4-18.2-25.1 2.2-12.5 12.7-20.1 25.7-17.8 19.3 3.4 38.6 7.3 57.8 11.4 11.1 2.4 18.2 13.2 16.7 23.9-1.6 11.3-10.8 19.2-24.2 19zm9.6-22.2c-.1-3.9-2.9-6-6.8-6.8-18.4-3.7-36.8-7.3-55.2-10.9-4.4-.8-8 1.4-8.9 5.2-1 4 1.3 7.9 5.9 8.8 18.9 3.9 37.8 7.6 56.7 11.3 4.6.8 8.3-2.7 8.3-7.6z"/>
  <path class="st0" d="M1127.8 377.1c10.9 2.2 23 4.5 35.1 6.9 21.5 4.3 43.1 8.5 64.6 12.9 9.1 1.8 14.1 9.1 12.4 17.4-1.7 8-9 12.6-18 10.9-32.8-6.4-65.6-12.8-98.4-19.4-8.3-1.7-12.9-8.6-11.7-16.5 1.1-7.3 7.4-12.5 16-12.2zM1290.1 607.1c0 4.9-3.8 8.4-8.3 7.5-18.9-3.6-37.8-7.4-56.7-11.3-4.7-1-7-4.8-5.9-8.8 1-3.8 4.6-6.1 8.9-5.2 18.4 3.6 36.8 7.2 55.2 10.9 4 .9 6.7 3 6.8 6.9z"/>
</svg>
