<?xml version="1.0" encoding="utf-8"?>
<!-- Generator: Adobe Illustrator 22.1.0, SVG Export Plug-In . SVG Version: 6.00 Build 0)  -->
<svg version="1.1" id="Layer_1" xmlns="http://www.w3.org/2000/svg" xmlns:xlink="http://www.w3.org/1999/xlink" x="0px" y="0px"
	 viewBox="0 0 1600 757" style="enable-background:new 0 0 1600 757;" xml:space="preserve">
<style type="text/css">
	.st0{fill:#2F43B5;}
	.st1{fill:#010103;}
</style>
<g>
	<g>
		<path class="st0" d="M1,758C1,505.7,1,253.3,1,1c533.3,0,1066.7,0,1600,0c0,252.3,0,504.7,0,757C1067.7,758,534.3,758,1,758z
			 M994.4,306.7c-0.4,2.2-0.6,4.2-1,6.1c-14.8,75-29.6,149.9-44.4,224.9c-1.8,9-0.2,11.2,8.8,13c43,8.5,85.9,16.9,128.9,25.4
			c15,3,30,6,45.1,9c-0.2,1.2-0.2,2-0.4,2.8c-5.7,28.7-11.4,57.5-17.1,86.2c-1.7,8.6,0,11.1,8.6,12.8c73.5,14.5,147,29.1,220.5,43.7
			c9.1,1.8,11.7,0.1,13.5-9c5-25.1,10-50.3,14.9-75.4c4-20.2,8-40.5,12-60.8c1.3-6.5-0.4-10.2-6.1-10.9c-6.1-0.8-6.2-3.6-5-8.4
			c0.9-3.5,1.9-7.6,0.9-10.7c-1-2.8-4.7-4.6-7.5-7c7.7-5.2,15.9-10.6,24-16.1c6.5-4.4,7.1-7.5,2.7-14.1
			c-6.2-9.3-12.4-18.6-18.6-27.8c-5.1-7.5-5.6-7.8-14.8-5.9c6.7-34,13.4-67.7,20.1-101.5c1.6,0,2.7-0.1,3.9,0
			c8.9,1.4,11-0.1,12.7-8.7c5.1-25.8,10.2-51.6,15.2-77.4c2-10.2,0.7-12-9.8-14.1c-41.2-8.1-82.3-16.2-123.5-24.4
			c-88.8-17.6-177.7-35.2-266.5-52.7c-9.7-1.9-11.5-0.5-13.4,9.4c-4.8,24.3-9.6,48.7-14.5,73C980.7,302.3,980.6,302.3,994.4,306.7z"
			/>
		<path class="st1" d="M994.4,306.7c-13.9-4.5-13.8-4.5-11-18.4c4.9-24.3,9.7-48.7,14.5-73c1.9-9.9,3.8-11.3,13.4-9.4
			c88.8,17.6,177.7,35.2,266.5,52.7c41.2,8.1,82.3,16.3,123.5,24.4c10.5,2.1,11.8,3.8,9.8,14.1c-5.1,25.8-10.2,51.6-15.2,77.4
			c-1.7,8.6-3.8,10-12.7,8.7c-1.1-0.2-2.3,0-3.9,0c-6.7,33.8-13.3,67.5-20.1,101.5c9.2-1.9,9.8-1.7,14.8,5.9
			c6.2,9.3,12.4,18.5,18.6,27.8c4.4,6.6,3.8,9.7-2.7,14.1c-8.1,5.5-16.3,10.9-24,16.1c2.7,2.4,6.5,4.3,7.5,7c1.1,3.1,0,7.2-0.9,10.7
			c-1.2,4.8-1.2,7.6,5,8.4c5.8,0.7,7.4,4.3,6.1,10.9c-4,20.3-8,40.5-12,60.8c-5,25.1-10,50.3-14.9,75.4c-1.8,9.1-4.3,10.8-13.5,9
			c-73.5-14.6-147-29.1-220.5-43.7c-8.5-1.7-10.3-4.3-8.6-12.8c5.7-28.7,11.4-57.5,17.1-86.2c0.2-0.8,0.2-1.6,0.4-2.8
			c-15.1-3-30.1-6.1-45.1-9c-43-8.5-85.9-16.9-128.9-25.4c-9.1-1.8-10.6-4-8.8-13c14.8-75,29.6-149.9,44.4-224.9
			C993.8,310.9,994.1,308.9,994.4,306.7z M1134.8,570.8c2.2-11.3,4.3-21.9,6.4-32.5c1.6-7.9,3.9-9.5,11.7-8.3
			c1.4,0.2,2.9,0.3,4.6,0.5c0.5-2.5,1-4.5,1.4-6.6c3.6-18.3,7.2-36.6,10.9-54.9c1.4-7,4.2-8.8,11.4-7.4c10.4,2.1,20.9,4.2,31.3,6.2
			c9.9,1.9,19.8,3.8,30.2,5.8c1.4-6.9,2.7-13.2,4-19.5c1.4-6.3,3.9-8.1,10.3-7.1c3.3,0.5,6.5,1.3,9.8,1.9
			c19.1,3.8,38.2,7.5,57.3,11.3c7.5,1.5,9.3,4.2,7.8,12c-0.5,2.9-1.2,5.9-1.7,8.8c-1.7,8.9-3.4,17.7-5.4,27.8
			c4.5-3,7.8-5.6,11.5-7.4c4.3-2.2,5.8-5.6,6.7-10.2c4.9-26,10.2-51.9,15.4-77.9c2.2-11.1,4.3-22.1,6.6-33.7
			c-118.8-23.5-237.1-46.9-356-70.5C994,385.2,979.1,460.8,964,537C1020.8,548.2,1077.5,559.4,1134.8,570.8z M997.7,292
			c128.4,25.4,256.2,50.7,384.6,76.1c4.7-23.9,9.3-47.2,14.1-71.1c-128.3-25.4-256.2-50.7-384.6-76.1
			C1007,244.8,1002.4,268,997.7,292z M1129.6,673c1.5,0.5,2.4,0.8,3.3,1c68.5,13.6,137.1,27.2,205.6,40.8c3.8,0.8,4.8-0.6,5.5-4.1
			c6.1-31.5,12.5-63,18.7-94.5c1.9-9.4,3.6-18.9,5.5-28.7c-5.4-1.1-10.2-2.1-15.1-3.1c-64.5-12.8-128.9-25.5-193.4-38.4
			c-3.5-0.7-5.2-0.2-6,3.9c-6.4,33.3-13.1,66.6-19.7,99.9C1132.6,657.6,1131.1,665.2,1129.6,673z M1171.9,533.7
			c28.6,5.6,56.7,11.2,84.7,16.7c0.6-1.1,1-1.5,1.1-2c3.4-17,6.7-34,10.2-50.9c0.6-3-0.3-4.1-3.4-4.7c-9.2-1.6-18.3-3.6-27.4-5.4
			c-17.8-3.5-35.6-7-53.9-10.6C1179.4,495.8,1175.7,514.5,1171.9,533.7z M1363.4,500.8c-27,18.1-53.8,36-81.6,54.7
			c12.6,2.5,23.8,4.8,35,6.7c1.6,0.3,3.8-0.9,5.3-2c17.5-11.6,34.9-23.3,52.3-35c1.2-0.8,2.3-1.7,3.6-2.7
			C1373.1,515.2,1368.3,508.2,1363.4,500.8z M1316.9,473.7c-19.2-3.8-37.8-7.4-56.9-11.2c-0.9,5-1.8,9.3-2.7,14.1
			c6.4,1.3,12.2,2.4,18.1,3.6c7.9,1.6,9.8,4.3,8.3,12.2c-1.8,9-3.6,18-5.4,26.9c-1.5,7.6-2.9,15.1-4.6,23.9
			c11.6-7.8,22.1-14.8,32.5-21.9c0.8-0.6,1.5-1.8,1.7-2.9C1311,503.8,1313.9,489.1,1316.9,473.7z M1358.2,563.7
			c-10.9-3.3-13.2-2.8-18.1,3.3c5.6,1.1,11,2.1,16.8,3.2C1357.4,567.7,1357.8,565.8,1358.2,563.7z"/>
		<path class="st0" d="M1134.8,570.8c-57.4-11.4-114-22.6-170.9-33.8c15.1-76.2,30-151.8,45.1-227.8c118.9,23.5,237.2,46.9,356,70.5
			c-2.3,11.5-4.4,22.6-6.6,33.7c-5.1,26-10.4,51.9-15.4,77.9c-0.9,4.6-2.4,8-6.7,10.2c-3.6,1.9-6.9,4.5-11.5,7.4
			c2-10.1,3.7-19,5.4-27.8c0.6-2.9,1.2-5.9,1.7-8.8c1.4-7.8-0.3-10.5-7.8-12c-19.1-3.8-38.2-7.5-57.3-11.3c-3.3-0.6-6.5-1.4-9.8-1.9
			c-6.4-1-8.9,0.8-10.3,7.1c-1.4,6.3-2.6,12.6-4,19.5c-10.4-2-20.3-3.9-30.2-5.8c-10.5-2.1-20.9-4.2-31.3-6.2
			c-7.1-1.4-9.9,0.4-11.4,7.4c-3.7,18.3-7.3,36.6-10.9,54.9c-0.4,2.1-0.9,4.2-1.4,6.6c-1.7-0.2-3.2-0.3-4.6-0.5
			c-7.8-1.2-10.1,0.5-11.7,8.3C1139.1,548.9,1137.1,559.5,1134.8,570.8z M1222.7,440.1c18,0.1,30-10.7,32-26.1
			c1.7-13.8-7.8-28-22-30.9c-33.7-7-67.5-13.8-101.3-20.1c-16.7-3.1-31.4,7.6-34.1,23.8c-2.6,15.5,7.7,30,23.9,33.3
			c23.5,4.8,47,9.3,70.5,14C1202.9,436.3,1214.2,438.5,1222.7,440.1z"/>
		<path class="st0" d="M997.7,292c4.7-23.9,9.3-47.2,14.1-71.1c128.3,25.4,256.2,50.7,384.6,76.1c-4.7,24-9.3,47.2-14.1,71.1
			C1253.9,342.7,1126,317.4,997.7,292z"/>
		<path class="st0" d="M1129.6,673c1.5-7.8,2.9-15.4,4.4-23c6.6-33.3,13.3-66.6,19.7-99.9c0.8-4.2,2.5-4.6,6-3.9
			c64.5,12.8,128.9,25.6,193.4,38.4c4.9,1,9.7,2,15.1,3.1c-1.9,9.8-3.7,19.3-5.5,28.7c-6.2,31.5-12.6,63-18.7,94.5
			c-0.7,3.5-1.7,4.8-5.5,4.1c-68.5-13.7-137.1-27.2-205.6-40.8C1132,673.8,1131.1,673.5,1129.6,673z M1280.5,629.3
			c13.4,0.2,22.6-7.7,24.2-18.9c1.5-10.8-5.6-21.5-16.7-23.9c-19.2-4.1-38.5-8-57.8-11.4c-12.9-2.3-23.4,5.3-25.7,17.8
			c-2.1,11.7,5.7,22.6,18.2,25.1c8.3,1.7,16.6,3.3,25,5C1259.3,625.2,1270.9,627.4,1280.5,629.3z"/>
		<path class="st0" d="M1171.9,533.7c3.8-19.2,7.5-37.9,11.3-56.9c18.3,3.6,36.1,7.1,53.9,10.6c9.1,1.8,18.3,3.8,27.4,5.4
			c3,0.5,4,1.7,3.4,4.7c-3.4,17-6.8,33.9-10.2,50.9c-0.1,0.5-0.4,0.9-1.1,2C1228.7,544.9,1200.5,539.4,1171.9,533.7z"/>
		<path class="st0" d="M1363.4,500.8c4.9,7.3,9.6,14.4,14.6,21.7c-1.3,1-2.4,1.9-3.6,2.7c-17.4,11.7-34.8,23.4-52.3,35
			c-1.6,1-3.7,2.2-5.3,2c-11.2-1.9-22.4-4.2-35-6.7C1309.6,536.8,1336.4,518.9,1363.4,500.8z"/>
		<path class="st0" d="M1316.9,473.7c-3.1,15.5-6,30.1-8.9,44.8c-0.2,1-0.9,2.3-1.7,2.9c-10.4,7.1-20.9,14.1-32.5,21.9
			c1.7-8.8,3.1-16.4,4.6-23.9c1.8-9,3.6-17.9,5.4-26.9c1.5-7.9-0.3-10.6-8.3-12.2c-5.8-1.2-11.7-2.3-18.1-3.6
			c0.9-4.8,1.7-9.1,2.7-14.1C1279.2,466.2,1297.7,469.9,1316.9,473.7z"/>
		<path class="st0" d="M1358.2,563.7c-0.4,2.1-0.8,4-1.3,6.5c-5.7-1.1-11.2-2.2-16.8-3.2C1345,560.9,1347.3,560.4,1358.2,563.7z"/>
		<path class="st1" d="M1222.7,440.1c-8.5-1.7-19.8-3.8-31-6.1c-23.5-4.6-47-9.2-70.5-14c-16.3-3.3-26.6-17.7-23.9-33.3
			c2.7-16.2,17.3-26.9,34.1-23.8c33.9,6.3,67.6,13,101.3,20.1c14.2,3,23.7,17.1,22,30.9C1252.7,429.4,1240.7,440.2,1222.7,440.1z
			 M1127.8,377.1c-8.6-0.3-14.9,4.9-16,12.1c-1.2,8,3.4,14.9,11.7,16.5c32.8,6.6,65.6,13,98.4,19.4c9,1.7,16.3-2.9,18-10.9
			c1.7-8.2-3.3-15.5-12.4-17.4c-21.5-4.4-43.1-8.6-64.6-12.9C1150.8,381.6,1138.7,379.2,1127.8,377.1z"/>
		<path class="st1" d="M1280.5,629.3c-9.6-1.9-21.2-4.1-32.8-6.4c-8.3-1.6-16.7-3.3-25-5c-12.5-2.5-20.3-13.4-18.2-25.1
			c2.2-12.5,12.7-20.1,25.7-17.8c19.3,3.4,38.6,7.3,57.8,11.4c11.1,2.4,18.2,13.2,16.7,23.9C1303.1,621.6,1293.9,629.5,1280.5,629.3
			z M1290.1,607.1c-0.1-3.9-2.9-6-6.8-6.8c-18.4-3.7-36.8-7.3-55.2-10.9c-4.4-0.8-8,1.4-8.9,5.2c-1,4,1.3,7.9,5.9,8.8
			c18.9,3.9,37.8,7.6,56.7,11.3C1286.4,615.5,1290.1,612,1290.1,607.1z"/>
		<path class="st0" d="M1127.8,377.1c10.9,2.2,23,4.5,35.1,6.9c21.5,4.3,43.1,8.5,64.6,12.9c9.1,1.8,14.1,9.1,12.4,17.4
			c-1.7,8-9,12.6-18,10.9c-32.8-6.4-65.6-12.8-98.4-19.4c-8.3-1.7-12.9-8.6-11.7-16.5C1112.9,382,1119.2,376.8,1127.8,377.1z"/>
		<path class="st0" d="M1290.1,607.1c0,4.9-3.8,8.4-8.3,7.5c-18.9-3.6-37.8-7.4-56.7-11.3c-4.7-1-7-4.8-5.9-8.8
			c1-3.8,4.6-6.1,8.9-5.2c18.4,3.6,36.8,7.2,55.2,10.9C1287.3,601.1,1290,603.2,1290.1,607.1z"/>
	</g>
</g>
</svg>
