<?xml version="1.0" encoding="utf-8"?>
<!-- Generator: Adobe Illustrator 22.1.0, SVG Export Plug-In . SVG Version: 6.00 Build 0)  -->
<svg version="1.1" id="Layer_1" xmlns="http://www.w3.org/2000/svg" xmlns:xlink="http://www.w3.org/1999/xlink" x="0px" y="0px"
	 viewBox="0 0 1000 710" style="enable-background:new 0 0 1000 710;" xml:space="preserve">
<style type="text/css">
	.st0{fill:#AD3755;}
	.st1{fill:#FDFCFC;}
</style>
<g>
	<g>
		<path class="st0" d="M1,1.1c333.3,0,666.5,0,999.9,0c0,236.5,0,473,0,709.8c-333.2,0-666.5,0-999.9,0C1,474.4,1,237.7,1,1.1z
			 M636.5,498.6c0,88.8,69,167.8,165.5,171.1c95,3.3,172.5-69.8,176.9-163.1c4.5-95.3-69.7-177.3-167.8-179.2
			C715.4,325.5,636.8,401.7,636.5,498.6z"/>
		<path class="st1" d="M636.5,498.6c0.3-96.9,78.9-173.1,174.6-171.2c98.1,1.9,172.3,83.9,167.8,179.2
			C974.5,599.9,897,673,802,669.7C705.4,666.4,636.5,587.4,636.5,498.6z M972.3,499.3c0.7-87.5-68.9-163.1-160.6-165.1
			c-91.8-2-167.1,69.9-168.4,162.1c-1.3,91.5,71.7,166,162.4,166.9C897.7,664,971.5,591.4,972.3,499.3z"/>
		<path class="st0" d="M972.3,499.3c-0.8,92.1-74.6,164.7-166.6,163.8c-90.7-0.9-163.8-75.4-162.4-166.9
			c1.4-92.1,76.6-164.1,168.4-162.1C903.4,336.2,973,411.8,972.3,499.3z M736,629c0.1,0,0.2-0.1,0.2-0.1c-0.1,0.1-0.2,0.2-0.3,0.3
			c-1.7-4.6-3.1-9.3-5.1-13.7c-1.2-2.6-1.1-4.4,0.6-6.8c4.4-6.2,8.5-12.7,12.7-19.1c25.4-38.3,50.8-76.5,76.2-114.8
			c1.8-2.7,3.4-5.5,5.4-8.8c-2.6-0.9-4.4-1.6-6.3-2.1c-24-7.3-48-14.5-72-21.9c-2.1-0.7-4.3-2.4-5.5-4.3
			c-3.6-5.7-6.8-11.7-10.4-18.2c-2.9,7.8-6.1,14.6-1.5,22.6c3.4,5.8,5.3,12.5,8.3,18.6c0.9,1.8,2.9,3.6,4.8,4.2
			c10.9,3.6,21.9,6.7,32.9,10.1c4.7,1.4,9.3,3,14.3,4.6c-4.8,7.2-9,13.7-13.4,20.2c-22.2,33.4-44.4,66.8-66.5,100.2
			c-0.8,1.3-1.9,3.3-1.5,4.4c2.5,6.3,5.4,12.5,8.3,18.6c0.3,0.6,1.3,1.1,2,1.3C724.8,626.1,730.4,627.5,736,629z M777.5,641.5
			c0.4,0.1,0.8,0.1,1.1,0.2c-0.2-0.3-0.3-0.6-0.5-0.9c-1.8-4.2-4-8.4-5.4-12.8c-0.6-2-0.4-5,0.7-6.8c4.3-6.9,9.1-13.5,13.6-20.3
			c27.5-41.6,55-83.3,82.4-125c5.2-7.9,10-16.1,14.5-24.4c4.1-7.7-0.8-16.4-9.3-18.8c-38.6-11.2-76.9-23.1-115.4-34.6
			c-3.6-1.1-5.7-2.8-7.1-6.1c-2.4-5.4-5-10.7-8.1-17.2c-1.3,4.6-2.1,8.2-3.5,11.5c-1.7,4-1.3,7.5,0.6,11.3
			c3.1,6.4,5.5,13.2,8.7,19.5c1,2,3.3,4.1,5.4,4.8c32,9.8,64,19.3,96,28.9c1.8,0.6,3.6,1.3,5.9,2.1c-2.1,3.6-3.8,6.6-5.7,9.5
			c-32.2,48.9-64.2,97.9-96.7,146.7c-3.4,5-3.4,8.7-0.8,13.8C761.7,637.8,761.5,637.9,777.5,641.5z M751.6,351.2
			c3.6,7.6,6.7,13.8,9.4,20.2c1.8,4.2,4.4,6.4,8.9,7.7c39.8,11.8,79.5,23.9,119.2,35.9c3,0.9,6.1,1.9,8.7,3.6
			c13.2,8.3,16.3,24.5,7.2,39c-13,20.5-26.3,40.8-39.6,61.1c-22.2,33.8-44.3,67.6-66.9,101.1c-4.4,6.5-5.4,11.6-0.7,18
			c2.8,3.7,4.5,8.2,7.2,13.2c3-4.2,5.3-7.3,7.4-10.4c36.5-55.2,73-110.5,109.5-165.7c8.2-12.4,13.2-25.5,11.4-40.8
			c-2-16.7-17.1-34.7-31.7-38.8c-39.8-11.1-79.2-23.4-118.8-35.2C772.7,357.2,762.7,354.4,751.6,351.2z"/>
		<path class="st1" d="M751.6,351.2c11.1,3.2,21.1,6,31.1,8.9c39.6,11.8,79,24.1,118.8,35.2c14.7,4.1,29.7,22,31.7,38.8
			c1.8,15.3-3.2,28.4-11.4,40.8c-36.5,55.2-73,110.5-109.5,165.7c-2.1,3.2-4.4,6.2-7.4,10.4c-2.7-5-4.4-9.5-7.2-13.2
			c-4.8-6.4-3.8-11.5,0.7-18c22.6-33.5,44.8-67.3,66.9-101.1c13.3-20.3,26.7-40.6,39.6-61.1c9.2-14.5,6-30.7-7.2-39
			c-2.6-1.6-5.7-2.7-8.7-3.6c-39.7-12-79.4-24.1-119.2-35.9c-4.4-1.3-7.1-3.5-8.9-7.7C758.2,365,755.1,358.8,751.6,351.2z"/>
		<path class="st1" d="M777.5,641.5c-16-3.6-15.8-3.7-23.3-18.5c-2.6-5.1-2.5-8.7,0.8-13.8c32.4-48.8,64.5-97.7,96.7-146.7
			c1.9-2.9,3.6-6,5.7-9.5c-2.3-0.8-4.1-1.5-5.9-2.1c-32-9.6-64-19.1-96-28.9c-2.1-0.7-4.4-2.8-5.4-4.8c-3.2-6.4-5.6-13.1-8.7-19.5
			c-1.9-3.8-2.3-7.3-0.6-11.3c1.4-3.3,2.1-6.9,3.5-11.5c3.1,6.4,5.7,11.7,8.1,17.2c1.4,3.3,3.5,5,7.1,6.1
			c38.5,11.5,76.8,23.5,115.4,34.6c8.5,2.5,13.4,11.1,9.3,18.8c-4.5,8.3-9.3,16.5-14.5,24.4c-27.4,41.7-54.9,83.4-82.4,125
			c-4.5,6.8-9.4,13.4-13.6,20.3c-1.1,1.8-1.3,4.7-0.7,6.8c1.4,4.4,3.5,8.5,5.4,12.8C777.9,641.1,777.7,641.3,777.5,641.5z"/>
		<path class="st1" d="M736,629c-5.6-1.5-11.2-2.9-16.8-4.5c-0.7-0.2-1.7-0.7-2-1.3c-2.9-6.2-5.8-12.3-8.3-18.6
			c-0.4-1.1,0.6-3.1,1.5-4.4c22.1-33.4,44.3-66.8,66.5-100.2c4.3-6.5,8.6-13,13.4-20.2c-5-1.6-9.6-3.2-14.3-4.6
			c-11-3.4-22-6.5-32.9-10.1c-1.9-0.6-4-2.4-4.8-4.2c-3-6.1-4.9-12.8-8.3-18.6c-4.6-8-1.4-14.8,1.5-22.6c3.6,6.4,6.8,12.4,10.4,18.2
			c1.2,1.9,3.4,3.6,5.5,4.3c24,7.4,48,14.6,72,21.9c1.9,0.6,3.7,1.2,6.3,2.1c-2,3.3-3.6,6.1-5.4,8.8
			c-25.4,38.3-50.8,76.5-76.2,114.8c-4.2,6.4-8.3,12.9-12.7,19.1c-1.7,2.4-1.8,4.2-0.6,6.8c2,4.4,3.5,9.1,5.1,13.7L736,629z"/>
		<path class="st1" d="M735.9,629.2c0.1-0.1,0.2-0.2,0.3-0.3c-0.1,0-0.2,0.1-0.2,0.1C736,629,735.9,629.2,735.9,629.2z"/>
		<path class="st1" d="M778.2,640.8c0.2,0.3,0.3,0.6,0.5,0.9c-0.4-0.1-0.8-0.1-1.1-0.2C777.7,641.3,777.9,641.1,778.2,640.8z"/>
	</g>
</g>
</svg>
