<?xml version="1.0" encoding="utf-8"?>
<!-- Generator: Adobe Illustrator 22.1.0, SVG Export Plug-In . SVG Version: 6.00 Build 0)  -->
<svg version="1.1" id="Layer_1" xmlns="http://www.w3.org/2000/svg" xmlns:xlink="http://www.w3.org/1999/xlink" x="0px" y="0px"
	 viewBox="0 0 1600 757" style="enable-background:new 0 0 1600 757;" xml:space="preserve">
<style type="text/css">
	.st0{fill:#344465;}
</style>
<g>
	<g>
		<path class="st0" d="M1,758C1,505.7,1,253.3,1,1c533.3,0,1066.7,0,1600,0c0,252.3,0,504.7,0,757C1067.7,758,534.3,758,1,758z
			 M1385.5,479.2c0.3-0.2,0.6-0.4,0.9-0.6c-2-5.1-3.3-10.7-6.1-15.3c-4.3-7.2-11.9-9.6-19.8-11.2c-58.7-11.5-117.3-23-176-34.6
			c-56.4-11.1-112.7-22.2-169.1-33.3c-3.2-0.6-5.4-0.6-7,3.2c-31.5,75.7-63.1,151.2-94.7,226.9c-4.3,10.2-0.1,17.7,10.9,19.9
			c113.1,22.3,226.1,44.5,339.2,66.8c9.3,1.8,18.6,3.8,27.9,5.8c12.6,2.7,25.7-6.3,30.3-21c20.6-65.5,41.1-130.9,61.6-196.4
			C1384.5,486.1,1384.8,482.6,1385.5,479.2z M927.1,512.3c0.4,0.1,0.7,0.3,1.1,0.4c1-2.2,1.9-4.5,2.9-6.7
			c19.5-46.7,39.1-93.4,58.6-140.2c3.7-8.8,8.4-11.3,17.8-9.4c105.1,20.7,210.2,41.3,315.2,62c1.9,0.4,3.8,0.4,6,0.6
			c0.9-4.4,1.7-8.3,2.4-12.3c3-16.7-5.6-29.3-22.3-32.6c-30.9-6.1-61.8-12.2-92.7-18.2c-42.7-8.4-85.3-16.8-128-25.1
			c-4.6-0.9-9.2-2.5-10.6-7.2c-1.2-3.9-1.1-8.5-0.5-12.6c1.4-10.4-2.2-16-12.3-18c-20.9-4.1-41.8-8.2-62.8-12.3
			c-17.9-3.5-30.3,5-33.9,22.9c-11.6,58.8-23.2,117.7-34.7,176.5C931.3,490.9,929.2,501.6,927.1,512.3z"/>
		<path d="M1385.5,479.2c-0.7,3.4-1,6.9-2,10.2c-20.5,65.5-41,131-61.6,196.4c-4.6,14.7-17.8,23.7-30.3,21c-9.3-2-18.5-4-27.9-5.8
			c-113.1-22.3-226.1-44.5-339.2-66.8c-11-2.2-15.2-9.7-10.9-19.9c31.6-75.6,63.2-151.2,94.7-226.9c1.6-3.8,3.8-3.8,7-3.2
			c56.4,11.1,112.7,22.2,169.1,33.3c58.7,11.5,117.3,23.1,176,34.6c7.9,1.6,15.5,4,19.8,11.2c2.8,4.6,4.1,10.2,6.1,15.3
			C1386.1,478.7,1385.8,478.9,1385.5,479.2z"/>
		<path d="M927.1,512.3c2.1-10.7,4.1-21.4,6.2-32.1c11.6-58.8,23.2-117.7,34.7-176.5c3.5-17.9,15.9-26.4,33.9-22.9
			c20.9,4,41.8,8.2,62.8,12.3c10.2,2,13.7,7.6,12.3,18c-0.6,4.1-0.6,8.7,0.5,12.6c1.4,4.7,6,6.3,10.6,7.2
			c42.7,8.4,85.3,16.7,128,25.1c30.9,6.1,61.8,12.1,92.7,18.2c16.6,3.3,25.2,15.9,22.3,32.6c-0.7,3.9-1.5,7.8-2.4,12.3
			c-2.1-0.2-4.1-0.2-6-0.6c-105.1-20.6-210.2-41.3-315.2-62c-9.4-1.8-14.1,0.6-17.8,9.4c-19.6,46.7-39.1,93.4-58.6,140.2
			c-0.9,2.2-1.9,4.5-2.9,6.7C927.9,512.6,927.5,512.4,927.1,512.3z"/>
	</g>
</g>
</svg>
