<?xml version="1.0" encoding="utf-8"?>
<!-- Generator: Adobe Illustrator 22.1.0, SVG Export Plug-In . SVG Version: 6.00 Build 0)  -->
<svg version="1.1" id="Layer_1" xmlns="http://www.w3.org/2000/svg" xmlns:xlink="http://www.w3.org/1999/xlink" x="0px" y="0px"
	 viewBox="0 0 1000 712" style="enable-background:new 0 0 1000 712;" xml:space="preserve">
<style type="text/css">
	.st0{fill:#A04598;}
	.st1{fill:#FDFDFD;}
</style>
<g>
	<g>
		<path class="st0" d="M1,713C1,475.7,1,238.3,1,1c333.3,0,666.7,0,1000,0c0,237.3,0,474.7,0,712C667.7,713,334.3,713,1,713z
			 M750.4,528.2c3.3,0.6,5.3,0.9,7.2,1.3c47,9.6,93.9,19.1,140.9,28.7c5.6,1.2,9.9-0.3,13-5c17.7-27,35.4-54,53-81.2
			c4.8-7.4,1.4-15.2-7.3-17.2c-8-1.8-16-3.3-24-5c-57.7-11.8-115.5-23.6-173.2-35.3c-3.7-0.8-5.1-2.1-4.9-6.1
			c0.7-14.6,1.1-29.3,1.5-44c0.2-7.5-2.7-11.3-9.8-12.8c-13-2.8-26.1-5.4-39.1-8c-6.9-1.3-12.4,2.3-13.6,8.5
			c-1.1,6.2,2.7,11.3,9.6,12.8c8.3,1.8,16.6,3.6,25,5c4.3,0.7,5.8,2.3,5.7,7.1c-2.2,59.3-4.1,118.6-6.1,177.9
			c-0.3,9,2.4,12.5,11.1,14.3c62.3,12.8,124.6,25.5,186.9,38.2c6.7,1.4,12.6-2.2,13.7-8.3c1.2-6.3-2.5-11.7-9.4-13.1
			c-31.3-6.4-62.6-12.8-93.9-19.2c-27.4-5.6-54.8-11.2-82.2-16.8c-2.2-0.5-4.2-0.7-4.1-3.8C750.5,540.6,750.4,534.8,750.4,528.2z
			 M756.5,659.3c19.7,0.1,35.6-15.8,35.5-35.5c0-19.6-16.1-35.6-35.7-35.5c-19.4,0.1-35.2,16-35.3,35.4
			C720.9,643.4,736.7,659.2,756.5,659.3z M893.3,645.1c0.3-19.6-15-35.6-34.5-36c-19.9-0.4-36.1,15.3-36.4,35.2
			c-0.3,19.1,15.3,35.3,34.3,35.7C876.9,680.4,892.9,665.1,893.3,645.1z"/>
		<path class="st1" d="M750.4,528.2c0,6.5,0.1,12.4-0.1,18.2c-0.1,3.1,1.9,3.3,4.1,3.8c27.4,5.6,54.8,11.2,82.2,16.8
			c31.3,6.4,62.6,12.7,93.9,19.2c6.8,1.4,10.6,6.8,9.4,13.1c-1.2,6.1-7,9.7-13.7,8.3c-62.3-12.7-124.6-25.4-186.9-38.2
			c-8.7-1.8-11.4-5.3-11.1-14.3c2-59.3,3.9-118.6,6.1-177.9c0.2-4.8-1.3-6.3-5.7-7.1c-8.4-1.4-16.7-3.3-25-5
			c-7-1.5-10.8-6.7-9.6-12.8c1.1-6.2,6.7-9.8,13.6-8.5c13.1,2.5,26.1,5.2,39.1,8c7.1,1.5,10,5.4,9.8,12.8c-0.4,14.7-0.8,29.3-1.5,44
			c-0.2,4.1,1.2,5.4,4.9,6.1c57.7,11.7,115.5,23.5,173.2,35.3c8,1.6,16,3.2,24,5c8.7,1.9,12.2,9.7,7.3,17.2
			c-17.6,27.1-35.3,54.1-53,81.2c-3.1,4.7-7.4,6.2-13,5c-47-9.7-93.9-19.2-140.9-28.7C755.7,529.1,753.7,528.8,750.4,528.2z"/>
		<path class="st1" d="M756.5,659.3c-19.8-0.1-35.6-15.9-35.4-35.6c0.1-19.4,15.9-35.3,35.3-35.4c19.6-0.1,35.7,15.9,35.7,35.5
			C792,643.5,776.2,659.3,756.5,659.3z"/>
		<path class="st1" d="M893.3,645.1c-0.3,20.1-16.3,35.3-36.5,34.9c-19-0.4-34.6-16.6-34.3-35.7c0.3-19.9,16.5-35.7,36.4-35.2
			C878.2,609.5,893.6,625.5,893.3,645.1z"/>
	</g>
</g>
</svg>
