<svg xmlns="http://www.w3.org/2000/svg" viewBox="0 0 1600 757">
  <path d="M1 758V1h1600v757H1zm1384.5-278.8l.9-.6c-2-5.1-3.3-10.7-6.1-15.3-4.3-7.2-11.9-9.6-19.8-11.2-58.7-11.5-117.3-23-176-34.6-56.4-11.1-112.7-22.2-169.1-33.3-3.2-.6-5.4-.6-7 3.2-31.5 75.7-63.1 151.2-94.7 226.9-4.3 10.2-.1 17.7 10.9 19.9 113.1 22.3 226.1 44.5 339.2 66.8 9.3 1.8 18.6 3.8 27.9 5.8 12.6 2.7 25.7-6.3 30.3-21 20.6-65.5 41.1-130.9 61.6-196.4.9-3.3 1.2-6.8 1.9-10.2zm-458.4 33.1c.4.1.7.3 1.1.4 1-2.2 1.9-4.5 2.9-6.7 19.5-46.7 39.1-93.4 58.6-140.2 3.7-8.8 8.4-11.3 17.8-9.4 105.1 20.7 210.2 41.3 315.2 62 1.9.4 3.8.4 6 .6.9-4.4 1.7-8.3 2.4-12.3 3-16.7-5.6-29.3-22.3-32.6-30.9-6.1-61.8-12.2-92.7-18.2-42.7-8.4-85.3-16.8-128-25.1-4.6-.9-9.2-2.5-10.6-7.2-1.2-3.9-1.1-8.5-.5-12.6 1.4-10.4-2.2-16-12.3-18-20.9-4.1-41.8-8.2-62.8-12.3-17.9-3.5-30.3 5-33.9 22.9-11.6 58.8-23.2 117.7-34.7 176.5-2 10.8-4.1 21.5-6.2 32.2z" fill="#344465"/>
  <path d="M1385.5 479.2c-.7 3.4-1 6.9-2 10.2-20.5 65.5-41 131-61.6 196.4-4.6 14.7-17.8 23.7-30.3 21-9.3-2-18.5-4-27.9-5.8-113.1-22.3-226.1-44.5-339.2-66.8-11-2.2-15.2-9.7-10.9-19.9 31.6-75.6 63.2-151.2 94.7-226.9 1.6-3.8 3.8-3.8 7-3.2 56.4 11.1 112.7 22.2 169.1 33.3 58.7 11.5 117.3 23.1 176 34.6 7.9 1.6 15.5 4 19.8 11.2 2.8 4.6 4.1 10.2 6.1 15.3-.2.1-.5.3-.8.6z"/>
  <path d="M927.1 512.3c2.1-10.7 4.1-21.4 6.2-32.1 11.6-58.8 23.2-117.7 34.7-176.5 3.5-17.9 15.9-26.4 33.9-22.9 20.9 4 41.8 8.2 62.8 12.3 10.2 2 13.7 7.6 12.3 18-.6 4.1-.6 8.7.5 12.6 1.4 4.7 6 6.3 10.6 7.2 42.7 8.4 85.3 16.7 128 25.1 30.9 6.1 61.8 12.1 92.7 18.2 16.6 3.3 25.2 15.9 22.3 32.6-.7 3.9-1.5 7.8-2.4 12.3-2.1-.2-4.1-.2-6-.6-105.1-20.6-210.2-41.3-315.2-62-9.4-1.8-14.1.6-17.8 9.4-19.6 46.7-39.1 93.4-58.6 140.2-.9 2.2-1.9 4.5-2.9 6.7-.3-.2-.7-.4-1.1-.5z"/>
</svg>
