<svg version="1.1" id="Layer_1" xmlns="http://www.w3.org/2000/svg" x="0" y="0" viewBox="0 0 1000 710" xml:space="preserve">
  <style>
    .st0{fill:#4d9398}.st1{fill:#fdfdfd}
  </style>
  <path class="st0" d="M1001 711H1V1h1000v710zm-191-39.5c96.3-1.6 172.4-77.2 172.5-173.3.1-98.1-79.3-174.4-173.8-173.8-96.6.6-173.8 79.9-172.8 173.9.9 95.8 76.5 172.5 174.1 173.2z"/>
  <path class="st1" d="M810 671.5c-97.6-.7-173.2-77.4-174.1-173.2-.9-94 76.3-173.2 172.8-173.9 94.6-.6 174 75.7 173.8 173.8 0 96.1-76.2 171.7-172.5 173.3zm143.7-172.1c.3-80.1-63.9-145.7-144.1-145.6-79.4 0-141.8 62.6-144.5 138.6-3 84.4 65.1 150 143.8 149.9 79.2-.2 143.8-63.3 144.8-142.9z"/>
  <path class="st0" d="M953.7 499.4c-1 79.6-65.5 142.8-144.9 142.8-78.6.1-146.8-65.5-143.8-149.9 2.7-76 65.1-138.5 144.5-138.6 80.3 0 144.5 65.6 144.2 145.7zm-151.4-64.5c-7 0-9.8 2.3-10.9 7.5-6.8 33.7-13.9 67.4-20.8 101.1-1.2 5.9 3.7 10.9 9.7 9.8 3.1-.5 6.2-1.4 9-2.6 24-10.9 48-21.9 72-32.9 8.4-3.9 9.4-10.1 3.1-17-6.5-7.1-12.9-14.3-19.4-21.5-11.8-13.1-23.5-26.3-35.4-39.2-2.3-2.6-5.8-4.2-7.3-5.2z"/>
  <path class="st1" d="M802.3 434.9c1.5 1.1 5 2.6 7.3 5.1 12 12.9 23.7 26.1 35.4 39.2 6.5 7.2 12.9 14.4 19.4 21.5 6.3 6.9 5.3 13.1-3.1 17-24 11-48 22-72 32.9-2.8 1.3-6 2.1-9 2.6-6 1-10.9-3.9-9.7-9.8 6.9-33.7 14-67.4 20.8-101.1 1.1-5.2 3.9-7.5 10.9-7.4z"/>
</svg>
