<svg version="1.1" id="Layer_1" xmlns="http://www.w3.org/2000/svg" x="0" y="0" viewBox="0 0 1600 759" xml:space="preserve">
  <style>
    .st0{fill:#0e54d7}.st1{fill:#010204}
  </style>
  <path class="st0" d="M1 760V1h1600v759H1zm1107.1-508.4c-8.6-1.9-17-3.8-25.4-5.7-20.5-4.5-37.1 5.8-41.8 26.1-26.2 114.2-52.3 228.3-78.5 342.5-4.7 20.7 5.7 37.4 26.8 42.2 109.1 25 218.3 50 327.5 74.9 4.3 1 9 1.4 13.3.9 15.7-2.1 25.1-12 29-29.3 14.1-62 28.4-123.9 42.5-185.9 12-52.4 24-104.8 35.8-157.2 3.5-15.4-5.1-31.1-19.7-37-3.5-1.4-7.3-2.2-11-3.1-7.2-1.8-14.4-3.4-21.7-5.1.8-3.9 1.6-7.2 2.2-10.4 2-12.1-4.8-21.2-17.7-24-11.4-2.5-21.5 3.6-24.6 14.9-.8 3.2-1.6 6.3-2.5 9.9-64.1-14.7-127.7-29.2-190.4-43.6 0-7.9 1.2-15.1-.3-21.8-1.7-7.7-8.5-11.4-16.2-12.9-14.2-2.8-20.4 2.6-27.3 24.6z"/>
  <path class="st1" d="M1108.1 251.6c6.9-22 13.2-27.4 27.4-24.6 7.8 1.5 14.5 5.2 16.2 12.9 1.5 6.7.3 14 .3 21.8 62.7 14.4 126.4 28.9 190.4 43.6.9-3.6 1.7-6.7 2.5-9.9 3-11.3 13.1-17.4 24.6-14.9 12.9 2.8 19.7 12 17.7 24-.5 3.3-1.3 6.5-2.2 10.4 7.3 1.7 14.5 3.3 21.7 5.1 3.7.9 7.5 1.7 11 3.1 14.6 5.9 23.1 21.6 19.7 37-11.8 52.4-23.8 104.8-35.8 157.2-14.2 62-28.4 123.9-42.5 185.9-3.9 17.3-13.4 27.2-29 29.3-4.3.6-9 .1-13.3-.9-109.2-24.9-218.3-49.9-327.5-74.9-21.1-4.8-31.5-21.5-26.8-42.2 26.1-114.2 52.3-228.4 78.5-342.5 4.7-20.3 21.2-30.6 41.8-26.1 8.2 1.8 16.6 3.7 25.3 5.7zm169 419.5c.8-.3 1.6-.6 2.3-1 23.7-14.8 47.4-29.7 71-44.5.9-.6 1.8-1.4 2.9-2.3-1-.4-1.6-.7-2.2-.9l-43.8-9.9c-10.8-2.4-17.8 2-20.3 12.8-3.5 15.1-7 30.1-10.5 45.2v1.2l.6-.6zm82.8-35.2c-1.6.8-3.3 1.5-4.8 2.5-24.6 15.4-49.2 30.7-73.6 46.2-9.2 5.9-18.9 7.6-29.6 5.2-80-18.4-160-36.6-239.9-55.1-12.8-3-26.8-3.4-37.2-15.2-.1 2.9-.4 4.7-.2 6.4 1 9.6 7.2 15.5 18.5 18.1 89.9 20.6 179.7 41.1 269.6 61.7 18.8 4.3 37.6 8.6 56.5 12.9 13.5 3.1 22.9-2.7 26.3-16 .7-2.9 1.4-5.8 2-8.8 4.3-19.2 8.6-38.3 12.8-57.5 0-.3.1-.6.1-1-.2.2-.3.4-.5.6zm50.4-218.2c.5-1.5.9-2.6 1.2-3.7 4.2-18.5 8.6-37 12.6-55.5 2.6-12.1-3.7-21.7-16-24.6-16.2-3.7-32.4-7.4-48.7-11.1-2.2-.5-4.4-.8-6.4-1.2-.5.9-.8 1.1-.8 1.4-1.1 4.5-2.2 9.1-3.2 13.6-1.7 7.8-1.5 8.4 5.6 12.1 3.5 1.9 4.7 4.7 3.4 8.4-1.3 3.5-4.3 5.1-7.6 3.9-3.8-1.5-7.7-3.4-10.5-6.2-5.1-5-6-11.7-4.4-18.6 1.3-5.9 2.6-11.8 4-18-74.1-17-147.3-33.7-221-50.6-1.3 5.8-2.6 11.1-3.8 16.4-1.5 6.5-.8 7.9 5.3 10.9 3.8 1.8 5.2 4.9 3.8 8.6-1.4 3.8-4.6 4.9-8.6 3.8-7.8-2.2-14-9.2-14.3-17.4-.1-4.1.8-8.2 1.5-12.3.8-4.3 1.9-8.6 2.9-13.1-9.3-2.1-17.7-4-26.1-5.9-12.7-2.8-22.4 3.3-25.3 16-3 13-6 25.9-8.9 38.9-1.4 6.3-2.9 12.6-4.4 19.2 3.1.8 5.6 1.4 8.2 2 20.1 4.6 40.2 9.2 60.3 13.9 5.4 1.3 7.7 5.4 5.6 9.6-2.1 4.1-5.7 4.1-9.5 3.2-20.6-4.7-41.2-9.5-61.8-14.2-1.9-.4-3.8-.7-5.4-1-.5.9-.7 1.2-.7 1.5-18.7 81.6-37.5 163.2-56 244.8-2.9 12.6 3.7 22.2 16.6 25.1 82.4 18.9 164.8 37.7 247.2 56.5 10.4 2.4 17.7-2.2 20.1-12.5 3-13.1 6-26.3 9-39.4 4.1-18 18.4-26.9 36.3-22.9 13 3 26 5.9 38.9 8.9 11.1 2.5 18.2-1.9 20.7-12.9 12.2-53.2 24.4-106.4 36.5-159.6.4-1.6.5-3.2.8-4.9-1.5-.4-2.6-.8-3.7-1.1-37.8-8.7-75.6-17.3-113.4-26-51.4-11.8-102.8-23.5-154.3-35.3-6.2-1.4-8.9-4.5-7.9-8.8 1-4.3 4.6-5.6 11.1-4.1 77 17.6 154.1 35.3 231.1 52.9 13.3 3.3 26.6 6.3 40 9.3zm-54.8-109.4c5.8 1.3 10.9 2.5 16.4 3.7.4-5.7 5-11.2.1-15.8-2.2-2-7.1-3.1-9.9-2.1-6.3 2.2-4.4 9-6.6 14.2zm-234.1-53.6c5.9 1.3 10.9 2.4 16.5 3.7.2-5.7 5.1-11.2 0-15.8-2.2-2-7.2-3.1-10-2.1-6.2 2.2-4.5 8.9-6.5 14.2z"/>
  <path class="st0" d="M1410.3 417.7c-13.4-3-26.7-6-40-9.1-77-17.6-154.1-35.3-231.1-52.9-6.5-1.5-10.1-.1-11.1 4.1-1 4.3 1.6 7.4 7.9 8.8 51.4 11.8 102.8 23.5 154.3 35.3 37.8 8.6 75.6 17.3 113.4 26 1.1.3 2.2.6 3.7 1.1-.3 1.7-.5 3.3-.8 4.9-12.2 53.2-24.3 106.4-36.5 159.6-2.5 11-9.6 15.4-20.7 12.9-13-3-26-5.9-38.9-8.9-17.9-4.1-32.2 4.9-36.3 22.9-3 13.1-6 26.3-9 39.4-2.4 10.4-9.7 14.9-20.1 12.5-82.4-18.8-164.8-37.7-247.2-56.5-12.9-2.9-19.4-12.5-16.6-25.1 18.6-81.6 37.3-163.2 56-244.8.1-.3.3-.6.7-1.5 1.7.3 3.6.5 5.4 1 20.6 4.7 41.2 9.5 61.8 14.2 3.8.9 7.4.9 9.5-3.2 2.1-4.2-.2-8.3-5.6-9.6-20.1-4.7-40.2-9.3-60.3-13.9-2.6-.6-5.1-1.2-8.2-2 1.5-6.7 2.9-13 4.4-19.2 3-13 5.9-26 8.9-38.9 3-12.8 12.6-18.9 25.3-16 8.4 1.9 16.8 3.8 26.1 5.9-1 4.5-2.1 8.8-2.9 13.1-.7 4.1-1.7 8.2-1.5 12.3.3 8.1 6.4 15.2 14.3 17.4 4 1.1 7.2 0 8.6-3.8 1.4-3.8 0-6.8-3.8-8.6-6.1-3-6.8-4.4-5.3-10.9 1.2-5.3 2.4-10.7 3.8-16.4 73.7 16.9 146.9 33.6 221 50.6-1.4 6.2-2.6 12.1-4 18-1.6 6.9-.7 13.5 4.4 18.6 2.8 2.8 6.7 4.8 10.5 6.2 3.3 1.3 6.3-.4 7.6-3.9 1.3-3.6.1-6.5-3.4-8.4-7-3.7-7.3-4.3-5.6-12.1 1-4.5 2.1-9.1 3.2-13.6.1-.3.3-.6.8-1.4 2 .4 4.2.7 6.4 1.2 16.2 3.7 32.5 7.4 48.7 11.1 12.2 2.8 18.6 12.4 16 24.6-4.1 18.5-8.4 37-12.6 55.5-.3 1-.7 2-1.2 3.5zm-97.5 104.4c-7.9 0-12.9 4.2-14.5 11.1-2.3 9.5-4.4 19.1-6.5 28.7-1.9 8.6 1.9 14.7 10.5 16.8 9.7 2.3 19.4 4.5 29.2 6.6 8.1 1.7 14.2-2.1 16.1-10.1 2.5-10.2 4.8-20.4 7-30.6 1.3-6.2-2-12.7-8-14.3-11.7-3.3-23.6-5.8-33.8-8.2zm-48.9-38.1c8.4 0 13.3-4.1 15-11.1 2.2-9.6 4.4-19.1 6.5-28.7 1.8-8.3-1.9-14.5-10.2-16.5-9.7-2.4-19.4-4.6-29.2-6.7-8.5-1.8-14.5 1.9-16.5 10.3-2.4 9.9-4.7 19.8-6.6 29.7-.5 2.6-.3 5.8.8 8.2 1.2 2.5 3.5 5.6 6 6.3 11.8 3.3 24 6 34.2 8.5zm-59.8 57.7c-.1 8.3 4 13.3 10.9 14.9 9.7 2.3 19.5 4.5 29.2 6.6 8.1 1.7 14.2-2 16.2-10.1 2.4-9.7 4.6-19.4 6.7-29.2 1.8-8.7-2-14.7-10.6-16.8-9.7-2.3-19.4-4.6-29.2-6.6-2.5-.5-5.6-.5-7.7.6-2.8 1.4-6.2 3.8-7 6.5-3.5 11.9-6.1 23.9-8.5 34.1zm-114.4-97.8c7.2-.1 12-3.9 13.6-10.3 2.4-9.8 4.7-19.7 6.8-29.6 1.8-8.6-2-14.6-10.6-16.7-9.7-2.3-19.4-4.5-29.2-6.6-7.7-1.6-14 2.1-15.9 9.8-2.5 10.1-4.8 20.4-7 30.6-1.5 6.9 2.2 13 9 15.1 3.3 1 6.8 1.7 10.2 2.5 8 1.9 16.1 3.7 23.1 5.2zm108.4-20.9c.3-8.7-3.1-13.6-9.8-15.2-10.3-2.6-20.7-4.9-31.1-7.1-6.7-1.4-13.1 2.2-14.8 8.8-2.8 10.6-5.2 21.3-7.3 32.1-1.4 7.4 2.6 13.3 9.9 15 10.3 2.6 20.7 4.9 31.1 7.1 6 1.3 12.4-1.9 14-7.8 3.2-11.5 5.7-23.2 8-32.9zm175.3 38.9c0-7.5-3.5-12.4-9.6-13.9-10.5-2.6-21-5.1-31.6-7.2-7-1.4-13.1 2.5-14.9 9.4-2.6 10.3-5 20.7-7.1 31.1-1.5 7.2 2.4 13.5 9.5 15.3 10.3 2.6 20.7 5 31.1 7.2 7.1 1.5 13.2-2.6 15.2-9.7.6-2.1 1.1-4.2 1.5-6.3 2.2-9.1 4.2-18.2 5.9-25.9zm-257 60.6c.1 7.3 3.9 12.2 10.3 13.8 10 2.5 20.1 4.8 30.2 6.9 7.8 1.6 14-2.2 15.9-9.9 2.5-10 4.8-20.1 6.9-30.2 1.6-7.4-2.3-13.8-9.7-15.7-10.3-2.6-20.7-4.9-31.1-7.2-6.6-1.4-12.8 2.5-14.8 8.9-.7 2.2-1.2 4.5-1.7 6.8-2.1 9.4-4.2 18.6-6 26.6zm-24.1-39.8c.4-8.7-3.6-13.8-10.7-15.5-9.7-2.3-19.4-4.5-29.2-6.7-7.7-1.7-14.3 2.1-16.1 9.6-2.5 10.2-4.9 20.4-7 30.6-1.5 7.1 2.1 13.5 8.9 15.2 10.8 2.8 21.7 5.2 32.6 7.5 5.8 1.2 12-2.1 13.6-7.7 3-11.5 5.5-23.3 7.9-33zm-40.8 120.5c8.5.2 13.7-3.3 15.2-9.4 2.6-10.3 5-20.7 7.1-31.1 1.5-7.3-2.4-13.7-9.4-15.4-10.3-2.6-20.7-5-31.1-7.1-6.8-1.4-13.2 1.9-14.8 8.1-3 11.2-5.5 22.6-7.7 34-1.1 5.7 2.1 11.3 7.4 12.8 11.7 3.2 23.6 5.7 33.3 8.1zm87.6 20.1c8.8.2 13.8-3.5 15.5-10.5 2.4-10 4.7-20.1 6.8-30.2 1.5-7.1-2.4-13.6-9.4-15.3-10.2-2.6-20.4-4.9-30.6-7-7.8-1.6-14 2.3-15.9 10-2.5 10.2-4.8 20.4-7 30.7-1.3 6.1 1.6 12.5 7.4 14.2 11.6 3.2 23.5 5.7 33.2 8.1zm90 6.8c-9.3-2.1-17.9-4-26.5-6.2-1.5-.4-2.9-2.2-3.6-3.6-1.5-3.3-4-5.6-7.3-4.4-2.3.9-4.9 3.6-5.5 5.9-1.5 5.9 2.2 12.2 8.1 13.8 11.3 3 22.6 5.5 34.1 7.7 6 1.1 11.7-2.6 13.2-8.3 2.9-10.9 5.4-22 7.5-33.1 1.3-7-2.6-12.7-9.3-14.4-10.3-2.6-20.7-5-31.1-7.1-6.9-1.4-13 2.1-15 8.5-1.1 3.3-1.9 6.7-2.4 10.2-.6 4.1 1.3 7 5.3 7.8 3.8.8 6.4-1.2 7.6-4.9.8-2.7 1.5-5.4 2.3-8.5 10.2 2.3 19.9 4.6 29.7 6.9-2.6 10.1-4.8 19.6-7.1 29.7z"/>
  <path class="st0" d="M1360.3 636.3c-4.3 19.2-8.6 38.3-12.9 57.5-.7 2.9-1.3 5.8-2 8.8-3.3 13.4-12.8 19.1-26.3 16-18.8-4.3-37.6-8.6-56.5-12.9-89.9-20.6-179.7-41.2-269.6-61.7-11.3-2.6-17.5-8.5-18.5-18.1-.2-1.7.1-3.5.2-6.4 10.4 11.9 24.4 12.3 37.2 15.2 79.9 18.5 159.9 36.7 239.9 55.1 10.7 2.5 20.3.7 29.6-5.2 24.5-15.5 49.1-30.9 73.6-46.2 1.5-1 3.2-1.7 4.8-2.5.2.1.4.3.5.4z"/>
  <path class="st0" d="M1276.4 670.5c3.5-15.1 7-30.1 10.5-45.2 2.5-10.8 9.6-15.2 20.3-12.8l43.8 9.9c.6.1 1.2.5 2.2.9-1.1.9-2 1.7-2.9 2.3-23.7 14.9-47.3 29.7-71 44.5-.7.4-1.5.7-2.3 1-.1-.2-.3-.4-.6-.6zM1355.5 308.3c2.2-5.2.3-12 6.6-14.2 2.8-1 7.7.1 9.9 2.1 4.9 4.6.3 10.1-.1 15.8-5.5-1.3-10.5-2.4-16.4-3.7zM1121.4 254.7c2.1-5.3.3-12 6.4-14.2 2.8-1 7.8 0 10 2.1 5.1 4.7.3 10.1 0 15.8-5.5-1.3-10.5-2.4-16.4-3.7zM1359.9 635.9l.5-.5c0 .3-.1.6-.1 1-.1-.2-.3-.4-.4-.5z"/>
  <path class="st0" d="M1277.1 671.1l-.6.6v-1.2l.6.6z"/>
  <path class="st1" d="M1312.8 522.1c10.2 2.4 22.1 4.9 33.8 8.1 6 1.6 9.3 8.2 8 14.3-2.2 10.2-4.5 20.4-7 30.6-2 8-8.1 11.8-16.1 10.1-9.7-2.1-19.5-4.2-29.2-6.6-8.6-2.1-12.3-8.2-10.5-16.8 2.1-9.6 4.2-19.1 6.5-28.7 1.6-6.8 6.6-11 14.5-11zm-1.4 13.4c-2.4 10.4-4.5 20-6.8 30 10.4 2.4 20 4.5 29.9 6.8 2.3-10.3 4.5-20 6.8-29.9-10.2-2.4-19.7-4.6-29.9-6.9zM1263.9 484c-10.2-2.5-22.3-5.2-34.3-8.6-2.4-.7-4.8-3.7-6-6.3-1.1-2.3-1.3-5.6-.8-8.2 2-10 4.2-19.9 6.6-29.7 2-8.4 8-12.1 16.5-10.3 9.8 2.1 19.5 4.3 29.2 6.7 8.3 2.1 12 8.2 10.2 16.5-2.1 9.6-4.3 19.2-6.5 28.7-1.6 7.1-6.5 11.2-14.9 11.2zm-28.2-20.3c10.2 2.3 19.9 4.5 30 6.8 2.4-10.4 4.5-20.1 6.7-29.9-10.4-2.4-19.9-4.5-29.9-6.8-2.3 10.1-4.5 19.7-6.8 29.9zM1204.1 541.7c2.4-10.1 5-22.2 8.4-34 .8-2.7 4.2-5.1 7-6.5 2.1-1.1 5.2-1.1 7.7-.6 9.8 2 19.5 4.3 29.2 6.6 8.5 2 12.4 8.1 10.6 16.8-2.1 9.8-4.3 19.5-6.7 29.2-2 8.1-8.1 11.8-16.2 10.1-9.8-2.1-19.5-4.3-29.2-6.6-6.9-1.8-10.9-6.7-10.8-15zm20.2-28.2c-2.4 10.4-4.5 20.1-6.8 30 10.4 2.4 20 4.5 29.9 6.8 2.3-10.3 4.5-19.9 6.8-29.9-10.1-2.3-19.7-4.5-29.9-6.9zM1089.7 443.9c-7-1.6-15.1-3.4-23.2-5.2-3.4-.8-6.8-1.5-10.2-2.5-6.8-2.1-10.5-8.2-9-15.1 2.2-10.2 4.5-20.4 7-30.6 1.9-7.7 8.2-11.4 15.9-9.8 9.7 2.1 19.5 4.3 29.2 6.6 8.6 2.1 12.5 8.1 10.6 16.7-2.1 9.9-4.4 19.8-6.8 29.6-1.5 6.4-6.3 10.2-13.5 10.3zm-22.4-50.2c-2.3 10.2-4.5 20-6.8 30 10.5 2.4 20.1 4.5 29.9 6.7 2.4-10.4 4.5-19.9 6.8-29.9-10.1-2.3-19.7-4.5-29.9-6.8zM1198.1 423c-2.3 9.7-4.8 21.4-8 32.9-1.6 5.9-8 9.1-14 7.8-10.4-2.2-20.8-4.5-31.1-7.1-7.3-1.8-11.3-7.6-9.9-15 2.1-10.8 4.5-21.5 7.3-32.1 1.7-6.6 8.1-10.2 14.8-8.8 10.4 2.2 20.8 4.5 31.1 7.1 6.7 1.7 10.1 6.6 9.8 15.2zm-50 20.7c10.2 2.3 19.9 4.5 30 6.8 2.3-10.4 4.5-20 6.7-29.9-10.3-2.4-20-4.5-29.9-6.8-2.3 10.1-4.5 19.6-6.8 29.9zM1373.4 461.9c-1.7 7.7-3.8 16.8-5.8 25.9l-1.5 6.3c-2 7.1-8.1 11.2-15.2 9.7-10.4-2.2-20.8-4.5-31.1-7.2-7.1-1.8-11-8-9.5-15.3 2.1-10.4 4.5-20.8 7.1-31.1 1.7-6.9 7.9-10.8 14.9-9.4 10.6 2.1 21.1 4.6 31.6 7.2 6 1.5 9.5 6.4 9.5 13.9zm-43.3-8.1c-2.3 10.1-4.5 19.8-6.8 30 9.5 2.2 18.5 4.3 27.5 6.2.8.2 2.7-.9 2.9-1.6 2.2-9.1 4.2-18.2 6.3-27.6-10.1-2.4-19.6-4.6-29.9-7zM1116.4 522.5c1.8-8 3.9-17.3 6-26.5.5-2.3 1-4.6 1.7-6.8 2-6.4 8.2-10.3 14.8-8.9 10.4 2.2 20.8 4.5 31.1 7.2 7.4 1.9 11.3 8.3 9.7 15.7-2.2 10.1-4.5 20.2-6.9 30.2-1.9 7.6-8.1 11.5-15.9 9.9-10.1-2.1-20.2-4.4-30.2-6.9-6.4-1.7-10.2-6.6-10.3-13.9zm50.2-22.2c-10.2-2.3-19.8-4.5-29.9-6.8-2.3 10.2-4.6 19.8-6.9 29.9 10.2 2.3 19.9 4.5 30 6.8 2.3-10.2 4.5-19.9 6.8-29.9zM1092.3 482.7c-2.3 9.8-4.8 21.5-8 33-1.6 5.7-7.8 8.9-13.6 7.7-10.9-2.2-21.8-4.7-32.6-7.5-6.8-1.7-10.4-8.1-8.9-15.2 2.1-10.3 4.5-20.5 7-30.6 1.9-7.5 8.5-11.3 16.1-9.6 9.7 2.2 19.5 4.4 29.2 6.7 7.1 1.6 11.1 6.7 10.8 15.5zm-43.2-9.3c-2.3 10.4-4.5 20-6.8 30 10.4 2.4 20 4.5 29.9 6.8 2.3-10.2 4.5-19.9 6.8-29.9-10-2.3-19.6-4.5-29.9-6.9zM1051.5 603.2c-9.7-2.3-21.6-4.9-33.2-8.2-5.3-1.5-8.5-7.1-7.4-12.8 2.2-11.4 4.7-22.8 7.7-34 1.6-6.2 8-9.5 14.8-8.1 10.4 2.1 20.8 4.5 31.1 7.1 7 1.8 10.9 8.1 9.4 15.4-2.1 10.4-4.5 20.8-7.1 31.1-1.7 6.2-6.9 9.7-15.3 9.5zm2.4-13.2c2.3-10.1 4.5-19.8 6.8-30-10.3-2.3-19.9-4.5-29.9-6.8-2.3 10.3-4.5 19.9-6.8 29.9 10.2 2.3 19.8 4.5 29.9 6.9zM1139.1 623.3c-9.7-2.3-21.6-4.8-33.2-8.2-5.8-1.7-8.8-8.1-7.4-14.2 2.2-10.2 4.5-20.5 7-30.7 1.9-7.7 8.1-11.6 15.9-10 10.3 2.1 20.5 4.5 30.6 7 7 1.8 10.9 8.3 9.4 15.3-2.2 10.1-4.4 20.2-6.8 30.2-1.7 7-6.7 10.8-15.5 10.6zm-20.7-50.1c-2.3 10.4-4.5 20-6.8 30 10.3 2.4 19.9 4.6 29.9 6.8 2.3-10.1 4.5-19.8 6.8-29.9-10-2.3-19.7-4.5-29.9-6.9zM1229.1 630.1c2.3-10 4.5-19.6 6.9-29.9-9.8-2.3-19.6-4.5-29.7-6.9-.8 3.1-1.4 5.9-2.3 8.5-1.2 3.7-3.8 5.7-7.6 4.9-4-.8-5.9-3.7-5.3-7.8.5-3.4 1.3-6.9 2.4-10.2 2.1-6.4 8.2-10 15-8.5 10.4 2.2 20.8 4.5 31.1 7.1 6.7 1.7 10.7 7.5 9.3 14.4-2.1 11.1-4.7 22.1-7.5 33.1-1.5 5.8-7.2 9.5-13.2 8.3-11.4-2.1-22.8-4.7-34.1-7.7-5.9-1.5-9.5-7.9-8.1-13.8.6-2.4 3.2-5.1 5.5-5.9 3.3-1.2 5.8 1.1 7.3 4.4.7 1.5 2.2 3.3 3.6 3.6 8.8 2.4 17.4 4.2 26.7 6.4z"/>
  <path class="st0" d="M1311.4 535.5c10.2 2.3 19.7 4.5 29.9 6.8-2.3 9.9-4.4 19.6-6.8 29.9-9.9-2.2-19.6-4.4-29.9-6.8 2.3-9.9 4.5-19.5 6.8-29.9zM1235.7 463.7c2.3-10.2 4.6-19.9 6.9-29.9 9.9 2.3 19.5 4.4 29.9 6.8-2.2 9.9-4.4 19.5-6.7 29.9-10.2-2.2-19.9-4.5-30.1-6.8zM1224.3 513.5c10.2 2.3 19.8 4.5 30 6.8-2.3 10-4.5 19.6-6.8 29.9-9.9-2.3-19.5-4.4-29.9-6.8 2.1-9.8 4.3-19.4 6.7-29.9zM1067.3 393.7c10.1 2.3 19.8 4.5 29.9 6.9-2.3 9.9-4.4 19.5-6.8 29.9-9.9-2.2-19.5-4.4-29.9-6.7 2.3-10.2 4.5-19.9 6.8-30.1zM1148.1 443.7c2.4-10.3 4.5-19.8 6.9-29.9 9.9 2.3 19.5 4.4 29.9 6.8-2.2 9.9-4.4 19.5-6.7 29.9-10.2-2.3-19.9-4.5-30.1-6.8zM1330.1 453.8c10.3 2.4 19.8 4.5 29.9 6.9-2.1 9.4-4.1 18.5-6.3 27.6-.2.8-2 1.8-2.9 1.6-9-1.9-18-4-27.5-6.2 2.3-10.1 4.5-19.7 6.8-29.9zM1166.6 500.3c-2.3 10-4.4 19.7-6.8 29.9-10.1-2.3-19.8-4.5-30-6.8 2.3-10.1 4.5-19.7 6.9-29.9 10.1 2.3 19.7 4.5 29.9 6.8zM1049.1 473.4c10.3 2.4 20 4.6 30 6.9-2.3 10.1-4.5 19.7-6.8 29.9-9.9-2.3-19.5-4.4-29.9-6.8 2.1-10 4.3-19.6 6.7-30zM1053.9 590c-10.1-2.3-19.8-4.5-29.9-6.9 2.3-10 4.5-19.6 6.8-29.9 10 2.3 19.6 4.4 29.9 6.8-2.3 10.1-4.5 19.9-6.8 30zM1118.4 573.2c10.2 2.3 19.9 4.6 30 6.9-2.3 10.2-4.5 19.8-6.8 29.9-10-2.3-19.6-4.5-29.9-6.8 2.2-10 4.4-19.6 6.7-30z"/>
</svg>
