<svg version="1.1" id="Layer_1" xmlns="http://www.w3.org/2000/svg" x="0" y="0" viewBox="0 0 1000 712" xml:space="preserve">
  <style>
    .st1{fill:#fdfdfd}
  </style>
  <path d="M1 713V1h1000v712H1zm749.4-184.8c3.3.6 5.3.9 7.2 1.3 47 9.6 93.9 19.1 140.9 28.7 5.6 1.2 9.9-.3 13-5 17.7-27 35.4-54 53-81.2 4.8-7.4 1.4-15.2-7.3-17.2-8-1.8-16-3.3-24-5-57.7-11.8-115.5-23.6-173.2-35.3-3.7-.8-5.1-2.1-4.9-6.1.7-14.6 1.1-29.3 1.5-44 .2-7.5-2.7-11.3-9.8-12.8-13-2.8-26.1-5.4-39.1-8-6.9-1.3-12.4 2.3-13.6 8.5-1.1 6.2 2.7 11.3 9.6 12.8 8.3 1.8 16.6 3.6 25 5 4.3.7 5.8 2.3 5.7 7.1-2.2 59.3-4.1 118.6-6.1 177.9-.3 9 2.4 12.5 11.1 14.3 62.3 12.8 124.6 25.5 186.9 38.2 6.7 1.4 12.6-2.2 13.7-8.3 1.2-6.3-2.5-11.7-9.4-13.1l-93.9-19.2-82.2-16.8c-2.2-.5-4.2-.7-4.1-3.8.1-5.6 0-11.4 0-18zm6.1 131.1c19.7.1 35.6-15.8 35.5-35.5 0-19.6-16.1-35.6-35.7-35.5-19.4.1-35.2 16-35.3 35.4-.1 19.7 15.7 35.5 35.5 35.6zm136.8-14.2c.3-19.6-15-35.6-34.5-36-19.9-.4-36.1 15.3-36.4 35.2-.3 19.1 15.3 35.3 34.3 35.7 20.2.4 36.2-14.9 36.6-34.9z" fill="#a04598"/>
  <path class="st1" d="M750.4 528.2c0 6.5.1 12.4-.1 18.2-.1 3.1 1.9 3.3 4.1 3.8l82.2 16.8c31.3 6.4 62.6 12.7 93.9 19.2 6.8 1.4 10.6 6.8 9.4 13.1-1.2 6.1-7 9.7-13.7 8.3-62.3-12.7-124.6-25.4-186.9-38.2-8.7-1.8-11.4-5.3-11.1-14.3 2-59.3 3.9-118.6 6.1-177.9.2-4.8-1.3-6.3-5.7-7.1-8.4-1.4-16.7-3.3-25-5-7-1.5-10.8-6.7-9.6-12.8 1.1-6.2 6.7-9.8 13.6-8.5 13.1 2.5 26.1 5.2 39.1 8 7.1 1.5 10 5.4 9.8 12.8-.4 14.7-.8 29.3-1.5 44-.2 4.1 1.2 5.4 4.9 6.1 57.7 11.7 115.5 23.5 173.2 35.3 8 1.6 16 3.2 24 5 8.7 1.9 12.2 9.7 7.3 17.2-17.6 27.1-35.3 54.1-53 81.2-3.1 4.7-7.4 6.2-13 5-47-9.7-93.9-19.2-140.9-28.7-1.8-.6-3.8-.9-7.1-1.5zM756.5 659.3c-19.8-.1-35.6-15.9-35.4-35.6.1-19.4 15.9-35.3 35.3-35.4 19.6-.1 35.7 15.9 35.7 35.5-.1 19.7-15.9 35.5-35.6 35.5zM893.3 645.1c-.3 20.1-16.3 35.3-36.5 34.9-19-.4-34.6-16.6-34.3-35.7.3-19.9 16.5-35.7 36.4-35.2 19.3.4 34.7 16.4 34.4 36z"/>
</svg>
