<svg id="Layer_1" data-name="Layer 1" xmlns="http://www.w3.org/2000/svg" width="4.95in" height="1.23in" viewBox="0 0 356.7 88.9">
  <defs>
    <style>
      .cls-1 {
        fill: #fff;
      }

      .cls-2 {
        fill: #231f20;
      }

      .cls-3 {
        fill: #5e0009;
      }

      .cls-4 {
        fill: #fdfdfc;
      }
    </style>
  </defs>
  <title>carrington-cmyk-Left_Straight_OnDark</title>
  <g>
    <path class="cls-1" d="M103.29,69c0,2.55-1.51,3.79-4,3.79s-4-1.23-4-3.79V63.14h2.07V69c0,1,.27,2,2,2,1.48,0,1.95-.65,1.95-2V63.14h2.08Z"/>
    <polygon class="cls-1" points="123.9 63.14 125.96 63.14 129.91 69.47 129.93 69.47 129.93 63.14 131.87 63.14 131.87 72.58 129.8 72.58 125.87 66.26 125.84 66.26 125.84 72.58 123.9 72.58 123.9 63.14"/>
    <rect class="cls-1" x="151.98" y="63.14" width="2.08" height="9.44"/>
    <polygon class="cls-1" points="178.49 72.58 176.15 72.58 173.08 63.14 175.23 63.14 177.33 69.78 177.36 69.78 179.49 63.14 181.63 63.14 178.49 72.58"/>
    <polygon class="cls-1" points="201.26 63.14 208.32 63.14 208.32 64.89 203.33 64.89 203.33 66.91 207.91 66.91 207.91 68.52 203.33 68.52 203.33 70.83 208.43 70.83 208.43 72.58 201.26 72.58 201.26 63.14"/>
    <path class="cls-1" d="M230.5,67.41h2.28c.93,0,1.42-.4,1.42-1.35s-.49-1.31-1.42-1.31H230.5Zm-2.07-4.27h5.09a2.59,2.59,0,0,1,2.76,2.6,2.32,2.32,0,0,1-1.5,2.37v0c1,.26,1.32,1.25,1.38,2.2a5.18,5.18,0,0,0,.4,2.24h-2.08a10.86,10.86,0,0,1-.33-2.26c-.14-1-.53-1.43-1.57-1.43H230.5v3.69h-2.07Z"/>
    <path class="cls-1" d="M257.39,69.45c0,1.25,1,1.74,2.09,1.74.72,0,1.83-.21,1.83-1.18s-1.41-1.19-2.8-1.55-2.82-.92-2.82-2.69c0-1.93,1.83-2.86,3.53-2.86,2,0,3.79.86,3.79,3h-2c-.07-1.14-.88-1.43-1.87-1.43-.66,0-1.43.27-1.43,1.07s.45.82,2.82,1.43c.69.17,2.8.6,2.8,2.75,0,1.73-1.36,3-3.92,3-2.1,0-4-1-4-3.35Z"/>
    <rect class="cls-1" x="282.83" y="63.14" width="2.08" height="9.44"/>
    <polygon class="cls-1" points="306.66 64.89 303.83 64.89 303.83 63.14 311.57 63.14 311.57 64.89 308.74 64.89 308.74 72.58 306.66 72.58 306.66 64.89"/>
    <polygon class="cls-1" points="332.89 68.9 329.41 63.14 331.75 63.14 333.96 66.87 336.16 63.14 338.47 63.14 334.97 68.95 334.97 72.58 332.89 72.58 332.89 68.9"/>
    <path class="cls-1" d="M87.55,50.12v.64c-2.38-.1-4.31-.15-5.85-.15-1.88,0-4,0-6.2.15v-.59c3.87-1.64,5-6.05,5-14.18V26.22c0-4.17-.25-6.2-3.37-7.19v-.65c2.13.05,4.36.1,6.59.1,1.59,0,3.18-.05,4.76-.05,3.18,6.5,6.6,13.09,10.47,19.79l7.78-19.84c1.49.05,3,.1,4.46.1,2.28,0,4.56-.1,6.85-.2V19c-2.09.35-3,1.53-3,3.87V39.41c0,7,.3,10,3.57,10.71v.64c-3.07-.15-5.7-.15-7.78-.15s-4.57,0-7.59.15v-.64c3.47-.7,3.47-3.87,3.47-10.71V23.14L95.59,51.56h-.4q-6.1-13.85-12.89-28V36C82.3,44.31,83.14,48.53,87.55,50.12Z"/>
    <path class="cls-1" d="M127.28,34.07v5.47c0,4.68.12,6.9,2.54,7.58v.47c-1.87-.12-3.69-.16-5.47-.16-1.55,0-3.3,0-5.32.16v-.47c2.42-.8,2.54-2.94,2.54-7.26V32.72c0-2.82-.16-3.89-2.22-4V28.2a80.47,80.47,0,0,0,8.05-1.39C127.28,29.15,127.28,31.57,127.28,34.07Z"/>
    <path class="cls-1" d="M133.23,39.3l.55.08c.83,4.88,3.18,7.38,6.67,7.38,2.74,0,4.68-1.63,4.68-3.89s-1.75-2.85-5.24-3.73c-5-1.26-7.46-2.42-7.46-6.22s3.65-6.63,9.8-6.63a18.84,18.84,0,0,1,8,1.75l-1.83,5.39-.51,0c-1.12-3.89-3.42-5.95-6.15-5.95a3.71,3.71,0,0,0-3.93,3.45c0,2.74,2.14,2.82,5.95,3.69,5,1.11,7.38,2.46,7.38,6.19,0,4.4-4,7.26-10.87,7.26A20.47,20.47,0,0,1,131,45.85Z"/>
    <path class="cls-1" d="M154.56,39.3l.56.08c.83,4.88,3.17,7.38,6.66,7.38,2.74,0,4.68-1.63,4.68-3.89s-1.74-2.85-5.24-3.73c-5-1.26-7.45-2.42-7.45-6.22s3.65-6.63,9.79-6.63a18.8,18.8,0,0,1,8,1.75l-1.83,5.39-.51,0c-1.11-3.89-3.41-5.95-6.15-5.95a3.71,3.71,0,0,0-3.93,3.45c0,2.74,2.14,2.82,6,3.69,5,1.11,7.38,2.46,7.38,6.19,0,4.4-4,7.26-10.87,7.26a20.51,20.51,0,0,1-9.28-2.18Z"/>
    <path class="cls-1" d="M191.05,37.08c0-6.35-1.9-9.6-5.47-9.6s-5.39,3.25-5.39,9.56,1.9,9.72,5.39,9.72S191.05,43.51,191.05,37.08Zm-5.39-10.79c7.1,0,11.82,4.44,11.82,10.83S192.8,48,185.5,48c-7,0-11.78-4.56-11.78-10.79C173.72,30.7,178.48,26.29,185.66,26.29Z"/>
    <path class="cls-1" d="M197.91,28.71v-.48a54.84,54.84,0,0,0,7.89-1.42V37.92c0,5.31,1.19,7.81,4.17,7.81s5-2.9,5-7.81v-5.2c0-2.82-.16-3.85-2.22-4v-.48a80.84,80.84,0,0,0,8-1.42c-.08,2.81-.08,4.48-.08,4.92V38c0,5.64.28,8.33,2.62,8.85v.67c-1.62,0-3.37-.08-5.23-.08H216a29.81,29.81,0,0,1-.87-3.6c-1.31,2.77-3.65,4.16-7.07,4.16-5.31,0-7.93-3.21-7.93-9.72V32.72C200.13,29.9,200,28.87,197.91,28.71Z"/>
    <path class="cls-1" d="M224.16,47.12c2.42-.8,2.53-2.9,2.53-7.26V32.72c0-2.82-.15-3.89-2.21-4V28.2a55.61,55.61,0,0,0,7.93-1.43v4.84q2.44-5.35,6.78-5.36a5.43,5.43,0,0,1,.79,0l-2.17,6.47h-.52a1.9,1.9,0,0,0-1.59-.8c-2.1,0-3.29,1.95-3.29,5.68v1.9c0,4.68.12,6.9,2.54,7.58v.47c-1.87-.12-3.69-.16-5.47-.16-1.56,0-3.3,0-5.32.16Z"/>
    <path class="cls-1" d="M248.24,34.07v5.47c0,4.68.12,6.9,2.54,7.58v.47c-1.87-.12-3.69-.16-5.47-.16-1.55,0-3.3,0-5.32.16v-.47c2.42-.8,2.54-2.94,2.54-7.26V32.72c0-2.82-.16-3.89-2.23-4V28.2a80.2,80.2,0,0,0,8.06-1.39C248.24,29.15,248.24,31.57,248.24,34.07Z"/>
    <path class="cls-1" d="M258.8,39.23h.59c1.24,6.94,5.31,10.71,11.51,10.71,5.2,0,8.23-2.53,8.23-6.6,0-3.72-3.18-4.51-8.73-5.6-4.21-.84-7.49-1.53-9.67-3.47a8.47,8.47,0,0,1-2.82-6.35c0-6,5.6-10.31,14.87-10.31a31,31,0,0,1,12.69,2.63l-2.27,7.88h-.65c-1.39-5.8-4.56-8.72-9.57-8.72-4.51,0-7.39,2.47-7.39,5.6a4.26,4.26,0,0,0,1.69,3.37c1.74,1.39,5,1.59,9.52,2.48,6.79,1.34,10.11,4.26,10.11,9.37,0,6.45-6,11.46-15.67,11.46a33.84,33.84,0,0,1-15.17-3.23Z"/>
    <path class="cls-1" d="M298,47.08v.47s-2.22,0-6.86-.08c-1.35-.63-1.51-2.65-1.51-6.18V38.43l.08-9.6h-2.22l.2-1.15a16.26,16.26,0,0,0,7.18-6.95h.63c-.12,1.24-.2,2.94-.2,5.05v1.38h4.57l-.48,1.67h-4.09v9C295.28,43.59,295.52,46.36,298,47.08Z"/>
    <path class="cls-1" d="M312.7,35.89c-4.29,0-6.59,2.06-6.59,5.71,0,2.9,1.35,4.64,3.29,4.64,3.14,0,4.21-3.05,4.21-9.08V35.93A7.32,7.32,0,0,0,312.7,35.89Zm9.4,11.66c-1.63,0-3.25-.08-4.88-.08h-1.75a11.1,11.1,0,0,1-1.38-3.25A6.77,6.77,0,0,1,307.54,48c-5,0-8.17-2.74-8.17-6.31,0-4.4,4.72-6.62,14.24-6.94v-.16c0-4.68-1.66-7.1-4.72-7.1s-5,2.14-6.15,6.75h-.55l-1.83-5.91a21.44,21.44,0,0,1,9.32-2.07c3.77,0,6.55.95,8.1,2.66,1.7,1.82,1.7,4.09,1.7,7.3V38c0,5.64.28,8.33,2.62,8.85Z"/>
    <path class="cls-1" d="M332.22,47.08v.47s-2.22,0-6.86-.08c-1.35-.63-1.51-2.65-1.51-6.18V38.43l.08-9.6h-2.22l.2-1.15a16.26,16.26,0,0,0,7.18-6.95h.63c-.12,1.24-.2,2.94-.2,5.05v1.38h4.57l-.48,1.67h-4.09v9C329.52,43.59,329.76,46.36,332.22,47.08Z"/>
    <path class="cls-1" d="M343.81,27.48c-2.14,0-3.77,2-4.28,5.75h8.09C347.5,29.54,346,27.48,343.81,27.48Zm-4.32,7.18c-.05.68-.08,1.31-.08,1.91,0,6.1,2.66,9.51,6.82,9.51,3.57,0,6.11-2.49,7.38-7.29l1.07,1Q352.25,48,344.17,48c-6.78,0-11.35-4.52-11.35-11S337.39,26.25,344,26.25c5.87,0,9.64,3,10.39,8.41Z"/>
    <path class="cls-1" d="M248.52,23.07c0,1.43-1.48,2.59-3.3,2.59s-3.31-1.16-3.31-2.59,1.48-2.58,3.31-2.58S248.52,21.65,248.52,23.07Z"/>
    <path class="cls-1" d="M127.18,23.07c0,1.43-1.47,2.59-3.3,2.59s-3.3-1.16-3.3-2.59,1.48-2.58,3.3-2.58S127.18,21.65,127.18,23.07Z"/>
    <rect class="cls-2" width="64.82" height="88.9"/>
    <rect class="cls-1" x="1.58" y="1.58" width="61.66" height="85.74"/>
    <rect class="cls-3" x="3.17" y="3.17" width="58.47" height="82.55"/>
    <path class="cls-1" d="M57.34,18.19v-.66a.51.51,0,0,0,.22,0,.54.54,0,0,0,.22-1l.31-.81L32.45,8.34,6.81,15.73l.31.81a.54.54,0,0,0,.44,1v.66Z"/>
    <rect class="cls-1" x="8.37" y="19.32" width="48.12" height="3.29"/>
    <rect class="cls-1" x="13.29" y="78.85" width="38.33" height="1.04"/>
    <rect class="cls-1" x="7.43" y="81.17" width="50.06" height="1.04"/>
    <path class="cls-1" d="M12.57,64.19V68h0a2,2,0,0,1-3.77.72c0-.09,0-.1.09,0a1.67,1.67,0,0,0,1.27.59,1.65,1.65,0,0,0,1.64-1.65h0V63.36H8.5v.83H7.43v10.3h5.86V64.19Z"/>
    <path class="cls-1" d="M27.3,64.19V68h0a2,2,0,0,1-2,2,1.94,1.94,0,0,1-1.81-1.24c0-.09,0-.1.09,0a1.65,1.65,0,0,0,2.91-1.06h0V63.36h-3.3v.83H22.15v10.3H28V64.19Z"/>
    <path class="cls-1" d="M42,64.19V68h0a2,2,0,0,1-3.77.72c0-.09,0-.1.09,0a1.67,1.67,0,0,0,1.27.59,1.64,1.64,0,0,0,1.64-1.65h0V63.36H38v.83H36.89v10.3h5.86V64.19Z"/>
    <path class="cls-1" d="M56.77,64.19V68h0a2,2,0,0,1-3.77.72c0-.09,0-.1.09,0A1.65,1.65,0,0,0,56,67.64h0V63.36H52.7v.83H51.62v10.3h5.87V64.19Z"/>
    <polygon class="cls-1" points="35.7 77.56 35.7 76.22 32.9 76.22 32.9 68.72 35.7 68.72 35.7 67.81 29.2 67.81 29.2 68.72 31.99 68.72 31.99 76.22 29.2 76.22 29.2 77.56 35.7 77.56"/>
    <path class="cls-1" d="M30.57,55.74V51.52h3.75v4.22Zm3.75-9.36V50.6H30.57V46.38Zm-4.66-.92V56.65h5.57V45.46Z"/>
    <polygon class="cls-1" points="20.98 77.56 20.98 76.22 18.18 76.22 18.18 68.72 20.98 68.72 20.98 67.81 14.47 67.81 14.47 68.72 17.27 68.72 17.27 76.22 14.47 76.22 14.47 77.56 20.98 77.56"/>
    <path class="cls-1" d="M15.85,55.74V51.52H19.6v4.22Zm3.75-9.36V50.6H15.85V46.38Zm-4.69-.92V56.65h5.57V45.46Z"/>
    <polygon class="cls-1" points="43.94 77.56 43.94 76.22 46.73 76.22 46.73 68.72 43.94 68.72 43.94 67.81 50.44 67.81 50.44 68.72 47.64 68.72 47.64 76.22 50.44 76.22 50.44 77.56 43.94 77.56"/>
    <path class="cls-1" d="M45.31,55.74V51.52h3.75v4.22Zm3.75-9.36V50.6H45.31V46.38Zm-4.66-.92V56.65H50V45.46Z"/>
    <polygon class="cls-3" points="34.1 12.25 48.07 16.9 51.07 16.9 32.45 10.7 13.83 16.9 24.67 16.9 34.1 12.25"/>
    <path class="cls-1" d="M19.6,38.68H15.85V34.46H19.6Zm0-9v3.86H15.85v-3l-.91.21v8.8h5.57V29.46Z"/>
    <path class="cls-1" d="M34.32,38.68H30.57V34.46h3.75Zm0-9v3.86H30.57v-3l-.91.21v8.8h5.57V29.46Z"/>
    <path class="cls-1" d="M49.06,38.68H45.31V34.46h3.75Zm0-9v3.86H45.31v-3l-.91.21v8.8H50V29.46Z"/>
    <path class="cls-1" d="M57.21,23.49H7.65l.74,1.86H8v.3a.67.67,0,0,0,.58.63h3.64a.67.67,0,0,0,.58-.63v-.18h9.93v.18a.67.67,0,0,0,.58.63h3.64a.67.67,0,0,0,.58-.63v-.18h9.94v.18a.67.67,0,0,0,.58.63h3.64a.67.67,0,0,0,.58-.63v-.18h9.92v.18a.68.68,0,0,0,.59.63h3.64a.67.67,0,0,0,.58-.63v-.3h-.51Z"/>
    <path class="cls-4" d="M8.91,26.89a.3.3,0,0,0-.26.32.29.29,0,0,0,.26.31H11.3a.28.28,0,0,0,.26-.31.29.29,0,0,0-.26-.32Z"/>
    <path class="cls-1" d="M11.12,58.23H9.84a.22.22,0,0,1-.06-.44c1.63-.35,2,.69,2-13,0-11.16-.26-13.82-.39-15.07-.09-.92-.49-1.57-1.3-1.57s-1.28.45-1.31,1.53c-.26,5.93-.36,15.4-.37,28.59h0a.3.3,0,0,0-.26.32.29.29,0,0,0,.26.31h2.7a.29.29,0,0,0,.26-.31A.3.3,0,0,0,11.12,58.23Z"/>
    <path class="cls-1" d="M25.86,58.23H24.58a.22.22,0,0,1-.06-.44c1.62-.35,2,.69,2-13,0-11.16-.26-13.82-.39-15.07-.09-.92-.49-1.57-1.3-1.57s-1.28.45-1.31,1.53c-.26,5.93-.36,15.4-.37,28.59h0a.29.29,0,0,0-.26.32.28.28,0,0,0,.26.31h2.7a.29.29,0,0,0,.26-.31A.3.3,0,0,0,25.86,58.23Z"/>
    <path class="cls-1" d="M40.53,58.23H39.25a.22.22,0,0,1-.06-.44c1.62-.35,2,.69,2-13,0-11.16-.27-13.82-.39-15.07-.1-.92-.5-1.57-1.3-1.57s-1.29.45-1.32,1.53c-.25,5.93-.36,15.4-.36,28.59h0a.3.3,0,0,0-.26.32.29.29,0,0,0,.26.31h2.71a.29.29,0,0,0,.26-.31A.3.3,0,0,0,40.53,58.23Z"/>
    <path class="cls-1" d="M55.32,58.23H54a.22.22,0,0,1-.06-.44c1.62-.35,2,.69,2-13,0-11.16-.27-13.82-.39-15.07-.1-.92-.49-1.57-1.3-1.57S53,28.56,53,29.64c-.25,5.93-.36,15.4-.36,28.59h0a.3.3,0,0,0-.27.32.29.29,0,0,0,.27.31h2.7a.29.29,0,0,0,.26-.31A.3.3,0,0,0,55.32,58.23Z"/>
    <path class="cls-4" d="M23.65,26.89a.29.29,0,0,0-.26.32.28.28,0,0,0,.26.31H26a.29.29,0,0,0,.26-.31.3.3,0,0,0-.26-.32Z"/>
    <path class="cls-4" d="M38.36,26.89a.3.3,0,0,0-.26.32.29.29,0,0,0,.26.31h2.39a.28.28,0,0,0,.26-.31.29.29,0,0,0-.26-.32Z"/>
    <path class="cls-4" d="M53.11,26.89a.29.29,0,0,0-.26.32.28.28,0,0,0,.26.31H55.5a.29.29,0,0,0,.26-.31.3.3,0,0,0-.26-.32Z"/>
    <path class="cls-1" d="M57.42,60.59v-.17a.8.8,0,0,0-.69-.74H52.38a.8.8,0,0,0-.69.74v.17h-9v-.17a.8.8,0,0,0-.7-.74H37.63a.8.8,0,0,0-.69.74v.17H28v-.17a.8.8,0,0,0-.69-.74H22.92a.8.8,0,0,0-.7.74v.17h-9v-.17a.8.8,0,0,0-.7-.74H8.18a.8.8,0,0,0-.69.74v.17H6v1.64H58.84V60.59Z"/>
    <path class="cls-1" d="M354.7,46.06a2,2,0,1,1-2,2,2,2,0,0,1,2-2Zm0,.39a1.57,1.57,0,0,0,0,3.14A1.5,1.5,0,0,0,356.2,48a1.52,1.52,0,0,0-1.51-1.57Zm-.3,2.59h-.45V47.09a3.52,3.52,0,0,1,.75-.07,1.19,1.19,0,0,1,.69.15.57.57,0,0,1,.19.42.51.51,0,0,1-.41.47v0a.57.57,0,0,1,.36.48,1.21,1.21,0,0,0,.15.48h-.5a1.61,1.61,0,0,1-.15-.46.35.35,0,0,0-.41-.32h-.22Zm0-1.1h.21c.25,0,.46-.08.46-.29s-.13-.3-.42-.3a.69.69,0,0,0-.25,0Z"/>
    <polygon class="cls-1" points="67.29 85.8 69.8 85.8 69.8 86.27 68.81 86.27 68.81 88.89 68.28 88.89 68.28 86.27 67.29 86.27 67.29 85.8"/>
    <polygon class="cls-1" points="70.32 85.8 71.08 85.8 71.94 88.22 71.95 88.22 72.78 85.8 73.53 85.8 73.53 88.89 73.01 88.89 73.01 86.51 73.01 86.51 72.15 88.89 71.71 88.89 70.85 86.51 70.83 86.51 70.83 88.89 70.32 88.89 70.32 85.8"/>
  </g>
</svg>
