<?xml version="1.0" encoding="utf-8"?>
<!-- Generator: Adobe Illustrator 22.1.0, SVG Export Plug-In . SVG Version: 6.00 Build 0)  -->
<svg version="1.1" xmlns="http://www.w3.org/2000/svg" xmlns:xlink="http://www.w3.org/1999/xlink" x="0px" y="0px"
	 viewBox="0 0 465.8 444.4" style="enable-background:new 0 0 465.8 444.4;" xml:space="preserve">
<style type="text/css">
	.st0{fill:#748751;}
	.st1{fill:#51A0D6;}
	.st2{fill:#60ADD8;}
	.st3{fill:#869968;}
	.st4{fill:none;stroke:#000000;stroke-width:3;stroke-miterlimit:10;}
	.st5{fill:#D3C797;}
</style>
<g id="Layer_3">
	<path class="st0" d="M405.6,296c-2.5,7.8-4.9,15.7-9.3,22.7c-3.5,5.8-9.2,11.1-14.5,15.1C368,344.1,353,353.2,336,356.7
		c-5.9,1.2-11.7,2.2-17.6,3.2c-6.7,0.9-13.5,1.6-20.1,2.1c-53.9,3.9-107.3-6.4-158.8-21.8c-6-1.8-12.1-3.7-17.9-6
		c-1.4-0.5-3.6-1.6-6.1-2.9c-1.3-0.7-2.5-1.4-3.7-2.2c0,0-2.6-1.7-2.3-1.5c-4.4-3.4-6.7-6.3-8.2-10.8c-2.1-6.2-2.2-11.8-2.4-18.7
		c-0.3-7.3-6-13.5-13.5-13.5c-7.1,0-13.8,6.2-13.5,13.5c0.6,15.1,2.4,29.8,12.1,42c8.2,10.2,20,16.1,31.9,20.7
		c13.1,5,26.9,8.6,40.4,12.2c14.7,3.9,29.6,7.3,44.6,9.9c14.2,2.5,28.8,4.5,43.5,5.7c5-4.9,15.2-3.9,18.6,3.1
		c3.6-0.3,7.2-0.2,10.8,0.8c3.1,0.9,5.5,2.9,6.8,5.4c4.6-2,9.3-3.7,14-5.3c6.9-2.2,13.8-3.7,20.8-5c22-2.6,43.5-7.7,64-15.9
		c15.8-6.3,29.3-15.2,39.2-29.1c8.9-12.4,13.5-27.8,13.5-43.1C432.2,284.1,410.2,281.7,405.6,296z"/>
</g>
<g id="Layer_2">
	<path class="st1" d="M146.1,182.2c-3.6-3.8-9-7.1-14.2-7.6c-6.1-0.6-12.9,1.6-18.7,3.4c-5,1.6-10.4,3.5-13.7,7.9
		c-3.3,4.3-3.4,10.2-0.8,14.9c6.1,11.1,20.1,9.9,29.9,15.4c2.6,1.5,5.1,0.6,6.7-1.2c2,0.4,4.2-0.3,5.7-2.5c2.1-3,4-6.1,5.8-9.4
		c0.8-1.5,0.9-3,0.5-4.3c0.6-0.9,1.2-1.8,1.7-2.8C151.1,191.3,149.7,186.1,146.1,182.2z"/>
	<path class="st1" d="M387.4,190.7c-1-5.5-9.1-9.2-13.3-11.8c-4.4-2.8-9.5-6.5-14.8-7.2c-6-0.8-9,5.4-12.7,9
		c-4,3.9-6.1,8.1-6.3,13.7c-0.2,5,1.4,10.5,6.7,12.1c0.2,1.4,1,2.7,2.6,3.6c5,3,10.6,3.2,16.2,1.8c5.6-1.4,12.2-3.8,16.9-7.3
		C386.5,201.7,388.2,195.3,387.4,190.7z"/>
	<g>
		<g>
			<g>
				<path d="M130.7,175.7c-1.9,0.5-3.4,1.8-4.6,3.2c-1.2,1.5-2,3.1-2.5,4.8c-0.6,1.7-0.9,3.5-1.2,5.2c-0.3,1.8-0.4,3.6-0.6,5.4
					c-0.3,3.6-0.3,7.2-0.1,11c0.1,1.9,0.2,3.8,0.6,5.7c0.4,1.8,1.1,3.7,2.4,5.1c-1.3-1.4-2.4-3-3.4-4.8c-0.9-1.8-1.7-3.6-2.3-5.5
					c-0.6-1.9-1.2-3.8-1.5-5.8c-0.3-2-0.4-4-0.3-6.1c0.1-2,0.4-4,1-6c0.6-2,1.5-3.9,2.7-5.6c1.2-1.7,2.7-3.2,4.3-4.4
					C127,177,128.8,176.2,130.7,175.7z"/>
			</g>
		</g>
	</g>
	<g>
		<g>
			<g>
				<path d="M129.3,215.8c1.3-1.2,2.2-2.9,2.8-4.5c0.6-1.7,1-3.4,1.2-5.1c0.4-3.4,0.4-6.8,0.5-10.2c0-3.4,0-6.9-0.2-10.4
					c-0.1-1.8-0.3-3.6-0.6-5.3c-0.1-0.9-0.4-1.7-0.8-2.5c-0.5-0.8-1.1-1.4-1.7-2.1c0.6,0.6,1.3,1.2,2,1.9c0.6,0.7,1.2,1.5,1.6,2.3
					c0.8,1.7,1.6,3.3,2.2,5.1c1.3,3.5,2.1,7.2,2.1,11c0,3.7-0.6,7.6-2.3,11.1c-0.8,1.7-1.8,3.4-3,4.8
					C132,213.3,130.6,214.6,129.3,215.8z"/>
			</g>
		</g>
	</g>
	<path d="M134,201.4c0.9-6.5,1.5-14.8-0.4-19.6c0.3-0.3,0.4-0.7,0.3-1.3c-0.3-1.4-1-3.2-2.2-4.1c-0.5-0.7-1.3-0.8-2-0.5
		c-1.1,0.5-2.6,1.1-3.1,2.2c-4.6,1.4-5.5,9-5.6,13c-0.2,7-0.1,14,1.1,20.9c0.3,1.7,1.4,2.6,2.7,2.8c1.4,1.3,3.7,1.8,5.5,0.1
		C133.5,212.3,137,204.9,134,201.4z"/>
	<g>
		<g>
			<g>
				<path d="M360.3,171.9c-1.9,0.5-3.5,1.7-4.7,3.2c-1.2,1.5-2.1,3.1-2.7,4.9c-0.6,1.7-1,3.5-1.3,5.3c-0.3,1.8-0.5,3.6-0.7,5.5
					c-0.4,3.7-0.5,7.4-0.4,11.3c0.1,1.9,0.1,3.9,0.4,5.8c0.3,1.9,0.9,3.8,2.2,5.3c-1.3-1.5-2.3-3.2-3.2-5c-0.9-1.8-1.5-3.8-2.1-5.7
					c-0.6-1.9-1.1-3.9-1.3-6c-0.3-2-0.3-4.1-0.2-6.2c0.2-2.1,0.6-4.1,1.2-6.1c0.7-2,1.6-3.9,2.8-5.7c1.2-1.7,2.8-3.2,4.5-4.4
					C356.5,173,358.4,172.3,360.3,171.9z"/>
			</g>
		</g>
	</g>
	<g>
		<g>
			<g>
				<path d="M357.7,212.8c1.4-1.2,2.3-2.9,3-4.6c0.7-1.7,1.1-3.4,1.4-5.2c0.5-3.5,0.6-7,0.8-10.5c0.1-3.5,0.2-7,0.2-10.7
					c0-1.8-0.2-3.6-0.4-5.5c-0.1-0.9-0.3-1.8-0.8-2.6c-0.4-0.8-1-1.5-1.6-2.2c0.6,0.7,1.3,1.3,1.9,2c0.6,0.7,1.1,1.6,1.5,2.4
					c0.8,1.7,1.5,3.5,2.1,5.3c1.2,3.6,1.8,7.5,1.8,11.3c-0.1,3.8-0.9,7.7-2.6,11.2c-0.9,1.8-1.9,3.4-3.1,4.9
					C360.4,210.3,359,211.6,357.7,212.8z"/>
			</g>
		</g>
	</g>
	<path d="M362.8,198.2c1.1-6.6,1.9-15.1,0.2-20.1c0.3-0.3,0.4-0.7,0.3-1.3c-0.2-1.4-0.9-3.3-2.1-4.2c-0.4-0.7-1.3-0.9-2-0.6
		c-1.1,0.5-2.6,1-3.1,2.2c-4.7,1.3-5.8,9-6,13.1c-0.5,7.2-0.5,14.3,0.4,21.4c0.2,1.8,1.3,2.7,2.6,3c1.4,1.4,3.6,1.9,5.5,0.3
		C361.9,209.4,365.7,201.9,362.8,198.2z"/>
	<path class="st2" d="M117.9,175c-0.8,0.4-1.6,0.9-2.4,1.4c-0.3,0-0.5,0.2-0.8,0.4c-0.1,0.1-0.2,0.2-0.3,0.3c-1,0.7-1.9,1.4-2.8,2.3
		c-3.3,2.4-6.8,4.3-9.3,7.8c-3,4.2-3.4,8.9-3.4,14c0,0.9,0.6,1.4,1.3,1.4c0.1,1.7,2.9,1.6,3-0.2c0.6-7.7,5-16.2,11.2-21.4
		c0.5-0.4,1-0.8,1.5-1.2c1.1-0.8,2.3-1.6,3.5-2.2C121.2,176.7,119.6,174.1,117.9,175z"/>
	<path class="st2" d="M148,188.6c0.2-1.8,0.4-3.7,0.4-5.6c0-1.9-3-1.9-3,0c-0.2,10.7-4,19.8-7.6,29.7c-0.7,1.8,2.2,2.6,2.9,0.8
		c0.8-2.3,1.6-4.4,2.4-6.6c0.8,0.3,1.8,0.1,2.1-0.9c1.6-5.2,2.9-10.4,3.7-15.7C149.1,189.5,148.6,188.9,148,188.6z"/>
	<path class="st2" d="M347.1,207c-0.5-4.1-1.8-8.2-2.1-12.3c-0.4-4.8,0.7-9.5,2-14.1c0.5-1.9-2.4-2.7-2.9-0.8
		c-1.2,4.2-2.3,8.6-2.2,13.1c0.1,4.8,1.7,9.4,2.2,14.1C344.4,208.9,347.4,208.9,347.1,207z"/>
	<path class="st2" d="M374.2,176c-1.6-1.1-3.1,1.5-1.5,2.6c6.4,4.7,9.7,10.3,7.8,18.5c-1.2,5.1-4.3,8-7.3,11.9
		c-1.2,1.5,1.4,3,2.6,1.5c2.2-2.8,4.6-4.8,6.1-8.2c1.4-3.1,2.2-6.6,2.3-10C384.4,185.2,379.7,180,374.2,176z"/>
	<path class="st3" d="M457.5,311.8c-0.4-1.6-1.4-3-2.6-3.9c-1.6-7.7-5.7-15.4-10.2-21.2c-1-1.2-2-2.4-3.2-3.5
		c-3.4-5.5-10.6-7.1-17.6-8c-3.7-1.2-7.7-1.1-11.5-1.4c-1.7-0.1-3.1,0.4-4.2,1.2c-0.1-0.6-0.3-1.1-0.5-1.7c-0.7-2.3-2.1-3.8-3.8-4.6
		c-0.3-11.2-3-22.4-7.7-32.7c-0.3-2.9-1.1-5.8-2.2-8.6c0.1-1.2,0.1-2.4-0.3-3.5c-0.5-1.6-1.1-3.2-1.7-4.7c0.1-0.8-0.1-1.7-0.4-2.5
		c-1-2.1-1.3-4.4-1.3-6.7c0-2.8-2.6-4.2-5.1-3.9c-1.6,0.2-2.5,1.5-3.8,2.1c-1.4,0.6-3,0.9-4.3,1.8c-0.8,0.5-1.2,1.1-1.5,1.8
		c-0.7-0.1-1.5-0.1-2.2-0.1c-4.8,0.3-9.6,0.3-14.4,0.1c-4.4-0.2-6.5-0.5-10-1.1c-2.2-2.4-4.3-4.8-6.8-6.8c-2.5-2-5.3-3.4-7.8-5.4
		c-6.5-5.2-2.4-14.7,2.4-19.7c4.8-5,11.8-7.6,18.7-7.3c3.7,0.2,7.2,1.4,10.8,2.1c4.6,1,7.6,0.6,10.2,5.2c2.5,4.5,9.4,0.5,6.9-4
		c-0.8-1.4-1.6-2.7-2.6-3.8c1.8-1.9,2-5.3,0.4-7.4c-0.1-1.8-0.8-3.6-2-4.9c-0.2-0.7-0.4-1.3-0.8-2c-8.1-15.6-26.4-17.9-42.2-15.6
		c-1.5,0.2-3.1,0.5-4.6,0.7c-7.7,0-15.6,1.7-23.2,4.1c-7.6,2.4-15.1,5.3-22.9,7c-8.4,1.7-17,1.8-25.5,1.6
		c-16.9-0.5-33.5-1.8-50.1-4.9c-11.9-2.2-24.1-4.3-36.1-2.7c-1.2-0.2-2.5-0.3-3.7-0.4c-12.9-1.4-27.2-2.6-40,0.6
		c-9.9,2.5-17.9,11.2-15.5,21.1c-1.4,2.3-3,4.6-4.7,6.7c-2.1,2.5,1,5.6,3.5,3.5c1.7-1.4,3.5-2.4,5.6-3.2c0.3,0,0.6,0.1,1,0.1
		c3.4,0.2,6.9,0.6,10.3,1c1,0.1,1.7-0.3,2.1-0.9c1.7,0.2,3.4,0.5,5,1c3.6,1.1,6.9,3.5,10.4,4.7c0.7,0.5,1.4,1,2.1,1.5
		c0.4,0.4,1,1.2,1.4,1.6c0.3,0.5,0.8,1.2,0.9,1.3c0.5,0.8,1,1.7,1.4,2.5c0.1,0.1,0.1,0.2,0.2,0.3c0.3,0.9,0.6,1.8,0.9,2.8
		c0.1,0.4,0.4,2.2,0.5,2.1c0.1,1.5,0.1,3,0,4.4c0,0.2-0.1,0.6-0.2,0.9c-0.3,1-0.5,2-0.8,3c-0.1,0.4-0.3,0.8-0.4,1
		c-0.5,1-1,2-1.6,2.9c-0.1,0.1-0.7,1-1,1.5c-0.5,0.5-1.9,2-1.9,1.9c-2.1,2.1-3.4,4.7-4,7.4c-5.5,0.2-11.1,0.4-16.6,0.7
		c-5.9-1.1-11.6-2.7-17.2-4.8c-0.6-0.2-1.1-0.3-1.7-0.4c-0.6-0.6-1.4-1.2-2.2-1.3c-1.2-0.3-2.4-0.2-3.5,0.5l-0.9,0.7
		c-0.6,0.6-0.9,1.2-1.2,2l-0.5,1.2c-0.1,0.2-0.1,0.5-0.2,0.7c-1,1.1-1.7,2.4-2.3,3.7c-1.6,4-3.2,8-4.9,12c-1,2.2-1.3,4.5-1.1,6.7
		c-1.9,12.6-2.1,25.2-0.6,37.6c-1.3-1.8-3.4-3.2-6-3.4c-7-0.6-14-0.2-20.9,0.8c-4.1,0.6-8.5,1.4-12.3,3.1c-2.1-0.4-4.3-0.2-6.4,0.7
		c-0.7,0.3-3.6,0.7-2.6,0.7c-1.3,0-2.5,0-3.8,0c-4.9,0.3-9.6,1.1-13.9,3.7c-8.1,4.8-11.5,13.5-14.6,21.8
		c-5.4,14.1-8.1,29.4-8.5,44.4C3,361.1,4,377.8,12.1,390.3c8.7,13.5,24.3,18.8,38.4,24.6c11.1,4.6,22.3,7.8,33.9,10.3
		c8.4,4.9,19.7,5.2,29,6.6c0.5,0.1,1.1,0.1,1.6,0.2c7.5,1.8,15,3.4,22.6,3.9c2,1.4,4.5,2,7.6,1.2c20,3.2,39.5,3.4,59.4-0.8
		c5.3-1.1,8.5-7.1,7.5-12.2c0.2-0.4,0.4-0.8,0.5-1.2c3.9-2,7-5.4,8-9.8c0.2-1,0.4-2,0.4-3c9.3,0,18.5,0,27.8-0.1
		c1.4,0,2.7-0.3,3.9-0.8c-1.8,3.8-0.9,8.8,1.8,12c-12.3-1.3-25.6-1.8-35.1,7.5c-5.9,5.8,1,14.4,7.4,12.5c1,0.6,2.3,1,3.8,1.1
		c15.4,0.6,32.5,0.5,47.5-3.7c0.8-0.2,1.6-0.5,2.4-0.8c9.8-0.2,19.6-0.4,29.4-0.5c5.3-0.1,14.8,0.9,19.7-2.7
		c12.1-1.3,24.2-3.2,36.2-5.7c0.6-0.1,1.1-0.3,1.6-0.5c9.7-1.8,19.4-3.9,28.8-6.7c6.7-2,13.8-4.1,19.2-8.6c0.6,0,1.2-0.1,1.9-0.2
		c8.4-2.2,15.7-6.5,22.5-11.9c5.6-4.5,12.4-10,14.6-17.2c2-1.7,2.6-4,2.3-6.2c2.1-4.1,3.7-8.4,4.7-13c0.3-1.6,0.2-3-0.2-4.2
		C463.5,344.3,461.2,327.9,457.5,311.8z M259.1,404.1c0,0,0,0.1,0,0.1c-0.4,0.1-0.8,0.2-1.1,0.4c0.6-1.1,1-2.3,1.1-3.6
		c0-0.3,0.1-0.6,0.1-1c0,0,0,0,0,0.1C259,401.4,259.1,402.8,259.1,404.1z M423.7,309.6c-4.8,7-9.3,14.1-13.1,21.6
		c-3.3,4.3-6.8,8.4-9.6,12.9c-1,0.6-1.8,1.4-2.3,2.5c-0.6,1.4-1.3,2.9-2.2,4.1c-0.3,0.4-0.6,0.9-0.9,1.3c-1.3,1.1-2.9,2-4.5,3
		c-1.7,1-3.1,2-4.4,3.2c-0.5,0.1-1.1,0.2-1.6,0.3c-1.3,0.3-2.3,1-3.2,1.9c-4.3,1.4-8.5,2.7-12.8,4c-0.7,0.2-1.3,0.5-1.8,0.8
		c-7.8,1.6-15.5,3.8-23,6.7c-0.1,0-0.2,0.1-0.3,0.1c-24.9,5.9-50.2,9.9-75.8,11.9c-5.9,0.4-10.1,5.4-10.5,10.5
		c-1.3-2.1-3.5-3.8-6.1-4.8c-11.3-4.5-24.9-3.7-36.8-5.1c-12.5-1.4-25-3.3-37.2-6.5c-0.9-0.2-1.7-0.4-2.5-0.4
		c-1.6-1.3-3.4-2.2-5.5-2.9c-12.5-3.9-25-7.9-37.6-11.8c-0.3-0.1-0.7-0.2-1-0.3c-6.3-4.1-13.5-6.5-20.8-8.2
		c-0.6-0.2-1.2-0.4-1.8-0.6c0,0-0.1,0-0.1,0c-3.5-1.9-7.3-2.5-10.9-4c-0.8-0.3-1.5-0.7-2.2-1.1c-0.8-0.6-1.7-1.2-2.7-1.7
		c-1.4-1-2.7-2.2-4-3.5c-2.9-3-5.1-6.5-7.1-10.2c0-2.7,0-5.3-0.1-7.9c-0.2-7.9-2.3-15.1-5.7-22.2c-0.3-0.7-0.7-1.3-1-2
		c0.4-2.8,1.1-5.6,2.6-7.3c1.3-1.6,3.7-2.5,5.3-3.5c2.6-1.6,5.2-3.1,7.8-4.7c1.6-1,2.7-2.3,3.2-3.7c1.1,6.3,2.6,12.5,4.7,18.6
		c0.6,1.9,1.7,3.6,3.1,5c1.1,10.1,3.3,20.4,9.1,28.9c7.8,11.4,20.1,15.1,32.7,18.7c27.3,7.8,55.4,12.6,83.6,14.8
		c28.2,2.2,56.7,1.4,84.7-2.2c25.5-3.3,54.4-6.8,75.1-23.5c15.9-12.8,24.4-33.4,23.6-53.6c0.1,0,0.2,0,0.3,0.1
		c0.2,0,0.5,0.1,0.7,0.1c0.8,1.3,1.4,2.7,2.4,3.8c1.7,1.8,3.9,2.7,5.8,4.2c1.5,1.1,3.3,2.9,4.1,4.7
		C424.4,303.7,423.6,306.8,423.7,309.6C423.7,309.5,423.7,309.5,423.7,309.6z"/>
	<path class="st0" d="M239.7,152.2c-10.8-0.8-21.4-2.5-32.1-4.4c-9.5-1.7-19-1.7-28.6-1.2c-1.1,0.1-1.6,1.1-1.4,2
		c-14,0.8-28.3-6.1-42.3-3.6c-15.4,2.8-17.7,19.3-26.1,30c-2,2.5,1.6,6.1,3.5,3.5c4.2-5.3,7-11.1,10-17.1
		c3.8-7.6,9.2-11.8,17.9-11.9c14.7-0.2,30.1,6.7,44.7,2.9c1.6-0.4,2-1.8,1.7-3.1c7.8,0,15.4,0.5,23.3,2c9.7,1.8,19.5,3.1,29.3,3.8
		C241.6,155.3,241.6,152.3,239.7,152.2z"/>
	<path class="st0" d="M384.2,175.6c-2.9-6.2-5.9-12.3-9.2-18.3c-2.6-4.7-4.8-9.2-9.6-11.9c-4.9-2.7-10.5-3.6-16-3.8
		c-6.4-0.3-13.1,1.3-19.3-0.3c-1.1-0.3-2,0.1-2.5,0.8c-1.4-0.7-2.9-0.5-4.7-0.1c-4.9,0.9-9.7,2.6-14.5,3.8
		c-10.7,2.8-21.6,4.8-32.6,6c-1.9,0.2-1.9,3.2,0,3c8.4-0.9,16.7-2.3,25-4.1c4.4-1,8.7-2.1,13-3.3c2.4-0.7,10.7-4.3,12.8-2.5
		c0.3,0.3,0.6,0.4,0.9,0.4c0.3,0.4,0.7,0.7,1.3,0.8c10.4,2.6,21.3-1.5,31.6,2.5c6,2.3,8.3,7.5,11.2,12.9c3,5.5,5.7,11,8.3,16.7
		C381.3,181,385.6,178.5,384.2,175.6z"/>
	<path class="st0" d="M36.3,408c-3.8-10.1-11.4-18.9-16.8-28.3c-5.7-9.9-10.3-20.3-13.1-31.3c-0.2-1.7-1-3.3-1.7-4.8
		c-0.5-1.1-2-0.3-1.8,0.8c0.1,0.3,0.1,0.5,0.2,0.8c-1,0.3-1.9,1.1-1.9,2.3c-0.9,13.6,2.3,28.4,9.6,40.4c-2.3,0.8-2,4.8,0.9,4.8
		c0.8,0,1.4-0.3,1.8-0.8c3.7,5,8.2,9.3,13.4,12.7c0.8,0.5,1.6,0.4,2.3,0.1c0.9,1.5,1.6,3.1,2.2,4.7C32.6,412.3,37.4,411,36.3,408z"
		/>
	<path class="st0" d="M110.2,349.3c-4-1.7-8.1-2.9-12.2-4.1c-0.5-0.2-1.1-0.3-1.6-0.4c-0.2-0.8-0.7-1.5-1.6-1.8
		c-4.5-1.6-7.2-3.6-7.7-8.6c-0.3-2.6-4.2-3.6-4.9-0.7c-1.3,5.6-1.9,10.5,4.1,13.2c6.8,3.1,14.6,3.7,21.5,6.7
		C110.6,354.9,113.2,350.6,110.2,349.3z"/>
	<path class="st0" d="M403.7,334.3c-2.5,4.4-6.3,8.2-9.3,12.2c-1.7,2.2-3.9,3.9-6.3,5.3c-1.4,0.8-5.7,3.1-7.5,3.3
		c-3.2,0.2-3.2,5.2,0,5c5.1-0.3,12-4.4,15.6-7.9c2.2-2.1,3.7-5,5.7-7.3c2.2-2.6,4.4-5,6.1-8C409.6,334.1,405.3,331.5,403.7,334.3z"
		/>
	<path class="st0" d="M465.1,350.9c-1-3.6-1.9-7.2-2.5-10.8c0.3-0.4,0.4-1,0.2-1.6c-0.2-0.5-0.3-1-0.5-1.5c0,0,0,0,0,0
		c0.7-0.4,1.1-1.2,0.9-2.2c-2.1-8-4.1-16.1-5.9-24.2c-0.2-1.1-1.1-1.5-1.9-1.4c-0.3-3-0.8-5.9-1.3-8.8c-0.2-1.3-2.2-0.7-1.9,0.5
		c0.6,3.2,1.1,6.4,1.4,9.7c-0.1,0.3-0.2,0.7-0.1,1.1c0.1,0.5,0.2,1,0.3,1.4c0.6,5.9,1,11.8,1.8,17.7c0.7,5,1.6,10,2.6,14.9
		c1.1,5.1,2.8,10.2,3,15.5c0.1,1.3,2.1,1.3,2,0c-0.1-2.7-0.5-5.4-1-8.2C463.6,353.9,465.6,352.8,465.1,350.9z"/>
	<path class="st0" d="M209.6,429c-9.7,3.2-18.7,4.6-28.9,4.8c-9.1,0.2-21,2.4-28.9-3c-2.1-1.5-4.1,2-2,3.5
		c8.3,5.6,19.5,3.8,28.9,3.6c11.3-0.2,21.1-1.5,31.9-5C213,432,212,428.2,209.6,429z"/>
	<path class="st0" d="M297.1,436.9c-0.1,0-0.2,0-0.3,0s-0.2,0-0.3,0.1c-3.3,0.1-7-1.7-10.1-2.5c-1.9-0.5-4.3-1.2-6.3-0.6
		c-0.1,0-0.2,0-0.2,0c-9.2,2.7-19.1,4.3-28.7,4.3c-4.7,0-9.4-0.1-14.1-0.3c-2.5-0.1-5.1-0.3-7.6-0.5c-2.5-0.2-6.5,0.1-8.4-1.7
		c-1.9-1.8-4.7,1.1-2.8,2.8c2.9,2.8,7.4,2.5,11.2,2.9c6,0.5,12.1,0.8,18.1,0.9c10.3,0.1,20.9-1.2,30.9-3.8c1.2,0.4,2.3-0.4,3.5-0.6
		c0.1,0,0.2-0.1,0.3-0.1c3.9,0,7.9,0.3,11.8,0.3c0.2,0,0.3-0.1,0.4-0.2c0.7,0.1,1.5,0.2,2.2,0.2c0.1,0,0.1,0,0.2,0
		c0.1,0,0.2,0,0.2,0C297.8,438,297.8,437,297.1,436.9z"/>
	<path class="st0" d="M265.2,420.4c-2.4-0.5-11.8-3.1-10-7.3c1-2.3-2.4-4.4-3.5-2c-1.8,4.2,0.2,7.3,3.4,9.5c-10.3,0.2-20.6,0-31,2
		c-2.5,0.5-1.5,4.3,1.1,3.9c13.2-2.6,26.1-1.3,39.4-2.2C266.8,424.2,267.5,420.8,265.2,420.4z"/>
	<path class="st0" d="M254.1,392.8c-6.7-4.6-14.8-6.9-22.9-7.5c-2.6-0.2-2.6,3.8,0,4c5.8,0.4,11.4,1.8,16.6,4.4
		c3.4,1.7,9.9,7,4.1,10.4c-2.1,1.2-5.8,1.4-8.1,1.8c-12.2,2.2-24.6,1.7-36.7-0.9c-0.3-0.1-0.5-0.1-0.8,0c-0.3-0.1-0.7-0.1-1.1-0.2
		c-2.2-0.4-4.3-0.8-6.4-1.3c0,0-0.1,0-0.1,0c-2.3-1.1-4.3,2.4-2,3.5c4.2,2,8.5,3.6,13.1,4.6c0.9,0.2,1.9,0.3,2.8,0.5
		c1,0.4,2,0.8,2.6,1.6c0.6,0.8,0.4,1.7,0.1,2.6c-1.3,1.9-4.6,3.1-6.4,3.6c-2.5,0.7-1.4,4.6,1.1,3.9c4.2-1.2,12.6-6,10.4-11.6
		c-0.2-0.5-0.4-0.9-0.7-1.3c4.9,0.4,9.8,0.5,14.6,0.1c4.5-0.3,9-0.9,13.4-1.9c2.8-0.6,6.5-0.9,8.7-3.1
		C260.3,402.1,258.3,395.7,254.1,392.8z"/>
	<path class="st0" d="M275,398.9c-3.4,0.1-7.2-0.4-10.1-2.1c-1.5-0.9-2.9-2-2.8-4c0.1-2.4,2.3-3.2,4-4.4c2.1-1.4,0.1-4.9-2-3.5
		c-4,2.7-7.9,6.4-5,11.7c1.1,2.1,3.1,3.5,5.4,4.5c-1.8,0.6-3.5,1.4-5.1,2.3c-2.2,1.3-0.2,4.8,2,3.5c4.2-2.5,8.9-3.4,13.7-4
		C277.4,402.6,277.6,398.8,275,398.9z"/>
	<path class="st0" d="M397.4,292.6c-1.1,1.2-2.3,2.4-3.5,3.5c-0.3,0-0.5,0-0.8,0.2c-4.4,2.7-8.7,5.5-12.9,8.4
		c-0.2,0-0.4,0.1-0.6,0.2c-6.1,3.7-12.6,6.5-19.3,8.8c-65.7,12.8-133.9,23.6-199.7,5.9c-1.8-0.7-3.6-0.9-5.5-1.1
		c-5.9-2.8-11.6-5.9-17.3-9.1c-7.3-4.1-14.9-8-20.4-14.5c-1.2-1.5-3.4,0.7-2.1,2.1c5.3,6.3,12.4,10.1,19.4,14.1
		c5.4,3.1,10.9,6.1,16.5,8.9c-0.2,1.1,0.5,2.4,1.9,2.4c1.4,0.1,2.8,0.1,4.2,0.4c0.1,0,0.2,0.1,0.2,0.1c1.2,0.5,2.4,1,3.6,1.5
		c0.1,0,0.2,0.1,0.3,0.1c6,2.3,12.1,4.1,18.4,5.4c0.3,0.1,0.6,0.2,0.9,0.2c0,0,0,0,0,0c8.4,1.7,17,2.7,25.6,3.2
		c18.1,0.9,36.4,0.1,54.4-1c15.3-0.9,30.6-2.5,45.7-5.1c0.1,0.2,0.3,0.4,0.6,0.5c0.1,0.8,0.8,1.4,1.8,1c2.1-0.9,4.1-1.5,6.3-2.1
		c4.4-0.8,8.8-1.5,13.2-2.3c0.1,0,0.1,0,0.2,0c0.2,0,0.3,0,0.4-0.1c2.6-0.5,5.1-0.9,7.7-1.4c0.3,0,0.6-0.1,0.9-0.1
		c0.3,0.3,0.7,0.4,1.3,0.3c3.4-0.7,6.8-1.5,10.1-2.4c3.5-0.7,6.9-1.6,10.3-2.6c2.6-0.5,5.3-1,7.9-1.5c0.9-0.2,1.4-0.8,1.4-1.6
		c11.7-4.5,22.5-11,31.1-20.2C400.9,293.3,398.8,291.2,397.4,292.6z"/>
	<path class="st0" d="M241.4,276.3c-1-1.8-3.4-0.8-5.6,0.6c-0.2,0-0.4,0.1-0.6,0.2c-1.2,0.9-2.4,1.8-3.5,2.8c-0.5,0.4-0.5,1-0.3,1.5
		c-0.2,0.3-0.4,0.6-0.5,1c-0.6,1.6,1.7,2.4,2.6,1.2c3.4,0.6,7.8-1,8-4.9c0-0.2,0-0.4-0.1-0.6C241.7,277.5,241.8,276.9,241.4,276.3z"
		/>
	<path class="st0" d="M278.9,282.2c-0.1-0.1-0.3-0.2-0.4-0.2c-0.1-2.2-0.7-4.3-2-6.2c-0.3-0.5-0.8-0.7-1.2-0.7
		c-0.7-0.8-1.5-1.5-2.3-2.1c-0.6-0.5-1.3-0.3-1.7,0.2c-0.6,0.3-1.1,0.9-0.9,1.7c0.5,2.3,1.3,4.5,2.4,6.5c0.3,0.5,0.7,0.8,1.2,0.8
		c0.5,0.6,1.1,1.1,1.8,1.5c0,0,0,0.1,0,0.1c0.3,0.6,0.8,0.8,1.3,0.7c0.1,0.1,0.3,0.2,0.4,0.2C279.1,285.7,280.6,283.1,278.9,282.2z"
		/>
	<path class="st0" d="M132.7,216.9c-9.9-0.6-18.3-3.1-27.6-6.4c-1.8-0.7-2.6,2.2-0.8,2.9c9.5,3.4,18.2,5.9,28.4,6.5
		C134.7,220,134.6,217,132.7,216.9z"/>
	<path class="st0" d="M387.6,207.5c-5.8,0.1-11.3,3.2-17.2,3.8c-6.5,0.6-13.1,0.1-19.6-0.5c-1.9-0.2-1.9,2.8,0,3
		c6.5,0.6,13.1,1.1,19.6,0.5c2.4-0.2,4.8-0.6,7.1-1.2c3.4-0.8,6.6-2.5,10.1-2.6C389.5,210.4,389.5,207.4,387.6,207.5z"/>
</g>
<g id="Layer_4">
</g>
<g id="Layer_1">
	<g>
		<g>
			<g>
				<path d="M114.7,296.4c9.7,8.4,20.7,15.3,32.1,21c11.4,5.6,23.4,9.8,35.4,12.1c6,1.1,12.1,1.7,18.2,2.1c3.1,0.2,6.2,0.3,9.3,0.4
					l9.4,0.2c12.5,0.2,25.1,0,37.5-0.5c12.5-0.6,25-1.5,37.4-2.9c12.5-1.4,24.9-3.3,37.4-5.8c12.4-2.5,24.8-5.7,36.9-9.7
					c6-2.1,11.9-4.5,17.5-7.7c5.5-3.2,10.7-7.2,14.7-12.2c-4,5-8.8,9.5-13.9,13.4c-5.2,3.9-10.8,7.3-16.5,10.4
					c-11.5,6.1-23.3,11.7-35.6,16.4c-12.3,4.7-24.9,8.5-37.8,11.3c-12.9,2.8-26,4.6-39.2,5.3c-13.2,0.7-26.4,0.4-39.5-1
					c-3.3-0.4-6.5-0.8-9.8-1.2c-3.3-0.5-6.5-1-9.8-1.7c-6.6-1.3-13.2-3.1-19.5-5.4c-12.7-4.7-24.2-11.6-34.7-19.4
					C133.9,313.6,124.4,304.8,114.7,296.4z"/>
			</g>
		</g>
	</g>
	<g>
		<g>
			<g>
				<path d="M124.9,218.5c1.5,0.2,3,0,4.4-0.6c1.4-0.5,2.6-1.3,3.8-2.2c2.3-1.8,4.6-3.9,6.5-5.9c1.9-2,3.5-4.1,4.6-5.9
					c1.1-1.8,1.9-3.6,2.3-5c0.2-0.7,0.3-1.3,0.4-2.1c0.1-0.8,0.1-1.6-0.1-2.6c-0.3-2-1.1-4.5-2.3-7c-1.2-2.5-2.7-5.2-4.4-7.7
					c-0.8-1.2-1.8-2.4-2.9-3.4c-1.1-1-2.4-1.7-3.9-2.1c2.9,0.6,5.9,1.6,8.8,3c2.9,1.4,5.7,2.8,8.4,4.7c2.7,1.9,5.5,4.3,7.5,7.8
					c1,1.7,1.8,3.8,2.1,6c0.4,2.2,0.3,4.6-0.2,6.7c-1,4.4-3.5,7.8-6.4,10.3c-3,2.5-6.3,4-9.5,4.9c-3.3,0.9-6.4,1.3-9.7,1.5
					C131,219.3,127.8,219.1,124.9,218.5z"/>
			</g>
		</g>
	</g>
	<g>
		<g>
			<g>
				<path d="M136.9,176.1c-4.1-0.6-8.4-0.2-12.4,0.7c-4,0.9-7.9,2.3-11.5,3.9c-1.8,0.8-3.5,1.8-5.2,2.8c-0.8,0.5-1.7,1-2.5,1.5
					c-0.8,0.5-1.5,1-2,1.5c-0.5,0.5-0.6,0.7-0.9,1.2c-0.3,0.5-0.5,1.2-0.9,2.2c-0.7,1.9-1.5,3.9-2.3,5.8c-0.1,0.3-0.1,0.2-0.1,0.2
					l0,0c0,0,0,0,0,0c0,0,0,0,0,0l0,0c0,0,0,0,0,0.1l0.4,0.5l0.9,1.1l0.9,1c0.6,0.7,1.3,1.3,2,2c2.7,2.6,5.9,5,9.3,7.1
					c3.4,2.2,7.1,4.2,10.8,5.9c3.8,1.8,7.7,3.4,11.7,4.5c-4-1.1-8.2-1.7-12.3-2.5c-4.2-0.8-8.3-1.7-12.5-3c-4.1-1.3-8.3-3.1-12-5.7
					c-0.9-0.7-1.9-1.3-2.8-2.1c-0.4-0.4-0.9-0.8-1.3-1.1l-1.2-1.3l-0.6-0.7c-0.1-0.1-0.3-0.3-0.5-0.5c-0.2-0.2-0.3-0.4-0.5-0.6
					c-0.6-0.8-1.1-1.7-1.3-2.7c-0.3-1-0.3-2-0.1-3c0.1-0.5,0.2-1,0.4-1.5c0.2-0.5,0.4-1.1,0.5-1.2c0.8-1.9,1.6-3.9,2.4-5.8
					c0.4-1,1-2.2,1.8-3.4c0.4-0.6,0.9-1.3,1.5-1.9c0.6-0.6,1.2-1.1,1.8-1.5c1.2-0.8,2.3-1.3,3.4-1.8c1-0.4,2.1-0.8,3.2-1.2
					c2.1-0.7,4.3-1.2,6.5-1.6c4.4-0.8,8.7-0.9,13-0.7C128.7,174.8,132.8,175.5,136.9,176.1z"/>
			</g>
		</g>
	</g>
	<g>
		<g>
			<g>
				<path d="M364,171.3c-1.4-0.2-2.9,0-4.2,0.5c-1.3,0.5-2.6,1.3-3.7,2.1c-2.3,1.7-4.6,3.7-6.5,5.6c-1.9,2-3.5,3.9-4.7,5.6
					c-1.2,1.7-2,3.3-2.4,4.6c-0.2,0.6-0.3,1.1-0.4,1.8c-0.1,0.6-0.1,1.4,0.1,2.3c0.3,1.9,1.1,4.2,2.4,6.7c1.2,2.4,2.8,5,4.4,7.4
					c0.8,1.2,1.8,2.3,2.9,3.2c1.1,0.9,2.4,1.6,3.8,1.9c-2.8-0.5-5.8-1.4-8.6-2.6c-2.9-1.2-5.6-2.5-8.4-4.2c-2.7-1.7-5.5-4-7.6-7.4
					c-1-1.7-1.8-3.8-2.2-6c-0.2-1.1-0.2-2.3-0.2-3.4c0.1-1.2,0.3-2.3,0.6-3.4c1.2-4.3,3.8-7.6,6.8-9.9c3-2.3,6.3-3.6,9.5-4.3
					c3.2-0.7,6.3-1,9.5-1.2C358.1,170.5,361.2,170.8,364,171.3z"/>
			</g>
		</g>
	</g>
	<g>
		<g>
			<g>
				<path d="M352.1,211.7c3.9,0.6,7.9,0.2,11.7-0.7c3.8-0.9,7.4-2.3,10.7-4c1.6-0.9,3.3-1.8,4.8-2.8c0.8-0.5,1.5-1,2.2-1.5
					c0.7-0.5,1.2-1,1.6-1.4c0.2-0.2,0.3-0.4,0.4-0.5c0.1-0.2,0.2-0.4,0.3-0.7c0.2-0.6,0.5-1.3,0.8-2.3c0.6-1.9,1.3-3.7,2-5.5
					l0.1-0.3c0-0.1,0,0,0,0l0,0c0,0,0,0,0,0c0,0,0,0,0,0c0,0,0,0,0,0l-0.4-0.5c-0.5-0.7-1-1.4-1.6-2l-0.8-1l-0.9-1
					c-2.4-2.6-5.3-4.9-8.4-7.1c-3.1-2.2-6.5-4.2-10-6c-3.5-1.8-7.1-3.4-10.9-4.6c3.8,1.1,7.7,1.7,11.6,2.6c3.9,0.8,7.9,1.7,11.8,3.1
					c3.9,1.4,7.8,3.2,11.2,5.9l1.3,1c0.4,0.4,0.8,0.7,1.2,1.1c0.8,0.7,1.6,1.5,2.3,2.4l0.6,0.6c0.3,0.3,0.6,0.8,0.9,1.2
					c0.5,0.8,0.9,1.7,1.1,2.6c0.2,0.9,0.2,1.9,0.1,2.9c-0.1,0.5-0.2,1-0.3,1.4l-0.2,0.7l-0.1,0.4c-0.7,1.8-1.4,3.7-2.2,5.5
					c-0.4,0.9-0.8,1.9-1.5,3.1c-0.3,0.6-0.7,1.2-1.2,1.8c-0.5,0.6-1.1,1.2-1.6,1.6c-1.1,0.9-2.2,1.5-3.2,2c-1,0.5-2,0.9-3,1.2
					c-2,0.8-4.1,1.3-6.1,1.7c-4.1,0.8-8.3,1.1-12.4,0.8c-2-0.1-4-0.4-6-0.6C356,212.4,354,212.1,352.1,211.7z"/>
			</g>
		</g>
	</g>
	<g>
		<path class="st4" d="M216.4,268.1"/>
	</g>
	<g>
		<g>
			<g>
				<path d="M239.7,275.5c-1.4,0.1-2.7,0.7-3.8,1.5c-1.1,0.8-2.1,1.7-2.8,2.7c-0.4,0.5-0.7,1-1,1.5c-0.1,0.2-0.3,0.5-0.4,0.8
					c-0.1,0.2-0.2,0.4-0.2,0.6c0,0.1,0,0.2-0.1,0.3c0,0,0,0,0,0c0,0,0,0,0,0c0,0,0,0,0,0c0,0-0.1,0,0.2,0c0.3,0,0.5,0,0.8,0
					c0.5,0,1.1-0.1,1.6-0.2c1.1-0.2,2.2-0.6,3.3-1.2c1.1-0.6,2.1-1.4,3-2.5c0.8-1,1.5-2.4,1.5-3.8c0,1.4-0.2,2.8-0.6,4.2
					c-0.4,1.4-1.1,2.8-2.1,4c-1,1.2-2.3,2.3-3.8,3c-0.8,0.4-1.6,0.6-2.4,0.7c-0.4,0.1-0.9,0.1-1.3,0.1c-0.3,0-1.2,0-1.8-0.2
					c-1.3-0.4-2.4-1.4-2.8-2.7c-0.2-0.6-0.2-1.3-0.1-2c0.1-0.3,0.1-0.7,0.3-1c0.1-0.3,0.2-0.5,0.3-0.7c0.2-0.4,0.5-0.8,0.8-1.2
					c0.3-0.3,0.6-0.6,0.9-0.9c0.6-0.5,1.3-1,1.9-1.4c1.4-0.8,2.8-1.3,4.3-1.6C236.9,275.6,238.3,275.6,239.7,275.5z"/>
			</g>
		</g>
	</g>
	<g>
		<g>
			<g>
				<path d="M270.6,275.1c0.1,1.4,0.7,2.7,1.5,3.8c0.8,1.1,1.7,2.1,2.7,2.8c0.5,0.4,1,0.7,1.5,1c0.2,0.1,0.5,0.3,0.8,0.4
					c0.2,0.1,0.4,0.2,0.6,0.2c0.1,0,0.2,0,0.3,0.1c0,0,0,0,0,0c0,0,0,0,0,0c0,0,0,0,0,0c0,0,0,0.1,0-0.2c0-0.3,0-0.5,0-0.8
					c0-0.5-0.1-1.1-0.2-1.6c-0.2-1.1-0.6-2.2-1.2-3.3c-0.6-1.1-1.4-2.1-2.5-3c-1-0.8-2.4-1.5-3.8-1.5c1.4,0,2.8,0.2,4.2,0.6
					c1.4,0.4,2.8,1.1,4,2.1c1.2,1,2.3,2.3,3,3.8c0.4,0.8,0.6,1.6,0.7,2.4c0.1,0.4,0.1,0.9,0.1,1.3c0,0.3,0,1.2-0.2,1.8
					c-0.4,1.3-1.4,2.4-2.7,2.8c-0.6,0.2-1.3,0.2-2,0.1c-0.3-0.1-0.7-0.1-1-0.3c-0.3-0.1-0.5-0.2-0.7-0.3c-0.4-0.2-0.8-0.5-1.2-0.8
					c-0.3-0.3-0.6-0.6-0.9-0.9c-0.5-0.6-1-1.3-1.4-1.9c-0.8-1.4-1.3-2.8-1.6-4.3C270.8,277.9,270.7,276.5,270.6,275.1z"/>
			</g>
		</g>
	</g>
	<g>
		<g>
			<g>
				<path d="M103.5,180.1c4.4-3,7.6-7.6,9.4-12.5c0.9-2.4,1.4-4.9,1.8-7.5c0.4-2.6,0.8-5.4,2-8.3c1.2-2.9,3.1-5.6,5.5-7.7
					c2.4-2.1,5.2-3.6,8.1-4.7c5.9-2.2,12-2.2,17.6-1.6c2.8,0.3,5.5,0.8,8.1,1.3c2.6,0.5,5.3,1,7.9,1.6c5.3,1.2,10.5,2.6,15.7,4.3
					c5.2,1.7,10.2,3.8,15.1,6.2c4.9,2.4,9.5,5.1,14,7.9c-4.6-2.8-9.6-4.6-14.8-5.9c-5.1-1.3-10.4-2.2-15.6-2.8
					c-5.2-0.7-10.5-1.1-15.8-1.7c-2.6-0.3-5.3-0.5-7.9-0.9c-2.6-0.3-5.2-0.6-7.7-0.9c-5-0.5-9.8-0.6-14.1,0.5
					c-4.4,1.1-8.4,3.3-10.9,6.9c-1.3,1.9-2.2,4.3-3.2,6.8c-1,2.5-2.2,5.2-3.7,7.5C112,173.3,107.9,177.1,103.5,180.1z"/>
			</g>
		</g>
	</g>
	<g>
		<g>
			<g>
				<path d="M386.2,186.8c-0.9-4.6-2.6-9-4.4-13.4c-1.8-4.3-3.9-8.6-5.9-12.7c-2.1-4.1-4.3-8-7-10.9c-1.3-1.5-2.7-2.7-4.2-3.5
					c-1.5-0.9-3-1.4-4.9-1.7c-1.9-0.3-4-0.5-6.2-0.5l-1.7-0.1l-1.7,0c-1.1,0-2.2,0-3.3,0c-4.5,0.1-9,0.4-13.5,1
					c-4.5,0.7-9.1,1.6-13.5,3c-4.4,1.4-8.8,3.3-12.7,5.9c3.9-2.6,7.7-5.4,11.8-7.8c4.1-2.5,8.4-4.6,13-6.4c4.5-1.8,9.3-3.1,14.2-3.8
					c1.2-0.2,2.4-0.4,3.7-0.5l1.8-0.2l1.9-0.1c2.4-0.1,5-0.1,7.8,0.3c1.4,0.2,2.8,0.6,4.2,1.1c1.4,0.5,2.8,1.2,4,2
					c2.5,1.7,4.5,3.8,6,6c3.1,4.5,4.6,9.4,5.8,14.1c1.1,4.7,2,9.4,2.7,14.1C384.7,177.5,385.2,182.2,386.2,186.8z"/>
			</g>
		</g>
	</g>
	<g>
		<g>
			<g>
				<path d="M105.4,208.5c-3.6,4.9-6.1,10.5-7.9,16.2c-1.8,5.7-2.8,11.6-3.4,17.4c-0.6,5.9-0.7,11.7-0.5,17.5
					c0.2,5.8,0.7,11.6,1.6,17.3c1.7,11.5,4.4,23,8,34.4c1.8,5.7,3.8,11.4,6.1,17c2.3,5.6,4.8,11.1,7.9,16.3
					c-3.1-5.2-6.5-10.2-9.8-15.3c-3.3-5.1-6.4-10.4-9.3-15.8c-2.9-5.4-5.4-11.1-7.5-17c-2.1-5.9-3.7-11.9-4.6-18.1
					c-2-12.4-1.3-25.3,2.2-37.3c1.7-6,4.1-11.8,7-17.2C98.3,218.3,101.8,213.3,105.4,208.5z"/>
			</g>
		</g>
	</g>
	<g>
		<g>
			<g>
				<path d="M387.4,203.8c2.3,6.3,5.1,12.5,7.7,18.8c2.6,6.3,5.2,12.6,7.6,19c2.4,6.4,4.6,12.9,6.4,19.4c1.9,6.6,3.5,13.2,4.8,19.9
					c0.7,3.4,1.2,7,1.3,10.8c0,1.9-0.1,3.8-0.3,5.7c-0.3,1.9-0.7,3.7-1.1,5.5c-1,3.5-2.3,6.8-3.7,10c-1.4,3.2-3.1,6.3-4.9,9.3
					c-1.8,3-3.8,5.8-5.9,8.6c-2.1,2.7-4.4,5.4-6.7,7.9c-2.4,2.5-4.8,4.9-7.3,7.1c-2.5,2.3-5.1,4.4-7.7,6.6c2.6-2.2,5-4.5,7.3-7.1
					c2.2-2.5,4.3-5.2,6.2-8c1.9-2.8,3.6-5.7,5.1-8.6c1.5-3,2.9-5.9,4.2-9c1.2-3.1,2.3-6.1,3.3-9.3c0.9-3.1,1.8-6.3,2.3-9.3
					c0.5-3.1,0.7-6,0.5-9c-0.2-3-0.8-6.1-1.4-9.3c-1.4-6.5-2.7-13.1-4-19.7l-3.8-19.8c-1.3-6.6-2.6-13.2-4.2-19.8
					C391.4,216.7,389.7,210.1,387.4,203.8z"/>
			</g>
		</g>
	</g>
	<g>
		<g>
			<g>
				<path d="M399.6,345.5c-1.2,3.2-3.3,6-5.9,8.1c-2.6,2.2-5.6,3.9-8.7,5.3c-6.2,2.8-12.8,4.6-19.2,6.8
					c-12.9,4.1-25.9,7.9-39.1,11.2c-13.2,3.3-26.5,5.9-40,7.9l-5.1,0.7c-1.7,0.2-3.4,0.5-5.1,0.6l-10.2,1l-10.2,0.6l-2.6,0.1l-2.6,0
					l-5.1,0.1l-5.1,0.1l-5.1-0.2c-3.4-0.1-6.8-0.1-10.2-0.5c-3.4-0.3-6.8-0.5-10.2-0.9l-10.2-1.4c-0.8-0.1-1.7-0.2-2.5-0.4l-2.5-0.5
					l-5-0.9c-3.4-0.6-6.7-1.5-10-2.3c-6.7-1.5-13.2-3.6-19.6-5.8c-12.9-4.4-25.4-9.6-38-14.4c-12.6-4.9-25.4-9.4-38.7-12.3
					c13.2,2.9,26.2,7,39,11.3c12.8,4.3,25.6,9,38.5,12.8c6.5,1.9,13,3.7,19.6,5c3.3,0.7,6.6,1.5,9.9,1.9l5,0.8l2.5,0.4
					c0.8,0.1,1.7,0.3,2.5,0.3l10,1.1c3.3,0.3,6.7,0.5,10,0.7c3.3,0.3,6.7,0.3,10.1,0.4l5,0.1l5-0.1l5-0.1l2.5,0l2.5-0.1l10.1-0.5
					l10.1-0.9c1.7-0.1,3.3-0.3,5-0.5l5-0.6c13.4-1.6,26.7-3.8,39.9-6.5c13.2-2.7,26.4-5.9,39.4-9.4c6.5-1.9,13.1-3.4,19.4-6
					c3.1-1.3,6.1-2.9,8.7-5C396.2,351.5,398.4,348.7,399.6,345.5z"/>
			</g>
		</g>
	</g>
	<g>
		<g>
			<g>
				<path d="M77.5,271.1c-7.5,1.2-14.9,2.6-22.4,3.9l-11.2,2c-3.7,0.7-7.5,1.2-11,2.3c-3.6,1.1-6.7,3.1-9.2,5.8
					c-2.6,2.7-4.6,5.8-6.4,9.1c-1.9,3.2-3.4,6.7-4.8,10.1c-1.4,3.5-2.6,7-3.6,10.6c-4,14.4-5,29.6-4.5,44.5
					c0.3,7.4,1.4,14.8,4.4,21.3c3,6.6,7.7,12.3,13.1,17.1c5.5,4.8,11.9,8.6,18.6,11.8c6.7,3.2,13.8,5.8,20.9,8.2l5.4,1.8l5.4,1.7
					c3.6,1.2,7.2,2.1,10.8,3.2c7.3,2,14.6,3.9,22,5.5c14.7,3.3,29.7,5.6,44.7,7.2c15.1,1.5,30.2,2,45.4,1.5
					c-15.1,0.5-30.3,0.5-45.5-0.5c-15.1-1-30.3-2.8-45.2-5.5c-7.5-1.3-14.9-3-22.3-4.8c-3.7-1-7.4-1.9-11-3l-5.5-1.6l-5.4-1.7
					c-7.3-2.3-14.5-4.8-21.5-8c-7-3.2-13.8-7.2-19.7-12.4c-5.9-5.1-11-11.4-14.3-18.7c-3.3-7.3-4.3-15.3-4.5-23
					c-0.1-3.9,0-7.7,0.2-11.5c0.2-3.8,0.5-7.6,1-11.5c0.9-7.6,2.5-15.2,4.8-22.5c1.2-3.7,2.5-7.3,4.1-10.8c1.6-3.5,3.3-6.9,5.4-10.2
					c2-3.3,4.2-6.5,7.1-9.2c2.8-2.7,6.3-4.8,10.1-5.7c3.7-1,7.5-1.4,11.3-2l11.2-1.7C62.5,273.5,70,272.4,77.5,271.1z"/>
			</g>
		</g>
	</g>
	<g>
		<g>
			<g>
				<path d="M150.7,432.1c5,2,10.3,3.2,15.6,3.9c5.3,0.7,10.7,0.9,15.9,0.6c5.3-0.3,10.5-1.1,15.6-2.3c1.3-0.3,2.5-0.7,3.8-1
					c1.2-0.4,2.5-0.8,3.7-1.2c1.2-0.4,2.3-0.9,3.2-1.5c0.9-0.6,1.4-1.2,1.6-1.7c0.2-0.5,0-1.2-0.4-2c-0.5-0.8-1.2-1.4-2.1-2
					c-1.9-1.1-4.4-1.6-7-2.1c-5.2-0.9-10.5-1.7-15.8-2.2c-5.3-0.6-10.7-0.9-16.1-1.2s-10.8-0.4-16.2-0.3c5.4-0.1,10.8-0.5,16.1-0.8
					c5.4-0.3,10.8-0.5,16.2-0.5c5.4,0,10.9,0.3,16.3,0.9c2.7,0.3,5.6,0.7,8.5,2.2c1.4,0.7,2.8,1.9,3.8,3.4c0.5,0.8,0.9,1.6,1.1,2.6
					c0.2,1,0.2,2.1-0.1,3.1c-0.3,1-0.8,1.9-1.5,2.6c-0.6,0.7-1.3,1.3-2,1.7c-1.4,0.9-2.8,1.4-4.1,1.9c-1.3,0.4-2.7,0.9-4,1.2
					c-1.4,0.3-2.7,0.7-4.1,0.9c-5.5,1.1-11,1.4-16.5,1.1c-5.5-0.2-10.9-1.1-16.2-2.4C160.8,435.9,155.7,434.1,150.7,432.1z"/>
			</g>
		</g>
	</g>
	<g>
		<g>
			<g>
				<path d="M193.4,404.9c5,1.4,10.2,2.3,15.4,2.8c5.2,0.6,10.4,0.8,15.6,0.9c5.2,0,10.4-0.2,15.5-0.5c2.6-0.2,5.1-0.4,7.7-0.7
					c2.6-0.3,5-0.5,6.9-1.4c1.9-0.8,2.9-2.1,3-4c0.1-1.9-0.8-4.1-2.1-5.8c-1.4-1.8-3.3-3.4-5.3-4.6c-2.1-1.2-4.4-2.1-6.9-2.8
					c-4.9-1.3-10.1-1.4-15.3-1c-5.2,0.4-10.4,1.1-15.6,1.6c5.2-0.5,10.3-1.7,15.5-2.6c5.2-0.9,10.6-1.5,16-0.6
					c2.7,0.4,5.4,1.2,7.9,2.4c2.5,1.2,4.9,2.9,6.9,5.1c1.9,2.3,3.4,5.1,3.4,8.5c0,1.7-0.5,3.5-1.6,4.9c-1,1.5-2.5,2.5-4,3.1
					c-2.9,1.3-5.8,1.5-8.4,1.7c-2.6,0.2-5.3,0.4-8,0.4c-5.3,0.1-10.6-0.2-15.9-0.8c-5.3-0.6-10.5-1.5-15.6-2.7
					C203.5,407.7,198.5,406.3,193.4,404.9z"/>
			</g>
		</g>
	</g>
	<g>
		<g>
			<g>
				<path d="M199.7,422.6c1.7,0,3.5-0.4,5.2-0.7c1.7-0.3,3.5-0.7,5.2-1c1.7-0.3,3.3-0.6,4.5-1.2c1.3-0.6,2.4-1.3,3.2-2.2
					c0.8-0.9,1.2-1.9,1.3-3.1c0-1.2-0.3-2.4-1.2-3.2c-1-0.8-2.8-1.3-4.5-1.9c-1.7-0.5-3.3-1.1-5.1-1.3c1.7,0.3,3.5,0.3,5.2,0.3
					c0.9,0,1.8,0,2.6,0c0.9,0,1.9,0.1,3,0.5c1.1,0.4,2,1.2,2.7,2.1c0.7,0.9,1.1,2,1.3,3.1c0.2,1.1,0.1,2.3-0.2,3.4
					c-0.3,1.2-0.9,2.2-1.6,3c-1.5,1.7-3.4,2.8-5.4,3.3c-2.1,0.5-4,0.3-5.8,0.1c-1.7-0.2-3.5-0.5-5.2-0.8
					C203.2,422.8,201.5,422.5,199.7,422.6z"/>
			</g>
		</g>
	</g>
	<g>
		<g>
			<g>
				<path d="M408.6,273.6c7.1,1.1,14.2,1.3,21.2,3.1c1.7,0.4,3.5,1,5.1,1.6c0.8,0.3,1.7,0.6,2.5,1l0.6,0.3c0.2,0.1,0.4,0.1,0.7,0.3
					c0.4,0.3,0.7,0.5,1.1,0.8c2.8,2.3,5.2,5,7.4,7.8l1.7,2.1l1.3,2.4c0.8,1.6,1.7,3.2,2.4,4.8c0.7,1.6,1.6,3.2,2.3,4.9l2.1,5
					c2.6,6.7,4.8,13.6,6.3,20.7c1.5,7.1,2.5,14.3,2.5,21.6c0,7.3-0.9,14.6-2.8,21.7l-0.8,2.6c-0.3,0.9-0.5,1.8-0.9,2.6l-2,5.1
					l-2.4,4.9c-0.8,1.6-1.7,3.3-2.8,4.9c-4.3,6.3-10.2,11.2-16.4,15c-1.6,1-3.2,1.9-4.8,2.7c-0.8,0.4-1.6,0.8-2.5,1.3l-2.5,1.1
					l-5,2.2c-0.8,0.4-1.7,0.7-2.5,1.1l-2.5,1c-3.4,1.3-6.7,2.7-10.1,3.8c-3.4,1.2-6.8,2.4-10.3,3.4c-13.8,4.2-27.8,7.4-42,9.6
					c-14.2,2.3-28.5,3.6-42.8,4.3c-14.3,0.7-28.6,0.6-42.9,0.3c14.3,0.4,28.6-0.1,42.8-1.3c14.2-1.2,28.4-3.1,42.4-5.9
					c14-2.8,27.8-6.3,41.2-10.8c3.4-1.1,6.7-2.3,10-3.5c3.4-1.2,6.6-2.6,9.9-3.9l2.5-1c0.8-0.3,1.6-0.7,2.4-1.1l4.8-2.1l2.4-1.1
					c0.8-0.4,1.5-0.8,2.3-1.2c1.5-0.8,3-1.7,4.5-2.6c5.9-3.7,11.3-8.1,15-13.7c0.9-1.4,1.8-2.9,2.5-4.4l2.4-4.7l2-4.8
					c0.4-0.8,0.6-1.6,0.8-2.5l0.8-2.5c3.9-13.3,4.1-27.7,1.5-41.6c-1.2-6.9-3.1-13.8-5.4-20.5l-1.9-5c-0.6-1.7-1.4-3.3-2-4.9
					c-0.7-1.7-1.4-3.2-2.2-4.9l-1.1-2.4l-1.5-2.1c-2.1-2.9-4.3-5.7-7-8c-0.3-0.3-0.7-0.6-1-0.8c-0.1-0.1-0.3-0.2-0.5-0.3l-0.6-0.3
					c-0.8-0.4-1.6-0.7-2.4-1.1c-1.6-0.7-3.3-1.3-5-1.7C422.8,275.1,415.6,274.7,408.6,273.6z"/>
			</g>
		</g>
	</g>
	<g>
		<g>
			<g>
				<path d="M283.4,437.2c-5,1.3-10,2.7-15.1,3.8c-5.1,1.1-10.3,2-15.5,2.6c-5.2,0.6-10.5,0.9-15.7,0.8c-2.6,0-5.3-0.2-7.9-0.4
					c-2.6-0.2-5.3-0.4-8.2-1.4c-1.4-0.5-2.9-1.4-4.1-2.7c-1.2-1.3-1.9-3.2-2-4.9c-0.1-1.8,0.4-3.3,1-4.8c0.7-1.4,1.5-2.7,2.5-3.8
					c4.1-4.2,9.6-6.2,14.9-6.9c2.7-0.4,5.4-0.4,8-0.3c2.6,0.2,5.2,0.5,7.8,1c5.1,0.9,10.2,2,15.4,2.5c-5.2-0.4-10.3-1.1-15.5-1.4
					c-5.2-0.3-10.3-0.3-15.2,0.9c-4.8,1.1-9.4,3.4-12.4,6.9c-1.4,1.7-2.3,3.8-2.1,5.6c0.1,1.7,1.3,2.9,3.3,3.6c2,0.7,4.5,1,7,1.2
					c2.5,0.3,5.1,0.5,7.6,0.7c5.1,0.4,10.2,0.5,15.4,0.5c5.1,0,10.3-0.3,15.5-0.8C273.3,439.3,278.4,438.5,283.4,437.2z"/>
			</g>
		</g>
	</g>
	<g>
		<g>
			<g>
				<path d="M278.2,400.6c-1.7,0-3.5,0.2-5.2,0.5c-1.7,0.3-3.5,0.5-5.2,0.8c-1.7,0.2-3.7,0.4-5.8-0.1c-2-0.5-4-1.6-5.4-3.3
					c-0.7-0.9-1.3-1.9-1.6-3c-0.3-1.1-0.4-2.3-0.2-3.4c0.2-1.1,0.6-2.2,1.3-3.1c0.7-0.9,1.6-1.7,2.7-2.1c1-0.4,2-0.5,3-0.5
					c0.9,0,1.8,0,2.6,0c1.8,0,3.5,0,5.2-0.3c-1.7,0.3-3.4,0.8-5.1,1.3c-1.6,0.6-3.5,1-4.5,1.9c-0.9,0.8-1.3,2-1.2,3.2
					c0.1,1.2,0.5,2.2,1.3,3.1c0.8,0.9,1.9,1.7,3.2,2.2c1.2,0.6,2.8,0.9,4.5,1.2c1.7,0.3,3.4,0.7,5.2,1
					C274.7,400.2,276.4,400.5,278.2,400.6z"/>
			</g>
		</g>
	</g>
	<g>
		<g>
			<g>
				<path d="M265.5,422.1c-1.8,0-3.6,0.3-5.5,0.4c-1.9,0.1-3.8-0.1-5.8-0.8c-1.9-0.7-3.8-2-5-4c-0.6-1-1-2.1-1.1-3.5
					c-0.1-1.4,0.3-2.9,1.1-4c0.8-1.1,1.8-1.8,2.7-2.3c0.9-0.5,1.9-0.9,2.8-1.2c1.7-0.6,3.5-1.1,5.2-1.6c1.8-0.5,3.5-0.9,5.3-1.4
					c1.8-0.5,3.5-1,5.2-1.7c-1.6,0.7-3.2,1.7-4.7,2.6c-1.5,1-3.1,2-4.6,2.9c-1.5,1-3.1,1.9-4.7,2.8c-1.5,0.8-2.9,1.7-3.4,2.5
					c-0.2,0.4-0.3,0.6-0.4,1.1c0,0.5,0.1,1.1,0.4,1.7c0.5,1.2,1.4,2.4,2.7,3.4c1.2,1,2.8,1.7,4.5,2.2
					C261.9,421.8,263.7,422.1,265.5,422.1z"/>
			</g>
		</g>
	</g>
	<g>
		<g>
			<g>
				<path d="M66,287.2c1.3,2.1,2.9,4.1,4.5,6.1c1.6,2,3.2,3.9,4.7,5.9c1.6,2,3.1,4,4.5,6.2c1.4,2.2,2.6,4.6,3.4,7.2
					c0.8,2.6,1.2,5.3,1.3,7.9c0.1,2.6-0.2,5.2-0.7,7.8c-0.5,2.5-1.1,5-1.8,7.4c-0.7,2.4-1.4,4.8-2,7.3c0.5-2.5,0.8-5,0.9-7.5
					c0.2-2.5,0.2-5,0.1-7.5c-0.2-4.9-0.8-9.7-2.2-14c-1.4-4.4-3.9-8.6-6-13.2c-1.1-2.3-2.2-4.5-3.2-6.8
					C68.4,291.6,67.3,289.3,66,287.2z"/>
			</g>
		</g>
	</g>
	<g>
		<g>
			<g>
				<path d="M423.7,305.1c0.8,1.9,0.3,4.2-0.4,6.1c-0.8,2-1.7,3.9-2.6,5.7c-1.9,3.7-4.1,7.2-6.3,10.5c-2.2,3.3-4.5,6.5-6.4,10.1
					c-0.9,1.8-1.8,3.6-2.4,5.5c-0.6,1.9-1,4-0.9,6c-0.1-2-0.3-4.1-0.2-6.2c0.1-2.1,0.4-4.2,0.9-6.3c1-4.2,2.8-8.1,5.1-11.6
					c2.3-3.5,5-6.6,7.8-9.6c1.4-1.5,2.8-3,4-4.6c0.6-0.8,1.1-1.7,1.5-2.6C424.1,307.2,424.1,306.1,423.7,305.1z"/>
			</g>
		</g>
	</g>
	<g>
		<g>
			<g>
				<g>
					<path d="M196.3,146.4c9.5,2.1,19,3.8,28.5,4.9c9.5,1.1,19.1,1.7,28.6,1.6c9.5-0.1,19.1-0.7,28.6-2c9.5-1.3,18.9-3.1,28.4-5.4
						c-8.8,4-18.2,6.9-27.8,8.9c-9.6,2-19.4,3-29.2,3.1c-9.8,0.1-19.6-0.7-29.2-2.6C214.6,153.1,205.2,150.4,196.3,146.4z"/>
				</g>
			</g>
		</g>
	</g>
	<g>
		<path class="st5" d="M416.6,145.2c-6-3.8-12.2-7.6-17.7-11.8c-0.1-1.3-0.5-2.7-1.4-4c-2.2-3.4-5.8-6.2-7.8-9.7
			c-2.4-4-3.2-8.6-4.4-12.8c-2.4-7.9-4.7-15.8-7.1-23.7c-0.4-5.7-0.8-11.4-1.3-17.1c-0.7-9.5,0.1-20.2-4.1-29.4
			c-9.4-20.2-45.4-21.9-70.9-23.2c-31.4-1.5-63-1.5-94.5-0.1c-13.9,0.6-29.2,1.5-43.2,4.5c-1.9-0.3-3.8-0.3-5.8,0.1
			c-3.3,0.7-6.3,1.8-9.1,3c-12.7,4.7-23.1,11.1-24.9,22.2c-0.2,1.4,0.2,2.5,0.9,3.6c-5.4,11.5-8.1,23.5-12.1,35.3
			c-8.5,24.8-23.5,48.1-43.9,69.3c-3.4,3.5-0.7,8.7,4.2,10.6c3.4,1.3,6.9,1.2,9.9,0.1c1.4,1.1,3.1,1.8,5.2,2
			c40.7,3.5,82.8,3.1,123.9,2.9c41.5-0.2,83.1-1.4,124.6-3.5c24-1.2,48-2.8,71.9-4.7C418,158,424.2,150,416.6,145.2z"/>
		<g>
			<g>
				<g>
					<g>
						<path d="M102.7,112.9c-6.3,7.8-12.7,15.5-19.1,23.2l-9.7,11.5l-2.4,2.9c-0.8,0.9-1.7,2-2.3,2.8c-0.4,0.6-0.8,1.1-0.9,1.7
							c-0.2,0.6-0.1,1.3,0.3,1.8c0.3,0.5,0.8,1,1.3,1.3c0.4,0.2,1.4,0.8,2.2,1.1c1.9,0.7,4.1,1.1,6.4,1.3c2.3,0.2,4.8,0.4,7.3,0.5
							l7.5,0.4c10,0.6,19.9,1.1,29.9,1.6c19.9,0.8,39.9,1.4,59.8,1.8c19.9,0.4,39.9,0.4,59.8,0.3c39.9-0.4,79.7-1.9,119.6-4.5
							c5-0.3,10-0.6,14.9-1l14.9-1.1c5-0.4,9.8-0.8,14.4-1.7c2.3-0.5,4.5-1.1,6.5-1.9c0.5-0.2,1-0.4,1.5-0.7l0.3-0.2l0.2-0.1
							c0.1-0.1,0.3-0.1,0.4-0.2c0.6-0.3,1.1-0.7,1.6-1.1c0.5-0.4,0.9-1.1,0.7-1.8c-0.2-0.7-0.6-1.2-1.1-1.7l-0.7-0.8l-0.2-0.2
							l-0.3-0.3l-0.7-0.6l-2.7-2.5c-3.7-3.4-7.4-6.8-11-10.3c-3.6-3.6-7.1-7.3-10.1-11.4c-2.9-4.2-5.3-8.8-6.3-13.8
							c1.6,4.8,4.5,8.9,7.8,12.5c3.4,3.6,7.1,6.8,11,9.9c3.9,3.1,7.9,6,11.9,9.1l3,2.3l1.7,1.3c0.7,0.6,1.4,1.1,2,1.8
							c1.3,1.2,2.3,2.6,2.7,4.2c0.2,0.8,0.2,1.7,0,2.5c-0.2,0.8-0.5,1.6-1,2.3c-0.5,0.7-1,1.4-1.7,2l-1,0.9l-1.1,0.8
							c-0.4,0.3-0.7,0.6-1.1,0.8l-1.1,0.7c-0.6,0.4-1.2,0.7-1.9,1c-2.5,1.3-5.1,2.2-7.7,2.9c-5.2,1.4-10.3,2.2-15.3,2.9l-14.9,2.1
							c-5,0.7-10,1.2-15,1.8c-39.9,4.7-80.2,7.2-120.4,7.7c-20.1,0.2-40.2,0-60.4-0.8c-20.1-0.9-40.2-2.2-60.2-4.1
							c-10-1-20-2-30-3.3l-7.5-0.9c-2.5-0.3-5-0.6-7.6-1.1c-2.6-0.5-5.4-1.2-8.1-2.4c-1.4-0.7-2.7-1.4-4.2-2.7
							c-1.4-1.2-2.6-2.7-3.3-4.5c-0.7-1.7-0.7-3.6-0.2-5.3c0.6-1.7,1.7-3.2,2.9-4.6c1-1.1,1.9-1.9,2.8-2.7l2.7-2.6l10.9-10.4
							C87.9,126.5,95.3,119.6,102.7,112.9z"/>
					</g>
				</g>
			</g>
		</g>
		<g>
			<g>
				<g>
					<g>
						<path d="M101,114.5c3.7-17.5,6.8-35,9.3-52.4c0.6-4.4,1.2-8.7,1.7-13.1l0.8-6.6c0.3-2.4,0.8-5.1,2-8c0.6-1.4,1.4-2.8,2.3-4.2
							c1-1.3,2.1-2.5,3.2-3.5c2.2-1.9,4.3-3.3,6.2-4.6c3.8-2.5,7.8-4.9,12.1-7.1c4.3-2.2,8.8-4.1,13.6-5.5c4.8-1.4,9.6-2.4,14.2-3
							c4.7-0.6,9.3-1,13.8-1.3l13.2-1c17.5-1.4,35.3-3.2,53.4-3.9c9-0.4,18.2-0.5,27.3-0.1c9.1,0.3,18.2,1.1,27.2,2.2
							c9,1.1,17.9,2.4,26.7,3.9c4.4,0.7,8.8,1.5,13.2,2.3l6.6,1.2c2.2,0.4,4.4,0.8,6.9,1.4c2.4,0.6,5,1.3,7.7,2.5
							c2.6,1.2,5,2.8,7.2,4.6c2.1,1.8,4,4,5.5,6.2c1.5,2.2,2.8,4.6,3.7,7.1c1.9,4.9,2.6,9.9,3,14.6c0.2,2.3,0.2,4.6,0.3,6.9l0.2,6.6
							c0.7,17.6,2.2,35.3,4.4,53c-5.8-16.9-10.2-34.4-13.2-52.1c-0.8-4.4-1.3-9-2.1-13.1c-0.8-4.1-1.8-7.9-3.5-11.2
							c-0.8-1.6-1.8-3.1-2.9-4.5c-1.1-1.3-2.3-2.5-3.6-3.4c-1.3-0.9-2.7-1.7-4.2-2.2c-1.5-0.5-3.2-0.9-5.1-1.2
							c-1.9-0.3-4.1-0.5-6.3-0.8l-6.6-0.8l-13.2-1.5c-8.8-1-17.5-1.8-26.2-2.5c-8.7-0.7-17.4-1.2-26-1.3c-8.6-0.1-17.3,0-26,0.5
							c-17.4,0.8-35.1,2.4-53.1,3.2c-4.5,0.2-9,0.3-13.4,0.5c-4.4,0.1-8.7,0.3-12.8,0.6c-4.2,0.3-8.2,0.9-12,1.7
							c-3.8,0.9-7.6,2.1-11.4,3.7c-3.8,1.6-7.6,3.5-11.4,5.5c-1.9,1-3.6,1.9-4.8,2.9c-0.6,0.5-1.1,0.9-1.5,1.3
							c-0.4,0.4-0.8,0.9-1.1,1.5c-0.7,1.2-1.2,2.8-1.7,4.8l-1.5,6.5c-1,4.4-2.2,8.7-3.4,13.1C114.5,81.3,108.4,98.3,101,114.5z"/>
					</g>
				</g>
			</g>
		</g>
		<g>
			<g>
				<g>
					<g>
						<path d="M101.4,114.4c3.5-0.5,6.9-0.5,10.3-0.5c3.4,0,6.8,0.3,10.1,0.6c3.4,0.3,6.7,0.7,10.1,1.3c3.4,0.5,6.7,1.2,10.1,2.2
							c-3.4,0.8-6.9,1.2-10.3,1.3c-3.4,0.1-6.8,0.1-10.3-0.2c-3.4-0.3-6.8-0.8-10.1-1.5C107.9,116.9,104.6,115.9,101.4,114.4z"/>
					</g>
				</g>
			</g>
		</g>
		<g>
			<g>
				<g>
					<g>
						<path d="M147.1,118c2.6-0.9,5.2-1.3,7.8-1.6c2.6-0.3,5.2-0.4,7.8-0.4c2.6,0,5.2,0.2,7.8,0.4c2.6,0.3,5.2,0.7,7.8,1.5
							c-2.6,1-5.2,1.6-7.8,2c-2.6,0.4-5.2,0.6-7.8,0.6c-2.6,0-5.2-0.1-7.8-0.6C152.2,119.7,149.6,119.1,147.1,118z"/>
					</g>
				</g>
			</g>
		</g>
		<g>
			<g>
				<g>
					<g>
						<path d="M183.9,118.2c1.9-1,3.8-1.6,5.7-1.9c1.9-0.4,3.8-0.5,5.7-0.6c1.9,0,3.8,0.1,5.7,0.4c1.9,0.3,3.8,0.8,5.7,1.7
							c-1.9,1-3.8,1.5-5.7,1.9c-1.9,0.4-3.8,0.6-5.7,0.6c-1.9,0-3.8,0-5.7-0.4C187.7,119.6,185.8,119.1,183.9,118.2z"/>
					</g>
				</g>
			</g>
		</g>
		<g>
			<g>
				<g>
					<g>
						<path d="M212.2,117.9c1.9-1,3.7-1.6,5.6-2c1.9-0.4,3.8-0.6,5.6-0.6c1.9,0,3.8,0.1,5.7,0.4c1.9,0.3,3.8,0.7,5.7,1.6
							c-1.9,1-3.7,1.5-5.6,1.9c-1.9,0.4-3.8,0.6-5.6,0.7c-1.9,0.1-3.8,0-5.7-0.3C216,119.3,214.1,118.9,212.2,117.9z"/>
					</g>
				</g>
			</g>
		</g>
		<g>
			<g>
				<g>
					<g>
						<path d="M240.5,117.6c1.1-1,2.2-1.5,3.4-1.9c1.1-0.4,2.3-0.5,3.5-0.5c1.2,0,2.3,0.2,3.5,0.5c1.2,0.3,2.3,0.8,3.4,1.7
							c-1.2,0.9-2.3,1.4-3.4,1.8c-1.1,0.4-2.3,0.5-3.4,0.6c-1.1,0-2.3-0.1-3.4-0.4C242.9,119,241.7,118.5,240.5,117.6z"/>
					</g>
				</g>
			</g>
		</g>
		<g>
			<g>
				<g>
					<g>
						<path d="M259.6,117.5c1.5-1,3-1.5,4.5-1.9c1.5-0.4,3-0.6,4.4-0.6c1.5-0.1,3,0,4.5,0.3c1.5,0.2,3,0.6,4.6,1.3
							c-1.4,1.1-2.9,1.7-4.4,2.2c-1.5,0.5-3,0.7-4.5,0.8c-1.5,0.1-3.1,0-4.6-0.3C262.7,119,261.1,118.5,259.6,117.5z"/>
					</g>
				</g>
			</g>
		</g>
		<g>
			<g>
				<g>
					<g>
						<path d="M286.3,116.9c1.4-1,2.9-1.6,4.3-2c1.5-0.4,2.9-0.6,4.4-0.6c1.5,0,2.9,0.1,4.4,0.4c1.5,0.3,3,0.7,4.5,1.6
							c-1.4,1-2.9,1.5-4.3,1.9c-1.5,0.4-2.9,0.6-4.4,0.7c-1.5,0.1-3,0-4.4-0.3C289.3,118.2,287.8,117.8,286.3,116.9z"/>
					</g>
				</g>
			</g>
		</g>
		<g>
			<g>
				<g>
					<g>
						<path d="M312,115.8c1.7-1,3.4-1.6,5.1-2c1.7-0.4,3.4-0.7,5.1-0.8c1.7-0.1,3.4-0.1,5.2,0.1c1.7,0.2,3.5,0.5,5.3,1.2
							c-1.6,1.1-3.3,1.8-5,2.3c-1.7,0.5-3.4,0.8-5.2,1c-1.7,0.1-3.5,0.1-5.3-0.2C315.5,117.2,313.7,116.7,312,115.8z"/>
					</g>
				</g>
			</g>
		</g>
		<g>
			<g>
				<g>
					<g>
						<path d="M340.1,113.7c1.8-0.9,3.6-1.5,5.4-1.8c1.8-0.4,3.6-0.6,5.3-0.7c1.8-0.1,3.6-0.1,5.4,0.1c1.8,0.1,3.7,0.4,5.6,1.1
							c-1.7,1.2-3.4,1.9-5.2,2.5c-1.8,0.5-3.6,0.9-5.5,1c-1.8,0.1-3.7,0.1-5.6-0.2C343.7,115.3,341.9,114.8,340.1,113.7z"/>
					</g>
				</g>
			</g>
		</g>
		<g>
			<g>
				<g>
					<g>
						<path d="M369,111.6c1.1-1.1,2.2-1.7,3.4-2.1c1.1-0.5,2.3-0.7,3.4-0.8c1.2-0.1,2.3-0.1,3.6,0.1c1.2,0.2,2.4,0.5,3.8,1.2
							c-1,1.1-2.1,1.8-3.3,2.3c-1.1,0.5-2.3,0.8-3.5,1c-1.2,0.2-2.4,0.2-3.6-0.1C371.5,112.9,370.3,112.5,369,111.6z"/>
					</g>
				</g>
			</g>
		</g>
		<g>
			<g>
				<g>
					<g>
						<path d="M101.2,114.4c23.6,1.6,47.3,2.5,71,2.9c23.7,0.4,47.3,0.3,71-0.2c23.7-0.5,47.3-1.3,71-2.2l35.5-1.5l8.9-0.4
							c3-0.1,5.9-0.2,8.9-0.5c2.9-0.2,5.9-0.6,8.7-1.3c2.9-0.7,5.7-1.7,8.2-3.3c-2.4,1.7-5.2,2.9-8.1,3.6c-2.9,0.8-5.8,1.2-8.8,1.6
							c-3,0.3-5.9,0.5-8.9,0.7l-8.9,0.6c-11.8,0.8-23.6,1.5-35.5,2.2c-23.7,1.3-47.3,2.3-71,2.8c-23.7,0.5-47.4,0.5-71.1-0.3
							C148.5,118.4,124.8,116.9,101.2,114.4z"/>
					</g>
				</g>
			</g>
		</g>
		<g>
			<g>
				<g>
					<g>
						<path d="M383.1,160.7c-1-0.3-1.8-0.9-2.5-1.7c-0.3-0.4-0.6-0.8-0.8-1.1c-0.2-0.3-0.4-0.6-0.8-0.9c-0.5-0.5-1.3-1.3-1.8-2.1
							c-0.5-0.8-1-1.7-1.1-2.8c0.9,0.5,1.7,1,2.4,1.5c0.7,0.5,1.4,1,2.2,1.8c0.4,0.3,0.8,0.8,1,1.3c0.2,0.5,0.4,0.9,0.5,1.3
							C382.5,158.8,382.8,159.7,383.1,160.7z"/>
					</g>
				</g>
			</g>
		</g>
		<g>
			<g>
				<g>
					<g>
						<path d="M373.6,147.7c-1-0.5-1.8-1.1-2.5-1.8c-0.7-0.7-1.3-1.5-1.9-2.3c-0.5-0.8-1-1.7-1.4-2.6c-0.4-0.9-0.7-1.9-0.8-3
							c0.9,0.6,1.6,1.3,2.3,2c0.7,0.7,1.3,1.5,1.8,2.3c0.5,0.8,1,1.6,1.5,2.5C373,145.7,373.4,146.6,373.6,147.7z"/>
					</g>
				</g>
			</g>
		</g>
		<g>
			<g>
				<g>
					<g>
						<path d="M363.8,132.3c-0.9-0.6-1.5-1.2-2.2-1.9c-0.6-0.7-1.2-1.4-1.6-2.1c-0.5-0.7-0.9-1.5-1.3-2.4c-0.4-0.8-0.7-1.7-0.9-2.7
							c0.9,0.4,1.7,1,2.4,1.6c0.7,0.6,1.3,1.3,1.8,2.1c0.5,0.8,1,1.6,1.3,2.5C363.6,130.3,363.8,131.3,363.8,132.3z"/>
					</g>
				</g>
			</g>
		</g>
		<g>
			<g>
				<g>
					<g>
						<path d="M356,118.9c-0.7-0.3-1.2-0.6-1.6-1c-0.4-0.4-0.8-0.8-1.1-1.3c-0.3-0.5-0.6-1-0.7-1.5c-0.2-0.6-0.3-1.2-0.3-1.9
							c0.7,0.2,1.3,0.5,1.8,0.9c0.5,0.4,0.9,0.8,1.2,1.3c0.3,0.5,0.6,1,0.8,1.6C356.1,117.6,356.2,118.2,356,118.9z"/>
					</g>
				</g>
			</g>
		</g>
		<g>
			<g>
				<g>
					<g>
						<path d="M353.3,112.8c-1.1-1-1.8-2.2-2.3-3.6c-0.5-1.3-0.8-2.7-1-4c-0.2-1.3-0.3-2.7-0.5-4c-0.2-1.3-0.4-2.6-0.6-4
							c1.1,1,1.8,2.3,2.3,3.6c0.5,1.3,0.8,2.7,1.1,4c0.2,1.3,0.4,2.6,0.5,4C352.9,110.1,353.1,111.4,353.3,112.8z"/>
					</g>
				</g>
			</g>
		</g>
		<g>
			<g>
				<g>
					<g>
						<path d="M348.1,91.9c-0.7-1.2-1.2-2.5-1.6-3.7c-0.4-1.3-0.7-2.6-0.9-3.8c-0.2-1.3-0.3-2.6-0.4-3.9c-0.1-1.3-0.1-2.5-0.2-3.9
							c1,1,1.6,2.3,2,3.6c0.4,1.3,0.7,2.6,0.9,3.8c0.2,1.3,0.4,2.6,0.4,3.9C348.4,89.2,348.3,90.6,348.1,91.9z"/>
					</g>
				</g>
			</g>
		</g>
		<g>
			<g>
				<g>
					<g>
						<path d="M344.2,68.3c-0.7-1.2-1.2-2.4-1.5-3.6c-0.4-1.2-0.7-2.5-0.9-3.7c-0.2-1.3-0.3-2.5-0.4-3.8c0-1.3,0-2.6,0.2-3.9
							c0.7,1.2,1.1,2.4,1.5,3.6c0.4,1.2,0.7,2.5,0.9,3.7c0.2,1.3,0.4,2.5,0.4,3.8C344.6,65.6,344.5,66.9,344.2,68.3z"/>
					</g>
				</g>
			</g>
		</g>
		<g>
			<g>
				<g>
					<g>
						<path d="M341.8,47.3c-0.8-0.7-1.3-1.5-1.7-2.4c-0.4-0.8-0.7-1.7-0.9-2.7c-0.2-0.9-0.2-1.8-0.2-2.8c0.1-0.9,0.2-1.9,0.6-2.8
							c0.5,0.9,0.9,1.7,1.1,2.6c0.3,0.9,0.5,1.7,0.7,2.6c0.2,0.9,0.3,1.7,0.4,2.6C342,45.4,342,46.3,341.8,47.3z"/>
					</g>
				</g>
			</g>
		</g>
		<g>
			<g>
				<g>
					<g>
						<path d="M339.2,30.8c-0.6-0.6-1-1.2-1.3-1.8c-0.3-0.6-0.5-1.3-0.6-1.9c-0.1-0.7-0.2-1.3-0.2-2c0-0.7,0.1-1.4,0.4-2.2
							c0.6,0.5,1,1.1,1.4,1.8c0.3,0.6,0.6,1.3,0.7,1.9c0.2,0.7,0.2,1.3,0.2,2.1C339.7,29.3,339.6,30,339.2,30.8z"/>
					</g>
				</g>
			</g>
		</g>
		<g>
			<g>
				<g>
					<g>
						<path d="M90.2,162.4c0.3-0.8,0.7-1.4,1.1-2c0.4-0.6,0.9-1,1.4-1.5c0.5-0.4,1.1-0.8,1.7-1.2c0.6-0.4,1.2-0.7,2.1-0.9
							c-0.1,0.8-0.4,1.5-0.8,2.1c-0.4,0.6-0.9,1.2-1.4,1.7c-0.5,0.5-1.1,0.9-1.8,1.2C91.8,162.2,91,162.4,90.2,162.4z"/>
					</g>
				</g>
			</g>
		</g>
		<g>
			<g>
				<g>
					<g>
						<path d="M99.1,153.9c0.4-0.9,0.9-1.6,1.5-2.3c0.6-0.7,1.2-1.2,1.9-1.7c0.7-0.5,1.5-0.9,2.3-1.3c0.8-0.3,1.7-0.6,2.6-0.7
							c-0.5,0.9-1,1.5-1.6,2.1c-0.6,0.6-1.2,1.2-1.9,1.7c-0.7,0.5-1.4,1-2.2,1.3C100.9,153.4,100.1,153.7,99.1,153.9z"/>
					</g>
				</g>
			</g>
		</g>
		<g>
			<g>
				<g>
					<g>
						<path d="M112.5,144.3c0.4-0.9,0.9-1.6,1.5-2.3c0.6-0.7,1.2-1.2,1.9-1.7c0.7-0.5,1.4-0.9,2.2-1.3c0.8-0.4,1.6-0.7,2.6-0.8
							c-0.4,0.9-0.9,1.6-1.5,2.2c-0.6,0.7-1.2,1.2-1.9,1.8c-0.7,0.5-1.4,1-2.2,1.3C114.3,143.9,113.5,144.2,112.5,144.3z"/>
					</g>
				</g>
			</g>
		</g>
		<g>
			<g>
				<g>
					<g>
						<path d="M124.2,134.8c0-0.7,0.1-1.2,0.3-1.7c0.2-0.5,0.4-0.9,0.8-1.2c0.3-0.3,0.7-0.6,1.1-0.9c0.4-0.2,0.9-0.4,1.6-0.5
							c0,0.7-0.1,1.2-0.3,1.6c-0.2,0.5-0.5,0.9-0.8,1.3c-0.3,0.4-0.7,0.7-1.1,0.9C125.4,134.6,124.9,134.8,124.2,134.8z"/>
					</g>
				</g>
			</g>
		</g>
		<g>
			<g>
				<g>
					<g>
						<path d="M130.8,126.7c0.2-1,0.5-1.9,1-2.7c0.4-0.8,0.9-1.6,1.5-2.3c0.6-0.7,1.2-1.4,1.9-2c0.7-0.6,1.4-1.2,2.4-1.6
							c-0.2,1-0.6,1.9-1,2.7c-0.4,0.8-0.9,1.6-1.5,2.3c-0.6,0.7-1.2,1.4-1.9,2C132.5,125.7,131.7,126.3,130.8,126.7z"/>
					</g>
				</g>
			</g>
		</g>
		<g>
			<g>
				<g>
					<g>
						<path d="M138.3,116c-0.4-0.7-0.7-1.5-0.8-2.2c-0.1-0.7-0.2-1.4-0.1-2.2c0.1-0.7,0.2-1.4,0.4-2.1c0.2-0.7,0.5-1.4,1-2.1
							c0.4,0.7,0.6,1.5,0.8,2.2c0.1,0.7,0.2,1.4,0.1,2.2c0,0.7-0.1,1.4-0.4,2.1C139.2,114.6,138.9,115.3,138.3,116z"/>
					</g>
				</g>
			</g>
		</g>
		<g>
			<g>
				<g>
					<g>
						<path d="M139.3,104.7c-0.3-0.8-0.5-1.6-0.6-2.4c-0.1-0.8-0.1-1.5-0.1-2.2c0-0.7,0.1-1.5,0.3-2.2c0.1-0.7,0.3-1.5,0.7-2.3
							c0.6,0.7,0.9,1.5,1.1,2.2c0.2,0.8,0.3,1.6,0.3,2.4c0,0.8-0.1,1.6-0.4,2.3C140.4,103.3,140,104,139.3,104.7z"/>
					</g>
				</g>
			</g>
		</g>
		<g>
			<g>
				<g>
					<g>
						<path d="M139.6,91.7c-0.5-0.8-0.7-1.5-0.8-2.3c-0.2-0.8-0.2-1.5-0.2-2.2c0-0.7,0.2-1.5,0.4-2.2c0.2-0.7,0.5-1.5,1-2.2
							c0.4,0.7,0.7,1.5,0.8,2.3c0.1,0.8,0.2,1.5,0.2,2.3c0,0.8-0.1,1.5-0.3,2.3C140.4,90.2,140.1,91,139.6,91.7z"/>
					</g>
				</g>
			</g>
		</g>
		<g>
			<g>
				<g>
					<g>
						<path d="M140.1,79.4c-0.5-0.9-0.8-1.8-1-2.7c-0.2-0.9-0.3-1.8-0.3-2.7c0-0.9,0.1-1.8,0.3-2.7c0.2-0.9,0.5-1.8,1-2.6
							c0.4,0.9,0.6,1.8,0.7,2.7c0.1,0.9,0.2,1.8,0.2,2.7c0,0.9,0,1.8-0.2,2.6C140.7,77.6,140.5,78.4,140.1,79.4z"/>
					</g>
				</g>
			</g>
		</g>
		<g>
			<g>
				<g>
					<g>
						<path d="M140.1,64.9c-0.5-0.7-0.8-1.4-1-2.1c-0.2-0.7-0.3-1.4-0.3-2.1c0-0.7,0.1-1.4,0.2-2.1c0.2-0.7,0.4-1.4,0.8-2.1
							c0.5,0.7,0.7,1.4,0.9,2.1c0.2,0.7,0.3,1.4,0.3,2.1c0,0.7,0,1.4-0.2,2.1C140.8,63.5,140.6,64.2,140.1,64.9z"/>
					</g>
				</g>
			</g>
		</g>
		<g>
			<g>
				<g>
					<g>
						<path d="M140.1,53.3c-0.5-0.5-0.7-0.9-0.8-1.3c-0.2-0.4-0.2-0.8-0.2-1.3c0-0.4,0.1-0.8,0.2-1.3c0.2-0.4,0.4-0.9,0.8-1.3
							c0.5,0.4,0.8,0.8,1,1.3c0.2,0.4,0.3,0.9,0.3,1.3c0,0.4-0.1,0.9-0.3,1.3C140.9,52.5,140.7,52.9,140.1,53.3z"/>
					</g>
				</g>
			</g>
		</g>
		<g>
			<g>
				<g>
					<g>
						<path d="M140.6,42.8c-0.5-0.7-0.7-1.3-0.9-2c-0.2-0.7-0.2-1.3-0.2-2c0-0.7,0.1-1.3,0.3-2c0.2-0.7,0.4-1.3,0.9-2
							c0.5,0.7,0.7,1.3,0.9,2c0.2,0.7,0.2,1.3,0.2,2c0,0.7-0.1,1.3-0.3,2C141.4,41.4,141.1,42.1,140.6,42.8z"/>
					</g>
				</g>
			</g>
		</g>
		<g>
			<g>
				<g>
					<g>
						<path d="M242.8,166.3c-0.2-0.8-0.2-1.4-0.2-2c0-0.6,0.1-1.1,0.2-1.7c0.1-0.5,0.3-1.1,0.5-1.6c0.2-0.6,0.4-1.1,0.9-1.8
							c0.5,0.6,0.8,1.2,0.9,1.8c0.1,0.6,0.1,1.3,0,2c-0.1,0.6-0.3,1.3-0.7,1.8C243.9,165.4,243.5,165.9,242.8,166.3z"/>
					</g>
				</g>
			</g>
		</g>
		<g>
			<g>
				<g>
					<g>
						<path d="M244.3,153c-0.5-0.4-0.7-0.9-0.9-1.3c-0.2-0.4-0.2-0.8-0.2-1.3c0-0.4,0.1-0.8,0.3-1.2c0.2-0.4,0.5-0.8,0.9-1.2
							c0.4,0.4,0.7,0.9,0.8,1.3c0.2,0.4,0.2,0.8,0.2,1.3c0,0.4-0.1,0.8-0.3,1.2C245,152.2,244.8,152.6,244.3,153z"/>
					</g>
				</g>
			</g>
		</g>
		<g>
			<g>
				<g>
					<g>
						<path d="M244.3,140.8c-0.5-0.7-0.8-1.4-1-2c-0.2-0.7-0.3-1.4-0.3-2.1c0-0.7,0.1-1.4,0.2-2.1c0.2-0.7,0.4-1.4,0.8-2.1
							c0.5,0.7,0.7,1.4,0.9,2c0.2,0.7,0.3,1.4,0.3,2.1c0,0.7,0,1.4-0.2,2.1C245,139.4,244.7,140.1,244.3,140.8z"/>
					</g>
				</g>
			</g>
		</g>
		<g>
			<g>
				<g>
					<g>
						<path d="M243.7,127.2c-0.6-0.3-0.9-0.7-1.1-1.2c-0.2-0.4-0.4-0.9-0.4-1.3c0-0.5,0-0.9,0.2-1.4c0.1-0.5,0.4-0.9,0.8-1.4
							c0.5,0.4,0.7,0.8,0.9,1.3c0.2,0.4,0.3,0.8,0.4,1.2c0,0.4,0,0.8-0.1,1.3C244.3,126.2,244.1,126.6,243.7,127.2z"/>
					</g>
				</g>
			</g>
		</g>
		<g>
			<g>
				<g>
					<g>
						<path d="M243.1,117c-0.5-0.3-0.8-0.6-0.9-1c-0.2-0.3-0.3-0.6-0.3-1c0-0.3,0.1-0.7,0.2-1c0.2-0.3,0.4-0.7,0.9-1
							c0.5,0.3,0.7,0.6,0.9,1c0.2,0.3,0.3,0.6,0.3,1c0,0.3,0,0.7-0.2,1C243.8,116.3,243.6,116.6,243.1,117z"/>
					</g>
				</g>
			</g>
		</g>
		<g>
			<g>
				<g>
					<g>
						<path d="M242.9,109c-0.5-0.4-0.8-0.9-0.9-1.3c-0.2-0.4-0.3-0.9-0.3-1.3c0-0.4,0.1-0.9,0.2-1.3c0.2-0.4,0.4-0.9,0.9-1.3
							c0.5,0.4,0.7,0.9,0.9,1.3c0.2,0.4,0.3,0.9,0.3,1.3c0,0.4,0,0.9-0.2,1.3C243.6,108.1,243.4,108.5,242.9,109z"/>
					</g>
				</g>
			</g>
		</g>
		<g>
			<g>
				<g>
					<g>
						<path d="M242.4,98.8c-0.5-0.6-0.8-1.1-1-1.7c-0.2-0.6-0.3-1.2-0.3-1.7c0-0.6,0.1-1.2,0.2-1.7c0.2-0.6,0.4-1.2,0.8-1.8
							c0.5,0.6,0.7,1.1,0.9,1.7c0.2,0.6,0.3,1.2,0.3,1.7c0,0.6,0,1.2-0.2,1.7C243.1,97.6,242.8,98.2,242.4,98.8z"/>
					</g>
				</g>
			</g>
		</g>
		<g>
			<g>
				<g>
					<g>
						<path d="M242.4,87.1c-0.5-0.7-0.8-1.5-1-2.2c-0.2-0.7-0.3-1.4-0.3-2.2c0-0.7,0-1.5,0.1-2.2c0.1-0.7,0.3-1.5,0.6-2.3
							c0.6,0.7,0.9,1.4,1.1,2.1c0.2,0.7,0.4,1.5,0.5,2.2c0.1,0.8,0,1.5-0.1,2.3C243.1,85.6,242.9,86.3,242.4,87.1z"/>
					</g>
				</g>
			</g>
		</g>
		<g>
			<g>
				<g>
					<g>
						<path d="M240.8,72.6c-0.5-0.7-0.8-1.5-1.1-2.3c-0.2-0.8-0.3-1.5-0.4-2.3c0-0.8,0-1.6,0.1-2.3c0.1-0.8,0.3-1.6,0.7-2.4
							c0.5,0.7,0.8,1.5,1,2.3c0.2,0.8,0.4,1.5,0.4,2.3c0.1,0.8,0,1.6-0.1,2.3C241.5,71,241.3,71.7,240.8,72.6z"/>
					</g>
				</g>
			</g>
		</g>
		<g>
			<g>
				<g>
					<g>
						<path d="M239.6,57c-0.5-0.9-0.8-1.9-1-2.9c-0.2-1-0.3-1.9-0.3-2.9c0-1,0.1-1.9,0.2-2.9c0.2-1,0.4-1.9,0.8-2.9
							c0.5,0.9,0.8,1.9,1,2.9c0.2,1,0.3,1.9,0.3,2.9c0,1,0,1.9-0.2,2.9C240.3,55,240,56,239.6,57z"/>
					</g>
				</g>
			</g>
		</g>
		<g>
			<g>
				<g>
					<g>
						<path d="M239.5,40.9c-0.5-0.7-0.8-1.5-1-2.2c-0.2-0.7-0.3-1.5-0.3-2.2c0-0.7,0.1-1.5,0.2-2.2c0.2-0.7,0.4-1.5,0.8-2.2
							c0.5,0.7,0.7,1.5,0.9,2.2c0.2,0.7,0.3,1.5,0.3,2.2c0,0.7,0,1.5-0.2,2.2C240.2,39.4,240,40.2,239.5,40.9z"/>
					</g>
				</g>
			</g>
		</g>
		<g>
			<g>
				<g>
					<g>
						<path d="M239,28.1c-0.4-0.7-0.6-1.5-0.7-2.2c-0.1-0.7-0.1-1.4,0-2.1c0.1-0.7,0.2-1.4,0.5-2c0.2-0.7,0.6-1.3,1.1-2
							c0.4,0.7,0.6,1.4,0.7,2.2c0.1,0.7,0.1,1.4,0.1,2.1c-0.1,0.7-0.2,1.4-0.4,2C239.9,26.8,239.6,27.5,239,28.1z"/>
					</g>
				</g>
			</g>
		</g>
	</g>
</g>
</svg>
