<?xml version="1.0" encoding="utf-8"?>
<!-- Generator: Adobe Illustrator 22.1.0, SVG Export Plug-In . SVG Version: 6.00 Build 0)  -->
<svg version="1.1" xmlns="http://www.w3.org/2000/svg" xmlns:xlink="http://www.w3.org/1999/xlink" x="0px" y="0px"
	 viewBox="0 0 726.2 618.6" style="enable-background:new 0 0 726.2 618.6;" xml:space="preserve">
<style type="text/css">
	.st0{fill:#2BFF41;}
	.st1{fill:#28E528;}
	.st2{fill:#D7ED00;}
	.st3{fill:#FFFF00;}
	.st4{fill:#FCFCA4;}
	.st5{fill:#008E00;}
	.st6{fill:none;stroke:#000000;stroke-miterlimit:10;}
	.st7{fill:none;stroke:#008E00;stroke-miterlimit:10;}
	.st8{fill:#FFFDAB;}
	.st9{fill:#FFFFFF;}
</style>
<g id="Layer_5">
	<path class="st0" d="M120.6,551.2c-3.1-3.4-5.2-7.1-6.5-11.5c-2.2-7.4-13.8-4.2-11.6,3.2c0.6,2,1.3,3.8,2.2,5.7c-3-0.4-6-1-8.9-2
		c-1.8-0.6-3.4-1.4-5-2.4c1-0.6,2.6-0.9,3.7-1.7c2.7-2,3.6-4.3,3.8-7.5c0.2-3.1-2.9-6.2-6-6c-4.9,0.3-9.8,1-14.5,2.3
		c-3,0.8-7,1.6-9,4.2c-0.9-1.2-1.7-2.6-2.4-4c-3.3-7-13.6-0.9-10.4,6.1c3.9,8.2,16,22.3,26.3,18.1c0.8-0.3,1.5-0.7,2.2-1.2
		c2,1.2,4.2,2.3,6.4,3.1c8.1,3.1,16.9,3.5,25.4,3.9C121.8,561.7,124,554.8,120.6,551.2z"/>
	<path class="st0" d="M241.7,553.6c-1-1.5-1-3.3-1.6-5c-0.7-2-1.7-3.7-3-5.3c-2.4-3-5.4-6-8.7-7.9c-4.7-2.8-10-3-15.2-3.4
		c-2.1-1.2-4.6-1.5-7.2-1.7c0-0.1,0-0.1-0.1-0.2c-2.5-7.3-14.1-4.1-11.6,3.2c1.9,5.7,3.2,13.1,6.5,18.1c2.9,4.4,8.7,4.8,11.9,0.6
		c1.7-2.2,3.4-5.1,4.3-8.2c1.4,0.2,2.7,0.6,4,1.1c0.7,0.3,1.4,0.7,2.1,1.2c-1.1,0-2.3,0.1-3.5,0.3c-7.6,1.1-4.4,12.7,3.2,11.6
		c3.4-0.5,6.9,0.7,9.5,2.8C237.2,564.9,245.8,559.6,241.7,553.6z"/>
	<path class="st0" d="M537.8,574.1c-6.8-0.4-13.7-0.7-20.4-1.9c-5.6-1-11.3-2.8-16.9-0.8c-2.4,0.9-4.5,2.4-5.9,4.6
		c-1.6,2.4-1.6,5.2-2.7,7.7c-2.2,4.7-10.4,7.7-14.7,10.1c-6.8,3.7-0.7,14.1,6.1,10.4c0.2-0.1,0.4-0.2,0.6-0.3
		c1.3,2.9,4.5,4.8,8.2,2.6c2.8-2,6.4-0.3,9.6,0.2c3.4,0.5,6.8,0.4,10.1-0.5c5.9-1.5,15-5,16.9-11.4c0.5-1.6,0.5-3.1,0.2-4.5
		c4.3-0.8,8.4-2.2,12-4.9C545.5,581.8,544.1,574.5,537.8,574.1z"/>
	<path class="st0" d="M607.4,536.9c-4,0.3-7.9,0.6-11.9,0.9c-3.6,0.3-5.5,3-5.7,5.8c-3.4,1.2-7,2.1-10.5,2.8
		c-7.6,1.5-4.4,13.1,3.2,11.6c4.4-0.9,8.7-2.1,12.9-3.7c1.9-0.7,3.7-1.5,5.6-2.4c1.9-0.9,4.3-2.7,6.4-3
		C614.8,548,615.2,536.3,607.4,536.9z"/>
</g>
<g id="Layer_6">
	<path class="st0" d="M717.2,313.5c-0.2-4.2-0.6-8.5-1.2-12.7c0.4-3.7,0.5-7.5,0.2-11.3c-0.7-7.8-2-15.6-3.6-23.3
		c-1.6-7.7-3.3-15.4-5.4-23c-4.9-18.2-12.1-36.8-23.2-52.2c-10.6-14.8-22.3-27.8-36.6-39c-7.4-5.8-14.9-11.3-22.6-16.4
		c-0.8-0.8-1.6-1.5-2.5-2.3c-0.5-0.6-0.9-1.1-1.4-1.7c-5-5.7-11.9-10.6-18.8-14c-5.1-2.5-10.2-4.9-15.3-7.3
		c-6.3-5.2-13.9-8.8-22.5-10.1c-8.5-2.9-17.2-3.9-26.4-1.7c-1.7-0.3-3.4-0.5-5.2-0.7c-5.1-4.3-11-7.5-17.8-9.8
		c-9.1-3.1-19.7-4.1-29.8-3.2c-0.4-0.1-0.7-0.2-1.1-0.4c-9.4-4.1-18.5-7.6-29.4-7C444,78,433.3,81,424.6,87.4
		c-6-0.8-11.9-1.7-17.9-2.5c-4.3-2.3-8.4-4.8-12.3-7.7c-6.2-4.5-12.1-9.6-19.1-13C357.6,55.7,338.3,51.4,319,53
		c-8.3-0.4-16.7,1.2-24.5,5c-31.7,5.1-62.4,17.4-89.7,34.1c-18.6,11.4-36.1,25-52.5,39.4c-7.1,6.3-14.1,12.8-20.5,19.7
		c-8.7,9.5-17.3,19.9-23.3,31.4c-9.6,18.6-14.7,40.3-12.6,61.2c-1.5,11.7-1.9,23.5-1,35c0.9,12.5,2.6,25.1,5.7,37.3
		c2.9,11.3,7.4,22,12,32.8c7.6,17.4,18.7,32.9,31,47.2c12.1,14,27.1,26,42.7,35.8c1.2,0.8,2.5,1.5,3.8,2.1
		c16.7,17.1,38.3,28.9,60.9,37.7c7.9,13.2,21.5,22.9,36.6,26.4c7.8,1.8,15.7,3.3,23.6,4.8c33.8,6.5,68.2,11.3,102.6,9
		c32.1-2.1,64.4-8,94.7-19.1c18.1-6.6,36-14.4,52.9-23.8c13.9-7.7,26.8-16.7,39.4-26.3c10-4.2,20-8.6,29.8-13.3
		c18-8.7,34.8-19.6,49.6-33.1c16.9-15.4,31.5-36.9,34.9-59.9C716.3,328.7,717.6,321.2,717.2,313.5z"/>
</g>
<g id="Layer_7">
	<path class="st1" d="M396.2,512.2c-2.9-1.2-5.8-2.4-8.7-3.6c-0.2-0.1-2.6-1.1-3.3-1.4c-2-0.8-3.9-1.7-5.9-2.5
		c-13.9-6-27.6-12.4-41.2-19c-12.9-6.3-25.7-12.9-38.3-20c-6.5-3.6-12.9-7.4-19.1-11.4c-2.6-1.7-5.2-3.4-7.7-5.2
		c-1.5-1.1-3-2.1-4.5-3.2c-1-0.7-2-1.5-3-2.2c1.6,1.3,1.5,1.2-0.2-0.2C242.4,426,209.5,424,185.5,405c-24.5-19.4-31.4-40.6-51-65
		c-10.7-13.3-19-40-25-59c-1.4-4.4-2-8-3-15c-0.2-1.6-2-9.1-3-10.4c-0.4-0.4-2.5-3.2-2.6-3.4c-2.9-3.9-5.8-7.8-8.4-11.9
		c-0.4,10.5-0.1,21,1.6,31.7c1.5,9.7,3.1,19.4,4,29.2c0.1,0.8,0.1,1.7,0.2,2.5c0.4,2.8,0.6,5.6,0.4,8.4c0.1,2.1,0.4,5.1,1.8,6.1
		c2,1.5,2.4,3.8,1.7,5.7c2.4,4.3,4.5,9,5.6,13.8c1.6,0.1,3.1,1.1,3.5,3.2c0.4,2.1,0.8,4.2,1.3,6.3c0.4,1.8,0.8,3.7,1.1,5.5
		c1.2,6.1,2.4,12.1,3.6,18.2c0.1,0.3,0.1,0.6,0.1,0.9c0.9,2,1.7,4,2.6,6c2.8,3,4.8,6.8,7.5,9.8c5.7,6.4,12.2,12.1,18,18.4
		c10.9,11.9,23.9,21.2,36.1,31.7c0.9-0.2,2,0,3,0.5c6.7,3.8,12.8,8.8,17,15.2c5.6,3.3,11.6,5.8,17,9.5c1.9,1.3,3.8,2.6,5.6,3.9
		c14.6,3.9,27.8,11.5,41.3,18.3c3.6,1.8,7.3,3.4,10.8,5.5c2.6,1.6,5,3.4,7.5,4.9c0.7,0.2,1.3,0.4,2,0.6c0.4,0.1,0.8,0.2,1.2,0.3
		c1-0.2,2-0.1,3,0.4c0.3,0.2,0.7,0.4,1,0.6c5.3,1.2,10.6,1.9,15.9,2.9c2.6,0.2,5,0.8,7.3,1.6c3.2,0.8,6.4,1.7,9.5,2.6
		c0.7-0.6,1.7-1,2.7-1c8.7-0.5,19.7,2.5,26.8,8.4c1.9,0.3,3.8,0.7,5.8,1c7.9,1.3,16.1,2.6,24.4,3.2c1.8-0.6,3.8-0.7,5.8-0.4
		c0.8-0.9,2-1.4,3.3-1.5c1.4-0.1,2.8,0,4.1,0.3c1.6-0.3,3.4-0.4,5.1-0.3C399.6,513.6,397.9,512.9,396.2,512.2z"/>
</g>
<g id="Layer_8">
	<path class="st2" d="M643.4,270.2c0.8-5.9,0.8-12,0.7-18c-4.6-6.1-12.3-9.6-20.6-6.9c-7,2.3-14,4.5-21.2,6.1
		c-1.6,0.3-3.1,0.7-4.7,1c-0.8,0.1-3.6,0.6-3.4,0.6c-3.3,0.4-6.6,0.6-9.9,0.8c-14.2,0.7-28.3-0.1-42.5-0.5
		c-15.5-0.3-30.4,0.8-45.7,2.9c-0.8,0.1-1.2,0.2-1.4,0.2c-0.2,0-0.5,0.1-0.7,0.1c-1.2,0.1-2.4,0.3-3.7,0.4c-7.3,0.2-14.7,0.8-22,1.5
		c-4.2,0.3-8.4,0.6-12.6,1.1c-4.3,0.5-8.5,2-12,4.4c5.8,1,11.5,4,15.5,7.9c6.7,6.6,6.6,16.1,9.6,24c3.5,3.6,7,7.1,10.6,10.5
		c3.4,3.2,6.8,6.4,10.3,9.4c4.9,2.9,10,5.5,14.8,8.2c10,5.5,20.6,9,31.3,12.5c0.7-0.5,1.3-1.1,1.9-1.7c6.6,1.4,13.3,2.3,20.2,2.3
		c16.7,0.2,34.2-4,48.4-13.1c14-9,24.1-22,34.4-34.8C640.6,282.8,642.5,276.9,643.4,270.2z"/>
	<g>
		<g>
			<path class="st3" d="M99.4,300.7c10.3-5.7,23.3-12.7,35.6-10c11,2.4,15.4,13,18.7,22.6c3.3,9.6,6.4,19.5,13.6,27
				c7.4,7.8,17.9,12,28.4,13.4c25.9,3.5,48.6-10,72.8-16.4c5.5-1.5,12.2-2.8,17.3,0.7c3.5,2.4,5.2,6.5,6.3,10.5
				c2.7,9.5,2.9,19.6,7.6,28.5c11.1,20.5,37.7,22.8,57.8,17.2c13.3-3.7,25.6-10.2,38.6-15c5.8-2.1,11.7-3.9,17.8-4.9
				c3.6-0.6,7.7-1,11.4-0.5c4,0.5,5.1,2.2,6.3,5.8c3.7,10.5,3.5,21.9,8.2,32.1c4.4,9.4,12.8,15.6,23,17.3c11.1,1.8,22.4-0.7,33-4
				c13.2-4,26.1-8.8,38.8-14.2c11.2-4.8,25.5-14.2,38.3-11.6c6.4,1.3,9,6.7,11.5,12.1c2.6,5.7,5.6,10.7,10.8,14.3
				c9.1,6.3,21.6,7.2,32,3.9c13.7-4.3,24.3-14.6,34.3-24.5c4.6-4.5-2.5-11.6-7.1-7.1c-8.9,8.9-18.6,18.9-31.1,22.3
				c-9.1,2.5-20.8,1.1-26.7-7.1c-3.4-4.7-4.6-10.6-8.1-15.2c-3.2-4.3-7.7-7.3-13-8.5c-10.2-2.3-20.7,1.5-29.9,5.5
				c-13.2,5.7-26.2,11.6-39.8,16.2c-11.1,3.8-22.8,8.2-34.7,8.3c-11.9,0.2-20.7-5.4-24.2-17c-3-10-2.8-21.3-7.8-30.7
				c-6.2-11.6-22.8-8.6-33.4-6.1c-13.1,3.1-25.1,9.2-37.5,14.2c-11.5,4.6-24.2,8.7-36.8,6.6c-10.1-1.7-20.2-7.1-24.3-17
				c-3.6-8.9-3.4-18.8-6.9-27.8c-3.7-9.6-11.7-15.7-22.1-15.9c-12.3-0.2-24.9,5.8-36.2,9.9c-12.2,4.4-24.7,8.8-37.8,8.7
				c-11.7-0.1-24.4-3.7-31.7-13.3c-6.8-9-8.5-20.9-13.2-31c-5-10.7-13.8-18.4-25.8-19.6c-13.7-1.5-27.3,5.3-39,11.7
				C88.8,295.2,93.8,303.8,99.4,300.7L99.4,300.7z"/>
		</g>
	</g>
	<g>
		<g>
			<path class="st3" d="M661.5,400.7c-12.6-21.2-38.7-31.6-62.3-23.3c-11.5,4-20.3,11.5-27.3,21.3c-6.3,8.9-11.7,20.7-22.2,25.3
				c-12.2,5.3-25.9-1.5-34.2-10.5c-4.2-4.6-7.5-9.9-10.5-15.4c-3-5.6-5.1-11.9-9.1-17c-3.1-3.9-7.3-6.8-12.4-7.1
				c-7.3-0.4-13.3,4-18.7,8.3c-11.2,8.9-22.1,18.3-34.9,24.9c-12.2,6.4-26.9,10.2-40.6,6.9c-11.3-2.7-21.8-11.1-25.2-22.5
				c-3.1-10.8,2.2-22.3-1.1-33.1c-3.6-12.1-15.8-15-26.9-12.3c-28,6.9-50.3,29.4-79.9,31.7c-13.1,1-26.2-2.6-35-12.9
				c-3.3-3.9-5.8-8.8-6.5-14c-0.8-6.8,1.8-13.5,2.8-20.2c1.9-12.7-3.9-24.2-17.3-26.5c-13.5-2.3-27.8,3.1-40.8,6.4
				c-12.9,3.2-28.6,9.7-42.1,6.6c-15.6-3.5-13.2-20.9-10.6-32.9c1.4-6.3-8.2-8.9-9.6-2.7c-2.6,11.5-4.8,25,2.5,35.3
				c6.6,9.2,18,11.5,28.7,10.6c13.9-1.3,27.6-5.8,41.1-9.2c9.6-2.4,24.2-8.4,33.7-2.8c5.6,3.3,5.2,10,4.1,15.5
				c-1.2,6.1-3,12.1-2.7,18.3c0.6,11.8,7.5,22.2,16.8,29.1c22.8,16.8,52.4,7.8,75.4-3.6c13.2-6.5,26.1-14.8,40.4-18.8
				c5-1.4,11.9-2.5,15.1,2.8c2.9,4.8,1.5,11.8,1.1,17.1c-1,12,0.6,22.6,8.4,32.2c7.7,9.4,18.9,15.1,30.9,16.6
				c29,3.5,53.6-14.9,74.8-32.1c4.2-3.4,11.3-11,17.3-8.2c5.2,2.5,7.4,10.8,9.8,15.6c5.7,11.4,13.3,22.6,24.4,29.3
				c11.7,7.1,27.3,8.9,39.1,1.1c10.9-7.2,16.2-19.3,24-29.2c8.7-11.1,22.1-17.5,36.2-16.8c14.2,0.7,27.2,9.2,34.3,21.2
				C656.2,411.3,664.8,406.3,661.5,400.7L661.5,400.7z"/>
		</g>
	</g>
	<g>
		<g>
			<path class="st3" d="M364.7,380.4c-7.7-0.3-16.4,2-17.8,10.8c-0.5,3.3,0.4,6.6,2.8,8.9c0.5,0.5,3.1,2.6,3.8,2.4
				c0.2-1,0.4-2,0.6-3c-0.4,0.2-0.8,0.4-1.2,0.6c-1.2,0.1-3,1.2-4.2,1.7c-6.9,3.2-13.9,10.3-6.2,17.1c3.1,2.7,7.6,4.4,11.5,5.7
				c1.6,0.5,4.7,1.9,6.5,1.6c0.4,0.1,0.8,0.2,1.2,0.3c0-0.9,0-1.8,0-2.7c-0.1-0.1-4.5,1.3-4.7,1.4c-7.2,1.6-19.5,0.2-20.7,10.3
				c-1.1,9.7,11.5,9.2,17.2,12.6c4.1,2.4,5.6,5.9,2.2,9.9c-2.8,3.3-8.8,4.4-12,0.9c-0.7-0.8-1.6,0,1.6-0.5c1.2-0.2,2.4-0.1,3.6-0.2
				c2.4,0,4.8,0.1,7.2,0c4-0.2,8-0.9,11.5-2.9c7.5-4.2,10.9-15.6,2.2-20.5c-4.6-2.6-10.5-2.5-15.6-3.1c-6.3-0.8-12.5-2.5-18.4-4.9
				c1,2.4,2,4.9,3,7.3c1.2-1.9,4.5-2.9,6.4-3.8c2.9-1.3,5.8-2.3,8.8-3.4c4.9-1.8,11.2-3.3,15.3-6.6c8.4-6.7-0.8-19.2-6.1-24.9
				c-4.4-4.7-11.4,2.3-7.1,7.1c1.4,1.5,7.8,8.8,6.6,11.1c0.8-1.7-4.3,1.1-4.8,1.3c-2.2,0.9-4.5,1.7-6.7,2.5c-7,2.5-17,5-21.1,11.8
				c-1.8,3,0.1,6.2,3,7.3c4.6,1.9,9.3,3.4,14.2,4.3c2.3,0.4,4.6,0.7,6.8,1c2.4,0.3,8-0.2,9.8,1.4c3.5,3.1-5.9,5-7.9,5.1
				c-5.2,0.3-10.4-0.5-15.5,0.9c-8.1,2.2-9.6,11-3.9,16.8c5.7,5.8,15.6,6.5,22.4,2.2c6.4-4.1,10.7-12.5,7.9-20
				c-1.4-3.7-4.4-6.4-7.7-8.4c-2.9-1.8-9-5.2-12.6-4.7c-0.4-0.1-0.8-0.2-1.1-0.3c0.2,0.7,0.4,1.4,0.6,2.1c-0.2-0.1,2.9-0.5,3.3-0.6
				c2.2-0.3,4.5-0.5,6.7-0.8c4.2-0.7,9.5-1.5,12.7-4.6c2.5-2.5,3.1-6.2,1.5-9.4c-2-4-6.3-4.6-10.2-5.6c-2.8-0.7-5.5-1.6-8-2.9
				c-0.5-0.3-2.7-2.2-2.5-0.8c0.2,0.9,1.8-0.7,2.7-1.1c3.8-1.9,8.7-2.7,10.6-7c1.6-3.7-0.2-7.5-3.4-9.6c-1.4-0.9-3.2-0.8-2.3-2.7
				c0.9-2,6-1.4,7.6-1.3C371.2,390.7,371.1,380.7,364.7,380.4L364.7,380.4z"/>
		</g>
	</g>
</g>
<g id="Layer_9">
	<path class="st4" d="M554.4,329.5c0.4-3.4-0.8-7.3-1.2-10.5c-1.1-8.4-4.4-16.8-2.3-25.4c0.8-3.1-4-4.5-4.8-1.3
		c-1.5,5.8-0.9,11.4,0.2,17.2c0.7,3.7,1.6,7.4,2,11.2c0.3,2.1,2.1,8.7,0.4,9.9c-0.4,0.3-0.6,0.6-0.8,0.9c-0.9,0.5-1.9,0.8-2.9,0.8
		c-3.2,0-3.2,5,0,5c3.8,0,7.3-2.2,9.4-5.3C555,331.1,554.9,330.2,554.4,329.5z"/>
	<path class="st4" d="M589.2,299.7c0.8-7.3-3.5-11.1-9.6-14.1c-2.9-1.4-5.4,2.9-2.5,4.3c4.8,2.3,8.2,4.7,6.9,10.8
		c-0.8,3.6-3,6.6-3.5,10.3c-0.8,5.6,0.7,12.8,3.9,17.5c1.8,2.6,6.1,0.1,4.3-2.5c-2.7-4-4.2-10.5-3.1-15.3
		C586.4,306.8,588.8,303.8,589.2,299.7z"/>
	<path class="st4" d="M640.2,260.8c-0.1-0.7-0.2-1.4-0.4-2.1c0.5-0.1,1-0.3,1.4-0.5c1.1-0.7,2-1.7,2.3-3c0.3-1.2,0.3-2.8-0.5-3.9
		c-1-1.3-1.9-2.3-3.3-3.3c-1-0.7-2.2-1.2-3.4-1.4c-2.5-0.6-5.5,0.8-6.2,3.5c0,0.2,0,0.3-0.1,0.5c-3.8-0.8-7.9-0.6-11.7-0.5
		c-5.7,0.2-11.4,0.8-17.1,1.6c-11.9,1.7-23.7,4.3-35.7,5.6c-9.5,1-22.7,2.8-30.4-4.3c-4.7-4.3-11.8,2.7-7.1,7.1
		c5.3,4.8,11.8,6.9,18.6,7.7c-0.6,1.4-1,2.9-1.3,4.5c-0.2,1.5-0.3,3-0.2,4.5c0.1,1.7,1.1,4.2-0.1,5.6c-2,2.5,1.5,6,3.5,3.5
		c2.1-2.5,2.1-4.8,1.7-8c-0.5-3.6,0.2-6.8,1.7-9.8c0.2,0,0.4,0,0.6,0c10.2,0,20.3-1.6,30.3-3.3c-0.4,1-0.6,2.1-0.6,3.3
		c0,1.7,0.4,3.4,0.6,5c0.4,2.6,0,4.8-0.3,7.4c-0.4,3.2,4.6,3.2,5,0c0.4-2.9,0.6-5.2,0.2-8.1c-0.5-3.7-0.5-6,1.4-8.8
		c7.4-1.3,14.7-2.5,22.2-3.2c-0.3,0.7-0.5,1.6-0.6,2.5c-0.4,4.5,0.8,8.8-0.2,13.3c-0.2,0.9,0.1,1.6,0.5,2.2
		c-2.5,0.2-3.4,4.2-0.5,4.9c6.7,1.5,3,11.5,3.2,16.1c0.1,4.3,2.1,7.9,4,11.6c1.4,2.9,5.8,0.3,4.3-2.5c-1.8-3.6-3.4-6.7-3.3-10.9
		c0.1-3.1,1-6.1,0.8-9.2c-0.2-4-2.1-7.5-5.6-9.2c0.6-0.2,1.2-0.8,1.4-1.6c0.7-2.9,0.7-5.7,0.5-8.7c-0.2-3.7-0.2-6,1.8-8.8
		c1.4-0.1,2.8-0.1,4.2-0.1c1.9,0,5.1-0.5,6.8,0.5c2,1.2,1.3,2.9,1.3,5.1c0,5.3,1.4,10.3,4.1,14.8c3.3,5.5,11.9,0.5,8.6-5
		C640,270.4,640.8,266.2,640.2,260.8z"/>
	<path class="st4" d="M517.8,307.9c0-2.3-0.1-4.5-0.5-6.8c-0.5-2.9-1.6-4.8-1.2-7.8c0.4-3.2-4.6-3.2-5,0c-0.3,2.7,0.1,4.5,0.8,7
		c1,3.5,1,7.4,0.8,11c-0.2,4.9-4.6,11.2-1.2,15.7c1.9,2.5,6.3,0,4.3-2.5c-1.6-2.1,1-6.1,1.4-8.3
		C517.8,313.4,517.8,310.6,517.8,307.9z"/>
	<path class="st4" d="M491.4,293.7c2.3-1.9-0.7-5.1-3.1-3.9c-1.5-8.2-2.4-16.5-0.6-24.7c0.7-3.1-4.2-4.5-4.8-1.3
		c-1.9,9.3-1,18.5,0.7,27.7c0.1,0.8,0.6,1.3,1.1,1.6c-1.4,1.5-2.2,3.3-1.6,5.8c0.2,1,0.8,1.8,1.1,2.7c0.6,1.8,0.2,3.2,0.1,5.1
		c-0.2,2,0,3.6,1.1,5.3c1.7,2.7,6,0.2,4.3-2.5c-1.1-1.8,0-3.8,0-5.7c0-1.3-0.2-2.3-0.6-3.4c-0.5-1.5-1.7-2.4-0.8-4
		C488.8,295.4,490.5,294.4,491.4,293.7z"/>
	<path class="st4" d="M513.1,268.8c-0.8,1.1-0.8,2.1-1,3.4c-0.2,2-0.7,3.9-1,5.8c-0.7,3.7-0.6,7.3-0.1,10.9c0.4,3.2,5.2,1.8,4.8-1.3
		c-0.4-3.2-0.3-6.4,0.4-9.6c0.2-1.2,0.6-2.3,0.8-3.5c0.1-0.9-0.1-2.4,0.4-3.2C519.2,268.7,514.9,266.2,513.1,268.8z"/>
</g>
<g id="Layer_2">
	<path class="st5" d="M496.3,69c-2.9,0.8-5.9,1.7-8.9,2.1c-2.1-0.8-4.2-1.3-6.4-1.8c-5.9-1.3-11.5-2.2-17.4-0.7
		c-2,0.5-2.9,2.3-2.8,4.1c-3,1.5-3.7,6.6,0.4,7.4c10,1.8,19.8,4.1,29.6,6.4c3.1,0.7,5.8,1.2,7.7-2c2-3.3,2.3-7.9,2.8-11.6
		C501.7,70.2,498.5,68.4,496.3,69z"/>
	<path class="st5" d="M129.3,563c-1-1.9-2.4-3.2-4.2-4.2c-2.3-1.2-5.4-0.8-7.3,0.9c-23-1.6-52.5-5.7-61.1-30.3
		c-2.6-7.2-14.1-4.1-11.6,3.2c11.4,32.4,47.7,37.5,77.4,39.4c0.3,0,0.5,0,0.8,0C127.5,572.3,132,567.8,129.3,563z"/>
	<path class="st5" d="M243.9,558.3c-16.9-1.4-45.9-5.3-45.6-28.1c0.1-7.7-11.9-7.7-12,0c-0.1,12.5,7.3,23.2,17.5,29.9
		c11.8,7.7,26.5,9,40.2,10.2C251.6,571,251.5,559,243.9,558.3z"/>
	<path class="st5" d="M541.9,575.6c-1.5,2.3-4.3,3.6-6.5,5.2c-2.5,1.9-4.5,3.9-5.9,6.7c-3.1,6.3-7.5,10.7-12.9,15.2
		c-3,2.5-5,4.4-9,3.8c-3.6-0.5-7.2-1.6-10.7-2.6c-7.8-2.2-15.3-5-22.6-8.5c-6.9-3.3-13,7-6.1,10.4c8.8,4.2,17.8,7.7,27.2,10.2
		c8.4,2.2,16.9,4.7,24.5-0.8c6.5-4.7,13.9-10.8,18.1-17.8c2.1-3.6,2.7-5.8,6.2-8.3c3.2-2.2,5.9-4.3,8-7.5
		C556.4,575.2,546.1,569.1,541.9,575.6z"/>
	<path class="st5" d="M622,536c-3.8,2.7-7.7,5.5-11.8,7.7c-3.9,2-8.1,3-12,4.9c-4.1,2-7.3,3.6-12.1,3.5c-4.6-0.1-9.1-1.2-13.5-2.3
		c-7.5-1.8-10.7,9.7-3.2,11.6c9.9,2.4,20.6,4.5,30.2,0c4.7-2.2,9.6-4,14.3-6.2c5.1-2.4,9.6-5.6,14.2-8.8
		C634.3,541.9,628.3,531.5,622,536z"/>
</g>
<g id="Layer_4">
	<g>
		<g>
			<g>
				<g>
					<path d="M273.2,490.2c-0.4,2.9-1.2,5.5-2.1,8c-0.9,2.5-2.1,4.8-3.3,7.1c-2.5,4.5-5.5,8.5-8.9,12.2c-3.4,3.7-7.2,7-11.4,9.8
						c-2.1,1.4-4.4,2.7-6.8,3.8c-2.4,1.1-5,2.1-7.9,2.7c0.6-2.9,1.5-5.4,2.6-7.9c1.1-2.4,2.3-4.7,3.6-6.8c2.6-4.3,5.6-8.2,9-11.8
						c3.4-3.6,7-6.9,11.1-9.8c2.1-1.5,4.2-2.8,6.5-4.1C267.9,492.2,270.4,491,273.2,490.2z"/>
				</g>
			</g>
		</g>
	</g>
	<g>
		<g>
			<g>
				<g>
					<path d="M569.3,468.5c1.5,2.8,2.6,5.3,3.8,7.7c1.1,2.4,2.2,4.8,3.3,7.1c2.1,4.7,4,9.3,5.8,14.1c1.8,4.8,3.3,9.9,4.4,15.2
						c0.5,2.7,0.9,5.4,1.1,8.3c0.1,2.9,0.2,5.8-0.3,8.9c-2.6-1.8-4.6-3.9-6.5-6c-1.9-2.1-3.6-4.3-5.1-6.6c-3.1-4.5-5.7-9.4-7.5-14.7
						c-1.9-5.3-3.1-11-3.1-16.8c0-1.5,0.1-3,0.2-4.4c0.2-1.5,0.4-2.9,0.7-4.4C566.6,474,567.7,471.1,569.3,468.5z"/>
				</g>
			</g>
		</g>
	</g>
	<g>
		<g>
			<g>
				<g>
					<path d="M585.4,528.2c0.5,0.9,0.8,1.9,1.1,2.8c0.2,0.9,0.4,1.8,0.5,2.7c0.1,0.9,0.1,1.7,0.1,2.6c0,0.8-0.1,1.7-0.3,2.5
						c-0.6,3.2-2,6.1-4,8.6c-2,2.5-4.5,4.5-7.6,5.7c-0.8,0.3-1.6,0.6-2.4,0.8c-0.8,0.2-1.7,0.4-2.5,0.4c-0.9,0.1-1.8,0.1-2.7,0
						c-0.9-0.1-1.9-0.2-2.9-0.5c0.1-1.1,0.3-2,0.5-2.9c0.2-0.9,0.4-1.7,0.6-2.5c0.2-0.8,0.4-1.5,0.7-2.2c0.2-0.7,0.5-1.3,0.8-2
						c1.1-2.5,2.3-4.5,3.9-6.4c1.5-1.8,3.3-3.5,5.5-5.1c0.5-0.4,1.1-0.8,1.8-1.2c0.6-0.4,1.3-0.8,2-1.1c0.7-0.4,1.4-0.8,2.3-1.1
						C583.5,528.9,584.4,528.5,585.4,528.2z"/>
				</g>
			</g>
		</g>
	</g>
	<g>
		<g>
			<g>
				<g>
					<path d="M582.1,528.7c2.5-1,4.8-1.5,7.1-1.8c2.3-0.3,4.5-0.4,6.7-0.4c4.4,0.1,8.6,0.7,12.6,1.6c4,0.9,7.8,2.3,11.6,3.9
						c1.9,0.9,3.8,1.8,5.8,2.9c2,1.1,4,2.3,6.1,3.9c-2.1,1.7-4.4,2.7-6.7,3.5c-2.3,0.8-4.6,1.2-6.9,1.5c-4.6,0.4-9.2,0-13.4-1.1
						c-4.3-1.1-8.3-2.7-12.1-4.9c-1.9-1.1-3.8-2.4-5.6-3.8C585.5,532.4,583.7,530.8,582.1,528.7z"/>
				</g>
			</g>
		</g>
	</g>
	<g>
		<g>
			<g>
				<g>
					<path d="M587.2,532c1.9,0.7,3.3,1.6,4.6,2.5c1.3,0.9,2.3,1.9,3.3,3c0.9,1,1.7,2.1,2.3,3.3c0.3,0.6,0.6,1.1,0.9,1.7
						c0.3,0.6,0.5,1.3,0.7,1.9c0.8,2.7,1.1,5.9,0.3,9.3c-0.5,1.7-1.2,3.4-2.4,4.8c-1.2,1.4-2.8,2.6-4.9,3c-0.9-1.9-1.6-3.2-2.4-4.3
						c-0.7-1-1.4-1.9-2.1-2.8c-1.2-1.7-2.2-3.5-2.8-5.7c-0.2-0.6-0.3-1.1-0.4-1.7c-0.1-0.6-0.2-1.3-0.3-1.9c-0.1-1.3-0.1-2.6,0-4
						c0.2-1.4,0.4-2.8,0.9-4.3C585.4,535.2,586,533.7,587.2,532z"/>
				</g>
			</g>
		</g>
	</g>
	<g>
		<g>
			<g>
				<g>
					<path d="M234.1,529.8c2.3-0.3,4.5,0.8,6.1,2.1c1.7,1.3,2.9,2.7,4,3.9c2.2,2.6,3.8,5.3,5,8.3c1.2,2.9,1.9,6.1,2,9.5
						c0,1.7,0,3.4-0.3,5.2c-0.3,1.8-0.8,3.7-1.7,5.8c-2.1-0.9-3.7-2-5.2-3.1c-1.5-1.1-2.7-2.4-3.8-3.6c-2.2-2.6-3.8-5.3-4.9-8.3
						c-1.1-3-1.8-6.1-1.9-9.5c-0.1-1.7,0.1-3.3,0.4-4.9C234,533.6,234.4,532.1,234.1,529.8z"/>
				</g>
			</g>
		</g>
	</g>
	<g>
		<g>
			<g>
				<g>
					<path d="M238.7,532.5c-0.5-0.2-1.1-0.2-1.6-0.1c-0.6,0.1-1,0.3-1.6,0.4c-1.1,0.3-2.3,0.6-3.5,0.8c-2.3,0.4-4.5,0.6-6.7,0.7
						c-4.4,0.1-8.6-0.2-12.6-0.8c-4.1-0.6-8-1.6-11.9-2.8c-2-0.7-4-1.4-6.1-2.3c-1-0.5-2.1-0.9-3.2-1.4c-1.1-0.5-2.2-1.1-3.4-1.8
						c1-0.9,2-1.7,3.1-2.4c1.1-0.7,2.2-1.3,3.3-1.8c2.2-1,4.5-1.7,6.9-2.2c4.6-0.9,9.3-0.9,13.8-0.1c4.5,0.7,8.8,2.1,12.8,4.2
						c2,1,4,2.2,5.9,3.6c1,0.7,1.8,1.4,2.8,2.3C237.6,529.7,238.7,530.9,238.7,532.5z"/>
				</g>
			</g>
		</g>
	</g>
	<g>
		<g>
			<g>
				<g>
					<path d="M236.1,532.6c0,2.3-0.5,4.2-1.1,6c-0.6,1.8-1.4,3.4-2.3,4.9c-1.9,3-4.2,5.4-6.9,7.4c-2.7,2-5.8,3.4-9.2,4.2
						c-1.7,0.4-3.5,0.6-5.4,0.6c-1.9,0-3.9-0.2-6-1c0.7-2.2,1.5-3.9,2.4-5.5c0.9-1.6,1.8-3,2.8-4.2c2-2.5,4.2-4.6,6.7-6.3
						c2.5-1.7,5.1-3.1,8.2-4.2c1.5-0.5,3.2-1,4.9-1.3C231.9,532.8,233.8,532.5,236.1,532.6z"/>
				</g>
			</g>
		</g>
	</g>
</g>
<g id="Layer_1">
	<g>
		<g>
			<g>
				<g>
					<path d="M505.9,68c-1.8,1.5-3.5,2.4-5.2,3.3c-1.7,0.8-3.4,1.4-5.1,1.8c-3.4,0.8-6.7,1.1-9.9,0.9c-3.3-0.2-6.5-1-9.7-2.3
						c-1.6-0.7-3.2-1.5-4.7-2.6c-1.6-1.1-3.1-2.3-4.6-4.1c1.8-1.5,3.5-2.5,5.2-3.3c1.7-0.8,3.4-1.4,5.1-1.8c3.4-0.8,6.7-1.1,10-0.8
						c3.3,0.3,6.5,1,9.7,2.4c1.6,0.7,3.2,1.5,4.7,2.6C502.9,65.1,504.4,66.3,505.9,68z"/>
				</g>
			</g>
		</g>
	</g>
	<g>
		<g>
			<g>
				<g>
					<path d="M359,57.9c-7.2-3.2-15-4.6-22.8-4.8c-7.8-0.2-15.5,0.8-23.2,2.1c-1.9,0.3-3.8,0.7-5.8,1l-5.8,1
						c-1.9,0.3-3.8,0.7-5.7,1.1c-1.9,0.4-3.8,0.8-5.7,1.2c-7.6,1.7-15.1,3.8-22.5,6.2c-14.8,4.8-29.2,10.8-43,18
						c-6.9,3.5-13.7,7.3-20.4,11.3l-10,6.2l-2.5,1.5l-1.2,0.8l-0.6,0.4l-0.2,0.1c-0.1,0-0.1,0.1-0.2,0.1l-4.7,3.5
						c-9,6.7-17.7,13.6-26.1,20.9c-4.2,3.7-8.2,7.4-12.1,11.3c-2,1.9-3.9,3.9-5.8,5.9l-2.8,3l-2.6,2.9c-0.2,0.2-0.3,0.4-0.4,0.6
						l-0.1,0.4c-0.1,0.3-0.3,0.8-0.5,1.3c-0.2,0.5-0.6,1.2-1.2,1.9l-0.8,0.9l-1.2,1.4c-1.6,1.8-3.2,3.7-4.8,5.5
						c-3.1,3.8-6.1,7.7-8.7,11.7c-5.5,8-9.9,16.7-13.4,25.7c-3.4,9-5.8,18.3-6.8,28c-0.3,2.4-0.5,4.8-0.7,7.2
						c-0.1,1.2-0.1,2.4-0.2,3.6c0,1.2-0.1,2.4-0.1,3.6c0,2.4,0,4.8,0.1,7.2l0.2,3.6l0.3,3.6c1.9,21.3,7.9,42.7,10.9,65.3l0,0.8
						c0,0,0,0.1,0.2,0.6c0.2,0.5,0.7,1.4,1.4,2.6c0.3,0.6,0.6,1.3,0.9,2.1c0.4,0.9,0.6,2.2,0.7,2.5l0.7,3l0.7,3l0.9,2.9
						c0.6,2,1.2,3.9,2,5.8c2.8,7.7,6.4,15.2,10.8,22.2c8.8,14.1,20.1,26.6,32.7,38l4.8,4.2l4.9,4.1l10,8.2
						c6.6,5.4,13.4,10.6,20.4,15.5c6.9,5,14.1,9.6,21.3,14.1c3.6,2.2,7.3,4.4,11,6.4l2.7,1.5l0.7,0.4l0.4,0.2
						c0.3,0.1,0.5,0.3,0.8,0.4c1,0.7,1.6,1.2,2.2,1.7l1.3,1.2c0.4,0.3,0.6,0.6,0.9,0.7c0.2,0.2,0.4,0.3,0.5,0.4c0,0,0.1,0.1,0.1,0
						l0,0c0,0,0,0,0,0l0,0.1c-0.1,0.1-0.1,0.3-0.2,0.4l1-0.2c15.2,7.1,30.3,13.9,45.8,19.2c1.9,0.7,3.9,1.3,5.8,1.9
						c1,0.3,1.9,0.6,2.9,0.9l1.4,0.4l1.4,0.4c3.9,1,8,2,12.1,3c4.1,1,8.3,2.1,12.6,3.3c2.1,0.6,4.2,1.3,6.4,2.1
						c1.4,0.5,1.6,0.6,2,0.7c0.4,0.1,0.9,0.1,1.6,0.1c0.7,0,1.7-0.1,2.9-0.1c1.2-0.1,2.7-0.1,4.3,0c0.8,0.1,1.6,0.1,2.5,0.3l1.8,0.3
						l3.3,0.6c4.4,0.8,8.7,1.7,13.1,2.2c4.4,0.6,8.8,1.3,13.2,1.6l6.6,0.6l1.7,0.1l1.7,0.1l3.3,0.1c17.7,0.9,35.4,0,53-2.3
						c17.6-2.4,35-6.2,52-11.3c2.1-0.6,4.3-1.3,6.4-2l6.4-2.1c2.1-0.7,4.2-1.5,6.3-2.2l6.3-2.3c4.2-1.6,8.3-3.3,12.5-4.9
						c2.1-0.8,4.1-1.8,6.2-2.6l5.7-2.5c0,0,0,0,0,0c0,0,0,0,0,0l0.6-0.4l0.5-0.3l0.8-0.5l0.6-0.4l0.2-0.2l0.1-0.1l0,0l0,0
						c0,0,0.1,0-0.1,0.1l1.1-0.8l1.1-0.8l4.8-2.1c1.4-0.6,2.9-1.2,4.3-1.9c2.8-1.3,5.7-2.6,8.5-4c2.8-1.4,5.6-2.7,8.4-4.2l4.2-2.1
						l4.1-2.2c11-5.9,21.8-12.3,32.4-19c10.6-6.8,21-13.9,31.2-21.2c2.6-1.8,5.1-3.7,7.7-5.5l7.5-5.5c0.6-0.5,1.2-0.9,1.8-1.4
						l1.7-1.4l3.5-3.1c2.3-2.1,4.6-4.1,6.9-6.3c5.6-5.2,10.9-10.7,16.1-16.5l3.8-4.3c1.2-1.4,2.3-2.9,3.5-4.4
						c2.3-3.1,4.6-6.1,6.7-9.2c4.1-6.2,7.6-12.7,9.4-19.5c0.4-1.7,0.8-3.4,1-5.1l0.3-2.7l0.3-2.9c0.4-3.8,0.5-7.5,0.5-11.3
						c0-15.1-2.6-30.4-5.9-45.5c-0.9-3.8-1.7-7.6-2.6-11.4l-1.4-5.7l-0.7-2.8l-0.8-2.7c-2.1-7.4-4.6-14.7-7.6-21.8
						c-3-7.1-6.5-13.9-10.5-20.4l-0.7-1.2c-0.1-0.1-0.1-0.2-0.3-0.4l-0.2-0.2l-0.1-0.1l-0.1-0.2c-0.8-0.9-1.4-1.9-2-2.8
						c-1.1-1.9-1.9-3.6-2.9-4.9c-0.2-0.3-0.5-0.7-0.7-0.9c-0.3-0.3-0.4-0.5-0.9-1c-0.8-0.9-1.5-1.8-2.1-2.7
						c-0.6-0.9-1.1-1.8-1.6-2.6l-0.8-1.2l-0.3-0.5c-0.1-0.1-0.2-0.3-0.4-0.5l-3.6-4.5l-1.8-2.3l-1.9-2.2l-3.8-4.4l-4-4.3l-2-2.1
						l-2.1-2.1l-4.1-4.1l-4.3-4c-1.4-1.3-2.8-2.7-4.3-3.9l-4.4-3.8l-4.5-3.7c-3-2.5-6.1-4.8-9.2-7.2c-6.3-4.6-12.6-9.2-19.2-13.4
						l-2.4-1.6l-2.5-1.6l-5-3.1c-3.4-2-6.7-4.1-10.1-6c-6.7-4-13.6-7.8-20.5-11.6c7.1,3.4,14.1,6.9,21,10.5
						c3.5,1.8,6.9,3.7,10.4,5.6l5.1,2.9l2.6,1.5l2.5,1.5c6.8,4,13.4,8.3,19.9,12.7c3.2,2.3,6.5,4.5,9.6,6.9l4.7,3.6l4.6,3.7
						c1.6,1.2,3,2.5,4.5,3.8l4.5,3.9l4.3,4l2.2,2l2.1,2.1l4.2,4.2l4,4.4l2,2.2l1.9,2.3l3.9,4.5c0.2,0.2,0.3,0.4,0.6,0.7l0.5,0.7
						l0.8,1.3c0.5,0.8,1.1,1.6,1.6,2.3c0.5,0.7,1,1.3,1.6,1.9c0.2,0.2,0.7,0.7,1.1,1.2c0.4,0.4,0.8,0.9,1.1,1.4
						c1.4,1.9,2.3,3.7,3.2,5.1c0.5,0.7,1,1.4,1.5,1.9l0.1,0.1l0.2,0.2l0.3,0.3c0.2,0.2,0.4,0.5,0.6,0.8l0.9,1.3
						c4.5,6.7,8.4,13.7,11.7,21c3.3,7.3,6.1,14.8,8.5,22.4c0.3,1,0.6,1.9,0.9,2.9l0.8,2.9l1.6,5.7c1,3.8,2,7.6,3,11.5
						c3.8,15.3,6.9,31.2,7.3,47.4c0.1,4,0,8.2-0.3,12.2l-0.2,3l-0.3,3.1c-0.2,2.1-0.6,4.3-1.1,6.4c-2,8.5-6,16.1-10.3,23
						c-2.2,3.5-4.5,6.8-6.9,10c-1.2,1.6-2.4,3.3-3.7,4.9c-1.3,1.6-2.6,3.1-3.9,4.6c-5.2,6-10.7,11.9-16.5,17.5
						c-2.3,2.3-4.7,4.5-7.1,6.6l-3.6,3.2l-1.9,1.7c-0.6,0.6-1.3,1.1-1.9,1.6l-7.7,5.9c-2.6,1.9-5.1,3.8-7.7,5.7
						c-10.3,7.6-20.8,15-31.5,22c-10.7,7.1-21.7,13.7-33,20l-4.2,2.3l-4.3,2.2c-2.8,1.5-5.7,3-8.6,4.4c-2.9,1.5-5.8,2.8-8.7,4.2
						c-1.5,0.7-2.9,1.3-4.4,2l-3.9,1.8c0,0,0,0,0,0c0,0,0,0,0,0l-0.6,0.5l-0.5,0.3l-0.8,0.5l-0.6,0.4l-0.2,0.2l-0.1,0.1l0,0l0,0l0,0
						c0,0,0,0,0.1-0.1l-1.1,0.7l-1.1,0.7l-6.8,3c-2.1,0.9-4.2,1.9-6.3,2.8c-4.3,1.7-8.5,3.5-12.8,5.2l-6.5,2.4
						c-2.2,0.8-4.3,1.6-6.5,2.3l-6.6,2.2c-2.2,0.7-4.4,1.5-6.6,2.1c-17.7,5.4-35.8,9.6-54.2,12.1c-18.4,2.6-37.1,3.5-55.7,2.6
						l-3.5-0.1l-1.7-0.1l-1.7-0.2l-7-0.6c-4.6-0.3-9.3-1-13.9-1.6c-4.6-0.5-9.2-1.5-13.8-2.3l-3.4-0.6l-0.9-0.2l-0.4-0.1
						c-0.2,0-0.2,0-0.2,0c-0.2,0-0.5-0.1-0.9-0.1c-0.6,0-1.4,0-2.5,0c-1,0.1-2.3,0.2-3.9,0.2c-1.4,0-3-0.1-4.7-0.5
						c-1.6-0.3-3.4-1-4-1.2c-0.8-0.3-1.8-0.6-2.7-0.9c-0.9-0.3-1.9-0.6-2.9-0.9c-3.8-1.2-7.8-2.2-11.8-3.2c-4.1-1-8.2-2-12.4-3.1
						l-1.6-0.4l-1.6-0.5c-1-0.3-2.1-0.6-3.2-1c-2.1-0.7-4.1-1.3-6.2-2c-16.4-5.6-32-12.7-47.3-20l0.8,0.3c-2.1-0.7-3.8-1.8-5-2.8
						c-0.6-0.5-1.2-1-1.6-1.4l-1.1-1l-0.3-0.3c0,0-0.1,0-0.1-0.1c0,0,0,0,0,0l0,0l0.1-0.2c0.2-0.3,0.4-0.6,0.6-0.9
						c0.2-0.3,0.3-0.5,0.4-0.7c0.1-0.2,0.2-0.4,0.3-0.6l0.1-0.2c-0.6,1.2,1.5-2.9-1.4,2.6l-0.1-0.1l-0.2-0.1l-0.7-0.4l-3-1.7
						c-3.9-2.2-7.7-4.4-11.5-6.8c-7.6-4.7-14.9-9.6-22.1-14.8c-7.2-5.2-14.2-10.6-21-16.3l-10.1-8.4l-5-4.4l-4.9-4.5
						c-13-12.1-25.2-25.7-34.7-41.3c-4.7-7.8-8.7-16.1-11.7-24.8c-0.8-2.1-1.4-4.4-2.1-6.6l-1-3.3l-0.8-3.4l-0.8-3.4
						c-0.2-0.8-0.1-0.5-0.2-0.7c-0.1-0.2-0.2-0.5-0.4-0.9c-0.3-0.7-0.9-1.7-1.6-3.2c-0.3-0.7-0.6-1.6-0.9-2.6
						c-0.2-1-0.4-2.1-0.4-3.1l0,0.8c-1.3-10.7-3.3-21.5-5.2-32.4c-1-5.5-1.9-11-2.8-16.6c-0.8-5.6-1.5-11.2-1.9-16.9L85,255
						l-0.1-3.9c-0.1-2.6,0-5.2,0-7.9c0-1.3,0.1-2.6,0.2-3.9c0.1-1.3,0.1-2.6,0.3-3.9c0.3-2.6,0.5-5.2,0.9-7.8
						c1.3-10.4,4.1-20.7,8-30.4c4-9.7,9.1-18.9,15.1-27.4c3-4.3,6.2-8.3,9.6-12.2c1.7-1.9,3.4-3.9,5.2-5.8l1.3-1.4l0.3-0.4l0.2-0.2
						l0,0c-0.4-0.4,3.4,3.3,1.8,1.7l0,0l-0.1-0.1c-0.1-0.1-0.2-0.2-0.3-0.3l-0.5-0.3c-0.1-0.1-0.2-0.1-0.3-0.2l-0.2-0.1l-0.2-0.1
						l-0.4-0.2c0,0,0,0,0,0c0,0,0.1-0.2,0.2-0.5l0.2-0.6c0.1-0.2,0.2-0.5,0.3-0.7c0.4-0.9,0.9-1.8,1.6-2.5l3.1-3.3l3-3.1
						c2-2,4.1-4,6.1-6c4.2-3.9,8.4-7.7,12.8-11.3c8.8-7.3,17.9-14,27.1-20.5l4.9-3.4c0.1-0.1,0.3-0.2,0.4-0.3l0.4-0.2l0.6-0.4
						l1.3-0.7l2.5-1.5l10.2-5.9c7-3.9,14-7.5,21.1-10.8c14.3-6.8,29.2-12.4,44.3-16.7c7.6-2.2,15.3-3.9,23.1-5.4
						c1.9-0.4,3.9-0.7,5.8-1c1.9-0.3,3.9-0.6,5.8-0.9l5.8-0.8c1.9-0.3,3.9-0.5,5.8-0.8c7.8-1,15.7-1.6,23.6-1
						C344.2,52.5,352,54.3,359,57.9z"/>
				</g>
			</g>
		</g>
	</g>
	<g>
		<g>
			<g>
				<g>
					<path d="M419.1,16c-11.9,4.9-23,11.1-33,18.5c-2.4,1.8-4.4,3.7-5.6,5.7c-0.6,1-1,2-1.2,3.1c-0.2,1.1-0.3,2.3-0.2,3.4
						c0.2,2.4,1,4.8,2.2,6.9c1.2,2,2.9,4,4.9,5.7c2,1.7,4.4,3.2,7,4.7c2.6,1.5,5.3,2.8,8,4c5.4,2.4,11,4.1,16.6,5
						c5.6,0.9,11.3,1,16.6,0.1c2.7-0.5,5.3-1.1,7.9-2.1c2.6-1,5-2.1,7.4-3.5c2.4-1.4,4.6-3,6.6-4.8c2.1-1.8,4-3.7,5.6-5.9
						c0.4-0.5,0.8-1.1,1.2-1.6c0.4-0.6,0.8-1.1,1.2-1.7l1.1-1.7c0.3-0.6,0.7-1.2,1-1.7c1.2-2.3,2.1-4.7,2.6-7
						c0.5-2.3,0.5-4.5,0.1-6.5c-0.5-2-1.5-4.1-2.9-6.2c-0.7-1-1.6-2.1-2.5-3.1c-0.5-0.5-1-1-1.5-1.5l-1.5-1.5c-0.5-0.5-1-1-1.5-1.5
						l-1.7-1.4c-1.1-0.9-2.2-1.9-3.4-2.6l-1.8-1.2c-0.6-0.4-1.2-0.9-1.8-1.2l-3.8-2.1l-4-1.8c-0.7-0.3-1.4-0.6-2.1-0.8l-2.1-0.7
						c-5.6-1.8-11.5-2.9-17.5-3.1c-12.1-0.4-24.4,3-35.4,9.7c8.9-9.3,21.5-15.6,35-17.1c6.7-0.8,13.7-0.5,20.4,0.9l2.5,0.6
						c0.8,0.2,1.7,0.4,2.5,0.7c1.6,0.5,3.3,1.1,4.9,1.6l4.8,2.1c0.8,0.3,1.6,0.8,2.3,1.2l2.3,1.3c1.6,0.8,3,1.9,4.4,2.8l2.2,1.5
						c0.7,0.5,1.4,1.1,2,1.7l2,1.7c0.7,0.6,1.3,1.1,2,1.8c1.3,1.3,2.6,2.6,3.8,4.1c2.4,3,4.6,6.6,5.8,10.7c1.2,4.2,1.3,8.6,0.6,12.5
						c-0.6,4-1.9,7.7-3.5,11.1c-0.4,0.8-0.8,1.7-1.3,2.5l-1.4,2.4c-0.5,0.8-1,1.5-1.5,2.3c-0.5,0.8-1,1.5-1.6,2.2
						c-2.2,2.9-4.8,5.6-7.5,8c-2.8,2.4-5.7,4.6-8.9,6.4c-3.2,1.8-6.5,3.4-9.9,4.6c-3.5,1.2-7,2.1-10.7,2.6
						c-7.3,1.1-14.5,0.6-21.5-0.8c-6.9-1.5-13.5-3.9-19.7-7.1c-3.1-1.6-6-3.3-8.9-5.2c-2.8-1.9-5.8-4.1-8.4-6.7
						c-2.7-2.7-5-5.8-6.6-9.5c-1.6-3.7-2.4-7.6-2.2-11.6c0.1-2,0.4-4.1,1.1-6c0.7-2,1.7-3.9,3-5.5c2.5-3.2,5.7-5.3,8.7-6.9
						C393.8,22.2,406.3,17.8,419.1,16z"/>
				</g>
			</g>
		</g>
	</g>
	<g>
		<g>
			<g>
				<g>
					<path d="M538.8,53.3c-9.5,4.1-18.3,9-26.3,14.8c-1.9,1.4-3.6,2.9-4.4,4.3c-0.4,0.7-0.7,1.4-0.8,2.1c-0.1,0.7-0.2,1.5-0.1,2.3
						c0.2,1.6,0.8,3.4,1.8,4.8c0.9,1.4,2.3,2.8,3.9,3.9c1.6,1.2,3.5,2.3,5.6,3.3c2.1,1.1,4.2,2,6.4,2.9c4.3,1.7,8.7,2.9,13.1,3.5
						c4.4,0.6,8.8,0.7,13,0c4.2-0.6,8.2-2,11.9-4c1.9-1,3.6-2.2,5.2-3.5c1.6-1.3,3.1-2.7,4.5-4.3c0.3-0.4,0.7-0.8,1-1.2
						c0.3-0.4,0.6-0.8,0.9-1.2l0.9-1.3c0.3-0.4,0.5-0.8,0.8-1.3c0.9-1.7,1.6-3.4,2-5c0.3-1.6,0.3-2.9,0-4.2
						c-0.3-1.3-1.1-2.8-2.3-4.3c-0.6-0.8-1.3-1.6-2.1-2.3l-2.4-2.3l-0.6-0.6l-0.7-0.5l-1.3-1c-0.4-0.3-0.9-0.7-1.3-1l-1.4-0.9
						c-7.5-5.1-16.7-7.9-26.2-8.4c-4.8-0.3-9.6,0.2-14.4,1.3c-4.8,1.1-9.5,2.8-14.1,5.2c7.2-7.4,17.3-12.5,28.1-13.9
						c10.8-1.5,22.4,0.2,32.5,5.5l1.9,1c0.6,0.4,1.2,0.7,1.8,1.1l1.8,1.2l0.9,0.6l0.9,0.7c1.1,0.9,2.3,1.8,3.4,2.7
						c1.1,1,2.2,2,3.3,3.1c2.1,2.3,4.2,5.2,5.4,8.8c1.3,3.6,1.4,7.5,0.9,10.9c-0.5,3.4-1.7,6.5-3.1,9.3c-1.4,2.8-3.1,5.3-5.1,7.7
						c-1.9,2.4-4.1,4.5-6.4,6.4c-2.3,1.9-4.9,3.6-7.5,5c-5.3,2.8-11,4.7-17,5.4c-5.9,0.8-11.8,0.4-17.5-0.7c-5.6-1.1-11-3-16-5.5
						c-2.5-1.2-4.9-2.6-7.3-4c-2.3-1.5-4.7-3.1-7-5.2c-2.3-2.1-4.4-4.6-5.8-7.7c-1.5-3.1-2.2-6.4-2.1-9.9c0.1-1.7,0.4-3.5,1.1-5.2
						c0.7-1.7,1.6-3.3,2.8-4.6c2.3-2.6,5-4.1,7.4-5.3C518.3,57.3,528.5,54.3,538.8,53.3z"/>
				</g>
			</g>
		</g>
	</g>
	<g>
		<g>
			<g>
				<g>
					<path d="M427.3,39.2c-0.8,0.7-1.4,1.5-1.7,2.3c-0.2,0.4-0.3,0.9-0.3,1.2c0,0.1,0.1,0.2,0.1,0.1c0,0,0.1-0.1,0.1-0.1
						c0.1,0,0.5-0.1,0.8-0.3c0.3-0.2,0.7-0.4,1-0.6c0.3-0.2,0.6-0.5,0.9-0.8c0.3-0.3,0.6-0.7,0.5-0.8c0,0,0,0,0,0c0,0,0,0,0.1,0
						c0.1,0.1,0.2,0.1,0.3,0.1c0.1,0,0.1,0.1,0.2,0.1l0.1,0l0,0c0,0,0,0,0,0l0,0l-0.7,0l0,0l0,0c0-0.1-0.1-0.2-0.1-0.3
						c-0.2-0.3-0.4-0.6-0.8-0.8c-0.6-0.4-1.4-0.6-2.1-0.4c-0.7,0.2-1.2,0.7-1.3,1.3c0,0.3,0,0.6,0,0.8c0,0.3,0.1,0.5,0.2,0.7
						c0.1,0.1,0.3,0.2,0.5,0.2c0.2,0,0.3-0.2,0.4-0.3c0.2-0.3,0.3-0.7,0.4-1c0.1-0.3,0.1-0.7,0.1-1c0-0.2,0-0.3-0.1-0.4
						c0,0,0-0.1-0.1-0.1c0,0,0-0.1,0,0l0.1,0.2l3.1-1.8l0,0c0.1-0.1-0.1,0.1-0.2,0.5l-1,3l0,0c0,0,0,0,0,0l-0.1,0l-0.1,0
						c-0.1,0-0.2,0-0.2,0.1c-0.2,0-0.3,0.1-0.4,0.2c-0.3,0.1-0.5,0.3-0.7,0.6c-0.4,0.4-0.5,1-0.5,1.4c0,0.2,0,0.5,0.3,0.5
						c0.2,0.1,0.4-0.1,0.5-0.2c0.3-0.3,0.6-0.7,0.4-0.9c-0.1-0.1-0.3-0.1-0.4,0c0,0-0.1,0-0.1,0.1l-0.1,0.1
						c-3.2-5.3-0.9-1.5-1.6-2.7l0,0l0,0l0,0.1l0.1,0.1l0.1,0.1l1.9,2.1c0,0.1-0.1,0.1-0.1,0.2c0,0.3,0.2,0.6,0.4,0.6
						c0.2,0,0.3-0.1,0.4-0.2c0.1-0.1,0-0.2-0.1-0.1c-0.1,0.1-0.1,0.1,0,0.2c0,0,0,0,0,0l0,0l0,0c0,0,0,0,0,0l-0.1-0.3l0-0.1
						c-2.8,0.7,6.3-1.7-6.3,1.6l0,0l-0.1,0c-0.1,0,0,0.1,0.1-0.3c0.1-0.3,0.2-1,0.1-1.7l0-0.2l-0.4-2.4l0-0.1l0-0.1
						c0-0.1,0-0.2-0.1-0.2c-0.1-0.1-0.1-0.2-0.2-0.3c-0.1-0.1,0.1,0.2,0.4,0.3l0.1,0.1l0.8,0.3c0.1,0,0.4,0.1,0.8,0.1
						c0.7,0.1,1.5-0.2,1.6-0.3c0.2-0.1,0,0,0,0.1c-0.1,0.1-0.2,0.4-0.2,0.6c0,0.1,0,0.2,0,0.3l0,0.1l0,4l0,0c0,0,0,0-0.1,0
						c0,0.1,0,0.1,0.2,0c0.1,0,0.4-0.2,0.3-0.5c0,0-0.1-0.1,0-0.1l0,0l0,0l0,0c-1.3,2.5,1.7-3.5,1.4-2.8l0,0l0,0l0-0.1
						c0-0.1,0.1-0.1,0.1-0.2c0-0.1,0-0.2,0-0.2v-0.1l0,0.5l0,0.1c0,0.1,0,0.3,0.1,0.4c0.1,0.3,0.4,0.6,0.4,0.6c0,0,0,0,0,0l0,0
						c-0.3-0.2,3,1.8,1.6,1l0,0l0,0l0,0l0,0c0,0,0,0,0,0c0,0-0.1,0.1-0.1,0.1c-0.1,0.1-0.1,0.4,0.1,0.5c0.2,0,0.4,0,0.7-0.1
						c0.3-0.1,0.6-0.4,0.6-0.9c0-0.2,0-0.5,0-0.7c0-0.2-0.2-0.5-0.4-0.6c0,0-0.1,0-0.1,0c0,0,0.3-0.1,0.2-0.1c-0.1,0-0.1,0-0.2,0
						c-0.1,0-0.2,0-0.4,0.1c-0.2,0.1-0.5,0.2-0.7,0.4c-0.4,0.3-0.8,0.8-0.9,1.5c-0.1,0.4,0.1,0.8,0.5,1c0.4,0.2,0.8,0.2,1.2,0.1
						c0.2-0.1,0.5-0.2,0.7-0.3c0.1-0.1,0.2-0.1,0.3-0.3c0.1-0.1,0.2-0.2,0.3-0.3c0.3-0.4,0.7-1.1,0.5-1.7c-0.2-0.6-0.7-1.1-1.4-1.5
						c-0.6-0.3-1.4-0.5-2.2-0.6c-0.8,0-1.6,0.2-2.2,0.8c-0.1,0.1-0.1,0.1-0.2,0.2c-0.1,0.1-0.1,0.1-0.2,0.2
						c-0.1,0.1-0.2,0.3-0.3,0.4c-0.2,0.3-0.3,0.7-0.4,1.1c-0.1,0.7,0,1.6,0.5,2.1c0.5,0.5,1.7,0.7,2.4,0c-0.1,0.5-0.6,0.9-1.2,1.1
						c-0.5,0.2-1.2,0.2-1.8,0c-1.2-0.5-2-1.8-2.2-3c-0.1-0.6-0.2-1.3-0.1-1.9c0-0.3,0.1-0.7,0.2-1c0.1-0.2,0.1-0.3,0.2-0.5
						c0-0.1,0.1,0,0.2,0c0,0,0-0.1,0-0.1c0-0.1-0.1-0.2,0-0.3c0.6-1.1,1.6-1.9,2.7-2.3c1.1-0.4,2.4-0.6,3.8-0.5
						c1.4,0.1,2.9,0.7,3.9,1.7c0.5,0.5,0.9,1.1,1.1,1.6c0.1,0.3,0.2,0.6,0.3,0.9c0,0.2,0.1,0.3,0.1,0.6c0,0.2,0.1,0.4,0.1,0.9l0,0.6
						c0,0,0,0.1,0,0.2l-0.1,0.3l-0.1,0.6l-0.3,1.3c-0.2,0.6-0.6,1.5-1.3,2c-0.3,0.3-0.7,0.5-1.1,0.7c-0.4,0.2-0.7,0.2-0.9,0.3
						l-1.3,0.3c-1.1,0.3-1.3,0.2-1.8,0.2c-0.8,0-1.3,0-1.7-0.1c-0.4,0-0.8-0.1-1.1-0.2c-1.3-0.3-2.4-0.7-3.3-1.6
						c-0.5-0.5-0.9-1-1.2-1.7c-0.3-0.7-0.4-1.5-0.4-2.3c0-2.6,1-5.2,2.6-7.3c0.8-1,1.8-1.9,2.9-2.6c0.5-0.3,1.1-0.7,1.7-0.9
						c0.1-0.1,0.3-0.1,0.5-0.2l0.2-0.1l0.1,0l0.1,0c0,0,0,0.1,0.1,0.1l0.1,0.2l0.1,0.5l0.1,0.2l0,0.1c0,0,0-0.1,0-0.1l0.1-1
						c0-0.1,0-0.2,0-0.2l0.1,0l0.1,0l0.2,0c0.2,0,0.3,0,0.5,0c1.3,0,2.2,0.4,2.8,0.7c0.6,0.3,1.2,0.8,1.7,1.3
						c0.2,0.2,0.5,0.5,0.6,0.7c0.1,0.1,0.1,0.2-0.5-0.2l-0.2-0.2l-0.5-0.3l-0.5-0.3c-0.3-0.1-0.6-0.2-0.9-0.3l-0.9-0.3
						c-0.1-0.3-0.4,0.4-0.5,0.8l-0.6,1.3l-1.2,2.5l-0.3,0.6c0,0.1,0,0.1-0.1,0.1l-0.1,0l-0.2,0.1c-0.2,0.1-0.4,0.2-0.7,0.2
						c-0.4,0.2-0.9,0.4-1.2,0.7l-0.3,0.2l-0.1,0.1c-0.1,0-0.2,0-0.3,0l-1.5-0.1l-3.1-0.1l-1.5-0.1c-0.2,0.2-0.2,0.5-0.3,0.7
						l-0.4,1.4c-0.1,0.5-0.3,1-0.3,1.2l0,0.8l0,0.4c0,0.1,0,0.3,0,0.3l0.1,0.8l0,0.5c0,0.2,0,0.2,0,0.4c0,0.1,0,0.2,0,0.2
						c0,0.3-0.1,0.3-0.2,0.3c-0.2,0-0.4-0.1-0.7-0.5c-0.3-0.4-0.7-1.4-0.8-2.6c-0.1-1.2,0-2.5,0.4-3.8c0.2-0.6,0.4-1.2,0.7-1.8
						c0.3-0.6,0.8-1.4,1.3-2c1.1-1.3,2.4-2.3,4.1-3.1c1.7-0.7,3.8-1.1,6-0.6c0.5,0.1,1,0.2,1.5,0.4c0.5,0.2,1,0.4,1.3,0.6
						c0.6,0.3,1.2,0.7,1.7,1.1c1,0.8,1.9,1.9,2.5,3c0.6,1.1,1,2.2,1.2,3.2c0.2,1.1,0.2,2.1,0,3.4c-0.1,0.7-0.3,1.3-0.6,2.2
						c-0.4,0.8-0.8,1.8-1.7,2.9l-0.3,0.4c-0.1,0.1-0.3,0.3-0.4,0.4c-0.3,0.3-0.6,0.6-0.9,0.9c-0.8,0.6-1.4,1.2-2.4,1.7
						c-0.9,0.6-2,1-3.1,1.4c-0.6,0.2-1.1,0.3-1.7,0.4c-0.3,0.1-0.6,0.1-0.9,0.2l-0.8,0.1c-0.5,0-1.1,0.1-1.6,0.1l-1.5-0.1
						c-0.3,0-0.5-0.1-0.6-0.1l-0.6-0.2l-0.6-0.2c-0.2-0.1-0.3-0.1-0.5-0.2c-1.4-0.5-2.1-1.2-2.8-1.8c-1.3-1.2-2.1-2.5-2.7-4.1
						c-0.5-1.6-0.7-3.4-0.5-5.1c0.4-3.1,1.6-5.8,3.3-7.8c1.7-2,3.9-3.3,6.3-3.9c0.6-0.1,1.2-0.2,1.8-0.3l0,0c0,0,0,0,0,0l-0.1,0
						c-0.1,0,0,0,0,0l0,0l0.2,0l0.4,0c0.2,0,0.5,0,0.7,0c0.5,0,1,0.1,1.6,0.2c1.1,0.2,2.2,0.6,3.3,1.3c1.1,0.7,2.2,1.7,2.9,2.8
						c0.7,1.1,1.2,2.3,1.5,3.4c0.2,1.1,0.3,2.1,0.2,3c-0.1,1.8-0.6,3.3-1.2,4.6c-1,2.1-2.5,3.8-4.2,5.1c-0.9,0.7-1.9,1.2-2.9,1.6
						c-0.5,0.2-1.1,0.4-1.6,0.5c-0.3,0.1-0.6,0.1-0.9,0.2l-0.4,0.1c-0.2,0-0.4,0.1-0.6,0.1c-0.9,0.1-2,0.1-3.8-0.4
						c-0.9-0.3-2-0.8-2.9-1.7c-1-0.9-1.7-2-2.2-3.1c-0.1-0.3-0.2-0.5-0.3-0.8l0-0.1c0.1,0,0.2-0.1,0.2-0.1l0.5-0.3l1-0.6
						c0.1,0-0.1,0-0.2,0l-0.3,0l-0.6,0.1l-0.6,0.1c-0.2,0-0.4,0-0.4,0l0-0.2c0-0.2-0.1-0.5-0.1-0.7c0-0.5,0-1,0.1-1.5
						c0.1-1,0.4-2,0.8-2.9c0.4-1,0.9-1.9,1.4-2.9c1.1-1.9,2.6-3.6,4.3-4.9c1.7-1.3,3.7-2.5,5.7-2.9c1-0.2,2.1-0.3,3.1-0.2
						c1,0.1,1.9,0.4,2.5,0.7c0.6,0.3,1,0.6,1.1,0.7c0.1,0.1,0,0.1-0.6-0.2c-0.3-0.1-0.7-0.3-1.4-0.5c-0.7-0.1-1.6-0.4-3.4-0.2
						c-0.4,0.1-1,0.2-1.4,0.3c-0.2,0-0.5,0.2-0.8,0.3l-0.9,0.3c-0.6,0.2-1.2,0.7-1.8,1l-0.5,0.3c-0.2,0.1-0.3,0.2-0.5,0.3l-1.3,0.4
						l-1.3,0.4c-0.3,0.3-0.5,0.7-0.8,1l-0.8,1l-0.2,0.3c0,0.1-0.1,0.2-0.1,0.3l-0.2,0.5l-0.4,1.1c-0.1,0.2-0.2,0.4-0.2,0.5l-0.1,0.5
						l-0.2,0.9c0,0.3-0.1,0.7-0.1,0.9c-0.1,2.2,0.3,3.2,0.5,3.9c0.2,0.7,0.3,0.9,0.4,1.1c0.1,0.3,0,0-0.2-0.3
						c-0.4-0.8-0.9-2.6-0.8-4.5c0.1-1.9,0.7-3.7,1.7-5.3c0.3-0.4,0.5-0.8,0.9-1.1c0.2-0.2,0.3-0.3,0.5-0.5l0.1-0.1c0,0,0-0.1,0.1,0
						l0.5,0.3l0.5,0.3c0,0,0,0,0,0l-0.1-0.1l-0.1-0.2l-0.3-0.4c-0.2-0.2-0.1-0.2,0-0.2l0.1-0.1l0.2-0.2c0.1-0.1,0.3-0.2,0.4-0.3
						c0.1-0.1,0.3-0.2,0.4-0.3l0.2-0.1l0.1-0.1l0,0c0,0,0-0.1,0.1,0.1c0.4,0.8,0.6,1.2,0.5,1l0-0.1l-0.3-1.1l0.3-0.2
						c0.2-0.1,0.4-0.2,0.6-0.3c1.7-0.7,3.6-0.8,4.9-0.4c0.6,0.2,1,0.4,1,0.5c0,0.1-0.4,0.1-1.4,0.2c-0.5,0-1.2,0.1-2.1,0.4
						c-0.5,0.1-0.9,0.3-1.5,0.6c-0.3,0.1-0.6,0.3-0.8,0.4c-0.2,0-0.1,0.4-0.2,0.6l0,0.8c-0.9,1-1.8,2.2-2.4,3.4
						c-0.6,1.2-1,2.4-1.2,3.4c-0.3,1.6-0.1,2.5-0.1,3c0,0.5,0,0.4-0.2-0.1c-0.1-0.5-0.2-1.3-0.2-2.1c0-0.8,0.2-1.6,0.5-2.3
						c1.1-3.2,3.3-5.6,5.8-6.9c1.2-0.7,2.6-1.1,3.9-1.2c0.7-0.1,1.3-0.1,2,0c0.3,0,0.7,0.1,1,0.2c0.2,0,0.3,0.1,0.5,0.1l0.1,0l0,0
						c0,0,0-0.1,0,0.1l-0.2,0.8l-0.1,0.4c0,0.1,0,0.1,0,0.1l0,0c0.1,0,0,0.3,0.3-0.5l0.3-0.8c0.1-0.1,0.1,0,0.2,0
						c0.4,0.1,0.8,0.3,1.3,0.7c0.5,0.3,0.9,0.7,1.3,1.2c0.2,0.2,0.3,0.5,0.5,0.7l-0.3,0.5c0,0-0.1,0.1,0,0.1l0.1,0l0.3-0.1
						c0.1,0,0.2-0.1,0.2,0l0,0.1l0,0.1l0.1,0.2c0.2,0.6,0.2,1.2,0.2,1.9c0,1.3-0.3,2.6-0.8,3.9c-0.5,1.3-1.2,2.5-2.1,3.5
						c-0.5,0.5-1,0.9-1.5,1.2c-0.5,0.3-1,0.3-1.1,0c-0.2-0.3,0.2-0.9,0.6-1.9c0.2-0.5,0.4-1.1,0.7-1.9c0.1-0.4,0.2-0.8,0.3-1.3
						l0-0.4c0-0.1,0.2-0.2,0.3-0.4c0.2-0.1,0.1-0.2,0.1-0.4c0-0.1,0-0.2-0.1-0.4c-0.2-1-0.6-1.7-0.9-2.1c-0.3-0.5-0.4-0.7-0.4-0.9
						c-0.1-0.3,0.2-0.4,0.6-0.3c0.8,0.2,1.8,1,2.3,2c0.3,0.5,0.5,1.1,0.6,1.7c0,0.2,0.1,0.3-0.2,0.5l0,0c0,0,0,0,0.1,0l0.1,0.1
						c0.1,0,0.1,0.1,0.1,0.2c0,0.2-0.1,0.3-0.1,0.5c-0.2,0.6-0.5,1.1-0.8,1.5c-0.6,0.7-1.1,0.9-1.7,1.3c-0.5,0.3-1.1,0.6-1.7,0.7
						c-0.6,0.2-1.1,0.3-1.8,0.4c-0.7,0.1-1.4,0.1-2.2-0.4c-0.4-0.2-0.8-0.6-1-1c-0.2-0.5-0.2-1-0.1-1.3c0.2-0.7,0.6-1.2,1-1.6
						C425.4,40.1,426.4,39.5,427.3,39.2z"/>
				</g>
			</g>
		</g>
	</g>
	<g>
		<g>
			<g>
				<g>
					<path d="M548.4,73.5c0-0.5-0.2-1-0.7-1.3c-0.4-0.3-1-0.5-1.5-0.5c-1.1,0-2,0.5-2.9,0.9c-0.8,0.5-1.5,1-2,1.6
						c-0.3,0.3-0.5,0.6-0.7,0.9c-0.2,0.3-0.4,0.7-0.2,1c0.4,0.6,1.2,0.7,1.8,0.6c0.6-0.1,1.2-0.4,1.6-0.8c0.4-0.4,0.7-0.9,0.8-1.5
						c0.1-0.5-0.2-1.2-0.7-1.4c-0.3,0.5-0.6,1-0.6,1.5c0,0.2,0,0.5,0.1,0.6c0.1,0.2,0.4,0.1,0.5,0c0.1-0.2,0.2-0.4,0.2-0.6
						c0-0.1,0-0.2,0-0.3c0,0,0,0,0,0l0,0l0,0c2.2-0.1,0.6,0,1.1-0.1l0,0l0,0l0,0l-0.1,0c-0.2,0-0.4,0.1-0.4,0.1c0,0,0.1-0.1,0.2-0.2
						c0.1-0.1,0.2-0.5,0.1-0.2c0,0.2,0,0.4,0,0.5c0.1,0.1-0.1-0.3-0.6-0.5c0,0-0.5-0.2-0.9-0.2c-0.2,0-0.4,0.1-0.4,0.1
						c-0.1,0,0.1-0.1,0.2-0.2c0.1-0.1,0.2-0.3,0.2-0.3l0-0.1l0,0l0,0l0,0l0,0l0,0l0-0.3l0,0c0-0.3,0-1-0.3-1.8l-0.1-0.2l-0.1-0.1
						l-0.3-0.8l0,0c0,0,0,0,0,0c0,0,0.1-0.1,0.1-0.1c0.1-0.1,0.1-0.1,0.2-0.2c0.1-0.2,0.1-0.3,0.1-0.5c0-0.4-0.4-0.5-0.7-0.6
						c-0.3,0-0.5,0-0.5,0.2c0,0.2,0.1,0.3,0.2,0.2c0.1,0,0.2-0.2,0.2-0.3c0,0,0,0,0-0.1l0,0c0,0,0,0-0.1,0.1l4.4,1.7l0.2,0.1
						c0.1,0,0.2,0.1,0.3,0.1c0.4,0.1,0.8,0.1,1,0.1c0.1,0,0.1,0,0.1,0c0,0-0.1,0.1,0,0l0,0l-4,4.9l0,0c0,0,0,0,0,0c0,0,0,0-0.1,0
						c-0.2,0.1-0.2,0.2-0.1,0.2c0,0,0,0,0,0l0,0l0,0l0,0v0c0,0,0,0,0.1,0l0.1,0l0,0c1.1-2.6-2.5,5.8,2.5-5.7l0,0.1
						c0,0.1-0.1,0.2-0.1,0.3l0,0.1l0,0c-2.2,11.4-0.6,3.2-1.1,5.7l0,0c0,0,0,0,0,0v0v0l0,0l0,0c0,0,0,0,0,0c0,0,0,0,0.1,0
						c0,0,0.1-0.2,0-0.3c-0.1-0.3-0.6-0.2-0.9,0.2l0,0c0,0,0,0,0,0l0,0l-2.6-0.1l-0.1,0c-0.3,0-0.6,0-0.8,0c-0.2,0-0.4,0-0.6,0.1
						l-0.2,0l-0.1,0l-0.1,0.1c0,0,0.3-0.2,0.5-0.5c0.1-0.1,0.1-0.2,0.1-0.3c0,0,0,0,0,0l0,0l0,0c-0.1,0.7,0.7-6.1,0.4-3.2h0l0,0l0,0
						c0.1,0,0.1,0,0.2,0c0.3,0,0.6-0.2,0.9-0.5c0.1-0.2,0.2-0.4,0.3-0.6c0-0.1,0-0.3,0-0.4c-0.1-0.1-0.2-0.1-0.3-0.1
						c-0.2,0.1-0.5,0.1-0.7,0.3c-0.2,0.2-0.4,0.5-0.4,0.9c0,0.4,0.4,0.7,0.8,0.8c0.4,0.1,0.9,0.1,1.3,0c0.5-0.1,0.9-0.3,1.3-0.7
						c0.1-0.1,0.2-0.2,0.2-0.3c0,0,0,0,0,0l0,0.1l0,0.1c0.8,0.1-1.9-0.1,1.9,0.1l0,0l0,0l0,0l0,0c0,0-0.1,0-0.1,0
						c-0.2,0-0.5,0.2-0.4,0.2c0,0,0.1-0.1,0.1-0.2l0-0.1l0,0l0,0l-0.1,0.3l0,0c0,0,0,0.1,0,0.1c0,0.1,0,0.3,0,0.4l0,0.1c0,0,0,0,0,0
						c0,0,0,0,0,0c-0.1,0-0.1-0.1-0.3-0.1c-0.1,0-0.3,0.1-0.5,0.3c-0.2,0.1-0.4,0.4-0.6,0.6c-0.2,0.2-0.3,0.4-0.3,0.6
						c0,0.1-0.1,0.1-0.1,0.1c0,0,0,0,0,0l-0.1,0c-0.1,0-0.1,0.1-0.1,0.1c-0.1,0.1,0,0,0,0c0,0,0,0.1,0,0.1c0.1,0.1,0.3,0.2,0.6,0.3
						c0.3,0.1,0.5,0.1,0.9,0c0.6-0.1,1.3-0.6,1.8-1.2c0.5-0.6,0.8-1.4,0.8-2.3c0-0.4-0.1-0.8-0.4-1.2c-0.3-0.3-0.8-0.6-1.3-0.4
						c0.4-0.3,1.1-0.3,1.6-0.1c0.6,0.3,1,0.8,1.2,1.4c0.5,1.1,0.5,2.4,0.1,3.6c-0.4,1.2-1.2,2.3-2.4,3.1c-0.6,0.4-1.3,0.7-2,0.8
						c-0.8,0.1-1.6,0.1-2.4-0.1c-0.8-0.2-1.8-0.8-2.4-1.7c-0.6-0.9-0.9-1.9-0.9-2.8c0-0.9,0.1-1.7,0.3-2.4c0.2-0.7,0.5-1.4,0.9-2.1
						c0.4-0.7,0.9-1.3,1.6-1.9c0.7-0.6,1.5-1.1,2.5-1.4c0.9-0.3,2-0.4,3.1-0.2c1.1,0.2,2.3,0.8,3.2,1.6c0.9,0.8,1.5,1.9,1.8,3.3
						c0.1,0.3,0.1,0.7,0.1,1.1c0,0.1,0,0.2,0,0.3l-0.5,0.2l-0.5,0.2c0.1,0.1,0.3,0.1,0.5,0.2l0.3,0.1c0.1,0,0.2,0.1,0.2,0.1l0,0.1
						l-0.1,0.3c0,0.2-0.1,0.4-0.1,0.6c-0.5,1.5-1.4,2.7-2.6,3.6c-1.2,1-2.8,1.7-4.7,2.1c-0.9,0.2-2,0.2-2.9,0
						c-1-0.1-1.8-0.5-2.3-0.8c-0.2-0.2-0.4-0.3-0.4-0.4c0,0,0,0,0,0c0,0,0,0,0.1,0l0.1,0l0.2,0.1l0.5,0.2l0.4,0.1c0,0,0.2,0,0.3,0.1
						l0.4,0.1l0.8,0.1l0.2,0c0.1,0,0.3,0,0.4-0.1l0.9-0.1c1.3-0.3,2.4,0.1,3.9-1.6l2.2-1.8l0.5-0.5l0.3-0.2c0.1-0.1,0-0.2,0-0.2
						l-0.1-1l-0.2-2l-0.1-0.9l-0.1-0.5l-0.1-0.9l-0.1-0.5l-0.1-0.2c-0.2-0.7-0.4-1-0.4-1.2c-0.1-0.4-0.1-0.5,0-0.5
						c0.1-0.1,0.2,0,0.4,0c0.3,0,0.5,0,0.8,0.2c0.3,0.2,0.7,0.4,1.1,1.2c0.4,0.8,0.7,1.8,0.7,2.8c0,2-0.4,4.1-1.2,6
						c-1.7,3.8-4.8,6.8-8.4,7.7c-0.5,0.1-0.9,0.2-1.4,0.3c-0.2,0-0.5,0-0.7,0.1l-0.2,0l-0.1,0l0,0c0,0,0-0.1,0-0.1l0-0.4l-0.1-1.4
						l0-0.7l0-0.4l0-0.2c0,0,0-0.2,0-0.1l-0.4,1.9l-0.2,1l0,0.2c0,0.1,0,0.2,0,0.1l-0.1,0c-0.2,0-0.4,0-0.6-0.1
						c-0.4-0.1-0.8-0.1-1.1-0.3c-0.7-0.2-1.5-0.5-2.2-1c-1.4-0.8-2.9-2.3-3.7-4.3c-0.4-0.9-0.6-1.9-0.6-2.7c0-0.4,0-0.8,0-1.1l0-0.1
						l0,0c0.1,0-0.2,0,0.2,0l1.4,0.1l0.7,0c0.3,0,0.5,0,0.3,0l-0.5-0.1l-1.1-0.2l-1.1-0.2c0,0,0-0.1,0-0.1l0-0.2
						c0.4-3.8,2.3-7.6,5.2-10.1c1.5-1.3,3.3-2.2,5.2-2.6c1.9-0.4,3.9-0.4,5.8,0.2c1.8,0.5,3.5,1.7,4.3,2.6c0.2,0.2,0.4,0.4,0.5,0.5
						l0.2,0.2c0,0,0,0,0-0.1l-0.2-0.2c0-0.1-0.3-0.3-0.4-0.5c-0.1-0.1-0.2-0.2-0.4-0.4l-0.5-0.4c-0.2-0.2-0.6-0.4-0.9-0.6l-0.5-0.3
						l-0.2-0.2l-0.1-0.1c-0.1,0-0.1-0.1-0.2-0.1l-1.8-0.6l-0.9-0.3l-0.2-0.1c-0.1,0-0.2,0-0.3,0l-0.7,0l-3,0.1l-0.8,0
						c-0.3,0-0.5,0-0.8,0.2l-1.5,0.9l-3.1,1.8c-0.6,0.3-0.8,0.7-1.1,1.1l-0.9,1.1l-0.9,1.1l-0.4,0.6l-0.2,0.3
						c-0.1,0.1-0.1,0.2-0.1,0.2l-0.4,0.9l-0.2,0.5l-0.1,0.2l-0.1,0.2c-0.1,0.5-0.3,1-0.5,1.4c-0.1,0.3-0.2,0.8-0.3,1.1l-0.1,0.8
						l0,0.3l0,0.1l0,0.1c0,0,0.2,0,0.3,0.1l1.5,0.3l0.8,0.1l0.4,0.1c0.1,0,0.1,0,0.1,0l0,0l0,0.2c0,0.2,0,0.2,0,0.1l-0.1-0.3l0-0.1
						c0.1,0-0.3-0.1-0.5-0.1l-0.8-0.1l-1.6-0.3c-0.1,0-0.1,0-0.1,0l0,0l0,0l0-0.1c0.1-1,0.4-2.4,0.8-3.7c0.1-0.3,0.2-0.6,0.4-1
						l0.2-0.5l0.1-0.2l0.1-0.1l0,0c4,2.1,1.1,0.6,2,1l0-0.1c0.2-0.6,0.5-1.1,0.8-1.6c0.6-1,1.3-2,2-2.9c1.5-1.7,3.3-3,5.2-3.7
						c1-0.4,1.9-0.6,2.9-0.7c0.5,0,1-0.1,1.5,0c0.3,0,0.5,0,0.8,0.1l0.2,0l0,0l0,0.2l0,0.2c0,0.1,0,0.2,0,0.2l0.1,0
						c0,0,0.1-0.1,0.1-0.2l0.1-0.2c0-0.1,0.1-0.2,0.1-0.2l0.1,0l0.3,0.1c0.4,0.1,0.8,0.2,1.2,0.4l0.3,0.1c0.1,0.1,0.1,0.2,0.2,0.3
						c0.1,0.2,0.1,0.1,0.2,0c0.1,0,0.1-0.1,0.2-0.1c0.2,0.1,0.4,0.2,0.6,0.4c0.4,0.3,0.7,0.5,1,0.7c0.5,0.5,0.8,0.8,1.1,1.1
						c0.3,0.4,0.5,0.7,0.6,0.9c0.1,0.1,0.1,0.2,0.1,0.1l-0.1-0.2l-0.2-0.2l-0.1-0.1c0,0-0.1-0.2-0.2-0.3l-0.5-0.6c0,0,0,0-0.1-0.1
						l-0.2-0.1l-0.4-0.3l-0.7-0.6l-0.7-0.6l-0.1-0.1c0,0,0-0.1-0.2,0l-0.7,0l-1.4,0.1l-5.7,0.4l-0.4,0c-0.1,0-0.2,0-0.4,0.2
						l-0.7,0.7l-1.4,1.5l-2.9,2.9l-2.9,2.9l-0.4,0.4l-0.2,0.2c-0.1,0.1,0,0.1,0,0.1l0,0.4l-0.1,0.7l-0.2,2.9c0,0.1,0,0.3,0,0.3
						l0,0.1l0.1,0.2l0.1,0.5c0.2,0.8,0.3,0.9,0.3,1c0,0.1,0,0,0-0.1c-0.1-0.4-0.5-1.4-0.5-2.5c-0.1-1.3,0.1-2.6,0.5-3.8
						c0.4-1.2,1-2.3,1.8-3.3c1.5-1.9,3.4-3.4,5.3-4.4c1.9-1,3.7-1.5,5.4-1.5c1.7-0.1,3.2,0.2,4.7,0.8c0.4,0.2,0.7,0.3,1.1,0.5
						c0.2,0.1,0.3,0.2,0.5,0.3l0.2,0.2c0,0,0.1,0,0,0.1l-0.1,0.2l0.1,0.1c0.1,0,0,0.1,0.2,0l0.1-0.1c0,0,0.1,0.1,0.1,0.1l0.3,0.2
						c0.4,0.3,0.7,0.7,1,1.1c0.6,0.8,1,1.8,1.3,2.7c0.5,1.9,0.2,3.1,0,4.1c-0.1,0.5-0.2,0.9-0.5,1.2l-0.4,0.1l-0.2,0
						c0,0,0.1,0.1,0.1,0.1l0.2,0.3l0.1,0.1c0,0,0,0,0,0l0,0.1c-0.2,0.4-0.4,0.7-0.6,1.1c-0.5,0.7-1,1.3-1.5,1.9
						c-1.1,1.2-2.3,2.3-3.8,3.1c-1.4,0.8-3.1,1.3-4.6,1.3c-1.5,0-2.9-0.3-4.1-0.8c-1.2-0.5-2.3-1.4-2.9-2.1
						c-0.3-0.3-0.6-0.7-0.1-0.4l0.6,0.5c0.1,0.1,0.4,0.3,0.7,0.4l0.9,0.5c0.5,0.2,1.2,0.3,1.7,0.5l0.9,0.2l0.4,0.1
						c0.1,0.1,0.4,0,0.6,0c0.9,0,1.7,0,2.7-0.3c0.5-0.1,1-0.2,1.4-0.3l1.3-0.8c0.9-0.5,1.5-1.1,2.1-1.7c0.4-0.3,0.5-0.6,0.8-0.9
						l0.7-0.9l0.4-0.8c0.1-0.3,0.3-0.5,0.4-0.7c0.1-0.4,0.4-0.9,0.4-1.2c0.4-1.4,0.3-2,0.3-2.4c0-0.8,0-0.9,0-1c0-0.2,0.8,2.2-0.5,5
						c-0.6,1.4-1.6,2.6-2.8,3.6c-0.6,0.5-1.2,0.9-1.8,1.3c-0.3,0.2-0.7,0.4-1,0.5c-0.1,0-0.2,0.1-0.3,0.1c-0.1,0-0.2-0.1-0.3,0.1
						c0,0.2-0.2,0.1-0.3,0.2l-0.3,0.1c-1.1,0.4-2.4,0.6-4,0.5c-1.6-0.2-3.2-0.8-4.6-2.1c-0.7-0.6-1.3-1.5-1.8-2.4
						c-0.4-0.9-0.6-1.9-0.7-2.8c0-1.8,0.4-3.2,1.1-4.3c1.4-2.4,3.6-3.7,5.8-4.2c1.1-0.3,2.3-0.3,3.6-0.1c1.2,0.2,2.4,0.8,3.4,1.5
						c1.9,1.4,3.1,3.4,3.4,5.7c0.1,0.6,0.3,1.2-0.4,1.7c0,0-0.1,0.1-0.1,0.1l0.2,0.1c0.1,0.1,0.3,0.1,0.3,0.2l0,0.3
						c0,0.2-0.1,0.4-0.1,0.6c-0.2,0.8-0.6,1.5-1,2.1c-0.4,0.6-1.1,1-1,0.4c0-0.5,0.3-1.5,0.3-2.5c0-0.3,0-0.5,0-0.8
						c0-0.1,0-0.1-0.1-0.2l-0.2-0.2l-0.2-0.2c-0.1-0.1,0-0.1,0-0.2c0-0.5,0-1-0.1-1.4c-0.1-0.9-0.3-1.6-0.4-2.1c0,0,0-0.1,0,0l0,0.1
						l0.1,0.1l0.1,0.2c0.1,0.2,0.2,0.3,0.2,0.5c0.1,0.4,0.2,0.7,0.3,1.1c0.1,0.4,0.1,0.8,0,1.2c0,0.2,0,0.4-0.1,0.6
						c-0.1,0.1,0.2,0.2,0.4,0.3c0,0.1,0,0.2-0.1,0.3c-0.4,1.5-1.3,2.9-2.6,3.9c-1.3,1-3,1.5-4.7,1.3c-1.7-0.2-3.3-1.2-3.9-2.4
						c-0.3-0.6-0.1-1.1,0.1-1.3l0,0l0,0l0,0c-0.2,0.6,0.5-1.3-0.5,1.3l0,0l0.1,0l0.2-0.1c0.2-0.1,0.4-0.1,0.6-0.2l0.6-0.1
						c0.2,0,0.3,0,0.8-0.3l1.1-0.6l0.3-0.1c0.1,0,0.2-0.1,0.2-0.2l0.3-0.6l0.5-1.1c0.1-0.2,0.1-0.3,0.1-0.4l0-0.3
						c0-0.2,0.1-0.4,0-0.6l-0.1-0.3c-0.1-0.4,0-0.5,0-0.6c0.1-0.3,0.4-0.4,0.7-0.6c0.6-0.3,1.3-0.5,2.1-0.3
						C548.1,71.4,548.9,72.5,548.4,73.5z"/>
				</g>
			</g>
		</g>
	</g>
	<path d="M423.5,36.5c0-0.1-0.1-0.1-0.1-0.2c0-0.1-0.1-0.3-0.1-0.5c-0.1-1-0.4-1.9-1.1-2.6c-0.7-0.7-1.8-1.2-2.8-1.2
		c-1,0-2.1,0.4-2.8,1.2c-0.7,0.8-1.2,1.8-1.2,2.8c0.1,1.6,0.5,3.1,1.3,4.5c0.5,0.9,1.4,1.6,2.4,1.8c1,0.3,2.2,0.1,3.1-0.4
		C423.9,40.8,424.6,38.4,423.5,36.5z"/>
	<path d="M553.2,62.5c-2.7-1.3-6.8-1.3-9.7-0.9c-6.1,0.9-12.6,6.8-12.8,13.1c0,1.2,0.4,2.1,1,2.7c0,0.2,0,0.3,0,0.5
		c1.2,6.3,7.3,10.1,13.2,7.1c3.1-1.6,6.1-4.3,8.5-6.9c2.3-2.5,2.9-5.2,2.8-8.5C556.2,66.9,555.9,63.9,553.2,62.5z M548.2,72.1
		c-0.5,1.2-2.3,2.3-3.3,3.2c-0.7,0.6-3,3.1-4,2.9c-1.2-0.2-1.2-1.3-1.4-2.3c-0.1-0.6-0.4-1.2-0.7-1.6c0.6-1.8,3.4-3.9,4.7-4.4
		c1.4-0.5,3.2-0.5,4.9-0.3C548.4,70.5,548.4,71.7,548.2,72.1z"/>
	<g>
		<g>
			<path class="st6" d="M0,109"/>
		</g>
	</g>
	<g>
		<g>
			<g>
				<g>
					<path d="M462.8,292.1c3.3,4.2,7.4,7.7,11.7,10.7c4.3,3,8.9,5.7,13.6,8.2c9.3,5.1,18.9,9.6,28.7,13.3c4.9,1.9,9.9,3.5,14.9,5
						l3.8,1.1l3.8,1c1.3,0.3,2.5,0.6,3.8,0.9c1.3,0.3,2.5,0.6,3.6,0.7c1.1,0.2,2,0.2,2.7,0.1c0.7-0.1,1.3-0.3,2.4-0.8
						c1-0.4,2.2-1.1,3.7-1.7c1.6-0.6,3.2-1.1,4.7-1.4c3.1-0.7,5.9-0.9,8.4-1.3c1.3-0.2,2.4-0.4,3.5-0.6c1.1-0.2,2-0.5,2.9-0.9
						c0.3-0.2,0.7-0.3,1-0.5c0.3-0.2,0.6-0.3,0.9-0.5c0.6-0.4,1.4-1,2.4-1.8c1-0.7,2.3-1.7,4-2.4c0.8-0.4,1.8-0.7,2.7-0.9
						c0.9-0.2,1.7-0.3,2.5-0.4c1.5-0.1,2.6-0.1,3.4-0.2c0.4,0,0.7-0.1,1-0.2c0.3,0,0.6-0.2,1-0.2c1.3-0.4,2.8-1.1,4.3-2.1
						c3.2-2,6.6-5,11.3-7.7c0.6-0.3,1.2-0.7,1.8-1c0.6-0.3,1.3-0.6,2-0.9c1.4-0.6,2.8-0.9,4-1.2c2.5-0.6,4.5-0.9,5.8-1.4
						c0.7-0.2,1.1-0.5,1.3-0.6c0.2-0.2,0.3-0.3,0.4-0.4c0.3-0.4,0.8-1.9,1.3-4.1l3.4-12.8l1.7-6.5c0.6-2.3,1.4-4.9,2.9-7.7
						c0.8-1.4,1.5-2.4,2-3.4c0.6-0.9,1.1-1.7,1.3-2.2c0.1-0.1,0-0.1,0-0.1l0,0l0,0c0,0,0,0,0,0l0,0l-0.2-0.4
						c-0.1-0.2-0.2-0.4-0.3-0.6c-0.2-0.4-0.5-1-0.7-1.6c-0.5-1.3-0.6-2.6-0.7-3.7c0-1.1,0.1-2.1,0.3-3c0.2-0.8,0.4-1.6,0.6-2.2
						l0.3-0.9l0.2-0.5l0.2-0.4l0.6-1.6c0,0,0,0,0,0s0,0,0,0l-1.1,0.1l-3.9,0.2c-2.6,0.1-5.3,0.4-7.9,0.5c-2.6,0.2-5.3,0.4-7.9,0.6
						c-10.5,0.9-21.1,2-31.7,3.1c-21.2,2.3-42.5,4.7-64.1,5.8c-10.8,0.5-21.7,0.7-32.4,0.5c-5.3-0.1-10.6-0.2-15.9-0.1
						c-1.3,0-2.6,0-3.9,0.1l-2,0l-1,0l-2.1,0c-0.7,0-1.4,0-2.2,0.1c-2.4,0.1-5.2,0.3-8.2,0.8l-1.2,0.2l-0.6,0.1
						c-0.1,0-0.2,0-0.3,0.1l0.1,0.2c0.3,0.4,0.7,0.7,1.2,0.9c0.9,0.4,2.1,0.5,3.2,0.6c1.2,0.1,2.5,0.4,3.6,1.2
						c0.6,0.4,1.1,0.9,1.7,1.4c0.5,0.6,0.9,1.1,1.6,2.2c2.4,4,3.5,8.3,4.4,12.5l2.9,12.5l-4.6-12c-1.5-4-3.1-7.9-5.5-11
						c-0.3-0.4-0.6-0.7-1.1-1.2l-0.4-0.4c-0.1-0.1-0.2-0.3-0.4-0.3l-1.2-0.5c-0.8-0.4-2-0.7-3-1.1l-1.3-0.6
						c-0.2-0.1-0.5-0.2-0.6-0.3l-0.5-0.3l-1-0.6l-0.9-0.5l-0.5-0.2l-0.4-0.2c-0.3-0.1-0.6-0.2-0.8-0.3c-1.1-0.4-2-0.6-2.9-0.7
						c-1.8-0.3-3.4-0.4-5.3-1.2c-0.9-0.4-1.9-1-2.9-1.9l-0.4-0.3c-0.1-0.1,0-0.1,0-0.2l0.1-0.4c0.1-0.3,0.1-0.5,0.2-0.8
						c5-1.4,9.8-2.7,15.5-3.9c1.8-0.3,3.6-0.7,5.5-1c1.9-0.3,3.9-0.6,5.8-0.8l2.9-0.3l2-0.2c1.4-0.1,2.7-0.3,4.1-0.4
						c5.4-0.5,10.8-0.8,16.1-1c10.7-0.5,21.1-1.3,31.7-2.4c21-2.1,42.1-5.3,63.3-8.1c10.6-1.4,21.3-2.7,32-3.7
						c2.7-0.3,5.4-0.5,8.1-0.7c2.7-0.2,5.4-0.5,8.1-0.6l4.1-0.2l2.9-0.2l4-0.2l16-0.6l0.7,0c0.1,0,0.3,0,0.3,0l-0.1,0.3l-0.4,1.2
						l-0.9,2.4l-1.8,4.7l-3.5,9.4l-1.8,4.7l-0.5,1.3c-0.1,0.3-0.1,0.4-0.1,0.5l0,0l0,0c0,0,0,0,0,0l-0.1,0l-0.9-0.1l-0.8-0.1
						c-0.3,0-0.4,0-0.6,0c-0.7,0-1.1,0.1-1.1,0.1c0,0,0.4-0.1,0.7-0.3l0.6-0.3l0.8-0.4l1.1-0.6l0.1,0l0,0l0,0v0c0,0,0,0,0,0l0.1,0.2
						c0.5,0.8,1,1.5,1.3,2.4l0.3,0.8c0.1,0.3,0.2,0.5,0.2,0.8c0.2,0.5,0.3,1,0.4,1.6c0.2,1.1,0.2,2.2,0.1,3.2
						c-0.1,1.1-0.3,2.1-0.7,3.2c-0.2,0.5-0.4,1-0.6,1.5c-0.2,0.5-0.5,1-0.7,1.4c-0.7,1.4-1.5,2.5-2.1,3.4c-0.6,0.9-1.2,1.8-1.4,2.3
						c-0.6,1.2-1.2,2.8-1.8,4.7l-1.8,6.3l-3.7,12.8c-0.3,1-0.6,2.2-1.1,3.6c-0.5,1.4-1.2,3-2.3,4.6c-1.1,1.7-2.7,3.1-4.3,4.1
						c-1.6,1-3.2,1.7-4.7,2.1c-2.9,0.9-5.3,1.1-7.1,1.5c-0.9,0.2-1.6,0.4-2.3,0.6c-0.3,0.1-0.7,0.3-1.1,0.4
						c-0.4,0.1-0.7,0.3-1.1,0.5c-3.1,1.5-6.5,4.3-10.9,6.9c-2.2,1.3-4.8,2.6-7.7,3.3c-0.7,0.2-1.5,0.4-2.3,0.5
						c-0.8,0.1-1.6,0.2-2.3,0.2c-1.4,0.1-2.5,0-3.3,0c-0.4,0-0.6,0-0.8,0.1c-0.2,0-0.2,0-0.4,0.1c-0.3,0.1-0.9,0.4-1.7,1
						c-0.8,0.5-1.8,1.3-3,2c-0.6,0.4-1.3,0.7-2,1.1c-0.7,0.3-1.4,0.6-2.1,0.8c-1.7,0.6-3.3,0.9-4.9,1.2c-1.5,0.2-3,0.4-4.4,0.5
						c-2.8,0.2-5.3,0.3-7.5,0.7c-1.1,0.2-2.1,0.4-3,0.7c-1,0.3-2.2,0.9-3.7,1.4c-0.7,0.3-1.6,0.5-2.5,0.8c-0.9,0.2-1.9,0.4-2.9,0.4
						c-2,0.1-3.7-0.1-5.3-0.5c-1.6-0.4-2.9-0.8-4.2-1.2c-1.3-0.4-2.6-0.8-3.9-1.3l-3.9-1.3l-3.8-1.4c-5.1-1.9-10.1-4.1-15-6.5
						c-9.8-4.7-19.2-10.2-28-16.5c-4.4-3.1-8.7-6.4-12.8-10C469.1,300.9,465.4,296.8,462.8,292.1z"/>
				</g>
			</g>
		</g>
	</g>
	<g>
		<g>
			<g>
				<g>
					<path d="M484.5,263c2.3,1.1,4.1,2.6,5.7,4.2c1.6,1.6,2.9,3.5,4.1,5.4c2.2,3.9,3.6,8.2,4,12.6c0.2,2.2,0.3,4.4,0,6.6
						c-0.2,2.2-0.7,4.3-1.4,6.7c-0.4,1.2-0.9,2.4-1.6,3.5c-0.3,0.6-0.7,1.2-1.1,1.7c-0.4,0.6-0.9,1-1.3,1.4
						c-0.9,0.8-1.7,1.3-2.4,1.8c-0.7,0.6-1.6,1.1-1.9,2.4c-0.6-0.3-1.1-0.8-1.5-1.4c-0.4-0.6-0.6-1.3-0.7-2
						c-0.3-1.4-0.2-2.7-0.3-3.7c0-1.1-0.2-1.7-0.4-2.5c-0.2-0.8-0.4-1.6-0.6-2.4c-0.4-1.6-0.8-3.5-1-5.3c-0.3-1.8-0.5-3.6-0.7-5.3
						c-0.3-3.6-0.5-7.1-0.4-10.9c0.1-1.9,0.2-3.9,0.4-6C483.7,267.7,483.9,265.5,484.5,263z"/>
				</g>
			</g>
		</g>
	</g>
	<g>
		<g>
			<g>
				<g>
					<path d="M516,268c1.3,0.7,2.4,1.7,3.3,2.9c0.9,1.1,1.7,2.4,2.3,3.6c1.3,2.4,2.3,4.7,3.2,7c0.9,2.4,1.6,4.7,2.2,7.1
						c0.6,2.4,1.1,4.7,1.4,7.4c0.2,1.3,0.3,2.7,0.3,4.2c0,1.5-0.1,3.1-0.4,4.5c-0.5,3-1.5,5.8-2.8,8.2c-1.3,2.5-2.9,4.7-4.8,6.7
						c-1.9,2-3.9,3.7-6.4,5.2c-0.5-2.9-0.4-5.6-0.4-8.1c0.1-2.4,0.2-4.8,0.2-7.1c0.1-2.2,0.1-4.3,0-6.1c0-1-0.1-1.8-0.2-2.8
						l-0.3-3.1c-0.2-2.2-0.5-4.8-0.5-7.2c-0.1-2.5,0-4.9,0.3-7.4c0.2-2.5,0.6-5.1,1.2-7.5C515,273.1,515.7,270.9,516,268z"/>
				</g>
			</g>
		</g>
	</g>
	<g>
		<g>
			<g>
				<g>
					<path d="M552.9,262.1c1.4,3.2,2.6,6.2,3.8,8.9c1.3,2.8,2.5,5.4,3.9,7.9c0.7,1.3,1.5,3,2.1,5.3c0.3,1.1,0.4,2.5,0.4,3.6
						c0,1.1,0,2.1,0,2.9c0,0.8,0,1.4,0,2c0,0.6,0,1.3,0,2c0,1.3,0.1,2.7,0.2,4.1c0.3,5.6,1,12.1-0.1,19.2c-0.6,3.5-1.7,7-3.5,10.2
						c-1.8,3.2-4.5,6-7.7,7.4c0.6-3.5,0.8-6.4,0.5-9.3c-0.2-2.9-0.6-5.6-1.2-8.4c-1-5.4-2.6-11.3-3-18.2c-0.1-1.7-0.1-3.5,0-5.3
						c0-0.9,0.1-1.8,0.2-2.7c0.1-0.9,0.3-1.9,0.4-2.6l0.4-1.8c0.1-0.5,0.2-0.7,0.2-1.1c0.1-0.8,0-2.1-0.3-3.8c-0.5-3.5-0.5-7,0-10.5
						C550,268.4,551,265.1,552.9,262.1z"/>
				</g>
			</g>
		</g>
	</g>
	<g>
		<g>
			<g>
				<g>
					<path d="M588.6,254.5c2.5,2.5,4.2,5.6,5.5,8.8c1.3,3.2,2.1,6.5,2.7,9.6c1.2,6.3,1.9,12.1,3.1,17l0.4,1.3
						c0.1,0.4,0.3,0.9,0.4,1.6c0.2,0.6,0.4,1.4,0.6,2.4l0.1,0.8c0,0.3,0.1,0.6,0.1,0.9c0,0.6,0.1,1.2,0,1.7c0,1-0.2,1.9-0.4,2.9
						c-0.2,0.9-0.5,1.6-0.7,2.2c-0.3,0.6-0.5,1.2-0.8,1.6l-0.7,1.3c-0.9,1.7-1.8,3.3-2.7,5c-1.5,2.7-3.1,5.3-4.8,8
						c-1.7,2.7-3.5,5.4-5.8,8.1c-1-3.4-1.3-6.8-1.4-10.1c-0.1-3.3,0.2-6.6,0.7-9.9c0.3-2,0.8-4,1.3-6l0.4-1.5
						c0.1-0.4,0.2-0.8,0.3-1.1c0-0.3,0.1-0.5,0-0.6c0,0-0.1,0-0.1-0.1l-0.1,0c0,0,0,0,0,0c0,0,0-0.1,0-0.1l-0.3-1
						c-0.2-0.5-0.4-1.1-0.6-1.8l-0.6-2c-0.9-3.6-1.2-7.2-1.1-10.6c0-3.4,0.4-6.6,0.9-9.7c0.5-3.1,1.1-6.1,1.7-9.1
						C587.5,261,588,258,588.6,254.5z"/>
				</g>
			</g>
		</g>
	</g>
	<g>
		<g>
			<g>
				<g>
					<path d="M619.2,250.6c2,2.1,3.4,4.4,4.7,6.7c1.2,2.3,2.2,4.7,3,7.1c1.6,4.9,2.4,9.8,2.6,14.9c0.2,5-0.3,10.1-1.6,15
						c-0.7,2.5-1.5,4.9-2.6,7.3c-0.3,0.6-0.6,1.2-0.9,1.8c-0.3,0.5-0.7,1.4-1.1,2.1c-0.5,0.7-1.1,1.4-1.9,1.8
						c-0.4,0.2-0.8,0.4-1.3,0.4c-0.5,0-0.9-0.1-1.2-0.3c0.7-0.4,0.7-1,0.6-1.5c-0.1-0.5-0.2-1-0.4-1.5c-0.2-0.5-0.4-0.8-0.7-1.5
						c-0.2-0.6-0.4-1.2-0.6-1.8c-0.8-2.4-1.4-4.8-1.8-7.2c-0.9-4.8-1.4-9.4-1.5-14.1c-0.1-4.7,0.1-9.4,0.7-14.2
						c0.3-2.4,0.8-4.8,1.4-7.3C617.2,255.8,618,253.2,619.2,250.6z"/>
				</g>
			</g>
		</g>
	</g>
	<g>
		<g>
			<g>
				<g>
					<path d="M475.1,290.4c6.8,0.6,13.2-0.4,19.6-1.6c3.2-0.6,6.5-1.2,9.8-1.8c3.3-0.6,6.6-1.1,9.9-1.6c13.2-2,26.4-3.5,39.5-4.8
						c13.1-1.4,26.2-2.5,39.3-3.8c6.6-0.6,13.2-1.2,19.8-1.8c6.7-0.5,13.3-1.2,20.2-1.6c-5.9,3.5-12.1,6.3-18.5,8.8
						c-1.6,0.6-3.2,1.2-4.8,1.8l-4.8,1.6c-3.2,1.1-6.5,2-9.8,2.9c-13.1,3.5-26.5,5.7-39.9,7c-13.4,1.3-26.8,1.8-40.2,1.6
						c-3.4-0.1-6.7-0.2-10.1-0.3c-3.3-0.2-6.7-0.3-10.2-0.7c-3.4-0.3-6.9-0.8-10.3-1.7c-1.7-0.4-3.4-1-5-1.6
						C478.1,292.1,476.5,291.3,475.1,290.4z"/>
				</g>
			</g>
		</g>
	</g>
</g>
<g id="Layer_3">
	<g>
		<g>
			<g>
				<g>
					<path d="M462.5,473.3c3.2,3.5,5.8,7.1,8.4,10.9c2.5,3.7,4.8,7.5,7.1,11.4c2.2,3.9,4.2,7.8,6.1,11.8c1,2,1.9,4,2.8,6
						c0.9,2,1.8,4.1,2.6,6.5c0.8,2.3,1.6,4.9,1.9,7.6c0.4,2.7,0.5,5.2,0.4,7.6c-0.1,4.7-0.6,8.7-0.4,12.2c0.1,1.7,0.3,3.4,0.9,5.3
						c0.5,1.9,1.2,3.9,1.9,6.1c0.7,2.2,1.4,4.4,1.8,6.8c0.5,2.3,0.6,4.8,0.3,7.1c-2.5-4-5.5-6.8-8.5-10.2c-1.5-1.7-3-3.5-4.4-5.5
						c-1.4-2-2.7-4.5-3.5-7.1c-1.7-5.2-1.9-10.1-2.3-14.2c-0.2-2.1-0.4-3.9-0.8-5.6c-0.3-1.6-0.8-3.3-1.5-5.1
						c-0.6-1.8-1.4-3.8-2.2-5.8c-0.8-2.1-1.5-4.1-2.2-6.2c-1.4-4.2-2.7-8.4-3.9-12.7c-1.1-4.3-2.2-8.6-3-13.1
						C463.3,482.5,462.7,478,462.5,473.3z"/>
				</g>
			</g>
		</g>
	</g>
	<g>
		<g>
			<g>
				<g>
					<path d="M199.3,425.8c-2.5,5.2-5.3,10-8.3,14.7c-3,4.7-6.2,9.2-9.5,13.6c-6.6,8.8-13.8,17.2-21.3,25.2
						c-7.5,8-15.4,15.7-23.7,22.9c-4.2,3.6-8.4,7.1-12.9,10.5c-4.5,3.3-9,6.6-14,9.5c2.6-5.1,5.5-9.9,8.6-14.5
						c3.1-4.6,6.3-9.1,9.7-13.5c6.7-8.8,13.9-17.1,21.4-25.1c7.5-8,15.4-15.6,23.6-22.9c4.1-3.6,8.4-7.2,12.7-10.6
						C189.9,432.1,194.4,428.8,199.3,425.8z"/>
				</g>
			</g>
		</g>
	</g>
	<g>
		<g>
			<g>
				<g>
					<path d="M116,515.5c-0.1,2.8,0.4,4.9,1.1,6.9c0.7,1.9,1.5,3.7,2.3,5.6c0.8,1.9,1.7,3.8,2.5,5.9c0.8,2.1,1.4,4,2.1,5.6
						c0.3,0.8,0.6,1.5,0.9,2.2c0.3,0.7,0.8,1.6,1.3,2.6c0.5,1,1.2,2.2,1.7,3.6c0.3,0.7,0.6,1.5,0.8,2.3c0.2,0.8,0.4,1.7,0.5,2.4
						c0.2,1.5,0.1,2.8,0,3.9c-0.1,0.5-0.1,1-0.2,1.5c0,0.5-0.1,1-0.1,1.6c-0.1,2.2,0.1,4.7-0.1,7.6c-2.6-1.1-4.8-2.5-6.7-4.6
						c-0.5-0.5-0.9-1.1-1.4-1.7c-0.4-0.6-0.8-1.2-1.2-1.8c-0.7-1.2-1.2-2.1-1.7-2.8c-0.3-0.3-0.5-0.6-0.7-0.8l-0.8-0.8
						c-0.6-0.6-1.3-1.3-2-2.2c-0.8-0.9-1.6-1.9-2.4-3.3c-0.8-1.3-1.5-2.7-2-4.1c-1.1-2.7-1.6-5.3-1.9-7.7c-0.3-2.3-0.5-5-0.3-7.6
						c0.2-2.7,0.7-5.6,2-8.2c0.6-1.3,1.5-2.6,2.5-3.6C113.4,516.7,114.6,515.9,116,515.5z"/>
				</g>
			</g>
		</g>
	</g>
	<g>
		<g>
			<g>
				<g>
					<path d="M112.9,518.2c0.6,2.7,0.5,5.3,0.2,7.9c-0.3,2.5-0.9,4.9-1.6,7.2c-0.8,2.3-1.6,4.4-2.6,6.5c-1.1,2.1-2.3,4.3-3.9,6.3
						c-3.1,4.1-7.2,7.5-11.8,9.7c-2.3,1.1-4.8,1.9-7.3,2.4c-1.3,0.2-2.6,0.4-3.9,0.4c-0.3,0-0.7,0-1,0l-0.2,0l-0.3,0
						c-0.2,0-0.4,0-0.6,0c-0.4-0.1-0.8-0.2-1.2-0.4c-0.4-0.2-0.7-0.7-0.6-1c0.3,0.2,0.6,0,0.8-0.1c0.2-0.2,0.3-0.4,0.4-0.6
						c0.1-0.1,0.1-0.2,0.2-0.3l0.1-0.2l0.1-0.2c0.2-0.3,0.3-0.5,0.5-0.8c0.7-1,1.3-2,2-3c1.3-1.9,2.6-3.7,3.8-5.4
						c2.5-3.4,4.8-6.5,7.3-9.6c1.2-1.5,2.5-3.1,3.8-4.8c1.4-1.7,2.9-3.4,4.6-5c1.7-1.6,3.4-3.1,5.2-4.5
						C108.6,521.1,110.6,519.7,112.9,518.2z"/>
				</g>
			</g>
		</g>
	</g>
	<g>
		<g>
			<path class="st7" d="M94.5,535.5"/>
		</g>
	</g>
	<g>
		<g>
			<g>
				<g>
					<path d="M111.1,518.6c-1.2,3-3.2,5.5-5.5,7.6c-2.3,2.2-5,3.8-7.8,5.2c-2.8,1.4-5.7,2.3-8.7,3c-3,0.7-5.9,1.1-8.9,1.2
						c-2.9,0.1-5.9,0-8.7-0.3c-2.9-0.3-5.7-0.8-8.5-1.5c-2.8-0.7-5.6-1.6-8.3-2.8c-2.7-1.2-5.3-2.6-7.9-4.5c2.9-1.4,5.8-2.2,8.6-2.8
						c2.8-0.7,5.5-1.2,8.2-1.6c2.7-0.4,5.4-0.7,8.1-0.9c2.7-0.2,5.2-0.3,7.8-0.4c2.5-0.1,5.1-0.2,7.6-0.2c2.5-0.1,5-0.1,7.5-0.3
						c2.5-0.1,5.1-0.2,7.7-0.5C105.2,519.5,107.9,519.1,111.1,518.6z"/>
				</g>
			</g>
		</g>
	</g>
	<g>
		<g>
			<path class="st7" d="M69,522"/>
		</g>
	</g>
	<g>
		<g>
			<g>
				<g>
					<path d="M498.6,566.9c2.8,0,5.1-0.2,7.4-0.5c2.2-0.3,4.3-0.7,6.4-1c2.1-0.3,4.3-0.6,6.7-0.8c2.3-0.2,4.8-0.2,7.3,0
						c4.9,0.3,9.6,1.4,14.1,3c2.3,0.8,4.5,1.8,6.7,3c0.6,0.3,1.1,0.6,1.7,1c0.5,0.3,1.1,0.6,1.9,1.2c0.4,0.3,0.8,0.6,1.1,1
						c0.3,0.4,0.7,0.9,0.8,1.4c0.1,0.5,0.1,1-0.1,1.4c-0.2,0.4-0.5,0.8-0.9,0.8c0-0.7-0.6-1-1-1c-0.2,0-0.3,0.1-0.5,0.2l-0.5,0.3
						c-0.3,0.2-0.9,0.4-1.5,0.6c-0.6,0.2-1.2,0.4-1.8,0.6c-2.4,0.7-4.8,1.1-7.2,1.4c-4.8,0.6-9.4,0.5-13.8,0.1
						c-2.2-0.2-4.4-0.4-6.7-0.8c-2.4-0.4-4.8-0.9-7.3-1.7c-2.5-0.8-5-2-7.3-3.7C501.6,571.7,499.6,569.6,498.6,566.9z"/>
				</g>
			</g>
		</g>
	</g>
	<g>
		<g>
			<g>
				<g>
					<path d="M498.4,575.7c2.5,0.2,4.6,0.9,6.6,1.8c2,1,3.9,2.4,5.5,4.3c0.8,1,1.5,2.1,2.1,3.3c0.6,1.2,1,2.5,1.3,3.7
						c0.6,2.5,0.7,4.8,0.6,6.8c-0.1,2-0.3,3.8-0.6,5.4c-0.3,1.5-0.6,3-0.9,4.6c-0.2,0.8-0.3,1.6-0.5,2.5c-0.1,0.4-0.2,0.8-0.2,1.3
						c0,0.5-0.1,1.1-0.2,1.8c-0.2,1.2-0.5,2.5-1.2,3.8c-0.3,0.6-0.8,1.3-1.4,1.7c-0.6,0.4-1.3,0.6-1.9,0.5c0.2-0.6,0.1-1.2-0.1-1.6
						c-0.2-0.4-0.5-0.7-0.7-1c-0.6-0.6-1.2-1.1-1.8-1.7c-0.3-0.3-0.6-0.6-1-1c-0.3-0.4-0.7-0.9-1-1.4c-0.6-1-1.2-2-1.6-3
						c-0.9-2.1-1.5-4.4-1.7-6.6c-0.2-2.2-0.2-4.1-0.1-5.9c0.1-1.7,0.2-3.1,0.3-4.4c0.1-1.2,0.2-2.2,0.1-3.6c-0.1-1.4-0.3-3.1-0.7-5
						C499,580.3,498.5,578.2,498.4,575.7z"/>
				</g>
			</g>
		</g>
	</g>
	<g>
		<g>
			<g>
				<g>
					<path d="M495.4,567.6c1.3,0.2,2.5,0.5,3.6,1.3c0.6,0.4,1.1,0.9,1.6,1.6c0.5,0.7,0.9,1.6,1,2.7c0.1,1.1-0.1,2.3-0.7,3.4
						c-0.5,1.1-1.2,1.9-1.7,2.5c-0.6,0.6-1,1-1.3,1.4c-0.3,0.4-0.6,0.8-1,1.1c-2.6,2.9-5.2,5.3-7.5,7.5c-1.1,1-2.2,2.1-3.4,3.1
						c-0.7,0.7-1.4,1.4-2.1,2.1c-0.9,0.8-2,1.8-3.3,2.5c-2.5,1.4-4.8,1.9-7,2.1c-2.2,0.1-4.3,0-6.8-0.2c0.6-2.5,2-4.5,3.2-6.3
						c1.2-1.8,2.3-3.2,2.7-4.4c0.2-0.6,0.3-1.1,0.7-1.8c0.3-0.7,0.7-1.6,1.4-2.7c1.3-2.1,2.9-3.9,4.6-5.5c3.5-3.1,7.4-5.2,11.5-6.4
						c0.5-0.1,1-0.3,1.5-0.4c0.6-0.1,1-0.2,1.2-0.2c0.1,0,0.1,0,0.2,0.1l0.1,0l0.1,0.1c0.5,0.5,0.8,0.8,1,0.9c0,0,0.1,0.1,0.1,0.1
						l0.1,0l0,0l0,0l0,0l0,0c0.2,0.1-0.3-0.1-0.2-0.1l0,0l0,0c0,0,0.1,0.1,0.2,0.1c0,0,0.1,0-0.1,0c0,0-0.1,0-0.2,0l-0.1,0
						c0,0,0,0,0.1,0c0.1,0,0.2-0.1,0.3-0.2c0.2-0.2,0.3-0.7,0.4-1.1C495.6,570.1,495.5,568.9,495.4,567.6z"/>
				</g>
			</g>
		</g>
	</g>
	<path class="st3" d="M400.4,497.9c-12.9-18.3-37.5-26.9-58.3-30.5c-13.2-2.3-26.7-2.1-39.2,3.3c-11.3,4.9-24.6,13.3-31.6,24
		c-7,10.8-6,27.6-0.8,39c2.7,6,7.4,10.3,12.3,14.3c5.3,4.3,10.8,8.6,17.6,9.6c0.4,0.1,0.8,0.1,1.2,0.1c8.8,6,20.7,4.2,31,4
		c12.6-0.3,25.9-0.9,38.1-4.3c12.5-3.6,17.9-13.7,24.3-24.5c3-5,6.5-10.1,8.5-15.7C406.1,510.4,404.5,503.7,400.4,497.9z"/>
	<path class="st8" d="M288.4,471c-2.9,2.5-5.2,5.4-7.3,8.5c-2.7-2.2-8.2-1-8.5,3.7c-1,16-10.7,30.3-9.3,46.6
		c0.7,7.6,3.8,13.9,8,20.1c3.1,4.5,7.5,12.6,13.6,12.9c1.6,0.1,3.6-1,4.3-2.5c3-6.3-1.1-13-3.3-19c-2.8-7.5-6-15.1-6.2-23.2
		c-0.3-14.1,4.7-30.6,15.7-40.1C300.4,473.8,293.3,466.7,288.4,471z"/>
	<g>
		<g>
			<path d="M349.9,459.1c-27.3-10.1-58.8-2.6-78.4,19c-9.6,10.6-16.7,24.4-16.9,39c-0.2,14.6,7.4,27.9,16.8,38.6
				c10.1,11.6,22.7,15.4,37.6,16.9c15.7,1.6,31.8,2,47.4,0.2c13.3-1.6,26.5-5.1,36.8-14.1c5.2-4.5,9.2-10.4,12.3-16.5
				c3.5-6.7,6.8-13.8,7.7-21.4c4.3-36.8-41.8-55-70.8-59.1c-3.8-0.5-7.5,0.9-8.6,4.9c-0.9,3.3,1.2,8.1,4.9,8.6
				c12.8,1.8,25.3,5.5,36.7,11.5c10.1,5.3,20.1,12.8,23.3,24.4c3,11.2-4,24.6-10.9,33.2c-6.8,8.3-16.9,12-27.1,13.9
				c-11.9,2.1-24.3,2-36.3,1.6c-11.5-0.5-26.1-0.2-35.9-7.1c-8.5-6-15.9-16.8-18.7-26.8c-3.2-11.5,0.9-23.1,7.5-32.6
				c15.4-22.2,44.1-29.9,69-20.7C354.6,475.7,358.3,462.2,349.9,459.1L349.9,459.1z"/>
		</g>
	</g>
	<g>
		<g>
			<g>
				<g>
					<path d="M350.6,492.4c0.4-0.4,0.1-1-0.3-1.2c-0.4-0.3-1.1-0.3-1.6-0.2c-0.5,0.1-1.1,0.3-1.8,0.4l-1.9,0.4
						c-2.5,0.5-5.1,1-7.6,1.4c-2.5,0.4-4.9,0.8-7,1.4c-1.1,0.3-2.1,0.6-3,1c-0.9,0.4-1.8,0.8-2.7,1.3c-1.8,1-3.5,2.3-5.4,3.7
						l-2.9,2.2c-1,0.8-2,1.5-2.9,2.2c-0.9,0.7-1.6,1.3-2.2,1.9c-0.6,0.6-1,1.2-1.5,1.8c-0.9,1.3-1.5,2.7-1.8,4.2
						c-0.3,1.5-0.4,3-0.2,4.4c0.2,1.5,0.7,3,1.5,4.4c0.8,1.4,1.7,2.5,3,3.6c1.3,1.1,3,2,4.9,2.8c1.9,0.8,4.1,1.4,6.3,1.9
						c2.3,0.5,4.7,0.9,7.2,1.3c5,0.9,10.5,1.9,15.2,4.5c-5.3,0.6-10,1.9-15.1,2.9c-5,1-10.6,1.7-16.6,0.8c-3-0.5-6.1-1.4-9.1-3.1
						c-3-1.6-5.7-4-7.8-6.9c-2.1-2.8-3.5-6.1-4.2-9.6c-0.7-3.5-0.6-7.2,0.2-10.6c0.8-3.4,2.4-6.7,4.5-9.5c1.1-1.4,2.4-2.7,3.6-3.8
						c1.3-1.1,2.6-2,3.8-2.7c1.2-0.8,2.4-1.4,3.5-2c1.1-0.6,2.3-1.3,3.5-1.9c2.4-1.3,5.1-2.5,8-3.4c1.5-0.4,3-0.8,4.6-1
						c1.5-0.2,3-0.3,4.5-0.2c2.9,0.1,5.6,0.5,8.2,1c2.5,0.5,5,1.1,7.6,1.8l1.9,0.5c0.6,0.2,1.3,0.3,2,0.6c0.7,0.3,1.4,0.7,1.7,1.4
						C351.1,490.8,351.2,491.7,350.6,492.4z"/>
				</g>
			</g>
		</g>
	</g>
	<g>
		<g>
			<path d="M292.5,537.7c-1.1,1.3-2.2,2.6-3.3,4c-0.7,0.8-2.1,1.9-2.2,3.1c-0.3,2.2,3.5,3.6,5.1,4.1c1.8,0.6,2.6-2.3,0.8-2.9
				c-0.7-0.2-1.3-0.5-1.9-0.8c-0.2-0.1-0.5-0.3-0.7-0.4c-0.6-0.6-0.7-0.6-0.4-0.1c-0.1,0.4-0.1,0.8-0.2,1.2c0.6-1.1,1.6-2,2.4-2.9
				c0.8-1,1.7-2,2.5-3C295.9,538.4,293.8,536.2,292.5,537.7L292.5,537.7z"/>
		</g>
	</g>
	<g>
		<g>
			<path d="M296.2,546.3c-0.3,0.6-0.7,1.1-1,1.7c-0.4,0.7-0.2,1.6,0.5,2.1c0.7,0.4,1.6,0.2,2.1-0.5c0.3-0.6,0.7-1.1,1-1.7
				c0.4-0.7,0.2-1.6-0.5-2.1C297.5,545.3,296.6,545.5,296.2,546.3L296.2,546.3z"/>
		</g>
	</g>
	<g>
		<g>
			<path d="M299.7,543.7c1.9,0,1.9-3,0-3C297.7,540.7,297.7,543.7,299.7,543.7L299.7,543.7z"/>
		</g>
	</g>
	<g>
		<g>
			<path d="M302.8,543.8c-1.2,2-2.5,4.1-3.7,6.1c-0.4,0.6-0.2,1.7,0.5,2.1c1.2,0.6,2.5,1.2,3.7,1.8c1.7,0.8,3.3-1.8,1.5-2.6
				c-1.2-0.6-2.5-1.2-3.7-1.8c0.2,0.7,0.4,1.4,0.5,2.1c1.2-2,2.5-4.1,3.7-6.1C306.4,543.7,303.8,542.2,302.8,543.8L302.8,543.8z"/>
		</g>
	</g>
	<g>
		<g>
			<path d="M323.1,546.5c-3.4-0.5-10.1,2.3-8.7,6.8c0.7,2.2,3.2,2.7,5.2,3.1c2.4,0.5,4.8,0.5,7-0.8c1.7-1,0.2-3.5-1.5-2.6
				c-2,1.1-4.8,0.8-6.8-0.1c-0.7-0.3-1-0.5-0.9-1.2c0.1-0.6,0.7-0.9,1.3-1.2c0.8-0.4,2.7-1.3,3.7-1.2
				C324.2,549.7,325,546.8,323.1,546.5L323.1,546.5z"/>
		</g>
	</g>
	<g>
		<g>
			<path d="M328.5,552.1c0.1,0.9,0.2,1.9,0.2,2.8c0,1.9,2.9,1.9,3,0c0.1-1,0.3-2,0.8-2.9c0.1-0.1,0.3-0.4,0.3-0.4
				c0.3,0,0.6,0.6,0.7,0.9c0.3,0.7,1,1.3,1.8,1c0.7-0.2,1.4-1.1,1-1.8c-0.8-2-2.8-4-5.1-2.7c-1.9,1.1-2.5,3.9-2.6,5.9c1,0,2,0,3,0
				c0-1.2-0.1-2.4-0.3-3.6c-0.1-0.8-1.1-1.2-1.8-1C328.7,550.5,328.4,551.3,328.5,552.1L328.5,552.1z"/>
		</g>
	</g>
	<g>
		<g>
			<path d="M340.2,547.2c-1.7,0.7-3.1,2.4-3.6,4.2c-0.5,2.1,0.4,4,2.5,4.4c4.2,0.9,6.8-4.3,3.7-7.2c-1.4-1.3-3.5,0.8-2.1,2.1
				c0.9,0.8,0.3,2.8-1.1,2.1c-0.6-0.2-0.1-1.2,0.2-1.6c0.4-0.7,1-1.1,1.8-1.5c0.8-0.3,0.9-1.4,0.5-2.1
				C341.8,547,340.9,546.9,340.2,547.2L340.2,547.2z"/>
		</g>
	</g>
	<g>
		<g>
			<path d="M351.2,547.8c-2.8-2.2-7.9,0.8-6.1,4.4c0.7,1.3,2.7,2.6,4.2,2.4c2.2-0.2,2.1-3.4,2.4-5c-0.9,0.1-1.8,0.2-2.7,0.4
				c1.2,1.6,2.8,3.6,4.8,4.4c1.9,0.8,3.8-0.6,5.5-1.4c1.8-0.8,0.2-3.4-1.5-2.6c-1,0.5-2.2,1.3-3.3,0.9c-1.1-0.4-2.3-2-2.9-2.8
				c-0.7-0.9-2.5-1.1-2.7,0.4c-0.2,0.9-0.5,2-0.5,2.9c-0.1,0.7-0.1,0.6,0.2-0.4c-1-0.7-0.8-1.2,0.6-1.4
				C350.6,551.1,352.7,549,351.2,547.8L351.2,547.8z"/>
		</g>
	</g>
	<g>
		<g>
			<path d="M358.7,542.7c0,2.6-0.1,5.2-0.1,7.8c0,1.9,3,1.9,3,0c0-2.6,0.1-5.2,0.1-7.8C361.7,540.8,358.7,540.8,358.7,542.7
				L358.7,542.7z"/>
		</g>
	</g>
	<g>
		<g>
			<path d="M360.8,549.9c2-1.1,4.5-2.4,5.5-4.4c0.9-1.7,0.4-4-1.3-5c-1.7-1-3.2,1.6-1.5,2.6c1.7,1-3.6,3.9-4.2,4.2
				C357.6,548.2,359.1,550.8,360.8,549.9L360.8,549.9z"/>
		</g>
	</g>
	<g>
		<g>
			<path d="M363.9,547.5c2.1,0.4,3.8,1.7,4.4,3.7c0.6,1.8,3.5,1.1,2.9-0.8c-0.9-3-3.4-5.3-6.5-5.8
				C362.8,544.3,362,547.1,363.9,547.5L363.9,547.5z"/>
		</g>
	</g>
</g>
<g id="Layer_10">
	<g>
		<path class="st9" d="M447.6,292.3c2.8-4.7,5.3-9.5,7.8-14.4c1.2-2.4,2.4-4.9,3.7-7.3l1.8-3.7l0.9-1.8c0-0.1,0.1-0.1,0-0.3
			l-0.5-0.6c-0.1-0.1-0.1-0.2-0.1-0.2c0,0,0-0.1,0.1-0.1l0.1-0.2l0.5-0.9c2.8-4.7,5.7-9.3,8.7-13.9c3-4.6,6-9.1,9.2-13.6l0.9,0.5
			c-2.1,5.1-4.4,10-6.8,14.9c-2.4,4.9-4.8,9.8-7.3,14.6l-0.5,0.9l-0.1,0.2c0,0,0,0.1-0.1,0.1c0,0-0.1,0-0.2,0l-0.8-0.1
			c-0.2,0-0.2,0.1-0.3,0.1l-1.1,1.7l-2.2,3.4c-1.5,2.3-2.9,4.6-4.3,6.9c-2.9,4.6-5.6,9.3-8.2,14.1L447.6,292.3z"/>
	</g>
	<g>
		<path class="st9" d="M479.7,289.9c-3.1-3.6-6.1-7.4-8.9-11.2c-2.9-3.8-5.7-7.7-8.4-11.6c-2.7-3.9-5.4-7.9-8-11.9
			c-2.6-4-5.2-8-7.6-12.2l0.8-0.6c3.1,3.7,6,7.4,8.9,11.3c2.9,3.8,5.7,7.7,8.4,11.6c2.8,3.9,5.4,7.8,8.1,11.8c2.6,4,5.2,8,7.5,12.2
			L479.7,289.9z"/>
	</g>
	<g>
		<path class="st9" d="M275.6,482.7c5.2-1.6,10.4-3.3,15.5-5.2c2.6-0.9,5.1-1.9,7.7-2.9l3.8-1.5l1.9-0.7c0.1,0,0.2,0,0.2-0.2l0-0.8
			c0-0.1,0-0.2,0.1-0.2c0,0,0.1,0,0.1,0l0.2-0.1l1-0.3c5.2-1.5,10.5-2.9,15.8-4.2c5.3-1.3,10.6-2.6,16-3.7l0.3,1
			c-5,2.2-10.1,4.3-15.2,6.3c-5.1,2-10.2,3.9-15.3,5.7l-1,0.3l-0.2,0.1c0,0-0.1,0-0.1,0c0,0-0.1-0.1-0.2-0.2l-0.5-0.6
			c-0.1-0.2-0.2-0.1-0.3-0.1l-2,0.5l-4,1c-2.6,0.7-5.3,1.4-7.9,2.1c-5.3,1.4-10.5,3-15.6,4.7L275.6,482.7z"/>
	</g>
	<g>
		<path class="st9" d="M300.7,502.9c0.2-4.8,0.6-9.5,1.1-14.3c0.5-4.7,1.1-9.5,1.8-14.2c0.7-4.7,1.4-9.4,2.2-14.1
			c0.8-4.7,1.7-9.4,2.8-14.1l1,0.1c-0.2,4.8-0.7,9.5-1.2,14.3c-0.5,4.7-1.1,9.5-1.7,14.2c-0.6,4.7-1.4,9.4-2.2,14.1
			c-0.8,4.7-1.7,9.4-2.8,14.1L300.7,502.9z"/>
	</g>
</g>
</svg>
