<?xml version="1.0" encoding="utf-8"?>
<!-- Generator: Adobe Illustrator 22.1.0, SVG Export Plug-In . SVG Version: 6.00 Build 0)  -->
<svg version="1.1" xmlns="http://www.w3.org/2000/svg" xmlns:xlink="http://www.w3.org/1999/xlink" x="0px" y="0px"
	 viewBox="0 0 1395.6 1246.4" style="enable-background:new 0 0 1395.6 1246.4;" xml:space="preserve">
<style type="text/css">
	.st0{fill:#3A9601;}
	.st1{fill:#3A8D01;}
	.st2{fill:#E8D9CA;}
	.st3{fill:#316800;}
	.st4{fill:#A6DDA6;}
	.st5{fill:#85B585;}
	.st6{fill:#BDEAB0;}
	.st7{fill:#ADB24D;}
	.st8{fill:#565656;}
	.st9{fill:#306600;}
</style>
<g id="Color">
	<g>
		<path class="st0" d="M1201.9,1027.3c26.1-103.2,46.1-208.7,46.6-315.1c0.6-106.5-18.9-214.4-68.1-308.8
			c-36-69.2-87.2-129.8-146-181c-86.6-75.4-190.2-131-300.9-161.5c-193.2-53.2-397.8-29.1-598-23.2C91.8,38.9,43.8,38,10.2,9.9"/>
		<g>
			<g>
				<g>
					<path d="M1201.9,1027.3c17.9-79.2,32.5-159.3,38.1-240c2.8-40.3,3.3-80.8,0.8-121c-1.2-20.1-3.3-40.1-6.1-60l-1.1-7.5
						c-0.4-2.5-0.7-5-1.2-7.4l-2.6-14.8c-0.4-2.5-0.9-4.9-1.4-7.4l-1.5-7.4l-1.5-7.4l-1.7-7.3l-1.7-7.3l-0.9-3.7
						c-0.3-1.2-0.6-2.4-1-3.6l-3.9-14.5c-1.4-4.8-2.9-9.6-4.3-14.4c-0.7-2.4-1.4-4.8-2.2-7.2l-2.4-7.1l-2.4-7.1
						c-0.4-1.2-0.8-2.4-1.2-3.5l-1.3-3.5l-5.3-14c-3.9-9.2-7.5-18.5-11.8-27.5l-3.1-6.8l-0.8-1.7l-0.8-1.7l-1.7-3.3
						c-2.3-4.5-4.5-8.9-6.8-13.4c-2.4-4.4-4.7-8.8-7.2-13.1c-2.5-4.3-5-8.7-7.6-12.9c-10.3-17.1-21.6-33.6-33.8-49.5
						c-24.1-31.9-51.4-61.4-80.9-88.4c-3.7-3.4-7.4-6.7-11.2-10c-3.7-3.4-7.6-6.5-11.4-9.8l-5.7-4.8c-1-0.8-1.9-1.6-2.9-2.4
						l-2.9-2.3l-11.8-9.4c-3.9-3.1-8-6-12-9.1l-6-4.5c-2-1.5-4.1-2.9-6.1-4.4l-12.3-8.7l-12.5-8.3C880.8,124.8,807,91.1,729.7,69.7
						c-19.3-5.4-38.9-10-58.6-14c-4.9-0.9-9.8-2-14.8-2.9l-14.9-2.6c-9.9-1.6-19.9-3.2-29.9-4.5c-20-2.7-40-4.9-60.1-6.5
						c-20.1-1.6-40.3-2.8-60.4-3.6C410.3,32.5,329.2,35.4,248,38c-40.6,1.2-81.2,2.5-121.9,2.7c-20.4,0-40.9-0.9-61-5.1
						c-10-2.1-19.9-5.1-29.2-9.3c-9.3-4.2-18.1-9.6-25.7-16.3c8,6.3,16.9,11.2,26.3,14.9c9.4,3.7,19.2,6.2,29.1,7.8
						c19.9,3.2,40.2,3.2,60.4,2.4c40.5-1.8,81-4.5,121.6-7c81.1-5,162.4-9.8,244-8.2c20.4,0.4,40.8,1.2,61.2,2.5
						c20.4,1.3,40.8,3.3,61.1,5.7c10.2,1.2,20.3,2.7,30.4,4.2l15.2,2.5c5.1,0.8,10.1,1.8,15.1,2.8c20.2,3.9,40.2,8.3,60.1,13.6
						c79.4,21.6,155.2,55.8,224,101l12.8,8.6l12.6,8.9c2.1,1.5,4.2,3,6.3,4.5l6.2,4.7c4.1,3.1,8.2,6.2,12.3,9.4l12,9.7l3,2.4
						c1,0.8,2,1.7,2.9,2.5l5.9,5c3.9,3.3,7.9,6.6,11.7,10.1c3.8,3.4,7.7,6.8,11.4,10.3c30.2,27.9,58.2,58.4,83,91.4
						c12.3,16.6,23.8,33.8,34.3,51.5c2.6,4.4,5.1,9,7.7,13.4c2.5,4.5,4.9,9.1,7.3,13.7c2.3,4.6,4.6,9.3,6.8,13.9l1.7,3.5l0.8,1.7
						l0.8,1.8l3.1,7.1c4.3,9.4,8,19,11.9,28.6l5.2,14.5l1.3,3.6c0.4,1.2,0.8,2.4,1.2,3.7l2.4,7.4l2.4,7.4c0.8,2.4,1.4,4.9,2.2,7.4
						c1.4,5,2.9,9.9,4.2,14.9l3.7,15c0.3,1.2,0.6,2.5,0.9,3.7l0.8,3.8l1.6,7.5l1.6,7.5l1.4,7.6l1.4,7.6c0.5,2.5,1,5,1.3,7.6
						l2.4,15.2c0.4,2.5,0.7,5.1,1,7.6l1,7.6c2.4,20.4,4.2,40.8,4.9,61.3c1.6,40.9-0.1,81.9-4.1,122.5c-2.1,20.3-4.7,40.5-7.9,60.7
						c-3.2,20.1-6.9,40.2-11,60.1c-4.2,19.9-8.7,39.7-13.6,59.5C1212.6,988.1,1207.4,1007.7,1201.9,1027.3z"/>
				</g>
			</g>
		</g>
	</g>
	<path class="st1" d="M1081.4,879.6c4.7,5.2,9.5,10.4,15.1,14.7c5.2,4,10.8,7.4,15.6,11.9c4.7,4.4,8.7,9.5,13.2,14.1
		c5.1,5.2,10.4,10,15.6,15.2c9.4,9.4,18.3,18.9,30.6,24.7c10.8,5.1,27.8,9.6,39.2,4.1c1.5-0.7,3.3-0.4,4.6,0.5c0,0.1,0,0.2,0,0.4
		c-0.9,3.9-1.1,8.3-1.7,12.3c-0.2,1.1-0.4,2.1-0.6,3.2c-1.2,4.4-2.4,8.7-3.4,13.1c-0.7,4.2-1.6,8.3-2.8,12.4c-1,3.6-5.1,3.5-6.9,1.2
		c-2.1,2.1-6.7,0.5-6.9-3c0-1-0.1-2.1-0.1-3.1c-1.3,0.6-3,0.5-4.2-0.2c-1.9-0.5-3.4-2.3-2.7-4.8c0.5-1.9,1-3.8,1.4-5.7
		c-0.1-0.1-0.2-0.2-0.3-0.4c-0.9,0.7-2.1,1.1-3.5,0.7c0,0-0.1,0-0.1,0c-0.1,0.2-0.2,0.4-0.3,0.6c-1.6,3.2-6.3,2.1-7.3-1
		c-0.5-1.7-0.7-3.7-0.5-5.6c-0.2-0.2-0.4-0.3-0.6-0.5c-1.5,1.2-3.8,1.5-5.5,0c-2.1-1.8-4-3.7-6-5.7c-1.3,0.7-2.9,0.6-4.4-0.8
		c-11.3-11.1-22.3-22.5-28.5-37.3c-0.6-1.4-0.2-2.7,0.8-3.6c-7.3-7.3-14.6-14.6-21.7-22.1c-5.2-5.5-11.4-9.4-17.4-14
		c-1-0.8-2-1.6-3-2.5c-0.6,0.4-1.4,0.7-2.1,0.6c-1.1,0-1.9-0.4-2.7-1.1c0.2,0.1,0.4,0.3,0.6,0.4c-1.3-1-2.8-1.6-3.9-2.9
		c-0.7-0.8-1.2-1.7-1.2-2.8c0-0.8,0.3-1.7,0.8-2.4c-1.6-1.7-3.1-3.3-4.7-5C1072.3,881.5,1078,875.8,1081.4,879.6z"/>
	<path class="st1" d="M14.3,16.1c0.3-0.7,0.7-1.4,0.7-2.2c0.1,0,0.2,0,0.3,0c0.4,0.4,1,0.7,1.4,1.1c0.5,0.4,1.2,0.7,1.6,1.2
		c0.1,0.1,0.2,0.1,0.2,0.2c0.2,0.2,0.4,0.4,0.6,0.5c1.7,1.4,3.4,2.8,5.2,4.1c4.4,2.2,8.1,5.6,12.3,8.3c3.3,2.1,7,3.9,10.1,6.3
		c0.2,0.1,0.3,0.2,0.5,0.3c66.6,47.5,127.6,102,186.8,158.3c6.2,12.3,19.2,18.3,30.5,25.3c10.8,6.8,19.9,14.9,27.4,25.3
		c2.6,3.6,5.1,7.3,7.6,11c5.2,3.1,9.4,7.5,13.8,11.7c5.8,5.5,11.9,10.4,18.1,15.4c1.6,0.5,3.1,1,4.7,1.4c-0.9,1.4-2.5,2.3-4.7,2.1
		c-6.8-0.4-12.4,3-18.1,6.3c-3.4,2-6.6,0.3-8.1-2.3c-5.6,1.3-11.8-2.4-13.9-8.2c-1-2.7-2.1-5.4-3.3-8c-2.9,0-5.7-1.1-7.9-3.3
		C219.3,211.7,158.4,152.4,92.3,99c-18.5-15-37.4-29.4-56.8-43.2c-4.8-3.4-7.2-9.4-4.6-14.9c-4.7-3.3-9.8-6-14.2-9.9
		c-2.5-2.1-2.2-6.3,0-8.5c0.4-0.4,0.8-0.7,1.2-0.9c-0.2-0.3-0.4-0.5-0.6-0.8c-0.2,0.1-0.3,0-0.5-0.1c-0.3-0.3-0.5-0.6-0.8-0.9
		c-0.2,0.1-0.5,0-0.6-0.2c-0.1-0.1-0.2-0.3-0.3-0.4c-0.2,0-0.3,0-0.4-0.2c-0.1-0.2-0.1-0.3-0.2-0.4c-0.3,0.2-0.7,0.2-0.8-0.2
		c0,0,0-0.1,0-0.1C14.1,17.6,14,16.8,14.3,16.1z"/>
	<path class="st1" d="M1024,942.3c12.8-11.9,24.6-24.9,35.3-38.7c6.4-8.2,19-10.6,28.6-9.4c9.9,1.3,20.1,6.9,24.8,16.2
		c1.7,3.3,3.5,6.6,5.4,9.8c2.2-0.1,4.5,0.8,6,3.4c7.9,13.3,16.7,26.1,27.1,37.5c6.2,3.3,11.5,8.3,15,14.3c3.6,3,7.4,5.8,11.1,8.7
		c6.6,2.3,12.3,6.5,16.8,12.3c0.8,1,1.5,2.1,2.2,3.2c0.8,0.8,1.6,1.5,2.4,2.3c0.4,0.2,0.9,0.4,1.4,0.6c2.6,0.8,5.1,0.9,7.6-0.3
		c0,0,0,0,0,0c-0.3,0.5-0.5,1.2-0.7,1.8c0,0,0,0,0,0c0,0,0,0,0,0c-0.3,1.1-0.4,2.3-0.6,3.3c0,0,0,0.1,0,0.1c0,0.1,0,0.1-0.1,0.2
		c0,0,0,0,0,0.1c-0.4,1.8-0.7,3.7-1.2,5.5c-0.2,0.2-0.3,0.5-0.3,0.8c0,0.1,0,0.2,0,0.3c0,0,0,0,0,0c-0.1,0.8-0.2,1.7-0.4,2.5
		c-0.4,1.5-0.8,2.9-1.1,4.4c-0.2,1-0.6,2-0.7,3c-0.1,0.2-0.1,0.5-0.1,0.7c0,0.3,0.1,0.7,0.4,0.9c0,0,0.1,0,0.1,0.1
		c0,0,0.1,0.1,0.1,0.2c0.7,0.3,1.3,0.7,2,1c0.3,0.1,0.3,0.4,0.2,0.6c15.8,7.9,31.1,16.3,44.8,27.6c15.1,12.4,28.6,26.8,42.5,40.4
		c7.3,7.1,14.6,14.3,21.9,21.4c3.3,3.2,6.6,6.4,9.9,9.7c3.3,3.2,6.8,6.1,8.1,10.4c1.8,0.1,3.6,0.7,5.4,1.6
		c8.5,4.6,14.8,11.6,21.1,18.7c5.9,6.7,12.3,13.1,19.4,18.5c1.9,1.5,3.6,3.1,4.8,5c0.4-0.1,0.9,0,1.4,0.4c3,3.4,6.6,6.3,9.8,9.5
		c0.1,0.1,0.1,0.1,0.1,0.2c0.4,0.2,0.8,0.5,0.9,0.9c0.2,0.6-0.4,0.9-0.9,0.9c0,0,0,0,0,0c-0.5,0.6-1.3,0.9-2,0.4
		c-0.1,0.1-0.3,0.2-0.5,0.2c-2,0.3-3.9,0.7-5.8,1.1c-1.1,0.2-2.4,0.7-3.5,0.7c-1.7,2.6-4.3,4.7-7.5,5.5c-5.3,1.3-10.5,2.9-15.6,5
		c-1.8,0.7-3.8,1.5-5.4,2.7c0.1,0-0.5,0.7-0.8,1c0,0.1-1.5,2.5-1.5,2.5c-1.7,2.8-4.4,4.8-7.3,5.8c-3.7,5.5-9.3,9.5-15.6,11.5
		c0,0.1-0.1,0.3-0.2,0.4c-2.1,3.4-4.9,6.5-7.2,9.8c-1,1.4-2.4,4.3-4.4,4.4c0,0-0.1,0-0.2,0c0.4,1-0.6,1.9-1.6,1.9
		c-0.1,0-0.2,0.1-0.3,0c-0.3-0.1-0.5-0.3-0.6-0.5c0,0,0,0-0.1-0.1c0,0,0,0,0,0c0,0,0,0,0,0c-0.1-0.1-0.1-0.1-0.2-0.2
		c-0.4-0.6-0.8-1.2-1.2-1.8c-0.3,0-0.6-0.2-0.9-0.4c-1.2-1.2-2.3-2.5-2.9-4.2c-2.4-2.1-4.4-4.5-6.1-7.3c-0.4-0.6-0.3-1.2,0.1-1.6
		c-3-3.6-6.1-7.2-8.6-11.2c-0.2-0.4-0.3-0.8-0.2-1.1c-1.6-1.6-3-3.4-4.3-5.2c-2.9-0.6-5.4-2.5-7.4-5c-20-26.5-40-53-60-79.6
		c-9-11.9-18-23.8-28.6-34.4c-8.2-8.2-17-15.9-25.4-24c-2.1-0.7-4-2-5.4-4.3c0-0.1-0.1-0.1-0.1-0.2c-6.4-1.3-11.8-4.2-17.3-8.5
		c-5,0.6-10,0.9-15,0.5c-9.1-0.8-17.4-3.3-24-10c-5.7-5.7-10.1-15-10-23.3c-7.7-0.6-15.8-1.5-22.5-5.8c-7.5-4.8-12.8-11.5-15.5-19.6
		c-12,4.1-25.9,2.1-35-7.8C1011.9,977.1,1010.1,955.2,1024,942.3z"/>
	<g>
		<path class="st1" d="M1161.4,1060.7c-5.5,34.3-47.6,46.7-81.9,51.9c-147.4,22.3-299.4,44.4-444.1,8.4
			c-200.1-49.7-359.6-205.6-465.9-382.2C90.7,607.9,35.4,462.1,13.8,310.8C0,213.7,0,114.6,13.9,17.5"/>
		<g>
			<g>
				<g>
					<path d="M1161.4,1060.7c-0.7,5-2.2,9.8-4.5,14.3c-2.3,4.5-5.5,8.5-9.1,12.1c-3.6,3.6-7.7,6.6-12,9.3c-4.3,2.7-8.9,5-13.5,6.9
						c-9.3,4-19.1,6.8-28.9,9.1c-4.9,1.1-9.9,2.1-14.9,2.9l-14.8,2.5c-39.5,6.8-79.1,13.2-118.9,18.3c-39.8,5.1-79.9,8.9-120.2,10.3
						c-40.3,1.3-80.8,0.2-121-4.6c-20.1-2.3-40.2-5.7-60-10.1c-9.9-2.1-19.7-4.8-29.6-7.4l-14.6-4.3l-3.7-1.1l-3.6-1.2l-7.2-2.4
						c-19.2-6.5-38.2-13.8-56.7-22.3c-4.7-2-9.2-4.3-13.8-6.5c-4.6-2.2-9.2-4.4-13.7-6.8c-4.5-2.4-9-4.6-13.5-7l-13.3-7.4
						c-17.6-10.2-34.7-21.1-51.4-32.6c-16.6-11.6-32.8-23.9-48.5-36.7c-31.3-25.8-60.7-53.8-88.1-83.6
						c-54.5-59.8-101.3-126.4-140.9-196.6c-39.3-70.4-72.2-144.6-96.3-221.5c-12.1-38.4-22.2-77.6-29.9-117.1
						c-7.7-39.5-13.2-79.5-16.2-119.6c-5.9-80.2-2.1-161.1,11.2-240c-9.2,79.6-9.8,159.9-1.4,239.2c8.4,79.3,25.8,157.4,51.2,232.7
						c25.5,75.3,58.3,148.1,98,217c39.3,69,85.6,134.1,139.2,192.4c26.7,29.3,55.3,56.8,85.7,82c15.3,12.6,31,24.6,47.1,36
						c16.2,11.3,32.8,21.9,49.9,31.9l12.8,7.4c4.3,2.4,8.7,4.7,13,7c4.3,2.4,8.8,4.5,13.2,6.7c4.4,2.2,8.8,4.4,13.3,6.4
						c17.8,8.4,36.2,15.7,54.8,22.2l7,2.4l3.5,1.2l3.5,1.1l14.1,4.4c9.5,2.6,19,5.3,28.6,7.5c19.2,4.6,38.6,8.2,58.2,11
						c39.2,5.4,78.9,7.4,118.7,7c39.8-0.3,79.6-3,119.3-6.9c39.8-3.8,79.4-8.9,119.2-14l14.9-1.9c4.9-0.6,9.8-1.3,14.7-2.2
						c9.8-1.8,19.4-4.1,28.7-7.6c4.6-1.7,9.2-3.7,13.5-6.1c4.3-2.4,8.4-5.1,12.1-8.4c3.7-3.3,7-7.1,9.5-11.3
						C1158.7,1070.3,1160.5,1065.6,1161.4,1060.7z"/>
				</g>
			</g>
		</g>
	</g>
	<path class="st2" d="M299.5,423c5.4,12.5,16.7,20.1,24.2,31.1c7.7,11.3,16.7,20.6,27.1,29.6c2.9,2.5-1.3,6.8-4.2,4.2
		c-10.2-8.9-19.4-18.2-27-29.4C311.7,447,300,439,294.4,426C292.8,422.5,298,419.4,299.5,423z"/>
	<g>
		<path class="st3" d="M575.1,877.4c-0.1,5.6,1.7,11.7,5,16.1c4.3,5.8,11.6,6.6,18.2,4.4c7-2.4,12.5-7.3,18.4-11.6
			c7.2-5.1,15.1-8.8,23.3-12c8.4-3.3,16.2-7,25.2-8.4c9.1-1.4,18.3-1.6,27.5-1.3c18.5,0.5,36.7,2.3,54.8,5.8
			c8.5,1.6,17.2,2.8,25.5,5c19,8,38.7,15.1,55.3,27.4c3.1,2.3,6.2,0.7,7.6-2c3.8,2,7.6,4,11.5,6c12.4,6.2,25.1,11.7,38.4,15.6
			c14.7,4.3,29.9,6.2,45.1,7.9c16.4,1.9,32.4,4.4,48.4,8.7c7.1,1.9,14.3,3.9,21.6,4.8c6.2,0.7,11.8,0.6,16.9-0.5
			c21-4.6,38.5-21.5,44-42.1c1.5-5.7,1.9-9.7,1.6-16c-0.4-6.4-1.5-12.7-1.5-19.2c0.2-16.1,8.3-27.7,22.7-34.4
			c5.5-2.6,11.1-5,15.6-9.2c4.2-4.1,6.7-8.9,9.4-14.1c3.5-6.7,8.2-12.6,15.4-15.6c3.4-1.4,6.7-1.9,10.3-2.5c1.2-0.2,3.2-0.5,4-0.8
			c0.1,0,2.1-1.4,1.8-1c0.3-0.3,0.6-0.6,0.9-1c0-0.1,0.1-0.2,0.2-0.4c0.3-0.6,1.4-2.7,1.3-2.4c0.4-1.1,1.3-4.7,1.7-7
			c-0.1,0.6,0.2-2,0.2-2.4c0.1-1.3,0.2-2.7,0.2-4c0.1-2.8,0-5.5,0.1-8.3c0.4-12.1,2.9-25.6,12-34.3c5.3-5,11.9-7.3,19.1-7.8
			c2.6-0.2,5.1,0,7.7,0.1c1.3,0.1,2.5,0.2,3.8,0.2c0.3,0,0.9,0,1.6,0c-0.1-2.5-0.2-6.3-0.3-7.1c-1-6.9-2.9-14-5.6-20.5
			c-2.6-6.4-6.2-12.3-10.2-17.9c-3.8-5.3-0.9-13.4,4.3-16.4c6-3.5,12.6-1,16.4,4.3c9.1,12.7,15.5,27.8,18.1,43.3
			c1.4,8.5,3,17.8-0.7,25.9c-3.5,7.7-10.8,11.4-18.9,12.2c-5,0.5-12-0.7-15.8-0.3c0.4,0-1.1,0.4-1.7,0.4c-0.3,0.3-1.4,1-1.4,0.9
			c-0.4,0.4-0.8,1-0.9,1.1c-0.6,1-1.5,2.9-1.2,2.2c-2.3,5.8-2.4,9-2.5,14.9c-0.1,6.6-0.3,13-1.3,19.5c-2.3,14.2-11,26.6-25.8,29.4
			c-2.3,0.4-6.6,0.6-8.2,1.4c-1.7,0.9-2.7,3.3-4,5.8c-3.4,6.5-6.9,12.6-12,17.9c-5.2,5.3-11.4,9.4-18.1,12.5
			c-5,2.3-11.5,4.3-13.5,9.3c-0.5,1.4-0.7,3.6-0.7,6c0,3.6,0.3,7.2,0.7,10.8c0.7,6.6,1.2,12.9,0.4,19.5c-3.2,27.1-21,52.1-45.7,64
			c-12.9,6.2-27,9.1-41.4,7.5c-16.9-1.9-32.9-7.9-49.7-10.7c-16.6-2.9-33.4-3.8-50.1-6.7c-15.7-2.7-30.6-7.5-45.2-13.7
			c-28.4-12-54.5-28.7-81.9-42.7c-9.9-5.1-20-10.1-30.6-13.6c-3-1.8-6.2-3.5-9.6-4.8c-13.9-5.5-28.9-7-43.6-5.2
			c-15.2,1.9-29.5,6.8-42.9,14.1c-6.4,3.5-12.5,7.5-18.6,11.5c-3.1,2-6.3,3.8-9.1,6.1c-0.3,0.2-0.6,0.5-0.8,0.7
			c-12.4,3.5-25.3,5.2-35.6-3.5C576.1,894.1,573,885.4,575.1,877.4z"/>
		<path class="st3" d="M1191.3,721.2C1191.3,721.2,1191.2,721.2,1191.3,721.2C1191.2,721.2,1191.3,721.2,1191.3,721.2z"/>
	</g>
	<path class="st4" d="M222.5,750.4c1.9-4.8,4-9.6,8.3-12.6c3.6-2.5,7.6-5.4,11.6-7c4.3-1.7,9.2-2.4,13.6-3.4
		c9.6-2.3,19.6-2,29.4-2.9c10.4-0.9,20.7-2.2,31.1-3.3c2.1-0.2,4-0.9,5.6-2.1c4.1-1.5,7.7-4,9.8-7.9c3.5-6.6,4.4-16.9,2.1-24
		c-4.5-14-23-20.2-35.6-24.2c-4.4-1.4-8.9-2.6-13.5-3.7c-1.7-1.5-3.4-3.1-5.2-4.5c-6-5-12.2-9.6-18.6-14
		c-5.8-4.1-11.8-8.1-16.5-13.5c-3.8-4.4-6.4-9.6-10.3-14c0-5.1-0.5-10.4-0.1-15.1c0.5-5,2.6-8.9,3.9-13.6c0.8-2.7,0.6-5.1-0.1-7.8
		c0-0.1,0-0.1,0-0.2c0.2-0.8,0.4-1.5,0.5-2.3c0-0.1,0.2-1.1,0.3-1.6c0.3-0.4,0.7-1,0.9-1.1c2.7-2.9,5.1-6.3,8.8-8
		c6.5-3,15.5,0.3,21.3,3.6c3.7,2.1,5.3,4.9,7.6,8.3c2.9,4.2,6.1,8.1,9.3,12.1c5.9,7.2,11.5,14.2,15.6,22.6c1.1,2.2,3.2,3.6,5.5,4.2
		c0.7,1.4,1.7,2.8,2.9,4.2c4.5,4.9,11.1,9.5,16.7,13c6.3,4,12.9,7.3,19.1,11.6c6.2,4.4,12.6,8.4,20,10.6c1.4,0.4,2.8,0.4,4.1,0.2
		c6.5,5.9,18.8-2.6,13.9-12c-1.6-3.1-3.2-6.1-4.9-9.1c-0.8-1.9-1.8-3.7-3.1-5.3c-6.1-10.1-13.2-19.6-22.1-27.8c-2.8-2.6-5.4-5.3-8-8
		c-2.6-5.2-4.6-10.7-5.3-16.1c-0.1-0.9-0.3-1.9-0.4-2.9c0.4-1,0.8-2.1,1.1-3.2c1-3.1,2-6.3,3.2-9.4c1.5-3.7,2.9-6.5,5.1-8.8
		c1.1-2,2.9-3.6,5.4-4.1c5-2.6,10.8-1.6,16.4-1.2c0.3,0.4,0.7,0.7,1.2,1c3.1,2.1,5.8,3.7,8.1,6.7c2,2.7,3.6,5.5,5.1,8.4
		c3.1,6.2,6.5,11.8,10.4,17.4c0.7,4.1,2.3,8.3,3.8,12c4.7,11.7,10.1,23.4,15.6,34.7c0.9,7.6,5,15,9.1,21.4
		c4.3,6.7,9.8,13.1,15.4,18.8c11.1,11.1,24.9,16.2,40.4,16.6c7.7,0.2,15.7-0.3,23.2-1.6c4.9-0.8,11.2-2,14.7-5.9
		c9.5,4.4,17.5-10.5,8-16.7c-5.9-3.8-12.4-6.7-18.3-10.7c-6.1-4.1-11.4-9-16.4-14.5c-4.9-5.4-9.4-11.5-14.8-16.4
		c-3.6-3.2-7.4-6.3-11.3-9.3c-1.5-1.5-3-3-4.6-4.4c-1.5-1.3-3.1-2.6-4.6-4c-1.2-1.5-2.5-3.1-3.7-4.7c-2.9-3.8-5.9-7.4-10-9.9
		c-0.3-0.3-0.6-0.6-0.9-0.9c-8.7-7.9-19.3-16.8-31-19.7c-0.2,0-0.3-0.1-0.5-0.1c-3.6-2.2-7.3-4.4-10.1-7.7
		c-5.1-6.2-7.2-13.7-10.4-20.8c0.2-0.6,0.3-1.2,0.4-1.8c-0.1-0.5-0.3-1-0.3-1.5c-0.1-1.3-0.3-2.7-0.4-4c-0.1-0.9,0-1.6,0.2-2.5
		c0-0.1,0-0.1,0-0.2c0-0.1,0-0.2,0-0.3c0-0.1-0.1-0.2-0.1-0.3c0.1-0.4,0.2-0.8,0.2-1.1c0.1-0.6,0.2-1.1,0.1-1.7
		c-0.2-1.1-0.9-2-1.9-2.6c-1.4-0.8-2.9-1.5-4.4-2.2c-2.7-2-5.8-3.5-8.6-5.3c-9.3-6-18-12.9-27.4-18.9c-5.9-6.5-12.8-12.2-19.6-17.9
		c-10.5-8.8-19-18-26.3-29.6c-8.1-12.8-14.9-25.9-20.9-39.9c-6-14-8.5-30.2-9.4-45.4c-0.3-4.8-0.4-9.7-0.5-14.5
		c0.1-0.6,0.3-1.2,0.4-1.7c0.7-2.6,1.4-5,2-7.5c2-3.3,4.3-6.5,7-9.6c8.3-9.7,15.2-20.6,25-28.9c4-3.4,8.2-7,13.2-8.8
		c4.5-1.6,9.3-2.1,14-3.1c6.9-1.5,13.7-3.8,20.3-6.6c5.1-1.3,10.4-4.4,14.5-6.1c4.1-1.7,7.8-3.6,11.6-5.8c3-1.7,6.5-2.5,9.4-4.2
		c0.7-0.4,1.5-0.9,2.2-1.4c0.7-1.4,1.8-2.7,3.2-3.6c0.1-0.1,0.2-0.2,0.3-0.3c0.4-0.5,0.8-0.9,1.2-1.3c0.7-1.2,1.8-2.1,3-2.8
		c0.4-0.4,0.8-0.7,1.3-1c2-2.4,4-4.8,6.1-6.8c6-5.9,12.2-11.8,18.2-17.7c0.9-0.9,1.7-1.7,2.4-2.6c8-5.5,15.4-11.8,24-16.4
		c4.8-2.6,10.1-4.8,15.2-6.7c4.1-1.5,8-2,12.2-2.3c3.2,0.3,6.4,1,9.4,2.8c4.6,2.6,9.5,4.2,14.5,6c9.9,3.6,19.3,8.6,29.2,12.3
		c0.7,0.3,1.3,0.4,1.9,0.4c0.2,0.2,0.4,0.3,0.7,0.5c1.5,1.1,3.4,1.2,5.1,0.6c3.8,1.1,8.5-1,8.8-5c2.2-1.2,4.2-2.7,6.2-4.3
		c6.7-1.2,12.8-1.8,19.7,0c8.7,2.2,18.2,4.5,26.1,8.7c7.7,4.1,14.8,9.3,22.4,13.4c5.9,3.2,15.2,8.3,20.8,2.6
		c5.7-2.9,10.4-7.3,10.1-14.4c-0.3-9.1-8.3-16.7-13.2-23.7c-5.9-8.4-11.8-16-19.1-23.2c-0.4-0.4-0.7-0.7-1.1-1.1
		c-0.1-0.3-0.2-0.6-0.4-0.9c-1.3-2.8-3-5.2-4.6-7.9c-1.6-2.7-2.1-5.4-2.6-8.5c-0.4-2.7-1.4-6.2-0.5-8.8c0.3-0.8,0.7-1.6,1.2-2.3
		c0.2-0.6,0.5-1.3,0.8-1.8c0.1-0.2,0.2-0.3,0.3-0.5c0.1-0.2,0.1-0.3,0.2-0.5c0-0.1,0.1-0.2,0.1-0.3c0.4-0.6,1.1-1.4,1.5-2
		c0.8-0.9,1.8-1.5,2.9-1.9c1.1-0.6,2.2-0.8,3.5-0.8c1.2,0,2.4,0.2,3.5,0.8c0.2,0.1,0.3,0.1,0.5,0.2c0.4,0,0.7,0,1.1,0
		c0.1,0,0.1,0.1,0.2,0.1c6.3,2.2,12.1,4.5,17.5,7.9c3.6,2.6,7,5.5,10.2,8.6c4.7,5.1,8.4,10.8,12,16.8c4.7,7.9,10.2,15.4,14.7,23.4
		c0.2,0.4,0.4,0.7,0.6,1.1c0.5,1.1,1,2.2,1.5,3.3c0.5,1.2,1.3,2,2.2,2.6c1,1.5,2.2,2.9,3.4,4.2c1.4,3.4,2.8,6.7,4.3,10
		c7.4,15.7,16.4,29.6,28.2,42.3c13.7,14.8,30.3,34.3,50.5,40c7.5,11,18.6,18.3,30,25.7c6.3,4.1,12.3,8.6,18.3,13.2
		c3.7,4.3,7,8.8,10.2,13.6c4.5,6.6,6.5,15.5,13.6,19.8c3.1,1.9,7,0.6,8.9-2.1c4,2.7,7.8,5.9,10.7,9.2c2.7,3.1,6.1,2.6,8.5,0.6
		c3.2,3.1,6.7,6.4,10.8,8.1c2.6,1.1,5.3,1.2,7.9,1.1c0.3,0.1,0.6,0.1,0.9,0.1c3.2,0.3,6.5,0,9.7,0.2c0.1,0,0.2,0,0.3,0
		c5.2,0.8,10.3,1.8,15.3,3.1c12.1,3,23.7,6.9,34.5,13.2c3.1,1.8,6.3,3.7,9.5,5.6c8.2,5.4,16.3,11,24.4,16.7
		c12.2,8.6,25.6,15.3,37.6,24c0,0,0.1,0.1,0.1,0.1c0,0,0.1,0.1,0.1,0.1c1.3,1.2,2.7,2.3,4,3.5c2.6,2.4,5.2,4.8,7.7,7.3
		c5.3,5.2,10.4,10.6,15.4,16.2c5,5.6,9.8,11.3,14.6,17.1c2.4,3,4.8,6,7.2,9.1c1.2,1.6,2.5,3.2,3.7,4.9c9.3,12.3,18.2,24.8,27.2,37.3
		c10.4,14.5,20.7,29.1,32.8,42.3c4,4.3,8,8.6,12,12.8c4.8,8.2,10.7,15.9,16,23.6c5,7.3,10.8,13.9,16.4,20.7c1.7,2,3.2,4.3,4.7,6.6
		c2.5,5.8,5.2,11.4,8,17.1c0.4,0.9,0.9,1.9,1.3,2.8c0.1,0.5,0.3,1,0.4,1.3c0.5,1.6,1,3.3,1.4,5c0.1,2.8,0,5.6-0.2,8.3
		c-1.3,7.2-3.2,14.2-5.8,21c-0.1,0.1-0.1,0.3-0.2,0.4c-0.8,1.5-1.5,3.1-2.3,4.6c-0.8,1.4-1.6,2.7-2.5,4c-0.1,0.1-0.3,0.3-0.5,0.5
		c-0.8,0.4-1.5,0.9-2.2,1.4c-2.9,1.8-5.7,3.9-8,6.3c-4.9-3.3-12.4-2.6-16,2.1c-0.3-0.2-0.7-0.4-1.1-0.5c-0.2-0.1-0.5,0-0.6,0.2
		c-0.4-0.3-0.7-0.7-1-1.2c-0.3-0.7-1.5-0.2-1.2,0.5c0.8,2,1,4.1,1.2,6.2c0,0.4,0.3,0.6,0.6,0.6c0,0.3,0,0.6,0,1
		c0.3,19.1-4.6,39.7-19,53.1c-6.6,6.2-16,8.4-21.8,15.5c-3.4,4.2-5.5,9.2-8.4,13.8c-2.1,3.4-4.5,6.5-6.8,9.8c-3,3.1-5.7,6.4-9,9.2
		c-2.9,2.4-6,4.3-8.7,6.8c-5.2,3.4-9.5,8.5-15.5,10.4c-6.4,2-4.2,10.4,1.7,10.5c0.2,0.2,0.4,0.4,0.7,0.6c0.6,0.8,1.2,1.6,1.7,2.5
		c0.8,1.5,1.4,3.1,2.1,4.6c1.3,3.1,3.2,6.1,4.3,9.3c0.1,0.2,0.2,0.4,0.3,0.6c0.3,1.6,0.7,3.2,1.1,4.8c0.9,3.5,0.3,6.6,0.3,10
		c-1.2,3.6-2.5,7.3-4.1,10.7c-3.7,4.8-8.3,9.1-13.1,12.9c-5,3.9-10.5,7.1-15.6,11c-4.8,3.7-9.3,6.7-14.9,9.2
		c-5.8,2.6-12.3,5.5-18.8,6.2c-0.3,0-0.5,0-0.8,0.1c-0.1,0-0.2-0.1-0.3-0.1c-4.9-0.2-10-0.9-14.9-1c-6-0.5-12-1.1-18-1.5
		c-0.1,0-0.3,0-0.3,0.1c-9.2-1.4-18.4-3.5-27.4-5.7c-0.8-0.2-1.5-0.2-2.2-0.1c-0.8-0.3-1.7-0.5-2.5-0.8c-3.6-1.1-7.3-2-11-3.1
		c-3.6-1-7-2.8-10.6-3.6c-2-0.4-3.7,0.2-4.9,1.4c-0.6-0.2-1.2-0.3-1.7-0.5c-11.6-3.3-23-7-34.6-10.4c-7.4-2.2-14.9-3.7-22.2-5.9
		c-1.1-0.3-2.2-0.7-3.3-1.1c0,0,0,0-0.1,0c-4.6-1.8-9.2-3.6-13.8-5.4c-1.1-0.5-2.2-0.9-3.3-1.4c-10.5-4.2-20.9-8.4-31.5-12.4
		c-8.9-3.5-17.9-7.1-26.8-10.6c-12.3-4.9-24.5-10.2-37-14.3c-11.5-3.8-23.5-6.1-35.6-7.5c-13.3-1.6-26.6,0.3-39.8,2.3
		c-6.4,0.9-12.5,1.7-18.6,4.2c-5.4,2.2-10.8,3.9-16.3,5.9c-5.6,2-10.9,4.3-15.1,8.6c-3.7,3.8-7.2,7.1-11.8,10
		c-4.7,2.9-9.5,6.1-14.9,7.5c-2.1,0.1-4.3,0.2-6.4,0.2c-0.6-0.4-1.4-0.8-2.2-1c-2.1-0.7-4.2-1.5-6.1-2.5c0-0.1-0.1-0.1-0.1-0.2
		c-0.5-0.6-0.9-1.2-1.4-1.8c0,0,0,0,0,0c0,0,0,0-0.1-0.1c-1.5-1.9-3.1-3.8-4-6.1c-1.3-3.2-1.9-6.6-2.4-10c-1-7.1-0.1-14.5,0.6-21.7
		c0.1-0.3,0.2-0.7,0.3-1c0.9-1.9,1.8-3.8,2.6-5.7c1.4-3.3,2.7-6.8,5.5-9.1c2.9-2.4,6.9-3.4,10.3-4.6c4.1-1.4,8.3-2.6,12.6-3.3
		c8-1.5,16.3-1.3,24.4-2.1c5-0.5,11.7-0.7,16.7-3.1c4-1,7.6-3.9,8.1-8.1c0.4-3.5-1.2-6.3-3.7-8.4c-0.2-0.2-0.4-0.5-0.6-0.7
		c-2.7-2.8-6.3-3.8-9.6-5.7c-6.1-3.4-10.1-9.7-14.5-15c0,0,0,0,0,0c-0.1-1.3-0.4-2.5-1-3.7c-0.4-0.8-0.8-1.4-1.2-2.1
		c0.1-0.2,0.2-0.4,0.2-0.6c0.3-1.1,0.4-2.3,0.2-3.3c0.1-0.1,0.2-0.2,0.2-0.3c0.6-1.1,1.4-2,2-3.1c0.1-0.2,0.2-0.5,0.1-0.8
		c0.7-0.4,0.3-1.6-0.6-1.4c0,0-0.1,0-0.1,0c-0.1,0-0.2,0.1-0.3,0.2c-0.3-0.1-0.6,0-0.9,0.2c-0.9,0.5-1.8,1.1-2.7,1.5
		c-0.8,0.4-1.7,0.6-2.6,0.8c-2.2,0.1-4.4,0.8-6.4,1.5c-0.9,0-1.8,0.1-2.7,0.2c-5.1,0.7-10.3,0.8-15.4,0.9c-11.6,0.3-23.5-0.3-34.9-2
		c-23.9-3.6-45.5-15.5-68.6-22.1c-1.7-0.5-3.4-0.4-4.9,0.2c-0.5-0.2-0.9-0.5-1.4-0.6c-1.7-0.6-3.4-0.9-5.1-1.2
		c-2.8-0.9-5.6-1.6-8.5-2.2c-9.9-2-19.9-3.6-30-3.6c-4.7,0-9.4,0.2-14.1,0.5c-17.3-0.3-34.8,0.3-51.8,4.2
		c-16.9,3.9-32.8,11.8-49.2,17.3c-16.2,5.4-32.9,8.9-50,9.5c-11.5,0.4-21.9-2.4-31.9-7c-2.2-2.3-5.1-3.7-7.8-5.3
		c-0.2-0.3-0.4-0.5-0.7-0.8c-4.5-4.9-11.7-10.7-11.5-18C222.4,751.3,222.4,750.8,222.5,750.4z"/>
	<path class="st2" d="M356.4,481.9c16.2,9.1,30.8,20.8,45.3,32.4c2.3,1.8,4.5,3.5,6.8,5.3c16.1,9.3,32.3,18.4,48.5,27.5
		c8.1,4.5,15.1,9.8,20,17.8c3.2,5.3,5.4,11,7.3,16.9c3.7,7.7,6.6,15.8,10.4,23.6c0.4,0.8,0.8,1.5,1.1,2.3c2.9,5.1,5.8,10.3,8.7,15.4
		c1.5,2.4,3.1,4.8,4.7,7.1c0.4,0.6,0.7,1.2,0.9,1.8c4.2,6.2,7.6,13.1,12.7,18.8c2.6,2.9-1.7,7.1-4.2,4.2c-0.4-0.4-0.8-0.9-1.1-1.4
		c-1.5,0.6-3.6,0.2-4.3-1.8c-1.6-4.2-3.7-8.2-6-12.1c-3.3,2.1-8.1,2.2-10.9-2c-1.5-2.1-2.9-4.3-4.3-6.5c-1.4-0.2-2.9-0.9-4.2-2.2
		c-9.5-9.1-18.2-18.8-26.8-28.6c-8.1-9.2-15.8-20.3-26.8-26.4c-10.2-5.6-21.4-8.7-30.4-16.3c-8.5-7.1-11.6-16.5-13.4-26.8
		c0-1-0.1-2-0.1-2.9c0-0.1,0-0.2,0.1-0.3c0-0.1,0-0.1,0.1-0.2c-0.1-0.4-0.1-0.9,0-1.3c0,0,0-0.1,0-0.1c0-0.3,0-0.6,0-0.9
		c0.1-0.6,0.2-1.2,0.2-1.7c0,0,0-0.1,0-0.1c-0.5-1.8-1.5-3.2-3.2-4.1c-1.6-0.7-1.9-0.8-0.7-0.3c-0.1-0.1-0.3-0.2-0.4-0.2
		c-0.7-0.5-1.5-0.8-2.4-1c-1.5-0.8-3-1.6-4.6-2.4c-9.7-7.4-19.7-14.4-30.3-20.4C340.4,490.1,348,477.2,356.4,481.9z"/>
	<path class="st5" d="M1049.1,851.1c-0.8-1.7,1.8-3.3,2.6-1.5c1.6,3.4,3.3,6.8,4.9,10.2c1.3-2.4,4.8-3.2,6.8-0.2
		c4.6,7,7.7,13.4,8.6,21.4c0.5,1.3,1,2.6,1.4,3.9c0.3,0.9,0.6,1.9,0.8,2.8c0.3,0.4,0.6,0.9,0.8,1.4c2.1,6.9,2.8,15.7-0.6,22.3
		c-0.7,1.3-1.8,1.9-2.9,2c-0.3,1.5-1.3,2.3-2.4,2.6c-0.8,1.8-1.7,3.5-2.5,5.2c-1.3,2.7-4.2,2.4-6,0.8c-0.6,1.5-1.2,3-1.9,4.5
		c-0.8,1.8-3.4,0.2-2.6-1.5c5.3-11.6,7.5-24.4,6.5-37.1C1061.4,874.4,1054.9,863.1,1049.1,851.1z"/>
	<path class="st5" d="M629.9,659.3c3.1,3.9,6.3,7.7,9.4,11.6c0.7-3,4.7-5.3,7.6-2.4c8.5,8.6,14.1,19.4,17.1,31
		c1.5-0.1,2.9,0.5,3.8,2.3c7,13.5,2.2,27.6-4.2,40.3c-1.5,3-4.6,2.8-6.5,1c-0.3,1.3-0.5,2.6-0.8,3.9c-0.4,1.9-3.3,1.1-2.9-0.8
		c3.4-14.8,4.1-30.9-0.2-45.5c-4.5-15.2-15.8-27-25.3-39.2C626.6,660,628.7,657.8,629.9,659.3z"/>
	<path class="st5" d="M1155.1,722.9c5.7-2.3,11.1-5.3,16.1-9c5.9-4.4,9.1-10,11.5-16.8c4.2-11.9,4.9-24.7,2.2-37
		c-0.7-3.1,4.1-4.5,4.8-1.3c1,4.4,1.5,9,1.7,13.5c1.3,0,2.5,0.8,2.9,2.5c2.3,11.6-0.3,26.3-5.9,36.7c-5,9.3-14.4,15.7-25,15.9
		c-1.3,0-2.2-0.6-2.8-1.4c-1.3,0.6-2.7,1.2-4.1,1.8C1153.4,729,1152.1,724.1,1155.1,722.9z"/>
	<path class="st5" d="M802.9,322.9c1.8,3.7,3.5,7.5,5.3,11.3c0.9-0.8,2.4-1.1,3.4,0.1c9.1,10.3,18.8,20,26.4,31.6
		c1.8,2.7-2.6,5.2-4.3,2.5c-0.3-0.5-0.7-1-1.1-1.6c-0.9,0.8-2.2,1-3.2-0.1c-0.5-0.6-1-1.2-1.5-1.8c0.1,0.3,0.2,0.7,0.3,1
		c0.9,3.1-3.9,4.4-4.8,1.3c-1-3.5-4.6-6.2-6.8-9c-2.4-3.1-4.6-6.4-6.6-9.9c-4.2-7.4-7.7-15.2-11.4-22.9
		C797.2,322.5,801.5,320,802.9,322.9z"/>
	<path class="st6" d="M612.3,697.6c2.8,5.6,7.7,10.4,12.9,13.7c1.3,0.9,2.7,1.5,4,2.1c0-7.6-1.5-14.8-5.3-22
		c-5.2-9.8-11.9-15.8-21.9-19.1C606.8,680,608.4,689.8,612.3,697.6z"/>
	<path class="st6" d="M610.8,724.4c-6.2-3.2-11.8-8-16.2-13.4c-1-1.3-2-2.7-2.8-4c0.2,5.1,0,10.3-0.6,15.4c-0.2,1.9-0.5,3.9-0.9,5.9
		c-5.8,3.6-11.6,7-17.6,10.2c-4.6,2.4-9.4,4.6-14.3,6.6c-3.3,1.3-7.6,2.1-10.8,3.9c-3,1.3-5.9,2.5-9.3,2.6c-0.9,0-1.3,1.1-0.7,1.7
		c2,2.3,5.5,3.2,8.1,4.6c1.6,0.9,4.2,2.4,6.3,2.5c8.8,4.9,21.8,10,31,5.7c6.9-1.5,13.7-4.8,18.3-8.9c8.5-7.6,13-19.3,14.8-30.3
		c0-0.1,0-0.2,0-0.2C614.4,726,612.6,725.3,610.8,724.4z"/>
	<path class="st6" d="M739.4,328c0.5-0.8,0.1-2.2-0.3-3.6c-0.7-1.7-0.6-3.1-1-4.6c-0.6-2.2-1.4-4.6-2.4-7c-1.3-3.2-2.8-6.5-4.5-9.9
		c-1.4-1.3-2.8-2.5-4.2-3.7c-11.1-9.7-23.2-18.9-34.7-25.7c-0.7-0.4-1.3-0.9-1.6-1.4c-1-0.7-2.1-2-1.5-2.1
		c4.4-0.7,10.3,1.4,19.3,6.8c9.2,5.4,17.5,12,26.2,19.8c7.8,7,15.7,15,19.9,21.4c2.3,3.5,3.5,6.9,3.4,9.3c1.6,4.5-4.5,4.2-9.6,3.2
		c-0.5,0.4-2,0-3-0.2c-1.5-0.3-2.8-0.1-4.8-1C739.9,328.9,739.3,328.2,739.4,328z"/>
	<path class="st6" d="M1099.4,801.4c-3.8-8.1-10.7-14.5-22.6-20.8c-0.5-0.3-1-0.4-1.4-0.5c4.6,6.9,6.9,15.2,3.4,23.3
		c-3.3,7.5-8.5,11.7-16.6,12.6c-10.7,1.2-21.6-0.2-32.1-2.3c-4.5-0.9-8.9-1.8-13.3-2.7c1.5,1.1,3.9,2.9,6.1,3.8
		c8.3,6.1,21,13.9,31.5,15.1c7.6,1.9,15.4,2.7,21.1,2.3c10.5-0.8,17.5-5.4,21.6-10.7C1101.5,815.8,1103.3,809.6,1099.4,801.4z"/>
	<path class="st6" d="M1112.8,737.9c1.9,3,3.7,6,5.4,9c3.6-0.2,6.8-1.5,8.6-5.7c0.6-1.5,1.1-3,1.5-4.7c-5.6-7.9-16.1-15.8-23.8-20.8
		c-1.6-1.6-3.9-3-5.4-4c-2.4-1.6-5.2-3.9-7.4-4.7c-0.6-0.2-0.6,0.4,0,1c2.4,2.6,4.2,5.2,6,7.8c1.8,3,4.7,6.4,6.7,9.3
		C1107.4,729.4,1110.2,733.6,1112.8,737.9z"/>
	<path class="st6" d="M1139.5,753.8c-0.8-1.8-1.8-3.8-3.1-5.9c-3.7,6.8-9.5,9.4-16,10.2c-3.6,5.2-9.6,8-18.5,6.7
		c-0.6-0.1-0.7,0.3-0.5,0.9c-0.7,0.1-0.5,1.4,0.9,2.6c9.7,8.1,17.2,12,24.8,13c7.7,1,11.4-2,13.8-7.2
		C1143,769.4,1143.4,762.5,1139.5,753.8z"/>
	<path class="st6" d="M816.7,854.3c-2.1-1.5-4.3-2.9-6.4-4.5c-2.4-1.7-4.3-4-6.1-6.4c-4.1-7.4-7.2-15.3-7.2-23.5
		c-2.7-0.8-4.8-3.4-3.8-6.8c2.7-9,7.9-17.4,16.5-21.8c4.1-2.1,8.4-3.1,12.8-3.3c-1.7-0.8-3.4-1.5-5.1-2.1c-1.6-0.6-3.3-1.1-5.1-1.6
		c0.7-0.1,1.5-0.2,2.3-0.3c2.9-0.1,5.8,0.2,8.6,1.1c1.9,0.6,4.2,2.3,6.2,2.5c2.2,0.2,2.7-1.7,1.8-3.4c-1.8-3.3-6.1-4.7-9.5-5.6
		c-8.7-2.4-18.1,2.2-25.9,5c-0.4,0.1-0.6,0.4-0.6,0.7c-4.4,2.1-7.5,6.2-10,10.1c-3.4,5.5-5.3,11.9-5.8,18.3
		c-0.1,1.2-0.1,2.4-0.1,3.6c0,0.1,0,0.1,0,0.2c0.2,4.2,1.5,8.2,3.9,11.9c3.5,5.3,8.5,9.8,13,14.3c5.2,5.2,10.1,11,16,15.5
		c1.7,1.3,9.9,7.3,11.4,3.7C824.8,859.4,819.8,856.2,816.7,854.3z"/>
	<path class="st6" d="M1080,594.9c0.1,1.5,0.4,2.9,1.6,4.2c2.2,2.2,5.8,3.7,8.9,3c2.1-0.4,3.7-2,5-3.9c0.4-1.9,0.5-3.9,0.3-5.9
		c-0.3-2.9-1.5-6.1-0.7-9c0.9-2.9,3.8-4.2,4.8-7c1.2-3.5-0.7-7.4-4-8.8c-5-2.1-9.5,2.6-14.6,2.1c-6.7-0.6-9-7.3-14.9-9.3
		c-5.1-1.7-10.2,0.1-14.8,2.4c-0.3,0.2-0.6,0.4-0.7,0.7c-1.8-0.3-2.4,2.5-0.6,2.9c9.5,2.4,19.8,5.7,26.7,13
		C1080.8,583.2,1081.8,589.7,1080,594.9z"/>
	<path class="st5" d="M327.3,457.3c17.7,27.5,49.4,40.6,76.2,57.5c26.8,16.9,52.6,35.8,82.2,47.7c0.1,0,0.2,0.1,0.2,0.1
		c-5.7-0.9-11.3-2.2-16.6-4.3c-0.2-0.1-0.5-0.2-0.7-0.2c-23.8-11.9-45.6-27.5-68.1-41.6c-26.8-16.8-58-30-75.8-57.6
		C323.7,457.2,326.3,455.7,327.3,457.3z"/>
	<path class="st6" d="M328.1,452.7c7,5,13.6,10.4,19.9,16.1c0.2,0,0.3,0.1,0.5,0.2c7.4,5.2,15,10.2,22.8,14.8
		c3.6,2.1,7.1,4.5,10.5,7c3.2,1.9,6.3,3.9,9.2,6.2c0.1,0,0.1,0,0.2,0c7.5,2.9,13.8,7.6,20,12.5c7.7,6.1,15.5,11.9,23.6,17.5
		c12.2,8.4,24.2,17.1,37,24.5c2.1,2.2,4.5,4,6.8,6.2c0.5,0.5,1,1,1.5,1.6c-16-8-30.5-18.6-45.2-28.7c-7-4.8-13.9-9.6-20.6-14.9
		c-6.4-5.1-12.7-10.5-20-14.2c-0.5,0.6-1.5,0.9-2.2,0.2c-0.2-0.2-0.4-0.3-0.5-0.5c-0.1,0-0.3-0.1-0.4-0.2c-3.7-2.6-7.4-5.4-11.1-8.1
		c-6.5-3.8-13.5-7.1-19.5-11.6c-0.5-0.3-0.6-0.8-0.6-1.3c-3.1-2-6.2-4.1-9.2-6.1c-0.5,0.2-1.1,0.2-1.6-0.3
		c-7.1-6.7-14.5-12.8-22.4-18.5C325,454.1,326.5,451.5,328.1,452.7z"/>
	<path class="st5" d="M493.2,503.6c0.3-0.2,0.6-0.2,0.8-0.2c-2.5,3.2-5.6,6-7.9,9.4c-0.9,1.3-1.5,2.7-2,4.3
		c-4.3,8.8-3.3,19.8,4.4,27.5c6.2,6.2,15.6,8.9,24.2,7.8c5.3-0.7,8.8-2.1,11.8-6.6c1.7-2.4,2.9-5.1,3.9-7.8c1-1.6,1.9-3.2,3.2-4.5
		c0.6,0.3,1,0.9,0.8,1.7c-2.5,9.3-7.3,18.2-17.4,19.9c-9.8,1.6-20-0.6-27.5-7.4C473.4,535,476.8,512.4,493.2,503.6z"/>
	<path class="st6" d="M495.3,527.9c1-1.2,2-2.5,3.2-3.5c0.9-0.8,2-1.6,3.2-2.2c-0.1,0.2-0.2,0.5-0.3,0.8c0,0,0,0.1,0,0.1
		c-1.3,1.4-2.5,2.9-3.2,4.8c-1.6,4.5,0.9,9,5.4,10c5.8,1.2,11.8-3.1,14.8-7.7c0.1-0.1,0.1-0.2,0.2-0.2c-0.2,1.8-0.7,3.7-1.3,5
		c-0.4,0.8-0.9,1.5-1.5,2.2c-4.6,3.6-10.7,5.8-15.7,2.7C494.9,536.5,494,532.2,495.3,527.9z"/>
	<path class="st6" d="M774.5,663.1c-6-7.3-15.4-10.4-24.6-8.9c-1.4,0.2-2.8,0.5-4.2,0.9c1.9,1.9,3.9,3.8,5.5,5.9
		c1.5,2,2.8,4.2,3.9,6.5c8,10.1,14.2,21.9,11.8,35.1c-4.6,24.3-28.8,36.7-50.5,44.5c-1.3,2.3-2.8,4.5-4.6,6.7
		c-5.5,6.7-10.5,13.6-15,21c-4.5,7.3,5.2,13.1,11,8.5c17.5-13.8,39.1-21.9,54.4-38.5c13.7-14.8,18-34.3,19.5-53.9
		C782.4,681.2,780.9,670.9,774.5,663.1z"/>
	<path class="st6" d="M946.7,531.6c1.2,0.4,2.3,1.2,3,2.7c3.2,6.1,4.5,13.2,6.3,19.8c5.6-1.2,11.6-1,17.1,0.1
		c-0.1-0.2-0.3-0.4-0.4-0.5c-1.8-2.2-3.6-4.3-5.4-6.6c-2.4-4.5-4.8-9-7.3-13.4c-0.3-0.6-0.6-1.1-1-1.7c-0.9-2.4-1.8-4.9-2.6-7.3
		c-2.1-5.9-4-11.9-6.1-17.7c-3.1-8.8-7.2-17-12.9-22.3c-0.5-0.5-1-0.9-1.5-1.4c-2.8-2.4-5.9-5.8-8.9-4.7c-0.5,0.2-0.9,0.5-1.3,0.9
		c-1.7,0.8-2.8,3.5-1.6,6.9c2.1,5.6,4.2,11.2,6.3,16.8c1.9,5.1,3.7,10.2,6.5,14.5c2.5,3.8,5.7,6.6,8.2,10.6
		C945.7,529.3,946.2,530.4,946.7,531.6z"/>
	<path class="st6" d="M997.6,594.2c-0.8-3.9-1.9-8.4-3.3-12.6c-1.6-1.7-3.3-3.3-5-5c-3.5-3.6-7.3-7.1-12-9.1
		c-4.8-2.1-11.7-3.4-17.6-2.3c2,5.5,4.4,10.8,7.7,15.9c4.8,7.4,10.6,14.1,16.5,20.6c3.4,3.7,7.3,7.1,10.4,11c1.8-0.1,3.3-1.1,4-3.7
		c0.5-1.9,0.5-4.4,0.2-6.8C998.6,599.7,998.2,596.9,997.6,594.2z"/>
	<path class="st6" d="M739.3,373.3c1.3-1.3,4.3-1.8,7.3-1.2c3,0.6,4.9,1.9,6.7,3.3c13.6,6,27.9,11.4,42.9,16.1
		c15.5,4.9,32,8.5,46.6,14.5c12.6,5.1,25.4,12,33.1,19.3c4.5,4.2-0.9,6.8-8.6,6.2c-7.9-0.6-15.2-3.6-21.5-6.6
		c-6.7-3.1-12.8-6.6-19.8-9.5c-7-3-14.7-5.3-22.3-7.5c-14.5-4.3-29.2-8.4-41.5-14.8c-5.7-3-10.9-6.3-15.3-9.8
		C743.8,380.8,736.8,375.9,739.3,373.3z"/>
	<path class="st6" d="M485.4,422c4.4,1.9,7.1,6.6,9.5,10.5c2.7,2.4,5.5,4.9,7.3,7.9c2.3,3.9,3,8.7,4.8,12.8
		c1.9,4.2,4.3,8.2,7.8,11.5c3.7,3.5,7.9,5.3,12.6,7.3c2.4,1,3.8,3.8,3.1,5.8c1.2,2,0.5,4.9-2.6,5c-10.4,0.5-24.3-1.8-30.6-10.5
		c-3.1-4.3-4.4-9.2-5.9-14c-1.8-5.7-3.3-11.5-5.3-17.1c-1.6-4.5-5.6-7.8-7.2-12.2C477.2,424.6,479.8,419.6,485.4,422z"/>
	<path class="st5" d="M348,551.9c0.2-0.1,0.4-0.3,0.6-0.4c-0.2-0.5-0.1-1.2,0.6-1.3c0.2,0,0.3-0.1,0.5-0.1c0.3-0.2,0.7-0.4,1.1-0.5
		c0.2-0.1,0.4-0.2,0.6-0.3c0-0.9,0.7-1.9,1.9-2c4.9-0.3,9.9-1,14.7-0.2c0.3-0.4,0.8-0.7,1.5-0.6c4,0.3,8.3,0.8,10.9,4.2
		c0.6,0.8,0.4,1.7-0.1,2.2c1.5,1.2,2.8,2.5,4,4c0.8,1,0.3,2-0.6,2.5c2.1,2.6,4.2,5.2,6.8,7.3c2,1.6-0.8,4.4-2.8,2.8
		c-4.6-3.7-7.6-9.3-12.1-13.2c-5.9-5.2-14.2-5.2-21.6-5.2c-0.6,0.2-1.2,0.4-1.8,0.6c-1.2,0.4-2.1,1.1-3.1,1.8
		C347.9,554.3,346.9,552.6,348,551.9z"/>
	<path class="st5" d="M237.1,574.7c2.5-2,4.3-4.8,6.8-6.8c2.9-2.2,6.3-2.8,9.8-2.8c7.4,0,14.5,2.3,20.8,5.9c2.8,1.6,0.3,5.9-2.5,4.3
		c-5.1-2.9-10.7-4.8-16.6-5.2c-3.5-0.2-6.9,0.1-9.5,2.7c-1.8,1.8-3.2,3.8-5.2,5.4C238.2,580.3,234.6,576.7,237.1,574.7z"/>
	<path class="st5" d="M224.4,754.1c-0.9-0.3-1.7-1.2-1.4-2.4c0.9-3.4,2.1-6.4,4.5-9.1c2.9-3.3,6.6-5.6,10.3-8
		c0.9-0.6,1.7-0.4,2.2,0.2c7.5-4.7,16.6-7.4,25.8-8.7c2.5-0.3,3.6,3.5,1.1,3.9c-17.5,2.4-34.8,9.7-39.6,28.4
		c-0.6,2.5-4.5,1.4-3.9-1.1C223.7,756.2,224.1,755.1,224.4,754.1z"/>
	<path class="st5" d="M572.5,882.2c0.4,0.7,0.8,1.2,1.4,1.7c0.3,0.3,0.7,0.5,1,0.8c0.2,0.1,0.3,0.2,0.5,0.3
		c4.5,3.8,9.4,7.5,15.1,9.3c3.9,1.2,11.8,2.7,15.1-0.8c1.8-1.9,4.6,1,2.8,2.8c-2.4,2.5-6,3.2-9.5,3.3c-0.2,0.6-0.6,1.1-1.4,1.3
		c-4.1,1-9.2,2.2-13.3,0.5c-3.8-1.6-7.4-6-9.2-9.6c-0.1-0.2-0.2-0.5-0.2-0.8c-0.6-1.1-1.3-2.1-2.3-3.1c-1.1-1-0.6-2.3,0.3-3
		c-0.6-0.7-1.1-1.5-1.3-2.4C571.5,882,572.2,881.7,572.5,882.2z"/>
	<path class="st5" d="M611.9,153.9c0-1.7,0.1-3.5,0.7-5.2c0.3-0.5,0.6-0.9,0.9-1.3c-0.1,0-0.2-0.1-0.3-0.1c0.2-0.3,0.4-0.6,0.6-0.9
		c0.4-0.5,0.6-1,0.6-1.6c4.3-3,9.4-4,14.6-2.7c0.4,0,0.7,0,1.1,0c1.3,0,1.3,2,0,2c-3.9-0.1-7.5,0.6-11,2c-4,1.6-5.1,4-6.6,7.8
		c-0.1,0.3-0.4,0.5-0.7,0.6C611.9,154.3,611.9,154.1,611.9,153.9z"/>
	<path class="st5" d="M542.1,224c0.5-0.7,1.1-1.3,1.7-2c0.1-0.2,0.2-0.4,0.4-0.6c0.2-0.2,0.5-0.3,0.7-0.5c1-0.9,2.2-1.8,3.3-2.5
		c0-0.3,0-0.5,0.3-0.8c3.2-3.1,8.6-3.6,12.9-3.4c0.7,0,1.1,0.8,1,1.3c2.5-0.3,5-0.4,7.5-0.7c1.3-0.1,1.3,1.9,0,2
		c-8.3,0.8-16.8,1-24,5.8c-0.8,0.7-1.5,1.5-2.1,2.3C543.1,226.1,541.4,225.1,542.1,224z"/>
	<path class="st3" d="M292.2,781.2c9.1-1.2,18.1-1.5,27-4.2c10.1-3.1,19.9-7.1,29.8-10.7c9.8-3.6,19.8-7.4,29.9-10.2
		c9.7-2.6,19.7-4,29.6-5.7c0.3,0,0.5,0,0.7,0c19,0.4,38,1,56.8,3.5c17.9,2.4,34.8,7.5,51.7,13.5c18.4,6.6,37.1,13.4,57,12.9
		c2.8-0.1,4.8,1.2,6,2.9c-0.3,0.1-0.6,0.2-0.9,0.2c-7.2,2.1-14,2.7-21.4,2.9c-7.5,0.1-14.9,0.3-22.4-0.3c-5.2-0.4-10.4-1.2-15.6-1.8
		c-15.5-5.4-31-11.3-47.1-14.2c-18.6-3.4-37.5-4-56.3-4.5c-9.3-0.3-18.9-0.9-28.1,0.6c-9.3,1.5-18.5,4.4-27.6,7
		c-7.5,2.2-15,4.4-22.5,6.8c-7.3,1.1-14.6,2.8-22,3.5c-6.1,0.6-12.4,0.7-18.5-0.2c-2.1-0.3-4.1-0.9-6.2-1.5
		C292.1,781.5,292.1,781.4,292.2,781.2z"/>
	<path class="st3" d="M267.2,384.1c0.1-5.4,1.6-10.6,2.7-15.9c2.4,0.9,4.2,3,4.4,6.3c1,27.7,16.1,52.4,31.7,74.6
		c8.3,11.9,19,21.2,30,30.5c3.9,3.3,8,6.5,12,9.7c0.8,0.3,1.5,0.8,2,1.6c0,0,0,0,0,0c1.2,0.9,2.3,1.9,3.5,2.8
		c0.2,0.2,0.3,0.4,0.5,0.7c1.2,1.5,2.5,3,3.8,4.3c0.5,0.4,1.1,0.8,1.7,1.1c0.1,0.1,0.2,0.2,0.3,0.4c7.7,7.3,16.3,14,26.2,18
		c0.5,0.5,1,0.9,1.5,1.4c0.1-0.1,0.3-0.1,0.5,0c1.3,0.7,2,1,2.4,2.4c0.2,0.6,0.3,1.3,0.2,1.9c0,0.5-0.2,0.9-0.4,1.4
		c0.1,3.5-0.4,7,0.3,10.4c0.2,1.3,0.7,2.4,1.3,3.5c0.8,4.7,3.2,8.6,6.1,12.5c2.4,3.2,5.1,6.3,8.1,9c2.1-0.4,4.4,0.1,6.3,2.2
		c4.2,4.5,8.9,8.1,14.4,10.8c5.9,3,11.3,5.7,16,10.5c4.5,4.7,8.3,10,13,14.6c4.8,4.6,10,8.7,15,13.2c18.8,17,33.8,42.9,61,47
		c4,0.6,6.2,5.7,5.2,9.2c-0.8,2.9-2.9,4.5-5.4,5.1c-3.4-0.8-6.7-1.6-10-2.7c-7.3-2.3-13.2-5.5-20-9.9c-6.5-4.2-12-8.2-17.5-13.7
		c-1.5-1.6-3-3.1-4.5-4.7c-4.6-5-8.9-10.2-13.8-14.9c-12.8-12.3-25.3-25-38-37.5c-2.7-2.7-5.7-5.1-8.7-7.5c-1.4-1.2-2.8-2.3-4.1-3.6
		c0.3,0.2-1.3-1.9-1.5-2.3c0,0,0,0,0,0c0.4,1.1,0.3,1-0.1-0.1c-3.2-3.3-7.3-5.4-10.8-8.3c-3.7-3-6.9-6.5-9.8-10.2
		c-2.7-3.5-5.4-7.2-7.1-11.3c-1.9-4.6-2-9.3-2.1-14.1c0-2.4,0.1-4.8-1.3-6.8c-1.7-2.4-4.7-4.1-6.9-5.8c-4.1-3.1-8.4-6-12.8-8.7
		c-7.2-4.5-14.3-8.8-19.2-16c-3-2.6-6-5.1-9.1-7.7c-11.3-9.6-22.5-19.3-32.2-30.5c-16.8-19.3-29.8-42.4-34.7-67.9
		C267.2,387.3,267.2,385.7,267.2,384.1z"/>
	<path class="st3" d="M350.7,593.7c0.8,3.8,2.5,7.4,4.7,10.8c0.7,0,1.4,0.1,2.2,0.6c2.1,1.2,4.1,2.6,6,4.1c1.4-0.4,2.9-0.1,3.8,1
		c3.3,3.9,6.8,7.6,10.5,11.1c1.8,1.7,1.4,3.8,0.2,5.3c0.3,0.6,0.7,1.3,1,2c1.5,1.5,2.9,3.2,3.9,5.2c2.4,4.8,2.9,10.2,3,15.4
		c0.1,5.1-7.9,5.2-8,0c-0.1-5.5-0.6-10.9-4.5-15c-0.3-0.2-0.6-0.5-0.8-0.8c-3.8-3.7-8.2-6.8-11.9-10.5c-7.3-7.3-15.5-16.5-17.7-26.9
		C341.9,590.8,349.6,588.7,350.7,593.7z"/>
	<path class="st3" d="M254.6,632.4c2,4.5,6,7.5,9.8,10.7c4.1,3.4,8.2,6.8,12.5,10c1.9,1.4,3.8,2.8,5.8,4.2c1-1.7,3.1-2.7,5.2-1.3
		c4.6,2.9,9.2,5.8,14.1,8.1c5.2,2.5,10.7,3.8,16,5.8c7.9,3.1,15.1,8,17.5,16.6c0.5,1.9-0.3,3.4-1.6,4.2c3,4.3,4.8,9.4,4.4,15.8
		c-0.3,5.1-8.3,5.2-8,0c0.6-9.8-6.8-16.7-14.7-21.3c-8.4-4.9-17.5-8.6-25.8-13.7c-7.9-4.8-15.5-10.2-22.8-15.9
		c-6.8-5.3-15.7-11-19.3-19.1C245.6,631.7,252.5,627.7,254.6,632.4z"/>
	<path class="st3" d="M616,175.6c1.2-5,8.9-2.9,7.7,2.1c-1.1,4.9,2.4,8.7,5.4,12c1.4,1.5,2.8,3,4.2,4.4c1.3-3.2,7.3-2.5,7.8,1.8
		c0.4,3.3,1.6,6.2,3.1,8.9c3.9,3.8,7.4,7.8,9.6,13c0.3,0.8,0.4,1.4,0.2,2.1c0.3,0.4,0.6,0.8,0.8,1.2c0.9,1.4,0.8,2.9,0.1,3.9
		c0.5,2.4,0.6,5,0,7.3c-0.7,2.9-2.6,5.6-4.7,7.9c-0.2,0.5-0.5,1.1-1.1,1.6c-0.4,0.3-0.8,0.7-1.2,1c-3.9,3.3-9.2-1.8-5.7-5.7
		c3.4-3.8,5.8-6.5,4.5-11.7c-0.4-1.7-1.1-3.3-1.9-4.8c-3.6-5.1-7.4-10-11.3-14.9c-2.8-2.7-5.6-5.5-8.2-8.4
		C619.5,191.3,613.9,184.7,616,175.6z"/>
	<path class="st3" d="M628.8,799.2c-0.1,8.9,12.8,10.5,18.6,14c4.8,2.9,10,8.5,8.8,14.6c-0.9,4.4-7.6,2.5-6.8-1.9
		c0.6-2.9-4.7-6.3-6.8-7.4c-3.3-1.6-6.9-2.6-10.2-4.5c-5.8-3.2-10.7-7.8-10.7-14.9C621.9,794.7,628.9,794.7,628.8,799.2z"/>
	<path class="st7" d="M385.8,452.6c4.3,10.7,11.1,23.1,20.7,29.9c10.8,7.6,24.9,9.1,37.6,7.5c5.5-0.7,11.3-1.4,15.9-4.6
		c1-0.5,1.9-1.1,2.7-1.9c1.1-1,2.4-2,2.3-3.7c0-0.5-0.2-1-0.5-1.4c0.1-0.9,0.1-1.8,0.1-2.8c0.7-1.3,0.8-2.8-0.5-4.2
		c0.4-0.8,0.6-1.8,0.2-2.9c-10.7-33.4-39.9-59.2-75-63.6c-1.2-0.2-3,0.8-3.5,2c-0.4,1-0.7,1.9-0.8,2.8c-0.7,0.5-1.3,1.2-1.6,2
		C379.4,425.2,380.6,439.6,385.8,452.6z M389.2,430.6c0.5,0.1,1.1,0.1,1.6,0c1.1-0.3,2.1-0.5,3.2-0.8c2,1.4,4.4,1.6,7,2.1
		c1.1,0.2,2.1,0.5,3.2,0.8c4.6,4.6,8.9,9.4,13.2,14.2c5.7,6.4,11.2,13,18.1,18.1c3.3,2.4,7.1,3.9,10.8,5.4c0.3,0.3,0.7,0.7,1,1
		c-1-0.2-2-0.3-3.1-0.4c-1-0.1-1.8,0.2-2.4,0.7c-1.4,0-2.5,0.8-3.2,1.9c-2.1-1.8-5.5-1.7-7.5,0c-0.6-0.1-1.2-0.3-1.7-0.4
		c-3.5-2.2-8.2-3.2-11.4-0.6c-4.3-5.3-11.4-8.3-14.6-14.4c-1.5-2.9-4.8-2.3-6.5-0.3C392.4,449.3,389.5,440,389.2,430.6z"/>
	<path class="st7" d="M449,209.5c0.4,0,0.9-0.3,1.4-0.4c0.5-0.1,1-0.1,1.5-0.2c0,0,0,0,0.1,0c0.3-1,1-1.8,2.4-2
		c10.5-1.6,20.9-1.4,31.5,0c9.6,1.3,20.6,2.3,29.3,7c4,2.1,0.4,8.2-3.5,6c-7.7-4.1-18.1-5-26.7-6.1c-9.5-1.2-19.2-1.6-28.7-0.1
		c-0.6,0.1-1.2,0-1.7-0.2c-0.7,0.2-1.5,0.3-2.2,0.4c-1.1,0.1-2.1,0.5-3.2,0.6c-1.3,0.1-2.5-1.2-2.5-2.5
		C446.5,210.5,447.7,209.6,449,209.5z"/>
	<path d="M388.5,433.1c0.9-2.2,1.4-7.8,4.4-8.2c3.1-0.5,7.6,2.6,9.7,4.6c0.3,0.2,0.2,0.6-0.1,0.7c6.1,4.4,11.3,10,16,16.1
		c3.3,4.3,6.1,9.3,9.8,13.3c4.4,4.7,11.2,7.4,17.2,9.2c1.5,0.5,1.9,1.8,1.7,3c1.6,0.2,3.2,0.5,4.8,0.9c0.5,0.1,0.7,0.5,0.7,0.9
		c0.6,0,1.2,0.1,1.9,0.2c0.2,0,0.4,0.2,0.4,0.4c0,0,0.1,0,0.1,0c0.6,0.1,0.4,1.1-0.3,1c-4-0.7-8.1-0.5-12.2-1.1
		c-0.4-0.1-0.4-0.5-0.2-0.8c-1.7-0.1-3.3-0.2-5-0.3c-0.2,0-0.4,0.1-0.5,0.1c-1.9-0.1-3.7-0.2-5.6-0.5c-2.2-0.2-4.3-0.5-6.4-0.9
		c-0.4-0.1-0.6-0.3-0.6-0.5c-13.9-4-25.5-13.7-31.6-27.4c-0.3-0.6-0.3-1.1-0.2-1.7c-1.2-1.7-2.4-3.5-3-5.5c-0.3-1-0.4-1.9-0.4-2.8
		C388.9,433.8,388.3,433.5,388.5,433.1z"/>
	<g>
		<path class="st2" d="M672.2,576.7c7.1,2.2,12.7,8.8,13.7,16.2c0.4,2.7,0.1,5.7-1.4,8c-1.8,2.8-5.2,4.2-8.4,4.8
			c-3.2,0.6-6.7,0.5-9.7-0.8c-3-1.3-5.6-3.8-6.5-7c-1.1-4.2,0.8-8.6,2.8-12.6c1-2.1,2.1-4.2,3.8-5.8s4-2.7,6.2-2.3"/>
		<g>
			<g>
				<g>
					<path d="M672.2,576.7c7.3,1.1,13.9,7.4,15.5,15.4c0.4,2,0.6,4.1,0.1,6.2c-0.4,2.1-1.5,4.4-3.2,5.9c-1.7,1.6-3.7,2.5-5.6,3.2
						c-2,0.6-4,1-6,1.1c-2.1,0-4.2-0.2-6.2-0.9c-2-0.6-4-1.8-5.6-3.3c-1.6-1.5-2.8-3.4-3.4-5.6c-0.6-2.2-0.5-4.4,0-6.4
						c0.5-2,1.3-3.8,2.2-5.4c0.9-1.7,1.8-3.2,2.9-4.8c1.1-1.6,2.4-3.1,4.2-4.1c1.7-1,3.8-1.4,5.5-0.8c-1.9,0-3.5,0.8-4.7,2
						c-1.2,1.1-2.1,2.6-2.8,4.2c-0.7,1.6-1.4,3.3-2,4.9c-0.6,1.6-1.1,3.3-1.3,4.8c-0.2,1.6-0.1,3.1,0.3,4.4c0.5,1.3,1.3,2.5,2.4,3.4
						c2.2,2,5.2,2.7,8.4,2.6c3.2-0.1,6.5-0.9,8.6-2.7c2.1-1.6,2.7-4.8,2.4-8C683.2,586.2,678.8,579.9,672.2,576.7z"/>
				</g>
			</g>
		</g>
	</g>
	<path class="st2" d="M501.4,598.1c-0.3-9.3-1.7-18.5-3.2-27.6c-0.7-4.4-1.2-9.1-3.5-13.1c-1.9-3.4-4.9-5.7-7.5-8.5
		c-6.4-7-7.1-14.6-6.9-23.5c0.2-8.4-4.9-10.8-12.4-11.8c-9.7-1.2-19.3-2.6-28.8-5.1c-18.4-4.9-35.5-13.9-54.4-16.9
		c-1.7-0.3-3.1,0.3-4.1,1.3c-0.2,0-0.3-0.1-0.5-0.1c-1.5-0.5-2.7-0.2-3.6,0.5c5.4,4.4,11.4,8.1,17.3,11.6c1.9,1.1,3.7,2.3,5.5,3.6
		c5.8,2.1,11.5,4.4,17,7.1c12.2,6,22,14.5,32.3,23.3c4.7,4.1,9.6,7.9,14.7,11.4c0.1,0.1,0.3,0.2,0.5,0.3c0,0,0,0,0,0
		c-1.3,2.3-0.4,4.7,1.6,6.2c3,2.1,5.6,4.8,7.6,7.8c1.1,1.7,3.1,2.5,5,2.1c1.7,6.1,2.2,12.9,3.3,19.1c1.4,7.6,2.7,15.2,4.1,22.8
		c0.3,1.8,1.4,2.7,2.6,3.1c0.4,1.9,0.7,3.8,1.2,5.7c0.7,2.9,4.2,4.1,6.6,2.7C502.7,615.8,501.6,605.1,501.4,598.1z"/>
	<path class="st2" d="M665.1,642.2c-7.9-13.5-22.5-20.9-32.6-32.6c-5.1-6-9.6-12.4-13.8-19c-4.3-6.8-8.8-13.6-11.7-21.1
		c-3.3-8.4-5.8-16.6-10.9-24.1c-4.6-6.7-10.1-12.6-16.1-18.1c-5.3-4.8-11.9-12.3-19.7-12.2c-4.3,0-7.9,2.6-11.8,4.2
		c-4.3,1.7-8.9,2.8-13.5,3.5c-3.1,0.5-3.8,3.1-2.9,5.4c-0.3,0.8-0.3,1.6,0,2.6c0,0.1,0.1,0.2,0.1,0.3c-0.1,0.2-0.1,0.4-0.2,0.6
		c-0.7,4.6-1.8,9.1-2.1,13.8c0,0,0,0,0,0.1c-1,1.6-2.2,3.1-3.6,4.6c-3.9,4.5-6.8,9.8-5.1,16c1.7,6.1,7.1,10.2,11.4,14.5
		c5,5,8.4,11.1,11.7,17.3c6.7,12.6,13.1,24.2,25.3,32.2c13.1,8.6,28.6,11.9,42.9,17.7c14.5,5.8,26.9,18.7,43,19.9
		c6.2,0.5,13.1-0.9,14.6-7.8C671.4,654,668,647.2,665.1,642.2z"/>
	<g>
		<path class="st2" d="M723.4,693.6c-2.4-0.5-5-0.9-7.4-0.2c-4.6,1.3-7.2,6.4-7.7,11.2c-0.2,1.6,0,3.5,1.1,4.6
			c0.7,0.7,1.7,1,2.7,1.3c3.2,0.8,6.7,0.5,9.8-0.8c1.4-0.6,2.7-1.4,3.5-2.6c0.9-1.5,0.9-3.3,0.9-5c0-1.7-0.5-3.8-2.1-4.1"/>
		<g>
			<g>
				<g>
					<path d="M723.4,693.6c-2.3,0.1-4.6,0.1-6.5,0.8c-1.8,0.7-3.2,2-4.2,3.6c-0.9,1.7-1.6,3.5-1.8,5.5c-0.2,1-0.2,2-0.1,2.7
						c0,0.4,0.1,0.7,0.2,0.9c0.1,0.2,0.2,0.3,0.3,0.4c0.2,0.2,1,0.5,2,0.7c0.9,0.2,1.9,0.3,2.9,0.3c1.9,0.1,3.9-0.3,5.7-1
						c0.9-0.3,1.6-0.8,2.1-1.3c0.5-0.5,0.8-1.4,1-2.4c0.1-0.5,0.2-1.1,0.3-1.6c0.1-0.5,0.1-1,0.1-1.6c0-1-0.1-2.2-1.3-2.6
						c0.6-0.1,1.2,0.2,1.7,0.7c0.4,0.5,0.7,1.1,1,1.6c0.2,0.6,0.4,1.2,0.5,1.8c0.1,0.6,0.2,1.2,0.2,1.8c0.1,1.2,0,2.7-0.7,4
						c-0.7,1.4-1.9,2.4-3,3c-2.3,1.4-4.8,2-7.4,2.3c-1.3,0.1-2.6,0-3.9-0.2c-0.6-0.1-1.3-0.2-2-0.5c-0.7-0.2-1.5-0.6-2.3-1.2
						c-0.8-0.6-1.4-1.5-1.7-2.3c-0.4-0.8-0.5-1.7-0.6-2.4c-0.1-1.5,0.1-2.8,0.3-4c0.6-2.5,1.6-5,3.4-7c0.9-1,1.9-1.9,3.1-2.6
						c1.2-0.7,2.5-1.1,3.8-1.1C719.1,691.8,721.3,692.6,723.4,693.6z"/>
				</g>
			</g>
		</g>
	</g>
	<g>
		<path class="st2" d="M858.1,704.9c-5.1,2.9-10.6,6.4-12,12.1c-0.7,2.7-0.2,5.7,1.3,8.1c1.5,2.4,4.2,4,7,4.2
			c2.7,0.2,5.3-0.8,7.5-2.3c2.3-1.5,4.3-3.7,5-6.3c1-3.6-0.4-7.4-1.8-10.9c-0.5-1.1-0.9-2.3-1.8-3.1c-1.6-1.7-4.3-1.9-6.6-1.8
			c-2.4,0.1-4.8,0.5-7-0.4"/>
		<g>
			<g>
				<g>
					<path d="M858.1,704.9c-2.6,2.1-5.2,4.2-7.2,6.6c-2,2.4-3.2,5.2-3.1,7.9c0.1,1.4,0.5,2.7,1.1,3.8c0.6,1.1,1.5,2,2.6,2.6
						c1.1,0.7,2.3,1,3.4,1c1.2,0,2.5-0.3,3.7-0.9c2.5-1.1,4.9-3.1,5.8-5.4c0.5-1.1,0.7-2.4,0.5-3.8c-0.1-1.4-0.5-2.9-0.9-4.4
						l-0.7-2.3c-0.3-0.8-0.5-1.4-0.8-1.9c-0.5-1-1.6-1.7-3.1-2c-1.4-0.4-3.1-0.4-4.8-0.5c-1.7-0.1-3.5-0.4-4.9-1.2
						c3.3,0.8,6.3-0.9,10-0.7c0.9,0,1.9,0.2,2.9,0.6c1,0.4,1.9,1.1,2.6,1.9c0.7,0.8,1.1,1.7,1.5,2.5c0.4,0.8,0.7,1.5,1.1,2.3
						c0.7,1.6,1.3,3.3,1.6,5.2c0.3,1.9,0.2,4-0.5,6c-0.7,2-2,3.6-3.4,5c-1.4,1.3-3,2.4-4.7,3.3c-1.8,0.8-3.8,1.3-5.9,1.3
						c-2.1-0.1-4.2-0.8-6-1.9c-1.7-1.2-3.1-2.8-4-4.7c-0.9-1.9-1.2-3.9-1.1-5.8c0.1-2,0.8-3.9,1.7-5.5c1-1.6,2.2-3,3.6-4.1
						C851.8,707.6,854.9,706.2,858.1,704.9z"/>
				</g>
			</g>
		</g>
	</g>
	<g>
		<path class="st2" d="M825.1,704c-3.2-0.3-6.5,1.3-8.1,4c-0.9,1.4-1.3,3.3-0.3,4.7c0.7,1.1,2.1,1.6,3.4,1.9
			c1.6,0.4,3.2,0.6,4.8,0.6c0.6,0,1.2,0,1.7-0.3c0.6-0.3,1-1,1.3-1.6c1-1.8,2.1-3.8,2-5.9c-0.1-2.4-2-4.6-4.3-5.2"/>
		<g>
			<g>
				<g>
					<path d="M825.1,704c-1.7,0.4-3.2,1.1-4.3,2.1c-1.1,1-2,2.2-2.3,3.3c-0.1,0.6-0.2,1.1-0.1,1.5c0.1,0.4,0.2,0.5,0.4,0.6
						c0.2,0.2,0.7,0.4,1.3,0.5c0.6,0.2,1.5,0.3,2.2,0.4c0.8,0.1,1.5,0.2,2.3,0.3l0.8,0.1c0,0,0,0,0.1,0c0.1,0,0,0.1,0.3-0.2
						c0.2-0.2,0.4-0.7,0.6-1c0.4-0.7,0.8-1.3,1.2-1.9c0.7-1.3,1-2.4,0.7-3.7c-0.3-1.3-1.2-2.8-2.7-3.7c1.8-0.1,3.8,0.9,4.9,2.6
						c0.6,0.8,1,1.9,1.1,3c0.1,1.1-0.1,2.2-0.3,3.1c-0.2,1-0.6,1.9-1,2.7c-0.2,0.4-0.3,0.8-0.6,1.2c-0.2,0.4-0.7,1.2-1.4,1.7
						c-0.6,0.5-1.4,0.8-2.3,0.9c-0.9,0.1-1.2,0-1.7,0c-0.9,0-1.9-0.1-2.8-0.2c-0.9-0.2-1.8-0.3-2.8-0.6c-1-0.3-2.1-0.7-3.2-1.7
						c-0.5-0.5-1-1.2-1.2-1.9c-0.3-0.7-0.4-1.4-0.4-2.1c0-1.3,0.4-2.5,1-3.4C817.2,704,821.8,702.6,825.1,704z"/>
				</g>
			</g>
		</g>
	</g>
	<g>
		<path class="st2" d="M897.4,704.3c1.3-0.7,2.5-1.4,3.6-2.3c1.9-1.4,3.8-3.5,3.4-5.9c-0.1-0.8-0.5-1.5-1-2.1
			c-2.1-2.7-5.9-3.8-9.1-2.9c-3.3,0.9-6,3.5-7.1,6.7c-0.6,1.6-0.8,3.4,0.1,4.9c0.7,1.2,2,1.9,3.3,2.2c1.3,0.3,2.7,0.2,4.1,0.1"/>
		<g>
			<g>
				<g>
					<path d="M897.4,704.3c0.7-0.7,1.5-1.4,2.1-2.1c0.7-0.7,1.3-1.4,1.9-2.1c0.5-0.7,0.9-1.5,1.1-2.1c0.2-0.7,0.1-1.2-0.1-1.6
						c-0.2-0.4-0.7-1-1.3-1.4c-0.5-0.5-1.2-0.8-1.9-1c-1.3-0.6-2.9-0.7-4.2-0.3c-1.4,0.3-2.8,1-3.9,2.1c-1.1,1-2,2.5-2.6,3.9
						c-0.2,0.7-0.3,1.4-0.2,2c0.1,0.6,0.4,1.1,1,1.7c1.2,1.1,3.2,1.5,5.2,1.8c-1,0.3-1.9,0.6-3,0.7c-1.1,0.1-2.2,0-3.4-0.4
						c-1.1-0.4-2.3-1.4-2.9-2.7c-0.6-1.3-0.7-2.6-0.5-3.9c0.3-2.5,1.4-4.6,2.9-6.4c1.6-1.8,3.7-3.2,6.2-3.8c2.5-0.5,5.1-0.2,7.3,0.9
						c1.1,0.6,2.1,1.3,3,2.3c0.8,0.9,1.6,2,1.9,3.5c0.4,1.5,0,3-0.6,4.1c-0.7,1.1-1.5,1.9-2.4,2.6c-0.9,0.7-1.9,1.1-2.8,1.5
						C899.4,703.7,898.4,704,897.4,704.3z"/>
				</g>
			</g>
		</g>
	</g>
	<path class="st2" d="M563.4,774.9C526.9,760,489.6,745,450,741.4c-40-3.6-80,5.8-117.6,18.6c-20.5,7-42.9,18.1-64.9,11.6
		c-4.3-1.3-6.2,5.5-1.9,6.7c18.4,5.5,37-0.4,54.5-6.6c19-6.8,38.2-13.1,57.9-17.6c19.9-4.5,40.3-7.1,60.8-6.4
		c20.2,0.6,40.2,4.7,59.5,10.5c21.6,6.4,42.5,14.9,63.3,23.4C565.7,783.3,567.5,776.6,563.4,774.9z"/>
	<path class="st2" d="M925,931.7c-15.2-8.8-32.4-13-48.5-19.9c-16-6.8-31.5-14.8-47.4-21.9c-25.5-11.4-51.8-21.4-79.2-26.4
		c-7.3-3.8-16.1-5.2-23.9-6.5c-15.6-2.6-31.4-3-47-0.8c-13.4,1.9-26.5,5.7-38.8,11.5c-6.7,3.1-13,6.9-19,11.2c-4.1,3-9,6-9.2,11.5
		c-0.1,2.6,3.9,2.6,4,0c0.2-5.5,10.2-10.3,14.3-12.8c5.2-3.2,10.7-6.1,16.4-8.4c11.5-4.9,23.7-8,36.1-9.4
		c13.1-1.5,26.4-1.2,39.4,0.7c2.2,0.3,4.5,0.6,6.9,1c-2.2,1.6-1.5,6.2,2.1,6.5c7.8,0.7,15.5,1.9,23.2,3.5c0.5,0.5,1,1.1,1.4,1.7
		c1.1,1.5,3.3,0.8,3.8-0.5c24,5.6,47.1,14.8,69.5,24.9c15.3,6.9,30.3,14.6,45.8,21.1c15.5,6.6,32.1,10.7,46.8,19.1
		C925.4,940,928.9,934,925,931.7z"/>
</g>
<g id="Toffee_Text">
</g>
<g id="Ink">
	<g>
		<g>
			<g>
				<g>
					<path d="M464.8,481.7c-1.1-5-2.9-9.6-4.8-14.2c-1.9-4.6-3.9-9-6.2-13.3c-2.3-4.2-4.7-8.4-7.5-12.2c-2.6-3.9-5.6-7.6-8.9-11
						c-3.1-3.5-6.6-6.7-10.4-9.5c-3.7-3-7.7-5.4-11.8-7.7c-4.2-2.2-8.6-4.1-13.2-5.6c-1.2-0.4-2.3-0.7-3.5-1.1
						c-1.2-0.4-2.4-0.7-3.6-0.9c-2.4-0.5-4.8-0.9-7.4-0.7c2.3-1.2,4.9-1.8,7.5-2.1c1.3-0.1,2.6-0.2,3.9-0.2c1.3,0,2.6,0,3.9,0.1
						c5.2,0.3,10.5,1.5,15.4,3.3c5,1.7,9.8,4.3,14.2,7.1c4.4,3,8.5,6.5,12.2,10.3c3.6,3.9,6.8,8.2,9.6,12.7c2.6,4.6,5,9.3,6.7,14.3
						c1.7,4.9,3,10,3.7,15.1C465.6,471.4,465.8,476.7,464.8,481.7z"/>
				</g>
			</g>
		</g>
	</g>
	<g>
		<g>
			<g>
				<g>
					<path d="M387.1,405.7c-0.8,1.4-1.4,2.8-1.9,4.2c-0.5,1.4-0.8,2.9-1,4.4c-0.4,2.9-0.5,5.9-0.3,8.9c0.1,3,0.4,6,0.7,9.1
						c0.3,3,0.6,6,1.1,9c1,5.8,2.2,11.5,4.7,16.5c1.1,2.5,2.5,4.9,4.1,7c1.7,2.2,3.6,4.3,5.7,6.3c2.1,2.1,4.2,4.2,6.4,6.1
						c2.2,2,4.5,3.9,6.8,5.4c2.2,1.6,4.4,2.8,7,3.7c2.6,0.9,5.4,1.5,8.3,2.1c5.7,1,11.6,1.3,17.4,0.5c5.8-0.8,11.6-2.6,16.8-6.2
						c-3.7,5.1-9.5,8.8-15.6,11c-6.2,2.2-12.9,2.9-19.5,2.5c-3.3-0.1-6.6-0.6-9.9-1.4c-3.3-0.8-6.8-2.4-9.7-4.1
						c-2.9-1.9-5.4-3.9-7.9-5.9c-2.5-2.1-4.9-4.2-7.2-6.5c-2.3-2.3-4.5-4.8-6.5-7.6c-2-2.8-3.7-5.9-5-9.1
						c-2.4-6.4-3.6-13.1-3.7-19.5c-0.1-3.2-0.1-6.4,0.1-9.6c0.2-3.1,0.4-6.3,1-9.5c0.5-3.2,1.3-6.4,2.6-9.4c0.7-1.5,1.5-2.9,2.4-4.3
						C384.9,407.9,385.9,406.8,387.1,405.7z"/>
				</g>
			</g>
		</g>
	</g>
	<g>
		<g>
			<g>
				<g>
					<path d="M359.6,500.8l14.7,8.3l7.3,4.2l3.7,2.1c1.2,0.7,2.5,1.3,3.7,2.4c1.3,1.1,2.2,2.5,2.8,4c0.6,1.5,0.9,3,1,4.5
						c0.3,3,0,5.8,0.3,8.4c0.2,1.3,0.5,2.4,0.9,3.6c0.5,1.2,1,2.5,1.6,3.7c1.2,2.4,2.5,4.8,4,7c3,4.4,6.7,8.3,11,11.2
						c4.3,2.8,9.5,4.6,14.8,6.8c2.7,1.1,5.4,2.3,8,3.9c1.3,0.8,2.6,1.7,3.8,2.6c1.2,1,2.4,2,3.4,3c2.2,2.1,4.1,4.2,6,6.3l5.7,6.2
						c15.2,16.5,30.3,33,48.1,45.9c8.8,6.6,18.3,12.5,27.7,18.9c2.3,1.6,4.7,3.2,7,4.9l0.4,0.3c0.2,0.1,0.2,0.2,0.5,0.4l1.5,1.2
						l1.5,1.2c0.5,0.4,1.1,0.8,1.4,1.3c0.8,1,1.3,1.9,1.5,3c0.3,1.1,0.3,2.3,0,3.5c-0.6,2.3-2.1,4.1-4.4,5.5
						c-1.1,0.7-2.4,1.2-3.7,1.6l-2.3,0.8c-2.7,0.9-5.4,1.8-8.1,2.7c-10.9,3.3-22.3,6.2-34.1,7.1c-11.8,0.9-24-0.4-35.3-4.9
						c-5.6-2.3-11-5.5-15.6-9.4c-4.7-4-8.6-8.6-11.9-13.5c-6.7-9.8-11.1-20.6-15.1-31.1c-8.1-21-16.6-41.7-25.8-62.2
						c-2.3-5.1-4.3-10.4-7.7-14.2l-1.4-1.5c-0.5-0.5-0.7-0.8-1.1-1c-0.2-0.1-0.4-0.2-0.6-0.3l-0.9-0.3c-0.7-0.2-1.3-0.3-2-0.5
						c-2.7-0.6-5.4-1-8.1-1.1c-1.4-0.1-2.7-0.1-4.1,0c-1.4,0-2.7,0.1-4,0.4c-1.3,0.3-2.5,0.7-3.6,1.4c-1.1,0.7-2,1.6-2.9,2.7
						c-1.7,2.1-2.7,4.7-3.8,7.3l-3.2,7.8l2.5-8.1c0.8-2.7,1.7-5.4,3.3-7.9c0.8-1.2,1.8-2.4,3-3.3c1.2-0.9,2.7-1.5,4.1-1.9
						c1.4-0.4,2.9-0.6,4.3-0.8c1.4-0.2,2.9-0.3,4.3-0.3c2.9-0.1,5.8,0.1,8.7,0.6c0.7,0.1,1.4,0.2,2.2,0.4l1.1,0.2
						c0.5,0.1,0.9,0.3,1.3,0.5c0.9,0.4,1.6,1.1,2.1,1.6l1.6,1.5c2.2,2.2,3.9,4.7,5.3,7.2c1.5,2.5,2.7,5.1,4,7.6
						c10.3,20.1,19.8,40.6,28.6,61.3c4.5,10.2,8.9,20.4,15.1,29c3.1,4.3,6.6,8.3,10.6,11.5c4,3.2,8.5,5.8,13.3,7.6
						c9.6,3.8,20.4,4.8,31,4c10.7-0.9,21.3-3.6,31.8-6.9c2.6-0.8,5.3-1.7,7.9-2.5l1.7-0.6l0,0c0,0,0,0,0.1,0c0,0,0,0,0-0.1l-0.2-0.1
						l-0.1-0.1l-0.7-0.5c-2.2-1.6-4.5-3.2-6.7-4.8c-9.1-6.3-18.7-12.4-27.9-19.3c-9.1-7.1-17.6-14.9-25.5-23
						c-7.9-8.2-15.4-16.7-22.7-25.3l-5.5-6.4c-1.8-2.1-3.6-4.3-5.4-6.2c-1.8-1.9-3.7-3.5-5.8-4.9c-2.1-1.4-4.5-2.6-7-3.8
						c-4.9-2.3-10.4-4.5-15.4-8.1c-4.9-3.6-8.9-8.3-11.9-13.3c-1.5-2.5-2.8-5.2-3.9-7.9c-0.6-1.4-1-2.7-1.5-4.1
						c-0.5-1.4-0.8-3.1-0.9-4.6c-0.2-3.1,0.3-5.9,0.2-8.5c-0.1-2.6-0.6-5.1-2.3-6.7c-0.8-0.8-2-1.6-3.2-2.4l-3.5-2.4l-7-4.8
						L359.6,500.8z"/>
				</g>
			</g>
		</g>
	</g>
	<g>
		<g>
			<g>
				<g>
					<path d="M351.6,549c-4.2,6-7.4,12.6-8.4,19.6c-0.5,3.5-0.4,6.9,0.4,10.2c0.4,1.6,1,3.2,1.6,4.8c0.7,1.5,1.5,3,2.4,4.5
						c1.8,2.9,4.1,5.6,6.5,8c2.4,2.5,5.1,4.8,7.8,7.1c5.5,4.6,11.4,9.1,16.6,14.9c2.6,2.9,5,6.1,6.9,9.6c1.9,3.5,3.4,7.2,4.4,11.1
						c0.5,1.9,0.9,3.9,1.2,5.9c0.1,1,0.3,2,0.3,3c0,0.5,0.1,1,0.1,1.6c0,0.3,0,0.6,0,0.9c0,0.4,0,0.9-0.1,1.3
						c-0.2,1.7-0.7,3.4-1.7,4.8c-1,1.4-2.5,2.4-4.1,2.9c-0.8,0.3-1.8,0.4-2.4,0.5c-0.5,0.1-1.1,0.2-1.6,0.2
						c-1.1,0.1-2.2,0.1-3.2,0.2c-4.3-0.1-8.4-1.1-12.1-2.3c-3.8-1.3-7.3-2.8-10.6-4.4c-6.7-3.1-13.3-6.5-19.8-10
						c-3.2-1.8-6.4-3.7-9.6-5.6c-3.2-2-6.4-4-9.4-6.4c-6.1-4.6-11.6-9.9-16.6-15.5c-4.9-5.7-9.4-11.6-13.6-17.7
						c-2.1-3-4.1-6.1-6.1-9.2c-2-3.1-3.9-6.1-5.9-9c-4-5.7-8.5-10.7-14.5-13.1c-2.9-1.2-6.1-1.8-9-1.4c-1.5,0.2-2.8,0.7-4.2,1.5
						c-1.5,0.8-2.8,1.6-3.8,2.6c-0.5,0.5-0.9,1.1-1.3,1.7c-0.4,0.6-0.6,1.2-0.8,2c-0.4,1.4-0.5,3.1-0.6,4.9c-0.1,1.8,0,3.7-0.4,5.7
						c-0.3,2-1,3.8-1.6,5.6c-0.7,1.7-1.4,3.4-1.9,5c-0.5,1.7-0.9,3.4-1.3,5.2l-1.9,10.8l0.5-10.9c0.1-1.8,0.3-3.7,0.6-5.6
						c0.4-1.9,0.9-3.6,1.4-5.4c0.5-1.7,0.8-3.4,0.9-5c0.1-1.6-0.1-3.4-0.2-5.2c-0.1-1.8-0.2-3.8,0.2-6c0.2-1.1,0.5-2.2,1-3.2
						c0.5-1,1.1-2,1.8-2.8c1.4-1.7,3.1-2.9,4.8-4c1.6-1.1,3.7-2.1,5.9-2.5c4.2-0.9,8.5-0.4,12.4,0.9c3.9,1.3,7.5,3.5,10.5,6.1
						c3.1,2.6,5.6,5.5,8,8.5c2.4,3,4.4,6,6.5,9c2.1,2.9,4.2,5.9,6.3,8.8c4.3,5.8,8.7,11.3,13.5,16.5c4.7,5.2,9.9,10,15.4,14
						c5.5,4.1,11.8,7.6,18.1,11c6.2,3.5,12.6,6.8,19.1,10c3.2,1.6,6.4,3,9.5,4.1c3.1,1.1,6.2,1.8,9.2,1.9c0.7,0,1.5,0,2.2,0
						c0.4,0,0.7-0.1,1.1-0.1c0.2,0,0.1,0,0.2,0c0.1,0,0.3-0.1,0.3-0.3c0,0,0,0,0-0.1l0-0.5c0-0.3,0-0.8,0-1.2c0-0.8-0.1-1.6-0.2-2.4
						c-0.2-1.6-0.5-3.3-0.8-4.9c-0.7-3.2-1.9-6.3-3.3-9.3c-1.4-3-3.3-5.7-5.4-8.4c-4.3-5.3-9.7-10-15-15.1
						c-5.3-5.1-10.6-10.8-14.2-17.7c-0.9-1.7-1.7-3.5-2.3-5.3c-0.6-1.8-1.1-3.8-1.4-5.7c-0.5-3.9-0.2-7.8,0.7-11.5
						C342.4,560.6,346.7,554.3,351.6,549z"/>
				</g>
			</g>
		</g>
	</g>
	<g>
		<g>
			<g>
				<g>
					<path d="M636,768c11.1,9.3,24.3,15.5,38,19c13.7,3.4,27.9,4.2,42,2.8c14-1.4,27.9-4.4,41.4-8.7c13.6-4.1,26.9-9.4,39.8-15.3
						c13-5.8,25.8-12.4,38.4-19.3c6.3-3.4,12.6-7,19.1-10.4c6.5-3.4,13.3-6.5,20.2-9.1c13.8-5.2,28.1-8.7,42.5-11.3
						c14.4-2.5,28.8-4.1,43.2-5.3c-14.1,3.3-28.3,6.5-42.2,10.2c-13.9,3.7-27.6,8-40.6,13.7c-6.5,2.9-12.7,6.1-18.9,9.6
						c-6.2,3.5-12.4,7.3-18.7,10.9c-12.7,7.2-25.6,14-38.9,20.2c-13.4,6-27.1,11.2-41.3,15.3c-14.2,3.9-28.8,6.9-43.7,7.4
						c-14.8,0.6-29.9-1.1-43.9-6C658.6,786.9,645.7,778.9,636,768z"/>
				</g>
			</g>
		</g>
	</g>
	<g>
		<g>
			<g>
				<g>
					<path d="M1023.6,948.9c-41.7-0.1-83.6-5.2-124.4-15.6c-20.4-5.2-40.4-11.9-59.9-19.9c-19.4-8.1-38.2-17.3-57.2-25.4
						c-9.5-4.1-19-8-28.7-11.3c-9.7-3.3-19.5-6.1-29.5-7.9c-19.9-3.8-40.6-4.5-60.2,0.3c-9.8,2.4-19.1,6.1-27.9,11.3
						c-8.8,5.2-17.3,11.4-26.6,16.6c-2.3,1.3-4.7,2.5-7.1,3.6c-2.5,1.1-5,2.1-7.8,2.7c-2.7,0.6-5.7,0.7-8.6,0
						c-2.9-0.7-5.4-2.2-7.4-4.1c-4.1-3.8-6.4-9.1-7.2-14.3c-0.9-5.3-0.6-10.5-0.3-15.7c0.2,5.2,0.4,10.5,1.7,15.4
						c0.6,2.5,1.5,4.9,2.8,7c1.3,2.1,2.9,4.1,4.8,5.6c1.9,1.5,4.1,2.6,6.3,2.9c2.3,0.4,4.6,0.1,6.9-0.5c2.3-0.7,4.6-1.7,6.8-2.9
						c2.2-1.2,4.4-2.5,6.6-3.9c8.6-5.5,16.7-12.1,25.6-17.9c8.9-5.9,19-10.4,29.3-13.3c10.4-3,21.2-4.5,31.9-4.6
						c10.7-0.2,21.4,0.8,32,2.5c10.5,1.8,20.9,4.6,30.9,8c10.1,3.3,19.9,7.2,29.6,11.3c19.3,8.4,37.9,17.7,56.9,25.8
						c18.9,8.3,38.4,15.1,58.2,21.1C941.1,937.3,982.1,944.5,1023.6,948.9z"/>
				</g>
			</g>
		</g>
	</g>
	<g>
		<g>
			<g>
				<g>
					<path d="M633.4,767.4c2.3-3.5,4.9-6.8,7.7-10c2.8-3.1,6-6,9.1-8.8c3.1-2.8,6.1-5.5,8.8-8.4c2.7-2.9,5.1-5.9,6.7-9.1
						c1.6-3.2,2.4-6.6,2.5-10.2c0.1-3.5-0.5-7.2-1.7-10.6c-2.2-7-6.6-13.7-11.3-20.3c-4.5-6.6-9.5-12.8-15.3-17.9
						c-5.6-5.2-12.6-9.1-19.8-13.2c-7.2-4.1-14.4-8.2-21.6-12.5c-3.6-2.1-7.1-4.4-10.6-6.5c-3.5-2.2-7.1-4.2-10.9-5.9
						c4.1,0.6,8.2,1.9,12.1,3.4c3.9,1.5,7.8,3,11.6,4.6c7.7,3.2,15.3,6.5,22.9,9.9c3.8,1.7,7.7,3.5,11.5,5.6c3.8,2.1,7.5,4.6,11,7.3
						c6.8,5.7,12.4,12.5,17.4,19.4c2.4,3.5,4.7,7.1,6.9,10.9c2.1,3.9,4,8,5.3,12.4c1.2,4.5,1.8,9.2,1.4,13.9
						c-0.3,4.7-1.9,9.6-4.4,13.5c-2.5,4-5.7,7.3-9,10.1c-3.3,2.8-6.9,5.2-10.3,7.5c-3.5,2.3-6.9,4.5-10.2,6.9
						C639.7,762,636.5,764.6,633.4,767.4z"/>
				</g>
			</g>
		</g>
	</g>
	<g>
		<g>
			<g>
				<g>
					<path d="M389.5,263.5c-13.3,8.2-26.8,16.3-41.6,22.4c-7.3,3-15,5.5-22.8,7.2c-3.8,0.8-7.2,1.7-9.7,3.5c-1.3,0.9-2.6,2.1-4,3.4
						l-4.1,4.1c-5.4,5.5-10.7,11.1-15.8,16.9c-5.1,5.8-10.2,11.6-13.2,17.8c-1.6,3.1-2.5,6.3-3.1,9.8c-0.5,3.4-0.7,7-0.5,10.6
						c0.2,3.6,0.7,7.3,1.4,11c0.3,1.8,0.8,3.7,1.2,5.5c0.4,1.8,0.8,3.7,1.4,5.5l1.5,5.5c0.5,1.8,1.2,3.6,1.8,5.4l0.9,2.7
						c0.3,0.9,0.7,1.8,1,2.7l2.1,5.3c1.6,3.5,3,7,4.8,10.4c0.9,1.7,1.7,3.4,2.6,5.1l2.8,5c3.8,6.6,7.9,13.1,12.4,19.4
						c2.2,3.2,4.6,6.2,6.9,9.3l3.6,4.5l1.8,2.3l1.9,2.2c10,11.8,20.8,22.9,32.3,33.3c11.5,10.4,23.9,19.9,37.5,27.8
						c-14.5-6-28.1-14.4-40.6-24c-12.5-9.6-24.2-20.3-35.1-31.9l-2-2.2l-2-2.2l-3.9-4.5c-2.5-3.1-5.1-6.1-7.4-9.3
						c-4.9-6.3-9.3-13-13.5-19.8l-3-5.2c-1-1.7-1.9-3.5-2.8-5.3c-1.9-3.5-3.5-7.2-5.2-10.9l-2.3-5.6c-0.4-0.9-0.8-1.9-1.1-2.8
						l-1-2.9c-0.6-1.9-1.4-3.8-1.9-5.7l-1.7-5.8c-0.6-1.9-0.9-3.9-1.4-5.9c-0.4-2-0.9-3.9-1.2-5.9c-0.7-4-1.3-8.1-1.4-12.3
						c-0.2-4.2,0-8.5,0.7-12.8c0.8-4.3,2.1-8.6,4.2-12.5c2-3.9,4.5-7.3,7.1-10.5c2.6-3.2,5.3-6.1,8-9c5.4-5.8,11-11.4,16.9-16.7
						c1.5-1.3,2.9-2.7,4.4-4c1.5-1.3,3.1-2.7,5.1-4c2-1.3,4.2-2.1,6.3-2.7c2.1-0.6,4.2-0.9,6.1-1.2c7.6-1.1,15-3,22.3-5.3
						C361,276.5,375.2,269.9,389.5,263.5z"/>
				</g>
			</g>
		</g>
	</g>
	<g>
		<g>
			<g>
				<g>
					<path d="M1035.7,562.9c-19.6-26.8-40.1-53-61.4-78.4c-10.7-12.7-21.5-25.3-32.6-37.6c-11.1-12.3-22.2-24.6-34.5-35.3
						c-6.2-5.3-12.6-10.2-19.4-14.5c-6.8-4.3-14-8-21.5-11.2c-14.9-6.4-30.7-10.9-46.7-14.8c-16-4-32.3-7.4-48.5-11.7
						c-16.2-4.3-32.4-9.6-47.8-17.3c-1.9-0.9-3.8-2-5.7-3c-1.9-1-3.7-2.2-5.6-3.3c-1.8-1.1-3.6-2.3-5.4-3.5
						c-1.8-1.2-3.5-2.5-5.2-3.7c-6.9-5-13.4-10.5-19.6-16.1c-12.5-11.2-24.2-23-36.7-33.4c-6.2-5.2-12.7-10.2-19.5-14.4
						c-6.8-4.3-14-7.9-21.5-11.2c-14.9-6.5-30.7-11.4-46.5-16.8c-7.9-2.7-15.8-5.5-23.6-8.7c-7.8-3.2-15.5-7-22.8-10.9
						c-7.3-3.8-14.6-7.5-22.2-9.8c-7.6-2.3-15.5-3-23.1-0.9c-7.6,2-14.8,6-21.6,10.6c-6.8,4.6-13.5,9.6-19.9,14.7
						c-12.9,10.3-25.1,21.7-36.3,34c10.4-12.9,22-25,34.5-36.1c6.3-5.5,12.7-10.8,19.5-15.8c6.8-4.9,14.1-9.6,22.5-12.1
						c2.1-0.6,4.3-1.1,6.5-1.4c2.2-0.3,4.4-0.4,6.6-0.4c4.4,0.1,8.8,0.8,13,1.9c8.4,2.2,16.1,5.9,23.6,9.5c7.5,3.7,14.8,7.1,22.5,10
						c7.7,2.9,15.5,5.5,23.4,8c15.8,5,31.9,9.6,47.5,16.2c7.8,3.3,15.5,7,22.8,11.5c7.4,4.4,14.2,9.5,20.8,14.9
						c13.1,10.7,24.9,22.5,37.2,33.4c12.3,10.9,25.1,20.8,39.5,28c14.4,7.3,29.9,12.5,45.7,16.8c15.9,4.3,32.1,7.8,48.3,11.9
						c16.2,4.2,32.4,9,48,15.9c7.8,3.5,15.3,7.5,22.5,12.2c7.2,4.7,13.8,10.1,20.1,15.8c12.6,11.4,23.5,24.1,34.3,36.8
						c10.8,12.7,21.2,25.7,31.5,38.8C998.6,507.6,1017.8,534.8,1035.7,562.9z"/>
				</g>
			</g>
		</g>
	</g>
	<g>
		<g>
			<g>
				<g>
					<path d="M239.8,578.2c-1.6,7-2.6,14.1-2.9,21.2c-0.1,1.8-0.1,3.5-0.1,5.3c0,1.8,0.1,3.5,0.3,5.1c0.2,1.6,0.7,3,1.5,4.3
						c0.8,1.3,1.8,2.6,3,3.8c9.6,10.3,20.6,19.2,32.6,26.3c6,3.5,12.3,6.5,18.7,9.2c6.5,2.7,13.3,5.1,20.1,8.4
						c6.7,3.3,13.4,7.5,18.9,13.3c2.8,2.9,5.2,6.2,7.1,9.9c1.9,3.7,3.1,7.7,3.7,11.8c0.3,2.1,0.4,4.1,0.3,6.2
						c-0.1,2.1-0.3,4.3-1,6.5c-0.6,2.2-1.7,4.5-3.1,6.4c-1.4,1.9-3.1,3.5-4.8,4.8c-1.7,1.3-3.5,2.4-5.3,3.3
						c-1.8,0.9-3.6,1.6-5.4,2.3c-1.8,0.8-3.7,1.3-5.5,1.8c-0.9,0.2-1.9,0.6-2.8,0.7l-2.8,0.6c-7.5,1.4-15,1.7-22.2,1.7
						c-7.3,0.1-14.4-0.2-21.4-0.1c-7,0.1-13.9,0.7-20.5,2.3l-2.5,0.7c-0.8,0.2-1.7,0.4-2.4,0.7c-1.6,0.6-3.2,1.2-4.7,1.8
						c-3,1.4-5.8,3.2-8.2,5.5c-1.2,1.1-2.3,2.4-3.2,3.7c-0.5,0.7-0.9,1.4-1.3,2.1c-0.2,0.4-0.4,0.7-0.6,1.1
						c-0.1,0.2-0.2,0.4-0.3,0.6l-0.2,0.4c-0.2,0.5-0.3,1.1-0.2,1.6c0,0.2,0.2,0.7,0.3,1.1l0.4,1.3c0.5,1.7,1,3.5,1.6,5
						c0.6,1.5,1.6,2.9,2.7,4.3c1.1,1.4,2.3,2.7,3.4,4.1c2.3,2.6,5.2,4.9,8,7.1c-3.1-1.8-6.3-3.6-9-6c-1.3-1.2-2.7-2.5-4-3.7
						c-1.3-1.3-2.6-2.7-3.6-4.5c-0.9-1.8-1.5-3.4-2.3-5l-0.5-1.2c-0.2-0.4-0.4-0.8-0.6-1.4c-0.4-1.2-0.4-2.4-0.1-3.6
						c0.1-0.3,0.2-0.6,0.3-0.8c0.1-0.2,0.2-0.4,0.3-0.7c0.2-0.4,0.4-0.9,0.6-1.3c0.4-0.9,0.8-1.7,1.3-2.6c1-1.7,2.1-3.3,3.4-4.7
						c2.6-2.9,5.7-5.3,9.1-7.2c1.7-0.9,3.4-1.6,5.1-2.5c0.9-0.4,1.8-0.7,2.6-1l2.7-0.9c7.2-2.3,14.7-3.3,22-3.8
						c7.3-0.6,14.5-0.6,21.6-0.9c7.1-0.3,14-0.8,20.6-2.2l2.5-0.5c0.8-0.2,1.6-0.5,2.4-0.7c1.6-0.5,3.2-0.9,4.7-1.6
						c1.5-0.6,3.1-1.2,4.4-1.9c1.4-0.7,2.7-1.5,3.8-2.4c1.1-0.9,2.1-1.8,2.8-2.8c0.7-1,1.2-2,1.5-3.2c0.7-2.4,0.7-5.6,0.2-8.6
						c-0.4-3-1.3-6-2.6-8.7c-1.3-2.7-3.1-5.3-5.3-7.6c-4.3-4.7-9.9-8.4-16-11.5c-6.1-3.2-12.7-5.8-19.3-8.8
						c-6.7-3-13.3-6.5-19.4-10.6c-12.3-8.1-23.3-18.2-32.2-29.8c-1.1-1.5-2.3-3.1-3.2-5c-0.9-1.9-1.3-4-1.4-6
						c-0.1-2,0.1-3.8,0.2-5.7c0.2-1.8,0.4-3.6,0.7-5.4C235.2,591.9,237.2,584.9,239.8,578.2z"/>
				</g>
			</g>
		</g>
	</g>
	<g>
		<g>
			<g>
				<g>
					<path d="M222.7,754.6c4.1,8.1,11.1,14.1,19,17.8c7.9,3.7,16.6,5.7,25.3,6.3c4.4,0.3,8.7,0.3,13.1,0c4.4-0.3,8.8-0.8,13.1-1.5
						c8.7-1.4,17.1-3.7,25.3-6.8c8.2-3.1,16.4-6.8,24.8-10.2c8.4-3.5,17.2-6.4,26-8.9c8.9-2.4,17.9-4.2,27-5.5
						c9.1-1.2,18.3-2,27.5-2.1c2.3,0,4.6,0,6.9,0l6.9,0.2l6.9,0.5c2.3,0.2,4.6,0.5,6.9,0.7c9.1,1.1,18.2,2.7,27.1,4.8
						c17.8,4.5,34.8,10.9,51.6,16.9c8.4,3,16.9,5.7,25.5,8.1c8.5,2.3,17.2,4.1,26,5.1l3.3,0.4l3.3,0.2c2.2,0.2,4.4,0.2,6.6,0.3
						c4.4,0,8.9-0.1,13.3-0.6l1.7-0.2c0.6-0.1,1.1-0.2,1.6-0.2l3.3-0.5l3.3-0.7l1.6-0.3l1.6-0.4l3.2-0.9l3.2-1.1l1.6-0.5l1.6-0.6
						l3.1-1.3c-7.8,4.5-16.4,7.8-25.4,9.5c-4.5,1-9,1.4-13.6,1.8c-2.3,0.1-4.6,0.3-6.9,0.2l-3.4,0l-3.4-0.1
						c-9.2-0.3-18.2-1.7-27.2-3.6c-8.9-1.9-17.7-4.4-26.3-7c-17.3-5.2-34.2-11.3-51.4-15.1c-8.6-1.9-17.3-3.4-26-4.3
						c-2.2-0.2-4.4-0.5-6.6-0.6l-6.6-0.4l-6.6-0.2c-2.2-0.1-4.4,0-6.6,0c-8.8,0.1-17.6,0.7-26.3,1.8c-8.7,1.1-17.4,2.8-25.9,5
						c-8.6,2.1-16.9,4.7-25.2,7.9c-8.3,3.1-16.7,6.6-25.5,9.4c-8.7,2.9-17.9,4.9-27,5.9c-4.6,0.5-9.2,0.8-13.8,0.8
						c-4.6,0-9.3-0.3-13.8-1c-9.1-1.3-18.2-4.1-26.1-8.8c-4-2.3-7.6-5.3-10.7-8.7C226.7,762.7,224.3,758.8,222.7,754.6z"/>
				</g>
			</g>
		</g>
	</g>
	<g>
		<g>
			<g>
				<g>
					<path d="M571.4,870.1c-0.3-3.6-0.6-7.3-0.3-11.1c0.3-3.7,1.1-7.6,3.1-11.2c1-1.8,2.3-3.5,3.9-4.9c1.6-1.4,3.3-2.6,5.1-3.6
						c1.8-1,3.6-1.8,5.4-2.4c0.9-0.3,1.8-0.7,2.7-1l2.8-0.8c7.4-2.2,14.9-2.8,22.2-3.6c7.3-0.5,14.4-1,21.1-2.3
						c3.4-0.5,6.6-1.4,9.8-2.3c1.5-0.5,2.6-1,3.3-1.6c0.3-0.3,0.5-0.5,0.7-0.8c0.2-0.3,0.3-0.7,0.4-1.1c0.2-0.8,0.1-1.7-0.1-2.4
						c-0.2-0.4-0.3-0.6-0.6-1c-0.3-0.4-0.8-0.7-1.4-1.1c-0.6-0.4-1.3-0.8-2.1-1.3l-2.3-1.4c-1.6-0.9-3.1-1.9-4.6-2.9l-4.6-2.9
						c-1.6-1-3.2-2-4.8-3.2c-1.6-1.2-3.1-2.6-4.5-4.2c-1.3-1.6-2.4-3.4-3.3-5.2c-1.7-3.7-2.3-7.8-1.9-11.7c0.2-1.9,0.8-3.9,1.7-5.6
						c0.9-1.7,2.3-3.2,3.9-4c-1.3,1.3-2.1,2.9-2.5,4.6c-0.4,1.7-0.5,3.4-0.3,5.1c0.4,3.4,1.6,6.6,3.4,9.2c0.9,1.3,2,2.5,3.1,3.6
						c1.2,1,2.5,1.9,3.9,2.7c1.4,0.8,3,1.6,4.6,2.3l4.9,2.4c1.6,0.8,3.3,1.6,4.9,2.4l2.4,1.2c0.8,0.4,1.7,0.8,2.6,1.4
						c0.9,0.5,2,1.2,2.9,2.1c1,0.9,2,2.1,2.6,3.4c1.3,2.6,1.7,5.4,1.3,8.2c-0.2,1.4-0.7,2.8-1.4,4c-0.7,1.3-1.7,2.5-2.8,3.4
						c-2.1,1.8-4.4,2.8-6.3,3.5c-3.8,1.3-7.5,2.4-11.3,3c-7.6,1.3-15.1,1.5-22.3,1.9c-7.2,0.2-14.2,0.6-21,1.7l-2.5,0.5
						c-0.8,0.2-1.6,0.4-2.5,0.6c-1.7,0.4-3.3,0.9-4.8,1.5c-3,1.2-5.6,2.8-7.6,5.3c-2,2.5-3.5,5.6-4.5,9
						C572.8,862.9,572.1,866.5,571.4,870.1z"/>
				</g>
			</g>
		</g>
	</g>
	<g>
		<g>
			<g>
				<g>
					<path d="M1016,948.4c13.9-5.2,26-13.8,38.1-22.2c5.9-4.2,11.7-8.7,15.8-14.1c2-2.7,3.6-5.6,4.4-8.7c0.9-3.1,1-6.2,0.6-9.4
						c-1-6.4-4-12.9-7.6-18.9c-3.6-6-8-11.5-13.1-16.2c-9.9-9.7-23-15.8-36.5-21.9c-13.4-6.2-26.8-12.3-40.4-17.9
						c-13.5-5.7-27.3-10.8-41.2-15.4c-27.9-8.9-56.9-14.7-86.6-14.6c14.7-2.1,29.7-2.3,44.6-0.9c14.9,1.3,29.7,4.2,44.1,8
						c14.5,3.8,28.6,8.7,42.6,14.1c13.9,5.5,27.5,11.5,41,17.6c6.7,3.1,13.6,6.3,20.2,10.2c3.3,1.9,6.6,4,9.8,6.3
						c3.1,2.3,6.2,4.9,9,7.6c5.5,5.6,10.3,11.9,14.1,18.7c1.9,3.4,3.6,6.9,4.9,10.7c1.4,3.7,2.4,7.7,2.8,11.8c0.2,2.1,0.2,4.2,0,6.3
						c-0.2,2.1-0.7,4.2-1.4,6.2c-1.4,4-3.6,7.6-6.2,10.7c-5.3,6.1-11.8,10.3-18.2,14.1c-6.5,3.7-13,7.3-19.7,10.5
						C1030.3,944.2,1023.3,946.8,1016,948.4z"/>
				</g>
			</g>
		</g>
	</g>
	<g>
		<g>
			<g>
				<g>
					<path d="M885.1,391.3c6.6-0.9,13.4-0.9,20.1-0.1c6.7,0.8,13.3,2.3,19.8,4.2c6.5,2,12.8,4.4,18.9,7.1c3.1,1.4,6.1,2.8,9.2,4.2
						c3,1.5,6,3,9,4.6c23.9,12.6,45.8,28.6,66,46.5c20.3,17.8,38.7,37.6,56.2,58c17.4,20.5,33.7,41.8,50.1,62.9
						c8.1,10.6,16.2,21.2,24.4,31.7c4.1,5.3,8.2,10.5,12.4,15.7c4.2,5.2,8.4,10.5,12.4,16.1c3.9,5.6,7.6,11.5,10.6,17.9
						c0.8,1.6,1.4,3.2,2.1,4.8c0.6,1.7,1.3,3.3,1.8,5c0.6,1.7,1,3.4,1.5,5.2c0.2,0.9,0.4,1.8,0.5,2.6l0.3,1.3l0.2,1.3
						c1,7.1,0.8,14.4-0.8,21.5c-0.8,3.5-2.1,7-3.7,10.3c-1.7,3.3-3.8,6.4-6.3,9.2c-1.3,1.3-2.6,2.7-4.1,3.8c-1.4,1.2-3,2.3-4.6,3.2
						c-3.3,1.9-6.9,3.2-10.8,3.7c-1.9,0.2-4,0.2-5.9-0.1c-1.9-0.3-3.8-0.8-5.6-1.5c-3.6-1.4-6.7-3.4-9.5-5.8
						c-2.8-2.3-5.2-4.9-7.4-7.6c-1.1-1.3-2.1-2.7-3.2-4.1c-1-1.4-2.1-2.7-3-4.1l-2.9-4.2l-2.7-4.3c-0.9-1.4-1.7-2.9-2.6-4.4
						c-0.8-1.5-1.7-2.9-2.5-4.4c-6.5-11.8-12-24-18-35.9c-3-6-6.2-11.8-9.6-17.5c-3.5-5.7-7.2-11.2-11.4-16.4
						c4.5,4.9,8.7,10.2,12.6,15.6c3.8,5.5,7.4,11.2,10.8,17c6.7,11.6,12.9,23.5,19.8,34.8c0.8,1.4,1.8,2.8,2.6,4.2
						c0.9,1.4,1.8,2.8,2.7,4.1l2.8,4.1l2.9,3.9c1,1.3,2,2.6,3.1,3.8c1,1.2,2.1,2.6,3.1,3.7c2.1,2.4,4.4,4.6,6.8,6.5
						c2.4,1.9,5,3.4,7.7,4.4c1.4,0.5,2.7,0.8,4.1,0.9c1.4,0.1,2.7,0.1,4.1-0.1c2.7-0.4,5.4-1.5,7.9-3c1.2-0.8,2.4-1.6,3.5-2.6
						c1.2-0.9,2.1-2.1,3.2-3.1c1.9-2.3,3.5-4.8,4.8-7.5c1.2-2.7,2.2-5.6,2.8-8.6c1.2-6,1.3-12.3,0.3-18.3l-0.2-1.1l-0.2-1.1
						c-0.2-0.8-0.3-1.5-0.5-2.3c-0.4-1.5-0.8-3-1.4-4.4c-0.5-1.5-1.1-2.9-1.7-4.4c-0.7-1.4-1.3-2.9-2-4.3
						c-2.8-5.7-6.3-11.1-10.1-16.3c-3.8-5.3-7.9-10.4-12.1-15.6c-4.2-5.2-8.4-10.4-12.6-15.7c-8.3-10.5-16.5-21.1-24.7-31.7
						c-16.2-21.3-32.4-42.5-49.4-62.9c-16.9-20.5-34.8-40.1-54.1-58.3c-19.4-18.1-40.3-34.5-63.2-48c-11.4-6.7-23.2-12.9-35.6-17.6
						C911.7,393.5,898.5,390.6,885.1,391.3z"/>
				</g>
			</g>
		</g>
	</g>
	<g>
		<g>
			<g>
				<g>
					<path d="M1062.2,858.4c14-9.3,26.6-19.9,37.3-32.2c2.6-3.1,5.2-6.3,7.6-9.4c2.3-3.1,4.2-6.3,5.1-9.5c0.2-0.7,0.4-1.3,0.4-2
						c0.1-0.3,0.1-0.6,0.1-0.9c0-0.3,0-0.6,0-0.9c0-1.2-0.2-2.5-0.7-3.6c-0.4-1.1-1-2.1-1.7-2.8c-0.7-0.7-1.4-1.2-2.2-1.4l3.5-9.4
						c1.1,0.5,2.3,1,3.4,1.4c3.7,1.6,7.2,2.9,10.7,3.4c3.4,0.5,6.6,0.2,9.5-1.1c3-1.2,5.7-3.5,7.9-6.3c2.2-2.8,3.8-6.1,5.2-9.8
						c1.3-3.6,2.2-7.5,3-11.6c0.8-4,1.5-8.1,2-12.2c0.6-4.1,1-8.2,1.4-12.3c0.3-4.1,0.4-8.2-1.1-12.2c1.2,1.7,2.1,3.7,2.7,5.8
						c0.6,2.1,0.9,4.2,1.2,6.3c0.5,4.2,0.7,8.4,0.8,12.7c0.1,4.2-0.1,8.5-0.4,12.7c-0.3,4.2-0.9,8.6-2,12.9
						c-1.1,4.4-2.8,8.7-5.5,12.7c-2.7,3.9-6.4,7.4-10.9,9.8c-2.3,1.1-4.9,1.9-7.4,2.2c-2.6,0.3-5.1,0.3-7.5,0
						c-4.8-0.6-9.2-2.2-13.2-3.8c-1.2-0.5-2.4-1-3.6-1.6l3.5-9.4c2.6,0.8,4.8,2.4,6.5,4.3c1.7,1.9,2.8,4.1,3.6,6.3
						c0.8,2.2,1.1,4.5,1.1,6.8c0,0.6,0,1.2-0.1,1.8c-0.1,0.6-0.1,1.2-0.2,1.7c-0.2,1.1-0.5,2.2-0.8,3.2c-1.7,4.8-4.4,8.7-7.2,12.1
						c-2.8,3.4-5.7,6.5-8.9,9.4C1092.8,843.6,1078.1,852.9,1062.2,858.4z"/>
				</g>
			</g>
		</g>
	</g>
	<g>
		<g>
			<g>
				<g>
					<path d="M293.1,375.8c-1.9-2.1-2.9-4-3.7-5.6c-0.5-0.8-0.7-1.5-1.1-2.2c-0.2-0.7-0.5-1.3-0.8-1.9c-0.1-0.6-0.3-1.1-0.6-1.7
						c-0.1-0.6-0.4-1.2-0.6-1.9c-0.2-0.7-0.5-1.4-0.8-2.3c-0.4-0.9-0.9-1.9-1.7-3c1-1,2.4-1.4,3.8-1.5c1.4,0,2.7,0.3,4,0.9
						c1.3,0.5,2.3,1.5,3.2,2.4c0.8,1,1.5,2.2,2.1,3.4c0.4,1.2,0.6,2.5,0.8,3.7c-0.1,1.2,0,2.4-0.4,3.6
						C296.6,372.1,295.4,374.1,293.1,375.8z"/>
				</g>
			</g>
		</g>
	</g>
	<g>
		<g>
			<g>
				<g>
					<path d="M540.1,229.7c0.9-0.9,1.1-2.1,1.3-3.4c0.1-0.6,0.3-1.2,0.5-1.9c0.1-0.3,0.3-0.7,0.4-0.9c0.1-0.3,0.3-0.6,0.4-0.8
						c1.2-2.2,2.8-4.3,4.6-6.2c0.9-0.9,1.8-1.8,2.7-2.7l0.7-0.6l0.4-0.3l0.5-0.4l1-0.8l0.3-0.2c0.1-0.1,0.2,0,0.3-0.1l0.6,0l1.3-0.1
						l1-0.1c0.6,0,1.3-0.1,1.9-0.1c1.3,0,2.6-0.1,3.8-0.1c10.3-0.1,20.5,2.1,30.1,5.5c4.8,1.6,9.5,3.6,14.1,5.8
						c2.3,1.1,4.5,2.2,6.8,3.4l3.4,1.8c1.1,0.6,2.1,1.2,3.1,1.7c4.1,2.3,8.4,4.2,12.7,5.5c4.3,1.3,8.6,1.9,12.2,1.2
						c1.8-0.4,3.3-1,4.7-2l0.5-0.4l0.5-0.4c0.3-0.3,0.6-0.6,0.9-0.9c0.3-0.3,0.6-0.7,0.8-1.1l0.4-0.6c0.1-0.2,0.1-0.1,0.1-0.1
						c0,0.2,0.1-0.5,0.2-0.8c0.1-0.4,0.1-0.8,0.2-1.2c0.1-0.8,0-1.6-0.2-2.4c0-0.2-0.1-0.4-0.1-0.6c-0.1-0.2-0.1-0.3-0.2-0.6
						l-0.6-1.6c-0.4-1-0.9-2.1-1.3-3.1c-3.6-8.4-9.8-15.8-16-23.4c-3.2-3.8-6.4-7.5-9.6-11.4l-1.2-1.5l-0.6-0.7l-0.4-0.5
						c-0.1-0.2-0.3-0.4-0.4-0.6l-0.5-1l-0.4-0.7c-0.3-0.5-0.5-1-0.8-1.5c-0.6-1-1.2-1.9-1.9-2.8l-0.3-0.3l-0.4-0.5
						c-0.3-0.3-0.5-0.8-0.7-1c-0.3-0.6-0.6-1.1-0.9-1.7c-2.4-4.5-4.5-9.3-5.3-14.5c-0.3-2.6-0.3-5.3,0.5-7.8c0.7-2.5,2.2-4.7,4-6.4
						c-1.4,2-2.4,4.3-2.6,6.7c-0.3,2.3,0.1,4.7,0.8,6.9c1.4,4.5,3.9,8.6,6.7,12.5c0.3,0.5,0.7,1,1.1,1.5c0.4,0.5,0.4,0.4,1,1.1
						c1,1,1.9,2,2.7,3.1c0.4,0.5,0.8,1.1,1.2,1.6l0.6,0.9l0.3,0.4c0.1,0.1,0.1,0.1,0.1,0.2c0,0.1,0.1,0.1,0.1,0.1
						c0,0,0.1,0.1,0.2,0.2l0.6,0.7l1.3,1.3l10.5,10.5c3.5,3.5,7,7.3,10.2,11.3c3.2,4,6.2,8.4,8.6,13.2c0.6,1.2,1.2,2.4,1.6,3.7
						l0.8,1.9c0.1,0.3,0.3,0.8,0.4,1.1c0.1,0.4,0.2,0.8,0.3,1.2c0.4,1.6,0.5,3.3,0.5,5c0,0.8-0.1,1.7-0.3,2.5
						c-0.2,0.9-0.3,1.4-0.7,2.8c-0.1,0.3-0.3,0.6-0.4,0.8l-0.4,0.7l-0.6,1c-0.5,0.6-0.9,1.3-1.4,1.9c-0.5,0.6-1,1.2-1.6,1.8
						c-0.3,0.3-0.6,0.6-0.9,0.8l-1,0.8c-2.6,2-5.7,3.3-8.8,4c-3.1,0.6-6.1,0.5-9,0.2c-2.8-0.4-5.5-1-8.1-1.9
						c-5.2-1.7-9.9-4-14.4-6.6c-1.1-0.7-2.2-1.4-3.3-2l-3.1-1.8c-2.1-1.2-4.2-2.4-6.3-3.6c-4.2-2.3-8.6-4.4-13-6.4
						c-8.8-3.8-18-6.7-27.5-7.9l-3.6-0.4c-0.6-0.1-1.2-0.1-1.8-0.1l-0.9,0l-0.6-0.1c-0.4-0.1-0.7,0.1-1.1,0.3l-0.3,0.2l-0.4,0.2
						l-0.8,0.5c-1,0.7-2,1.4-3,2.1c-1.9,1.4-3.7,3-5.2,4.9c-0.4,0.5-0.8,0.9-1.1,1.4c-0.3,0.5-0.5,1.1-0.8,1.6
						C541.7,227.7,541.2,229,540.1,229.7z"/>
				</g>
			</g>
		</g>
	</g>
	<g>
		<g>
			<g>
				<g>
					<path d="M611.9,159.6c-0.9-3-1.2-6.2-0.7-9.3c0.6-3.2,2.2-6.3,5-8.4c0.7-0.5,1.4-1,2.2-1.3c0.4-0.2,0.7-0.4,1.1-0.5
						c0.4-0.2,0.8-0.3,1.3-0.5c2-0.5,3.8,0,5.4,0.3l4.5,1c0.7,0.2,1.5,0.4,2.2,0.5c0.3,0.1,0.8,0.1,1.3,0.3c0.5,0.1,1.1,0.3,1.5,0.6
						l2.8,1.4c1,0.5,1.9,1,2.9,1.6c1.9,1.1,3.8,2.3,5.5,3.6c3.6,2.5,6.9,5.4,10.1,8.4c6.3,6.1,11.9,12.7,16.9,19.8
						c4.4,6.1,8.2,12.7,11.6,19.2c3.5,6.5,6.7,13,10.3,19.1c7.1,12.4,15.4,24.2,24.6,35.2c9.1,11.1,19.1,21.5,30,30.8
						c10.7,9.5,22.6,17.8,34.4,26.6c11.8,8.7,23.6,17.9,33.8,28.8c2.5,2.7,5,5.5,7.3,8.4c2.3,2.9,4.5,5.9,6.6,9
						c2.1,3.1,3.9,6.3,5.6,9.6c1.7,3.3,3.1,6.7,4.3,10.2c-1.7-3.3-3.5-6.4-5.6-9.4c-2.1-3-4.2-5.9-6.6-8.7c-2.3-2.8-4.8-5.5-7.3-8
						c-2.5-2.6-5.2-5.1-7.9-7.5c-10.8-9.6-22.7-17.8-34.9-25.9c-12.2-8-24.5-16.3-36.1-25.8c-11.4-9.6-22-20.2-31.6-31.7
						c-9.4-11.6-17.9-23.9-25.2-37c-3.6-6.6-6.7-13.3-9.9-19.8c-3.2-6.5-6.4-12.8-10.2-18.9c-4.4-6.9-9.4-13.6-14.9-19.7
						c-2.8-3-5.7-5.9-8.8-8.5c-1.6-1.3-3.2-2.6-4.9-3.7c-0.8-0.6-1.7-1.2-2.5-1.7l-2.7-1.7c-0.2-0.1-0.4-0.2-0.6-0.3
						c-0.2-0.1-0.6-0.2-1-0.3c-0.8-0.2-1.5-0.5-2.3-0.7l-4.4-1.5c-1.4-0.5-2.7-0.9-3.7-0.7l-0.9,0.2c-0.3,0.1-0.7,0.2-1,0.3
						c-0.7,0.3-1.3,0.5-1.9,0.9c-2.4,1.4-4.2,3.9-5.1,6.7C611.6,153.5,611.5,156.6,611.9,159.6z"/>
				</g>
			</g>
		</g>
	</g>
	<g>
		<g>
			<g>
				<g>
					<path d="M284.4,401.3c12,18.4,25.8,35.3,41.3,50.5c7.8,7.5,15.9,14.7,24.5,21.2c8.5,6.6,17.5,12.7,26.8,18.1
						c4.6,2.8,9.4,5.5,14.2,8.3c2.4,1.4,4.8,2.8,7.1,4.3c2.4,1.4,4.7,2.9,7,4.5c9.2,6.1,18.1,12.6,26.9,19.1
						c17.6,13,35.1,25.9,54.8,35.8c-10.4-3.5-20.4-8.3-30.1-13.6c-9.7-5.3-18.9-11.4-28.1-17.4c-9.2-6-18.2-12.2-27.4-17.9
						c-2.3-1.5-4.6-2.9-6.9-4.3c-2.3-1.4-4.6-2.8-7-4.1c-4.7-2.7-9.5-5.3-14.3-8.1c-9.5-5.7-18.7-12.1-27.4-19
						c-8.6-7-16.8-14.5-24.3-22.7C306.3,439.6,293.6,421.2,284.4,401.3z"/>
				</g>
			</g>
		</g>
	</g>
	<g>
		<g>
			<g>
				<g>
					<path d="M531.1,523.7c1.7,5.2,2.1,10.9,1.1,16.4c-0.5,2.8-1.2,5.5-2.5,8.1c-1.2,2.7-3.3,5.2-5.7,6.9c-2.5,1.8-5.3,2.9-8.1,3.6
						c-2.9,0.7-5.8,0.9-8.7,0.8c-5.8-0.3-11.6-2-16.6-5.1c-2.5-1.6-4.7-3.5-6.7-5.7c-1.9-2.2-3.5-4.7-4.8-7.4
						c-1.2-2.7-2-5.5-2.4-8.4c-0.4-2.9-0.3-5.9,0.3-8.8c0.6-2.9,1.5-5.5,2.6-8.1c0.6-1.3,1.2-2.6,2.1-3.8c0.8-1.2,1.8-2.4,2.9-3.3
						c2.2-1.9,4.5-3.3,6.8-4.8c2.3-1.4,4.7-2.8,7.1-4.1c-2.1,1.7-4.2,3.4-6.3,5.2c-2,1.8-4.2,3.5-5.9,5.4c-1.7,1.9-2.8,4.1-3.6,6.6
						c-0.8,2.5-1.5,5-1.8,7.5c-0.3,2.5-0.2,5,0.2,7.5c0.4,2.5,1.3,4.8,2.4,7.1c1.1,2.2,2.5,4.3,4.2,6.2c1.7,1.8,3.6,3.4,5.7,4.7
						c4.2,2.7,9.1,4.2,14.2,4.6c5,0.4,10.2-0.4,14.4-2.9c2.1-1.3,3.7-2.9,5-5.1c1.3-2.2,2.2-4.7,3-7.2
						C531.3,534.5,531.8,529.1,531.1,523.7z"/>
				</g>
			</g>
		</g>
	</g>
	<path class="st8" d="M406.6,432.9c4,2.9,7.1,7.8,9.8,11.6c2.6,3.6,5.3,7.3,8.5,10.4c3.5,3.4,7.7,5.8,11.7,8.5
		c2.6,1.8,5.6,4.4,8.6,5.7c0,0.1,0,0.3,0,0.4c-0.9,0-1.8-0.1-2.7-0.2c-3.5-0.5-6.3-1.9-9.4-3.2c-0.1,0-0.1-0.1-0.2-0.1
		c-3.7-2-7.2-4.2-10.4-7.1c-5.9-5.4-10.4-12.6-15.1-19.3c-0.1-0.3-0.3-0.7-0.5-1.1C406.5,436.6,406.3,434.7,406.6,432.9z"/>
	<g>
		<g>
			<g>
				<g>
					<path d="M502.9,520.9c-1,1.4-2,2.9-2.8,4.3c-0.8,1.5-1.4,3-1.5,4.5c-0.1,1.5,0.1,3.1,0.8,4.3c0.7,1.2,1.9,2,3.3,2.4
						c1.4,0.4,3,0.5,4.6,0.3c1.6-0.2,3.1-0.7,4.6-1.4c2.9-1.4,5.5-3.7,7.5-6.5c-1.1,3.3-3.5,6.3-6.5,8.2c-1.5,1-3.3,1.7-5.1,2
						c-1.8,0.3-3.8,0.3-5.6-0.2c-0.9-0.3-1.9-0.7-2.7-1.3c-0.8-0.6-1.5-1.4-2-2.3c-0.9-1.8-1.1-3.9-0.7-5.8c0.4-1.9,1.4-3.5,2.5-4.9
						C500.2,523.1,501.5,522,502.9,520.9z"/>
				</g>
			</g>
		</g>
	</g>
	<g>
		<g>
			<g>
				<g>
					<path d="M443.9,215.9c1.7-0.9,3.5-1.4,5.4-1.9c1.8-0.4,3.7-0.8,5.5-1.2c3.7-0.7,7.5-1.1,11.3-1.3c3.8-0.3,7.6-0.2,11.4-0.1
						c3.8,0.2,7.6,0.5,11.3,1c3.8,0.6,7.5,1.3,11.2,2.1c3.7,0.9,7.3,1.8,10.9,3c7.2,2.2,14.2,4.7,21.2,7.6
						c-7.5-0.9-14.8-2.3-22.1-3.8c-3.7-0.7-7.3-1.5-10.9-2.1c-3.6-0.7-7.2-1.3-10.9-1.8c-3.6-0.6-7.3-1-10.9-1.3
						c-3.7-0.4-7.3-0.5-11-0.7c-3.7-0.1-7.4-0.2-11.1-0.1l-5.6,0.1C447.6,215.5,445.7,215.5,443.9,215.9z"/>
				</g>
			</g>
		</g>
	</g>
	<g>
		<g>
			<g>
				<g>
					<path d="M463.1,477.3c-2.1,0-4.1-0.6-6.1-1.3c-1.9-0.7-3.9-1.4-5.8-2.2c-3.8-1.5-7.6-3.3-11.2-5.2c-3.7-2-7.2-4.3-10.5-7
						c-3.3-2.7-6.2-5.8-8.9-9c-2.6-3.2-5.1-6.5-7.6-9.7c-2.4-3.3-4.9-6.4-7.5-9.4c-5.3-5.9-11.3-11.2-19.1-14
						c4.1,0.4,8.2,1.7,11.8,3.8c3.7,2,7,4.7,10.1,7.5c3.1,2.8,5.8,6,8.4,9.2c2.6,3.2,5.1,6.4,7.7,9.4c2.5,3.1,5.2,6,8.1,8.6
						c2.9,2.7,6.1,5,9.4,7.3c3.3,2.2,6.8,4.3,10.3,6.4l5.3,3.1C459.4,475.7,461.1,476.7,463.1,477.3z"/>
				</g>
			</g>
		</g>
	</g>
	<g>
		<g>
			<g>
				<g>
					<path d="M452.3,474.7c-8.3-0.2-16.4,0.7-24.9,0c-4.2-0.3-8.5-1.3-12.6-2.8c-4-1.7-7.8-4-11.2-6.8c-1.7-1.4-3.2-2.9-4.6-4.6
						c-1.4-1.6-2.8-3.3-4-5.1c-2.4-3.6-4.3-7.5-5.7-11.5c-2.8-8-3.8-16.6-3.2-24.8c1.4,8.2,3.5,16.1,6.8,23.4
						c1.7,3.6,3.6,7.1,6,10.2c1.1,1.6,2.4,3.1,3.7,4.5c1.3,1.4,2.7,2.8,4.3,4c2.9,2.5,6.2,4.7,9.8,6.2c3.5,1.6,7.3,2.6,11.3,3.3
						C435.8,472.2,444.2,472.4,452.3,474.7z"/>
				</g>
			</g>
		</g>
	</g>
	<g>
		<g>
			<g>
				<g>
					<path d="M1314.9,1245.6c-15.1-13.4-28.6-28.6-41.4-44.1c-3.2-3.9-6.4-7.8-9.5-11.8l-9.3-11.9c-6-8-12.1-16-18.2-24l-9-12
						l-9.1-11.9l-9.2-11.8c-3.1-3.9-6.3-7.7-9.4-11.7c-12.6-15.4-25.9-30.3-40.1-44.7c16.9,11.1,32,24.8,46,39.5
						c3.5,3.7,6.9,7.4,10.3,11.2l9.9,11.5l9.5,11.8l9.3,11.9c6,8.1,11.9,16.2,17.8,24.3l8.7,12.3c2.9,4.1,5.8,8.1,8.7,12.3
						C1291.3,1213.1,1302.9,1229.4,1314.9,1245.6z"/>
				</g>
			</g>
		</g>
	</g>
	<g>
		<g>
			<g>
				<g>
					<path d="M1202.4,1025.6c9.7,4.5,19,9.7,28.1,15.3c9.1,5.7,17.8,11.8,26.4,18.2c8.6,6.3,16.8,13.1,25.1,19.8
						c8.1,6.9,16.2,13.8,24.2,20.8c7.9,7.2,15.7,14.4,23.5,21.6c7.6,7.4,15.3,14.8,22.7,22.4c14.9,15.2,29.2,30.9,42.6,47.5
						c-16.4-13.7-32.2-27.8-48-41.9c-8-7-15.8-14.1-23.7-21.1c-7.9-7.1-15.8-14.1-23.7-21.1c-7.8-7.1-15.8-14.1-23.7-21.1
						c-7.8-7.1-15.9-14-23.8-20.9c-8-6.9-16.1-13.7-24.3-20.3C1219.3,1038.4,1211,1031.9,1202.4,1025.6z"/>
				</g>
			</g>
		</g>
	</g>
	<g>
		<g>
			<g>
				<g>
					<path d="M1395.6,1192.4c-6.8,5-14.1,9.1-21.4,12.8c-3.6,2-7.2,3.6-10.6,5.6c-3.5,1.8-6.6,3.8-9.6,6.2c-3.1,2.2-6.1,4.8-9.2,7.5
						c-3.2,2.6-6.2,5.3-9.6,7.8c-6.5,5.1-13.2,9.9-20.7,14c4.6-7.2,9.8-13.6,15.3-19.8c2.7-3.2,5.6-6,8.4-9.1c3-2.9,6.1-5.8,9.6-8.6
						c3.5-2.6,7.5-4.9,11.3-6.7c4-1.7,7.9-3.3,12-4.4C1379.2,1195.5,1387.2,1193.5,1395.6,1192.4z"/>
				</g>
			</g>
		</g>
	</g>
	<g id="Leaf_Lines_1_">
		<g>
			<g>
				<g>
					<g>
						<path class="st9" d="M1144.2,964.5c6.6-17.1,14.2-33.6,20.1-50.5c2.9-8.5,5.6-17,7.4-25.6c0.5-2.2,0.9-4.3,1.4-6.5
							c0.4-2.2,0.8-4.3,1.1-6.5c0.6-4.4,1-8.8,1.4-13.2c0.9-8.9,1.3-18,1.9-27.1c0.7-9.1,1.3-18.1,2.2-27.2
							c1.7-18.1,3.7-36.2,6.7-54.3c1.2,18.3,1.3,36.5,1.1,54.7c0,9.1-0.3,18.2-0.5,27.3c-0.4,9.1-0.7,18.1-1.3,27.4
							c-0.4,4.6-1,9.2-1.7,13.9c-0.4,2.3-0.9,4.6-1.3,6.9c-0.5,2.3-1,4.6-1.6,6.8c-2.5,9-5.6,17.8-9.4,26.2
							C1164.1,933.8,1154.5,949.5,1144.2,964.5z"/>
					</g>
				</g>
			</g>
		</g>
		<g>
			<g>
				<g>
					<g>
						<path class="st9" d="M1188.9,631.1c-2.4-7.9-3.7-15.8-4.5-23.8c-0.5-4-0.7-8-1-11.9l-0.3-11.9l0.3-11.9c0.3-4,0.4-8,0.9-11.9
							c0.8-8,2-15.9,4.3-23.8c1.9,8,2.9,15.9,3.6,23.9c0.4,4,0.5,7.9,0.8,11.9l0.3,11.9l-0.2,11.9c-0.2,4-0.3,7.9-0.7,11.9
							C1191.7,615.1,1190.8,623.1,1188.9,631.1z"/>
					</g>
				</g>
			</g>
		</g>
		<g>
			<g>
				<g>
					<g>
						<path class="st9" d="M1081.8,494.5c-3.3-23.9-6.6-47.6-10.7-71.1c-1.2-5.9-2.2-11.7-3.3-17.6l-3.6-17.5l-3.9-17.4l-4.4-17.3
							l-4.7-17.2l-5.3-17l-5.7-16.9c-2.1-5.6-4.2-11.1-6.2-16.7c-8.7-22.2-18.7-43.8-30-65.1c14.8,19,27,40.1,37.2,62
							c2.5,5.5,4.9,11.1,7.3,16.6l6.5,17l5.7,17.3l5.1,17.4l4.3,17.6l3.7,17.8l3,17.9c0.8,6,1.7,12,2.3,18
							C1081.6,446.3,1082.7,470.4,1081.8,494.5z"/>
					</g>
				</g>
			</g>
		</g>
		<g>
			<g>
				<g>
					<g>
						<path class="st9" d="M935.3,379.3c0.3-5.5-0.1-11-1.2-16.3c-1-5.3-2.7-10.5-4.5-15.6c-1.9-5.1-4-10.1-6.1-15.2
							c-2.2-5.1-4.2-10.2-6.4-15.2l-6.5-15.2c-2.1-5.1-4.4-10.1-6.6-15.1c-2.2-5.1-4.4-10.1-6.6-15.1c-2.3-5-4.5-10-6.9-15
							c-2.3-5-4.5-10-6.9-15l-3.5-7.5l-3.6-7.4c-2.3-5-4.8-9.9-7.1-14.9c-2.4-4.9-4.9-9.9-7.2-14.8c-9.9-19.7-19.7-39.5-29.6-59.2
							c13.4,17.7,25.4,36.3,36.5,55.5c2.8,4.8,5.5,9.6,8.2,14.5c2.6,4.9,5.3,9.8,7.8,14.7l3.7,7.4l3.7,7.5c2.5,5,4.8,10,7.2,15
							c2.3,5,4.5,10.1,6.7,15.2c2.2,5.1,4.4,10.2,6.5,15.3c2,5.2,4.1,10.3,6,15.5l2.9,7.8c0.9,2.6,1.8,5.2,2.7,7.8
							c1.9,5.2,3.6,10.5,5.3,15.8c1.7,5.3,3.3,10.6,4.7,16.1c1.3,5.5,2.3,11.1,2.6,16.7C937.2,368.3,936.7,373.9,935.3,379.3z"/>
					</g>
				</g>
			</g>
		</g>
		<g>
			<g>
				<g>
					<g>
						<path class="st9" d="M785.1,282.9c-8.6-17.8-16.6-35.6-24.9-53.4c-2.1-4.4-4.2-8.8-6.2-13.3l-6.3-13.2l-6.2-13.3l-6.4-13.2
							l-6.4-13.2l-6.6-13.1l-6.6-13.1c-2.2-4.3-4.5-8.7-6.6-13.1c-8.9-17.4-17.9-34.8-26.6-52.5c12.3,15.5,23.3,31.8,33.5,48.7
							c2.6,4.2,5.1,8.5,7.5,12.7l7.2,12.9l6.9,13.1l6.7,13.2l6.3,13.4l6.1,13.5l5.7,13.7c1.8,4.6,3.6,9.2,5.4,13.8
							C774.5,244.9,780.5,263.7,785.1,282.9z"/>
					</g>
				</g>
			</g>
		</g>
		<g>
			<g>
				<g>
					<g>
						<path class="st9" d="M587.6,204.4c-8.6-12.7-16.6-25.7-24.5-38.8c-2-3.2-4-6.5-5.9-9.8l-5.9-9.8l-5.7-9.8l-5.8-9.8l-5.7-9.9
							l-5.8-9.8l-5.7-9.9c-1.9-3.3-3.8-6.6-5.7-9.9c-7.5-13.2-15-26.5-22-40.2c10.4,11.4,19.7,23.5,28.6,36c2.2,3.1,4.4,6.3,6.5,9.4
							l6.3,9.6l6.1,9.7l6,9.8l5.7,10l5.6,10l5.3,10.2c1.7,3.4,3.4,6.8,5.1,10.3C576.7,175.7,582.8,189.8,587.6,204.4z"/>
					</g>
				</g>
			</g>
		</g>
		<g>
			<g>
				<g>
					<g>
						<path class="st9" d="M433.4,212.9c-8.7-13.6-17.3-27.2-26-40.8c-2.2-3.3-4.4-6.7-6.5-10.1l-6.6-10.1l-6.6-10.1l-6.7-10
							l-6.6-10.1l-6.7-10l-6.6-10.1c-2.2-3.3-4.5-6.7-6.6-10.1c-8.8-13.5-17.5-27.1-25.4-41.3c11.2,11.7,21.7,24.1,31.7,36.8
							c2.5,3.2,5,6.4,7.4,9.6l7.3,9.7l7,9.9l6.9,10l6.6,10.2l6.4,10.3l6.1,10.5c2,3.5,3.9,7.1,5.8,10.7
							C421.8,182.5,428.5,197.4,433.4,212.9z"/>
					</g>
				</g>
			</g>
		</g>
		<g>
			<g>
				<g>
					<g>
						<path class="st9" d="M245.9,186.4c-4-11.7-7.9-23.2-12.3-34.3c-1.2-2.8-2.4-5.5-3.5-8.3l-3.7-8.2l-3.8-8.1l-4.1-8l-4.2-7.9
							l-4.5-7.7l-4.6-7.7c-1.6-2.5-3.3-5-4.8-7.6c-6.6-10-13.8-19.8-21.2-29.7c10.3,6.9,19.4,15.5,27.4,25c2,2.4,3.9,4.8,5.8,7.3
							l5.4,7.6l4.9,7.9l4.6,8.1l4.1,8.4l3.7,8.6l3.1,8.8c0.9,3,1.8,6,2.6,9C244.3,161.6,246.1,174,245.9,186.4z"/>
					</g>
				</g>
			</g>
		</g>
		<g>
			<g>
				<g>
					<g>
						<path class="st9" d="M290.9,296.2c-9.1-12.5-20.6-22.6-32.7-31.9c-12.1-9.2-25-17.6-37.5-26.7c-12.6-9.1-24.4-19-36.5-28.6
							c-11.9-9.8-23.8-19.6-35.5-29.6c-11.6-10.2-23.1-20.4-34.3-31.1c-2.8-2.7-5.5-5.4-8.3-8.1c-2.7-2.7-5.5-5.4-8.2-8.2
							c-2.7-2.8-5.4-5.6-8-8.4l-7.8-8.6c-10.2-11.6-20.1-23.6-29-36.2c-8.9-12.7-17-25.9-24.1-39.5C37.8,51.8,47.2,64,57,75.7
							c9.8,11.7,20.2,23,30.9,33.9l8.1,8.1l8.2,8c2.7,2.7,5.5,5.3,8.3,7.9c2.8,2.6,5.6,5.2,8.4,7.8c11.2,10.4,22.8,20.5,34.4,30.4
							c11.5,10.1,23.3,20,35,29.9c11.7,10,23.3,20,35.1,29.7c11.9,9.6,24.3,18.8,35.9,29.2c5.8,5.2,11.3,10.7,16.4,16.6
							C282.7,283.1,287.2,289.4,290.9,296.2z"/>
					</g>
				</g>
			</g>
		</g>
		<g>
			<g>
				<g>
					<g>
						<path class="st9" d="M188.6,245.1c-12.9,3.8-26.1,6.2-39.4,7.9c-3.3,0.5-6.6,0.8-10,1.1l-10,0.9l-10,0.5l-10,0.4l-10,0
							l-10-0.2l-10-0.5c-3.3-0.2-6.7-0.5-10-0.8c-13.3-1.3-26.6-3.3-39.6-6.6c13.4-0.8,26.7-1,39.9-1.3c3.3-0.1,6.6-0.2,9.9-0.2
							l9.9-0.2l9.9-0.1l9.9-0.2l9.9-0.1l9.9-0.2l9.9-0.2c3.3-0.1,6.6-0.2,9.9-0.2C161.9,244.9,175.1,244.7,188.6,245.1z"/>
					</g>
				</g>
			</g>
		</g>
		<g>
			<g>
				<g>
					<g>
						<path class="st9" d="M260,400.4c-10-1-19.8-2.9-29.4-5c-4.9-0.9-9.6-2.2-14.4-3.3c-4.8-1.3-9.5-2.5-14.3-3.7
							c-4.7-1.4-9.5-2.7-14.2-4c-4.7-1.5-9.4-2.8-14.1-4.4c-9.4-3.1-18.7-6.3-27.9-10.5c10.1,0.1,20,1.2,29.8,2.8
							c4.9,0.7,9.8,1.8,14.6,2.8c4.8,1.1,9.6,2.3,14.5,3.5c4.8,1.4,9.5,2.8,14.3,4.2c4.7,1.6,9.4,3.1,14,5
							C242.1,391.3,251.2,395.3,260,400.4z"/>
					</g>
				</g>
			</g>
		</g>
		<g>
			<g>
				<g>
					<g>
						<path class="st9" d="M141.6,388.4c-10.7-2.7-21-6.4-31.2-10.3c-5.1-1.9-10.1-4.1-15.1-6.3c-5-2.3-9.9-4.7-14.8-7.3
							c-4.8-2.7-9.6-5.6-14.2-8.7c-2.3-1.6-4.5-3.3-6.8-5c-1.1-0.9-2.2-1.8-3.3-2.7l-1.6-1.4c-0.5-0.5-1-1-1.5-1.5
							c-4.2-3.8-7.9-8-11.3-12.5c-3.3-4.5-6-9.5-8.1-14.6c3.8,4,7.6,7.8,11.7,11.3c4.1,3.4,8.2,6.8,12.6,9.7l1.6,1.1l1.7,1.1
							c1.1,0.7,2.2,1.5,3.3,2.2c2.2,1.4,4.4,2.8,6.8,4.1c4.5,2.8,9.2,5.3,13.9,7.8c4.6,2.6,9.4,5.1,14.2,7.5c4.7,2.6,9.6,5,14.3,7.7
							C123.3,376.2,132.6,381.8,141.6,388.4z"/>
					</g>
				</g>
			</g>
		</g>
		<g>
			<g>
				<g>
					<g>
						<path class="st9" d="M330.6,515.2c-19.6,3.1-39.3,4.7-59.1,5.2c-4.9,0.1-9.9,0.2-14.9,0.2l-14.9-0.2l-14.8-0.6l-14.8-0.8
							l-14.8-1.3l-14.8-1.6l-14.7-2c-4.9-0.8-9.8-1.5-14.7-2.4c-19.5-3.4-38.8-7.8-57.8-13.7c19.7,1.8,39.3,4,58.8,5.9
							c4.9,0.4,9.8,0.9,14.7,1.4l14.7,1.3l14.6,1.3l14.7,1l14.7,1.1l14.7,0.9l14.7,0.9c4.9,0.2,9.8,0.4,14.7,0.8
							C291.2,513.4,310.8,514.1,330.6,515.2z"/>
					</g>
				</g>
			</g>
		</g>
		<g>
			<g>
				<g>
					<g>
						<path class="st9" d="M296.7,695.2c-14.1-3.7-28.1-5.5-42.3-7.4c-7.1-0.8-14.2-2-21.4-3.1c-7.2-1.3-14.4-2.8-21.5-4.8
							c-7.1-2.1-14-4.7-20.8-7.6c-6.7-3-13.3-6.2-19.6-9.9c-12.7-7.2-24.6-15.5-36-24.6c13.5,5.5,26.4,11.8,39.5,17.5
							c6.6,2.8,13,5.7,19.7,8.1c6.6,2.6,13.2,4.9,20,6.7c6.7,2,13.6,3.6,20.6,5.1c6.9,1.7,14,2.9,21,4.7c7,1.7,14.1,3.6,21,6
							C283.8,688.4,290.5,691.4,296.7,695.2z"/>
					</g>
				</g>
			</g>
		</g>
		<g>
			<g>
				<g>
					<g>
						<path class="st9" d="M541.9,857.6c-21.2,1.7-42.5,2.3-63.8,1.9c-5.3-0.1-10.6-0.3-16-0.5l-16-0.9l-15.9-1.5l-15.9-1.8
							c-5.3-0.8-10.6-1.7-15.8-2.6c-5.3-1-10.5-2.1-15.8-3.1l-15.6-3.9c-5.2-1.5-10.3-3-15.4-4.6c-20.4-6.7-40.1-15.6-57.8-27.4
							c19.7,8.1,39.7,14.8,60,19.9c5.1,1.1,10.2,2.4,15.3,3.6c5.1,1,10.3,2.1,15.4,3.1c5.2,0.9,10.3,1.9,15.5,2.7
							c5.2,0.7,10.4,1.5,15.6,2.2l15.6,2.1l15.7,1.7l15.7,1.6c5.3,0.4,10.5,0.9,15.8,1.4C499.6,853.5,520.7,855.1,541.9,857.6z"/>
					</g>
				</g>
			</g>
		</g>
		<g>
			<g>
				<g>
					<g>
						<path class="st9" d="M807.6,919.7c-7.1,0.9-14,2.8-20.7,5.1c-6.7,2.3-13.3,5-19.9,7.6c-6.7,2.6-13.4,5.1-20.2,7.6l-10.2,3.4
							c-3.4,1.1-6.8,2.3-10.3,3.3l-10.3,3.1c-1.7,0.5-3.4,1-5.2,1.5l-5.2,1.4l-10.4,2.7c-3.5,0.9-7,1.7-10.5,2.5
							c-3.5,0.8-7,1.6-10.5,2.3l-10.6,2.1c-7,1.5-14.2,2.5-21.3,3.7c-3.6,0.6-7.1,1-10.7,1.5l-10.7,1.4c-3.6,0.4-7.2,0.7-10.7,1.1
							c-3.6,0.3-7.2,0.8-10.7,1c-14.4,1-28.7,1.9-43.1,1.8c-28.7,0.1-57.5-1.8-85.8-6.4c28.7,0.5,57.1,0.2,85.5-1.4
							c14.2-0.8,28.3-2,42.5-3.4c3.5-0.3,7.1-0.8,10.6-1.2c3.5-0.4,7.1-0.8,10.6-1.2l10.5-1.5c3.5-0.5,7-1,10.5-1.6
							c7-1.1,14-2.1,21-3.4l10.5-1.9c3.5-0.7,6.9-1.4,10.4-2.2c3.5-0.7,7-1.3,10.4-2.1l10.4-2.4l5.2-1.2l5.2-1.3l10.4-2.5
							c3.5-0.8,6.9-1.8,10.3-2.7l10.3-2.7l20.5-5.9c6.8-2,13.8-4.1,20.8-5.6C793.2,920.6,800.5,919.6,807.6,919.7z"/>
					</g>
				</g>
			</g>
		</g>
		<g>
			<g>
				<g>
					<g>
						<path class="st9" d="M341.9,930.4c9.2,3.1,18,6.1,26.9,8.8c2.3,0.6,4.5,1.3,6.7,2c2.2,0.6,4.5,1.3,6.7,1.9l6.7,1.9l6.8,1.7
							l6.8,1.8l6.8,1.7l6.8,1.8c2.3,0.6,4.6,1.1,6.8,1.8c9.1,2.4,18.3,5,27.3,8.6c-9.7,0.6-19.2,0.2-28.7-0.8
							c-2.4-0.2-4.8-0.5-7.1-0.9l-7.1-1.1l-7.1-1.4l-7-1.6l-6.9-2l-6.9-2.2l-6.8-2.6c-2.2-0.9-4.4-1.9-6.6-3
							C357.2,942.3,348.9,937.1,341.9,930.4z"/>
					</g>
				</g>
			</g>
		</g>
		<g>
			<g>
				<g>
					<g>
						<path class="st9" d="M1027.7,997c-42.8,9.3-84.7,21.4-125.5,36.6c-20.4,7.7-40.3,16.1-60.2,25.2c-20,8.8-40.1,17.8-61.2,24.7
							c-10.6,3.4-21.4,6.3-32.4,8.3c-11,2.1-22.1,3.2-33.2,3.8c-22.2,0.9-44.3-0.4-66.1-2.7c-21.8-2.2-43.7-4.5-65.2-9.6
							c-10.7-2.6-21.3-5.8-31.5-10.2c-10.1-4.3-19.8-9.7-28.6-16.3c9.3,5.7,19.3,10.2,29.6,13.7c10.3,3.5,20.8,6,31.5,7.9
							c21.3,3.8,43.1,5.2,64.8,6.6c21.7,1.3,43.5,2.4,64.9,1c10.7-0.7,21.4-1.8,31.9-3.9c10.5-2,20.8-4.9,31.1-8.3
							c20.5-6.6,40.4-15.3,60.5-23.9c20.1-8.6,40.5-17,61.4-23.8C941.2,1012.2,984.2,1002.2,1027.7,997z"/>
					</g>
				</g>
			</g>
		</g>
	</g>
	<g>
		<g>
			<g>
				<g>
					<path d="M548.7,489.6c-10.5,1.8-21.3,1.9-31.9,0.4c-5.3-0.8-10.6-1.8-15.8-3.7c-5.1-1.9-10.1-4.5-14.3-8.3
						c-2.1-1.9-4-4.1-5.4-6.6c-0.7-1.3-1.4-2.6-1.9-3.9c-0.5-1.3-0.9-2.7-1.2-4.1c-0.7-2.7-1.1-5.4-1.5-8l-0.3-1.9l-0.4-1.9
						c-0.3-1.2-0.6-2.5-0.9-3.7c-0.8-2.5-1.4-4.9-2.4-7.3l-0.7-1.8l-0.3-0.9l-0.4-0.9l-1.6-3.5c-0.5-1.2-1.2-2.3-1.8-3.4
						c-0.6-1.1-1.2-2.3-2-3.3l-2.1-3.2l-2.3-3.1c-0.4-0.5-0.7-1-1.2-1.5l-1.2-1.5c-0.8-1-1.6-2-2.5-2.9c-1.8-1.8-3.5-3.8-5.5-5.4
						c-1.9-1.8-3.9-3.3-5.9-4.9c-1-0.8-2.1-1.5-3.2-2.2l-1.6-1.1c-0.5-0.4-1.1-0.7-1.7-1l-3.3-2l-3.4-1.7c-1.1-0.6-2.3-1.1-3.5-1.6
						c-1.2-0.5-2.4-1-3.6-1.4c-2.4-0.8-4.9-1.7-7.4-2.3c-2.5-0.6-5.1-1.2-7.6-1.7c-10.3-1.8-20.9-2.4-31.5-3.4l-15.8-1.5
						c-5.3-0.5-10.6-0.7-15.8,0.5c5.1-1.6,10.5-1.9,15.8-1.9c5.3,0.1,10.6,0.3,15.9,0.4c5.3,0.2,10.6,0.4,15.9,0.6
						c5.3,0.3,10.7,0.6,16,1.4c2.7,0.4,5.3,0.8,8,1.4c2.7,0.6,5.3,1.4,7.9,2.2c1.3,0.4,2.6,1,3.8,1.4c1.3,0.5,2.6,1,3.8,1.6l3.7,1.8
						l3.6,2c0.6,0.3,1.2,0.7,1.8,1l1.7,1.1c1.1,0.8,2.3,1.5,3.4,2.3c2.2,1.7,4.4,3.3,6.3,5.2c2.1,1.8,4,3.8,5.9,5.7
						c0.9,1,1.8,2.1,2.7,3.1l1.3,1.6c0.4,0.5,0.8,1.1,1.2,1.6l2.4,3.3l2.2,3.5c0.8,1.1,1.4,2.3,2.1,3.5c0.6,1.2,1.4,2.4,1.9,3.6
						l1.7,3.7l0.4,0.9l0.4,1l0.7,1.9c1,2.5,1.7,5.2,2.5,7.8c0.3,1.3,0.6,2.7,0.9,4l0.4,2l0.3,2c0.4,2.7,0.7,5.2,1.3,7.7
						c0.3,1.2,0.6,2.4,1,3.6c0.4,1.2,0.9,2.2,1.5,3.3c1.1,2.1,2.7,4.1,4.4,5.8c3.5,3.5,8,6.1,12.8,8.1c4.8,2,9.8,3.3,15,4.4
						C527.4,489.6,538.1,490.3,548.7,489.6z"/>
				</g>
			</g>
		</g>
	</g>
	<g>
		<g>
			<g>
				<g>
					<path d="M543.2,242c-7.1-5.8-15.5-9.2-24.1-11c-4.3-0.9-8.7-1.6-13.1-1.9c-4.4-0.4-8.9-0.5-13.3-0.5c-4.5,0-9,0.1-13.5,0.2
						c-4.5,0-9.1,0.1-13.7-0.2c-9.1-0.4-18.5-1.7-26.9-5.4c9,1.6,17.9,1.8,26.9,1.4c4.5-0.2,9-0.4,13.5-0.7
						c4.5-0.2,9.1-0.4,13.7-0.5c4.6,0,9.2,0.2,13.8,0.7c4.6,0.6,9.2,1.4,13.7,2.8c4.5,1.4,8.8,3.2,12.8,5.7
						C536.8,235.2,540.4,238.3,543.2,242z"/>
				</g>
			</g>
		</g>
	</g>
	<g>
		<g>
			<g>
				<g>
					<path d="M671.3,657.3c-4.3-6.8-7.6-14.3-12.8-20.2c-2.6-3-5.5-5.7-8.4-8.4l-8.8-8.3c-5.9-5.5-11.7-11.1-17.3-17
						c-5.5-6-10.6-12.5-14.8-19.6c-2.1-3.6-3.9-7.3-5.4-11.2c-0.7-1.9-1.5-3.9-2.1-5.9c-0.6-2-1.1-4-1.6-5.9
						c-0.9-3.9-1.9-7.7-3.3-11.2c-1.5-3.6-3.4-7-5.5-10.2c-4.3-6.5-9.9-12.1-16.2-17c-6.3-4.9-13.2-9-20.3-12.8
						c7.5,2.8,14.9,6.3,21.7,10.8c6.8,4.5,13,10.1,17.9,16.8c2.5,3.3,4.6,6.9,6.4,10.7c1.8,3.9,2.9,7.9,3.9,11.8
						c0.5,1.9,1,3.8,1.6,5.7c0.6,1.8,1.3,3.7,2,5.5c1.5,3.6,3.2,7.1,5.2,10.5c3.9,6.8,8.7,13.1,14,19c5.2,6,10.9,11.6,16.5,17.4
						c2.8,2.9,5.6,5.8,8.4,8.7c2.8,2.9,5.6,5.9,8,9.2c2.5,3.3,4.4,7,6.1,10.6C668.1,649.9,669.6,653.6,671.3,657.3z"/>
				</g>
			</g>
		</g>
	</g>
	<g>
		<g>
			<g>
				<g>
					<path d="M946.8,449.8c8.4,15.7,15.1,32.3,20.2,49.4c2.7,8.5,4.2,17.4,8.3,24.7c2,3.7,4.4,7.3,7.1,10.7c2.7,3.4,5.7,6.6,8.7,9.8
						c3,3.2,6.1,6.4,9.2,9.7c3,3.3,6,6.8,8.7,10.5c2.6,3.8,4.9,7.8,6.7,12.1c1.7,4.3,2.8,8.8,3.5,13.3c0.7,4.5,0.9,9.1,0.8,13.5
						c0,4.5-0.3,9-0.6,13.4c-0.6,8.9-1.5,17.7-1.2,26.6c-2.7-17.6,0.2-35.8-2.9-52.8c-0.8-4.2-2-8.4-3.7-12.2c-1.8-3.9-4-7.5-6.5-11
						c-2.6-3.4-5.4-6.7-8.4-9.9c-3-3.2-6.1-6.4-9.2-9.6c-3.1-3.3-6.1-6.6-8.9-10.2c-2.8-3.6-5.4-7.4-7.5-11.5
						c-2.1-4.1-3.6-8.6-4.7-12.9c-1.1-4.4-2.1-8.7-3.2-12.9C958.9,483.2,953.3,466.4,946.8,449.8z"/>
				</g>
			</g>
		</g>
	</g>
	<g>
		<g>
			<g>
				<g>
					<path d="M696.6,315.9c6.6,8.1,13.1,16.2,20.3,23.7c7.1,7.5,15,14.3,23.8,19.2c8.8,5,18.7,8,28.6,11.1
						c9.9,3.2,19.9,6.2,29.8,9.2c9.9,3.1,19.9,6.4,29.7,9.9c9.8,3.6,19.6,7.5,29,12.2c9.4,4.6,18.6,9.8,27.2,15.8
						c4.3,3,8.5,6.2,12.4,9.6c4,3.4,7.7,7.1,11.3,10.9c-15.6-13.9-33.7-24.4-52.5-32.8c-9.5-4.1-19.1-7.9-28.9-11.2
						c-9.8-3.4-19.7-6.5-29.7-9.6c-9.9-3.1-19.9-6.2-29.8-9.5c-4.9-1.7-9.9-3.4-14.8-5.3c-4.9-1.9-9.8-4.1-14.3-7
						c-9.1-5.6-16.9-13-23.7-21C708.2,333.2,702.3,324.6,696.6,315.9z"/>
				</g>
			</g>
		</g>
	</g>
	<path d="M474.4,205c10.4,0.1,20.3,3.1,29.8,7.3c2.4,1,0.3,4.5-2,3.5c-0.5-0.2-1-0.4-1.4-0.6c-0.4,0.7-1.2,1.1-2.2,0.9
		c-7.8-1.6-15.6-2.9-23.5-3.1c-3.7-0.1-7.4,0-11.1,0.5c-2.7,0.3-5.4,1.3-8,0.9c-0.9-0.1-1.4-1.1-1.5-1.9
		C453.7,205.6,470.1,205,474.4,205z"/>
	<g>
		<g>
			<g>
				<g>
					<path d="M282.9,726.1c-1.6,1.4-2.5,2.6-3.6,3.9c-0.5,0.7-1.1,1.3-1.7,1.9c-0.6,0.6-1.2,1.3-1.8,1.9c-0.7,0.6-1.3,1.1-1.9,1.7
						c-0.7,0.5-1.2,1.1-1.9,1.6c-1.2,1.1-2.4,2.2-3.8,3.8c-0.7-2-0.3-4.2,0.6-6c0.4-1,1-1.8,1.5-2.6c0.6-0.8,1.3-1.5,1.9-2.2
						c0.7-0.6,1.4-1.2,2.1-1.8c0.8-0.5,1.6-1.1,2.5-1.5C278.7,726,280.9,725.4,282.9,726.1z"/>
				</g>
			</g>
		</g>
	</g>
	<g>
		<g>
			<g>
				<g>
					<path d="M273.3,781.8c-1.8,0.8-3.8,0.8-5.6,0.3c-0.9-0.2-1.8-0.6-2.9-1.3c-0.5-0.4-1-1-1.3-1.5c-0.3-0.6-0.6-1.1-0.8-1.6
						c-0.3-1.1-0.4-1.9-0.5-2.8c0-0.9-0.1-1.8,0-2.7c0.2-1.8,0.7-3.6,1.8-5.2c1,1.7,1.6,3.3,2.1,4.8c0.3,0.8,0.5,1.5,0.8,2.3
						c0.2,0.7,0.4,1.6,0.6,2.1c0.1,0.3,0.1,0.5,0.2,0.7c0.1,0.2,0.1,0.3,0.3,0.4c0.2,0.4,0.8,0.8,1.4,1.3
						C270.6,779.5,271.8,780.5,273.3,781.8z"/>
				</g>
			</g>
		</g>
	</g>
	<g>
		<g>
			<g>
				<g>
					<path d="M284.6,589.9c-1.5,0.1-2.3,0.6-3.1,0.9c-0.4,0.2-0.7,0.3-1.1,0.5c-0.4,0.1-0.8,0.3-1.2,0.5c-0.5,0.1-1,0.3-1.5,0.4
						c-0.6,0.1-1.1,0.3-1.7,0.2c-1.2,0.1-2.4,0-3.8-0.5c0.6-1.4,1.4-2.3,2.3-3.1c0.4-0.4,0.9-0.7,1.4-1c0.5-0.3,1-0.5,1.6-0.8
						c0.6-0.2,1.3-0.3,2-0.4c0.7,0,1.5,0,2.2,0.2c0.7,0.2,1.4,0.5,2,1.1C284.1,588.5,284.5,589.2,284.6,589.9z"/>
				</g>
			</g>
		</g>
	</g>
	<g>
		<g>
			<g>
				<g>
					<path d="M245,624.7c-0.6-0.5-1-1.3-1.2-2.1c-0.2-0.8-0.3-1.5-0.3-2.2c-0.1-0.7,0-1.2,0-1.8c0.1-0.6,0.1-1.2,0.2-1.8l0.4-1.9
						c0.2-0.6,0.4-1.3,0.8-2c0.6-1.3,1.6-2.6,3.2-3.2c0.3,1.6,0.5,2.8,0.7,4c0.1,0.6,0.1,1.2,0.1,1.8l-0.1,1.9
						c-0.1,0.6-0.3,1.3-0.4,2c-0.3,0.7-0.5,1.4-0.9,1.9c-0.3,0.6-0.7,1.1-1.1,1.6C245.8,623.5,245.4,624,245,624.7z"/>
				</g>
			</g>
		</g>
	</g>
	<g>
		<g>
			<g>
				<g>
					<path d="M392.6,579.7c-1.5-1.1-2.6-1.8-3.7-2.6c-0.6-0.3-1.1-0.7-1.6-1.1c-0.5-0.4-1-0.7-1.6-1.1c-0.5-0.4-1-0.8-1.6-1.1
						c-0.5-0.4-1.1-0.8-1.7-1.3c-1.1-0.9-2.3-1.9-3.4-3.4c1.7-0.5,3.4-0.5,4.9-0.2c0.8,0.1,1.6,0.4,2.3,0.7c0.7,0.3,1.5,0.7,2.2,1.1
						c0.7,0.5,1.3,1.1,1.9,1.6c0.5,0.7,1.1,1.3,1.5,2.1C392.7,576.1,393.1,578,392.6,579.7z"/>
				</g>
			</g>
		</g>
	</g>
	<g>
		<g>
			<g>
				<g>
					<path d="M348.6,593.9c-1-1.4-1.5-2.8-1.7-4.2c-0.2-0.7-0.1-1.4-0.2-2.2c0.1-0.7,0.1-1.4,0.2-2.2c0.2-0.7,0.4-1.4,0.6-2.1
						c0.3-0.7,0.6-1.4,1.1-2c0.9-1.3,2.1-2.4,3.7-2.9c0.1,1.7,0,3,0,4.3c0,0.7-0.1,1.2-0.2,1.9c-0.1,0.6-0.2,1.2-0.3,1.8
						c-0.2,0.6-0.3,1.2-0.4,1.9c-0.2,0.6-0.3,1.3-0.6,1.9C350.3,591.3,349.7,592.6,348.6,593.9z"/>
				</g>
			</g>
		</g>
	</g>
	<g>
		<g>
			<g>
				<g>
					<path d="M661.9,164.8c-2.2,0.2-4.3-0.6-6-1.5c-0.9-0.4-1.7-0.9-2.5-1.2c-0.7-0.4-1.5-0.8-2.3-1.1c-0.7-0.4-1.5-0.7-2.3-1
						c-0.8-0.4-1.6-0.6-2.4-0.9c-1.8-0.6-3.6-1.2-5.5-1.9c1.7-1.3,3.9-1.9,6-2c1.1-0.1,2.1,0.1,3.2,0.3c1,0.3,2.1,0.6,3.1,1
						c1,0.5,1.9,1.1,2.8,1.7c0.8,0.7,1.6,1.3,2.2,2.1C659.6,161.6,660.6,163.1,661.9,164.8z"/>
				</g>
			</g>
		</g>
	</g>
	<g>
		<g>
			<g>
				<g>
					<path d="M626.7,182.5c-1.8,0-3.4-0.8-4.7-2c-0.3-0.3-0.6-0.6-0.9-0.9l-0.8-1l-0.6-1.1l-0.5-1.2l-0.3-1.2l-0.2-1.2l-0.1-1.3
						c0-0.4,0-0.8,0.1-1.3c0.3-1.7,0.9-3.3,2.3-4.5c0.7,1.7,1.2,3,1.6,4.2c0.2,0.3,0.3,0.6,0.3,0.9l0.3,0.9l0.3,0.9l0.4,0.9l0.3,0.9
						l0.4,0.9c0.1,0.3,0.2,0.6,0.3,0.9c0.1,0.3,0.2,0.6,0.3,0.9C625.7,179.4,626.1,180.7,626.7,182.5z"/>
				</g>
			</g>
		</g>
	</g>
	<g>
		<g>
			<g>
				<g>
					<path d="M580.7,219c-1.1,1.1-2.2,1.8-3.2,2.4c-0.5,0.3-1,0.5-1.5,0.8c-0.5,0.2-1,0.4-1.5,0.6c-0.5,0.1-1,0.3-1.6,0.4
						c-0.5,0.1-1,0.3-1.6,0.3c-1.1,0.2-2.3,0.3-3.9,0.3c0.3-1.6,1.1-2.8,2.1-3.7c0.5-0.5,1.1-0.8,1.6-1.2c0.6-0.3,1.2-0.6,1.8-0.8
						c0.6-0.2,1.3-0.3,1.9-0.4c0.7,0,1.3-0.1,2,0C578.1,217.7,579.5,218.1,580.7,219z"/>
				</g>
			</g>
		</g>
	</g>
	<g>
		<g>
			<g>
				<g>
					<path d="M392.3,536.7c-1.1-2.2-1.6-4.7-1.8-7.1c-0.1-1.2-0.1-2.4-0.2-3.6c0-1.2,0-2.4,0-3.5c0-0.5,0-1-0.2-1.4
						c-0.1-0.3-0.3-0.7-0.7-1c-0.7-0.7-1.6-1.4-2.5-2c-1.9-1.2-4.1-2.1-6.3-3.1c2.4,0.1,4.8,0.4,7.2,1.4c1.2,0.5,2.3,1.1,3.3,2
						c0.5,0.5,1,1.1,1.3,1.9c0.3,0.8,0.4,1.5,0.4,2.1c0,1.3-0.1,2.4-0.1,3.6c-0.1,1.2-0.2,2.4-0.3,3.5
						C392.3,532,392.2,534.3,392.3,536.7z"/>
				</g>
			</g>
		</g>
	</g>
	<path class="st8" d="M498.7,211.5c-3.4,0.3-7.5-0.9-10.7-1.6c-3.1-0.7-6.3-1.5-9.5-1.6c-3.4-0.2-6.7,0.5-10.1,0.9
		c-2.2,0.2-5,0.2-7.2,0.9c-0.1-0.1-0.1-0.1-0.2-0.2c0.5-0.4,0.9-0.8,1.4-1.2c2-1.4,4.1-1.9,6.3-2.7c0,0,0.1,0,0.1,0
		c2.8-0.7,5.7-1.1,8.7-1c5.6,0.2,11.5,1.9,17.3,3.3c0.2,0.1,0.5,0.2,0.8,0.3C496.9,209.4,497.9,210.4,498.7,211.5z"/>
	<g>
		<g>
			<g>
				<g>
					<path d="M879.6,95.9c26.7-28.7,57.6-53.5,91-74.5c2.1-1.4,4.2-2.6,6.3-3.9c2.1-1.3,4.2-2.6,6.3-3.8l5.4-3.1l5.9-3.2l12-6.3
						l1.5-0.8l0.4-0.2l0.2-0.1c0,0,0,0.1,0,0.2l0.1,0.8l0.4,3.3l0.8,6.7l0.8,6.7c0.3,2.2,0.5,4.6,0.7,6.9l0.3,3.5l0.2,2.1l0.3,3.8
						c0.2,2.5,0.4,5,0.5,7.5c0.3,9.3,0.1,18.7-0.4,28l-0.1,0.9l0,0.1l0,0.1c0,0,0,0,0-0.1l0,0l0,0l0,0l0,0l0,0.1c0,0,0,0.1,0,0.1
						c0,0,0.1,0,0.1-0.1l0-0.1c0,0.1,0,0.2,0,0.2c0,0,0,0,0.1,0l0,0l0,0l0,0l0,0l0.1-0.1l0.8-0.6c2-1.6,4.2-3,6.3-4.4
						c8.5-5.7,17.4-10.8,26.6-15.2c2.1-0.9,4.1-1.9,6.3-2.7c2.3-0.9,3.5-1.5,8-3.1l5.6-2.1c1.9-0.7,3.8-1.2,5.6-1.8l11.2-3.6
						c0.2,0.9,0.4,1.6,0.6,2.6l0.5,3.2c0.3,2.1,0.6,4.1,0.9,6.1c0.5,4,0.4,8.4-0.8,13.1c-0.1,0.6-0.3,1.2-0.4,1.7l-0.5,1.7
						c-0.3,1.2-0.8,2.3-1.2,3.5c-0.2,0.6-0.4,1.2-0.7,1.7l-0.5,1.1c-0.3,0.7-0.6,1.4-1,2c-1.3,2.7-2.7,5.1-4.1,7.5
						c-19.5,33.7-39.6,67.1-61.4,99.6c14.5-36.4,30.7-71.8,47.5-106.9c1.1-2.4,2.2-4.7,3.1-7c0.2-0.6,0.5-1.1,0.7-1.7l0.3-0.8
						c0.1-0.1,0-0.1,0.1-0.2c0-0.2,0.1-0.5,0.1-0.7c0-0.4,0-0.8-0.1-1.1c0-0.2-0.1-0.3-0.1-0.4c0-0.1-0.1-0.1-0.1-0.2
						c-0.1,0-0.2,0.1-0.3,0.1c-0.3,0.2-0.6,0.3-0.8,0.4l-0.7,0.4c0.5-0.2-2.3,1.1-4,1.9c-1.9,0.9-3.7,1.8-5.5,2.7
						c-8.3,4.1-16.2,8.9-23.8,14.2c-1.9,1.4-3.8,2.7-5.6,4.1l-2,1.6c-1,0.7-1.9,1.5-2.8,2.3l-5.7,4.9l-2.8,2.5
						c-0.5,0.4-1,0.9-1.5,1.3l-1.5,1.4l-5.9,5.7L991.4,117l-6.6,6.3l4.7-28.8c0.8-4.9,1.4-9.4,2.1-14.1c0.3-2.3,0.5-4.5,0.7-6.7
						l0.3-3.3l0.1-0.8l0.1-0.7l0.1-0.8c0.7-8.7,1-17.4,0.9-26.1c0-2.4,0-4.7-0.1-7.1l-0.1-3.5l-0.1-1.6l0-0.2c0-0.2,0.1-0.5,0.1-0.8
						l0-0.5c0-0.2,0.1-0.4-0.1-0.3l-0.8,0.2l-0.5,0.1l-0.2,0.1l-0.1,0l0,0l-0.2,0.1l-0.4,0.2c-2.2,1.1-4.3,2.2-6.4,3.3l-6.4,3.3
						C944.5,53.1,911.8,73.6,879.6,95.9z"/>
				</g>
			</g>
		</g>
	</g>
	<g>
		<g>
			<g>
				<g>
					<path d="M1068,172.1c6.9,2.7,13.7,5.7,20.3,8.9c3.9,2.1,4.9,2.1,6.4,2.1c1.4-0.1,2.6-1,2.8-2.2c0.2-1-0.3-1.9-0.7-2.5
						c-0.2-0.2-0.4-0.4-0.5-0.6c-0.1-0.1-0.2-0.2-0.2-0.2l0,0l-0.1-0.2l-0.2-0.3l-0.4-0.6c-0.9-1.7-1.9-3.3-2.8-4.6
						c-0.9-1.3-1.9-2.4-2.7-3c-0.9-0.6-1.6-0.9-2.2-1c-0.6-0.2-1.5-0.3-2.9-0.2c-1.3,0.1-3,0.4-4.9,0.8c-3.9,0.8-7.8,1.9-11.6,3.1
						c-1.9,0.5-3.9,1.1-5.7,1.7c-1.7,0.6-3.4,1.2-4.9,1.9c-3,1.4-5.6,3.2-6.9,4.8c-0.7,0.7-1.1,1.4-1.4,2c-0.2,0.7-0.4,1.4-0.2,2.5
						c0.2,2.1,1.8,5.2,3.8,8.5c4.3,6.7,9.5,13,15.3,18.9c5.8,5.9,12.4,11.5,19.6,16.6c-8.8-1.3-17.5-4.3-25.5-8.7
						c-8-4.4-15.4-10.2-21.8-17.1c-1.7-1.7-3.3-3.6-4.8-5.9c-1.5-2.3-2.9-4.9-3.8-8.1c-0.4-1.6-0.8-3.3-0.9-5
						c-0.1-1.8,0-3.6,0.3-5.4c0.6-3.6,2.1-7,4-9.7c1.9-2.7,4.2-4.8,6.5-6.6c2.3-1.8,4.6-3.2,6.9-4.4c2.3-1.2,4.7-2.2,7.1-3.1
						c2.3-0.9,4.4-1.6,6.6-2.3c4.5-1.2,9-2.2,13.6-3c2.3-0.4,4.9-0.8,7.9-0.9c3-0.1,6.4,0.2,9.9,1.5c3.4,1.3,6.4,3.5,8.7,5.8
						c2.3,2.3,3.9,4.8,5.2,7.2c1.3,2.4,2.3,4.7,3.1,6.9l0.7,1.8c0.4,0.9,0.7,1.9,1,2.8c0.6,1.9,1,3.7,1.2,5.5
						c0.3,2.3,0.1,4.6-0.4,6.6c-0.6,2.1-1.5,4-2.9,5.6c-1.8,2.1-4.2,3.5-6.8,4.2c-2.6,0.7-5.4,0.7-8,0c-2.6-0.7-5.1-2-7.4-3.6
						c-1.1-0.8-2.3-1.8-2.9-2.4l-2-1.9C1078,183,1072.9,177.7,1068,172.1z"/>
				</g>
			</g>
		</g>
	</g>
	<g>
		<g>
			<g>
				<g>
					<path d="M1181.8,181c-6.5,8-13.4,14.5-20.3,20.6c-3.4,3.3-7,5.9-10.4,9c-3.6,2.8-7.2,5.6-10.6,8.6c-3.7,2.7-7.4,5.5-11.1,8.3
						c-4,2.6-7.8,5.5-12.1,7.7c-4.2,2.4-8.6,4.7-13.3,6.5c-4.7,1.8-9.6,3.1-14.7,3.6c6.1-8.3,11.9-15.4,18.2-22.3
						c3-3.6,6.4-6.8,9.7-10.2c3.5-3.2,7.1-6.4,10.8-9.5c3.9-2.9,7.9-5.7,12-8.3c4.3-2.3,8.4-4.9,13-6.7
						C1161.9,184.3,1171.4,181.4,1181.8,181z"/>
				</g>
			</g>
		</g>
	</g>
	<g>
		<g>
			<g>
				<g>
					<path d="M1192.8,247.5c-0.2-1.2-0.6-2.3-1.3-3.3c-0.6-0.9-1.4-1.7-2.3-2.4c-1.8-1.3-3.8-2.2-5.9-2.8c-1-0.3-2.1-0.5-3.2-0.7
						c-0.5-0.1-1.1-0.1-1.6-0.2c-0.5-0.1-1.1-0.1-1.6-0.2c-2.2-0.2-4.3-0.1-6.4,0.1c-8.4,0.9-16.1,4.7-21,10.2
						c-2.4,2.9-4.3,6-5.5,9.5c-1.3,3.4-1.9,7.1-1.7,10.6c0,1.8,0.2,3.5,0.6,5.2c0.3,1.7,0.9,3.2,1.3,3.8c0.2,0.4,0.4,0.5,0.7,0.8
						c0.3,0.3,0.7,0.6,1.3,1c0.5,0.3,1.2,0.7,1.9,1c0.7,0.3,1.5,0.6,2.3,0.9c3.2,1.3,7.2,2,11.7,2.6c2.2,0.3,4.7,0.6,7,0.8
						c2.3,0.2,4.4,0.4,6.4,0.4c2,0.1,3.9,0.1,5.7-0.1c1.7-0.2,3.4-0.5,4.9-1c1.5-0.5,2.9-1.2,4-2c1.1-0.8,2-1.6,2.7-2.8
						c1.5-2.2,2.1-5.7,1.9-9.7c-0.1-2-0.4-4.1-0.9-6.2c-0.5-2.1-1.1-4.2-1.8-6.5c-1.4-4.5-3.1-9.2-4.2-14.2
						c-1.1-5-1.4-10.3-0.2-15.1c0.8,4.9,2.9,9.1,5.3,13.1c2.4,4,5.2,7.8,7.9,12c2.7,4.3,5.2,9.1,6.7,14.5c0.7,2.7,1.2,5.7,1.2,8.8
						c0,3.1-0.5,6.5-1.8,9.8l-0.5,1.2c-0.2,0.4-0.4,0.8-0.6,1.2c-0.4,0.8-0.8,1.6-1.3,2.3c-1,1.5-2.1,2.9-3.4,4.1
						c-2.5,2.4-5.3,4.3-8.2,5.7c-2.9,1.4-5.9,2.3-9,2.9c-3,0.6-5.9,0.9-8.7,1c-2.8,0-5.5-0.1-8-0.2c-2.6-0.2-4.9-0.3-7.4-0.5
						c-5-0.4-10.7-1.1-16.6-3.1c-1.5-0.5-2.9-1.2-4.4-1.9c-1.4-0.7-2.9-1.6-4.3-2.6c-1.4-1-2.9-2.2-4.2-3.7c-1.3-1.4-2.6-3.2-3.6-5
						c-1-1.8-1.6-3.5-2.1-5.1c-0.5-1.7-0.8-3.2-1.1-4.7c-0.6-3.1-0.8-6.2-0.6-9.2c0.4-6.1,2-12,4.6-17.4c2.6-5.4,6.4-10.2,11.1-13.9
						c2.3-1.9,4.9-3.5,7.5-4.8c2.6-1.3,5.4-2.3,8.1-3c2.8-0.7,5.6-1.1,8.4-1.2c2.8-0.1,5.6,0,8.3,0.5c2.7,0.5,5.4,1.1,7.9,2.1
						c2.5,1,4.9,2.2,7.1,3.8c2.2,1.6,4.2,3.5,5.6,5.8c0.7,1.2,1.2,2.4,1.5,3.7C1193.2,245,1193.1,246.3,1192.8,247.5z"/>
				</g>
			</g>
		</g>
	</g>
	<g>
		<g>
			<g>
				<g>
					<path d="M1225.9,291.6c-9.9,19.2-23.7,36.3-39.7,51.1c-2.6,2.5-5.2,4.8-7.9,7.1l-11.4-13c5.4-6.1,11.9-11,18.9-15.1
						c1.3-0.7,2.6-1.4,4-2l4.1-1.8c2.8-1.1,5.6-2.1,8.5-2.9c5.8-1.6,11.7-2.8,17.7-3.1c6-0.2,12.1,0.3,18,1.4l4.4,1l1.1,0.3l1.1,0.3
						l2.2,0.7l2.2,0.7c0.7,0.3,1.5,0.6,2.3,0.9c1.6,0.7,3.4,1.5,5.2,2.7c1.7,1.2,3.8,3,5.3,5.1c1.5,2.1,2.5,4.4,3.1,6.9
						c0.6,2.6,0.6,4.8,0.4,6.9c-0.2,2.1-0.7,4-1.3,5.8c-0.6,1.8-1.4,3.5-2.3,5c-0.8,1.5-1.8,2.9-2.8,4.2c-2,2.6-4.3,4.8-6.6,6.8
						c-4.6,3.9-9.2,6.9-13.7,9.7c-4.5,2.9-9.1,5.6-13.8,8.3c-9.3,5.3-18.8,10.1-28.7,14.6c7.4-7.8,15.1-15.3,22.8-22.5l11.6-10.8
						c3.9-3.6,7.7-7,10.7-10.5c1.5-1.8,2.7-3.5,3.8-5.2c0.5-0.9,1-1.7,1.3-2.6c0.4-0.8,0.6-1.5,0.8-2.3c0.2-0.7,0.2-1.4,0.2-1.9
						c0-0.5-0.1-1-0.2-1c-0.1-0.1-0.2-0.2-0.3-0.2c-0.1,0-0.1,0-0.2,0c0,0-0.2-0.1-0.4-0.2c-0.8-0.5-2.6-1.2-4.9-1.8l-1.6-0.4
						l-0.8-0.2l-0.8-0.2l-3.3-0.6c-4.5-0.6-9-0.8-13.6-0.5c-4.6,0.1-9.1,0.8-13.6,1.9c-2.2,0.5-4.4,1.3-6.6,2l-3.2,1.3
						c-1.1,0.4-2.1,1-3.1,1.5c-5.7,2.5-10.9,6-15.5,10.2l-11.4-13l8.3-5.6C1193.3,318.6,1209.5,305.5,1225.9,291.6z"/>
				</g>
			</g>
		</g>
	</g>
</g>
</svg>
