<?xml version="1.0" encoding="utf-8"?>
<!-- Generator: Adobe Illustrator 22.1.0, SVG Export Plug-In . SVG Version: 6.00 Build 0)  -->
<svg version="1.1" xmlns="http://www.w3.org/2000/svg" xmlns:xlink="http://www.w3.org/1999/xlink" x="0px" y="0px"
	 viewBox="0 0 1533.7 1236.5" style="enable-background:new 0 0 1533.7 1236.5;" xml:space="preserve">
<style type="text/css">
	.st0{fill:#3A9601;}
	.st1{fill:#3A8D01;}
	.st2{fill:#E8D9CA;}
	.st3{fill:#316800;}
	.st4{fill:#F0D4AF;}
	.st5{fill:#BFA484;}
	.st6{fill:#EAC9A4;}
	.st7{fill:#4A7884;}
	.st8{fill:#565656;}
	.st9{fill:#306600;}
</style>
<g id="Color">
	<g>
		<path class="st0" d="M331.8,1017.4c-26.1-103.2-46.1-208.7-46.6-315.1s18.9-214.4,68.1-308.8c36-69.2,87.2-129.8,146-181
			c86.6-75.4,190.2-131,300.9-161.5c193.2-53.2,397.8-29.1,598-23.2c43.8,1.3,91.7,0.3,125.3-27.7"/>
		<g>
			<g>
				<g>
					<path d="M331.8,1017.4c-5.5-19.6-10.7-39.2-15.6-58.9c-4.9-19.7-9.4-39.6-13.6-59.5c-4.1-19.9-7.8-40-11-60.1
						c-3.2-20.1-5.8-40.4-7.9-60.7c-4.1-40.6-5.8-81.5-4.1-122.5c0.7-20.5,2.5-40.9,4.9-61.3l1-7.6c0.3-2.5,0.6-5.1,1-7.6l2.4-15.2
						c0.4-2.5,0.9-5.1,1.3-7.6l1.4-7.6l1.4-7.6l1.6-7.5l1.6-7.5l0.8-3.8c0.3-1.3,0.6-2.5,0.9-3.7l3.7-15c1.3-5,2.8-9.9,4.2-14.9
						c0.7-2.5,1.4-5,2.2-7.4l2.4-7.4l2.4-7.4c0.4-1.2,0.8-2.5,1.2-3.7l1.3-3.6l5.2-14.5c3.9-9.6,7.5-19.2,11.9-28.6l3.1-7.1l0.8-1.8
						l0.8-1.7l1.7-3.5c2.3-4.6,4.5-9.3,6.8-13.9c2.4-4.6,4.8-9.1,7.3-13.7c2.6-4.5,5-9,7.7-13.4c10.5-17.8,22-35,34.3-51.5
						c24.7-33,52.7-63.5,83-91.4c3.7-3.5,7.6-6.9,11.4-10.3c3.8-3.5,7.8-6.7,11.7-10.1l5.9-5c1-0.8,2-1.7,2.9-2.5l3-2.4l12-9.7
						c4-3.2,8.2-6.2,12.3-9.4l6.2-4.7c2.1-1.5,4.2-3,6.3-4.5l12.6-8.9l12.8-8.6c68.8-45.1,144.7-79.4,224-101
						c19.9-5.3,39.9-9.8,60.1-13.6c5-0.9,10.1-1.9,15.1-2.8l15.2-2.5c10.1-1.5,20.3-3,30.4-4.2c20.3-2.5,40.7-4.4,61.1-5.7
						c20.4-1.3,40.8-2.1,61.2-2.5c81.6-1.6,163,3.1,244,8.2c40.5,2.5,81.1,5.1,121.6,7c20.2,0.8,40.5,0.8,60.4-2.4
						c9.9-1.6,19.8-4.1,29.1-7.8c9.4-3.7,18.3-8.6,26.3-14.9c-7.7,6.7-16.4,12.1-25.7,16.3c-9.3,4.2-19.2,7.2-29.2,9.3
						c-20.1,4.2-40.7,5.1-61,5.1c-40.7-0.2-81.3-1.4-121.9-2.7c-81.2-2.5-162.3-5.4-243.1-2.3c-20.2,0.8-40.3,2-60.4,3.6
						c-20.1,1.6-40.1,3.8-60.1,6.5c-10,1.3-19.9,2.9-29.9,4.5l-14.9,2.6c-5,0.9-9.9,1.9-14.8,2.9c-19.7,4-39.2,8.6-58.6,14
						c-77.3,21.4-151.1,55.2-217.9,99.4l-12.5,8.3l-12.3,8.7c-2,1.5-4.1,2.9-6.1,4.4l-6,4.5c-4,3-8,6-12,9.1l-11.8,9.4l-2.9,2.3
						c-1,0.8-1.9,1.6-2.9,2.4l-5.7,4.8c-3.8,3.2-7.7,6.4-11.4,9.8c-3.7,3.3-7.5,6.6-11.2,10c-29.5,27-56.9,56.5-80.9,88.4
						c-12.1,15.9-23.4,32.4-33.8,49.5c-2.6,4.3-5,8.6-7.6,12.9c-2.5,4.3-4.8,8.7-7.2,13.1c-2.3,4.4-4.5,8.9-6.8,13.4l-1.7,3.3
						l-0.8,1.7l-0.8,1.7l-3.1,6.8c-4.3,9-8,18.3-11.8,27.5l-5.3,14l-1.3,3.5c-0.4,1.2-0.8,2.4-1.2,3.5l-2.4,7.1l-2.4,7.1
						c-0.8,2.4-1.5,4.8-2.2,7.2c-1.4,4.8-2.9,9.6-4.3,14.4l-3.9,14.5c-0.3,1.2-0.7,2.4-1,3.6l-0.9,3.7l-1.7,7.3l-1.7,7.3l-1.5,7.4
						l-1.5,7.4c-0.5,2.5-1,4.9-1.4,7.4l-2.6,14.8c-0.5,2.5-0.8,5-1.2,7.4l-1.1,7.5c-2.8,19.9-5,39.9-6.1,60
						c-2.6,40.2-2,80.6,0.8,121C299.3,858.1,313.9,938.2,331.8,1017.4z"/>
				</g>
			</g>
		</g>
	</g>
	<path class="st1" d="M452.3,869.7c-4.7,5.2-9.5,10.4-15.1,14.7c-5.2,4-10.8,7.4-15.6,11.9c-4.7,4.4-8.7,9.5-13.2,14.1
		c-5.1,5.2-10.4,10-15.6,15.2c-9.4,9.4-18.3,18.9-30.6,24.7c-10.8,5.1-27.8,9.6-39.2,4.1c-1.5-0.7-3.3-0.4-4.6,0.5
		c0,0.1,0,0.2,0,0.4c0.9,3.9,1.1,8.3,1.7,12.3c0.2,1.1,0.4,2.1,0.6,3.2c1.2,4.4,2.4,8.7,3.4,13.1c0.7,4.2,1.6,8.3,2.8,12.4
		c1,3.6,5.1,3.5,6.9,1.2c2.1,2.1,6.7,0.5,6.9-3c0-1,0.1-2.1,0.1-3.1c1.3,0.6,3,0.5,4.2-0.2c1.9-0.5,3.4-2.3,2.7-4.8
		c-0.5-1.9-1-3.8-1.4-5.7c0.1-0.1,0.2-0.2,0.3-0.4c0.9,0.7,2.1,1.1,3.5,0.7c0,0,0.1,0,0.1,0c0.1,0.2,0.2,0.4,0.3,0.6
		c1.6,3.2,6.3,2.1,7.3-1c0.5-1.7,0.7-3.7,0.5-5.6c0.2-0.2,0.4-0.3,0.6-0.5c1.5,1.2,3.8,1.5,5.5,0c2.1-1.8,4-3.7,6-5.7
		c1.3,0.7,2.9,0.6,4.4-0.8c11.3-11.1,22.3-22.5,28.5-37.3c0.6-1.4,0.2-2.7-0.8-3.6c7.3-7.3,14.6-14.6,21.7-22.1
		c5.2-5.5,11.4-9.4,17.4-14c1-0.8,2-1.6,3-2.5c0.6,0.4,1.4,0.7,2.1,0.6c1.1,0,1.9-0.4,2.7-1.1c-0.2,0.1-0.4,0.3-0.6,0.4
		c1.3-1,2.8-1.6,3.9-2.9c0.7-0.8,1.2-1.7,1.2-2.8c0-0.8-0.3-1.7-0.8-2.4c1.6-1.7,3.1-3.3,4.7-5C461.4,871.6,455.8,865.9,452.3,869.7
		z"/>
	<path class="st1" d="M1519.5,6.2c-0.3-0.7-0.7-1.4-0.7-2.2c-0.1,0-0.2,0-0.3,0c-0.4,0.4-1,0.7-1.4,1.1c-0.5,0.4-1.2,0.7-1.6,1.2
		c-0.1,0.1-0.2,0.1-0.2,0.2c-0.2,0.2-0.4,0.4-0.6,0.5c-1.7,1.4-3.4,2.8-5.2,4.1c-4.4,2.2-8.1,5.6-12.3,8.3c-3.3,2.1-7,3.9-10.1,6.3
		c-0.2,0.1-0.3,0.2-0.5,0.3c-66.6,47.5-127.6,102-186.8,158.3c-6.2,12.3-19.2,18.3-30.5,25.3c-10.8,6.8-19.9,14.9-27.4,25.3
		c-2.6,3.6-5.1,7.3-7.6,11c-5.2,3.1-9.4,7.5-13.8,11.7c-5.8,5.5-11.9,10.4-18.1,15.4c-1.6,0.5-3.1,1-4.7,1.4
		c0.9,1.4,2.5,2.3,4.7,2.1c6.8-0.4,12.4,3,18.1,6.3c3.4,2,6.6,0.3,8.1-2.3c5.6,1.3,11.8-2.4,13.9-8.2c1-2.7,2.1-5.4,3.3-8
		c2.9,0,5.7-1.1,7.9-3.3c60.8-59.2,121.8-118.5,187.8-171.9c18.5-15,37.4-29.4,56.8-43.2c4.8-3.4,7.2-9.4,4.6-14.9
		c4.7-3.3,9.8-6,14.2-9.9c2.5-2.1,2.2-6.3,0-8.5c-0.4-0.4-0.8-0.7-1.2-0.9c0.2-0.3,0.4-0.5,0.6-0.8c0.2,0.1,0.3,0,0.5-0.1
		c0.3-0.3,0.5-0.6,0.8-0.9c0.2,0.1,0.5,0,0.6-0.2c0.1-0.1,0.2-0.3,0.3-0.4c0.2,0,0.3,0,0.4-0.2c0.1-0.2,0.1-0.3,0.2-0.4
		c0.3,0.2,0.7,0.2,0.8-0.2c0,0,0-0.1,0-0.1C1519.7,7.7,1519.7,6.9,1519.5,6.2z"/>
	<path class="st1" d="M509.7,932.3c-12.8-11.9-24.6-24.9-35.3-38.7c-6.4-8.2-19-10.6-28.6-9.4c-9.9,1.3-20.1,6.9-24.8,16.2
		c-1.7,3.3-3.5,6.6-5.4,9.8c-2.2-0.1-4.5,0.8-6,3.4c-7.9,13.3-16.7,26.1-27.1,37.5c-6.2,3.3-11.5,8.3-15,14.3
		c-3.6,3-7.4,5.8-11.1,8.7c-6.6,2.3-12.3,6.5-16.8,12.3c-0.8,1-1.5,2.1-2.2,3.2c-0.8,0.8-1.6,1.5-2.4,2.3c-0.4,0.2-0.9,0.4-1.4,0.6
		c-2.6,0.8-5.1,0.9-7.6-0.3c0,0,0,0,0,0c0.3,0.5,0.5,1.2,0.7,1.8c0,0,0,0,0,0c0,0,0,0,0,0c0.3,1.1,0.4,2.3,0.6,3.3c0,0,0,0.1,0,0.1
		c0,0.1,0,0.1,0.1,0.2c0,0,0,0,0,0.1c0.4,1.8,0.7,3.7,1.2,5.5c0.2,0.2,0.3,0.5,0.3,0.8c0,0.1,0,0.2,0,0.3c0,0,0,0,0,0
		c0.1,0.8,0.2,1.7,0.4,2.5c0.4,1.5,0.8,2.9,1.1,4.4c0.2,1,0.6,2,0.7,3c0.1,0.2,0.1,0.5,0.1,0.7c0,0.3-0.1,0.7-0.4,0.9
		c0,0-0.1,0-0.1,0.1c0,0-0.1,0.1-0.1,0.2c-0.7,0.3-1.3,0.7-2,1c-0.3,0.1-0.3,0.4-0.2,0.6c-15.8,7.9-31.1,16.3-44.8,27.6
		c-15.1,12.4-28.6,26.8-42.5,40.4c-7.3,7.1-14.6,14.3-21.9,21.4c-3.3,3.2-6.6,6.4-9.9,9.7c-3.3,3.2-6.8,6.1-8.1,10.4
		c-1.8,0.1-3.6,0.7-5.4,1.6c-8.5,4.6-14.8,11.6-21.1,18.7c-5.9,6.7-12.3,13.1-19.4,18.5c-1.9,1.5-3.6,3.1-4.8,5
		c-0.4-0.1-0.9,0-1.4,0.4c-3,3.4-6.6,6.3-9.8,9.5c-0.1,0.1-0.1,0.1-0.1,0.2c-0.4,0.2-0.8,0.5-0.9,0.9c-0.2,0.6,0.4,0.9,0.9,0.9
		c0,0,0,0,0,0c0.5,0.6,1.3,0.9,2,0.4c0.1,0.1,0.3,0.2,0.5,0.2c2,0.3,3.9,0.7,5.8,1.1c1.1,0.2,2.4,0.7,3.5,0.7
		c1.7,2.6,4.3,4.7,7.5,5.5c5.3,1.3,10.5,2.9,15.6,5c1.8,0.7,3.8,1.5,5.4,2.7c-0.1,0,0.5,0.7,0.8,1c0,0.1,1.5,2.5,1.5,2.5
		c1.7,2.8,4.4,4.8,7.3,5.8c3.7,5.5,9.3,9.5,15.6,11.5c0,0.1,0.1,0.3,0.2,0.4c2.1,3.4,4.9,6.5,7.2,9.8c1,1.4,2.4,4.3,4.4,4.4
		c0,0,0.1,0,0.2,0c-0.4,1,0.6,1.9,1.6,1.9c0.1,0,0.2,0.1,0.3,0c0.3-0.1,0.5-0.3,0.6-0.5c0,0,0,0,0.1-0.1c0,0,0,0,0,0c0,0,0,0,0,0
		c0.1-0.1,0.1-0.1,0.2-0.2c0.4-0.6,0.8-1.2,1.2-1.8c0.3,0,0.6-0.2,0.9-0.4c1.2-1.2,2.3-2.5,2.9-4.2c2.4-2.1,4.4-4.5,6.1-7.3
		c0.4-0.6,0.3-1.2-0.1-1.6c3-3.6,6.1-7.2,8.6-11.2c0.2-0.4,0.3-0.8,0.2-1.1c1.6-1.6,3-3.4,4.3-5.2c2.9-0.6,5.4-2.5,7.4-5
		c20-26.5,40-53,60-79.6c9-11.9,18-23.8,28.6-34.4c8.2-8.2,17-15.9,25.4-24c2.1-0.7,4-2,5.4-4.3c0-0.1,0.1-0.1,0.1-0.2
		c6.4-1.3,11.8-4.2,17.3-8.5c5,0.6,10,0.9,15,0.5c9.1-0.8,17.4-3.3,24-10c5.7-5.7,10.1-15,10-23.3c7.7-0.6,15.8-1.5,22.5-5.8
		c7.5-4.8,12.8-11.5,15.5-19.6c12,4.1,25.9,2.1,35-7.8C521.8,967.2,523.6,945.3,509.7,932.3z"/>
	<g>
		<path class="st1" d="M372.3,1050.8c5.5,34.3,47.6,46.7,81.9,51.9c147.4,22.3,299.4,44.4,444.1,8.4
			c200.1-49.7,359.6-205.6,465.9-382.2c78.8-130.9,134.1-276.7,155.7-428c13.8-97.1,13.8-196.2-0.1-293.3"/>
		<g>
			<g>
				<g>
					<path d="M372.3,1050.8c0.9,4.9,2.7,9.7,5.2,13.9c2.5,4.3,5.8,8.1,9.5,11.3c3.7,3.3,7.8,6,12.1,8.4c4.3,2.4,8.8,4.4,13.5,6.1
						c9.3,3.4,18.9,5.8,28.7,7.6c4.9,0.9,9.8,1.6,14.7,2.2l14.9,1.9c39.7,5.1,79.4,10.1,119.2,14c39.7,3.9,79.6,6.5,119.3,6.9
						c39.8,0.4,79.5-1.6,118.7-7c19.6-2.8,39-6.4,58.2-11c9.6-2.2,19.1-4.9,28.6-7.5l14.1-4.4l3.5-1.1l3.5-1.2l7-2.4
						c18.6-6.5,36.9-13.8,54.8-22.2c4.5-2,8.9-4.2,13.3-6.4c4.4-2.2,8.9-4.3,13.2-6.7c4.3-2.3,8.7-4.6,13-7l12.8-7.4
						c17-10,33.7-20.6,49.9-31.9c16.1-11.4,31.8-23.4,47.1-36c30.4-25.3,59-52.7,85.7-82c53.7-58.3,99.9-123.4,139.2-192.4
						c39.7-68.9,72.5-141.7,98-217c25.3-75.4,42.8-153.5,51.2-232.7c8.3-79.3,7.8-159.6-1.4-239.2c13.4,79,17.1,159.8,11.2,240
						c-3,40.1-8.4,80.1-16.2,119.6c-7.7,39.5-17.8,78.6-29.9,117.1c-24.1,77-57,151.1-96.3,221.5c-39.6,70.3-86.4,136.8-140.9,196.6
						c-27.4,29.8-56.8,57.8-88.1,83.6c-15.7,12.8-31.9,25.1-48.5,36.7c-16.7,11.5-33.8,22.4-51.4,32.6l-13.3,7.4
						c-4.5,2.4-9,4.7-13.5,7c-4.5,2.4-9.1,4.6-13.7,6.8c-4.6,2.2-9.1,4.5-13.8,6.5c-18.5,8.5-37.5,15.8-56.7,22.3l-7.2,2.4l-3.6,1.2
						l-3.7,1.1l-14.6,4.3c-9.8,2.6-19.6,5.2-29.6,7.4c-19.8,4.4-39.9,7.8-60,10.1c-40.2,4.8-80.7,6-121,4.6
						c-40.3-1.3-80.4-5.1-120.2-10.3c-39.8-5.1-79.4-11.6-118.9-18.3l-14.8-2.5c-5-0.8-9.9-1.8-14.9-2.9c-9.8-2.2-19.6-5.1-28.9-9.1
						c-4.7-2-9.2-4.3-13.5-6.9c-4.3-2.7-8.4-5.7-12-9.3c-3.6-3.6-6.8-7.6-9.1-12.1C374.5,1060.6,373,1055.7,372.3,1050.8z"/>
				</g>
			</g>
		</g>
	</g>
	<path class="st2" d="M1234.2,413.1c-5.4,12.5-16.7,20.1-24.2,31.1c-7.7,11.3-16.7,20.6-27.1,29.6c-2.9,2.5,1.3,6.8,4.2,4.2
		c10.2-8.9,19.4-18.2,27-29.4c7.8-11.5,19.5-19.5,25.2-32.5C1240.9,412.6,1235.7,409.5,1234.2,413.1z"/>
	<g>
		<path class="st3" d="M958.7,867.5c0.1,5.6-1.7,11.7-5,16.1c-4.3,5.8-11.6,6.6-18.2,4.4c-7-2.4-12.5-7.3-18.4-11.6
			c-7.2-5.1-15.1-8.8-23.3-12c-8.4-3.3-16.2-7-25.2-8.4c-9.1-1.4-18.3-1.6-27.5-1.3c-18.5,0.5-36.7,2.3-54.8,5.8
			c-8.5,1.6-17.2,2.8-25.5,5c-19,8-38.7,15.1-55.3,27.4c-3.1,2.3-6.2,0.7-7.6-2c-3.8,2-7.6,4-11.5,6c-12.4,6.2-25.1,11.7-38.4,15.6
			c-14.7,4.3-29.9,6.2-45.1,7.9c-16.4,1.9-32.4,4.4-48.4,8.7c-7.1,1.9-14.3,3.9-21.6,4.8c-6.2,0.7-11.8,0.6-16.9-0.5
			c-21-4.6-38.5-21.5-44-42.1c-1.5-5.7-1.9-9.7-1.6-16c0.4-6.4,1.5-12.7,1.5-19.2c-0.2-16.1-8.3-27.7-22.7-34.4
			c-5.5-2.6-11.1-5-15.6-9.2c-4.2-4.1-6.7-8.9-9.4-14.1c-3.5-6.7-8.2-12.6-15.4-15.6c-3.4-1.4-6.7-1.9-10.3-2.5
			c-1.2-0.2-3.2-0.5-4-0.8c-0.1,0-2.1-1.4-1.8-1c-0.3-0.3-0.6-0.6-0.9-1c0-0.1-0.1-0.2-0.2-0.4c-0.3-0.6-1.4-2.7-1.3-2.4
			c-0.4-1.1-1.3-4.7-1.7-7c0.1,0.6-0.2-2-0.2-2.4c-0.1-1.3-0.2-2.7-0.2-4c-0.1-2.8,0-5.5-0.1-8.3c-0.4-12.1-2.9-25.6-12-34.3
			c-5.3-5-11.9-7.3-19.1-7.8c-2.6-0.2-5.1,0-7.7,0.1c-1.3,0.1-2.5,0.2-3.8,0.2c-0.3,0-0.9,0-1.6,0c0.1-2.5,0.2-6.3,0.3-7.1
			c1-6.9,2.9-14,5.6-20.5c2.6-6.4,6.2-12.3,10.2-17.9c3.8-5.3,0.9-13.4-4.3-16.4c-6-3.5-12.6-1-16.4,4.3
			c-9.1,12.7-15.5,27.8-18.1,43.3c-1.4,8.5-3,17.8,0.7,25.9c3.5,7.7,10.8,11.4,18.9,12.2c5,0.5,12-0.7,15.8-0.3
			c-0.4,0,1.1,0.4,1.7,0.4c0.3,0.3,1.4,1,1.4,0.9c0.4,0.4,0.8,1,0.9,1.1c0.6,1,1.5,2.9,1.2,2.2c2.3,5.8,2.4,9,2.5,14.9
			c0.1,6.6,0.3,13,1.3,19.5c2.3,14.2,11,26.6,25.8,29.4c2.3,0.4,6.6,0.6,8.2,1.4c1.7,0.9,2.7,3.3,4,5.8c3.4,6.5,6.9,12.6,12,17.9
			c5.2,5.3,11.4,9.4,18.1,12.5c5,2.3,11.5,4.3,13.5,9.3c0.5,1.4,0.7,3.6,0.7,6c0,3.6-0.3,7.2-0.7,10.8c-0.7,6.6-1.2,12.9-0.4,19.5
			c3.2,27.1,21,52.1,45.7,64c12.9,6.2,27,9.1,41.4,7.5c16.9-1.9,32.9-7.9,49.7-10.7c16.6-2.9,33.4-3.8,50.1-6.7
			c15.7-2.7,30.6-7.5,45.2-13.7c28.4-12,54.5-28.7,81.9-42.7c9.9-5.1,20-10.1,30.6-13.6c3-1.8,6.2-3.5,9.6-4.8
			c13.9-5.5,28.9-7,43.6-5.2c15.2,1.9,29.5,6.8,42.9,14.1c6.4,3.5,12.5,7.5,18.6,11.5c3.1,2,6.3,3.8,9.1,6.1
			c0.3,0.2,0.6,0.5,0.8,0.7c12.4,3.5,25.3,5.2,35.6-3.5C957.6,884.1,960.7,875.5,958.7,867.5z"/>
		<path class="st3" d="M342.5,711.2C342.5,711.2,342.5,711.2,342.5,711.2C342.5,711.2,342.5,711.2,342.5,711.2z"/>
	</g>
	<path class="st4" d="M1311.3,740.4c-1.9-4.8-4-9.6-8.3-12.6c-3.6-2.5-7.6-5.4-11.6-7c-4.3-1.7-9.2-2.4-13.6-3.4
		c-9.6-2.3-19.6-2-29.4-2.9c-10.4-0.9-20.7-2.2-31.1-3.3c-2.1-0.2-4-0.9-5.6-2.1c-4.1-1.5-7.7-4-9.8-7.9c-3.4-6.6-4.4-16.9-2.1-24
		c4.5-14,23-20.2,35.6-24.2c4.4-1.4,8.9-2.6,13.5-3.7c1.7-1.5,3.4-3.1,5.2-4.5c6-5,12.2-9.6,18.6-14c5.8-4.1,11.8-8.1,16.5-13.5
		c3.8-4.4,6.4-9.6,10.3-14c0-5.1,0.5-10.4,0.1-15.1c-0.5-5-2.6-8.9-3.9-13.6c-0.8-2.7-0.6-5.1,0-7.8c0-0.1,0-0.1,0-0.2
		c-0.2-0.8-0.4-1.5-0.5-2.3c0-0.1-0.2-1.1-0.3-1.6c-0.3-0.4-0.7-1-0.9-1.1c-2.7-2.9-5.1-6.3-8.8-8c-6.5-3-15.5,0.3-21.3,3.6
		c-3.7,2.1-5.3,4.9-7.6,8.3c-2.9,4.2-6.1,8.1-9.3,12.1c-5.9,7.2-11.5,14.2-15.6,22.6c-1.1,2.2-3.2,3.6-5.5,4.2
		c-0.7,1.4-1.7,2.8-2.9,4.2c-4.5,4.9-11.1,9.5-16.7,13c-6.3,4-12.9,7.3-19.1,11.6c-6.2,4.4-12.6,8.4-20,10.6
		c-1.4,0.4-2.8,0.4-4.1,0.2c-6.5,5.9-18.8-2.6-13.9-12c1.6-3.1,3.2-6.1,4.9-9.1c0.8-1.9,1.8-3.7,3.1-5.3
		c6.1-10.1,13.2-19.6,22.1-27.8c2.8-2.6,5.4-5.3,8-8c2.6-5.2,4.6-10.7,5.3-16.1c0.1-0.9,0.3-1.9,0.4-2.9c-0.4-1-0.8-2.1-1.1-3.2
		c-1-3.1-2-6.3-3.2-9.4c-1.5-3.7-2.9-6.5-5.1-8.8c-1.1-2-2.9-3.6-5.4-4.1c-5-2.6-10.8-1.6-16.4-1.2c-0.3,0.4-0.7,0.7-1.2,1
		c-3.1,2.1-5.8,3.7-8.1,6.7c-2,2.7-3.6,5.5-5.1,8.4c-3.1,6.2-6.5,11.8-10.4,17.4c-0.7,4.1-2.3,8.3-3.8,12
		c-4.7,11.7-10.1,23.4-15.6,34.7c-0.9,7.6-5,15-9.1,21.4c-4.3,6.7-9.8,13.1-15.4,18.8c-11.1,11.1-24.9,16.2-40.4,16.6
		c-7.7,0.2-15.7-0.3-23.2-1.6c-4.9-0.8-11.2-2-14.7-5.9c-9.5,4.4-17.5-10.5-8-16.7c5.9-3.8,12.4-6.7,18.3-10.7
		c6.1-4.1,11.4-9,16.4-14.5c4.9-5.4,9.4-11.5,14.8-16.4c3.6-3.2,7.4-6.3,11.3-9.3c1.5-1.5,3-3,4.6-4.4c1.5-1.3,3.1-2.6,4.6-4
		c1.2-1.5,2.5-3.1,3.7-4.7c2.9-3.8,5.9-7.4,10-9.9c0.3-0.3,0.6-0.6,0.9-0.9c8.7-7.9,19.3-16.8,31-19.7c0.2,0,0.3-0.1,0.5-0.1
		c3.6-2.2,7.3-4.4,10.1-7.7c5.1-6.2,7.2-13.7,10.4-20.8c-0.2-0.6-0.3-1.2-0.4-1.8c0.1-0.5,0.3-1,0.3-1.5c0.1-1.3,0.3-2.7,0.4-4
		c0.1-0.9,0-1.6-0.2-2.5c0-0.1,0-0.1,0-0.2c0-0.1,0-0.2,0-0.3c0-0.1,0.1-0.2,0.1-0.3c-0.1-0.4-0.2-0.8-0.2-1.1
		c-0.1-0.6-0.2-1.1-0.1-1.7c0.2-1.1,0.9-2,1.9-2.6c1.4-0.8,2.9-1.5,4.4-2.2c2.7-2,5.8-3.5,8.6-5.3c9.3-6,18-12.9,27.4-18.9
		c5.9-6.5,12.8-12.2,19.6-17.9c10.5-8.8,19-18,26.3-29.6c8.1-12.8,14.9-25.9,20.9-39.9c6-14,8.5-30.2,9.5-45.4
		c0.3-4.8,0.4-9.7,0.5-14.5c-0.1-0.6-0.3-1.2-0.4-1.7c-0.7-2.6-1.4-5-2-7.5c-2-3.3-4.3-6.5-7-9.6c-8.3-9.7-15.2-20.6-25-28.9
		c-4-3.4-8.2-7-13.2-8.8c-4.5-1.6-9.3-2.1-14-3.1c-6.9-1.5-13.7-3.8-20.3-6.6c-5.1-1.3-10.4-4.4-14.5-6.1c-4.1-1.7-7.8-3.6-11.6-5.8
		c-3-1.7-6.5-2.5-9.4-4.2c-0.7-0.4-1.5-0.9-2.2-1.4c-0.7-1.4-1.8-2.7-3.2-3.6c-0.1-0.1-0.2-0.2-0.3-0.3c-0.4-0.5-0.8-0.9-1.2-1.3
		c-0.7-1.2-1.8-2.1-3-2.8c-0.4-0.4-0.8-0.7-1.3-1c-2-2.4-4-4.8-6.1-6.8c-6-5.9-12.2-11.8-18.2-17.7c-0.9-0.9-1.7-1.7-2.4-2.6
		c-8-5.5-15.4-11.8-24-16.4c-4.8-2.6-10.1-4.8-15.2-6.7c-4.1-1.5-8-2-12.2-2.3c-3.2,0.3-6.4,1-9.4,2.8c-4.6,2.6-9.5,4.2-14.5,6
		c-9.9,3.6-19.3,8.6-29.2,12.3c-0.7,0.3-1.3,0.4-1.9,0.4c-0.2,0.2-0.4,0.3-0.7,0.5c-1.5,1.1-3.4,1.2-5.1,0.6c-3.8,1.1-8.5-1-8.8-5
		c-2.2-1.2-4.2-2.7-6.2-4.3c-6.7-1.2-12.8-1.8-19.7,0c-8.7,2.2-18.2,4.5-26.1,8.7c-7.7,4.1-14.8,9.3-22.4,13.4
		c-5.9,3.2-15.2,8.3-20.8,2.6c-5.7-2.9-10.4-7.3-10.1-14.4c0.3-9.1,8.3-16.7,13.2-23.7c5.9-8.4,11.8-16,19.1-23.2
		c0.4-0.4,0.7-0.7,1.1-1.1c0.1-0.3,0.2-0.6,0.4-0.9c1.3-2.8,3-5.2,4.6-7.9c1.6-2.7,2.1-5.4,2.6-8.5c0.4-2.7,1.4-6.2,0.5-8.8
		c-0.3-0.8-0.7-1.6-1.2-2.3c-0.2-0.6-0.5-1.3-0.8-1.8c-0.1-0.2-0.2-0.3-0.3-0.5c-0.1-0.2-0.1-0.3-0.2-0.5c0-0.1-0.1-0.2-0.1-0.3
		c-0.4-0.6-1.1-1.4-1.5-2c-0.8-0.9-1.8-1.5-2.9-1.9c-1.1-0.6-2.2-0.8-3.5-0.8c-1.2,0-2.4,0.2-3.5,0.8c-0.2,0.1-0.3,0.1-0.5,0.2
		c-0.4,0-0.7,0-1.1,0c-0.1,0-0.1,0.1-0.2,0.1c-6.3,2.2-12.1,4.5-17.5,7.9c-3.6,2.6-7,5.5-10.2,8.6c-4.7,5.1-8.4,10.8-12,16.8
		c-4.7,7.9-10.2,15.4-14.7,23.4c-0.2,0.4-0.4,0.7-0.6,1.1c-0.5,1.1-1,2.2-1.5,3.3c-0.5,1.2-1.3,2-2.2,2.6c-1,1.5-2.2,2.9-3.4,4.2
		c-1.4,3.4-2.8,6.7-4.3,10c-7.4,15.7-16.4,29.6-28.2,42.3c-13.7,14.8-30.3,34.3-50.5,40c-7.5,11-18.6,18.3-30,25.7
		c-6.3,4.1-12.3,8.6-18.3,13.2c-3.7,4.3-7,8.8-10.2,13.6c-4.5,6.6-6.5,15.5-13.6,19.8c-3.1,1.9-7,0.6-8.9-2.1
		c-4,2.7-7.8,5.9-10.7,9.2c-2.7,3.1-6.1,2.6-8.5,0.6c-3.2,3.1-6.7,6.4-10.8,8.1c-2.6,1.1-5.3,1.2-7.9,1.1c-0.3,0.1-0.6,0.1-0.9,0.1
		c-3.2,0.3-6.5,0-9.7,0.2c-0.1,0-0.2,0-0.3,0c-5.2,0.8-10.3,1.8-15.3,3.1c-12.1,3-23.7,6.9-34.5,13.2c-3.1,1.8-6.3,3.7-9.5,5.6
		c-8.2,5.4-16.3,11-24.4,16.7c-12.2,8.6-25.6,15.3-37.6,24c0,0-0.1,0.1-0.1,0.1c0,0-0.1,0.1-0.1,0.1c-1.3,1.2-2.7,2.3-4,3.5
		c-2.6,2.4-5.2,4.8-7.7,7.3c-5.3,5.2-10.4,10.6-15.4,16.2c-5,5.6-9.8,11.3-14.6,17.1c-2.4,3-4.8,6-7.2,9.1c-1.2,1.6-2.5,3.2-3.7,4.9
		c-9.3,12.3-18.2,24.8-27.2,37.3c-10.4,14.5-20.7,29.1-32.8,42.3c-4,4.3-8,8.6-12,12.8c-4.8,8.2-10.7,15.9-16,23.6
		c-5,7.3-10.8,13.9-16.4,20.7c-1.7,2-3.2,4.3-4.7,6.6c-2.5,5.8-5.2,11.4-8,17.1c-0.4,0.9-0.9,1.9-1.3,2.8c-0.1,0.5-0.3,1-0.4,1.3
		c-0.5,1.6-1,3.3-1.4,5c-0.1,2.8,0,5.6,0.2,8.3c1.3,7.2,3.2,14.2,5.8,21c0.1,0.1,0.1,0.3,0.2,0.4c0.8,1.5,1.5,3.1,2.3,4.6
		c0.8,1.4,1.6,2.7,2.5,4c0.1,0.1,0.3,0.3,0.5,0.5c0.8,0.4,1.5,0.9,2.2,1.4c2.9,1.8,5.7,3.9,8,6.3c4.9-3.3,12.4-2.6,16,2.1
		c0.3-0.2,0.7-0.4,1.1-0.5c0.2-0.1,0.5,0,0.6,0.2c0.4-0.3,0.7-0.7,1-1.2c0.3-0.7,1.5-0.2,1.2,0.5c-0.8,2-1,4.1-1.2,6.2
		c0,0.4-0.3,0.6-0.6,0.6c0,0.3,0,0.6,0,1c-0.3,19.1,4.6,39.7,19,53.1c6.6,6.2,16,8.4,21.8,15.5c3.4,4.2,5.5,9.2,8.4,13.8
		c2.1,3.4,4.5,6.5,6.8,9.8c3,3.1,5.7,6.4,9,9.2c2.9,2.4,6,4.3,8.7,6.8c5.2,3.4,9.5,8.5,15.5,10.4c6.4,2,4.2,10.4-1.7,10.5
		c-0.2,0.2-0.4,0.4-0.7,0.6c-0.6,0.8-1.2,1.6-1.7,2.5c-0.8,1.5-1.4,3.1-2.1,4.6c-1.3,3.1-3.2,6.1-4.3,9.3c-0.1,0.2-0.2,0.4-0.3,0.6
		c-0.3,1.6-0.7,3.2-1.1,4.8c-0.9,3.5-0.3,6.6-0.3,10c1.2,3.6,2.5,7.3,4.1,10.7c3.7,4.8,8.3,9.1,13.1,12.9c5,3.9,10.5,7.1,15.6,11
		c4.8,3.7,9.3,6.7,14.9,9.2c5.8,2.6,12.3,5.5,18.8,6.2c0.3,0,0.5,0,0.8,0.1c0.1,0,0.2-0.1,0.3-0.1c4.9-0.2,10-0.9,14.9-1
		c6-0.5,12-1.1,18-1.5c0.1,0,0.3,0,0.3,0.1c9.2-1.4,18.4-3.5,27.4-5.7c0.8-0.2,1.5-0.2,2.2-0.1c0.8-0.3,1.7-0.5,2.5-0.8
		c3.6-1.1,7.3-2,11-3.1c3.6-1,7-2.8,10.6-3.6c2-0.4,3.7,0.2,4.9,1.4c0.6-0.2,1.2-0.3,1.7-0.5c11.6-3.3,23-7,34.6-10.4
		c7.4-2.2,14.9-3.7,22.2-5.9c1.1-0.3,2.2-0.7,3.3-1.1c0,0,0,0,0.1,0c4.6-1.8,9.2-3.6,13.8-5.4c1.1-0.5,2.2-0.9,3.3-1.4
		c10.5-4.2,20.9-8.4,31.5-12.4c8.9-3.5,17.9-7.1,26.8-10.6c12.3-4.9,24.5-10.2,37-14.3c11.5-3.8,23.5-6.1,35.6-7.5
		c13.3-1.6,26.6,0.3,39.8,2.3c6.4,0.9,12.5,1.7,18.6,4.2c5.4,2.2,10.8,3.9,16.3,5.9c5.6,2,10.9,4.3,15.1,8.6
		c3.7,3.8,7.2,7.1,11.8,10c4.7,2.9,9.5,6.1,14.9,7.5c2.1,0.1,4.3,0.2,6.4,0.2c0.6-0.4,1.4-0.8,2.2-1c2.1-0.7,4.2-1.5,6.1-2.5
		c0-0.1,0.1-0.1,0.1-0.2c0.5-0.6,0.9-1.2,1.4-1.8c0,0,0,0,0,0c0,0,0,0,0.1-0.1c1.5-1.9,3.1-3.8,4-6.1c1.3-3.2,1.9-6.6,2.4-10
		c1-7.1,0.1-14.5-0.6-21.7c-0.1-0.3-0.2-0.7-0.3-1c-0.9-1.9-1.8-3.8-2.6-5.7c-1.4-3.3-2.7-6.8-5.5-9.1c-2.9-2.4-6.9-3.4-10.3-4.6
		c-4.1-1.4-8.3-2.6-12.6-3.3c-8-1.5-16.3-1.3-24.4-2.1c-5-0.5-11.7-0.7-16.7-3.1c-4-1-7.6-3.9-8.1-8.1c-0.4-3.5,1.2-6.3,3.7-8.4
		c0.2-0.2,0.4-0.5,0.6-0.7c2.7-2.8,6.3-3.8,9.6-5.7c6.1-3.4,10.1-9.7,14.5-15c0,0,0,0,0,0c0.1-1.3,0.4-2.5,1-3.7
		c0.4-0.8,0.8-1.4,1.2-2.1c-0.1-0.2-0.2-0.4-0.2-0.6c-0.3-1.1-0.4-2.3-0.2-3.3c-0.1-0.1-0.2-0.2-0.2-0.3c-0.6-1.1-1.4-2-2-3.1
		c-0.1-0.2-0.2-0.5-0.1-0.8c-0.7-0.4-0.3-1.6,0.6-1.4c0,0,0.1,0,0.1,0c0.1,0,0.2,0.1,0.3,0.2c0.3-0.1,0.6,0,0.9,0.2
		c0.9,0.5,1.8,1.1,2.7,1.5c0.8,0.4,1.7,0.6,2.6,0.8c2.2,0.1,4.4,0.8,6.4,1.5c0.9,0,1.8,0.1,2.7,0.2c5.1,0.7,10.3,0.8,15.4,0.9
		c11.6,0.3,23.5-0.3,34.9-2c23.9-3.6,45.5-15.5,68.6-22.1c1.7-0.5,3.4-0.4,4.9,0.2c0.5-0.2,0.9-0.5,1.4-0.6c1.7-0.6,3.4-0.9,5.1-1.2
		c2.8-0.9,5.6-1.6,8.5-2.2c9.9-2,19.9-3.6,30-3.6c4.7,0,9.4,0.2,14.1,0.5c17.3-0.3,34.8,0.3,51.8,4.2c16.9,3.9,32.8,11.8,49.2,17.3
		c16.2,5.4,32.9,8.9,50,9.5c11.5,0.4,21.9-2.4,31.9-7c2.2-2.3,5.1-3.7,7.8-5.3c0.2-0.3,0.4-0.5,0.7-0.8c4.5-4.9,11.7-10.7,11.5-18
		C1311.4,741.3,1311.3,740.9,1311.3,740.4z"/>
	<path class="st2" d="M1177.4,472c-16.2,9.1-30.8,20.8-45.3,32.4c-2.3,1.8-4.5,3.5-6.8,5.3c-16.1,9.3-32.3,18.4-48.5,27.5
		c-8.1,4.5-15.1,9.8-20,17.8c-3.2,5.3-5.4,11-7.3,16.9c-3.7,7.7-6.6,15.8-10.4,23.6c-0.4,0.8-0.8,1.5-1.1,2.3
		c-2.9,5.1-5.8,10.3-8.7,15.4c-1.5,2.4-3.1,4.8-4.7,7.1c-0.4,0.6-0.7,1.2-0.9,1.8c-4.2,6.2-7.6,13.1-12.7,18.8
		c-2.6,2.9,1.7,7.1,4.2,4.2c0.4-0.4,0.8-0.9,1.1-1.4c1.5,0.6,3.6,0.2,4.3-1.8c1.6-4.2,3.7-8.2,6-12.1c3.3,2.1,8.1,2.2,10.9-2
		c1.5-2.1,2.9-4.3,4.3-6.5c1.4-0.2,2.9-0.9,4.2-2.2c9.5-9.1,18.2-18.8,26.8-28.6c8.1-9.2,15.8-20.3,26.8-26.4
		c10.2-5.6,21.4-8.7,30.4-16.3c8.5-7.1,11.6-16.5,13.4-26.8c0-1,0.1-2,0.1-2.9c0-0.1,0-0.2-0.1-0.3c0-0.1,0-0.1-0.1-0.2
		c0.1-0.4,0.1-0.9,0-1.3c0,0,0-0.1,0-0.1c0-0.3,0-0.6,0-0.9c-0.1-0.6-0.2-1.2-0.2-1.7c0,0,0-0.1,0-0.1c0.5-1.8,1.5-3.2,3.2-4.1
		c1.6-0.7,1.9-0.8,0.7-0.3c0.1-0.1,0.3-0.2,0.4-0.2c0.7-0.5,1.5-0.8,2.4-1c1.5-0.8,3-1.6,4.6-2.4c9.7-7.4,19.7-14.4,30.3-20.4
		C1193.3,480.2,1185.8,467.2,1177.4,472z"/>
	<path class="st5" d="M484.6,841.2c0.8-1.7-1.8-3.3-2.6-1.5c-1.6,3.4-3.3,6.8-4.9,10.2c-1.3-2.4-4.8-3.2-6.8-0.2
		c-4.6,7-7.7,13.4-8.6,21.4c-0.5,1.3-1,2.6-1.4,3.9c-0.3,0.9-0.6,1.9-0.8,2.8c-0.3,0.4-0.6,0.9-0.8,1.4c-2.1,6.9-2.8,15.7,0.6,22.3
		c0.7,1.3,1.8,1.9,2.9,2c0.3,1.5,1.3,2.3,2.4,2.6c0.8,1.8,1.7,3.5,2.5,5.2c1.3,2.7,4.2,2.4,6,0.8c0.6,1.5,1.2,3,1.9,4.5
		c0.8,1.8,3.4,0.2,2.6-1.5c-5.3-11.6-7.5-24.4-6.5-37.1C472.4,864.5,478.9,853.2,484.6,841.2z"/>
	<path class="st5" d="M903.9,649.4c-3.1,3.9-6.3,7.7-9.4,11.6c-0.7-3-4.7-5.3-7.6-2.4c-8.5,8.6-14.1,19.4-17.1,31
		c-1.5-0.1-2.9,0.5-3.8,2.3c-7,13.5-2.2,27.6,4.2,40.3c1.5,3,4.6,2.8,6.5,1c0.3,1.3,0.5,2.6,0.8,3.9c0.4,1.9,3.3,1.1,2.9-0.8
		c-3.4-14.8-4.1-30.9,0.2-45.5c4.5-15.2,15.8-27,25.3-39.2C907.2,650.1,905,647.9,903.9,649.4z"/>
	<path class="st5" d="M378.7,713c-5.7-2.3-11.1-5.3-16.1-9c-5.9-4.4-9.1-10-11.5-16.8c-4.2-11.9-4.9-24.7-2.2-37
		c0.7-3.1-4.1-4.5-4.8-1.3c-1,4.4-1.5,9-1.7,13.5c-1.3,0-2.5,0.8-2.9,2.5c-2.3,11.6,0.3,26.3,5.9,36.7c5,9.3,14.4,15.7,25,15.9
		c1.3,0,2.2-0.6,2.8-1.4c1.3,0.6,2.7,1.2,4.1,1.8C380.3,719.1,381.6,714.2,378.7,713z"/>
	<path class="st5" d="M730.8,313c-1.8,3.7-3.5,7.5-5.3,11.3c-0.9-0.8-2.4-1.1-3.4,0.1c-9.1,10.3-18.8,20-26.4,31.6
		c-1.8,2.7,2.6,5.2,4.3,2.5c0.3-0.5,0.7-1,1.1-1.6c0.9,0.8,2.2,1,3.2-0.1c0.5-0.6,1-1.2,1.5-1.8c-0.1,0.3-0.2,0.7-0.3,1
		c-0.9,3.1,3.9,4.4,4.8,1.3c1-3.5,4.6-6.2,6.8-9c2.4-3.1,4.6-6.4,6.6-9.9c4.2-7.4,7.7-15.2,11.4-22.9
		C736.5,312.6,732.2,310.1,730.8,313z"/>
	<path class="st6" d="M992.4,733.5c-3.4-0.2-6.3-1.4-9.3-2.6c-3.2-1.7-7.5-2.5-10.8-3.9c-4.9-1.9-9.6-4.2-14.3-6.6
		c-6-3.1-11.8-6.6-17.6-10.2c-0.4-2-0.7-4-0.9-5.9c-1.9-15.5-0.1-31.3,7.3-45.2c0.5-0.8,0.3-1.7-0.2-2.2c0.4-1.3-0.7-3-2.4-2.6
		c-11.9,3.1-19.6,9.3-25.3,20.2c-5.8,11-6.2,22.2-4.2,34.3c1.8,11,6.3,22.7,14.8,30.3c4.6,4.1,11.4,7.4,18.3,8.9
		c9.2,4.3,22.2-0.8,31-5.7c2.1-0.1,4.6-1.7,6.3-2.5c2.7-1.4,6.1-2.3,8.1-4.6C993.6,734.6,993.2,733.6,992.4,733.5z"/>
	<path class="st6" d="M814.5,270.3c0.5,1.5,0,3.1-0.4,4.8c-0.8,2-0.7,4-1.1,5.9c-0.7,2.7-1.6,5.5-2.7,8.2c-1.4,3.6-3.2,7.2-5,10.9
		c-1.5,0.8-3,1.6-4.5,2.4c-12,6-24.9,10.6-37.3,12.1c-0.8,0.1-1.4,0.5-1.7,0.9c-1.1,0.3-2.3,1.3-1.6,1.9c4.6,4,10.9,5.2,20.6,3.9
		c9.8-1.3,18.8-4.8,28.1-9.8c8.4-4.4,17-10.3,21.5-16.4c2.5-3.3,3.8-7.3,3.8-10.7c1.8-5.3-4.6-9.1-10.1-11.2
		c-0.5-0.9-2.2-1.4-3.1-1.8c-1.6-0.7-2.9-1.8-5.1-1.9C815.1,269.4,814.3,269.9,814.5,270.3z"/>
	<path class="st6" d="M523.6,794.9c-3.6,1.2-6.9,1.7-10.3,2.2c-3.8,0.3-8.4,1.5-12.1,2.1c-5.5,0.8-11,1.5-16.3,2
		c-7,0.6-13.8,1-20.6,1.3c-0.8-0.9-1.5-1.9-2.1-2.9c-5.1-7.7-6.4-17-1.4-27.4c0.3-0.6-0.1-1-0.7-1.1c0.1-0.9-1.3-1.4-3.1-0.5
		c-11.9,6.3-18.8,12.6-22.6,20.8c-3.9,8.2-2.1,14.4,2.5,20.3c4.1,5.3,11.2,9.9,21.6,10.7c5.7,0.4,13.5-0.4,21.1-2.3
		c10.5-1.3,23.2-9.1,31.5-15.1c2.2-0.9,4.6-2.7,6.1-3.8c2.5-1.8,5.9-3.6,7.6-5.6C525.2,795,524.6,794.6,523.6,794.9z"/>
	<path class="st6" d="M442,698.1c-2.4,2.6-4.2,5.2-6,7.8c-1.8,3-4.7,6.4-6.7,9.3c-2.9,4.3-5.7,8.5-8.4,12.7
		c-3.4,5.5-6.6,10.9-9.7,16.4c0.4,0.9,0.8,1.7,1.2,2.5c3.4,6.1,9.7,9.6,19.4,8.2c0.6-0.1,0.7,0.3,0.5,0.9c0.7,0.1,0.5,1.4-0.9,2.6
		c-9.7,8.1-17.2,12-24.8,13c-7.7,1-11.4-2-13.8-7.2c-2.1-4.7-2.5-11.6,1.3-20.3c2.1-4.7,6-10.8,10.6-16.5
		c5.4-8.2,16.4-16.5,24.4-21.7c1.6-1.6,3.9-3,5.4-4c2.4-1.6,5.2-3.9,7.4-4.7C442.6,696.8,442.6,697.4,442,698.1z"/>
	<path class="st6" d="M721.5,848.5c5.9-4.5,10.8-10.3,16-15.5c4.5-4.5,9.5-9,13-14.3c2.5-3.7,3.7-7.7,3.9-11.9c0-0.1,0-0.2,0-0.2
		c0.1-1.2,0-2.4-0.1-3.6c-0.5-6.5-2.4-12.8-5.8-18.3c-2.5-4-5.6-8.1-10-10.1c0-0.3-0.2-0.6-0.6-0.7c-7.9-2.8-17.3-7.3-25.9-5
		c-3.4,0.9-7.7,2.3-9.5,5.6c-0.9,1.7-0.4,3.6,1.8,3.4c2-0.2,4.3-1.9,6.2-2.5c2.8-0.9,5.7-1.2,8.6-1.1c0.8,0,1.5,0.1,2.3,0.3
		c-1.8,0.5-3.5,1-5.1,1.6c-7.5,2.7-14.2,7-19.9,12.4c-0.5,0.4-0.2,1.3,0.5,1.2c5.8-1.1,12-2.1,18-2c0.6,0.2,1.2,0.4,2,0.3
		c0.8-0.1,1.6-0.1,2.5-0.1c8.7,0.9,14.3,6,16.4,14.2c2.8,10.9-0.8,21.6-6.2,31.5c-1.8,2.3-3.8,4.6-6.1,6.4c-2.1,1.5-4.3,3-6.4,4.5
		c-3.1,1.9-8.1,5.1-6.9,7.8C711.6,855.8,719.8,849.8,721.5,848.5z"/>
	<path class="st6" d="M467.7,596.3c-5.1-2.1-11-4.7-13.4-10.1c-2.5-5.4-1.7-12.5,2.4-16.9c6.9-7.3,17.2-10.6,26.7-13
		c1.8-0.5,1.2-3.2-0.6-2.9c-0.1-0.3-0.3-0.5-0.7-0.7c-4.6-2.3-9.7-4.1-14.8-2.4c-5.9,2-8.2,8.7-14.9,9.3c-5,0.4-9.6-4.2-14.6-2.1
		c-3.3,1.4-5.2,5.3-4,8.8c1,2.8,3.9,4.1,4.8,7c0.8,2.9-0.3,6.1-0.7,9c-0.6,4.7,0.7,9.2,3.7,12.9c6.1,7.4,19.1,9.9,26.7,3.5
		C469.3,598,468.7,596.7,467.7,596.3z"/>
	<path class="st5" d="M1206.4,447.4c-17.7,27.5-49.4,40.6-76.2,57.5c-26.8,16.9-52.6,35.8-82.2,47.7c-0.1,0-0.2,0.1-0.2,0.1
		c5.7-0.9,11.3-2.2,16.6-4.3c0.2-0.1,0.5-0.2,0.7-0.2c23.8-11.9,45.6-27.5,68.1-41.6c26.8-16.8,58-30,75.8-57.6
		C1210.1,447.2,1207.5,445.7,1206.4,447.4z"/>
	<path class="st6" d="M1205.7,442.8c-7,5-13.6,10.4-19.9,16.1c-0.2,0-0.3,0.1-0.5,0.2c-7.4,5.2-15,10.2-22.8,14.8
		c-3.6,2.1-7.1,4.5-10.5,7c-3.2,1.9-6.3,3.9-9.2,6.2c-0.1,0-0.1,0-0.2,0c-7.5,2.9-13.8,7.6-20,12.5c-7.7,6.1-15.5,11.9-23.6,17.5
		c-12.2,8.4-24.2,17.1-37,24.5c-2.1,2.2-4.5,4-6.8,6.2c-0.5,0.5-1,1-1.5,1.6c16-8,30.5-18.6,45.2-28.7c7-4.8,13.9-9.6,20.6-14.9
		c6.4-5.1,12.7-10.5,20-14.2c0.5,0.6,1.5,0.9,2.2,0.2c0.2-0.2,0.4-0.3,0.5-0.5c0.1,0,0.3-0.1,0.4-0.2c3.7-2.6,7.4-5.4,11.1-8.1
		c6.5-3.8,13.5-7.1,19.5-11.6c0.5-0.3,0.6-0.8,0.6-1.3c3.1-2,6.2-4.1,9.2-6.1c0.5,0.2,1.1,0.2,1.6-0.3c7.1-6.7,14.5-12.8,22.4-18.5
		C1208.8,444.2,1207.3,441.6,1205.7,442.8z"/>
	<path class="st5" d="M1040.5,493.7c-0.3-0.2-0.6-0.2-0.8-0.2c2.5,3.2,5.6,6,7.9,9.4c0.9,1.3,1.5,2.7,2,4.3
		c4.3,8.8,3.3,19.8-4.4,27.5c-6.2,6.2-15.6,8.9-24.2,7.8c-5.3-0.7-8.8-2.1-11.8-6.6c-1.7-2.4-2.9-5.1-3.9-7.8
		c-1-1.6-1.9-3.2-3.2-4.5c-0.6,0.3-1,0.9-0.8,1.7c2.5,9.3,7.3,18.2,17.4,19.9c9.8,1.6,20-0.6,27.5-7.4
		C1060.3,525.1,1056.9,502.5,1040.5,493.7z"/>
	<path class="st6" d="M1038.5,518c-1-1.2-2-2.5-3.2-3.5c-0.9-0.8-2-1.6-3.2-2.2c0.1,0.2,0.2,0.5,0.3,0.8c0,0,0,0.1,0,0.1
		c1.3,1.4,2.5,2.9,3.2,4.8c1.6,4.5-0.9,9-5.4,10c-5.8,1.2-11.8-3.1-14.8-7.7c-0.1-0.1-0.1-0.2-0.2-0.2c0.2,1.8,0.7,3.7,1.3,5
		c0.4,0.8,0.9,1.5,1.5,2.2c4.6,3.6,10.7,5.8,15.7,2.7C1038.8,526.6,1039.8,522.3,1038.5,518z"/>
	<path class="st6" d="M837,765c-4.5-7.4-9.5-14.3-15-21c-5.1-6.2-7.9-12.6-10.3-20.3c-3.1-9.7-5.4-19.8-5.1-29.7
		c0.5-2.6,1.2-5.2,2-7.8c2.9-9.4,6.2-18.9-0.1-27.7c-5.4-7.6-15.6-12.7-24.6-14.1c-9.2-1.5-18.6,1.6-24.6,8.9
		c-6.4,7.7-7.9,18-7.1,27.7c1.5,19.6,5.8,39.1,19.5,53.9c15.3,16.6,36.9,24.7,54.4,38.5C831.8,778,841.4,772.3,837,765z"/>
	<path class="st6" d="M608,469.6c-0.4-0.4-0.8-0.7-1.3-0.9c-3-1.1-6.2,2.2-8.9,4.7c-0.5,0.5-1,0.9-1.5,1.4
		c-5.8,5.3-9.8,13.5-12.9,22.3c-2.1,5.9-4,11.9-6.1,17.7c-0.9,2.4-1.7,4.8-2.6,7.3c-0.3,0.6-0.7,1.1-1,1.7c-2.5,4.4-4.8,9-7.3,13.4
		c-1.8,2.3-3.6,4.4-5.4,6.6c-3.3,4.1-6.5,8.7-10.2,11.9c-1,0.9-1.9,1.6-2.9,2.4c-0.2,0.1-0.4,0.2-0.6,0.4c-6.3,5-9.4,17-11.2,25.9
		c-0.6,2.6-1,5.5-0.9,8c-0.3,2.5-0.4,4.9,0.2,6.8c1.2,4.2,4.5,4.1,7.6,3.1c3.9-1.3,7.7-4.2,11.1-8.2c3.8-4,7.1-9.3,10.4-13.9
		c3-4.3,6.2-8.4,8.8-13.2c2.7-5,4.4-10.4,6-16.1c2.5-9.1,4.8-18.2,7.1-27.4c0.7-1.8,1.4-3.6,2.4-5.1c2.4-4,5.6-6.8,8.2-10.6
		c2.9-4.3,4.6-9.4,6.5-14.5c2.1-5.6,4.2-11.2,6.3-16.8C610.8,473.2,609.7,470.4,608,469.6z"/>
	<path class="st6" d="M828.2,386.4c-0.7-1.7-3.2-3.3-6.3-3.9c-3-0.6-5.3-0.1-7.4,0.4c-14.9,0.2-30.2-0.4-45.8-1.9
		c-16.2-1.5-32.8-4.6-48.5-4.8c-13.6-0.2-28.1,1.2-38,4.9c-5.8,2.2-1.8,6.6,5.5,9c7.5,2.5,15.4,2.6,22.4,2.3
		c7.4-0.3,14.4-1.1,21.9-1.1c7.6,0,15.6,0.8,23.5,1.8c15,1.7,30.2,3.7,43.9,2.6c6.4-0.5,12.5-1.5,17.9-3.1
		C821.1,391.6,829.5,389.8,828.2,386.4z"/>
	<path class="st6" d="M1048.3,412c-4.4,1.9-7.1,6.6-9.5,10.5c-2.7,2.4-5.5,4.9-7.3,7.9c-2.3,3.9-3,8.7-4.8,12.8
		c-1.9,4.2-4.3,8.2-7.8,11.5c-3.7,3.5-7.9,5.3-12.6,7.3c-2.4,1-3.8,3.8-3.1,5.8c-1.2,2-0.5,4.9,2.6,5c10.4,0.5,24.3-1.8,30.6-10.5
		c3.1-4.3,4.4-9.2,5.9-14c1.8-5.7,3.3-11.5,5.3-17.1c1.6-4.5,5.6-7.8,7.2-12.2C1056.6,414.7,1053.9,409.7,1048.3,412z"/>
	<path class="st5" d="M1185.8,542c-0.2-0.1-0.4-0.3-0.6-0.4c0.2-0.5,0.1-1.2-0.6-1.3c-0.2,0-0.3-0.1-0.5-0.1
		c-0.3-0.2-0.7-0.4-1.1-0.5c-0.2-0.1-0.4-0.2-0.6-0.3c0-0.9-0.7-1.9-1.9-2c-4.9-0.3-9.9-1-14.7-0.2c-0.3-0.4-0.8-0.7-1.5-0.6
		c-4,0.3-8.3,0.8-10.9,4.2c-0.6,0.8-0.4,1.7,0.1,2.2c-1.5,1.2-2.8,2.5-4,4c-0.8,1-0.3,2,0.6,2.5c-2.1,2.6-4.2,5.2-6.8,7.3
		c-2,1.6,0.8,4.4,2.8,2.8c4.6-3.7,7.6-9.3,12.1-13.2c5.9-5.2,14.2-5.2,21.6-5.2c0.6,0.2,1.2,0.4,1.8,0.6c1.2,0.4,2.1,1.1,3.1,1.8
		C1185.8,544.4,1186.8,542.7,1185.8,542z"/>
	<path class="st5" d="M1296.6,564.8c-2.5-2-4.3-4.8-6.8-6.8c-2.9-2.2-6.3-2.8-9.8-2.8c-7.4,0-14.5,2.3-20.8,5.9
		c-2.8,1.6-0.3,5.9,2.5,4.3c5.1-2.9,10.7-4.8,16.6-5.2c3.5-0.2,6.9,0.1,9.5,2.7c1.8,1.8,3.2,3.8,5.2,5.4
		C1295.5,570.3,1299.1,566.8,1296.6,564.8z"/>
	<path class="st5" d="M1309.3,744.2c0.9-0.3,1.7-1.2,1.4-2.4c-0.9-3.4-2.1-6.4-4.5-9.1c-2.9-3.3-6.6-5.6-10.3-8
		c-0.9-0.6-1.7-0.4-2.2,0.2c-7.5-4.7-16.6-7.4-25.8-8.7c-2.5-0.3-3.6,3.5-1.1,3.9c17.5,2.4,34.8,9.7,39.6,28.4
		c0.6,2.5,4.5,1.4,3.9-1.1C1310,746.3,1309.7,745.2,1309.3,744.2z"/>
	<path class="st5" d="M961.2,872.2c-0.4,0.7-0.8,1.2-1.4,1.7c-0.3,0.3-0.7,0.5-1,0.8c-0.2,0.1-0.3,0.2-0.5,0.3
		c-4.5,3.8-9.4,7.5-15.1,9.3c-3.9,1.2-11.8,2.7-15.1-0.8c-1.8-1.9-4.6,1-2.8,2.8c2.4,2.5,6,3.2,9.5,3.3c0.2,0.6,0.6,1.1,1.4,1.3
		c4.1,1,9.2,2.2,13.3,0.5c3.8-1.6,7.4-6,9.2-9.6c0.1-0.2,0.2-0.5,0.2-0.8c0.6-1.1,1.3-2.1,2.3-3.1c1.1-1,0.6-2.3-0.3-3
		c0.6-0.7,1.1-1.5,1.3-2.4C962.3,872.1,961.5,871.7,961.2,872.2z"/>
	<path class="st5" d="M921.8,144c0-1.7-0.1-3.5-0.7-5.2c-0.3-0.5-0.6-0.9-0.9-1.3c0.1,0,0.2-0.1,0.3-0.1c-0.2-0.3-0.4-0.6-0.6-0.9
		c-0.4-0.5-0.6-1-0.6-1.6c-4.3-3-9.4-4-14.6-2.7c-0.4,0-0.7,0-1.1,0c-1.3,0-1.3,2,0,2c3.9-0.1,7.5,0.6,11,2c4,1.6,5.1,4,6.6,7.8
		c0.1,0.3,0.4,0.5,0.7,0.6C921.9,144.4,921.8,144.2,921.8,144z"/>
	<path class="st5" d="M991.6,214.1c-0.5-0.7-1.1-1.3-1.7-2c-0.1-0.2-0.2-0.4-0.4-0.6c-0.2-0.2-0.5-0.3-0.7-0.5
		c-1-0.9-2.2-1.8-3.3-2.5c0-0.3,0-0.5-0.3-0.8c-3.2-3.1-8.6-3.6-12.9-3.4c-0.7,0-1.1,0.8-1,1.3c-2.5-0.3-5-0.4-7.5-0.7
		c-1.3-0.1-1.3,1.9,0,2c8.3,0.8,16.8,1,24,5.8c0.8,0.7,1.5,1.5,2.1,2.3C990.6,216.1,992.4,215.1,991.6,214.1z"/>
	<path class="st3" d="M1241.6,771.3c-9.1-1.2-18.1-1.5-27-4.2c-10.1-3.1-19.9-7.1-29.8-10.7c-9.8-3.6-19.8-7.4-29.9-10.2
		c-9.7-2.6-19.7-4-29.6-5.7c-0.3,0-0.5,0-0.7,0c-19,0.4-38,1-56.8,3.5c-17.9,2.4-34.8,7.5-51.7,13.5c-18.4,6.6-37.1,13.4-57,12.9
		c-2.8-0.1-4.8,1.2-6,2.9c0.3,0.1,0.6,0.2,0.9,0.2c7.2,2.1,14,2.7,21.4,2.9c7.5,0.1,14.9,0.3,22.4-0.3c5.2-0.4,10.4-1.2,15.6-1.8
		c15.5-5.4,31-11.3,47.1-14.2c18.6-3.4,37.5-4,56.3-4.5c9.3-0.3,18.9-0.9,28.1,0.6c9.3,1.5,18.5,4.4,27.6,7c7.5,2.2,15,4.4,22.5,6.8
		c7.3,1.1,14.6,2.8,22,3.5c6.1,0.6,12.4,0.7,18.5-0.2c2.1-0.3,4.1-0.9,6.2-1.5C1241.6,771.6,1241.6,771.5,1241.6,771.3z"/>
	<path class="st3" d="M1266.5,374.2c-0.1-5.4-1.6-10.6-2.7-15.9c-2.4,0.9-4.2,3-4.4,6.3c-1,27.7-16.1,52.4-31.7,74.6
		c-8.3,11.9-19,21.2-30,30.5c-3.9,3.3-8,6.5-12,9.7c-0.8,0.3-1.5,0.8-2,1.6c0,0,0,0,0,0c-1.2,0.9-2.3,1.9-3.5,2.8
		c-0.2,0.2-0.3,0.4-0.5,0.7c-1.2,1.5-2.5,3-3.8,4.3c-0.5,0.4-1.1,0.8-1.7,1.1c-0.1,0.1-0.2,0.2-0.3,0.4c-7.7,7.3-16.3,14-26.2,18
		c-0.5,0.5-1,0.9-1.5,1.4c-0.1-0.1-0.3-0.1-0.5,0c-1.3,0.7-2,1-2.4,2.4c-0.2,0.6-0.3,1.3-0.2,1.9c0,0.5,0.2,0.9,0.4,1.4
		c-0.1,3.5,0.4,7-0.3,10.4c-0.2,1.3-0.7,2.4-1.3,3.5c-0.8,4.7-3.2,8.6-6.1,12.5c-2.4,3.2-5.1,6.3-8.1,9c-2.1-0.4-4.4,0.1-6.3,2.2
		c-4.2,4.5-8.9,8.1-14.4,10.8c-5.9,3-11.3,5.7-16,10.5c-4.5,4.7-8.3,10-13,14.6c-4.8,4.6-10,8.7-15,13.2c-18.8,17-33.8,42.9-61,47
		c-4,0.6-6.2,5.7-5.2,9.2c0.8,2.9,2.9,4.5,5.4,5.1c3.4-0.8,6.7-1.6,10-2.7c7.3-2.3,13.2-5.5,20-9.9c6.5-4.2,12-8.2,17.5-13.7
		c1.5-1.6,3-3.1,4.5-4.7c4.6-5,8.9-10.2,13.8-14.9c12.8-12.3,25.3-25,38-37.5c2.7-2.7,5.7-5.1,8.7-7.5c1.4-1.2,2.8-2.3,4.1-3.6
		c-0.3,0.2,1.3-1.9,1.5-2.3c0,0,0,0,0,0c-0.4,1.1-0.3,1,0.1-0.1c3.2-3.3,7.3-5.4,10.8-8.3c3.7-3,6.9-6.5,9.8-10.2
		c2.7-3.5,5.4-7.2,7.1-11.3c1.9-4.6,2-9.3,2.1-14.1c0-2.4-0.1-4.8,1.3-6.8c1.7-2.4,4.7-4.1,6.9-5.8c4.1-3.1,8.4-6,12.8-8.7
		c7.2-4.5,14.3-8.8,19.2-16c3-2.6,6-5.1,9.1-7.7c11.3-9.6,22.5-19.3,32.2-30.5c16.8-19.3,29.8-42.4,34.7-67.9
		C1266.6,377.4,1266.6,375.8,1266.5,374.2z"/>
	<path class="st3" d="M1183.1,583.8c-0.8,3.8-2.5,7.4-4.7,10.8c-0.7,0-1.4,0.1-2.2,0.6c-2.1,1.2-4.1,2.6-6,4.1
		c-1.4-0.4-2.9-0.1-3.8,1c-3.3,3.9-6.8,7.6-10.5,11.1c-1.8,1.7-1.4,3.8-0.2,5.3c-0.3,0.6-0.7,1.3-1,2c-1.5,1.5-2.9,3.2-3.9,5.2
		c-2.4,4.8-2.9,10.2-3,15.4c-0.1,5.1,7.9,5.2,8,0c0.1-5.5,0.6-10.9,4.5-15c0.3-0.2,0.6-0.5,0.8-0.8c3.8-3.7,8.2-6.8,11.9-10.5
		c7.3-7.3,15.5-16.5,17.7-26.9C1191.8,580.9,1184.1,578.8,1183.1,583.8z"/>
	<path class="st3" d="M1279.1,622.5c-2,4.5-6,7.5-9.8,10.7c-4.1,3.4-8.2,6.8-12.5,10c-1.9,1.4-3.8,2.8-5.8,4.2
		c-1-1.7-3.1-2.7-5.2-1.3c-4.6,2.9-9.2,5.8-14.1,8.1c-5.2,2.5-10.7,3.8-16,5.8c-7.9,3.1-15.1,8-17.5,16.6c-0.5,1.9,0.3,3.4,1.6,4.2
		c-3,4.3-4.8,9.4-4.4,15.8c0.3,5.1,8.3,5.2,8,0c-0.6-9.8,6.8-16.7,14.7-21.3c8.4-4.9,17.5-8.6,25.8-13.7
		c7.9-4.8,15.5-10.2,22.8-15.9c6.8-5.3,15.7-11,19.3-19.1C1288.2,621.8,1281.3,617.8,1279.1,622.5z"/>
	<path class="st3" d="M917.8,165.7c-1.2-5-8.9-2.9-7.7,2.1c1.1,4.9-2.4,8.7-5.4,12c-1.4,1.5-2.8,3-4.2,4.4c-1.3-3.2-7.3-2.5-7.8,1.8
		c-0.4,3.3-1.6,6.2-3.1,8.9c-3.9,3.8-7.4,7.8-9.6,13c-0.3,0.8-0.4,1.4-0.2,2.1c-0.3,0.4-0.6,0.8-0.8,1.2c-0.9,1.4-0.8,2.9-0.1,3.9
		c-0.5,2.4-0.6,5,0,7.3c0.7,2.9,2.6,5.6,4.7,7.9c0.2,0.5,0.5,1.1,1.1,1.6c0.4,0.3,0.8,0.7,1.2,1c3.9,3.3,9.2-1.8,5.7-5.7
		c-3.4-3.8-5.8-6.5-4.5-11.7c0.4-1.7,1.1-3.3,1.9-4.8c3.6-5.1,7.4-10,11.3-14.9c2.8-2.7,5.6-5.5,8.2-8.4
		C914.2,181.4,919.9,174.7,917.8,165.7z"/>
	<path class="st3" d="M904.9,789.3c0.1,8.9-12.8,10.5-18.6,14c-4.8,2.9-10,8.5-8.8,14.6c0.9,4.4,7.6,2.5,6.8-1.9
		c-0.6-2.9,4.7-6.3,6.8-7.4c3.3-1.6,6.9-2.6,10.2-4.5c5.8-3.2,10.7-7.8,10.7-14.9C911.9,784.8,904.9,784.8,904.9,789.3z"/>
	<path class="st7" d="M1150.2,401.9c-0.3-0.8-0.8-1.5-1.6-2c-0.1-0.9-0.4-1.8-0.8-2.8c-0.5-1.1-2.2-2.1-3.5-2
		c-35.1,4.4-64.3,30.2-75,63.6c-0.4,1.1-0.2,2.1,0.2,2.9c-1.3,1.3-1.2,2.9-0.5,4.2c-0.1,1,0,1.9,0.1,2.8c-0.3,0.4-0.5,0.9-0.5,1.4
		c-0.1,1.7,1.2,2.7,2.3,3.7c0.8,0.8,1.7,1.4,2.7,1.9c4.7,3.2,10.4,3.9,15.9,4.6c12.7,1.6,26.8,0.1,37.6-7.5
		c9.6-6.8,16.5-19.2,20.7-29.9C1153.1,429.7,1154.3,415.3,1150.2,401.9z M1136.8,447.9c-1.6-2-5-2.6-6.5,0.3
		c-3.2,6.1-10.2,9.1-14.6,14.4c-3.2-2.6-7.9-1.6-11.4,0.6c-0.6,0.1-1.2,0.2-1.7,0.4c-2-1.7-5.4-1.8-7.5,0c-0.7-1.1-1.8-1.9-3.2-1.9
		c-0.6-0.5-1.4-0.8-2.4-0.7c-1,0.1-2.1,0.3-3.1,0.4c0.3-0.3,0.7-0.7,1-1c3.8-1.5,7.5-3,10.8-5.4c6.9-5.1,12.5-11.7,18.1-18.1
		c4.3-4.8,8.6-9.6,13.2-14.2c1-0.3,2.1-0.5,3.2-0.8c2.6-0.5,5-0.7,7-2.1c1.1,0.3,2.1,0.5,3.2,0.8c0.5,0.1,1.1,0.1,1.6,0
		C1144.2,430.1,1141.3,439.4,1136.8,447.9z"/>
	<path class="st7" d="M1084.7,199.5c-0.4,0-0.9-0.3-1.4-0.4c-0.5-0.1-1-0.1-1.5-0.2c0,0,0,0-0.1,0c-0.3-1-1-1.8-2.4-2
		c-10.5-1.6-20.9-1.4-31.5,0c-9.6,1.3-20.6,2.3-29.3,7c-4,2.1-0.4,8.2,3.5,6c7.7-4.1,18.1-5,26.7-6.1c9.5-1.2,19.2-1.6,28.7-0.1
		c0.6,0.1,1.2,0,1.7-0.2c0.7,0.2,1.5,0.3,2.2,0.4c1.1,0.1,2.1,0.5,3.2,0.6c1.3,0.1,2.5-1.2,2.5-2.5
		C1087.2,200.6,1086.1,199.6,1084.7,199.5z"/>
	<g>
		<g>
			<g>
				<g>
					<path class="st6" d="M227.1,970.5c15-1.5,29.9-1.9,44.8-1.8c7.5-0.1,14.9,0.3,22.4,0.5l5.6,0.3l2.8,0.2l2.4,0.2
						c0.9,0.1,1.8,0.2,2.6,0.4c1.6,0.4,3,1.2,4,2.4c1.1,1.3,1.6,2.8,1.6,4.3c0,0.8-0.1,1.6-0.3,2.5l-0.4,1.3l-0.5,1.3
						c-0.8,2-1.1,2.6-1.6,3.7c-1,1.9-2.1,3.6-3.2,5.2c-1.1,1.6-2.3,3.1-3.4,4.7c-2.3,3.1-4.7,6-7.2,9c-5.1,5.7-10.4,11.1-16,16.1
						c-11.1,10.1-22.9,19.2-34.8,28.4c8.9-12.1,19.3-23,29.2-33.9c4.9-5.5,9.8-10.9,14.3-16.7c2.3-2.8,4.5-5.7,6.6-8.6
						c2.1-2.9,4.2-5.9,5.6-8.8c1-2,0.6-1.2,0.8-1.4c0,0,0-0.1,0-0.1l0,0l0,0l0,0l-0.3,0l-2.8-0.2l-5.6-0.4
						c-7.4-0.8-14.8-1.3-22.2-2.2C256.7,975,241.9,973.2,227.1,970.5z"/>
				</g>
			</g>
		</g>
	</g>
	<g>
		<g>
			<g>
				<g>
					<path class="st6" d="M240.2,1011.8c6.1-2.2,12.3-3.3,18.5-4c3.1-0.4,6.2-0.5,9.3-0.7l9.3,0l9.3,0.7c3.1,0.4,6.2,0.7,9.2,1.4
						c6.1,1.1,12.2,2.7,18.2,5.3c-6.3,1.5-12.5,2.2-18.7,2.5c-3.1,0.3-6.2,0.2-9.2,0.3l-9.2-0.1l-9.2-0.5c-3.1-0.4-6.1-0.5-9.2-1
						C252.5,1014.9,246.4,1013.8,240.2,1011.8z"/>
				</g>
			</g>
		</g>
	</g>
	<path d="M1145.2,423.2c-0.9-2.2-1.4-7.8-4.4-8.2c-3.1-0.5-7.6,2.6-9.7,4.6c-0.3,0.2-0.2,0.6,0.1,0.7c-6.1,4.4-11.3,10-16,16.1
		c-3.3,4.3-6.1,9.3-9.8,13.3c-4.4,4.7-11.2,7.4-17.2,9.2c-1.5,0.5-1.9,1.8-1.7,3c-1.6,0.2-3.2,0.5-4.8,0.9c-0.5,0.1-0.7,0.5-0.7,0.9
		c-0.6,0-1.2,0.1-1.9,0.2c-0.2,0-0.4,0.2-0.4,0.4c0,0-0.1,0-0.1,0c-0.6,0.1-0.4,1.1,0.3,1c4-0.7,8.1-0.5,12.2-1.1
		c0.4-0.1,0.4-0.5,0.2-0.8c1.7-0.1,3.3-0.2,5-0.3c0.2,0,0.4,0.1,0.5,0.1c1.9-0.1,3.7-0.2,5.6-0.5c2.2-0.2,4.3-0.5,6.4-0.9
		c0.4-0.1,0.6-0.3,0.6-0.5c13.9-4,25.5-13.7,31.6-27.4c0.3-0.6,0.3-1.1,0.2-1.7c1.2-1.7,2.4-3.5,3-5.5c0.3-1,0.4-1.9,0.4-2.8
		C1144.9,423.9,1145.4,423.6,1145.2,423.2z"/>
</g>
<g id="Toffee_Text">
	<g>
		<g>
			<g>
				<g>
					<path d="M0,414c29-28.5,58.7-55.9,88.5-83.3c7.3-6.9,14.8-13.7,22.3-20.5c7.4-6.8,14.9-13.6,22.3-20.5l22.4-20.3l22.2-20.5
						l22.4-20.3l22.2-20.5l22.3-20.4c7.4-6.9,14.8-13.7,22.4-20.4c29.8-27.2,59.7-54.5,90.5-81c-24.8,32.3-51.6,62.7-79.5,92.2
						c-6.9,7.4-14,14.7-21.1,21.9l-21.5,21.5l-22,21.1l-22.2,20.9L168.7,284l-22.9,20.1l-23.3,19.5c-7.8,6.4-15.7,12.9-23.7,19.1
						C67,368,34.3,392.1,0,414z"/>
				</g>
			</g>
		</g>
	</g>
	<g>
		<g>
			<g>
				<g>
					<path d="M81.3,341.8c20.7,1.3,41,7,60.2,14.4c9.7,3.5,19,8,28.3,12.2l27.2,13.7c8.9,4.8,17.7,9.6,26.7,14
						c8.8,4.8,17.8,9,26.7,13.5c17.9,8.7,36.3,16.5,55.6,23.9c-20.7,0.7-41.6-3.1-61.4-9.3c-10-3-19.6-7-29.1-10.9
						c-9.4-4.3-18.6-8.8-27.8-13.3L161,385.5c-8.7-5.1-17.6-9.8-26.2-14.9C117.3,360.8,99.7,351.3,81.3,341.8z"/>
				</g>
			</g>
		</g>
	</g>
	<g>
		<g>
			<g>
				<g>
					<path d="M278.3,267.8c-4,0.8-7.3,3-9.9,5.7c-2.6,2.7-4.7,5.9-6.5,9.3c-3.6,6.8-6.6,14.1-8.9,21.3c-4.5,14.5-5.8,29.6-1.9,43
						c2,6.7,5.1,12.9,9.2,18.1c2,2.6,4.3,5,6.9,7c2.5,2,5.3,3.6,8.2,4.9c5.8,2.7,12.3,4.2,18.9,4.2c6.6,0,13.1-1.3,18.9-4.1
						c5.9-2.6,11.4-6.5,15.9-11.3c4.5-4.9,8-10.7,10-16.8c2.2-6.1,2.9-12.9,2.5-19.9c-0.4-7-1.9-14.2-4-21.3
						c-2.2-7.1-5-13.8-8.9-19.6c-2-2.9-4.2-5.6-6.8-7.8c-2.5-2.3-5.4-4.3-8.6-5.9c-3.2-1.6-6.6-3-10.2-3.8
						c-3.6-0.8-7.3-1.4-11.1-1.5c-3.8-0.1-7.6,0.2-11.4,0.9c-3.8,0.8-7.6,2-11.2,3.6c3.1-2.5,6.6-4.7,10.3-6.4
						c3.8-1.7,7.8-2.9,11.9-3.7c8.3-1.5,17.1-1,25.4,1.7c8.4,2.6,16.3,8.1,22.1,14.8c5.9,6.7,10.1,14.5,13.3,22.4
						c3.3,7.8,5.8,16.2,6.8,25c1,8.8,0.6,18.1-2,27.2c-5.6,18-18.7,32.9-35.9,40.9c-8.7,3.8-18.1,5.5-27.5,5.3
						c-9.3-0.2-18.6-2.4-27.1-6.7c-4.2-2.2-8.2-5-11.7-8.1c-3.5-3.2-6.6-6.7-9.3-10.5c-5.3-7.6-8.7-16.2-10.2-25.1
						c-1.6-8.8-1.6-17.8,0-26.3c1.5-8.5,4.4-16.6,8.1-24c1.9-3.7,3.9-7.3,6.2-10.8c2.3-3.5,4.6-6.7,7.3-9.9c2.7-3.2,5.7-6.2,9.3-8.4
						C270.1,268.9,274.3,267.4,278.3,267.8z"/>
				</g>
			</g>
		</g>
	</g>
	<g>
		<g>
			<g>
				<g>
					<path d="M380.7,132.6c-9.2,3.5-18.4,6.6-26.2,10.9c-7.9,4.3-13.8,10-17.8,17c-3.9,7-6.2,15-6.3,22.9c-0.2,4,0.1,7.9,0.9,11.7
						l0.7,2.8l0.9,2.8l1.1,2.8c0.4,0.9,0.9,1.8,1.3,2.7c3.3,7.3,8.3,14.1,14.5,19.9c3,3,6.3,5.8,9.8,8.4c3.5,2.5,7.2,4.9,11.1,7.1
						c15.6,8.8,33.8,14.5,52.3,21c-9.8,0.9-19.6,1-29.4,0c-9.9-1-19.8-3.1-29.4-6.7c-4.8-1.7-9.6-3.9-14.1-6.5
						c-4.6-2.6-8.9-5.7-13-9c-8-7-15.1-15.5-20.1-25.5c-0.5-1.3-1.1-2.6-1.6-3.9l-1.4-4l-1.1-4c-0.3-1.4-0.6-2.8-0.9-4.2
						c-1-5.6-1.2-11.3-0.7-16.9c0.7-5.6,2-11,4.1-16.2c2-5.2,4.8-10.1,8.4-14.4c3.5-4.3,7.7-8.1,12.4-11c4.7-3,9.8-4.9,14.8-6.2
						C361,131.8,370.9,132,380.7,132.6z"/>
				</g>
			</g>
		</g>
	</g>
	<g>
		<g>
			<g>
				<g>
					<path d="M341,273.2c-3.1-3.1-5.1-7.3-6.2-11.6c-1.1-4.4-1.1-8.9-0.5-13.4c0.4-4.5,2.1-8.7,3.6-12.7c1.9-3.9,4-7.6,6.3-11
						c2.6-3.3,5.2-6.3,7.9-9.3c3-2.8,5.9-5.6,9.3-7.9c6.6-4.8,14-8.5,22.6-10c-3.4,8-7.3,14.6-11.3,20.9c-1.8,3.3-4.1,6.1-6,9.3
						c-2.2,2.9-4.2,5.9-6.1,8.8c-2.2,2.8-4.1,5.6-5.9,8.4c-2.1,2.7-3.5,5.6-5.4,8.4c-1.7,2.9-3.2,5.9-4.6,9.2
						C343.4,265.4,342,269,341,273.2z"/>
				</g>
			</g>
		</g>
	</g>
	<g>
		<g>
			<g>
				<g>
					<path d="M441.2,84.2c-4.3,0.7-8.5,1.8-12.3,3.3c-3.8,1.5-7.4,3.4-10.5,5.6c-3.1,2.2-5.8,4.7-7.7,7.5l-0.7,1
						c-0.2,0.4-0.4,0.7-0.6,1.1c-0.2,0.4-0.4,0.7-0.6,1l-0.4,1.1c-0.3,0.7-0.5,1.4-0.7,2.2c-0.2,0.7-0.4,1.5-0.5,2.2
						c-0.4,3.1-0.3,6.6-0.1,10.6c0.2,4.1,0.4,8.2,1,11.9c0.4,3.8,1.1,7.3,2.1,10.5c0.5,1.6,1.1,3.1,1.9,4.5c0.7,1.4,1.6,2.8,2.6,4.1
						c3.6,5.5,9.2,10.5,15.6,14.7c3.1,2.2,6.6,4.2,10,6.1c3.5,1.9,7.1,3.6,10.7,5.3c14.7,6.5,30.8,10.7,48.1,13.8
						c-16.8,5.2-35.3,5.4-53.1,1.1c-8.9-2.1-17.5-5.7-25.7-10.1c-4.1-2.4-8-5.1-11.8-8.3c-3.8-3.2-7.4-6.8-10.4-11.1
						c-1.5-2.2-2.8-4.5-3.9-6.9c-1.2-2.4-2.1-4.9-2.8-7.4c-1.4-5-2.1-10-2.4-14.7c-0.1-4.8,0-9.3,0.3-13.7c0.3-4.5,0.8-9.6,2.7-14.8
						c0.5-1.3,1-2.6,1.7-3.8c0.6-1.2,1.3-2.5,2.1-3.6l1.2-1.7c0.4-0.5,0.9-1,1.3-1.5c0.5-0.5,0.9-1,1.4-1.5l1.5-1.3
						c3.9-3.5,8.5-5.9,13.1-7.4C423.2,81.2,432.8,81.4,441.2,84.2z"/>
				</g>
			</g>
		</g>
	</g>
	<g>
		<g>
			<g>
				<g>
					<path d="M408.9,203.7c-0.9-2-1.5-4.3-1.7-6.6c-0.2-2.3-0.1-4.6,0.3-6.8c0.3-2.2,0.8-4.3,1.4-6.4c0.6-2,1.2-4,2-5.9
						c1.3-4,3.3-7.5,5.1-11.2c2.1-3.5,4.4-6.9,6.7-10.3c2.6-3.1,5.3-6.3,8.1-9.2c3-2.8,5.9-5.7,9.3-8c6.6-4.9,14-9,22.6-11
						c-3.1,8.3-7.1,15.1-11.1,21.7c-1.9,3.4-4.2,6.4-6.2,9.6c-2.3,3-4.4,6.1-6.5,9.1c-2.4,2.9-4.7,5.8-6.9,8.9
						c-2.6,2.8-4.7,5.9-7.5,8.6c-1.3,1.4-2.6,2.9-3.9,4.3l-4,4.1C414,197.3,411.3,199.9,408.9,203.7z"/>
				</g>
			</g>
		</g>
	</g>
	<g>
		<g>
			<g>
				<g>
					<path d="M493.6,137.5c8-7.8,15-16,21.1-24.6c3.1-4.3,5.5-8.5,6-12.2c0.2-1.7,0-3.3-0.5-4.5c-0.3-0.6-0.6-1.1-0.9-1.4
						c-0.3-0.3-0.6-0.4-0.9-0.5c-0.1,0-0.2,0-0.3-0.1c-0.6-0.1-1.7-0.1-3.1,0.3c-1.4,0.4-3.1,1.2-4.6,2.2l-0.5,0.4l-0.6,0.5
						c-0.4,0.3-0.8,0.7-1.2,1c-0.8,0.7-1.5,1.4-2.2,2.2c-1.4,1.6-2.7,3.3-3.9,5.2c-2.4,3.7-4.4,8.1-5.6,12.4
						c-1.2,4.2-1.4,8.4-0.6,11.7c0.3,1.7,0.9,3.1,1.6,4.5c0.8,1.4,1.8,2.6,3.2,3.8c2.7,2.3,6.6,4,10.7,4.9c2,0.5,4.2,0.8,6.3,0.8
						c2.2,0,4.5-0.1,6.8-0.5c4.6-0.7,9.4-2.1,14.3-3.8c4.8-1.8,9.7-4,14.7-6.3c4.9-2.3,9.8-4.7,14.5-7.3c9.5-5.2,18.7-11,27.1-18.6
						c-2.5,5.1-5.7,9.9-9.4,14.3c-3.7,4.4-7.7,8.6-12.1,12.4c-4.3,3.8-8.9,7.3-13.6,10.6c-4.7,3.3-9.5,6.4-14.8,9.2
						c-5.3,2.9-11,5.3-17.3,6.8c-3.1,0.7-6.3,1.3-9.7,1.5c-3.4,0.2-6.9,0.1-10.3-0.4c-6.8-1.2-13.6-3.7-19.5-8.4
						c-3-2.3-5.7-5.2-7.8-8.6c-2.1-3.4-3.7-7.2-4.5-10.9c-0.7-3.8-0.8-7.5-0.5-11.1c0.3-3.6,1.1-6.9,2-10.1c1-3.2,2.2-6.3,3.6-9.2
						c1.4-2.9,3.1-5.8,5-8.5c2-2.7,4.2-5.2,6.8-7.6c1.3-1.2,2.6-2.3,4-3.3c0.7-0.5,1.4-1,2.2-1.5l1.1-0.7l1.2-0.7
						c3.3-1.8,6.9-3.1,10.9-3.6c2-0.2,4.2-0.3,6.4,0.1c2.2,0.3,4.6,1.1,6.7,2.3c0.6,0.4,1.2,0.8,1.8,1.2c2,1.4,3.6,3.3,4.8,5.3
						c1.2,2,1.9,4.1,2.3,6.1c0.8,4.1,0.4,8.1-0.9,11.6c-1.2,3.5-3.1,6.3-5.1,8.8c-2,2.5-4.1,4.5-6.3,6.4
						C513.5,127.1,503.8,133.2,493.6,137.5z"/>
				</g>
			</g>
		</g>
	</g>
	<g>
		<g>
			<g>
				<g>
					<path d="M595.8,68.7c4.2-2.9,8.5-5.8,12.3-8.9c1.9-1.6,3.6-3.2,5.1-4.9c1.5-1.7,2.7-3.5,3.7-5.4c1-1.9,1.7-3.8,2-5.6
						c0.3-1.8,0.3-3.6,0-5.1c-0.1-0.2-0.1-0.4-0.1-0.5l-0.2-0.5c-0.1-0.3-0.3-0.6-0.4-0.9c-0.1-0.3-0.3-0.6-0.5-0.9
						c-0.2-0.3-0.4-0.5-0.6-0.8c-0.9-1.1-2.1-2-3.5-2.6c-1.4-0.6-2.8-1-4.2-1.1c-1.4-0.1-2.6,0.1-3.6,0.5c-2.4,0.9-4.6,2.8-6.4,5.9
						c-2,2.9-3.6,6.9-4.8,11.1c-0.6,2.1-1.2,4.5-1.6,6.5c-0.4,2.1-0.7,4-0.7,5.7c0,0.8-0.1,1.6,0,2.4c0,0.4,0.1,0.7,0.1,1.1
						c0,0.4,0.2,0.7,0.2,1.1l0.1,0.6l0.2,0.5c0.1,0.4,0.2,0.7,0.4,1.1c0.3,0.7,0.6,1.4,1.1,2.1c0.4,0.7,0.9,1.4,1.4,2.1
						c0.6,0.6,1.1,1.4,1.7,2c1.2,1.3,2.7,2.4,4.3,3.5c1.5,1.1,3.2,2.1,5,2.9c0.4,0.2,0.9,0.4,1.4,0.5c0.4,0.2,0.9,0.4,1.4,0.5
						l1.4,0.5l1.4,0.3c0.5,0.1,1,0.2,1.5,0.3c0.5,0.1,1,0.2,1.5,0.3c1,0.1,2.1,0.3,3.1,0.4c2.1,0.2,4.3,0.2,6.5,0.2
						c8.9-0.3,18.3-2.7,27.7-5.6c9.5-3,19-6.4,28.6-10.2c-7.3,7.3-15.5,13.7-24.4,19.2c-4.5,2.7-9.1,5.3-14.1,7.4
						c-5,2.1-10.3,3.8-15.9,4.9c-2.8,0.6-5.7,1-8.6,1.1c-1.5,0.1-2.9,0-4.4,0c-0.7,0-1.5-0.1-2.2-0.2c-0.7,0-1.5-0.1-2.3-0.2
						l-2.3-0.3l-2.3-0.5c-0.8-0.2-1.5-0.4-2.3-0.6c-0.7-0.2-1.5-0.4-2.2-0.7c-2.9-1-5.8-2.3-8.6-3.9c-2.7-1.7-5.3-3.5-7.7-5.8
						c-1.2-1.1-2.3-2.4-3.4-3.6c-1-1.3-2.1-2.6-3-4.1c-1-1.4-1.7-3-2.5-4.5c-0.4-0.8-0.7-1.6-1-2.5l-0.5-1.2l-0.4-1.3
						c-0.2-0.9-0.5-1.7-0.6-2.6l-0.4-2.7c-0.2-1.8-0.3-3.5-0.2-5.2c0.2-3.4,0.7-6.4,1.4-9.3c0.7-2.9,1.4-5.4,2.3-8.1
						c1.8-5.4,4.1-10.9,8-16.3c2-2.6,4.4-5.1,7.3-7.2c0.4-0.3,0.7-0.5,1.1-0.8l1.2-0.7l1.2-0.7l1.2-0.6l1.3-0.6
						c0.4-0.2,0.9-0.3,1.3-0.5c0.9-0.3,1.7-0.6,2.7-0.8c3.8-1,7.8-0.9,11.4-0.1c3.6,0.8,6.9,2.4,9.8,4.5c2.9,2.1,5.4,4.8,7.2,8
						c0.4,0.8,0.9,1.6,1.2,2.5c0.4,0.9,0.7,1.7,0.9,2.6c0.2,0.9,0.5,1.8,0.6,2.7l0.2,1.4c0,0.5,0,0.9,0,1.3c0,3.6-0.9,6.9-2.1,9.9
						c-1.3,2.9-3.1,5.5-5.1,7.7c-2,2.2-4.3,4.1-6.7,5.6c-2.4,1.5-4.8,2.7-7.3,3.7C605.9,66.6,600.8,67.7,595.8,68.7z"/>
				</g>
			</g>
		</g>
	</g>
</g>
<g id="Ink">
	<g>
		<g>
			<g>
				<g>
					<path d="M1068.9,471.8c-1-5-0.7-10.4,0-15.5c0.7-5.1,2-10.2,3.7-15.1c1.6-5,4-9.7,6.7-14.3c2.8-4.5,6-8.8,9.6-12.7
						c3.7-3.8,7.8-7.3,12.2-10.3c4.5-2.9,9.2-5.4,14.2-7.1c5-1.8,10.2-3,15.4-3.3c1.3-0.1,2.6-0.1,3.9-0.1c1.3,0,2.6,0.1,3.9,0.2
						c2.6,0.3,5.2,0.9,7.5,2.1c-2.6-0.2-5,0.2-7.4,0.7c-1.2,0.3-2.4,0.6-3.6,0.9c-1.2,0.3-2.4,0.7-3.5,1.1c-4.6,1.5-9,3.4-13.2,5.6
						c-4.1,2.3-8.2,4.8-11.8,7.7c-3.8,2.8-7.3,6-10.4,9.5c-3.3,3.4-6.2,7.1-8.9,11c-2.8,3.8-5.1,8-7.5,12.2
						c-2.3,4.3-4.3,8.7-6.2,13.3C1071.8,462.2,1070.1,466.8,1068.9,471.8z"/>
				</g>
			</g>
		</g>
	</g>
	<g>
		<g>
			<g>
				<g>
					<path d="M1146.6,395.8c1.2,1,2.3,2.2,3.2,3.5c0.9,1.3,1.7,2.8,2.4,4.3c1.3,3,2.1,6.2,2.6,9.4c0.5,3.2,0.8,6.4,1,9.5
						c0.2,3.2,0.2,6.3,0.1,9.6c-0.1,6.5-1.3,13.1-3.7,19.5c-1.3,3.2-3,6.3-5,9.1c-2,2.8-4.2,5.3-6.5,7.6c-2.3,2.3-4.7,4.4-7.2,6.5
						c-2.5,2-5,4-7.9,5.9c-2.9,1.8-6.4,3.3-9.7,4.1c-3.4,0.9-6.6,1.3-9.9,1.4c-6.6,0.3-13.2-0.4-19.5-2.5c-6.2-2.1-11.9-5.9-15.6-11
						c5.2,3.5,11,5.4,16.8,6.2c5.8,0.8,11.7,0.5,17.4-0.5c2.9-0.5,5.7-1.2,8.3-2.1c2.6-0.9,4.8-2,7-3.7c2.3-1.5,4.5-3.4,6.8-5.4
						c2.2-2,4.4-4,6.4-6.1c2.1-2.1,4.1-4.1,5.7-6.3c1.6-2.2,3-4.5,4.1-7c2.4-5,3.6-10.7,4.7-16.5c0.5-2.9,0.8-5.9,1.1-9
						c0.3-3,0.6-6.1,0.7-9.1c0.1-3,0.1-6-0.3-8.9c-0.2-1.5-0.5-2.9-1-4.4C1148,398.6,1147.4,397.2,1146.6,395.8z"/>
				</g>
			</g>
		</g>
	</g>
	<g>
		<g>
			<g>
				<g>
					<path d="M1174.1,490.8l-13.9,9.6l-7,4.8l-3.5,2.4c-1.2,0.8-2.4,1.5-3.2,2.4c-1.7,1.6-2.2,4.1-2.3,6.7c-0.1,2.6,0.4,5.4,0.2,8.5
						c-0.1,1.6-0.4,3.2-0.9,4.6c-0.5,1.4-1,2.8-1.5,4.1c-1.1,2.7-2.4,5.3-3.9,7.9c-3,5.1-7,9.7-11.9,13.3c-5,3.6-10.5,5.7-15.4,8.1
						c-2.5,1.2-4.9,2.4-7,3.8c-2.1,1.4-4,3-5.8,4.9c-1.8,1.9-3.6,4-5.4,6.2l-5.5,6.4c-7.3,8.6-14.8,17.1-22.7,25.3
						c-7.9,8.2-16.4,16-25.5,23c-9.2,6.9-18.8,13-27.9,19.3c-2.3,1.6-4.5,3.2-6.7,4.8l-0.7,0.5l-0.1,0.1l-0.2,0.1c0,0,0,0,0,0.1
						c0,0,0,0,0.1,0l0,0l1.7,0.6c2.7,0.9,5.3,1.7,7.9,2.5c10.5,3.3,21.1,6.1,31.8,6.9c10.6,0.9,21.4-0.2,31-4
						c4.8-1.8,9.3-4.4,13.3-7.6c4-3.2,7.5-7.2,10.6-11.5c6.2-8.7,10.7-18.8,15.1-29c8.8-20.8,18.3-41.3,28.6-61.3
						c1.3-2.5,2.5-5,4-7.6c1.5-2.5,3.1-5,5.3-7.2l1.6-1.5c0.5-0.5,1.3-1.2,2.1-1.6c0.4-0.2,0.9-0.4,1.3-0.5l1.1-0.2
						c0.7-0.1,1.4-0.3,2.2-0.4c2.9-0.4,5.8-0.6,8.7-0.6c1.4,0,2.9,0.1,4.3,0.3c1.4,0.2,2.9,0.4,4.3,0.8c1.4,0.4,2.9,1,4.1,1.9
						c1.2,0.9,2.2,2.1,3,3.3c1.6,2.5,2.5,5.3,3.3,7.9l2.5,8.1l-3.2-7.8c-1.1-2.6-2.1-5.2-3.8-7.3c-0.8-1.1-1.8-2-2.9-2.7
						c-1.1-0.7-2.3-1.1-3.6-1.4c-1.3-0.2-2.6-0.3-4-0.4c-1.4,0-2.7,0-4.1,0c-2.7,0.1-5.4,0.5-8.1,1.1c-0.7,0.1-1.3,0.3-2,0.5
						l-0.9,0.3c-0.2,0.1-0.4,0.2-0.6,0.3c-0.4,0.2-0.6,0.5-1.1,1l-1.4,1.5c-3.4,3.8-5.4,9.1-7.7,14.2c-9.1,20.5-17.7,41.2-25.8,62.2
						c-4.1,10.5-8.4,21.3-15.1,31.1c-3.3,4.9-7.3,9.6-11.9,13.5c-4.7,4-10,7.2-15.6,9.4c-11.3,4.5-23.5,5.8-35.3,4.9
						c-11.8-0.9-23.2-3.7-34.1-7.1c-2.7-0.9-5.4-1.8-8.1-2.7l-2.3-0.8c-1.3-0.4-2.6-1-3.7-1.6c-2.3-1.4-3.8-3.2-4.4-5.5
						c-0.3-1.1-0.3-2.4,0-3.5c0.3-1.1,0.8-2.1,1.5-3c0.4-0.5,0.9-0.9,1.4-1.3l1.5-1.2l1.5-1.2c0.3-0.3,0.4-0.3,0.5-0.4l0.4-0.3
						c2.3-1.7,4.7-3.3,7-4.9c9.4-6.4,18.9-12.3,27.7-18.9c17.7-12.9,32.9-29.4,48.1-45.9l5.7-6.2c1.9-2.1,3.8-4.2,6-6.3
						c1.1-1,2.2-2.1,3.4-3c1.2-1,2.5-1.8,3.8-2.6c2.6-1.6,5.3-2.8,8-3.9c5.3-2.2,10.5-4,14.8-6.8c4.3-2.8,8-6.7,11-11.2
						c1.5-2.2,2.8-4.6,4-7c0.6-1.2,1.1-2.5,1.6-3.7c0.5-1.2,0.8-2.3,0.9-3.6c0.3-2.5,0.1-5.3,0.3-8.4c0.1-1.5,0.4-3.1,1-4.5
						c0.6-1.5,1.5-2.9,2.8-4c1.3-1.1,2.6-1.7,3.7-2.4l3.7-2.1l7.3-4.2L1174.1,490.8z"/>
				</g>
			</g>
		</g>
	</g>
	<g>
		<g>
			<g>
				<g>
					<path d="M1182.1,539.1c5,5.3,9.2,11.6,11.2,19c1,3.7,1.3,7.6,0.7,11.5c-0.3,1.9-0.7,3.8-1.4,5.7c-0.6,1.8-1.4,3.6-2.3,5.3
						c-3.6,6.9-8.9,12.6-14.2,17.7c-5.3,5.1-10.7,9.8-15,15.1c-2.1,2.7-3.9,5.4-5.4,8.4c-1.5,3-2.6,6.1-3.3,9.3
						c-0.4,1.6-0.7,3.2-0.8,4.9c-0.1,0.8-0.2,1.6-0.2,2.4c0,0.4-0.1,0.9,0,1.2l0,0.5c0,0,0,0,0,0.1c0,0.2,0.2,0.3,0.3,0.3
						c0.1,0,0,0,0.2,0c0.4,0,0.7,0.1,1.1,0.1c0.7,0.1,1.5,0,2.2,0c3-0.1,6.1-0.8,9.2-1.9c3.1-1.1,6.3-2.5,9.5-4.1
						c6.5-3.1,12.8-6.4,19.1-10c6.3-3.5,12.5-7,18.1-11c5.6-4.1,10.7-8.8,15.4-14c4.8-5.1,9.3-10.7,13.5-16.5
						c2.1-2.9,4.2-5.8,6.3-8.8c2.1-2.9,4.2-6,6.5-9c2.3-3,4.9-5.9,8-8.5c3-2.6,6.6-4.8,10.5-6.1c3.9-1.3,8.2-1.8,12.4-0.9
						c2.1,0.4,4.2,1.4,5.9,2.5c1.7,1.1,3.4,2.3,4.8,4c0.7,0.8,1.3,1.8,1.8,2.8c0.5,1,0.8,2.1,1,3.2c0.4,2.1,0.3,4.1,0.2,6
						c-0.1,1.8-0.3,3.6-0.2,5.2c0.1,1.6,0.4,3.3,0.9,5c0.5,1.7,1,3.5,1.4,5.4c0.4,1.9,0.5,3.7,0.6,5.6l0.5,10.9l-1.9-10.8
						c-0.3-1.8-0.7-3.5-1.3-5.2c-0.5-1.7-1.3-3.3-1.9-5c-0.7-1.7-1.3-3.6-1.6-5.6c-0.3-2-0.3-3.9-0.4-5.7c0-1.8-0.2-3.5-0.6-4.9
						c-0.2-0.7-0.5-1.4-0.8-2c-0.3-0.6-0.8-1.2-1.3-1.7c-1-1-2.4-1.9-3.8-2.6c-1.5-0.8-2.8-1.2-4.2-1.5c-2.9-0.4-6.2,0.2-9,1.4
						c-5.9,2.4-10.5,7.4-14.5,13.1c-2,2.9-3.9,5.9-5.9,9c-2,3.1-4,6.1-6.1,9.2c-4.2,6.1-8.7,12-13.6,17.7
						c-5,5.6-10.5,10.9-16.6,15.5c-3.1,2.3-6.2,4.4-9.4,6.4c-3.2,2-6.4,3.8-9.6,5.6c-6.5,3.6-13.1,6.9-19.8,10
						c-3.3,1.6-6.8,3.1-10.6,4.4c-3.7,1.3-7.8,2.2-12.1,2.3c-1.1,0-2.2,0-3.2-0.2c-0.5,0-1.1-0.1-1.6-0.2c-0.7-0.1-1.7-0.3-2.4-0.5
						c-1.6-0.5-3.1-1.5-4.1-2.9c-1-1.4-1.6-3-1.7-4.8c0-0.4-0.1-0.9-0.1-1.3c0-0.3,0-0.6,0-0.9c0-0.6,0.1-1,0.1-1.6
						c0.1-1,0.2-2,0.3-3c0.3-2,0.7-3.9,1.2-5.9c1-3.9,2.5-7.6,4.4-11.1c1.9-3.5,4.3-6.7,6.9-9.6c5.2-5.8,11.1-10.3,16.6-14.9
						c2.8-2.3,5.4-4.6,7.8-7.1c2.4-2.5,4.6-5.2,6.5-8c0.9-1.4,1.7-2.9,2.4-4.5c0.7-1.6,1.2-3.2,1.6-4.8c0.8-3.3,0.9-6.8,0.4-10.2
						C1189.5,551.7,1186.3,545,1182.1,539.1z"/>
				</g>
			</g>
		</g>
	</g>
	<g>
		<g>
			<g>
				<g>
					<path d="M897.7,758.1c-9.6,10.9-22.6,18.9-36.6,23.7c-14,4.9-29.1,6.6-43.9,6c-14.9-0.5-29.5-3.5-43.7-7.4
						c-14.1-4.1-27.9-9.4-41.3-15.3c-13.3-6.1-26.2-13-38.9-20.2c-6.3-3.7-12.5-7.4-18.7-10.9c-6.2-3.5-12.4-6.7-18.9-9.6
						c-13-5.7-26.7-10-40.6-13.7c-13.9-3.7-28-6.8-42.2-10.2c14.4,1.3,28.9,2.8,43.2,5.3c14.3,2.5,28.6,6.1,42.5,11.3
						c6.9,2.5,13.7,5.7,20.2,9.1c6.5,3.4,12.8,7,19.1,10.4c12.6,6.9,25.3,13.5,38.4,19.3c13,6,26.2,11.2,39.8,15.3
						c13.5,4.3,27.4,7.3,41.4,8.7c14,1.3,28.2,0.6,42-2.8C873.4,773.6,886.6,767.4,897.7,758.1z"/>
				</g>
			</g>
		</g>
	</g>
	<g>
		<g>
			<g>
				<g>
					<path d="M510.1,939c41.5-4.4,82.5-11.5,122.2-23.2c19.8-6,39.3-12.7,58.2-21.1c19-8.1,37.6-17.4,56.9-25.8
						c9.7-4.1,19.5-8,29.6-11.3c10-3.3,20.4-6.1,30.9-8c10.5-1.8,21.2-2.7,32-2.5c10.7,0.2,21.5,1.6,31.9,4.6
						c10.4,2.9,20.4,7.4,29.3,13.3c8.9,5.8,17,12.4,25.6,17.9c2.1,1.4,4.4,2.7,6.6,3.9c2.2,1.2,4.5,2.2,6.8,2.9
						c2.3,0.7,4.7,0.9,6.9,0.5c2.3-0.4,4.4-1.5,6.3-2.9c1.9-1.5,3.5-3.4,4.8-5.6c1.3-2.1,2.2-4.5,2.8-7c1.3-5,1.5-10.2,1.7-15.4
						c0.3,5.2,0.6,10.5-0.3,15.7c-0.8,5.2-3.1,10.5-7.2,14.3c-2.1,1.9-4.6,3.4-7.4,4.1c-2.8,0.7-5.8,0.6-8.6,0
						c-2.8-0.6-5.3-1.6-7.8-2.7c-2.4-1.1-4.8-2.3-7.1-3.6c-9.3-5.2-17.8-11.4-26.6-16.6c-8.7-5.2-18.1-8.9-27.9-11.3
						c-19.6-4.7-40.3-4.1-60.2-0.3c-10,1.8-19.8,4.6-29.5,7.9c-9.7,3.3-19.2,7.2-28.7,11.3c-19,8.1-37.8,17.3-57.2,25.4
						c-19.5,8-39.5,14.7-59.9,19.9C593.7,933.8,551.8,938.8,510.1,939z"/>
				</g>
			</g>
		</g>
	</g>
	<g>
		<g>
			<g>
				<g>
					<path d="M900.3,757.5c-3.1-2.8-6.3-5.4-9.6-7.9c-3.3-2.4-6.7-4.6-10.2-6.9c-3.5-2.3-7-4.6-10.3-7.5c-3.4-2.8-6.5-6.1-9-10.1
						c-2.6-4-4.1-8.8-4.4-13.5c-0.4-4.8,0.2-9.5,1.4-13.9c1.3-4.4,3.2-8.5,5.3-12.4c2.1-3.9,4.5-7.4,6.9-10.9
						c5-6.9,10.6-13.7,17.4-19.4c3.5-2.8,7.2-5.3,11-7.3c3.8-2.1,7.6-3.9,11.5-5.6c7.6-3.4,15.2-6.7,22.9-9.9
						c3.9-1.6,7.7-3.1,11.6-4.6c3.9-1.5,8-2.7,12.1-3.4c-3.9,1.6-7.4,3.7-10.9,5.9c-3.5,2.2-7.1,4.4-10.6,6.5
						c-7.1,4.3-14.3,8.4-21.6,12.5c-7.2,4.1-14.2,8-19.8,13.2c-5.8,5.1-10.8,11.3-15.3,17.9c-4.7,6.6-9.1,13.3-11.3,20.3
						c-1.2,3.5-1.8,7.1-1.7,10.6c0.1,3.5,0.9,6.9,2.5,10.2c1.6,3.2,3.9,6.3,6.7,9.1c2.7,2.9,5.8,5.6,8.8,8.4
						c3.1,2.8,6.2,5.6,9.1,8.8C895.5,750.7,898,754,900.3,757.5z"/>
				</g>
			</g>
		</g>
	</g>
	<g>
		<g>
			<g>
				<g>
					<path d="M1144.2,253.6c14.3,6.4,28.6,13,43.3,17.7c7.4,2.3,14.8,4.2,22.3,5.3c1.9,0.3,4,0.6,6.1,1.2c2.1,0.6,4.3,1.4,6.3,2.7
						c2,1.2,3.6,2.7,5.1,4c1.5,1.3,3,2.6,4.4,4c5.9,5.3,11.5,10.9,16.9,16.7c2.7,2.9,5.4,5.8,8,9c2.6,3.2,5.1,6.6,7.1,10.5
						c2,3.9,3.4,8.2,4.2,12.5c0.7,4.3,0.9,8.6,0.7,12.8c-0.2,4.2-0.7,8.3-1.4,12.3c-0.3,2-0.8,4-1.2,5.9c-0.5,2-0.8,4-1.4,5.9
						l-1.7,5.8c-0.6,1.9-1.3,3.8-1.9,5.7l-1,2.9c-0.3,0.9-0.7,1.9-1.1,2.8l-2.3,5.6c-1.7,3.6-3.3,7.3-5.2,10.9
						c-0.9,1.8-1.8,3.6-2.8,5.3l-3,5.2c-4.2,6.8-8.6,13.5-13.5,19.8c-2.4,3.2-5,6.2-7.4,9.3l-3.9,4.5l-2,2.2l-2,2.2
						c-10.8,11.6-22.6,22.3-35.1,31.9c-12.5,9.6-26.1,18-40.6,24c13.6-7.8,25.9-17.4,37.5-27.8c11.5-10.4,22.4-21.5,32.3-33.3
						l1.9-2.2l1.8-2.3l3.6-4.5c2.3-3.1,4.7-6.1,6.9-9.3c4.5-6.2,8.6-12.7,12.4-19.4l2.8-5c0.9-1.7,1.7-3.4,2.6-5.1
						c1.8-3.4,3.2-6.9,4.8-10.4l2.1-5.3c0.3-0.9,0.7-1.8,1-2.7l0.9-2.7c0.6-1.8,1.2-3.6,1.8-5.4l1.5-5.5c0.6-1.8,0.9-3.7,1.4-5.5
						c0.4-1.8,0.9-3.7,1.2-5.5c0.7-3.7,1.2-7.4,1.4-11c0.2-3.6,0.1-7.2-0.5-10.6c-0.6-3.4-1.6-6.7-3.1-9.8c-3-6.2-8.1-12-13.2-17.8
						c-5.1-5.8-10.4-11.4-15.8-16.9l-4.1-4.1c-1.4-1.3-2.7-2.5-4-3.4c-2.5-1.8-5.8-2.6-9.7-3.5c-7.8-1.7-15.5-4.2-22.8-7.2
						C1171.1,269.9,1157.5,261.8,1144.2,253.6z"/>
				</g>
			</g>
		</g>
	</g>
	<g>
		<g>
			<g>
				<g>
					<path d="M498,552.9c17.9-28,37.1-55.2,57.5-81.6c10.2-13.2,20.7-26.1,31.5-38.8c10.8-12.7,21.7-25.4,34.3-36.8
						c6.3-5.7,12.9-11.1,20.1-15.8c7.2-4.7,14.7-8.7,22.5-12.2c15.5-7,31.8-11.7,48-15.9c16.2-4.1,32.5-7.6,48.3-11.9
						c15.8-4.3,31.4-9.5,45.7-16.8c14.4-7.1,27.2-17.1,39.5-28c12.3-10.9,24.1-22.7,37.2-33.4c6.6-5.3,13.4-10.4,20.8-14.9
						c7.3-4.4,15-8.2,22.8-11.5c15.6-6.6,31.8-11.2,47.5-16.2c7.9-2.5,15.7-5.1,23.4-8c7.7-2.9,15-6.3,22.5-10
						c7.5-3.6,15.2-7.3,23.6-9.5c4.2-1.1,8.6-1.8,13-1.9c2.2,0,4.4,0.1,6.6,0.4c2.2,0.3,4.3,0.8,6.5,1.4c8.4,2.5,15.8,7.2,22.5,12.1
						c6.7,5,13.2,10.3,19.5,15.8c12.5,11.1,24.1,23.2,34.5,36.1c-11.2-12.3-23.4-23.6-36.3-34c-6.5-5.2-13.1-10.1-19.9-14.7
						c-6.8-4.6-13.9-8.6-21.6-10.6c-7.6-2-15.6-1.4-23.1,0.9c-7.6,2.3-14.9,6-22.2,9.8c-7.3,3.9-15,7.7-22.8,10.9
						c-7.8,3.2-15.7,6-23.6,8.7c-15.8,5.4-31.6,10.3-46.5,16.8c-7.5,3.3-14.7,6.9-21.5,11.2c-6.8,4.2-13.3,9.2-19.5,14.4
						c-12.6,10.4-24.2,22.2-36.7,33.4c-6.3,5.6-12.7,11.1-19.6,16.1c-1.7,1.2-3.4,2.5-5.2,3.7c-1.8,1.2-3.6,2.4-5.4,3.5
						c-1.9,1.1-3.7,2.2-5.6,3.3c-1.9,1-3.7,2.1-5.7,3c-15.3,7.7-31.5,13-47.8,17.3c-16.2,4.3-32.5,7.7-48.5,11.7
						c-16,3.9-31.8,8.3-46.7,14.8c-7.4,3.2-14.6,6.9-21.5,11.2c-6.8,4.3-13.3,9.2-19.4,14.5c-12.3,10.7-23.4,22.9-34.5,35.3
						c-11.1,12.3-21.9,24.9-32.6,37.6C538.1,499.9,517.7,526.1,498,552.9z"/>
				</g>
			</g>
		</g>
	</g>
	<g>
		<g>
			<g>
				<g>
					<path d="M1293.9,568.3c2.7,6.7,4.6,13.7,5.7,20.9c0.3,1.8,0.5,3.6,0.7,5.4c0.2,1.8,0.3,3.7,0.2,5.7c-0.1,1.9-0.5,4.1-1.4,6
						c-0.9,1.9-2,3.5-3.2,5c-9,11.6-19.9,21.7-32.2,29.8c-6.1,4.1-12.7,7.6-19.4,10.6c-6.7,3-13.3,5.6-19.3,8.8
						c-6.1,3.1-11.7,6.8-16,11.5c-2.2,2.3-4,4.9-5.3,7.6c-1.3,2.7-2.2,5.7-2.6,8.7c-0.4,3-0.4,6.2,0.2,8.6c0.3,1.2,0.8,2.2,1.5,3.2
						c0.7,1,1.7,2,2.8,2.8c1.1,0.9,2.4,1.7,3.8,2.4c1.4,0.7,2.9,1.3,4.4,1.9c1.5,0.7,3.1,1.1,4.7,1.6c0.8,0.2,1.6,0.5,2.4,0.7
						l2.5,0.5c6.6,1.4,13.5,2,20.6,2.2c7.1,0.3,14.3,0.3,21.6,0.9c7.3,0.5,14.8,1.5,22,3.8l2.7,0.9c0.9,0.3,1.8,0.6,2.6,1
						c1.7,0.8,3.4,1.5,5.1,2.5c3.4,1.9,6.5,4.3,9.1,7.2c1.3,1.5,2.4,3,3.4,4.7c0.5,0.8,0.9,1.7,1.3,2.6c0.2,0.4,0.4,0.9,0.6,1.3
						c0.1,0.2,0.2,0.4,0.3,0.7c0.1,0.2,0.2,0.6,0.3,0.8c0.4,1.2,0.3,2.5-0.1,3.6c-0.2,0.6-0.4,1-0.6,1.4l-0.5,1.2
						c-0.7,1.6-1.3,3.3-2.3,5c-1,1.8-2.3,3.2-3.6,4.5c-1.3,1.3-2.7,2.5-4,3.7c-2.8,2.4-5.9,4.2-9,6c2.8-2.2,5.7-4.4,8-7.1
						c1.1-1.4,2.3-2.7,3.4-4.1c1.1-1.4,2.1-2.8,2.7-4.3c0.6-1.5,1.1-3.3,1.6-5l0.4-1.3c0.1-0.4,0.3-0.9,0.3-1.1
						c0.1-0.6,0.1-1.1-0.2-1.6l-0.2-0.4c-0.1-0.2-0.2-0.4-0.3-0.6c-0.2-0.4-0.4-0.7-0.6-1.1c-0.4-0.7-0.9-1.4-1.3-2.1
						c-1-1.3-2-2.6-3.2-3.7c-2.4-2.3-5.2-4.1-8.2-5.5c-1.5-0.7-3.2-1.2-4.7-1.8c-0.8-0.3-1.6-0.5-2.4-0.7l-2.5-0.7
						c-6.6-1.6-13.5-2.1-20.5-2.3c-7-0.1-14.2,0.1-21.4,0.1c-7.3-0.1-14.7-0.4-22.2-1.7l-2.8-0.6c-0.9-0.2-1.9-0.5-2.8-0.7
						c-1.9-0.5-3.7-1-5.5-1.8c-1.8-0.7-3.6-1.3-5.4-2.3c-1.8-0.9-3.6-2-5.3-3.3c-1.7-1.3-3.4-2.9-4.8-4.8c-1.4-1.9-2.5-4.2-3.1-6.4
						c-0.6-2.2-0.9-4.4-1-6.5c-0.1-2.1,0-4.1,0.3-6.2c0.6-4.1,1.8-8.1,3.7-11.8c1.9-3.7,4.3-7,7.1-9.9c5.5-5.8,12.2-10,18.9-13.3
						c6.8-3.2,13.6-5.7,20.1-8.4c6.5-2.7,12.7-5.7,18.7-9.2c12-7,23-15.9,32.6-26.3c1.2-1.3,2.2-2.5,3-3.8c0.8-1.3,1.2-2.7,1.5-4.3
						c0.2-1.6,0.3-3.3,0.3-5.1c0-1.8,0-3.5-0.1-5.3C1296.6,582.4,1295.6,575.3,1293.9,568.3z"/>
				</g>
			</g>
		</g>
	</g>
	<g>
		<g>
			<g>
				<g>
					<path d="M1311.1,744.7c-1.6,4.2-4,8.2-7.1,11.6c-3.1,3.4-6.7,6.4-10.7,8.7c-8,4.7-17,7.5-26.1,8.8c-4.6,0.7-9.2,1-13.8,1
						c-4.6,0-9.2-0.3-13.8-0.8c-9.2-1-18.3-3-27-5.9c-8.8-2.8-17.1-6.3-25.5-9.4c-8.3-3.2-16.7-5.8-25.2-7.9
						c-8.5-2.2-17.2-3.9-25.9-5c-8.7-1.1-17.5-1.7-26.3-1.8c-2.2,0-4.4-0.1-6.6,0l-6.6,0.2l-6.6,0.4c-2.2,0.1-4.4,0.4-6.6,0.6
						c-8.7,0.9-17.4,2.4-26,4.3c-17.2,3.8-34.1,9.9-51.4,15.1c-8.6,2.6-17.4,5.1-26.3,7c-9,1.9-18,3.2-27.2,3.6l-3.4,0.1l-3.4,0
						c-2.3,0-4.6-0.2-6.9-0.2c-4.6-0.4-9.1-0.8-13.6-1.8c-9-1.7-17.6-5-25.4-9.5l3.1,1.3l1.6,0.6l1.6,0.5l3.2,1.1l3.2,0.9l1.6,0.4
						l1.6,0.3l3.3,0.7l3.3,0.5c0.5,0.1,1.1,0.2,1.6,0.2l1.7,0.2c4.4,0.5,8.8,0.6,13.3,0.6c2.2-0.1,4.4-0.1,6.6-0.3l3.3-0.2l3.3-0.4
						c8.8-0.9,17.5-2.8,26-5.1c8.6-2.3,17-5.1,25.5-8.1c16.8-6,33.8-12.4,51.6-16.9c8.9-2.1,18-3.7,27.1-4.8
						c2.3-0.2,4.6-0.5,6.9-0.7l6.9-0.5l6.9-0.2c2.3-0.1,4.6,0,6.9,0c9.2,0.2,18.4,0.9,27.5,2.1c9.1,1.3,18.1,3.1,27,5.5
						c8.8,2.5,17.6,5.4,26,8.9c8.4,3.4,16.6,7.1,24.8,10.2c8.2,3.1,16.7,5.4,25.3,6.8c4.3,0.7,8.7,1.2,13.1,1.5
						c4.4,0.3,8.7,0.3,13.1,0c8.7-0.6,17.4-2.6,25.3-6.3C1299.9,758.7,1306.9,752.7,1311.1,744.7z"/>
				</g>
			</g>
		</g>
	</g>
	<g>
		<g>
			<g>
				<g>
					<path d="M962.4,860.1c-0.7-3.6-1.4-7.2-2.5-10.6c-1-3.4-2.5-6.5-4.5-9c-2-2.5-4.6-4.1-7.6-5.3c-1.5-0.6-3.1-1.1-4.8-1.5
						c-0.8-0.2-1.6-0.5-2.5-0.6l-2.5-0.5c-6.8-1.1-13.8-1.5-21-1.7c-7.2-0.4-14.7-0.6-22.3-1.9c-3.8-0.7-7.6-1.8-11.3-3
						c-1.9-0.7-4.2-1.7-6.3-3.5c-1-0.9-2.1-2.1-2.8-3.4c-0.7-1.3-1.2-2.7-1.4-4c-0.4-2.8,0-5.6,1.3-8.2c0.7-1.3,1.6-2.5,2.6-3.4
						c1-0.9,2-1.6,2.9-2.1c0.9-0.6,1.8-1,2.6-1.4l2.4-1.2c1.6-0.8,3.3-1.6,4.9-2.4l4.9-2.4c1.6-0.8,3.2-1.5,4.6-2.3
						c1.4-0.8,2.8-1.7,3.9-2.7c1.2-1,2.2-2.2,3.1-3.6c1.8-2.7,3-5.9,3.4-9.2c0.2-1.7,0.1-3.4-0.3-5.1c-0.4-1.7-1.2-3.3-2.5-4.6
						c1.6,0.8,3,2.3,3.9,4c0.9,1.7,1.5,3.6,1.7,5.6c0.5,3.9-0.2,8-1.9,11.7c-0.8,1.8-1.9,3.6-3.3,5.2c-1.3,1.6-2.9,3-4.5,4.2
						c-1.6,1.2-3.2,2.2-4.8,3.2l-4.6,2.9c-1.5,1-3.1,1.9-4.6,2.9l-2.3,1.4c-0.8,0.5-1.5,0.9-2.1,1.3c-0.6,0.4-1.1,0.8-1.4,1.1
						c-0.3,0.4-0.5,0.6-0.6,1c-0.3,0.7-0.4,1.6-0.1,2.4c0.1,0.4,0.2,0.8,0.4,1.1c0.2,0.3,0.3,0.5,0.7,0.8c0.6,0.5,1.8,1.1,3.3,1.6
						c3.1,1,6.4,1.8,9.8,2.3c6.7,1.3,13.8,1.7,21.1,2.3c7.2,0.7,14.8,1.4,22.2,3.6l2.8,0.8c0.9,0.3,1.8,0.7,2.7,1
						c1.8,0.7,3.6,1.5,5.4,2.4c1.8,1,3.5,2.1,5.1,3.6c1.6,1.4,2.9,3.1,3.9,4.9c2,3.6,2.8,7.5,3.1,11.2
						C962.9,852.8,962.7,856.5,962.4,860.1z"/>
				</g>
			</g>
		</g>
	</g>
	<g>
		<g>
			<g>
				<g>
					<path d="M693.3,740.8c-11.4,2.6-23,4.2-34.7,4.6c-5.9,0.3-11.8-0.1-17.7-0.5c-5.9-0.7-11.8-1.7-17.7-3.2
						c-5.8-1.7-11.5-3.9-16.9-6.5c-5.3-2.7-10.4-5.6-15.3-8.7c-9.8-6-19.2-12.1-30.2-16.2c5.9,0,11.8,1.1,17.5,2.8
						c5.7,1.7,11.1,4.1,16.4,6.4c5.3,2.3,10.4,4.9,15.6,7c5.1,2.2,10.3,4,15.6,5.4c5.3,1.6,10.7,2.7,16.3,3.4
						c5.5,1,11.1,1.5,16.8,2.1C670.1,738.6,681.6,739.2,693.3,740.8z"/>
				</g>
			</g>
		</g>
	</g>
	<g>
		<g>
			<g>
				<g>
					<path d="M517.7,938.5c-7.3-1.6-14.3-4.3-21.1-7.4c-6.8-3.2-13.3-6.8-19.7-10.5c-6.4-3.8-12.9-8.1-18.2-14.1
						c-2.6-3.1-4.8-6.6-6.2-10.7c-0.7-2-1.2-4.1-1.4-6.2c-0.2-2.1-0.2-4.2,0-6.3c0.4-4.2,1.4-8.1,2.8-11.8c1.4-3.7,3-7.2,4.9-10.7
						c3.8-6.8,8.6-13.1,14.1-18.7c2.8-2.7,5.8-5.3,9-7.6c3.2-2.3,6.4-4.4,9.8-6.3c6.7-3.9,13.5-7.1,20.2-10.2
						c13.5-6.1,27.2-12.1,41-17.6c13.9-5.3,28.1-10.3,42.6-14.1c14.5-3.8,29.2-6.7,44.1-8c14.9-1.4,29.9-1.2,44.6,0.9
						c-29.7-0.1-58.7,5.7-86.6,14.6c-13.9,4.5-27.7,9.6-41.2,15.4c-13.6,5.6-27,11.7-40.4,17.9c-13.4,6-26.5,12.1-36.5,21.9
						c-5.1,4.7-9.5,10.2-13.1,16.2c-3.5,6-6.6,12.5-7.6,18.9c-0.5,3.2-0.3,6.4,0.6,9.4c0.9,3.1,2.4,6,4.4,8.7
						c4.1,5.4,9.8,9.9,15.8,14.1C491.7,924.7,503.8,933.3,517.7,938.5z"/>
				</g>
			</g>
		</g>
	</g>
	<g>
		<g>
			<g>
				<g>
					<path d="M648.7,381.4c-13.4-0.7-26.6,2.2-39,6.8c-12.4,4.6-24.2,10.9-35.6,17.6c-22.8,13.5-43.8,29.9-63.2,48
						c-19.3,18.1-37.3,37.7-54.1,58.3c-17,20.4-33.2,41.6-49.4,62.9c-8.2,10.6-16.4,21.2-24.7,31.7c-4.2,5.3-8.4,10.5-12.6,15.7
						c-4.2,5.2-8.3,10.3-12.1,15.6c-3.8,5.3-7.3,10.7-10.1,16.3c-0.7,1.4-1.3,2.9-2,4.3c-0.6,1.5-1.2,2.9-1.7,4.4
						c-0.6,1.5-0.9,3-1.4,4.4c-0.2,0.7-0.3,1.5-0.5,2.3l-0.2,1.1l-0.2,1.1c-1,6.1-0.9,12.4,0.3,18.3c0.6,3,1.6,5.9,2.8,8.6
						c1.3,2.7,2.9,5.2,4.8,7.5c1,1,2,2.2,3.2,3.1c1.1,1,2.3,1.9,3.5,2.6c2.5,1.5,5.2,2.6,7.9,3c1.4,0.2,2.7,0.2,4.1,0.1
						c1.4-0.2,2.7-0.5,4.1-0.9c2.7-1,5.3-2.5,7.7-4.4c2.4-1.9,4.7-4.1,6.8-6.5c1.1-1.2,2.1-2.5,3.1-3.7c1-1.3,2.1-2.5,3.1-3.8
						l2.9-3.9l2.8-4.1c1-1.3,1.8-2.8,2.7-4.1c0.9-1.4,1.8-2.8,2.6-4.2c6.9-11.3,13.1-23.2,19.8-34.8c3.4-5.8,7-11.5,10.8-17
						c3.9-5.5,8.1-10.7,12.6-15.6c-4.1,5.3-7.9,10.7-11.4,16.4c-3.4,5.7-6.6,11.6-9.6,17.5c-6,11.9-11.5,24.1-18,35.9
						c-0.8,1.5-1.7,2.9-2.5,4.4c-0.8,1.5-1.7,2.9-2.6,4.4l-2.7,4.3l-2.9,4.2c-0.9,1.4-2,2.8-3,4.1c-1,1.4-2,2.7-3.2,4.1
						c-2.2,2.7-4.6,5.2-7.4,7.6c-2.8,2.3-5.9,4.4-9.5,5.8c-1.8,0.7-3.7,1.2-5.6,1.5c-1.9,0.2-3.9,0.3-5.9,0.1
						c-3.9-0.5-7.6-1.8-10.8-3.7c-1.6-0.9-3.2-2-4.6-3.2c-1.5-1.1-2.8-2.5-4.1-3.8c-2.5-2.8-4.6-5.9-6.3-9.2
						c-1.6-3.3-2.8-6.8-3.7-10.3c-1.6-7.1-1.9-14.4-0.8-21.5l0.2-1.3l0.3-1.3c0.2-0.9,0.3-1.8,0.5-2.6c0.5-1.7,0.9-3.5,1.5-5.2
						c0.5-1.7,1.2-3.3,1.8-5c0.7-1.6,1.4-3.3,2.1-4.8c3-6.4,6.7-12.3,10.6-17.9c4-5.6,8.2-10.9,12.4-16.1
						c4.2-5.2,8.3-10.4,12.4-15.7c8.2-10.5,16.3-21.1,24.4-31.7c16.3-21.1,32.7-42.4,50.1-62.9c17.5-20.4,35.9-40.2,56.2-58
						c20.2-17.8,42.2-33.8,66-46.5c3-1.5,6-3.1,9-4.6c3.1-1.4,6.1-2.9,9.2-4.2c6.2-2.7,12.5-5.1,18.9-7.1c6.5-2,13.1-3.5,19.8-4.2
						C635.3,380.5,642,380.5,648.7,381.4z"/>
				</g>
			</g>
		</g>
	</g>
	<g>
		<g>
			<g>
				<g>
					<path d="M471.6,848.5c-15.9-5.5-30.7-14.8-43-26.7c-3.2-2.9-6-6.1-8.9-9.4c-2.8-3.4-5.5-7.3-7.2-12.1c-0.3-1-0.6-2.1-0.8-3.2
						c-0.1-0.5-0.2-1.1-0.2-1.7c-0.1-0.6-0.1-1.2-0.1-1.8c0-2.3,0.4-4.6,1.1-6.8c0.8-2.2,1.9-4.4,3.6-6.3c1.7-1.9,4-3.5,6.5-4.3
						l3.5,9.4c-1.2,0.5-2.3,1-3.6,1.6c-4,1.6-8.4,3.2-13.2,3.8c-2.4,0.3-5,0.4-7.5,0c-2.5-0.3-5.1-1.1-7.4-2.2
						c-4.6-2.3-8.2-5.8-10.9-9.8c-2.7-4-4.5-8.4-5.5-12.7c-1.1-4.4-1.6-8.7-2-12.9c-0.3-4.2-0.5-8.5-0.4-12.7
						c0.1-4.2,0.3-8.5,0.8-12.7c0.3-2.1,0.6-4.3,1.2-6.3c0.6-2.1,1.5-4.1,2.7-5.8c-1.5,4-1.4,8.1-1.1,12.2c0.3,4.1,0.8,8.2,1.4,12.3
						c0.6,4.1,1.2,8.1,2,12.2c0.8,4,1.7,7.9,3,11.6c1.3,3.6,3,7,5.2,9.8c2.2,2.8,4.9,5.1,7.9,6.3c2.9,1.3,6.1,1.6,9.5,1.1
						c3.4-0.5,7-1.8,10.7-3.4c1.1-0.4,2.3-0.9,3.4-1.4l3.5,9.4c-0.8,0.3-1.5,0.7-2.2,1.4c-0.7,0.7-1.3,1.7-1.7,2.8
						c-0.4,1.1-0.7,2.4-0.7,3.6c0,0.3,0,0.6,0,0.9c0,0.3,0,0.6,0.1,0.9c0.1,0.7,0.3,1.3,0.4,2c0.8,3.2,2.8,6.4,5.1,9.5
						c2.4,3.2,5,6.4,7.6,9.4C445,828.5,457.6,839.2,471.6,848.5z"/>
				</g>
			</g>
		</g>
	</g>
	<g>
		<g>
			<g>
				<g>
					<path d="M1240.7,365.9c-2.3-1.7-3.6-3.7-4.2-5.9c-0.4-1.1-0.4-2.3-0.4-3.6c0.1-1.2,0.4-2.5,0.8-3.7c0.6-1.2,1.3-2.4,2.1-3.4
						c1-0.9,1.9-1.9,3.2-2.4c1.2-0.6,2.6-1,4-0.9c1.4,0,2.8,0.5,3.8,1.5c-0.9,1.1-1.4,2.1-1.7,3c-0.4,0.9-0.6,1.6-0.8,2.3
						c-0.1,0.7-0.4,1.3-0.6,1.9c-0.3,0.5-0.4,1.1-0.6,1.7c-0.3,0.6-0.6,1.2-0.8,1.9c-0.4,0.6-0.6,1.4-1.1,2.2
						C1243.6,361.9,1242.6,363.7,1240.7,365.9z"/>
				</g>
			</g>
		</g>
	</g>
	<g>
		<g>
			<g>
				<g>
					<path d="M993.6,219.8c-1-0.7-1.6-2-2.1-3.1c-0.2-0.6-0.5-1.1-0.8-1.6c-0.3-0.5-0.7-0.9-1.1-1.4c-1.5-1.9-3.3-3.5-5.2-4.9
						c-1-0.7-2-1.4-3-2.1l-0.8-0.5l-0.4-0.2l-0.3-0.2c-0.3-0.2-0.6-0.5-1.1-0.3l-0.6,0.1l-0.9,0c-0.6,0-1.2,0-1.8,0.1l-3.6,0.4
						c-9.5,1.2-18.7,4.1-27.5,7.9c-4.4,2-8.7,4.1-13,6.4c-2.1,1.1-4.2,2.3-6.3,3.6l-3.1,1.8c-1,0.7-2.1,1.4-3.3,2
						c-4.5,2.6-9.3,4.9-14.4,6.6c-2.6,0.8-5.3,1.5-8.1,1.9c-2.8,0.4-5.9,0.4-9-0.2c-3.1-0.6-6.2-1.9-8.8-4l-1-0.8
						c-0.3-0.3-0.6-0.6-0.9-0.8c-0.6-0.5-1.1-1.2-1.6-1.8c-0.5-0.6-0.9-1.3-1.4-1.9l-0.6-1l-0.4-0.7c-0.1-0.3-0.3-0.5-0.4-0.8
						c-0.4-1.3-0.5-1.9-0.7-2.8c-0.1-0.8-0.2-1.7-0.3-2.5c-0.1-1.7,0.1-3.4,0.5-5c0.1-0.4,0.2-0.8,0.3-1.2c0.1-0.4,0.3-0.9,0.4-1.1
						l0.8-1.9c0.5-1.3,1.1-2.5,1.6-3.7c2.4-4.8,5.4-9.2,8.6-13.2c3.2-4,6.7-7.8,10.2-11.3l10.5-10.5l1.3-1.3l0.6-0.7
						c0.1-0.1,0.2-0.2,0.2-0.2c0,0,0.1-0.1,0.1-0.1c0-0.1,0-0.1,0.1-0.2l0.3-0.4l0.6-0.9c0.4-0.6,0.8-1.1,1.2-1.6
						c0.8-1.1,1.7-2.1,2.7-3.1c0.7-0.7,0.6-0.5,1-1.1c0.4-0.5,0.7-1,1.1-1.5c2.8-3.9,5.3-8,6.7-12.5c0.7-2.2,1-4.6,0.8-6.9
						c-0.2-2.3-1.2-4.7-2.6-6.7c1.8,1.7,3.3,3.9,4,6.4c0.8,2.5,0.8,5.2,0.5,7.8c-0.7,5.2-2.9,10-5.3,14.5c-0.3,0.6-0.6,1.1-0.9,1.7
						c-0.1,0.2-0.4,0.7-0.7,1l-0.4,0.5l-0.3,0.3c-0.7,0.9-1.3,1.8-1.9,2.8c-0.3,0.5-0.6,1-0.8,1.5l-0.4,0.7l-0.5,1
						c-0.1,0.2-0.3,0.4-0.4,0.6l-0.4,0.5l-0.6,0.7l-1.2,1.5c-3.2,3.9-6.4,7.7-9.6,11.4c-6.2,7.6-12.3,15-16,23.4
						c-0.5,1-1,2.1-1.3,3.1l-0.6,1.6c-0.1,0.3-0.1,0.4-0.2,0.6c-0.1,0.2-0.1,0.4-0.1,0.6c-0.2,0.8-0.2,1.6-0.2,2.4
						c0,0.4,0.1,0.8,0.2,1.2c0.1,0.3,0.2,1,0.2,0.8c0,0,0,0,0.1,0.1l0.4,0.6c0.3,0.4,0.5,0.7,0.8,1.1c0.3,0.3,0.6,0.7,0.9,0.9
						l0.5,0.4l0.5,0.4c1.3,1,2.9,1.6,4.7,2c3.6,0.7,7.9,0.1,12.2-1.2c4.3-1.3,8.5-3.3,12.7-5.5c1.1-0.5,2.1-1.1,3.1-1.7l3.4-1.8
						c2.3-1.2,4.5-2.3,6.8-3.4c4.6-2.2,9.3-4.2,14.1-5.8c9.6-3.3,19.8-5.5,30.1-5.5c1.3,0,2.6,0.1,3.8,0.1c0.6,0,1.3,0.1,1.9,0.1
						l1,0.1l1.3,0.1l0.6,0c0.1,0,0.2,0,0.3,0.1l0.3,0.2l1,0.8l0.5,0.4l0.4,0.3l0.7,0.6c0.9,0.9,1.9,1.7,2.7,2.7
						c1.8,1.9,3.4,3.9,4.6,6.2c0.2,0.3,0.3,0.6,0.4,0.8c0.1,0.3,0.3,0.6,0.4,0.9c0.2,0.6,0.4,1.3,0.5,1.9
						C992.5,217.7,992.8,218.9,993.6,219.8z"/>
				</g>
			</g>
		</g>
	</g>
	<g>
		<g>
			<g>
				<g>
					<path d="M921.8,149.7c0.4-3.1,0.3-6.2-0.6-9c-0.9-2.8-2.7-5.3-5.1-6.7c-0.6-0.4-1.2-0.6-1.9-0.9c-0.3-0.1-0.7-0.3-1-0.3
						l-0.9-0.2c-1.1-0.2-2.3,0.2-3.7,0.7l-4.4,1.5c-0.8,0.2-1.4,0.5-2.3,0.7c-0.4,0.1-0.8,0.2-1,0.3c-0.2,0.1-0.4,0.2-0.6,0.3
						l-2.7,1.7c-0.9,0.5-1.7,1.1-2.5,1.7c-1.7,1.2-3.3,2.4-4.9,3.7c-3.1,2.6-6.1,5.5-8.8,8.5c-5.5,6.1-10.5,12.8-14.9,19.7
						c-3.8,6-7.1,12.3-10.2,18.9c-3.2,6.5-6.3,13.2-9.9,19.8c-7.3,13-15.8,25.4-25.2,37c-9.6,11.4-20.2,22-31.6,31.7
						c-11.6,9.5-23.9,17.8-36.1,25.8c-12.1,8.1-24.1,16.2-34.9,25.9c-2.7,2.4-5.3,4.9-7.9,7.5c-2.5,2.6-5,5.2-7.3,8
						c-2.4,2.8-4.5,5.7-6.6,8.7c-2,3-3.9,6.2-5.6,9.4c1.2-3.5,2.6-6.9,4.3-10.2c1.7-3.3,3.5-6.5,5.6-9.6c2.1-3.1,4.3-6.1,6.6-9
						c2.3-2.9,4.8-5.7,7.3-8.4c10.2-10.9,22-20,33.8-28.8c11.7-8.8,23.7-17.1,34.4-26.6c10.9-9.4,20.9-19.7,30-30.8
						c9.2-11,17.5-22.8,24.6-35.2c3.7-6.1,6.9-12.6,10.3-19.1c3.4-6.5,7.2-13.1,11.6-19.2c5-7.1,10.6-13.7,16.9-19.8
						c3.1-3,6.5-5.9,10.1-8.4c1.8-1.3,3.6-2.5,5.5-3.6c1-0.6,1.9-1.1,2.9-1.6l2.8-1.4c0.5-0.3,1-0.5,1.5-0.6
						c0.5-0.1,0.9-0.2,1.3-0.3c0.6-0.1,1.5-0.3,2.2-0.5l4.5-1c1.5-0.3,3.3-0.8,5.4-0.3c0.4,0.2,0.9,0.3,1.3,0.5
						c0.4,0.2,0.7,0.3,1.1,0.5c0.7,0.4,1.5,0.8,2.2,1.3c2.8,2.1,4.4,5.2,5,8.4C923.1,143.6,922.7,146.8,921.8,149.7z"/>
				</g>
			</g>
		</g>
	</g>
	<g>
		<g>
			<g>
				<g>
					<path d="M1249.4,391.3c-9.3,19.9-22,38.4-37.1,54.6c-7.5,8.2-15.7,15.7-24.3,22.7c-8.7,6.9-17.9,13.2-27.4,19
						c-4.8,2.8-9.6,5.4-14.3,8.1c-2.4,1.3-4.7,2.7-7,4.1c-2.3,1.4-4.6,2.8-6.9,4.3c-9.2,5.7-18.2,11.9-27.4,17.9
						c-9.2,6-18.4,12-28.1,17.4c-9.6,5.4-19.7,10.1-30.1,13.6c19.6-9.9,37.1-22.8,54.8-35.8c8.8-6.5,17.7-13,26.9-19.1
						c2.3-1.5,4.6-3,7-4.5c2.3-1.5,4.7-2.9,7.1-4.3c4.8-2.8,9.5-5.5,14.2-8.3c9.3-5.5,18.3-11.5,26.8-18.1
						c8.6-6.5,16.7-13.7,24.5-21.2C1223.6,426.7,1237.3,409.7,1249.4,391.3z"/>
				</g>
			</g>
		</g>
	</g>
	<g>
		<g>
			<g>
				<g>
					<path d="M1002.6,513.8c-0.6,5.4-0.2,10.8,1.3,15.9c0.8,2.5,1.7,5,3,7.2c1.3,2.2,2.9,3.9,5,5.1c4.2,2.5,9.4,3.3,14.4,2.9
						c5-0.3,10-1.9,14.2-4.6c2.1-1.3,4-2.9,5.7-4.7c1.7-1.8,3.1-3.9,4.2-6.2c1.1-2.2,1.9-4.6,2.4-7.1c0.4-2.5,0.5-4.9,0.2-7.5
						c-0.3-2.5-1-5.1-1.8-7.5c-0.8-2.5-1.9-4.7-3.6-6.6c-1.7-1.9-3.9-3.6-5.9-5.4c-2.1-1.8-4.1-3.5-6.3-5.2c2.4,1.3,4.8,2.6,7.1,4.1
						c2.3,1.5,4.6,2.9,6.8,4.8c1.1,0.9,2.1,2.1,2.9,3.3c0.8,1.2,1.5,2.5,2.1,3.8c1.1,2.6,2,5.3,2.6,8.1c0.6,2.8,0.7,5.9,0.3,8.8
						c-0.4,2.9-1.2,5.8-2.4,8.4c-1.3,2.7-2.9,5.1-4.8,7.4c-2,2.2-4.2,4.2-6.7,5.7c-5,3.1-10.8,4.8-16.6,5.1
						c-2.9,0.1-5.8-0.1-8.7-0.8c-2.9-0.7-5.7-1.8-8.1-3.6c-2.5-1.7-4.5-4.2-5.7-6.9c-1.2-2.7-2-5.4-2.5-8.1
						C1000.6,524.7,1000.9,519,1002.6,513.8z"/>
				</g>
			</g>
		</g>
	</g>
	<path class="st8" d="M1127.1,423c-4,2.9-7.1,7.8-9.8,11.6c-2.6,3.6-5.3,7.3-8.5,10.4c-3.5,3.4-7.7,5.8-11.7,8.5
		c-2.6,1.8-5.6,4.4-8.6,5.7c0,0.1,0,0.3,0,0.4c0.9,0,1.8-0.1,2.7-0.2c3.5-0.5,6.3-1.9,9.4-3.2c0.1,0,0.1-0.1,0.2-0.1
		c3.7-2,7.2-4.2,10.4-7.1c5.9-5.4,10.4-12.6,15.1-19.3c0.1-0.3,0.3-0.7,0.5-1.1C1127.2,426.7,1127.5,424.8,1127.1,423z"/>
	<g>
		<g>
			<g>
				<g>
					<path d="M1030.9,511c1.4,1.1,2.7,2.2,3.8,3.6c1.1,1.4,2.1,3,2.5,4.9c0.4,1.8,0.3,3.9-0.7,5.8c-0.5,0.9-1.2,1.7-2,2.3
						c-0.8,0.6-1.8,1-2.7,1.3c-1.9,0.5-3.8,0.5-5.6,0.2c-1.8-0.4-3.6-1-5.1-2c-3.1-1.9-5.5-4.9-6.5-8.2c2,2.8,4.6,5.1,7.5,6.5
						c1.5,0.7,3,1.2,4.6,1.4c1.5,0.2,3.2,0.2,4.6-0.3c1.4-0.4,2.7-1.2,3.3-2.4c0.7-1.2,0.9-2.7,0.8-4.3c-0.1-1.5-0.8-3.1-1.5-4.5
						C1032.8,513.9,1031.8,512.4,1030.9,511z"/>
				</g>
			</g>
		</g>
	</g>
	<g>
		<g>
			<g>
				<g>
					<path d="M1089.9,206c-1.9-0.3-3.7-0.4-5.6-0.5l-5.6-0.1c-3.7,0-7.4,0-11.1,0.1c-3.7,0.2-7.4,0.3-11,0.7
						c-3.7,0.3-7.3,0.7-10.9,1.3c-3.6,0.5-7.3,1.1-10.9,1.8c-3.6,0.6-7.3,1.4-10.9,2.1c-7.3,1.5-14.7,2.9-22.1,3.8
						c7-2.9,14-5.4,21.2-7.6c3.6-1.1,7.2-2.1,10.9-3c3.7-0.8,7.4-1.6,11.2-2.1c3.8-0.5,7.5-0.8,11.3-1c3.8-0.1,7.6-0.1,11.4,0.1
						c3.8,0.2,7.5,0.7,11.3,1.3c1.9,0.3,3.7,0.7,5.5,1.2C1086.3,204.6,1088.2,205.1,1089.9,206z"/>
				</g>
			</g>
		</g>
	</g>
	<g>
		<g>
			<g>
				<g>
					<path d="M1070.6,467.4c2-0.5,3.7-1.6,5.5-2.6l5.3-3.1c3.5-2.1,7-4.2,10.3-6.4c3.3-2.3,6.5-4.6,9.4-7.3c2.9-2.6,5.6-5.5,8.1-8.6
						c2.6-3,5.1-6.2,7.7-9.4c2.6-3.1,5.3-6.3,8.4-9.2c3.1-2.9,6.4-5.5,10.1-7.5c3.7-2.1,7.8-3.4,11.8-3.8c-7.8,2.8-13.9,8.1-19.1,14
						c-2.6,3-5.1,6.1-7.5,9.4c-2.5,3.2-4.9,6.5-7.6,9.7c-2.7,3.2-5.6,6.2-8.9,9c-3.3,2.7-6.8,5-10.5,7c-3.7,2-7.4,3.7-11.2,5.2
						c-1.9,0.8-3.8,1.5-5.8,2.2C1074.8,466.7,1072.7,467.3,1070.6,467.4z"/>
				</g>
			</g>
		</g>
	</g>
	<g>
		<g>
			<g>
				<g>
					<path d="M1081.5,464.8c8-2.3,16.5-2.5,24.4-3.9c3.9-0.7,7.8-1.7,11.3-3.3c3.5-1.5,6.8-3.7,9.8-6.2c1.5-1.2,2.9-2.6,4.3-4
						c1.3-1.4,2.6-2.9,3.7-4.5c2.4-3.1,4.3-6.6,6-10.2c3.3-7.3,5.4-15.2,6.8-23.4c0.6,8.3-0.3,16.8-3.2,24.8
						c-1.4,4-3.3,7.9-5.7,11.5c-1.2,1.8-2.5,3.5-4,5.1c-1.4,1.6-3,3.2-4.6,4.6c-3.3,2.8-7.1,5.1-11.2,6.8c-4.1,1.6-8.4,2.5-12.6,2.8
						C1097.9,465.5,1089.8,464.6,1081.5,464.8z"/>
				</g>
			</g>
		</g>
	</g>
	<g>
		<g>
			<g>
				<g>
					<path d="M218.9,1235.7c11.9-16.3,23.5-32.5,35.1-48.9c2.8-4.1,5.7-8.2,8.7-12.3l8.7-12.3c5.9-8.1,11.9-16.2,17.8-24.3l9.3-11.9
						l9.5-11.8l9.9-11.5c3.4-3.8,6.8-7.5,10.3-11.2c13.9-14.7,29.1-28.3,46-39.5c-14.2,14.3-27.5,29.2-40.1,44.7
						c-3.1,3.9-6.2,7.8-9.4,11.7l-9.2,11.8l-9.1,11.9l-9,12c-6.1,8-12.1,15.9-18.2,24l-9.3,11.9c-3.1,3.9-6.3,7.9-9.5,11.8
						C247.5,1207.2,234,1222.3,218.9,1235.7z"/>
				</g>
			</g>
		</g>
	</g>
	<g>
		<g>
			<g>
				<g>
					<path d="M331.4,1015.7c-8.6,6.3-17,12.8-25.2,19.4c-8.2,6.6-16.3,13.4-24.3,20.3c-7.9,7-16,13.8-23.8,20.9
						c-8,7-15.9,14-23.7,21.1c-8,7-15.9,14-23.7,21.1c-8,7-15.8,14.1-23.7,21.1c-15.9,14.1-31.7,28.2-48,41.9
						c13.4-16.6,27.7-32.3,42.6-47.5c7.4-7.7,15.1-15,22.7-22.4c7.8-7.3,15.6-14.5,23.5-21.6c8-7,16.1-14,24.2-20.8
						c8.3-6.7,16.5-13.5,25.1-19.8c8.6-6.4,17.3-12.5,26.4-18.2C312.3,1025.4,321.7,1020.2,331.4,1015.7z"/>
				</g>
			</g>
		</g>
	</g>
	<g>
		<g>
			<g>
				<g>
					<path d="M138.1,1182.5c8.4,1.1,16.5,3.1,24.4,5.5c4,1.1,8,2.7,12,4.4c3.9,1.9,7.8,4.1,11.3,6.7c3.4,2.7,6.6,5.6,9.6,8.6
						c2.9,3,5.7,5.9,8.4,9.1c5.5,6.2,10.7,12.6,15.3,19.8c-7.4-4.1-14.2-8.9-20.7-14c-3.3-2.5-6.4-5.2-9.6-7.8c-3-2.7-6-5.2-9.2-7.5
						c-3-2.4-6.1-4.4-9.6-6.2c-3.3-2-7-3.6-10.6-5.6C152.2,1191.6,145,1187.5,138.1,1182.5z"/>
				</g>
			</g>
		</g>
	</g>
	<g id="Leaf_Lines">
		<g>
			<g>
				<g>
					<g>
						<path class="st9" d="M389.6,954.6c-10.4-15.1-19.9-30.7-27.4-47.6c-3.8-8.4-6.9-17.2-9.4-26.2c-0.6-2.3-1.1-4.6-1.6-6.8
							c-0.4-2.3-0.9-4.6-1.3-6.9c-0.7-4.6-1.3-9.3-1.7-13.9c-0.7-9.2-1-18.3-1.3-27.4c-0.2-9.1-0.5-18.2-0.5-27.3
							c-0.2-18.2,0-36.4,1.1-54.7c3,18.1,5,36.2,6.7,54.3c0.9,9,1.5,18.1,2.2,27.2c0.6,9,1,18.2,1.9,27.1c0.3,4.5,0.8,8.9,1.4,13.2
							c0.3,2.2,0.7,4.3,1.1,6.5c0.4,2.2,0.9,4.3,1.4,6.5c1.8,8.6,4.6,17.1,7.4,25.6C375.4,921,382.9,937.6,389.6,954.6z"/>
					</g>
				</g>
			</g>
		</g>
		<g>
			<g>
				<g>
					<g>
						<path class="st9" d="M344.8,621.1c-1.9-8-2.8-16-3.4-23.9c-0.4-4-0.4-7.9-0.7-11.9l-0.2-11.9l0.3-11.9c0.3-4,0.4-7.9,0.8-11.9
							c0.7-7.9,1.7-15.9,3.6-23.9c2.2,7.9,3.5,15.8,4.3,23.8c0.5,4,0.6,8,0.9,11.9l0.3,11.9l-0.3,11.9c-0.3,4-0.5,8-1,11.9
							C348.5,605.3,347.2,613.3,344.8,621.1z"/>
					</g>
				</g>
			</g>
		</g>
		<g>
			<g>
				<g>
					<g>
						<path class="st9" d="M452,484.6c-1-24.1,0.1-48.2,2.9-72.2c0.7-6,1.5-12,2.3-18l3-17.9l3.7-17.8l4.3-17.6l5.1-17.4l5.7-17.3
							l6.5-17c2.4-5.6,4.8-11.1,7.3-16.6c10.2-22,22.4-43,37.2-62c-11.3,21.3-21.3,42.9-30,65.1c-2,5.6-4.1,11.2-6.2,16.7l-5.7,16.9
							l-5.3,17l-4.7,17.2l-4.4,17.3l-3.9,17.4l-3.6,17.5c-1,5.9-2.1,11.7-3.3,17.6C458.5,437,455.3,460.7,452,484.6z"/>
					</g>
				</g>
			</g>
		</g>
		<g>
			<g>
				<g>
					<g>
						<path class="st9" d="M598.5,369.4c-1.4-5.4-1.9-11-1.6-16.7c0.3-5.6,1.3-11.2,2.6-16.7c1.3-5.5,2.9-10.8,4.7-16.1
							c1.7-5.3,3.4-10.5,5.3-15.8c0.9-2.6,1.8-5.2,2.7-7.8l2.9-7.8c1.9-5.2,4-10.3,6-15.5c2.1-5.1,4.3-10.2,6.5-15.3
							c2.2-5.1,4.4-10.2,6.7-15.2c2.4-5,4.7-10,7.2-15l3.7-7.5l3.7-7.4c2.5-4.9,5.2-9.8,7.8-14.7c2.7-4.9,5.4-9.7,8.2-14.5
							c11.1-19.2,23.2-37.8,36.5-55.5c-9.9,19.7-19.7,39.5-29.6,59.2c-2.4,5-4.8,9.9-7.2,14.8c-2.4,5-4.8,9.9-7.1,14.9l-3.6,7.4
							l-3.5,7.5c-2.4,5-4.6,10-6.9,15c-2.4,5-4.6,10-6.9,15c-2.2,5-4.5,10-6.6,15.1c-2.2,5-4.5,10-6.6,15.1l-6.5,15.2
							c-2.2,5-4.3,10.1-6.4,15.2c-2.2,5.1-4.2,10.1-6.1,15.2c-1.8,5.1-3.5,10.3-4.5,15.6C598.6,358.4,598.1,363.9,598.5,369.4z"/>
					</g>
				</g>
			</g>
		</g>
		<g>
			<g>
				<g>
					<g>
						<path class="st9" d="M748.7,273c4.6-19.2,10.6-38,17.6-56.4c1.7-4.6,3.5-9.2,5.4-13.8l5.7-13.7l6.1-13.5l6.3-13.4l6.7-13.2
							l6.9-13.1l7.2-12.9c2.5-4.3,5-8.5,7.5-12.7c10.2-16.8,21.2-33.2,33.5-48.7c-8.7,17.7-17.8,35.1-26.6,52.5
							c-2.1,4.4-4.4,8.8-6.6,13.1l-6.6,13.1l-6.6,13.1l-6.4,13.2l-6.4,13.2l-6.2,13.3l-6.3,13.2c-2,4.4-4.1,8.9-6.2,13.3
							C765.3,237.3,757.2,255.2,748.7,273z"/>
					</g>
				</g>
			</g>
		</g>
		<g>
			<g>
				<g>
					<g>
						<path class="st9" d="M946.1,194.5c4.8-14.6,10.9-28.7,17.5-42.5c1.6-3.5,3.3-6.9,5.1-10.3l5.3-10.2l5.6-10l5.7-10l6-9.8
							l6.1-9.7l6.3-9.6c2.1-3.2,4.3-6.3,6.5-9.4c8.8-12.5,18.2-24.6,28.6-36c-6.9,13.7-14.4,27-22,40.2c-1.8,3.3-3.7,6.6-5.7,9.9
							l-5.7,9.9l-5.8,9.8l-5.7,9.9l-5.8,9.8l-5.7,9.8l-5.9,9.8c-1.9,3.3-3.9,6.5-5.9,9.8C962.7,168.8,954.8,181.7,946.1,194.5z"/>
					</g>
				</g>
			</g>
		</g>
		<g>
			<g>
				<g>
					<g>
						<path class="st9" d="M1100.3,203c5-15.5,11.6-30.4,19.1-44.8c1.9-3.6,3.8-7.2,5.8-10.7l6.1-10.5l6.4-10.3l6.6-10.2l6.9-10
							l7-9.9l7.3-9.7c2.4-3.2,4.9-6.4,7.4-9.6c10-12.7,20.5-25,31.7-36.8c-7.9,14.2-16.6,27.8-25.4,41.3c-2.1,3.4-4.4,6.8-6.6,10.1
							l-6.6,10.1l-6.7,10l-6.6,10.1l-6.7,10l-6.6,10.1l-6.6,10.1c-2.1,3.4-4.3,6.8-6.5,10.1C1117.6,175.8,1109,189.4,1100.3,203z"/>
					</g>
				</g>
			</g>
		</g>
		<g>
			<g>
				<g>
					<g>
						<path class="st9" d="M1287.9,176.4c-0.2-12.4,1.6-24.8,4.8-36.8c0.8-3,1.7-6,2.6-9l3.1-8.8l3.7-8.6l4.1-8.4l4.6-8.1l4.9-7.9
							l5.4-7.6c1.9-2.5,3.8-4.9,5.8-7.3c8-9.5,17.1-18.1,27.4-25c-7.4,9.9-14.6,19.7-21.2,29.7c-1.6,2.6-3.2,5.1-4.8,7.6l-4.6,7.7
							l-4.5,7.7l-4.2,7.9l-4.1,8l-3.8,8.1l-3.7,8.2c-1.1,2.8-2.2,5.6-3.5,8.3C1295.7,153.3,1291.8,164.7,1287.9,176.4z"/>
					</g>
				</g>
			</g>
		</g>
		<g>
			<g>
				<g>
					<g>
						<path class="st9" d="M1242.9,286.3c3.6-6.8,8.2-13.2,13.2-19.1c5-5.9,10.6-11.4,16.4-16.6c11.6-10.4,24-19.6,35.9-29.2
							c11.8-9.7,23.5-19.6,35.1-29.7c11.8-9.9,23.5-19.8,35-29.9c11.6-10,23.2-20,34.4-30.4c2.9-2.5,5.6-5.2,8.4-7.8
							c2.8-2.6,5.6-5.2,8.3-7.9l8.2-8l8.1-8.1c10.6-11,21-22.2,30.9-33.9c9.8-11.8,19.1-23.9,28-36.5c-7.1,13.7-15.2,26.9-24.1,39.5
							c-9,12.6-18.8,24.6-29,36.2l-7.8,8.6c-2.6,2.8-5.3,5.6-8,8.4c-2.7,2.8-5.4,5.5-8.2,8.2c-2.7,2.7-5.5,5.5-8.3,8.1
							c-11.2,10.7-22.7,21-34.3,31.1c-11.7,10-23.6,19.8-35.5,29.6c-12,9.6-23.9,19.5-36.5,28.6c-12.5,9.2-25.4,17.5-37.5,26.7
							C1263.5,263.7,1252,273.8,1242.9,286.3z"/>
					</g>
				</g>
			</g>
		</g>
		<g>
			<g>
				<g>
					<g>
						<path class="st9" d="M1345.2,235.2c13.4-0.4,26.7-0.2,39.9,0c3.3,0,6.6,0.1,9.9,0.2l9.9,0.2l9.9,0.2l9.9,0.1l9.9,0.2l9.9,0.1
							l9.9,0.2c3.3,0,6.6,0.1,9.9,0.2c13.2,0.2,26.5,0.4,39.9,1.3c-13,3.3-26.3,5.3-39.6,6.6c-3.3,0.3-6.7,0.6-10,0.8l-10,0.5
							l-10,0.2l-10,0l-10-0.4l-10-0.5l-10-0.9c-3.3-0.3-6.7-0.7-10-1.1C1371.3,241.4,1358.1,239,1345.2,235.2z"/>
					</g>
				</g>
			</g>
		</g>
		<g>
			<g>
				<g>
					<g>
						<path class="st9" d="M1273.8,390.5c8.7-5.1,17.9-9.1,27.2-12.6c4.6-1.9,9.4-3.3,14-5c4.7-1.4,9.5-2.8,14.3-4.2
							c4.8-1.2,9.6-2.4,14.5-3.5c4.9-1,9.7-2.1,14.6-2.8c9.8-1.6,19.7-2.8,29.8-2.8c-9.2,4.1-18.6,7.4-27.9,10.5
							c-4.7,1.6-9.4,2.9-14.1,4.4c-4.7,1.3-9.5,2.7-14.2,4c-4.8,1.2-9.5,2.4-14.3,3.7c-4.8,1.1-9.6,2.4-14.4,3.3
							C1293.6,387.6,1283.8,389.4,1273.8,390.5z"/>
					</g>
				</g>
			</g>
		</g>
		<g>
			<g>
				<g>
					<g>
						<path class="st9" d="M1392.2,378.4c8.9-6.5,18.3-12.2,27.8-17.5c4.7-2.7,9.6-5.1,14.3-7.7c4.8-2.5,9.6-4.9,14.2-7.5
							c4.7-2.5,9.4-5,13.9-7.8c2.3-1.3,4.5-2.7,6.8-4.1c1.1-0.7,2.2-1.5,3.3-2.2l1.7-1.1l1.6-1.1c4.4-3,8.5-6.3,12.6-9.7
							c4.1-3.5,7.9-7.3,11.7-11.3c-2.1,5.1-4.8,10.1-8.1,14.6c-3.3,4.5-7.1,8.7-11.3,12.5c-0.5,0.5-1,1-1.5,1.5l-1.6,1.4
							c-1.1,0.9-2.1,1.8-3.3,2.7c-2.2,1.7-4.5,3.4-6.8,5c-4.6,3.1-9.4,5.9-14.2,8.7c-4.9,2.6-9.9,4.9-14.8,7.3
							c-5.1,2.1-10,4.4-15.1,6.3C1413.2,372.1,1402.9,375.7,1392.2,378.4z"/>
					</g>
				</g>
			</g>
		</g>
		<g>
			<g>
				<g>
					<g>
						<path class="st9" d="M1203.1,505.3c19.8-1.1,39.4-1.8,59.1-2.7c4.9-0.3,9.8-0.6,14.7-0.8l14.7-0.9l14.7-0.9l14.7-1.1l14.7-1
							l14.6-1.3l14.7-1.3c4.9-0.5,9.8-1,14.7-1.4c19.5-1.9,39.1-4.1,58.8-5.9c-18.9,5.9-38.3,10.3-57.8,13.7
							c-4.9,0.9-9.8,1.6-14.7,2.4l-14.7,2l-14.8,1.6l-14.8,1.3l-14.8,0.8l-14.8,0.6l-14.9,0.2c-5,0-9.9-0.1-14.9-0.2
							C1242.5,510,1222.7,508.4,1203.1,505.3z"/>
					</g>
				</g>
			</g>
		</g>
		<g>
			<g>
				<g>
					<g>
						<path class="st9" d="M1237,685.3c6.2-3.8,13-6.8,19.9-9.2c6.9-2.4,14-4.3,21-6c7-1.8,14.1-3.1,21-4.7c7-1.5,13.9-3.1,20.6-5.1
							c6.7-1.8,13.4-4.1,20-6.7c6.6-2.4,13.1-5.3,19.7-8.1c13-5.8,26-12.1,39.5-17.5c-11.4,9.1-23.3,17.3-36,24.6
							c-6.3,3.7-12.9,6.9-19.6,9.9c-6.8,2.9-13.7,5.5-20.8,7.6c-7.1,2-14.3,3.5-21.5,4.8c-7.2,1.1-14.3,2.3-21.4,3.1
							C1265.1,679.8,1251.1,681.6,1237,685.3z"/>
					</g>
				</g>
			</g>
		</g>
		<g>
			<g>
				<g>
					<g>
						<path class="st9" d="M991.9,847.7c21.2-2.5,42.3-4.1,63.4-6c5.3-0.5,10.5-1,15.8-1.4l15.7-1.6l15.7-1.7l15.6-2.1
							c5.2-0.7,10.4-1.5,15.6-2.2c5.2-0.9,10.3-1.8,15.5-2.7c5.1-1,10.3-2.1,15.4-3.1c5.1-1.2,10.2-2.5,15.3-3.6
							c20.3-5.1,40.3-11.7,60-19.9c-17.7,11.8-37.5,20.7-57.8,27.4c-5.1,1.6-10.2,3.2-15.4,4.6l-15.6,3.9c-5.3,1-10.5,2.1-15.8,3.1
							c-5.3,0.9-10.6,1.8-15.8,2.6l-15.9,1.8l-15.9,1.5l-16,0.9c-5.3,0.2-10.6,0.4-16,0.5C1034.4,850,1013.1,849.4,991.9,847.7z"/>
					</g>
				</g>
			</g>
		</g>
		<g>
			<g>
				<g>
					<g>
						<path class="st9" d="M726.1,909.8c7.2-0.1,14.4,0.8,21.4,2.4c7.1,1.5,14,3.6,20.8,5.6l20.5,5.9l10.3,2.7
							c3.4,0.9,6.8,1.9,10.3,2.7l10.4,2.5l5.2,1.3l5.2,1.2l10.4,2.4c3.5,0.8,7,1.4,10.4,2.1c3.5,0.7,6.9,1.5,10.4,2.2l10.5,1.9
							c7,1.4,14,2.3,21,3.4c3.5,0.6,7,1.1,10.5,1.6l10.5,1.5c3.5,0.5,7,0.8,10.6,1.2c3.5,0.4,7,0.8,10.6,1.2
							c14.1,1.5,28.3,2.6,42.5,3.4c28.4,1.6,56.9,1.9,85.5,1.4c-28.3,4.6-57,6.6-85.8,6.4c-14.4,0.1-28.7-0.8-43.1-1.8
							c-3.6-0.3-7.2-0.7-10.7-1c-3.6-0.4-7.2-0.7-10.7-1.1l-10.7-1.4c-3.6-0.5-7.1-0.9-10.7-1.5c-7.1-1.2-14.2-2.3-21.3-3.7
							l-10.6-2.1c-3.5-0.7-7-1.5-10.5-2.3c-3.5-0.9-7-1.6-10.5-2.5l-10.4-2.7l-5.2-1.4c-1.7-0.5-3.5-1-5.2-1.5l-10.3-3.1
							c-3.5-1-6.8-2.2-10.3-3.3l-10.2-3.4c-6.7-2.5-13.5-4.9-20.2-7.6c-6.7-2.6-13.2-5.3-19.9-7.6
							C740.1,912.6,733.2,910.7,726.1,909.8z"/>
					</g>
				</g>
			</g>
		</g>
		<g>
			<g>
				<g>
					<g>
						<path class="st9" d="M1191.9,920.4c-7,6.7-15.3,12-24,16.2c-2.2,1.1-4.4,2.1-6.6,3l-6.8,2.6l-6.9,2.2l-6.9,2l-7,1.6l-7.1,1.4
							l-7.1,1.1c-2.4,0.3-4.7,0.6-7.1,0.9c-9.5,1-19.1,1.4-28.7,0.8c9-3.5,18.2-6.1,27.3-8.6c2.3-0.7,4.5-1.3,6.8-1.8l6.8-1.8
							l6.8-1.7l6.8-1.8l6.8-1.7l6.7-1.9c2.2-0.6,4.5-1.3,6.7-1.9c2.2-0.7,4.4-1.4,6.7-2C1173.9,926.5,1182.7,923.5,1191.9,920.4z"/>
					</g>
				</g>
			</g>
		</g>
		<g>
			<g>
				<g>
					<g>
						<path class="st9" d="M506,987.1c43.5,5.1,86.5,15.1,128.1,29.2c20.9,6.8,41.3,15.3,61.4,23.8c20.1,8.7,40,17.3,60.5,23.9
							c10.2,3.4,20.6,6.2,31.1,8.3c10.5,2.1,21.2,3.2,31.9,3.9c21.5,1.4,43.2,0.3,64.9-1c21.8-1.4,43.5-2.8,64.8-6.6
							c10.7-1.9,21.2-4.4,31.5-7.9c10.3-3.5,20.2-8,29.6-13.7c-8.8,6.6-18.4,12-28.6,16.3c-10.1,4.3-20.7,7.6-31.5,10.2
							c-21.5,5.1-43.5,7.5-65.2,9.6c-21.8,2.2-43.9,3.6-66.1,2.7c-11.1-0.6-22.2-1.7-33.2-3.8c-11-2-21.8-4.9-32.4-8.3
							c-21.1-7-41.2-15.9-61.2-24.7c-19.9-9.1-39.8-17.5-60.2-25.2C590.8,1008.5,548.8,996.4,506,987.1z"/>
					</g>
				</g>
			</g>
		</g>
	</g>
	<g>
		<g>
			<g>
				<g>
					<path d="M985.1,479.7c10.6,0.7,21.2,0,31.5-2.1c5.1-1,10.2-2.4,15-4.4c4.8-2,9.2-4.6,12.8-8.1c1.8-1.8,3.3-3.7,4.4-5.8
						c0.5-1.1,1.1-2.2,1.5-3.3c0.4-1.1,0.7-2.3,1-3.6c0.5-2.5,0.9-5,1.3-7.7l0.3-2l0.4-2c0.3-1.3,0.5-2.7,0.9-4
						c0.8-2.6,1.5-5.3,2.5-7.8l0.7-1.9l0.4-1l0.4-0.9l1.7-3.7c0.6-1.2,1.3-2.4,1.9-3.6c0.6-1.2,1.3-2.4,2.1-3.5l2.2-3.5l2.4-3.3
						c0.4-0.5,0.8-1.1,1.2-1.6l1.3-1.6c0.9-1,1.8-2.1,2.7-3.1c1.9-1.9,3.8-3.9,5.9-5.7c2-1.9,4.2-3.5,6.3-5.2
						c1.1-0.8,2.3-1.5,3.4-2.3l1.7-1.1c0.6-0.4,1.2-0.7,1.8-1l3.6-2l3.7-1.8c1.2-0.6,2.5-1.1,3.8-1.6c1.3-0.5,2.5-1,3.8-1.4
						c2.6-0.8,5.2-1.7,7.9-2.2c2.7-0.6,5.3-1.1,8-1.4c5.3-0.8,10.7-1.1,16-1.4c5.3-0.3,10.6-0.4,15.9-0.6c5.3-0.2,10.6-0.4,15.9-0.4
						c5.3-0.1,10.8,0.2,15.8,1.9c-5.2-1.1-10.5-0.9-15.8-0.5l-15.8,1.5c-10.6,1-21.2,1.6-31.5,3.4c-2.6,0.5-5.1,1-7.6,1.7
						c-2.5,0.6-4.9,1.5-7.4,2.3c-1.2,0.4-2.4,1-3.6,1.4c-1.2,0.5-2.4,1-3.5,1.6l-3.4,1.7l-3.3,2c-0.6,0.3-1.1,0.6-1.7,1l-1.6,1.1
						c-1.1,0.7-2.1,1.4-3.2,2.2c-2,1.6-4.1,3.1-5.9,4.9c-2,1.7-3.7,3.6-5.5,5.4c-0.9,0.9-1.7,2-2.5,2.9l-1.2,1.5
						c-0.4,0.5-0.8,1-1.2,1.5l-2.3,3.1l-2.1,3.2c-0.7,1.1-1.3,2.2-2,3.3c-0.6,1.1-1.3,2.2-1.8,3.4l-1.6,3.5l-0.4,0.9l-0.3,0.9
						l-0.7,1.8c-1,2.4-1.6,4.9-2.4,7.3c-0.3,1.2-0.6,2.5-0.9,3.7l-0.4,1.9l-0.3,1.9c-0.4,2.6-0.9,5.3-1.5,8
						c-0.3,1.4-0.7,2.7-1.2,4.1c-0.5,1.3-1.2,2.6-1.9,3.9c-1.4,2.5-3.3,4.7-5.4,6.6c-4.2,3.8-9.2,6.5-14.3,8.3
						c-5.1,1.9-10.5,3-15.8,3.7C1006.4,481.6,995.6,481.5,985.1,479.7z"/>
				</g>
			</g>
		</g>
	</g>
	<g>
		<g>
			<g>
				<g>
					<path d="M990.6,232c2.8-3.6,6.3-6.7,10.3-9.2c4-2.5,8.3-4.3,12.8-5.7c4.5-1.4,9.1-2.2,13.7-2.8c4.6-0.5,9.2-0.7,13.8-0.7
						c4.6,0.1,9.1,0.3,13.7,0.5c4.5,0.3,9,0.5,13.5,0.7c9,0.3,17.9,0.2,26.9-1.4c-8.4,3.6-17.8,5-26.9,5.4
						c-4.6,0.3-9.2,0.2-13.7,0.2c-4.5-0.1-9.1-0.2-13.5-0.2c-4.5-0.1-8.9,0.1-13.3,0.5c-4.4,0.3-8.8,1-13.1,1.9
						C1006,222.9,997.7,226.2,990.6,232z"/>
				</g>
			</g>
		</g>
	</g>
	<g>
		<g>
			<g>
				<g>
					<path d="M868.2,760.4c-14.3-4-27.2-13.4-35.8-25.9c-2.1-3.1-4-6.5-5.6-9.9c-1.6-3.5-2.8-7.1-3.7-10.8c-0.5-1.8-0.8-3.7-1.1-5.6
						c-0.2-1.9-0.5-3.8-0.6-5.7c-0.3-3.8-0.2-7.6,0.2-11.5c0.4-3.8,1.1-7.6,2.1-11.3c1-3.7,2.4-7.3,4.1-10.8
						c0.9-1.7,1.7-3.4,2.7-5.1l3.1-4.9l3.4-4.6c1.2-1.5,2.4-2.9,3.6-4.4c9.9-11.5,21.4-21.1,31.2-31.9c4.9-5.4,9.5-11.1,13-17.4
						c1-1.5,1.6-3.2,2.4-4.8c0.4-0.8,0.8-1.6,1.1-2.4c0.3-0.8,0.7-1.7,1-2.5c1.2-3.4,2.2-6.9,3.3-10.5c1.1-3.6,2.3-7.2,3.8-10.7
						c1.5-3.5,3.3-6.9,5.3-10.2c4-6.5,9-12.4,14.8-17.4c5.7-5.1,12.3-9.1,19.1-12.3c6.8-3.2,13.8-5.8,20.8-8.4
						c7-2.6,13.9-5.2,20.4-8.7c6.5-3.4,12.6-7.8,17.6-13.3c-4.5,5.9-10.5,10.7-16.9,14.6c-6.4,3.9-13.3,6.9-20.2,9.8
						c-6.9,2.9-13.7,5.7-20.3,9.1c-6.5,3.3-12.7,7.3-18,12.2c-5.3,4.9-9.9,10.6-13.6,16.8c-1.9,3.1-3.5,6.3-4.8,9.7
						c-1.4,3.3-2.4,6.8-3.5,10.3c-1,3.5-2.1,7.2-3.3,10.8c-0.3,0.9-0.7,1.8-1,2.7c-0.4,0.9-0.8,1.8-1.2,2.6
						c-0.8,1.7-1.6,3.5-2.6,5.2c-3.7,6.7-8.5,12.8-13.5,18.4c-10.3,11.1-21.7,20.6-31.3,31.7c-1.2,1.4-2.4,2.8-3.5,4.2l-3.3,4.3
						l-2.9,4.5c-0.9,1.5-1.7,3.2-2.6,4.7c-1.6,3.2-3,6.5-4,10c-1,3.5-1.8,7-2.2,10.6c-1.8,14.3,1.2,29.3,9,41.7
						C842.3,745.5,854.2,755.3,868.2,760.4z"/>
				</g>
			</g>
		</g>
	</g>
	<g>
		<g>
			<g>
				<g>
					<path d="M799.7,779.7c-8-2.2-15.4-6.4-22-11.5c-6.6-5.1-12.5-11.2-17.9-17.5c-5.5-6.2-10.5-12.8-15.9-18.9
						c-5.3-6.2-10.9-12.1-17.2-17.2c-6.2-5.2-12.9-9.7-20.1-13.7c-7.1-4-14.5-7.4-22.1-10.5c-15.2-6.1-31.1-10.5-47-14.8
						c16.4,2.3,32.7,5.6,48.4,11.1c7.9,2.7,15.6,6.1,23,10c7.4,4,14.4,8.6,21,13.9c6.5,5.4,12.3,11.6,17.6,18
						c5.3,6.5,10.2,13.1,15.3,19.5c5.1,6.4,10.4,12.6,16.5,18.1C785.3,771.7,792,776.5,799.7,779.7z"/>
				</g>
			</g>
		</g>
	</g>
	<g>
		<g>
			<g>
				<g>
					<path d="M586.9,439.9c-6.4,16.6-12,33.4-16.3,50.5c-1.1,4.3-2,8.6-3.2,12.9c-1.1,4.3-2.6,8.8-4.7,12.9c-2.1,4.1-4.7,8-7.5,11.5
						c-2.8,3.6-5.9,6.9-8.9,10.2c-3.1,3.2-6.2,6.4-9.2,9.6c-3,3.2-5.8,6.5-8.4,9.9c-2.5,3.5-4.8,7.1-6.5,11c-1.7,3.9-2.9,8-3.7,12.2
						c-3.2,17-0.2,35.2-2.9,52.8c0.3-8.9-0.5-17.7-1.2-26.6c-0.3-4.4-0.6-8.9-0.6-13.4c0-4.5,0.1-9,0.8-13.5c0.7-4.5,1.7-9,3.5-13.3
						c1.8-4.3,4.1-8.3,6.7-12.1c2.7-3.7,5.6-7.2,8.7-10.5c3-3.3,6.1-6.5,9.2-9.7c3.1-3.2,6-6.4,8.7-9.8c2.7-3.4,5.1-6.9,7.1-10.7
						c4.1-7.4,5.6-16.2,8.3-24.7C571.8,472.2,578.5,455.6,586.9,439.9z"/>
				</g>
			</g>
		</g>
	</g>
	<g>
		<g>
			<g>
				<g>
					<path d="M625.2,401c8.2-6.5,16.5-12.8,25.5-18.2c9-5.4,18.7-10,29.1-12.4c5.2-1.3,10.6-1.8,15.8-2.1c5.3-0.3,10.5-0.3,15.7-0.3
						c10.5,0,20.9,0.3,31.3,0.4c10.4,0.3,20.8,0.5,31.2,0.3c10.4-0.1,20.7-0.5,31-1.5c20.6-2,41-6.2,60.2-14.5
						c-4.6,2.5-9.3,4.8-14.1,6.8c-4.8,2-9.8,3.7-14.8,5.2c-10.1,3-20.4,5-30.8,6.4c-10.4,1.4-20.9,2-31.4,2.4
						c-10.5,0.3-20.9,0.1-31.4,0c-10.4-0.3-20.8-0.6-31.2-0.7c-10.4-0.2-20.8-0.4-30.7,1.5c-10,1.9-19.6,5.9-28.7,10.7
						C642.7,389.7,634,395.4,625.2,401z"/>
				</g>
			</g>
		</g>
	</g>
	<path d="M1059.4,195.1c-10.4,0.1-20.3,3.1-29.8,7.3c-2.4,1-0.3,4.5,2,3.5c0.5-0.2,1-0.4,1.4-0.6c0.4,0.7,1.2,1.1,2.2,0.9
		c7.8-1.6,15.6-2.9,23.5-3.1c3.7-0.1,7.4,0,11.1,0.5c2.7,0.3,5.4,1.3,8,0.9c0.9-0.1,1.4-1.1,1.5-1.9
		C1080,195.7,1063.7,195.1,1059.4,195.1z"/>
	<g>
		<g>
			<g>
				<g>
					<path d="M1250.8,716.2c2-0.7,4.3-0.1,6,0.8c0.9,0.4,1.7,1,2.5,1.5c0.7,0.6,1.4,1.2,2.1,1.8c0.6,0.7,1.3,1.4,1.9,2.2
						c0.6,0.8,1.1,1.6,1.5,2.6c0.9,1.8,1.3,4.1,0.6,6c-1.4-1.6-2.6-2.7-3.8-3.8c-0.7-0.5-1.2-1.1-1.9-1.6c-0.6-0.6-1.2-1.2-1.9-1.7
						c-0.6-0.6-1.2-1.3-1.8-1.9c-0.5-0.7-1.1-1.3-1.7-1.9C1253.4,718.9,1252.4,717.6,1250.8,716.2z"/>
				</g>
			</g>
		</g>
	</g>
	<g>
		<g>
			<g>
				<g>
					<path d="M1260.5,771.9c1.5-1.3,2.7-2.3,3.9-3.3c0.5-0.5,1.2-1,1.4-1.3c0.1-0.2,0.2-0.3,0.3-0.4c0.1-0.2,0.2-0.4,0.2-0.7
						c0.2-0.5,0.4-1.4,0.6-2.1c0.3-0.7,0.4-1.5,0.8-2.3c0.5-1.5,1.2-3.1,2.1-4.8c1.1,1.6,1.6,3.4,1.8,5.2c0.1,0.9,0.1,1.8,0,2.7
						c-0.1,0.9-0.2,1.7-0.5,2.8c-0.2,0.5-0.4,1.1-0.8,1.6c-0.3,0.6-0.8,1.1-1.3,1.5c-1,0.7-1.9,1.1-2.9,1.3
						C1264.3,772.7,1262.3,772.7,1260.5,771.9z"/>
				</g>
			</g>
		</g>
	</g>
	<g>
		<g>
			<g>
				<g>
					<path d="M1249.1,580c0.1-0.8,0.5-1.5,1.1-2c0.6-0.5,1.3-0.9,2-1.1c0.7-0.3,1.5-0.2,2.2-0.2c0.7,0.1,1.3,0.3,2,0.4
						c0.6,0.3,1.1,0.5,1.6,0.8c0.5,0.3,1,0.6,1.4,1c0.9,0.8,1.7,1.7,2.3,3.1c-1.4,0.5-2.7,0.6-3.8,0.5c-0.6,0-1.1-0.2-1.7-0.2
						c-0.5-0.2-1-0.3-1.5-0.4c-0.4-0.2-0.8-0.4-1.2-0.5c-0.4-0.2-0.7-0.3-1.1-0.5C1251.5,580.6,1250.7,580.1,1249.1,580z"/>
				</g>
			</g>
		</g>
	</g>
	<g>
		<g>
			<g>
				<g>
					<path d="M1288.7,614.8c-0.4-0.7-0.8-1.2-1.2-1.7c-0.4-0.5-0.8-1-1.1-1.6c-0.4-0.5-0.6-1.3-0.9-1.9c-0.2-0.7-0.3-1.4-0.4-2
						l-0.1-1.9c0-0.6,0-1.2,0.1-1.8c0.1-1.2,0.3-2.4,0.7-4c1.5,0.6,2.5,1.9,3.2,3.2c0.4,0.6,0.5,1.3,0.8,2l0.4,1.9
						c0,0.6,0.1,1.2,0.2,1.8c0,0.6,0.1,1.1,0,1.8c0,0.7-0.1,1.4-0.3,2.2C1289.8,613.5,1289.4,614.3,1288.7,614.8z"/>
				</g>
			</g>
		</g>
	</g>
	<g>
		<g>
			<g>
				<g>
					<path d="M1141.2,569.8c-0.5-1.8-0.1-3.6,0.7-5.1c0.4-0.8,0.9-1.4,1.5-2.1c0.6-0.6,1.3-1.1,1.9-1.6c0.7-0.4,1.5-0.8,2.2-1.1
						c0.8-0.3,1.5-0.6,2.3-0.7c1.6-0.3,3.2-0.3,4.9,0.2c-1.1,1.5-2.3,2.5-3.4,3.4c-0.5,0.5-1.1,0.8-1.7,1.3
						c-0.6,0.4-1.1,0.7-1.6,1.1c-0.6,0.3-1.1,0.7-1.6,1.1c-0.6,0.3-1,0.7-1.6,1.1C1143.8,568,1142.7,568.8,1141.2,569.8z"/>
				</g>
			</g>
		</g>
	</g>
	<g>
		<g>
			<g>
				<g>
					<path d="M1185.2,584c-1.1-1.3-1.7-2.6-2.2-3.9c-0.3-0.6-0.4-1.3-0.6-1.9c-0.1-0.6-0.3-1.2-0.4-1.9c-0.1-0.6-0.2-1.2-0.3-1.8
						c0-0.6-0.2-1.2-0.2-1.9c-0.1-1.3-0.1-2.6,0-4.3c1.6,0.5,2.8,1.7,3.7,2.9c0.5,0.6,0.8,1.3,1.1,2c0.2,0.7,0.4,1.4,0.6,2.1
						c0.1,0.7,0.2,1.5,0.2,2.2c-0.1,0.7,0,1.4-0.2,2.2C1186.6,581.2,1186.2,582.6,1185.2,584z"/>
				</g>
			</g>
		</g>
	</g>
	<g>
		<g>
			<g>
				<g>
					<path d="M871.8,154.9c1.3-1.7,2.3-3.2,3.7-4.7c0.6-0.8,1.4-1.4,2.2-2.1c0.9-0.6,1.8-1.2,2.8-1.7c1-0.4,2-0.8,3.1-1
						c1.1-0.2,2.1-0.3,3.2-0.3c2.1,0.1,4.3,0.7,6,2c-1.9,0.7-3.7,1.3-5.5,1.9c-0.8,0.3-1.6,0.6-2.4,0.9c-0.8,0.3-1.6,0.6-2.3,1
						c-0.8,0.3-1.5,0.7-2.3,1.1c-0.8,0.4-1.6,0.9-2.5,1.2C876.1,154.3,874,155.1,871.8,154.9z"/>
				</g>
			</g>
		</g>
	</g>
	<g>
		<g>
			<g>
				<g>
					<path d="M907.1,172.5c0.5-1.7,1-3,1.5-4.3c0.1-0.3,0.2-0.6,0.3-0.9c0.1-0.3,0.2-0.6,0.3-0.9l0.4-0.9l0.3-0.9l0.4-0.9l0.3-0.9
						l0.3-0.9c0.1-0.3,0.2-0.6,0.3-0.9c0.5-1.3,0.9-2.6,1.6-4.2c1.4,1.2,2,2.8,2.3,4.5c0.1,0.4,0.1,0.8,0.1,1.3l-0.1,1.3l-0.2,1.2
						l-0.3,1.2l-0.5,1.2l-0.6,1.1l-0.8,1c-0.3,0.3-0.6,0.6-0.9,0.9C910.5,171.7,908.9,172.5,907.1,172.5z"/>
				</g>
			</g>
		</g>
	</g>
	<g>
		<g>
			<g>
				<g>
					<path d="M953,209.1c1.3-1,2.6-1.4,3.9-1.5c0.7-0.1,1.3,0,2,0c0.6,0.1,1.3,0.3,1.9,0.4c0.6,0.3,1.2,0.5,1.8,0.8
						c0.6,0.4,1.2,0.7,1.6,1.2c1,0.9,1.8,2.2,2.1,3.7c-1.6,0-2.8-0.1-3.9-0.3c-0.6,0-1.1-0.2-1.6-0.3c-0.5-0.2-1-0.3-1.6-0.4
						c-0.5-0.2-1-0.4-1.5-0.6c-0.5-0.3-1-0.4-1.5-0.8C955.2,210.9,954.1,210.3,953,209.1z"/>
				</g>
			</g>
		</g>
	</g>
	<g>
		<g>
			<g>
				<g>
					<path d="M1141.5,526.8c0.1-2.4,0-4.7-0.2-7.1c-0.1-1.2-0.2-2.3-0.3-3.5c0-1.2-0.1-2.4-0.1-3.6c0-0.6,0.1-1.4,0.4-2.1
						c0.3-0.8,0.8-1.4,1.3-1.9c1.1-0.9,2.1-1.6,3.3-2c2.3-1,4.8-1.3,7.2-1.4c-2.2,1.1-4.4,2-6.3,3.1c-0.9,0.6-1.9,1.3-2.5,2
						c-0.3,0.3-0.6,0.7-0.7,1c-0.1,0.4-0.2,0.8-0.2,1.4c0,1.1,0,2.3,0,3.5c0,1.2,0,2.4-0.2,3.6
						C1143.1,522.1,1142.6,524.6,1141.5,526.8z"/>
				</g>
			</g>
		</g>
	</g>
	<path class="st8" d="M1035,201.6c3.4,0.3,7.5-0.9,10.7-1.6c3.1-0.7,6.3-1.5,9.5-1.6c3.4-0.2,6.7,0.5,10.1,0.9
		c2.2,0.2,5,0.2,7.2,0.9c0.1-0.1,0.1-0.1,0.2-0.2c-0.5-0.4-0.9-0.8-1.4-1.2c-2-1.4-4.1-1.9-6.3-2.7c0,0-0.1,0-0.1,0
		c-2.8-0.7-5.7-1.1-8.7-1c-5.6,0.2-11.5,1.9-17.3,3.3c-0.2,0.1-0.5,0.2-0.8,0.3C1036.9,199.5,1035.8,200.4,1035,201.6z"/>
</g>
</svg>
